<svg xmlns="http://www.w3.org/2000/svg" viewBox="0 0 199.24 78.7"><defs><style>.cls-1{fill:#e9e9e9;}.cls-2{fill:#a5adb9;}.cls-3{fill:#f59824;}.cls-4{fill:#2cb357;}.cls-5{fill:#ed2a4a;}.cls-6{fill:#d87912;}</style></defs><title>Asset 47</title><g id="Layer_2" data-name="Layer 2"><g id="Layer_1-2" data-name="Layer 1"><path class="cls-1" d="M113.26,78.7H71a7.68,7.68,0,0,1,0-15.35,3.83,3.83,0,0,0,3.84-3.84V55.67H78.7v3.84A7.68,7.68,0,0,1,71,67.19a3.84,3.84,0,0,0,0,7.67h42.24Z"/><rect class="cls-1" width="57.59" height="76.78" rx="3.84" ry="3.84"/><path class="cls-2" d="M65.27,7.68v5.76a7.67,7.67,0,0,0,7.67,7.68L69.11,57.59H86.38l-5.76-7.68,2.95-22.13a7.68,7.68,0,0,1,7.61-6.66H97.9L101.74,0H72.94A7.67,7.67,0,0,0,65.27,7.68Z"/><path class="cls-1" d="M99.82,0,96,21.12H107.5L111.34,0Z"/><path class="cls-3" d="M5.76,44.15h5.76V48H5.76Z"/><path class="cls-3" d="M15.36,44.15h5.76V48H15.36Z"/><path class="cls-3" d="M25,44.15h5.76V48H25Z"/><path class="cls-3" d="M5.76,51.83h5.76v3.84H5.76Z"/><path class="cls-3" d="M15.36,51.83h5.76v3.84H15.36Z"/><path class="cls-3" d="M25,51.83h5.76v3.84H25Z"/><path class="cls-3" d="M5.76,59.51h5.76v3.84H5.76Z"/><path class="cls-3" d="M15.36,59.51h5.76v3.84H15.36Z"/><path class="cls-3" d="M25,59.51h5.76v3.84H25Z"/><path class="cls-4" d="M36.47,46.07H49.91v7.68H36.47Z"/><path class="cls-5" d="M36.47,53.75H49.91v7.68H36.47Z"/><path class="cls-6" d="M0,7.68H57.59V3.84A3.84,3.84,0,0,0,53.75,0H3.84A3.84,3.84,0,0,0,0,3.84Z"/><path class="cls-6" d="M0,69.11H57.59v3.83a3.84,3.84,0,0,1-3.84,3.84H3.84A3.84,3.84,0,0,1,0,72.94Z"/><path class="cls-6" d="M49.91,13.44H7.68a1.92,1.92,0,0,0-1.92,1.92v23a1.92,1.92,0,0,0,1.92,1.92H49.91a1.92,1.92,0,0,0,1.92-1.92v-23A1.92,1.92,0,0,0,49.91,13.44ZM48,21.12H32.63V17.28H48Zm-30.71,0V17.28H28.79v3.84ZM28.79,25V36.47H17.28V25ZM9.6,17.28h3.84v3.84H9.6ZM9.6,25h3.84V36.47H9.6Zm23,11.52V25H48V36.47Z"/><path class="cls-3" d="M182.76,37.15a15.38,15.38,0,0,1-14.74-11H139.9V56.93h46.15V37l-.24-.15A15.39,15.39,0,0,1,182.76,37.15Z"/><path class="cls-1" d="M199.24,21.77a16.46,16.46,0,0,0-28.59-11.14A31.87,31.87,0,1,0,193.9,33.88,16.43,16.43,0,0,0,199.24,21.77ZM182.76,7.49a14.29,14.29,0,1,1-14.29,14.28A14.3,14.3,0,0,1,182.76,7.49Zm9.89,34.06A29.67,29.67,0,1,1,163,11.88a29.37,29.37,0,0,1,6.14.65,16.43,16.43,0,0,0,1.55,20.41v15.2h2.2V34.92a15.3,15.3,0,0,0,2.2,1.42v11.8h2.19V37.29a15.33,15.33,0,0,0,2.2.63V52.54h2.2V38.2c.36,0,.73,0,1.1,0A16.41,16.41,0,0,0,192,35.41,30.05,30.05,0,0,1,192.65,41.55Z"/><polygon class="cls-1" points="192.47 15.77 190.62 14.59 181.3 29.09 174.51 25.21 173.42 27.12 182.02 32.03 192.47 15.77"/><rect class="cls-1" x="161.88" y="61.33" width="2.2" height="2.2"/><rect class="cls-1" x="168.47" y="61.33" width="2.2" height="2.2"/><rect class="cls-1" x="175.07" y="61.33" width="2.2" height="2.2"/><rect class="cls-1" x="155.29" y="61.33" width="2.2" height="2.2"/><rect class="cls-1" x="148.7" y="61.33" width="2.2" height="2.2"/><rect class="cls-1" x="144.3" y="30.56" width="2.2" height="21.98"/><rect class="cls-1" x="148.7" y="30.56" width="2.2" height="17.58"/><rect class="cls-1" x="148.7" y="50.34" width="2.2" height="2.2"/><rect class="cls-1" x="153.09" y="30.56" width="2.2" height="17.58"/><rect class="cls-1" x="153.09" y="50.34" width="2.2" height="2.2"/><rect class="cls-1" x="157.49" y="30.56" width="2.2" height="17.58"/><rect class="cls-1" x="157.49" y="50.34" width="2.2" height="2.2"/><rect class="cls-1" x="161.88" y="30.56" width="2.2" height="17.58"/><rect class="cls-1" x="161.88" y="50.34" width="2.2" height="2.2"/><rect class="cls-1" x="175.07" y="50.34" width="2.2" height="2.2"/><rect class="cls-1" x="170.67" y="50.34" width="2.2" height="2.2"/><rect class="cls-1" x="166.28" y="30.56" width="2.2" height="21.98"/></g></g></svg>