<svg xmlns="http://www.w3.org/2000/svg" viewBox="0 0 281.58 49.51"><defs><style>.cls-1{fill:#e8e8e8;}.cls-2{fill:#017a3e;}.cls-3{fill:#fff;}.cls-4{fill:#d1d2d2;}.cls-5{fill:#333f48;}.cls-6{fill:#134b92;}.cls-7{fill:#ee3a4c;}.cls-8{fill:#e4e4e4;}.cls-9{fill:#599ad3;}</style></defs><title>Asset 46</title><g id="Layer_2" data-name="Layer 2"><g id="Layer_1-2" data-name="Layer 1"><path class="cls-1" d="M30.26,1.17H1.17V48.35H38.12V9Z"/><rect class="cls-2" x="10.2" y="10.77" width="18.66" height="18.66"/><rect class="cls-3" x="11.82" y="12.39" width="15.42" height="15.42"/><path class="cls-2" d="M26,22.55H21.27l1.41,1.76-1.41,1.75H26l-1.41-1.75Z"/><path class="cls-2" d="M24.67,16.4H20.11l-1,1.26-1-1.26H13.54l3.29,4.1-3.29,4.11H24.67L21.38,20.5Z"/><path class="cls-3" d="M15.49,17h-.66L20.48,24h.66Z"/><path class="cls-2" d="M31.48,5.1H1.17V1.17H30.26Z"/><path class="cls-4" d="M30.26,9h7.86L30.26,1.17Z"/><path class="cls-5" d="M26,38a1,1,0,0,1,.57-.14,4.48,4.48,0,0,1,1.81.48L29,36.75a5.81,5.81,0,0,0-2.37-.54,3.28,3.28,0,0,0-2.06.58,1.91,1.91,0,0,0-.75,1.61,2.52,2.52,0,0,0,.17,1,2,2,0,0,0,.55.72,4.8,4.8,0,0,0,1.09.64,9.33,9.33,0,0,1,1,.48.94.94,0,0,1,.27.23.44.44,0,0,1,.09.27.48.48,0,0,1-.21.4,1.14,1.14,0,0,1-.66.16A4.44,4.44,0,0,1,25,42.08a5.62,5.62,0,0,1-1.2-.46v1.8a4.67,4.67,0,0,0,1.05.36,6.16,6.16,0,0,0,1.25.11,3.81,3.81,0,0,0,1.56-.3,2.28,2.28,0,0,0,1-.84A2.17,2.17,0,0,0,29,41.52a2,2,0,0,0-.38-1.26,3.46,3.46,0,0,0-1.34-.93,9.82,9.82,0,0,1-1.23-.63.51.51,0,0,1-.23-.4A.42.42,0,0,1,26,38ZM39,8.2,31.09.34A1.17,1.17,0,0,0,30.26,0H1.17A1.17,1.17,0,0,0,0,1.17V48.35a1.16,1.16,0,0,0,1.17,1.16H38.12a1.16,1.16,0,0,0,1.17-1.16V9A1.17,1.17,0,0,0,39,8.2ZM31.43,4l3.88,3.88H31.43ZM2.33,2.33H29.09v1.6H2.33ZM37,47.18H2.33V6.27H29.09V9a1.18,1.18,0,0,0,1.17,1.17H37ZM17,36.32h-2.3l-1.3,2.31-1.35-2.31H9.86L12.18,40,9.71,43.78H12l1.44-2.33,1.46,2.33h2.33l-2.54-3.66Zm3,0h-2v7.46H23V42.15H20.07Z"/><path class="cls-1" d="M90.94,1.91H62.29V48.36H98.68V9.65Z"/><rect class="cls-6" x="71.19" y="11.36" width="18.37" height="18.37"/><rect class="cls-3" x="72.78" y="12.95" width="15.18" height="15.18"/><path class="cls-6" d="M77.18,23.62l.29-.73.66-1.64,2.37-5.46h2.37v5.6a14.06,14.06,0,0,1-.18,2.23l.94-2.44,2.14-5.39h2.74L84,26.13H80.76V21.74c0-.73,0-1.49.09-2.29A19.76,19.76,0,0,1,80,21.92l-1.79,4.21H75.16l-.34-10.34h2.61L77.36,21a20.33,20.33,0,0,1-.18,2.65Z"/><path class="cls-6" d="M92.14,5.78H62.29V1.91H90.94Z"/><path class="cls-4" d="M90.94,9.65h7.74L90.94,1.91Z"/><path class="cls-5" d="M99.49,8.83,91.75,1.09a1.14,1.14,0,0,0-.81-.33H62.29a1.15,1.15,0,0,0-1.15,1.15V48.36a1.15,1.15,0,0,0,1.15,1.15H98.68a1.14,1.14,0,0,0,1.15-1.15V9.65a1.15,1.15,0,0,0-.34-.82Zm-7.4-4.15L95.91,8.5H92.09ZM63.44,3.05H89.79V4.63H63.44ZM97.53,47.21H63.44V6.93H89.79V9.65a1.16,1.16,0,0,0,1.15,1.15h6.59ZM80.81,36.4a3.51,3.51,0,0,0-2.66,1,3.89,3.89,0,0,0-.92,2.8A4,4,0,0,0,78.15,43a3.48,3.48,0,0,0,2.65,1,3.52,3.52,0,0,0,2.67-1,4,4,0,0,0,.91-2.83,3.94,3.94,0,0,0-.91-2.82,3.48,3.48,0,0,0-2.66-1Zm1.11,5.4a1.28,1.28,0,0,1-1.12.52c-1,0-1.48-.71-1.48-2.14S79.82,38,80.81,38a1.28,1.28,0,0,1,1.11.53,2.89,2.89,0,0,1,.37,1.62,2.79,2.79,0,0,1-.37,1.62Zm-9.43-5.28H69.94v7.35h2.38a3.88,3.88,0,0,0,2.85-1,3.79,3.79,0,0,0,1-2.83,3.44,3.44,0,0,0-1-2.62,3.84,3.84,0,0,0-2.73-.9Zm1.21,5.2a1.61,1.61,0,0,1-1.33.52h-.44V38.12h.58a1.49,1.49,0,0,1,1.21.49,2.34,2.34,0,0,1,.4,1.5,2.56,2.56,0,0,1-.42,1.61ZM89,38a3.17,3.17,0,0,1,.88.13,6.89,6.89,0,0,1,.81.33l.61-1.57A5.32,5.32,0,0,0,89,36.41a3.74,3.74,0,0,0-1.9.47,3,3,0,0,0-1.23,1.33,4.41,4.41,0,0,0-.44,2A4,4,0,0,0,86.32,43a3.3,3.3,0,0,0,2.56,1A5,5,0,0,0,91,43.56V41.88a9.29,9.29,0,0,1-.92.33,3.36,3.36,0,0,1-1,.14c-1.08,0-1.61-.71-1.61-2.13a2.85,2.85,0,0,1,.39-1.6A1.3,1.3,0,0,1,89,38Z"/><path class="cls-1" d="M151.63,2.09H123.17V48.23h36.15V9.78Z"/><path class="cls-7" d="M153.18,24.91c-.56-1-2.47-1.3-3.35-1.44a13.4,13.4,0,0,0-2.1-.15c-.55,0-1.09,0-1.63.06l-.59.05c-.2-.21-.39-.43-.58-.64A21.19,21.19,0,0,1,142,18.12a18,18,0,0,0,.47-2.51,10.33,10.33,0,0,0-.35-4.91c-.2-.52-.75-1.16-1.38-.84s-.93,1.4-1,2.13a6.92,6.92,0,0,0,.09,1.76,12.11,12.11,0,0,0,.44,1.7c.16.51.34,1,.54,1.51-.12.39-.26.78-.4,1.16-.33.86-.68,1.67-1,2.46l-.53,1.14a35,35,0,0,1-1.8,3.5A20.08,20.08,0,0,0,133,27.14a9,9,0,0,0-1.62,1.31,2.89,2.89,0,0,0-.91,1.68,1.09,1.09,0,0,0,.42.94,1.81,1.81,0,0,0,1.44.18c1.56-.32,2.75-1.67,3.77-2.8a27.36,27.36,0,0,0,2.34-3h0a34.89,34.89,0,0,1,4.65-1.09c.76-.13,1.54-.23,2.33-.3a11.23,11.23,0,0,0,1.82,1.39,8.06,8.06,0,0,0,1.62.78,11.92,11.92,0,0,0,1.76.44,5.62,5.62,0,0,0,.92.05c.71,0,1.72-.3,1.79-1.15a1.21,1.21,0,0,0-.15-.69ZM136.3,26.47c-.33.52-.64,1-.94,1.38a6.85,6.85,0,0,1-2.79,2.63,2.07,2.07,0,0,1-.86.15c-.28,0-.56-.14-.55-.46a1.38,1.38,0,0,1,.22-.6,3.39,3.39,0,0,1,.49-.64,8.51,8.51,0,0,1,1.49-1.21,17.12,17.12,0,0,1,3.15-1.56l-.21.31Zm4.15-12.82a5.38,5.38,0,0,1,0-1.6,3.7,3.7,0,0,1,.16-.75c.06-.2.2-.7.43-.76s.48.69.52.91a9.94,9.94,0,0,1-.26,4c0,.2-.09.4-.14.6-.09-.25-.18-.49-.26-.74a11.83,11.83,0,0,1-.4-1.61ZM143,23.74a34.44,34.44,0,0,0-4,.87A9.85,9.85,0,0,0,140,23a19.9,19.9,0,0,0,1.73-4,19.34,19.34,0,0,0,2.76,4.15l.31.33c-.62.07-1.23.15-1.83.25Zm9.39,1.78c0,.27-.63.43-.91.47a5.19,5.19,0,0,1-2.44-.23A7.61,7.61,0,0,1,147.5,25a8.88,8.88,0,0,1-1.36-1c.52,0,1.05-.05,1.58,0a12.28,12.28,0,0,1,1.6.1,5.65,5.65,0,0,1,2.88,1.09c.15.13.2.24.18.34Z"/><path class="cls-7" d="M152.82,5.93H123.17V2.09h28.46Z"/><path class="cls-4" d="M151.63,9.78h7.69l-7.69-7.69Z"/><path class="cls-5" d="M141.17,36.47h-2.53v7.3H141a3.86,3.86,0,0,0,2.83-1,3.78,3.78,0,0,0,1-2.82,3.4,3.4,0,0,0-1-2.6,3.85,3.85,0,0,0-2.71-.89Zm1.2,5.16a1.59,1.59,0,0,1-1.32.52h-.44V38.06h.58a1.46,1.46,0,0,1,1.2.48,2.31,2.31,0,0,1,.4,1.49,2.53,2.53,0,0,1-.42,1.6Zm-5.59-4.56a3.09,3.09,0,0,0-2.08-.6h-2.52v7.3h2V41.35h.55a2.92,2.92,0,0,0,2.05-.67,2.47,2.47,0,0,0,.73-1.89,2.17,2.17,0,0,0-.7-1.72Zm-1.56,2.42a1,1,0,0,1-.71.25h-.36V38.06h.51c.54,0,.82.24.82.74a.94.94,0,0,1-.26.69ZM160.12,9l-7.69-7.69a1.14,1.14,0,0,0-.8-.33H123.17A1.14,1.14,0,0,0,122,2.09V48.23a1.14,1.14,0,0,0,1.14,1.14h36.15a1.14,1.14,0,0,0,1.14-1.14V9.78a1.11,1.11,0,0,0-.34-.81Zm-7.35-4.13,3.79,3.8h-3.79ZM124.31,3.23h26.17V4.79H124.31Zm33.86,43.86H124.31v-40h26.17V9.78a1.15,1.15,0,0,0,1.15,1.14h6.54Zm-12-3.32h1.94V41h2.19V39.44h-2.19V38.05h2.37V36.47h-4.31Z"/><path class="cls-8" d="M212,2.45H184V47.76h35.49V10Z"/><path class="cls-2" d="M213.14,6.23H184V2.45H212Z"/><path class="cls-4" d="M212,10h7.55L212,2.45Z"/><rect class="cls-2" x="199.29" y="14.46" width="4.97" height="2.3"/><rect class="cls-2" x="205.37" y="14.46" width="4.97" height="2.3"/><rect class="cls-2" x="199.29" y="17.79" width="4.97" height="2.3"/><rect class="cls-2" x="205.37" y="17.79" width="4.97" height="2.3"/><rect class="cls-2" x="199.29" y="21.13" width="4.97" height="2.3"/><rect class="cls-2" x="205.37" y="21.13" width="4.97" height="2.3"/><rect class="cls-2" x="193.22" y="21.13" width="4.97" height="2.3"/><rect class="cls-2" x="199.29" y="24.46" width="4.97" height="2.3"/><rect class="cls-2" x="205.37" y="24.46" width="4.97" height="2.3"/><rect class="cls-2" x="193.22" y="24.46" width="4.97" height="2.3"/><path class="cls-2" d="M198.12,19.81h-1.5l-.94-1.5-.92,1.5h-1.47l1.59-2.46L193.38,15h1.44l.87,1.48.83-1.48H198l-1.52,2.45Z"/><path class="cls-5" d="M220.32,9.21l-7.55-7.55a1.13,1.13,0,0,0-.79-.33H184a1.12,1.12,0,0,0-1.12,1.12V47.76A1.12,1.12,0,0,0,184,48.88h35.49a1.13,1.13,0,0,0,1.12-1.12V10a1.11,1.11,0,0,0-.33-.79ZM213.1,5.16l3.72,3.72H213.1ZM185.16,3.57h25.7V5.11h-25.7Zm33.25,43.06H185.16V7.35h25.7V10A1.12,1.12,0,0,0,212,11.12h6.43ZM196.29,36.52a2.78,2.78,0,0,1,.83.12,8.15,8.15,0,0,1,.77.3l.57-1.47a4.87,4.87,0,0,0-2.15-.49,3.57,3.57,0,0,0-1.79.44,2.93,2.93,0,0,0-1.16,1.25,4.12,4.12,0,0,0-.41,1.9,3.76,3.76,0,0,0,.84,2.63,3.09,3.09,0,0,0,2.4.91,4.94,4.94,0,0,0,2-.38V40.14c-.29.12-.58.22-.87.31a3,3,0,0,1-.89.13c-1,0-1.52-.67-1.52-2a2.61,2.61,0,0,1,.37-1.51,1.19,1.19,0,0,1,1-.55Zm5,.09a.84.84,0,0,1,.53-.13,4.14,4.14,0,0,1,1.68.45l.57-1.45a5.39,5.39,0,0,0-2.19-.5,3.08,3.08,0,0,0-1.92.54,1.79,1.79,0,0,0-.7,1.49,2.21,2.21,0,0,0,.17.89,1.87,1.87,0,0,0,.5.66,4.49,4.49,0,0,0,1,.6,7,7,0,0,1,.92.45.79.79,0,0,1,.25.21.44.44,0,0,1,.08.25.43.43,0,0,1-.19.37,1,1,0,0,1-.62.15,3.9,3.9,0,0,1-1.06-.16,5,5,0,0,1-1.11-.43v1.67a4.18,4.18,0,0,0,1,.34,5.54,5.54,0,0,0,1.17.1,3.4,3.4,0,0,0,1.44-.28,2.11,2.11,0,0,0,.95-.78,2.08,2.08,0,0,0,.32-1.14,1.85,1.85,0,0,0-.35-1.17,3.2,3.2,0,0,0-1.24-.86,9.39,9.39,0,0,1-1.15-.59.46.46,0,0,1-.21-.36.39.39,0,0,1,.17-.32Zm6.79,2c-.05.19-.11.46-.18.79a7.19,7.19,0,0,0-.13.83,11.47,11.47,0,0,0-.32-1.63l-.95-3.52h-2.1L206.63,42h2.2l2.28-6.94H209Z"/><path class="cls-1" d="M272.85,2.15H244.73v45.6h35.72v-38Z"/><rect class="cls-3" x="253.46" y="11.43" width="4.51" height="4.51"/><rect class="cls-4" x="257.97" y="11.43" width="4.51" height="4.51"/><rect class="cls-3" x="262.47" y="11.43" width="4.51" height="4.51"/><rect class="cls-4" x="266.98" y="11.43" width="4.51" height="4.51"/><rect class="cls-3" x="266.98" y="15.94" width="4.51" height="4.51"/><rect class="cls-4" x="262.47" y="15.94" width="4.51" height="4.51"/><rect class="cls-3" x="257.97" y="15.94" width="4.51" height="4.51"/><rect class="cls-4" x="253.46" y="15.94" width="4.51" height="4.51"/><rect class="cls-3" x="253.46" y="20.44" width="4.51" height="4.51"/><rect class="cls-4" x="257.97" y="20.44" width="4.51" height="4.51"/><rect class="cls-3" x="262.47" y="20.44" width="4.51" height="4.51"/><rect class="cls-4" x="266.98" y="20.44" width="4.51" height="4.51"/><rect class="cls-3" x="266.98" y="24.95" width="4.51" height="4.51"/><rect class="cls-4" x="262.47" y="24.95" width="4.51" height="4.51"/><rect class="cls-3" x="257.97" y="24.95" width="4.51" height="4.51"/><rect class="cls-4" x="253.46" y="24.95" width="4.51" height="4.51"/><path class="cls-2" d="M267.58,20.6l-3.58,6-5.83-9.83-4.71,8v4.7h18V27.2Z"/><path class="cls-9" d="M274,6H244.73V2.15h28.12Z"/><path class="cls-4" d="M272.85,9.75h7.6l-7.6-7.6Z"/><path class="cls-5" d="M281.25,9l-7.6-7.6a1.15,1.15,0,0,0-.8-.33H244.73a1.12,1.12,0,0,0-1.13,1.13v45.6a1.13,1.13,0,0,0,1.13,1.13h35.72a1.14,1.14,0,0,0,1.13-1.13v-38a1.14,1.14,0,0,0-.33-.8ZM274,4.87l3.74,3.75H274ZM245.85,3.28h25.87V4.82H245.85Zm33.47,43.34H245.85V7.08h25.87V9.75a1.13,1.13,0,0,0,1.13,1.12h6.47Zm-15.7-7.23c0,.44,0,1,.07,1.75h0l-2.62-5h-2.55v7.22h1.73V40.09c0-.43,0-1-.1-1.84h.05l2.64,5.09h2.55V36.12h-1.74Zm6.2,1.23h1.29v1.13a3.39,3.39,0,0,1-.8.08,1.45,1.45,0,0,1-1.22-.53,2.42,2.42,0,0,1-.42-1.54,2.36,2.36,0,0,1,.47-1.59,1.62,1.62,0,0,1,1.32-.55,3.9,3.9,0,0,1,1.71.38l.62-1.53a5.32,5.32,0,0,0-1.06-.32,5.85,5.85,0,0,0-1.28-.13,3.85,3.85,0,0,0-2.8,1,3.65,3.65,0,0,0-1,2.72,3.85,3.85,0,0,0,.92,2.76,3.33,3.33,0,0,0,2.57,1,8.5,8.5,0,0,0,2.79-.44V39.11h-3.11Zm-13.17-3.9a3,3,0,0,0-2-.6h-2.5v7.22h2v-2.4h.55a2.88,2.88,0,0,0,2-.65,2.45,2.45,0,0,0,.71-1.87,2.12,2.12,0,0,0-.69-1.7Zm-1.54,2.39a1,1,0,0,1-.7.25h-.36V37.7h.51c.54,0,.81.24.81.73a.91.91,0,0,1-.26.68Z"/></g></g></svg>