<?xml version="1.0" encoding="utf-8"?>
<!-- Generator: Adobe Illustrator 25.0.1, SVG Export Plug-In . SVG Version: 6.00 Build 0)  -->
<svg version="1.1" id="Layer_1" xmlns="http://www.w3.org/2000/svg" xmlns:xlink="http://www.w3.org/1999/xlink" x="0px" y="0px"
	 viewBox="0 0 166.1 151.1" style="enable-background:new 0 0 166.1 151.1;" xml:space="preserve">
<style type="text/css">
	.st0{fill:#E0E0E0;}
	.st1{fill:#FFFFFF;stroke:#1B75BB;stroke-width:2;stroke-miterlimit:10;}
	.st2{fill:#565656;}
	.st3{fill:#727272;}
	.st4{fill:none;stroke:#A5A5A5;stroke-width:0.25;stroke-miterlimit:10;}
	.st5{fill:#EFEFEF;}
	.st6{enable-background:new    ;}
	.st7{fill:#A672F7;}
</style>
<rect x="9.1" y="-2.3" transform="matrix(2.373426e-02 -0.9997 0.9997 2.373426e-02 2.0731 154.9864)" class="st0" width="142.5" height="157.4"/>
<rect x="12.2" y="-3.1" transform="matrix(4.239879e-02 -0.9991 0.9991 4.239879e-02 4.3707 155.7088)" class="st1" width="142.5" height="157.4"/>
<rect x="141.5" y="24.8" transform="matrix(4.239879e-02 -0.9991 0.9991 4.239879e-02 107.801 169.5907)" class="st2" width="1.7" height="7.5"/>
<rect x="150" y="24.3" transform="matrix(3.995742e-02 -0.9992 0.9992 3.995742e-02 115.5515 178.7423)" class="st3" width="1.7" height="9.8"/>
<rect x="139.1" y="24.6" transform="matrix(4.239879e-02 -0.9991 0.9991 4.239879e-02 103.4152 169.1468)" class="st2" width="1.7" height="12.1"/>
<rect x="149.9" y="26.5" transform="matrix(3.995742e-02 -0.9992 0.9992 3.995742e-02 113.2851 180.7167)" class="st3" width="1.7" height="9.8"/>
<rect x="137.7" y="25.4" transform="matrix(4.239879e-02 -0.9991 0.9991 4.239879e-02 99.9475 169.7652)" class="st2" width="1.7" height="14.7"/>
<rect x="149.8" y="28.7" transform="matrix(3.995742e-02 -0.9992 0.9992 3.995742e-02 111.0383 182.7115)" class="st3" width="1.7" height="9.8"/>
<rect x="83.7" y="11.8" transform="matrix(4.239879e-02 -0.9991 0.9991 4.239879e-02 54.8606 109.9671)" class="st2" width="2.2" height="29.1"/>
<rect x="83.6" y="14" transform="matrix(3.995742e-02 -0.9992 0.9992 3.995742e-02 50.166 114.6009)" class="st3" width="2.2" height="34.4"/>
<line class="st4" x1="10.2" y1="31.7" x2="158.7" y2="38"/>
<line class="st4" x1="8.9" y1="63.2" x2="157.4" y2="69.5"/>
<line class="st4" x1="8.7" y1="68.5" x2="157.1" y2="74.8"/>
<path class="st5" d="M10.2,39l0.1-2.3c0-0.9,0.8-1.6,1.7-1.6l144.9,6.1c0.9,0,1.6,0.8,1.6,1.7l-0.1,2.3c0,0.9-0.8,1.6-1.7,1.6
	L11.8,40.7C10.9,40.7,10.2,39.9,10.2,39z"/>
<rect x="25.6" y="23.7" transform="matrix(4.239879e-02 -0.9991 0.9991 4.239879e-02 -12.9763 63.7144)" class="st2" width="2.2" height="29.9"/>
<path class="st5" d="M8.3,84.8l0.1-2.3c0-0.9,0.8-1.6,1.7-1.6L155,87.1c0.9,0,1.6,0.8,1.6,1.7l-0.1,2.3c0,0.9-0.8,1.6-1.7,1.6
	L9.8,86.5C8.9,86.4,8.2,85.7,8.3,84.8z"/>
<rect x="23.7" y="69.4" transform="matrix(4.239879e-02 -0.9991 0.9991 4.239879e-02 -60.5341 105.5715)" class="st2" width="2.2" height="29.9"/>
<path class="st5" d="M7.9,92.8L8,90.5c0-0.9,0.8-1.6,1.7-1.6l144.9,6.1c0.9,0,1.6,0.8,1.6,1.7l-0.1,2.3c0,0.9-0.8,1.6-1.7,1.6
	L9.5,94.5C8.6,94.5,7.9,93.7,7.9,92.8z"/>
<rect x="23.6" y="77.5" transform="matrix(3.995742e-02 -0.9992 0.9992 3.995742e-02 -68.6692 113.4691)" class="st2" width="2.2" height="29.9"/>
<path class="st5" d="M7.6,100.1l0.1-2.3c0-0.9,0.8-1.6,1.7-1.6l144.9,6.1c0.9,0,1.6,0.8,1.6,1.7l-0.1,2.3c0,0.9-0.8,1.6-1.7,1.6
	L9.2,101.8C8.3,101.8,7.6,101,7.6,100.1z"/>
<rect x="23" y="84.8" transform="matrix(4.239879e-02 -0.9991 0.9991 4.239879e-02 -76.5364 119.6596)" class="st2" width="2.2" height="29.9"/>
<path class="st5" d="M7,115.6l0.1-2.3c0-0.9,0.8-1.6,1.7-1.6l144.9,6.1c0.9,0,1.6,0.8,1.6,1.7l-0.1,2.3c0,0.9-0.8,1.6-1.7,1.6
	L8.5,117.3C7.6,117.3,6.9,116.5,7,115.6z"/>
<rect x="17.5" y="105" transform="matrix(4.239879e-02 -0.9991 0.9991 4.239879e-02 -97.133 128.6948)" class="st2" width="2.2" height="20"/>
<path class="st5" d="M6.7,122.9l0.1-2.3c0-0.9,0.8-1.6,1.7-1.6l144.9,6.1c0.9,0,1.6,0.8,1.6,1.7l-0.1,2.3c0,0.9-0.8,1.6-1.7,1.6
	L8.2,124.6C7.3,124.6,6.6,123.8,6.7,122.9z"/>
<rect x="13.9" y="115.4" transform="matrix(4.239879e-02 -0.9991 0.9991 4.239879e-02 -107.7142 131.9765)" class="st2" width="2.2" height="13.5"/>
<rect x="150.2" y="125.5" transform="matrix(3.996804e-02 -0.9992 0.9992 3.996804e-02 17.8215 273.6586)" class="st2" width="2.2" height="4.2"/>
<rect x="80.3" y="90.8" transform="matrix(4.239879e-02 -0.9991 0.9991 4.239879e-02 -31.8514 186.5018)" class="st2" width="2.2" height="38"/>
<rect x="79.3" y="113.1" transform="matrix(4.239879e-02 -0.9991 0.9991 4.239879e-02 -55.0364 206.9212)" class="st2" width="2.2" height="38"/>
<rect x="24.6" y="34.8" transform="matrix(4.239879e-02 -0.9991 0.9991 4.239879e-02 -20.1941 68.6098)" class="st2" width="2.2" height="20.1"/>
<rect x="20.3" y="43.5" transform="matrix(4.239879e-02 -0.9991 0.9991 4.239879e-02 -28.953 68.7992)" class="st2" width="2.2" height="11.9"/>
<rect x="19" y="49.9" transform="matrix(4.239879e-02 -0.9991 0.9991 4.239879e-02 -35.424 72.5297)" class="st2" width="2.2" height="9.8"/>
<rect x="16.7" y="56.9" transform="matrix(4.239879e-02 -0.9991 0.9991 4.239879e-02 -42.5313 74.9683)" class="st2" width="2.2" height="5.6"/>
<rect x="154" y="47.5" transform="matrix(4.239879e-02 -0.9991 0.9991 4.239879e-02 98.2014 203.1348)" class="st2" width="2.2" height="5.6"/>
<rect x="153.2" y="51.8" transform="matrix(4.239879e-02 -0.9991 0.9991 4.239879e-02 92.6581 206.9577)" class="st2" width="2.2" height="6.8"/>
<rect x="154" y="57.4" transform="matrix(3.996804e-02 -0.9992 0.9992 3.996804e-02 88.9554 212.6263)" class="st2" width="2.2" height="5.3"/>
<rect x="152.8" y="62.1" transform="matrix(4.239879e-02 -0.9991 0.9991 4.239879e-02 81.9516 216.3999)" class="st2" width="2.2" height="6.8"/>
<rect x="152" y="67.7" transform="matrix(4.239879e-02 -0.9991 0.9991 4.239879e-02 75.2164 221.4645)" class="st2" width="2.2" height="7.7"/>
<rect x="13.7" y="62.5" transform="matrix(4.239879e-02 -0.9991 0.9991 4.239879e-02 -51.8316 78.1457)" class="st2" width="2.2" height="7.3"/>
<rect x="23.9" y="63" transform="matrix(4.239879e-02 -0.9991 0.9991 4.239879e-02 -49.1299 95.1015)" class="st2" width="2.2" height="20.3"/>
<rect x="24.9" y="66.7" transform="matrix(4.239879e-02 -0.9991 0.9991 4.239879e-02 -52.9937 100.6173)" class="st2" width="2.2" height="22.6"/>
<rect x="153.2" y="76.3" transform="matrix(4.239879e-02 -0.9991 0.9991 4.239879e-02 69.1709 229.507)" class="st2" width="2.2" height="4.7"/>
<rect x="153.1" y="81.1" transform="matrix(4.239879e-02 -0.9991 0.9991 4.239879e-02 64.3661 233.9346)" class="st2" width="2.2" height="4.5"/>
<g class="st6">
	<path class="st7" d="M53.6,19.2l0.2-4.5c0-0.2,0.2-0.4,0.4-0.4h0c0,0,0,0,0,0l2.5,0.1c0.2,0,0.4,0.2,0.4,0.4c0,0.2-0.2,0.4-0.4,0.4
		l-2.1-0.1l-0.1,1.4l1.8,0.1c0.2,0,0.4,0.2,0.4,0.4c0,0.2-0.2,0.4-0.4,0.4l-1.8-0.1l-0.1,1.8c0,0.2-0.2,0.4-0.5,0.4
		C53.7,19.6,53.6,19.4,53.6,19.2z"/>
	<path class="st7" d="M58.5,14.8c0-0.2,0.2-0.4,0.4-0.4c0.2,0,0.4,0.2,0.4,0.4l-0.2,4.5c0,0.2-0.2,0.4-0.5,0.4
		c-0.2,0-0.4-0.2-0.4-0.4L58.5,14.8z"/>
	<path class="st7" d="M61.4,19.5c0,0.2-0.2,0.4-0.4,0.4c-0.2,0-0.4-0.2-0.4-0.4l0.2-4.5c0,0,0,0,0,0c0-0.1,0.1-0.3,0.2-0.3
		c0.2-0.1,0.5-0.1,0.6,0.1l2.3,3.6l0.1-3.2c0-0.2,0.2-0.4,0.4-0.4c0.2,0,0.4,0.2,0.4,0.4l-0.2,4.5c0,0.2-0.2,0.4-0.4,0.4
		c-0.1,0-0.2-0.1-0.3-0.2c0,0,0,0,0,0l-2.3-3.5L61.4,19.5z"/>
	<path class="st7" d="M69.3,19L67.4,19l-0.4,1c-0.1,0.2-0.2,0.3-0.4,0.2c-0.1,0-0.1,0-0.1,0c-0.2-0.1-0.3-0.3-0.2-0.6l1.9-4.5
		c0.1-0.2,0.3-0.3,0.4-0.3c0.2,0,0.3,0.1,0.4,0.3l1.5,4.6c0.1,0.2-0.1,0.5-0.3,0.5c0,0-0.1,0-0.1,0c-0.2,0-0.3-0.1-0.4-0.3L69.3,19z
		 M69,18.2l-0.5-1.7l-0.7,1.6L69,18.2z"/>
	<path class="st7" d="M72.3,20c0,0.2-0.2,0.4-0.4,0.4c-0.2,0-0.4-0.2-0.4-0.4l0.2-4.5c0,0,0,0,0,0c0-0.1,0.1-0.3,0.2-0.3
		c0.2-0.1,0.5-0.1,0.6,0.1l2.3,3.6l0.1-3.2c0-0.2,0.2-0.4,0.4-0.4s0.4,0.2,0.4,0.4l-0.2,4.5c0,0.2-0.2,0.4-0.4,0.4
		c-0.1,0-0.2-0.1-0.3-0.2c0,0,0,0,0,0l-2.3-3.5L72.3,20z"/>
	<path class="st7" d="M77.3,17.9c0.1-1.5,1.4-2.7,3-2.6c0.7,0,1.3,0.3,1.7,0.7c0.2,0.2,0.2,0.4,0,0.6c-0.2,0.2-0.4,0.2-0.6,0.1
		c-0.3-0.3-0.7-0.5-1.2-0.5c-0.5,0-1,0.2-1.4,0.5c-0.4,0.3-0.6,0.8-0.6,1.3c0,0.5,0.2,1,0.5,1.4c0.3,0.4,0.8,0.6,1.4,0.6
		c0.5,0,0.9-0.1,1.3-0.4c0.2-0.1,0.5-0.1,0.6,0.1c0.1,0.2,0.1,0.5-0.1,0.6c-0.5,0.4-1.1,0.5-1.8,0.5C78.4,20.7,77.2,19.4,77.3,17.9z
		"/>
	<path class="st7" d="M83.6,16c0-0.2,0.2-0.4,0.4-0.4c0.2,0,0.4,0.2,0.4,0.4l-0.2,4.5c0,0.2-0.2,0.4-0.5,0.4c-0.2,0-0.4-0.2-0.4-0.4
		L83.6,16z"/>
	<path class="st7" d="M88.5,19.9l-1.9-0.1l-0.4,1c-0.1,0.2-0.2,0.3-0.4,0.3c-0.1,0-0.1,0-0.1,0c-0.2-0.1-0.3-0.3-0.2-0.6l1.9-4.5
		c0.1-0.2,0.3-0.3,0.4-0.3c0.2,0,0.3,0.1,0.4,0.3l1.5,4.6c0.1,0.2-0.1,0.5-0.3,0.5c0,0-0.1,0-0.1,0c-0.2,0-0.3-0.1-0.4-0.3
		L88.5,19.9z M88.2,19.1l-0.5-1.7L86.9,19L88.2,19.1z"/>
	<path class="st7" d="M90.6,20.9l0.2-4.5c0-0.2,0.2-0.4,0.4-0.4c0.2,0,0.4,0.2,0.4,0.4l-0.2,4.1l2.1,0.1c0.2,0,0.4,0.2,0.4,0.5
		c0,0.2-0.2,0.4-0.4,0.4l-2.5-0.1c0,0,0,0,0,0c0,0,0,0,0,0C90.8,21.3,90.6,21.1,90.6,20.9z"/>
	<path class="st7" d="M100.9,21.2c0.1,0.2-0.1,0.5-0.3,0.5c0,0-0.1,0-0.2,0c0,0,0,0,0,0c-0.1,0-0.2,0-0.3-0.1
		c-0.1-0.1-0.2-0.2-0.2-0.3c-0.1-0.2-0.1-0.5-0.1-0.9c0-0.1,0-0.2-0.1-0.3c0-0.1-0.1-0.2-0.2-0.2c-0.2-0.1-0.4-0.2-0.4-0.2l-0.9,0
		L98,21.2c0,0.2-0.2,0.4-0.5,0.4c-0.2,0-0.4-0.2-0.4-0.4l0.2-4.5c0-0.2,0.2-0.4,0.4-0.4c0,0,0,0,0,0l1.4,0.1c0.9,0,1.6,0.8,1.6,1.7
		c0,0.5-0.3,0.9-0.7,1.2c0.1,0.1,0.2,0.2,0.3,0.3c0.1,0.2,0.2,0.5,0.2,0.8c0,0.2,0,0.4,0,0.5C100.7,20.9,100.8,21,100.9,21.2z
		 M99.9,18c0-0.4-0.3-0.8-0.8-0.8l-0.9,0l-0.1,1.6l0.9,0C99.5,18.8,99.9,18.4,99.9,18z"/>
	<path class="st7" d="M102.1,21.4l0.2-4.5c0-0.2,0.2-0.4,0.4-0.4h0c0,0,0,0,0,0l2.5,0.1c0.2,0,0.4,0.2,0.4,0.4
		c0,0.2-0.2,0.4-0.4,0.4l-2.1-0.1l-0.1,1.4l1.8,0.1c0.2,0,0.4,0.2,0.4,0.4c0,0.2-0.2,0.4-0.4,0.4l-1.8-0.1L103,21l2.1,0.1
		c0.2,0,0.4,0.2,0.4,0.5c0,0.2-0.2,0.4-0.4,0.4l-2.5-0.1c0,0,0,0,0,0l0,0C102.3,21.9,102.1,21.7,102.1,21.4z"/>
	<path class="st7" d="M108.5,20.1l-0.9,0l-0.1,1.7c0,0.2-0.2,0.4-0.5,0.4c-0.2,0-0.4-0.2-0.4-0.4l0.2-4.5c0-0.2,0.2-0.4,0.4-0.4h0
		l1.4,0.1c0.9,0,1.6,0.8,1.6,1.7C110.2,19.4,109.4,20.1,108.5,20.1z M107.6,19.2l0.9,0c0.4,0,0.8-0.3,0.8-0.7c0-0.4-0.3-0.8-0.8-0.8
		l-0.9,0L107.6,19.2z"/>
	<path class="st7" d="M115.6,17.8c0.5,0.5,0.7,1.2,0.7,2c0,0.8-0.4,1.4-0.9,1.9c-0.5,0.5-1.2,0.8-1.9,0.7c-0.7,0-1.4-0.4-1.8-0.9
		c-0.5-0.5-0.7-1.2-0.7-2c0-0.8,0.4-1.4,0.9-1.9c0.5-0.5,1.2-0.8,1.9-0.7C114.5,16.9,115.2,17.2,115.6,17.8z M115.4,19.7
		c0-0.5-0.2-1-0.5-1.4c-0.3-0.4-0.7-0.6-1.2-0.6c-0.5,0-0.9,0.2-1.3,0.5c-0.3,0.3-0.6,0.8-0.6,1.3c0,0.5,0.2,1,0.5,1.4
		c0.3,0.4,0.7,0.6,1.2,0.6c0.5,0,0.9-0.2,1.2-0.5C115.1,20.7,115.4,20.2,115.4,19.7z"/>
</g>
<g class="st6">
	<path class="st7" d="M121.2,22.1c0.1,0.2-0.1,0.5-0.3,0.5c0,0-0.1,0-0.2,0c0,0,0,0,0,0c-0.1,0-0.2,0-0.3-0.1
		c-0.1-0.1-0.2-0.2-0.2-0.3c-0.1-0.2-0.1-0.5-0.1-0.9c0-0.1,0-0.2-0.1-0.3c0-0.1-0.1-0.2-0.2-0.2c-0.2-0.1-0.4-0.2-0.4-0.2l-0.9,0
		l-0.1,1.7c0,0.2-0.2,0.4-0.5,0.4c-0.2,0-0.4-0.2-0.4-0.4l0.2-4.5c0-0.2,0.2-0.4,0.4-0.4c0,0,0,0,0,0l1.4,0.1c0.9,0,1.6,0.8,1.6,1.7
		c0,0.5-0.3,0.9-0.7,1.2c0.1,0.1,0.2,0.2,0.3,0.3c0.1,0.2,0.2,0.5,0.2,0.8c0,0.2,0,0.4,0,0.5C121.1,21.9,121.2,22,121.2,22.1z
		 M120.3,19c0-0.4-0.3-0.8-0.8-0.8l-0.9,0l-0.1,1.6l0.9,0C119.9,19.7,120.3,19.4,120.3,19z"/>
</g>
<g class="st6">
	<path class="st7" d="M125.8,18.4l-1.2-0.1l-0.2,4.1c0,0.2-0.2,0.4-0.4,0.4c-0.2,0-0.4-0.2-0.4-0.4l0.2-4.1l-1.2-0.1
		c-0.2,0-0.4-0.2-0.4-0.5c0-0.2,0.2-0.4,0.4-0.4l3.3,0.2c0.2,0,0.4,0.2,0.4,0.4C126.2,18.2,126,18.4,125.8,18.4z"/>
</g>
</svg>
