<svg xmlns="http://www.w3.org/2000/svg" viewBox="0 0 166.12 151.14"><defs><style>.a{fill:#e0e0e0;}.b{fill:#fff;stroke:#1b75bb;stroke-miterlimit:10;stroke-width:2px;}.c{fill:#565656;}.d{fill:#727272;}.e{fill:none;stroke:#a5a5a5;stroke-miterlimit:10;stroke-width:0.25px;}.f{fill:#efefef;}.g{font-size:7.7px;fill:#a672f7;font-family:Quicksand-Bold, Quicksand;font-weight:700;}.h{letter-spacing:-0.02em;}</style></defs><rect class="a" x="9.13" y="-2.28" width="142.51" height="157.43" transform="translate(2.07 154.98) rotate(-88.64)"/><rect class="b" x="12.16" y="-3.14" width="142.51" height="157.43" transform="translate(4.37 155.71) rotate(-87.57)"/><rect class="c" x="141.54" y="24.83" width="1.66" height="7.46" transform="translate(107.8 169.59) rotate(-87.57)"/><rect class="d" x="149.97" y="24.32" width="1.66" height="9.84" transform="translate(115.55 178.75) rotate(-87.71)"/><rect class="c" x="139.12" y="24.58" width="1.66" height="12.12" transform="translate(103.4 169.15) rotate(-87.57)"/><rect class="d" x="149.87" y="26.49" width="1.66" height="9.84" transform="translate(113.28 180.73) rotate(-87.71)"/><rect class="c" x="137.72" y="25.38" width="1.66" height="14.74" transform="translate(99.94 169.78) rotate(-87.57)"/><rect class="d" x="149.78" y="28.66" width="1.66" height="9.84" transform="translate(111.03 182.72) rotate(-87.71)"/><rect class="c" x="83.71" y="11.85" width="2.18" height="29.05" transform="translate(54.85 109.97) rotate(-87.57)"/><rect class="d" x="83.64" y="14.01" width="2.18" height="34.38" transform="translate(50.16 114.61) rotate(-87.71)"/><line class="e" x1="10.23" y1="31.74" x2="158.69" y2="38.03"/><line class="e" x1="8.9" y1="63.21" x2="157.36" y2="69.5"/><line class="e" x1="8.67" y1="68.5" x2="157.14" y2="74.79"/><rect class="f" x="81.57" y="-33.14" width="5.55" height="148.3" rx="1.63" transform="translate(39.79 123.54) rotate(-87.57)"/><rect class="c" x="25.65" y="23.67" width="2.21" height="29.9" transform="translate(-12.97 63.72) rotate(-87.57)"/><rect class="f" x="79.63" y="12.61" width="5.55" height="148.3" rx="1.63" transform="translate(-7.77 165.41) rotate(-87.57)"/><rect class="c" x="23.71" y="69.42" width="2.21" height="29.9" transform="translate(-60.54 105.58) rotate(-87.57)"/><rect class="f" x="79.29" y="20.67" width="5.55" height="148.3" rx="1.63" transform="translate(-16.15 172.79) rotate(-87.57)"/><rect class="c" x="23.62" y="77.51" width="2.21" height="29.92" transform="translate(-68.67 113.48) rotate(-87.71)"/><rect class="f" x="78.98" y="27.99" width="5.55" height="148.3" rx="1.63" transform="translate(-23.76 179.49) rotate(-87.57)"/><rect class="c" x="23.05" y="84.81" width="2.21" height="29.9" transform="translate(-76.54 119.66) rotate(-87.57)"/><rect class="f" x="78.33" y="43.46" width="5.55" height="148.3" rx="1.63" transform="translate(-39.84 193.65) rotate(-87.57)"/><rect class="c" x="17.48" y="105.01" width="2.21" height="20.03" transform="translate(-97.14 128.71) rotate(-87.57)"/><rect class="f" x="78.02" y="50.78" width="5.55" height="148.3" rx="1.63" transform="translate(-47.46 200.35) rotate(-87.57)"/><rect class="c" x="13.89" y="115.46" width="2.21" height="13.47" transform="translate(-107.73 131.98) rotate(-87.57)"/><rect class="c" x="150.46" y="125.91" width="2.21" height="4.18" transform="matrix(0.04, -1, 1, 0.04, 17.26, 274)"/><rect class="c" x="80.27" y="90.85" width="2.21" height="38.05" transform="translate(-31.86 186.51) rotate(-87.57)"/><rect class="c" x="79.32" y="113.15" width="2.21" height="38.05" transform="translate(-55.04 206.92) rotate(-87.57)"/><rect class="c" x="24.6" y="34.81" width="2.21" height="20.07" transform="translate(-20.2 68.62) rotate(-87.57)"/><rect class="c" x="20.32" y="43.55" width="2.21" height="11.92" transform="translate(-28.96 68.81) rotate(-87.57)"/><rect class="c" x="19.03" y="49.87" width="2.21" height="9.76" transform="translate(-35.43 72.54) rotate(-87.57)"/><rect class="c" x="16.74" y="56.87" width="2.21" height="5.62" transform="translate(-42.54 74.97) rotate(-87.57)"/><rect class="c" x="153.97" y="47.53" width="2.21" height="5.62" transform="translate(98.2 203.14) rotate(-87.57)"/><rect class="c" x="153.19" y="51.77" width="2.21" height="6.76" transform="translate(92.65 206.96) rotate(-87.57)"/><rect class="c" x="153.98" y="57.49" width="2.21" height="5.31" transform="matrix(0.04, -1, 1, 0.04, 88.78, 212.7)"/><rect class="c" x="152.76" y="62.07" width="2.21" height="6.76" transform="translate(81.95 216.4) rotate(-87.57)"/><rect class="c" x="152.05" y="67.67" width="2.21" height="7.66" transform="translate(75.21 221.48) rotate(-87.57)"/><rect class="c" x="13.75" y="62.46" width="2.21" height="7.32" transform="translate(-51.84 78.15) rotate(-87.57)"/><rect class="c" x="23.95" y="63.03" width="2.21" height="20.3" transform="translate(-49.13 95.11) rotate(-87.57)"/><rect class="c" x="24.89" y="66.67" width="2.21" height="22.58" transform="translate(-53 100.62) rotate(-87.57)"/><rect class="c" x="153.21" y="76.3" width="2.21" height="4.74" transform="translate(69.17 229.51) rotate(-87.57)"/><rect class="c" x="153.13" y="81.14" width="2.21" height="4.51" transform="translate(64.36 233.95) rotate(-87.57)"/><text class="g" transform="translate(52.75 19.54) rotate(2.69)">FINANCIAL REPO<tspan class="h" x="64.15" y="0">R</tspan><tspan x="68.8" y="0">T</tspan></text></svg>