<svg xmlns="http://www.w3.org/2000/svg" viewBox="0 0 333.23 201.3"><defs><style>.cls-1{fill:#e0e0e0;}.cls-2,.cls-3{fill:#fff;}.cls-2{stroke:#1b75bb;stroke-miterlimit:10;stroke-width:2px;}.cls-4{fill:#f9f9f9;}.cls-5{fill:#e2f3fa;}.cls-6{fill:#f04446;}.cls-7{fill:#bcbcbc;}.cls-8{fill:#999;}.cls-9{fill:#666a6d;}.cls-10{fill:#eb9832;}.cls-11{fill:#0ab82b;}.cls-12{fill:#b2b2b2;}.cls-13{fill:#f14446;}.cls-14{fill:#606060;}.cls-15{fill:#669ec4;}.cls-16{fill:#bce8f1;}.cls-17{fill:#ddd;}.cls-18{fill:#2877af;}.cls-19{fill:#ecae5d;}.cls-20{fill:#6ac259;}</style></defs><title>pharmacy2</title><g id="Layer_2" data-name="Layer 2"><g id="Layer_1-2" data-name="Layer 1"><rect class="cls-1" x="2.82" y="6.43" width="246.5" height="149.65" transform="translate(-2.99 4.84) rotate(-2.17)"/><rect class="cls-2" x="4.82" y="7.43" width="246.5" height="149.65" transform="translate(-4.15 6.85) rotate(-3.01)"/><rect class="cls-3" x="9.22" y="12.02" width="237.69" height="140.47" transform="translate(-4.15 6.85) rotate(-3.01)"/><rect class="cls-4" x="8.79" y="28.86" width="235.19" height="4.47" transform="translate(-1.46 6.69) rotate(-3.01)"/><rect class="cls-4" x="9.25" y="37.66" width="235.19" height="4.47" transform="translate(-1.92 6.73) rotate(-3.01)"/><rect class="cls-4" x="9.71" y="46.46" width="235.19" height="4.47" transform="translate(-2.39 6.76) rotate(-3.01)"/><rect class="cls-4" x="10.18" y="55.26" width="235.19" height="4.47" transform="translate(-2.85 6.8) rotate(-3.01)"/><rect class="cls-4" x="10.63" y="63.92" width="235.19" height="4.47" transform="translate(-3.3 6.84) rotate(-3.01)"/><rect class="cls-4" x="11.1" y="72.71" width="235.19" height="4.47" transform="translate(-3.76 6.87) rotate(-3.01)"/><rect class="cls-4" x="11.56" y="81.5" width="235.19" height="4.47" transform="translate(-4.23 6.91) rotate(-3.01)"/><rect class="cls-4" x="12.02" y="90.28" width="235.19" height="4.47" transform="translate(-4.69 6.95) rotate(-3.01)"/><rect class="cls-4" x="12.48" y="98.93" width="235.19" height="4.47" transform="translate(-5.14 6.98) rotate(-3.01)"/><rect class="cls-5" x="12.1" y="94.6" width="235.19" height="4.47" transform="translate(-4.91 6.96) rotate(-3.01)"/><rect class="cls-4" x="12.94" y="107.71" width="235.19" height="4.47" transform="translate(-5.6 7.02) rotate(-3.01)"/><rect class="cls-4" x="13.26" y="116.51" width="235.19" height="4.47" transform="translate(-6.06 7.05) rotate(-3.01)"/><rect class="cls-4" x="13.87" y="125.27" width="235.19" height="4.47" transform="translate(-6.52 7.09) rotate(-3.01)"/><rect class="cls-4" x="14.32" y="133.87" width="235.19" height="4.47" transform="translate(-6.98 7.13) rotate(-3.01)"/><rect class="cls-6" x="156" y="26.92" width="16.97" height="109.63" transform="translate(-4.07 8.76) rotate(-3.01)"/><rect class="cls-4" x="5.71" y="13.28" width="237.45" height="4.53" transform="translate(-0.65 6.57) rotate(-3.01)"/><rect class="cls-7" x="5.96" y="18.1" width="237.45" height="4.53" transform="translate(-0.9 6.59) rotate(-3.01)"/><rect class="cls-3" x="5.94" y="17.81" width="237.45" height="4.53" transform="translate(-0.88 6.58) rotate(-3.01)"/><rect class="cls-8" x="62.17" y="16.56" width="0.15" height="9.06" transform="translate(-1.02 3.3) rotate(-3.01)"/><rect class="cls-8" x="107.81" y="14.16" width="0.15" height="9.06" transform="translate(-0.83 5.7) rotate(-3.01)"/><rect class="cls-8" x="153.45" y="11.76" width="0.15" height="9.06" transform="translate(-0.64 8.1) rotate(-3.01)"/><rect class="cls-8" x="197.25" y="9.45" width="0.15" height="9.06" transform="translate(-0.46 10.4) rotate(-3.01)"/><rect class="cls-9" x="23.87" y="19.51" width="20.27" height="1.85" transform="translate(-1.03 1.82) rotate(-3.01)"/><rect class="cls-9" x="77.45" y="16.81" width="15.71" height="1.85" transform="translate(-0.81 4.51) rotate(-3.01)"/><rect class="cls-9" x="123.21" y="14.4" width="15.71" height="1.85" transform="translate(-0.62 6.91) rotate(-3.01)"/><rect class="cls-10" x="154.07" y="44.6" width="17.05" height="4.39" transform="translate(-2.24 8.62) rotate(-3.01)"/><rect class="cls-10" x="156.84" y="97.11" width="17.05" height="4.39" transform="translate(-4.99 8.83) rotate(-3.01)"/><rect class="cls-11" x="154.76" y="57.74" width="17.05" height="4.39" transform="translate(-2.93 8.67) rotate(-3.01)"/><rect class="cls-11" x="157.3" y="105.9" width="17.05" height="4.39" transform="translate(-5.46 8.87) rotate(-3.01)"/><rect class="cls-11" x="157.76" y="114.68" width="17.05" height="4.39" transform="translate(-5.92 8.91) rotate(-3.01)"/><rect class="cls-11" x="156.26" y="83.99" width="17.05" height="8.79" transform="translate(-4.42 8.79) rotate(-3.01)"/><rect class="cls-9" x="168.1" y="12.06" width="14.73" height="1.85" transform="translate(-0.44 9.25) rotate(-3.01)"/><rect class="cls-9" x="172.38" y="16.46" width="6.63" height="1.85" transform="translate(-0.67 9.26) rotate(-3.01)"/><rect class="cls-9" x="210.36" y="9.83" width="14.73" height="1.85" transform="matrix(1, -0.05, 0.05, 1, -0.26, 11.47)"/><rect class="cls-9" x="214.63" y="14.24" width="6.63" height="1.85" transform="translate(-0.5 11.48) rotate(-3.01)"/><rect class="cls-9" x="127.75" y="18.81" width="6.63" height="1.85" transform="translate(-0.86 6.92) rotate(-3.01)"/><rect class="cls-9" x="82.11" y="21.23" width="6.24" height="1.85" transform="translate(-1.05 4.51) rotate(-3.01)"/><rect class="cls-9" x="32.24" y="23.9" width="4.34" height="1.85" transform="translate(-1.26 1.84) rotate(-3.01)"/><path class="cls-12" d="M249.54,132.22l-235,12.38-6-114,235-12.37ZM14.67,144.45l234.71-12.37-6-113.71L8.68,30.73Z"/><rect class="cls-12" x="22.47" y="30.01" width="0.15" height="114.02" transform="translate(-4.55 1.31) rotate(-3.01)"/><rect class="cls-12" x="72.84" y="27.36" width="0.15" height="114.02" transform="translate(-4.34 3.95) rotate(-3.01)"/><rect class="cls-12" x="88.39" y="26.54" width="0.15" height="114.02" transform="translate(-4.27 4.77) rotate(-3.01)"/><rect class="cls-12" x="119.69" y="24.89" width="0.15" height="114.02" transform="translate(-4.14 6.41) rotate(-3.01)"/><rect class="cls-12" x="137.54" y="23.95" width="0.15" height="114.02" transform="translate(-4.07 7.35) rotate(-3.01)"/><rect class="cls-12" x="155.82" y="22.99" width="0.15" height="114.02" transform="translate(-3.99 8.31) rotate(-3.01)"/><rect class="cls-12" x="172.46" y="22.11" width="0.15" height="114.02" transform="translate(-3.92 9.18) rotate(-3.01)"/><rect class="cls-12" x="199.61" y="20.68" width="0.15" height="114.02" transform="translate(-3.81 10.61) rotate(-3.01)"/><rect class="cls-12" x="225.01" y="19.34" width="0.15" height="114.02" transform="translate(-3.7 11.94) rotate(-3.01)"/><rect class="cls-12" x="8.67" y="28.79" width="235.19" height="0.15" transform="translate(-1.34 6.68) rotate(-3.01)"/><rect class="cls-12" x="8.9" y="33.25" width="235.19" height="0.15" transform="translate(-1.58 6.7) rotate(-3.01)"/><rect class="cls-12" x="9.14" y="37.63" width="235.19" height="0.15" transform="translate(-1.81 6.72) rotate(-3.01)"/><rect class="cls-12" x="9.37" y="42.01" width="235.19" height="0.15" transform="translate(-2.04 6.74) rotate(-3.01)"/><rect class="cls-12" x="9.6" y="46.39" width="235.19" height="0.15" transform="translate(-2.27 6.75) rotate(-3.01)"/><rect class="cls-12" x="9.83" y="50.77" width="235.19" height="0.15" transform="translate(-2.5 6.77) rotate(-3.01)"/><rect class="cls-12" x="10.06" y="55.15" width="235.19" height="0.15" transform="translate(-2.73 6.79) rotate(-3.01)"/><rect class="cls-12" x="10.29" y="59.53" width="235.19" height="0.15" transform="translate(-2.96 6.81) rotate(-3.01)"/><rect class="cls-12" x="10.52" y="63.91" width="235.19" height="0.15" transform="translate(-3.19 6.83) rotate(-3.01)"/><rect class="cls-12" x="10.75" y="68.29" width="235.19" height="0.15" transform="translate(-3.42 6.85) rotate(-3.01)"/><rect class="cls-12" x="10.98" y="72.67" width="235.19" height="0.15" transform="translate(-3.65 6.86) rotate(-3.01)"/><rect class="cls-12" x="11.21" y="77.05" width="235.19" height="0.15" transform="translate(-3.88 6.88) rotate(-3.01)"/><rect class="cls-12" x="11.44" y="81.43" width="235.19" height="0.15" transform="translate(-4.11 6.9) rotate(-3.01)"/><rect class="cls-12" x="11.67" y="85.81" width="235.19" height="0.15" transform="translate(-4.34 6.92) rotate(-3.01)"/><rect class="cls-12" x="11.9" y="90.18" width="235.19" height="0.15" transform="translate(-4.57 6.94) rotate(-3.01)"/><rect class="cls-12" x="12.13" y="94.56" width="235.19" height="0.15" transform="translate(-4.8 6.95) rotate(-3.01)"/><rect class="cls-12" x="12.36" y="98.94" width="235.19" height="0.15" transform="translate(-5.03 6.97) rotate(-3.01)"/><rect class="cls-12" x="12.6" y="103.32" width="235.19" height="0.15" transform="translate(-5.26 6.99) rotate(-3.01)"/><rect class="cls-12" x="12.83" y="107.7" width="235.19" height="0.15" transform="translate(-5.49 7.01) rotate(-3.01)"/><rect class="cls-12" x="13.06" y="112.08" width="235.19" height="0.15" transform="translate(-5.72 7.03) rotate(-3.01)"/><rect class="cls-12" x="13.29" y="116.46" width="235.19" height="0.15" transform="translate(-5.95 7.05) rotate(-3.01)"/><rect class="cls-12" x="13.52" y="120.84" width="235.19" height="0.15" transform="translate(-6.18 7.06) rotate(-3.01)"/><rect class="cls-12" x="13.75" y="125.22" width="235.19" height="0.15" transform="translate(-6.41 7.08) rotate(-3.01)"/><rect class="cls-12" x="13.98" y="129.6" width="235.19" height="0.15" transform="translate(-6.64 7.1) rotate(-3.01)"/><rect class="cls-12" x="14.21" y="133.98" width="235.19" height="0.15" transform="translate(-6.87 7.12) rotate(-3.01)"/><rect class="cls-9" x="12.84" y="31.38" width="2.92" height="1.9" transform="translate(-1.68 0.8) rotate(-3.01)"/><rect class="cls-9" x="20.83" y="30.9" width="5.23" height="1.9" transform="matrix(1, -0.05, 0.05, 1, -1.64, 1.28)"/><rect class="cls-9" x="75.88" y="28.02" width="4.43" height="1.9" transform="translate(-1.42 4.15) rotate(-3.01)"/><rect class="cls-9" x="76.13" y="32.67" width="4.43" height="1.9" transform="translate(-1.66 4.17) rotate(-3.01)"/><rect class="cls-9" x="76.37" y="37.32" width="4.43" height="1.9" transform="translate(-1.9 4.19) rotate(-3.01)"/><rect class="cls-9" x="76.59" y="41.54" width="4.43" height="1.9" transform="translate(-2.13 4.2) rotate(-3.01)"/><rect class="cls-9" x="76.81" y="45.62" width="4.43" height="1.9" transform="translate(-2.34 4.22) rotate(-3.01)"/><rect class="cls-9" x="77.4" y="50.27" width="3.75" height="1.9" transform="translate(-2.58 4.24) rotate(-3.01)"/><rect class="cls-9" x="77.62" y="54.48" width="3.75" height="1.9" transform="translate(-2.81 4.26) rotate(-3.01)"/><rect class="cls-9" x="78.23" y="58.76" width="2.97" height="1.9" transform="translate(-3.03 4.28) rotate(-3.01)"/><rect class="cls-9" x="78.77" y="63.42" width="2.39" height="1.9" transform="translate(-3.27 4.29) rotate(-3.01)"/><rect class="cls-9" x="77.97" y="67.63" width="4.43" height="1.9" transform="translate(-3.5 4.31) rotate(-3.01)"/><rect class="cls-9" x="78.19" y="71.77" width="4.43" height="1.9" transform="translate(-3.71 4.33) rotate(-3.01)"/><rect class="cls-9" x="78.43" y="76.42" width="4.43" height="1.9" transform="translate(-3.96 4.35) rotate(-3.01)"/><rect class="cls-9" x="78.65" y="80.63" width="4.43" height="1.9" transform="translate(-4.18 4.37) rotate(-3.01)"/><rect class="cls-9" x="78.9" y="85.23" width="4.43" height="1.9" transform="translate(-4.42 4.39) rotate(-3.01)"/><rect class="cls-9" x="79.14" y="89.89" width="4.43" height="1.9" transform="translate(-4.67 4.4) rotate(-3.01)"/><rect class="cls-9" x="79.36" y="94.1" width="4.43" height="1.9" transform="translate(-4.89 4.42) rotate(-3.01)"/><rect class="cls-9" x="80.16" y="98.31" width="3.29" height="1.9" transform="translate(-5.11 4.44) rotate(-3.01)"/><rect class="cls-9" x="79.83" y="102.96" width="4.43" height="1.9" transform="translate(-5.35 4.46) rotate(-3.01)"/><rect class="cls-9" x="80.05" y="107.18" width="4.43" height="1.9" transform="translate(-5.57 4.48) rotate(-3.01)"/><rect class="cls-9" x="80.27" y="111.27" width="4.43" height="1.9" transform="translate(-5.79 4.49) rotate(-3.01)"/><rect class="cls-9" x="80.51" y="115.92" width="4.43" height="1.9" transform="translate(-6.03 4.51) rotate(-3.01)"/><rect class="cls-9" x="80.96" y="124.34" width="4.43" height="1.9" transform="translate(-6.47 4.55) rotate(-3.01)"/><rect class="cls-9" x="81.2" y="128.99" width="4.43" height="1.9" transform="translate(-6.72 4.57) rotate(-3.01)"/><rect class="cls-9" x="81.42" y="133.21" width="4.43" height="1.9" transform="translate(-6.94 4.58) rotate(-3.01)"/><rect class="cls-9" x="82.78" y="137.68" width="2.19" height="1.9" transform="translate(-7.18 4.6) rotate(-3.01)"/><rect class="cls-9" x="98.04" y="31.45" width="6.86" height="1.9" transform="translate(-1.56 5.38) rotate(-3.01)"/><rect class="cls-9" x="95.11" y="36.11" width="13.19" height="1.9" transform="translate(-1.81 5.4) rotate(-3.01)"/><rect class="cls-9" x="99.71" y="40.32" width="4.43" height="1.9" transform="translate(-2.03 5.42) rotate(-3.01)"/><rect class="cls-9" x="99.93" y="44.4" width="4.43" height="1.9" transform="translate(-2.24 5.44) rotate(-3.01)"/><rect class="cls-9" x="100.52" y="49.05" width="3.75" height="1.9" transform="translate(-2.49 5.45) rotate(-3.01)"/><rect class="cls-9" x="100.74" y="53.26" width="3.75" height="1.9" transform="translate(-2.71 5.47) rotate(-3.01)"/><rect class="cls-9" x="101.35" y="57.55" width="2.97" height="1.9" transform="translate(-2.93 5.49) rotate(-3.01)"/><rect class="cls-9" x="97.56" y="62.2" width="11.05" height="1.9" transform="translate(-3.18 5.51) rotate(-3.01)"/><rect class="cls-9" x="97.78" y="66.41" width="11.05" height="1.9" transform="translate(-3.4 5.53) rotate(-3.01)"/><rect class="cls-9" x="100.05" y="70.69" width="6.95" height="1.9" transform="translate(-3.62 5.54) rotate(-3.01)"/><rect class="cls-9" x="100.29" y="75.2" width="6.95" height="1.9" transform="translate(-3.86 5.56) rotate(-3.01)"/><rect class="cls-9" x="100.51" y="79.41" width="6.95" height="1.9" transform="translate(-4.08 5.58) rotate(-3.01)"/><rect class="cls-9" x="100.76" y="84.02" width="6.95" height="1.9" transform="translate(-4.32 5.6) rotate(-3.01)"/><rect class="cls-9" x="101" y="88.67" width="6.95" height="1.9" transform="translate(-4.57 5.62) rotate(-3.01)"/><rect class="cls-9" x="101.22" y="92.88" width="6.95" height="1.9" transform="translate(-4.79 5.64) rotate(-3.01)"/><rect class="cls-9" x="101.25" y="97.09" width="7.34" height="1.9" transform="translate(-5.01 5.65) rotate(-3.01)"/><rect class="cls-9" x="101.69" y="101.74" width="6.95" height="1.9" transform="translate(-5.26 5.67) rotate(-3.01)"/><rect class="cls-9" x="101.91" y="105.96" width="6.95" height="1.9" transform="translate(-5.48 5.69) rotate(-3.01)"/><rect class="cls-9" x="100.28" y="110.05" width="10.66" height="1.9" transform="translate(-5.69 5.71) rotate(-3.01)"/><rect class="cls-9" x="102.57" y="114.7" width="6.56" height="1.9" transform="translate(-5.94 5.73) rotate(-3.01)"/><rect class="cls-9" x="100.96" y="123.12" width="10.66" height="1.9" transform="translate(-6.38 5.76) rotate(-3.01)"/><rect class="cls-9" x="100.75" y="119.09" width="10.66" height="1.9" transform="translate(-6.17 5.75) rotate(-3.01)"/><rect class="cls-9" x="101.01" y="127.78" width="11.05" height="1.9" transform="translate(-6.62 5.78) rotate(-3.01)"/><rect class="cls-9" x="103.28" y="131.99" width="6.95" height="1.9" transform="translate(-6.84 5.8) rotate(-3.01)"/><rect class="cls-9" x="100.84" y="136.47" width="12.31" height="1.9" transform="translate(-7.08 5.82) rotate(-3.01)"/><rect class="cls-9" x="98.39" y="26.8" width="5.72" height="1.9" transform="translate(-1.32 5.36) rotate(-3.01)"/><rect class="cls-9" x="124.08" y="25.48" width="4.51" height="1.9" transform="translate(-1.22 6.68) rotate(-3.01)"/><rect class="cls-9" x="124.33" y="30.13" width="4.51" height="1.9" transform="translate(-1.46 6.7) rotate(-3.01)"/><rect class="cls-9" x="124.56" y="34.53" width="4.51" height="1.9" transform="translate(-1.69 6.72) rotate(-3.01)"/><rect class="cls-9" x="124.79" y="38.93" width="4.51" height="1.9" transform="translate(-1.92 6.74) rotate(-3.01)"/><rect class="cls-9" x="125.02" y="43.33" width="4.51" height="1.9" transform="translate(-2.15 6.76) rotate(-3.01)"/><rect class="cls-9" x="125.25" y="47.74" width="4.51" height="1.9" transform="translate(-2.38 6.77) rotate(-3.01)"/><rect class="cls-9" x="125.49" y="52.14" width="4.51" height="1.9" transform="translate(-2.62 6.79) rotate(-3.01)"/><rect class="cls-9" x="125.72" y="56.54" width="4.51" height="1.9" transform="translate(-2.85 6.81) rotate(-3.01)"/><rect class="cls-9" x="125.95" y="60.94" width="4.51" height="1.9" transform="translate(-3.08 6.83) rotate(-3.01)"/><rect class="cls-9" x="126.18" y="65.34" width="4.51" height="1.9" transform="translate(-3.31 6.85) rotate(-3.01)"/><rect class="cls-9" x="126.41" y="69.67" width="4.51" height="1.9" transform="translate(-3.54 6.86) rotate(-3.01)"/><rect class="cls-9" x="126.64" y="73.99" width="4.51" height="1.9" transform="translate(-3.76 6.88) rotate(-3.01)"/><rect class="cls-9" x="126.86" y="78.32" width="4.51" height="1.9" transform="translate(-3.99 6.9) rotate(-3.01)"/><rect class="cls-9" x="127.09" y="82.64" width="4.51" height="1.9" transform="translate(-4.22 6.92) rotate(-3.01)"/><rect class="cls-9" x="127.32" y="86.96" width="4.51" height="1.9" transform="translate(-4.44 6.94) rotate(-3.01)"/><rect class="cls-9" x="127.55" y="91.29" width="4.51" height="1.9" transform="translate(-4.67 6.95) rotate(-3.01)"/><rect class="cls-9" x="127.78" y="95.61" width="4.51" height="1.9" transform="translate(-4.9 6.97) rotate(-3.01)"/><rect class="cls-9" x="128" y="99.94" width="4.51" height="1.9" transform="translate(-5.13 6.99) rotate(-3.01)"/><rect class="cls-9" x="128.23" y="104.26" width="4.51" height="1.9" transform="translate(-5.35 7.01) rotate(-3.01)"/><rect class="cls-9" x="128.47" y="108.73" width="4.51" height="1.9" transform="translate(-5.59 7.03) rotate(-3.01)"/><rect class="cls-9" x="128.69" y="113.06" width="4.51" height="1.9" transform="translate(-5.82 7.05) rotate(-3.01)"/><rect class="cls-9" x="128.93" y="117.53" width="4.51" height="1.9" transform="translate(-6.05 7.06) rotate(-3.01)"/><rect class="cls-9" x="129.16" y="121.85" width="4.51" height="1.9" transform="translate(-6.28 7.08) rotate(-3.01)"/><rect class="cls-9" x="129.4" y="126.47" width="4.51" height="1.9" transform="translate(-6.52 7.1) rotate(-3.01)"/><rect class="cls-9" x="129.61" y="130.5" width="4.51" height="1.9" transform="translate(-6.73 7.12) rotate(-3.01)"/><rect class="cls-9" x="129.22" y="134.97" width="5.77" height="1.9" transform="translate(-6.97 7.14) rotate(-3.01)"/><rect class="cls-9" x="142.72" y="29.16" width="4.51" height="1.9" transform="translate(-1.38 7.67) rotate(-3.01)"/><rect class="cls-4" x="160.82" y="28.28" width="1.9" height="1.9" transform="translate(-1.31 8.55) rotate(-3.01)"/><rect class="cls-4" x="161.05" y="32.58" width="1.9" height="1.9" transform="translate(-1.54 8.57) rotate(-3.01)"/><rect class="cls-4" x="161.29" y="37.08" width="1.9" height="1.9" transform="translate(-1.78 8.59) rotate(-3.01)"/><rect class="cls-4" x="161.52" y="41.58" width="1.9" height="1.9" transform="translate(-2.01 8.6) rotate(-3.01)"/><rect class="cls-4" x="161.97" y="49.96" width="1.9" height="1.9" transform="translate(-2.45 8.64) rotate(-3.01)"/><rect class="cls-4" x="162.2" y="54.46" width="1.9" height="1.9" transform="translate(-2.69 8.66) rotate(-3.01)"/><rect class="cls-4" x="162.67" y="63.33" width="1.9" height="1.9" transform="translate(-3.15 8.69) rotate(-3.01)"/><rect class="cls-4" x="162.91" y="67.82" width="1.9" height="1.9" transform="translate(-3.39 8.71) rotate(-3.01)"/><rect class="cls-4" x="163.13" y="72.12" width="1.9" height="1.9" transform="translate(-3.62 8.73) rotate(-3.01)"/><rect class="cls-4" x="163.37" y="76.61" width="1.9" height="1.9" transform="translate(-3.85 8.75) rotate(-3.01)"/><rect class="cls-4" x="163.58" y="80.65" width="1.9" height="1.9" transform="translate(-4.06 8.77) rotate(-3.01)"/><rect class="cls-4" x="165.67" y="120.32" width="1.9" height="1.9" transform="translate(-6.15 8.93) rotate(-3.01)"/><rect class="cls-4" x="165.9" y="124.61" width="1.9" height="1.9" transform="translate(-6.37 8.95) rotate(-3.01)"/><rect class="cls-4" x="166.13" y="129.11" width="1.9" height="1.9" transform="translate(-6.61 8.97) rotate(-3.01)"/><rect class="cls-4" x="166.35" y="133.15" width="1.9" height="1.9" transform="translate(-6.82 8.98) rotate(-3.01)"/><rect class="cls-4" x="164.29" y="94.01" width="1.9" height="1.9" transform="translate(-4.77 8.82) rotate(-3.01)"/><rect class="cls-4" x="164.75" y="102.78" width="1.9" height="1.9" transform="translate(-5.23 8.86) rotate(-3.01)"/><rect class="cls-4" x="165.21" y="111.53" width="1.9" height="1.9" transform="translate(-5.69 8.89) rotate(-3.01)"/><rect class="cls-4" x="160.9" y="45.84" width="3.59" height="1.9" transform="translate(-2.24 8.62) rotate(-3.01)"/><rect class="cls-4" x="163.68" y="98.57" width="3.59" height="1.9" transform="translate(-5.01 8.84) rotate(-3.01)"/><rect class="cls-4" x="160.57" y="59.01" width="5.65" height="1.9" transform="translate(-2.93 8.68) rotate(-3.01)"/><rect class="cls-4" x="161.94" y="85.11" width="5.65" height="1.9" transform="matrix(1, -0.05, 0.05, 1, -4.3, 8.79)"/><rect class="cls-4" x="163.57" y="115.92" width="5.65" height="1.9" transform="matrix(1, -0.05, 0.05, 1, -5.92, 8.91)"/><rect class="cls-4" x="162.18" y="89.56" width="5.65" height="1.9" transform="translate(-4.53 8.8) rotate(-3.01)"/><rect class="cls-4" x="163.1" y="107.15" width="5.65" height="1.9" transform="translate(-5.46 8.88) rotate(-3.01)"/><rect class="cls-9" x="182.68" y="27.13" width="1.9" height="1.9" transform="translate(-1.22 9.7) rotate(-3.01)"/><rect class="cls-9" x="182.91" y="31.43" width="1.9" height="1.9" transform="translate(-1.45 9.72) rotate(-3.01)"/><rect class="cls-9" x="183.15" y="35.93" width="1.9" height="1.9" transform="translate(-1.68 9.73) rotate(-3.01)"/><rect class="cls-9" x="183.38" y="40.42" width="1.9" height="1.9" transform="translate(-1.92 9.75) rotate(-3.01)"/><rect class="cls-9" x="183.82" y="48.81" width="1.9" height="1.9" transform="translate(-2.36 9.79) rotate(-3.01)"/><rect class="cls-9" x="184.06" y="53.31" width="1.9" height="1.9" transform="translate(-2.6 9.81) rotate(-3.01)"/><rect class="cls-9" x="184.53" y="62.18" width="1.9" height="1.9" transform="translate(-3.06 9.84) rotate(-3.01)"/><rect class="cls-9" x="184.77" y="66.67" width="1.9" height="1.9" transform="translate(-3.3 9.86) rotate(-3.01)"/><rect class="cls-9" x="184.99" y="70.96" width="1.9" height="1.9" transform="translate(-3.53 9.88) rotate(-3.01)"/><rect class="cls-9" x="185.23" y="75.46" width="1.9" height="1.9" transform="translate(-3.76 9.9) rotate(-3.01)"/><rect class="cls-9" x="185.44" y="79.5" width="1.9" height="1.9" transform="translate(-3.97 9.91) rotate(-3.01)"/><rect class="cls-9" x="187.53" y="119.17" width="1.9" height="1.9" transform="translate(-6.06 10.08) rotate(-3.01)"/><rect class="cls-9" x="187.76" y="123.46" width="1.9" height="1.9" transform="translate(-6.28 10.1) rotate(-3.01)"/><rect class="cls-9" x="187.99" y="127.96" width="1.9" height="1.9" transform="translate(-6.52 10.12) rotate(-3.01)"/><rect class="cls-9" x="188.21" y="132" width="1.9" height="1.9" transform="translate(-6.73 10.13) rotate(-3.01)"/><rect class="cls-9" x="186.14" y="92.86" width="1.9" height="1.9" transform="translate(-4.68 9.97) rotate(-3.01)"/><rect class="cls-9" x="186.61" y="101.63" width="1.9" height="1.9" transform="translate(-5.14 10.01) rotate(-3.01)"/><rect class="cls-9" x="187.07" y="110.38" width="1.9" height="1.9" transform="translate(-5.6 10.04) rotate(-3.01)"/><rect class="cls-9" x="182.76" y="44.69" width="3.59" height="1.9" transform="matrix(1, -0.05, 0.05, 1, -2.14, 9.77)"/><rect class="cls-9" x="185.54" y="97.42" width="3.59" height="1.9" transform="matrix(1, -0.05, 0.05, 1, -4.91, 9.99)"/><rect class="cls-9" x="182.43" y="57.86" width="5.65" height="1.9" transform="translate(-2.84 9.82) rotate(-3.01)"/><rect class="cls-9" x="183.8" y="83.96" width="5.65" height="1.9" transform="matrix(1, -0.05, 0.05, 1, -4.21, 9.93)"/><rect class="cls-9" x="185.42" y="114.77" width="5.65" height="1.9" transform="translate(-5.83 10.06) rotate(-3.01)"/><rect class="cls-9" x="184.04" y="88.41" width="5.65" height="1.9" transform="translate(-4.44 9.95) rotate(-3.01)"/><rect class="cls-9" x="184.96" y="106" width="5.65" height="1.9" transform="translate(-5.37 10.02) rotate(-3.01)"/><rect class="cls-9" x="208.8" y="25.75" width="1.9" height="1.9" transform="translate(-1.11 11.07) rotate(-3.01)"/><rect class="cls-9" x="209.03" y="30.06" width="1.9" height="1.9" transform="translate(-1.34 11.09) rotate(-3.01)"/><rect class="cls-9" x="209.27" y="34.55" width="1.9" height="1.9" transform="translate(-1.58 11.11) rotate(-3.01)"/><rect class="cls-9" x="209.5" y="39.05" width="1.9" height="1.9" transform="translate(-1.81 11.12) rotate(-3.01)"/><rect class="cls-9" x="209.95" y="47.44" width="1.9" height="1.9" transform="translate(-2.25 11.16) rotate(-3.01)"/><rect class="cls-9" x="210.18" y="51.93" width="1.9" height="1.9" transform="translate(-2.49 11.18) rotate(-3.01)"/><rect class="cls-9" x="210.65" y="60.8" width="1.9" height="1.9" transform="translate(-2.95 11.21) rotate(-3.01)"/><rect class="cls-9" x="210.89" y="65.3" width="1.9" height="1.9" transform="translate(-3.19 11.23) rotate(-3.01)"/><rect class="cls-9" x="211.11" y="69.59" width="1.9" height="1.9" transform="translate(-3.42 11.25) rotate(-3.01)"/><rect class="cls-9" x="211.35" y="74.08" width="1.9" height="1.9" transform="translate(-3.65 11.27) rotate(-3.01)"/><rect class="cls-9" x="211.56" y="78.12" width="1.9" height="1.9" transform="translate(-3.86 11.29) rotate(-3.01)"/><rect class="cls-9" x="213.65" y="117.8" width="1.9" height="1.9" transform="translate(-5.95 11.45) rotate(-3.01)"/><rect class="cls-9" x="213.88" y="122.09" width="1.9" height="1.9" transform="translate(-6.17 11.47) rotate(-3.01)"/><rect class="cls-9" x="214.11" y="126.58" width="1.9" height="1.9" transform="translate(-6.41 11.49) rotate(-3.01)"/><rect class="cls-9" x="214.33" y="130.62" width="1.9" height="1.9" transform="translate(-6.62 11.5) rotate(-3.01)"/><rect class="cls-9" x="212.27" y="91.49" width="1.9" height="1.9" transform="translate(-4.57 11.34) rotate(-3.01)"/><rect class="cls-9" x="212.73" y="100.25" width="1.9" height="1.9" transform="translate(-5.03 11.38) rotate(-3.01)"/><rect class="cls-9" x="213.19" y="109" width="1.9" height="1.9" transform="translate(-5.49 11.41) rotate(-3.01)"/><rect class="cls-9" x="208.88" y="43.31" width="3.59" height="1.9" transform="translate(-2.04 11.14) rotate(-3.01)"/><rect class="cls-9" x="211.66" y="96.04" width="3.59" height="1.9" transform="translate(-4.81 11.36) rotate(-3.01)"/><rect class="cls-9" x="208.55" y="56.49" width="5.65" height="1.9" transform="translate(-2.73 11.2) rotate(-3.01)"/><rect class="cls-9" x="209.92" y="82.58" width="5.65" height="1.9" transform="translate(-4.1 11.31) rotate(-3.01)"/><rect class="cls-9" x="211.55" y="113.4" width="5.65" height="1.9" transform="translate(-5.72 11.43) rotate(-3.01)"/><rect class="cls-9" x="210.16" y="87.03" width="5.65" height="1.9" transform="translate(-4.33 11.32) rotate(-3.01)"/><rect class="cls-9" x="211.08" y="104.62" width="5.65" height="1.9" transform="translate(-5.26 11.4) rotate(-3.01)"/><rect class="cls-9" x="232.01" y="24.53" width="1.9" height="1.9" transform="translate(-1.02 12.29) rotate(-3.01)"/><rect class="cls-9" x="232.24" y="28.83" width="1.9" height="1.9" transform="translate(-1.24 12.31) rotate(-3.01)"/><rect class="cls-9" x="232.48" y="33.33" width="1.9" height="1.9" transform="translate(-1.48 12.32) rotate(-3.01)"/><rect class="cls-9" x="232.71" y="37.83" width="1.9" height="1.9" transform="translate(-1.72 12.34) rotate(-3.01)"/><rect class="cls-9" x="233.16" y="46.21" width="1.9" height="1.9" transform="translate(-2.16 12.38) rotate(-3.01)"/><rect class="cls-9" x="233.39" y="50.71" width="1.9" height="1.9" transform="translate(-2.39 12.4) rotate(-3.01)"/><rect class="cls-9" x="233.86" y="59.58" width="1.9" height="1.9" transform="translate(-2.86 12.43) rotate(-3.01)"/><rect class="cls-9" x="234.1" y="64.07" width="1.9" height="1.9" transform="translate(-3.09 12.45) rotate(-3.01)"/><rect class="cls-9" x="234.32" y="68.37" width="1.9" height="1.9" transform="translate(-3.32 12.47) rotate(-3.01)"/><rect class="cls-9" x="234.56" y="72.86" width="1.9" height="1.9" transform="translate(-3.56 12.49) rotate(-3.01)"/><rect class="cls-9" x="234.77" y="76.9" width="1.9" height="1.9" transform="translate(-3.77 12.51) rotate(-3.01)"/><rect class="cls-9" x="236.86" y="116.57" width="1.9" height="1.9" transform="translate(-5.85 12.67) rotate(-3.01)"/><rect class="cls-9" x="237.09" y="120.87" width="1.9" height="1.9" transform="translate(-6.08 12.69) rotate(-3.01)"/><rect class="cls-9" x="237.32" y="125.36" width="1.9" height="1.9" transform="translate(-6.31 12.71) rotate(-3.01)"/><rect class="cls-9" x="237.54" y="129.4" width="1.9" height="1.9" transform="translate(-6.53 12.72) rotate(-3.01)"/><rect class="cls-9" x="235.48" y="90.26" width="1.9" height="1.9" transform="translate(-4.47 12.56) rotate(-3.01)"/><rect class="cls-9" x="235.94" y="99.03" width="1.9" height="1.9" transform="translate(-4.93 12.6) rotate(-3.01)"/><rect class="cls-9" x="236.4" y="107.78" width="1.9" height="1.9" transform="translate(-5.39 12.63) rotate(-3.01)"/><rect class="cls-9" x="232.09" y="42.09" width="3.59" height="1.9" transform="matrix(1, -0.05, 0.05, 1, -1.94, 12.36)"/><rect class="cls-9" x="234.87" y="94.82" width="3.59" height="1.9" transform="translate(-4.71 12.58) rotate(-3.01)"/><rect class="cls-9" x="231.76" y="55.26" width="5.65" height="1.9" transform="translate(-2.63 12.42) rotate(-3.01)"/><rect class="cls-9" x="233.13" y="81.36" width="5.65" height="1.9" transform="translate(-4 12.52) rotate(-3.01)"/><rect class="cls-9" x="234.76" y="112.17" width="5.65" height="1.9" transform="translate(-5.62 12.65) rotate(-3.01)"/><rect class="cls-9" x="233.37" y="85.81" width="5.65" height="1.9" transform="translate(-4.24 12.54) rotate(-3.01)"/><rect class="cls-9" x="234.29" y="103.4" width="5.65" height="1.9" transform="translate(-5.16 12.62) rotate(-3.01)"/><rect class="cls-9" x="142.95" y="33.56" width="4.51" height="1.9" transform="translate(-1.61 7.68) rotate(-3.01)"/><rect class="cls-9" x="143.18" y="37.96" width="4.51" height="1.9" transform="translate(-1.85 7.7) rotate(-3.01)"/><rect class="cls-13" x="143.42" y="42.37" width="4.51" height="1.9" transform="translate(-2.08 7.72) rotate(-3.01)"/><rect class="cls-9" x="143.65" y="46.77" width="4.51" height="1.9" transform="translate(-2.31 7.74) rotate(-3.01)"/><rect class="cls-9" x="143.88" y="51.17" width="4.51" height="1.9" transform="translate(-2.54 7.76) rotate(-3.01)"/><rect class="cls-9" x="144.11" y="55.57" width="4.51" height="1.9" transform="translate(-2.77 7.78) rotate(-3.01)"/><rect class="cls-9" x="144.34" y="59.97" width="4.51" height="1.9" transform="translate(-3 7.79) rotate(-3.01)"/><rect class="cls-13" x="144.57" y="64.37" width="4.51" height="1.9" transform="translate(-3.23 7.81) rotate(-3.01)"/><rect class="cls-13" x="144.8" y="68.7" width="4.51" height="1.9" transform="translate(-3.46 7.83) rotate(-3.01)"/><rect class="cls-9" x="145.03" y="73.02" width="4.51" height="1.9" transform="translate(-3.69 7.85) rotate(-3.01)"/><rect class="cls-9" x="145.26" y="77.35" width="4.51" height="1.9" transform="translate(-3.91 7.87) rotate(-3.01)"/><rect class="cls-9" x="145.49" y="81.67" width="4.51" height="1.9" transform="translate(-4.14 7.88) rotate(-3.01)"/><rect class="cls-13" x="145.71" y="86" width="4.51" height="1.9" transform="translate(-4.37 7.9) rotate(-3.01)"/><rect class="cls-9" x="145.94" y="90.32" width="4.51" height="1.9" transform="translate(-4.6 7.92) rotate(-3.01)"/><rect class="cls-9" x="146.17" y="94.65" width="4.51" height="1.9" transform="translate(-4.82 7.94) rotate(-3.01)"/><rect class="cls-9" x="146.4" y="98.97" width="4.51" height="1.9" transform="translate(-5.05 7.96) rotate(-3.01)"/><rect class="cls-9" x="146.62" y="103.29" width="4.51" height="1.9" transform="translate(-5.28 7.97) rotate(-3.01)"/><rect class="cls-9" x="146.86" y="107.77" width="4.51" height="1.9" transform="translate(-5.51 7.99) rotate(-3.01)"/><rect class="cls-13" x="147.09" y="112.09" width="4.51" height="1.9" transform="translate(-5.74 8.01) rotate(-3.01)"/><rect class="cls-9" x="147.32" y="116.56" width="4.51" height="1.9" transform="translate(-5.97 8.03) rotate(-3.01)"/><rect class="cls-9" x="147.55" y="120.89" width="4.51" height="1.9" transform="translate(-6.2 8.05) rotate(-3.01)"/><rect class="cls-9" x="147.79" y="125.5" width="4.51" height="1.9" transform="translate(-6.44 8.07) rotate(-3.01)"/><rect class="cls-9" x="148.01" y="129.53" width="4.51" height="1.9" transform="translate(-6.65 8.08) rotate(-3.01)"/><rect class="cls-9" x="147.61" y="134.01" width="5.77" height="1.9" transform="translate(-6.89 8.1) rotate(-3.01)"/><rect class="cls-9" x="142.57" y="24.53" width="3.68" height="1.9" transform="translate(-1.14 7.63) rotate(-3.01)"/><rect class="cls-9" x="158.87" y="23.61" width="5.82" height="1.9" transform="translate(-1.07 8.54) rotate(-3.01)"/><rect class="cls-9" x="177.83" y="22.49" width="10.67" height="1.9" transform="translate(-0.98 9.67) rotate(-3.01)"/><rect class="cls-9" x="204.78" y="21.1" width="9.45" height="1.9" transform="translate(-0.87 11.05) rotate(-3.01)"/><rect class="cls-9" x="228.87" y="19.88" width="7.69" height="1.9" transform="translate(-0.77 12.27) rotate(-3.01)"/><rect class="cls-14" x="13.9" y="36.3" width="0.92" height="1.53" transform="translate(-1.93 0.81) rotate(-3.01)"/><rect class="cls-14" x="14.12" y="40.61" width="0.92" height="1.53" transform="translate(-2.16 0.82) rotate(-3.01)"/><rect class="cls-14" x="14.35" y="44.89" width="0.92" height="1.53" transform="translate(-2.38 0.84) rotate(-3.01)"/><rect class="cls-14" x="14.58" y="49.27" width="0.92" height="1.53" transform="matrix(1, -0.05, 0.05, 1, -2.61, 0.86)"/><rect class="cls-14" x="14.8" y="53.51" width="0.92" height="1.53" transform="matrix(1, -0.05, 0.05, 1, -2.83, 0.88)"/><rect class="cls-14" x="15.04" y="57.96" width="0.92" height="1.53" transform="translate(-3.07 0.9) rotate(-3.01)"/><rect class="cls-14" x="15.27" y="62.32" width="0.92" height="1.53" transform="matrix(1, -0.05, 0.05, 1, -3.3, 0.91)"/><rect class="cls-14" x="15.5" y="66.75" width="0.92" height="1.53" transform="translate(-3.53 0.93) rotate(-3.01)"/><rect class="cls-14" x="15.73" y="71.04" width="0.92" height="1.53" transform="translate(-3.75 0.95) rotate(-3.01)"/><rect class="cls-14" x="15.65" y="75.55" width="1.54" height="1.53" transform="translate(-3.99 0.97) rotate(-3.01)"/><rect class="cls-14" x="15.87" y="79.78" width="1.54" height="1.53" transform="translate(-4.21 0.99) rotate(-3.01)"/><rect class="cls-14" x="16.11" y="84.26" width="1.54" height="1.53" transform="translate(-4.45 1.01) rotate(-3.01)"/><rect class="cls-14" x="16.35" y="88.84" width="1.54" height="1.53" transform="translate(-4.69 1.02) rotate(-3.01)"/><rect class="cls-14" x="16.58" y="93.25" width="1.54" height="1.53" transform="translate(-4.92 1.04) rotate(-3.01)"/><rect class="cls-14" x="16.81" y="97.47" width="1.54" height="1.53" transform="translate(-5.14 1.06) rotate(-3.01)"/><rect class="cls-14" x="17.04" y="101.96" width="1.54" height="1.53" transform="translate(-5.38 1.08) rotate(-3.01)"/><rect class="cls-14" x="17.26" y="106.09" width="1.54" height="1.53" transform="translate(-5.6 1.1) rotate(-3.01)"/><rect class="cls-14" x="17.5" y="110.61" width="1.54" height="1.53" transform="translate(-5.83 1.12) rotate(-3.01)"/><rect class="cls-14" x="17.73" y="115.1" width="1.54" height="1.53" transform="translate(-6.07 1.13) rotate(-3.01)"/><rect class="cls-14" x="17.98" y="119.67" width="1.54" height="1.53" transform="translate(-6.31 1.15) rotate(-3.01)"/><rect class="cls-14" x="18.21" y="124.08" width="1.54" height="1.53" transform="translate(-6.54 1.17) rotate(-3.01)"/><rect class="cls-14" x="18.43" y="128.3" width="1.54" height="1.53" transform="translate(-6.76 1.19) rotate(-3.01)"/><rect class="cls-14" x="18.67" y="132.79" width="1.54" height="1.53" transform="translate(-7 1.21) rotate(-3.01)"/><rect class="cls-14" x="18.88" y="136.93" width="1.54" height="1.53" transform="translate(-7.21 1.22) rotate(-3.01)"/><rect class="cls-14" x="19.12" y="141.34" width="1.54" height="1.53" transform="translate(-7.45 1.24) rotate(-3.01)"/><rect class="cls-15" x="21.08" y="35.7" width="9.47" height="1.53" transform="translate(-1.88 1.41) rotate(-3.01)"/><rect class="cls-15" x="21.3" y="39.68" width="21.85" height="1.53" transform="translate(-2.08 1.75) rotate(-3.01)"/><rect class="cls-15" x="21.53" y="44.15" width="14.51" height="1.53" transform="translate(-2.32 1.58) rotate(-3.01)"/><rect class="cls-15" x="21.77" y="48.69" width="14.51" height="1.53" transform="translate(-2.56 1.59) rotate(-3.01)"/><rect class="cls-15" x="22" y="53.14" width="12.68" height="1.53" transform="translate(-2.8 1.57) rotate(-3.01)"/><rect class="cls-15" x="22.22" y="57.19" width="15.79" height="1.53" transform="translate(-3.01 1.66) rotate(-3.01)"/><rect class="cls-15" x="22.45" y="61.6" width="13.92" height="1.53" transform="translate(-3.24 1.63) rotate(-3.01)"/><rect class="cls-15" x="22.68" y="66.06" width="12.94" height="1.53" transform="translate(-3.47 1.63) rotate(-3.01)"/><rect class="cls-15" x="22.93" y="70.72" width="8.62" height="1.53" transform="translate(-3.72 1.53) rotate(-3.01)"/><rect class="cls-15" x="23.15" y="75.11" width="3.4" height="1.53" transform="translate(-3.96 1.41) rotate(-3.01)"/><rect class="cls-15" x="23.38" y="79.42" width="10.89" height="1.53" transform="translate(-4.18 1.63) rotate(-3.01)"/><rect class="cls-15" x="23.62" y="83.88" width="9.21" height="1.53" transform="translate(-4.41 1.6) rotate(-3.01)"/><rect class="cls-15" x="23.85" y="88.33" width="7.2" height="1.53" transform="translate(-4.65 1.57) rotate(-3.01)"/><rect class="cls-15" x="24.08" y="92.6" width="10.89" height="1.53" transform="translate(-4.87 1.68) rotate(-3.01)"/><rect class="cls-15" x="24.31" y="97.01" width="10.89" height="1.53" transform="translate(-5.1 1.7) rotate(-3.01)"/><rect class="cls-15" x="24.54" y="101.38" width="8.99" height="1.53" transform="translate(-5.33 1.67) rotate(-3.01)"/><rect class="cls-15" x="24.77" y="105.74" width="7.56" height="1.53" transform="translate(-5.56 1.65) rotate(-3.01)"/><rect class="cls-15" x="25" y="110.14" width="7.56" height="1.53" transform="translate(-5.79 1.67) rotate(-3.01)"/><rect class="cls-15" x="25.23" y="114.53" width="8.3" height="1.53" transform="translate(-6.02 1.7) rotate(-3.01)"/><rect class="cls-15" x="25.46" y="118.73" width="15.09" height="1.53" transform="translate(-6.24 1.9) rotate(-3.01)"/><rect class="cls-15" x="25.69" y="123.3" width="8.3" height="1.53" transform="translate(-6.48 1.74) rotate(-3.01)"/><rect class="cls-15" x="25.93" y="127.73" width="8.3" height="1.53" transform="translate(-6.72 1.76) rotate(-3.01)"/><rect class="cls-15" x="26.15" y="132.02" width="9.1" height="1.53" transform="translate(-6.94 1.8) rotate(-3.01)"/><rect class="cls-15" x="26.38" y="136.45" width="5.23" height="1.53" transform="translate(-7.18 1.72) rotate(-3.01)"/><rect class="cls-15" x="26.61" y="140.72" width="10.01" height="1.53" transform="translate(-7.4 1.86) rotate(-3.01)"/><rect class="cls-14" x="109.12" y="146.88" width="8.7" height="1.57" transform="translate(-7.61 6.17) rotate(-3.01)"/><rect class="cls-16" x="54.93" y="148.25" width="4.92" height="4.72" transform="translate(-7.84 3.23) rotate(-3.01)"/><rect class="cls-17" x="59.99" y="147.99" width="4.92" height="4.72" transform="translate(-7.82 3.49) rotate(-3.01)"/><rect class="cls-17" x="65.05" y="147.72" width="4.92" height="4.72" transform="translate(-7.8 3.76) rotate(-3.01)"/><rect class="cls-17" x="90.69" y="146.27" width="8.53" height="4.72" transform="translate(-7.69 5.2) rotate(-3.01)"/><rect class="cls-17" x="99.48" y="145.8" width="8.94" height="4.72" transform="translate(-7.65 5.67) rotate(-3.01)"/><rect class="cls-14" x="101.33" y="147.37" width="5.68" height="1.57" transform="translate(-7.65 5.68) rotate(-3.01)"/><rect class="cls-14" x="92.11" y="147.85" width="5.68" height="1.57" transform="translate(-7.69 5.2) rotate(-3.01)"/><rect class="cls-14" x="66.42" y="149.31" width="1.78" height="1.57" transform="translate(-7.8 3.75) rotate(-3.01)"/><rect class="cls-17" x="70.19" y="147.45" width="4.92" height="4.72" transform="translate(-7.78 4.03) rotate(-3.01)"/><rect class="cls-14" x="71.57" y="149.04" width="1.78" height="1.57" transform="translate(-7.78 4.02) rotate(-3.01)"/><rect class="cls-17" x="75.34" y="147.18" width="4.92" height="4.72" transform="translate(-7.76 4.3) rotate(-3.01)"/><rect class="cls-14" x="76.71" y="148.77" width="1.78" height="1.57" transform="translate(-7.76 4.29) rotate(-3.01)"/><rect class="cls-17" x="80.48" y="146.91" width="4.92" height="4.72" transform="translate(-7.74 4.57) rotate(-3.01)"/><rect class="cls-14" x="81.86" y="148.49" width="1.78" height="1.57" transform="translate(-7.74 4.56) rotate(-3.01)"/><rect class="cls-17" x="85.63" y="146.64" width="4.92" height="4.72" transform="translate(-7.71 4.84) rotate(-3.01)"/><rect class="cls-14" x="87.01" y="148.22" width="1.78" height="1.57" transform="translate(-7.72 4.83) rotate(-3.01)"/><rect class="cls-14" x="61.75" y="149.55" width="1.78" height="1.57" transform="translate(-7.82 3.5) rotate(-3.01)"/><rect class="cls-14" x="56.55" y="149.83" width="1.78" height="1.57" transform="translate(-7.84 3.23) rotate(-3.01)"/><rect class="cls-1" x="89.22" y="52.06" width="240" height="145.06" transform="translate(4.52 -7.3) rotate(2.02)"/><rect class="cls-2" x="91.22" y="53.06" width="240" height="145.06" transform="translate(1.77 -2.94) rotate(0.8)"/><rect class="cls-3" x="144.27" y="10.8" width="133.89" height="229.8" transform="translate(82.57 335.14) rotate(-89.2)"/><path class="cls-18" d="M325.24,194.32,95.32,191.11l1.87-134L327.11,60.3ZM95.46,191l229.64,3.21L327,60.44,97.33,57.23Z"/><rect class="cls-18" x="97.21" y="58.46" width="229.8" height="6.49" transform="translate(0.88 -2.96) rotate(0.8)"/><rect class="cls-3" x="109.01" y="49.71" width="1.83" height="21.14" transform="translate(48.12 169.35) rotate(-89.2)"/><rect class="cls-19" x="314.76" y="56.46" width="3.32" height="13.4" rx="1.66" ry="1.66" transform="translate(248.85 378.67) rotate(-89.2)"/><rect class="cls-3" x="316.08" y="57.76" width="0.8" height="10.56" transform="translate(249.03 378.61) rotate(-89.2)"/><rect class="cls-4" x="209.9" y="-36.02" width="4.32" height="225.48" transform="translate(132.39 287.69) rotate(-89.2)"/><rect class="cls-4" x="209.78" y="-27.52" width="4.32" height="225.48" transform="translate(123.77 295.95) rotate(-89.2)"/><rect class="cls-4" x="209.67" y="-19.01" width="4.32" height="225.48" transform="translate(115.15 304.22) rotate(-89.2)"/><rect class="cls-4" x="209.55" y="-10.5" width="4.32" height="225.48" transform="translate(106.52 312.49) rotate(-89.2)"/><rect class="cls-4" x="209.43" y="-2.14" width="4.32" height="225.48" transform="translate(98.05 320.62) rotate(-89.2)"/><rect class="cls-4" x="209.31" y="6.35" width="4.32" height="225.48" transform="translate(89.44 328.88) rotate(-89.2)"/><rect class="cls-4" x="209.19" y="14.84" width="4.32" height="225.48" transform="translate(80.83 337.13) rotate(-89.2)"/><rect class="cls-4" x="209.07" y="23.33" width="4.32" height="225.48" transform="translate(72.22 345.39) rotate(-89.2)"/><rect class="cls-4" x="208.96" y="31.69" width="4.32" height="225.48" transform="translate(63.76 353.5) rotate(-89.2)"/><rect class="cls-5" x="208.88" y="27.49" width="4.32" height="225.48" transform="translate(67.87 349.29) rotate(-89.2)"/><rect class="cls-4" x="208.84" y="40.18" width="4.32" height="225.48" transform="translate(55.15 361.76) rotate(-89.2)"/><rect class="cls-4" x="208.58" y="48.67" width="4.32" height="225.48" transform="translate(46.41 369.87) rotate(-89.2)"/><rect class="cls-4" x="208.6" y="57.15" width="4.32" height="225.48" transform="translate(37.95 378.25) rotate(-89.2)"/><rect class="cls-4" x="208.49" y="65.45" width="4.32" height="225.48" transform="translate(29.53 386.32) rotate(-89.2)"/><rect class="cls-6" x="228.85" y="118.28" width="105.8" height="20.31" transform="translate(149.39 408.37) rotate(-89.2)"/><rect class="cls-10" x="280.06" y="84.46" width="4.23" height="20.41" transform="translate(183.57 375.49) rotate(-89.2)"/><rect class="cls-10" x="279.35" y="135.2" width="4.23" height="20.41" transform="translate(132.14 424.81) rotate(-89.2)"/><rect class="cls-11" x="279.88" y="97.16" width="4.23" height="20.41" transform="translate(170.7 387.83) rotate(-89.2)"/><rect class="cls-11" x="279.23" y="143.69" width="4.23" height="20.41" transform="translate(123.53 433.07) rotate(-89.2)"/><rect class="cls-11" x="279.11" y="152.18" width="4.23" height="20.41" transform="translate(114.93 441.31) rotate(-89.2)"/><rect class="cls-11" x="277.37" y="124.65" width="8.49" height="20.41" transform="translate(142.83 414.56) rotate(-89.2)"/><path class="cls-12" d="M323.41,182,97.82,178.84,99.35,68.68,325,71.83ZM98,178.7l225.31,3.15L324.81,72,99.49,68.82Z"/><rect class="cls-12" x="54.22" y="123.84" width="110.03" height="0.14" transform="translate(-16.19 231.4) rotate(-89.2)"/><rect class="cls-12" x="117.15" y="124.72" width="110.03" height="0.14" transform="translate(44.99 295.2) rotate(-89.2)"/><rect class="cls-12" x="135.8" y="124.98" width="110.03" height="0.14" transform="translate(63.11 314.1) rotate(-89.2)"/><rect class="cls-12" x="173.31" y="125.5" width="110.03" height="0.14" transform="translate(99.58 352.12) rotate(-89.2)"/><rect class="cls-12" x="194.7" y="125.8" width="110.03" height="0.14" transform="translate(120.37 373.8) rotate(-89.2)"/><rect class="cls-12" x="216.61" y="126.11" width="110.03" height="0.14" transform="translate(141.67 396.02) rotate(-89.2)"/><rect class="cls-12" x="236.56" y="126.39" width="110.03" height="0.14" transform="translate(161.05 416.23) rotate(-89.2)"/><rect class="cls-12" x="269.1" y="126.84" width="110.03" height="0.14" transform="translate(192.68 449.22) rotate(-89.2)"/><rect class="cls-12" x="212.02" y="-38.18" width="0.14" height="225.48" transform="translate(134.58 285.59) rotate(-89.2)"/><rect class="cls-12" x="211.96" y="-33.86" width="0.14" height="225.48" transform="translate(130.2 289.78) rotate(-89.2)"/><rect class="cls-12" x="211.9" y="-29.63" width="0.14" height="225.48" transform="translate(125.91 293.9) rotate(-89.2)"/><rect class="cls-12" x="211.84" y="-25.4" width="0.14" height="225.48" transform="translate(121.62 298.01) rotate(-89.2)"/><rect class="cls-12" x="211.78" y="-21.17" width="0.14" height="225.48" transform="translate(117.33 302.13) rotate(-89.2)"/><rect class="cls-12" x="211.72" y="-16.94" width="0.14" height="225.48" transform="translate(113.04 306.24) rotate(-89.2)"/><rect class="cls-12" x="211.67" y="-12.71" width="0.14" height="225.48" transform="translate(108.75 310.35) rotate(-89.2)"/><rect class="cls-12" x="211.61" y="-8.47" width="0.14" height="225.48" transform="translate(104.47 314.47) rotate(-89.2)"/><rect class="cls-12" x="211.55" y="-4.24" width="0.14" height="225.48" transform="translate(100.18 318.58) rotate(-89.2)"/><rect class="cls-12" x="211.49" y="-0.01" width="0.14" height="225.48" transform="translate(95.89 322.69) rotate(-89.2)"/><rect class="cls-12" x="211.43" y="4.22" width="0.14" height="225.48" transform="translate(91.6 326.81) rotate(-89.2)"/><rect class="cls-12" x="211.37" y="8.45" width="0.14" height="225.48" transform="translate(87.31 330.92) rotate(-89.2)"/><rect class="cls-12" x="211.31" y="12.69" width="0.14" height="225.48" transform="translate(83.02 335.03) rotate(-89.2)"/><rect class="cls-12" x="211.25" y="16.92" width="0.14" height="225.48" transform="translate(78.73 339.15) rotate(-89.2)"/><rect class="cls-12" x="211.19" y="21.15" width="0.14" height="225.48" transform="translate(74.44 343.26) rotate(-89.2)"/><rect class="cls-12" x="211.13" y="25.38" width="0.14" height="225.48" transform="translate(70.15 347.37) rotate(-89.2)"/><rect class="cls-12" x="211.07" y="29.61" width="0.14" height="225.48" transform="translate(65.86 351.49) rotate(-89.2)"/><rect class="cls-12" x="211.02" y="33.84" width="0.14" height="225.48" transform="translate(61.57 355.6) rotate(-89.2)"/><rect class="cls-12" x="210.96" y="38.08" width="0.14" height="225.48" transform="translate(57.28 359.71) rotate(-89.2)"/><rect class="cls-12" x="210.9" y="42.31" width="0.14" height="225.48" transform="translate(52.99 363.83) rotate(-89.2)"/><rect class="cls-12" x="210.84" y="46.54" width="0.14" height="225.48" transform="translate(48.7 367.94) rotate(-89.2)"/><rect class="cls-12" x="210.78" y="50.77" width="0.14" height="225.48" transform="translate(44.41 372.05) rotate(-89.2)"/><rect class="cls-12" x="210.72" y="55" width="0.14" height="225.48" transform="translate(40.12 376.17) rotate(-89.2)"/><rect class="cls-12" x="210.66" y="59.23" width="0.14" height="225.48" transform="translate(35.83 380.28) rotate(-89.2)"/><rect class="cls-12" x="210.6" y="63.47" width="0.14" height="225.48" transform="translate(31.54 384.4) rotate(-89.2)"/><rect class="cls-9" x="103.89" y="69.31" width="1.83" height="2.82" transform="translate(32.63 174.53) rotate(-89.2)"/><rect class="cls-9" x="112.73" y="68.32" width="1.83" height="5.04" transform="translate(41.22 183.49) rotate(-89.2)"/><rect class="cls-9" x="181.68" y="69.16" width="1.83" height="5.31" transform="translate(108.25 253.39) rotate(-89.2)"/><rect class="cls-9" x="181.62" y="73.65" width="1.83" height="5.31" transform="translate(103.69 257.76) rotate(-89.2)"/><rect class="cls-9" x="181.56" y="78.15" width="1.83" height="5.31" transform="translate(99.14 262.13) rotate(-89.2)"/><rect class="cls-9" x="181.5" y="82.22" width="1.83" height="5.31" transform="translate(95.01 266.09) rotate(-89.2)"/><rect class="cls-9" x="181.45" y="86.16" width="1.83" height="5.31" transform="translate(91.01 269.92) rotate(-89.2)"/><rect class="cls-9" x="181.38" y="91.06" width="1.83" height="4.49" transform="translate(86.46 274.29) rotate(-89.2)"/><rect class="cls-9" x="181.33" y="95.13" width="1.83" height="4.49" transform="translate(82.33 278.24) rotate(-89.2)"/><rect class="cls-9" x="181.27" y="99.74" width="1.83" height="3.56" transform="translate(78.13 282.27) rotate(-89.2)"/><rect class="cls-9" x="181.21" y="104.58" width="1.83" height="2.86" transform="translate(73.58 286.64) rotate(-89.2)"/><rect class="cls-9" x="181.15" y="107.43" width="1.83" height="5.31" transform="translate(69.45 290.6) rotate(-89.2)"/><rect class="cls-9" x="181.09" y="111.43" width="1.83" height="5.31" transform="translate(65.4 294.48) rotate(-89.2)"/><rect class="cls-9" x="181.03" y="115.92" width="1.83" height="5.31" transform="translate(60.84 298.85) rotate(-89.2)"/><rect class="cls-9" x="180.97" y="119.99" width="1.83" height="5.31" transform="translate(56.72 302.81) rotate(-89.2)"/><rect class="cls-9" x="180.91" y="124.44" width="1.83" height="5.31" transform="translate(52.21 307.13) rotate(-89.2)"/><rect class="cls-9" x="180.85" y="128.94" width="1.83" height="5.31" transform="translate(47.65 311.5) rotate(-89.2)"/><rect class="cls-9" x="180.79" y="133.01" width="1.83" height="5.31" transform="translate(43.52 315.46) rotate(-89.2)"/><rect class="cls-9" x="180.74" y="137.76" width="1.83" height="3.94" transform="translate(39.4 319.41) rotate(-89.2)"/><rect class="cls-9" x="180.67" y="141.57" width="1.83" height="5.31" transform="translate(34.84 323.78) rotate(-89.2)"/><rect class="cls-9" x="180.62" y="145.64" width="1.83" height="5.31" transform="translate(30.72 327.74) rotate(-89.2)"/><rect class="cls-9" x="180.56" y="149.6" width="1.83" height="5.31" transform="translate(26.71 331.58) rotate(-89.2)"/><rect class="cls-9" x="180.5" y="154.09" width="1.83" height="5.31" transform="translate(22.15 335.95) rotate(-89.2)"/><rect class="cls-9" x="180.38" y="162.23" width="1.83" height="5.31" transform="translate(13.9 343.86) rotate(-89.2)"/><rect class="cls-9" x="180.32" y="166.72" width="1.83" height="5.31" transform="translate(9.34 348.23) rotate(-89.2)"/><rect class="cls-9" x="180.26" y="170.8" width="1.83" height="5.31" transform="translate(5.22 352.19) rotate(-89.2)"/><rect class="cls-9" x="180.2" y="176.46" width="1.83" height="2.62" transform="translate(0.83 356.4) rotate(-89.2)"/><rect class="cls-9" x="209.33" y="72.59" width="1.83" height="8.21" transform="translate(130.63 285.85) rotate(-89.2)"/><rect class="cls-9" x="209.27" y="73.29" width="1.83" height="15.79" transform="translate(126.07 290.22) rotate(-89.2)"/><rect class="cls-9" x="209.21" y="82.6" width="1.83" height="5.31" transform="translate(121.94 294.18) rotate(-89.2)"/><rect class="cls-9" x="209.16" y="86.54" width="1.83" height="5.31" transform="translate(117.95 298.01) rotate(-89.2)"/><rect class="cls-9" x="209.09" y="91.45" width="1.83" height="4.49" transform="matrix(0.01, -1, 1, 0.01, 113.39, 302.38)"/><rect class="cls-9" x="209.04" y="95.52" width="1.83" height="4.49" transform="translate(109.26 306.33) rotate(-89.2)"/><rect class="cls-9" x="208.98" y="100.13" width="1.83" height="3.56" transform="translate(105.07 310.36) rotate(-89.2)"/><rect class="cls-9" x="208.92" y="99.79" width="1.83" height="13.22" transform="translate(100.51 314.73) rotate(-89.2)"/><rect class="cls-9" x="208.86" y="103.86" width="1.83" height="13.22" transform="translate(96.39 318.68) rotate(-89.2)"/><rect class="cls-9" x="208.8" y="110.45" width="1.83" height="8.32" transform="translate(92.19 322.7) rotate(-89.2)"/><rect class="cls-9" x="208.74" y="114.8" width="1.83" height="8.32" transform="translate(87.78 326.94) rotate(-89.2)"/><rect class="cls-9" x="208.68" y="118.87" width="1.83" height="8.32" transform="translate(83.65 330.9) rotate(-89.2)"/><rect class="cls-9" x="208.62" y="123.32" width="1.83" height="8.32" transform="translate(79.14 335.22) rotate(-89.2)"/><rect class="cls-9" x="208.56" y="127.81" width="1.83" height="8.32" transform="translate(74.59 339.59) rotate(-89.2)"/><rect class="cls-9" x="208.5" y="131.89" width="1.83" height="8.32" transform="translate(70.46 343.55) rotate(-89.2)"/><rect class="cls-9" x="208.45" y="135.72" width="1.83" height="8.79" transform="translate(66.34 347.5) rotate(-89.2)"/><rect class="cls-9" x="208.38" y="140.45" width="1.83" height="8.32" transform="translate(61.78 351.87) rotate(-89.2)"/><rect class="cls-9" x="208.33" y="144.52" width="1.83" height="8.32" transform="translate(57.65 355.83) rotate(-89.2)"/><rect class="cls-9" x="208.27" y="146.26" width="1.83" height="12.76" transform="translate(53.64 359.67) rotate(-89.2)"/><rect class="cls-9" x="208.21" y="153.2" width="1.83" height="7.86" transform="translate(49.09 364.04) rotate(-89.2)"/><rect class="cls-9" x="208.09" y="158.89" width="1.83" height="12.76" transform="translate(40.84 371.95) rotate(-89.2)"/><rect class="cls-9" x="208.15" y="154.99" width="1.83" height="12.76" transform="translate(44.79 368.16) rotate(-89.2)"/><rect class="cls-9" x="208.03" y="163.15" width="1.83" height="13.22" transform="translate(36.28 376.32) rotate(-89.2)"/><rect class="cls-9" x="207.97" y="169.68" width="1.83" height="8.32" transform="translate(32.15 380.28) rotate(-89.2)"/><rect class="cls-9" x="207.91" y="170.79" width="1.83" height="14.74" transform="translate(27.77 384.48) rotate(-89.2)"/><rect class="cls-9" x="209.43" y="68.77" width="1.83" height="6.85" transform="translate(135.22 281.52) rotate(-89.2)"/><rect class="cls-9" x="239.49" y="69.92" width="1.83" height="5.39" transform="translate(164.44 311.99) rotate(-89.2)"/><rect class="cls-9" x="239.43" y="74.42" width="1.83" height="5.39" transform="translate(159.89 316.36) rotate(-89.2)"/><rect class="cls-9" x="239.37" y="78.67" width="1.83" height="5.39" transform="translate(155.58 320.49) rotate(-89.2)"/><rect class="cls-9" x="239.31" y="82.92" width="1.83" height="5.39" transform="translate(151.26 324.63) rotate(-89.2)"/><rect class="cls-9" x="239.25" y="87.17" width="1.83" height="5.39" transform="translate(146.95 328.76) rotate(-89.2)"/><rect class="cls-9" x="239.19" y="91.43" width="1.83" height="5.39" transform="translate(142.64 332.9) rotate(-89.2)"/><rect class="cls-9" x="239.13" y="95.68" width="1.83" height="5.39" transform="translate(138.33 337.03) rotate(-89.2)"/><rect class="cls-9" x="239.07" y="99.93" width="1.83" height="5.39" transform="translate(134.02 341.16) rotate(-89.2)"/><rect class="cls-9" x="239.02" y="104.19" width="1.83" height="5.39" transform="translate(129.71 345.3) rotate(-89.2)"/><rect class="cls-9" x="238.96" y="108.44" width="1.83" height="5.39" transform="translate(125.4 349.43) rotate(-89.2)"/><rect class="cls-9" x="238.9" y="112.62" width="1.83" height="5.39" transform="translate(121.16 353.49) rotate(-89.2)"/><rect class="cls-9" x="238.84" y="116.8" width="1.83" height="5.39" transform="translate(116.93 357.56) rotate(-89.2)"/><rect class="cls-9" x="238.78" y="120.98" width="1.83" height="5.39" transform="translate(112.69 361.62) rotate(-89.2)"/><rect class="cls-9" x="238.72" y="125.15" width="1.83" height="5.39" transform="translate(108.45 365.68) rotate(-89.2)"/><rect class="cls-9" x="238.66" y="129.33" width="1.83" height="5.39" transform="translate(104.22 369.74) rotate(-89.2)"/><rect class="cls-9" x="238.61" y="133.51" width="1.83" height="5.39" transform="translate(99.98 373.8) rotate(-89.2)"/><rect class="cls-9" x="238.55" y="137.69" width="1.83" height="5.39" transform="translate(95.75 377.87) rotate(-89.2)"/><rect class="cls-9" x="238.49" y="141.87" width="1.83" height="5.39" transform="translate(91.51 381.93) rotate(-89.2)"/><rect class="cls-9" x="238.43" y="146.05" width="1.83" height="5.39" transform="translate(87.27 385.99) rotate(-89.2)"/><rect class="cls-9" x="238.37" y="150.37" width="1.83" height="5.39" transform="translate(82.9 390.19) rotate(-89.2)"/><rect class="cls-9" x="238.31" y="154.55" width="1.83" height="5.39" transform="translate(78.66 394.25) rotate(-89.2)"/><rect class="cls-9" x="238.25" y="158.87" width="1.83" height="5.39" transform="translate(74.28 398.45) rotate(-89.2)"/><rect class="cls-9" x="238.19" y="163.05" width="1.83" height="5.39" transform="translate(70.04 402.51) rotate(-89.2)"/><rect class="cls-9" x="238.13" y="167.51" width="1.83" height="5.39" transform="translate(65.52 406.85) rotate(-89.2)"/><rect class="cls-9" x="238.08" y="171.4" width="1.83" height="5.39" transform="translate(61.57 410.64) rotate(-89.2)"/><rect class="cls-9" x="238.02" y="174.96" width="1.83" height="6.91" transform="translate(57.19 414.84) rotate(-89.2)"/><rect class="cls-9" x="261.48" y="74.72" width="1.83" height="5.39" transform="translate(181.32 338.71) rotate(-89.2)"/><rect class="cls-4" x="281.61" y="76.56" width="1.83" height="2.27" transform="matrix(0.01, -1, 1, 0.01, 200.89, 359.12)"/><rect class="cls-4" x="281.55" y="80.73" width="1.83" height="2.27" transform="matrix(0.01, -1, 1, 0.01, 196.67, 363.16)"/><rect class="cls-4" x="281.49" y="85.07" width="1.83" height="2.27" transform="translate(192.27 367.39) rotate(-89.2)"/><rect class="cls-4" x="281.43" y="89.41" width="1.83" height="2.27" transform="translate(187.86 371.61) rotate(-89.2)"/><rect class="cls-4" x="281.32" y="97.52" width="1.83" height="2.27" transform="matrix(0.01, -1, 1, 0.01, 179.65, 379.49)"/><rect class="cls-4" x="281.26" y="101.86" width="1.83" height="2.27" transform="translate(175.24 383.71) rotate(-89.2)"/><rect class="cls-4" x="281.14" y="110.43" width="1.83" height="2.27" transform="translate(166.56 392.04) rotate(-89.2)"/><rect class="cls-4" x="281.08" y="114.78" width="1.83" height="2.27" transform="translate(162.15 396.26) rotate(-89.2)"/><rect class="cls-4" x="281.02" y="118.92" width="1.83" height="2.27" transform="matrix(0.01, -1, 1, 0.01, 157.95, 400.29)"/><rect class="cls-4" x="280.96" y="123.27" width="1.83" height="2.27" transform="translate(153.55 404.52) rotate(-89.2)"/><rect class="cls-4" x="280.9" y="127.17" width="1.83" height="2.27" transform="translate(149.59 408.31) rotate(-89.2)"/><rect class="cls-4" x="280.37" y="165.51" width="1.83" height="2.27" transform="translate(110.73 445.57) rotate(-89.2)"/><rect class="cls-4" x="280.31" y="169.65" width="1.83" height="2.27" transform="matrix(0.01, -1, 1, 0.01, 106.53, 449.6)"/><rect class="cls-4" x="280.25" y="174" width="1.83" height="2.27" transform="translate(102.12 453.83) rotate(-89.2)"/><rect class="cls-4" x="280.2" y="177.9" width="1.83" height="2.27" transform="matrix(0.01, -1, 1, 0.01, 98.17, 457.62)"/><rect class="cls-4" x="280.72" y="140.08" width="1.83" height="2.27" transform="matrix(0.01, -1, 1, 0.01, 136.5, 420.86)"/><rect class="cls-4" x="280.61" y="148.55" width="1.83" height="2.27" transform="matrix(0.01, -1, 1, 0.01, 127.91, 429.1)"/><rect class="cls-4" x="280.49" y="157.01" width="1.83" height="2.27" transform="matrix(0.01, -1, 1, 0.01, 119.34, 437.31)"/><rect class="cls-4" x="281.37" y="92.52" width="1.83" height="4.3" transform="translate(183.69 375.61) rotate(-89.2)"/><rect class="cls-4" x="280.66" y="143.47" width="1.83" height="4.3" transform="translate(132.04 425.14) rotate(-89.2)"/><rect class="cls-4" x="281.2" y="104.02" width="1.83" height="6.76" transform="translate(170.78 387.99) rotate(-89.2)"/><rect class="cls-4" x="280.84" y="129.24" width="1.83" height="6.76" transform="translate(145.22 412.5) rotate(-89.2)"/><rect class="cls-4" x="280.43" y="159.01" width="1.83" height="6.76" transform="translate(115.04 441.44) rotate(-89.2)"/><rect class="cls-4" x="280.78" y="133.54" width="1.83" height="6.76" transform="translate(140.86 416.68) rotate(-89.2)"/><rect class="cls-4" x="280.55" y="150.53" width="1.83" height="6.76" transform="translate(123.63 433.2) rotate(-89.2)"/><rect class="cls-9" x="261.42" y="78.98" width="1.83" height="5.39" transform="matrix(0.01, -1, 1, 0.01, 177, 342.84)"/><rect class="cls-9" x="261.36" y="83.23" width="1.83" height="5.39" transform="matrix(0.01, -1, 1, 0.01, 172.69, 346.97)"/><rect class="cls-9" x="261.3" y="87.48" width="1.83" height="5.39" transform="translate(168.38 351.11) rotate(-89.2)"/><rect class="cls-9" x="261.24" y="91.74" width="1.83" height="5.39" transform="matrix(0.01, -1, 1, 0.01, 164.07, 355.24)"/><rect class="cls-9" x="261.18" y="95.99" width="1.83" height="5.39" transform="matrix(0.01, -1, 1, 0.01, 159.76, 359.38)"/><rect class="cls-9" x="261.12" y="100.24" width="1.83" height="5.39" transform="translate(155.45 363.51) rotate(-89.2)"/><rect class="cls-9" x="261.06" y="104.49" width="1.83" height="5.39" transform="matrix(0.01, -1, 1, 0.01, 151.14, 367.64)"/><rect class="cls-9" x="261" y="108.75" width="1.83" height="5.39" transform="matrix(0.01, -1, 1, 0.01, 146.83, 371.78)"/><rect class="cls-9" x="260.94" y="112.93" width="1.83" height="5.39" transform="matrix(0.01, -1, 1, 0.01, 142.59, 375.84)"/><rect class="cls-9" x="260.88" y="117.1" width="1.83" height="5.39" transform="matrix(0.01, -1, 1, 0.01, 138.36, 379.9)"/><rect class="cls-9" x="260.83" y="121.28" width="1.83" height="5.39" transform="translate(134.12 383.96) rotate(-89.2)"/><rect class="cls-9" x="260.77" y="125.46" width="1.83" height="5.39" transform="translate(129.88 388.03) rotate(-89.2)"/><rect class="cls-9" x="260.71" y="129.64" width="1.83" height="5.39" transform="translate(125.65 392.09) rotate(-89.2)"/><rect class="cls-9" x="260.65" y="133.82" width="1.83" height="5.39" transform="translate(121.41 396.15) rotate(-89.2)"/><rect class="cls-9" x="260.59" y="138" width="1.83" height="5.39" transform="matrix(0.01, -1, 1, 0.01, 117.18, 400.21)"/><rect class="cls-9" x="260.53" y="142.18" width="1.83" height="5.39" transform="matrix(0.01, -1, 1, 0.01, 112.94, 404.27)"/><rect class="cls-9" x="260.48" y="146.36" width="1.83" height="5.39" transform="matrix(0.01, -1, 1, 0.01, 108.7, 408.34)"/><rect class="cls-9" x="260.41" y="150.68" width="1.83" height="5.39" transform="translate(104.32 412.54) rotate(-89.2)"/><rect class="cls-9" x="260.36" y="154.85" width="1.83" height="5.39" transform="translate(100.09 416.6) rotate(-89.2)"/><rect class="cls-9" x="260.3" y="159.17" width="1.83" height="5.39" transform="translate(95.71 420.8) rotate(-89.2)"/><rect class="cls-9" x="260.24" y="163.35" width="1.83" height="5.39" transform="translate(91.47 424.86) rotate(-89.2)"/><rect class="cls-9" x="260.18" y="167.81" width="1.83" height="5.39" transform="matrix(0.01, -1, 1, 0.01, 86.95, 429.2)"/><rect class="cls-9" x="260.12" y="171.71" width="1.83" height="5.39" transform="translate(83 432.98) rotate(-89.2)"/><rect class="cls-9" x="260.06" y="175.27" width="1.83" height="6.91" transform="translate(78.62 437.18) rotate(-89.2)"/><rect class="cls-9" x="261.16" y="70.72" width="1.83" height="4.4" transform="translate(185.5 333.95) rotate(-89.2)"/><rect class="cls-9" x="281.98" y="69.73" width="1.83" height="6.97" transform="translate(205.74 355.06) rotate(-89.2)"/><rect class="cls-9" x="307.6" y="67.19" width="1.83" height="12.77" transform="matrix(0.01, -1, 1, 0.01, 230.64, 381.03)"/><rect class="cls-14" x="104.11" y="74.55" width="0.89" height="1.48" transform="matrix(1, 0.01, -0.01, 1, 1.06, -1.45)"/><rect class="cls-14" x="104.05" y="78.71" width="0.89" height="1.48" transform="matrix(1, 0.01, -0.01, 1, 1.12, -1.45)"/><rect class="cls-14" x="103.99" y="82.84" width="0.89" height="1.48" transform="translate(1.18 -1.45) rotate(0.8)"/><rect class="cls-14" x="103.94" y="87.08" width="0.89" height="1.48" transform="translate(1.24 -1.45) rotate(0.8)"/><rect class="cls-14" x="103.88" y="91.18" width="0.89" height="1.48" transform="translate(1.29 -1.45) rotate(0.8)"/><rect class="cls-14" x="103.82" y="95.48" width="0.89" height="1.48" transform="matrix(1, 0.01, -0.01, 1, 1.35, -1.45)"/><rect class="cls-14" x="103.76" y="99.69" width="0.89" height="1.48" transform="matrix(1, 0.01, -0.01, 1, 1.41, -1.45)"/><rect class="cls-14" x="103.7" y="103.97" width="0.89" height="1.48" transform="translate(1.47 -1.44) rotate(0.8)"/><rect class="cls-14" x="103.64" y="108.11" width="0.89" height="1.48" transform="matrix(1, 0.01, -0.01, 1, 1.53, -1.44)"/><rect class="cls-14" x="103.28" y="112.47" width="1.49" height="1.48" transform="translate(1.59 -1.44) rotate(0.8)"/><rect class="cls-14" x="103.22" y="116.56" width="1.49" height="1.48" transform="translate(1.65 -1.44) rotate(0.8)"/><rect class="cls-14" x="103.16" y="120.89" width="1.49" height="1.48" transform="translate(1.71 -1.44) rotate(0.8)"/><rect class="cls-14" x="103.1" y="125.31" width="1.49" height="1.48" transform="translate(1.77 -1.44) rotate(0.8)"/><rect class="cls-14" x="103.04" y="129.57" width="1.49" height="1.48" transform="translate(1.83 -1.44) rotate(0.8)"/><rect class="cls-14" x="102.98" y="133.65" width="1.49" height="1.48" transform="translate(1.89 -1.44) rotate(0.8)"/><rect class="cls-14" x="102.92" y="137.99" width="1.49" height="1.48" transform="translate(1.95 -1.43) rotate(0.8)"/><rect class="cls-14" x="102.87" y="141.99" width="1.49" height="1.48" transform="translate(2 -1.43) rotate(0.8)"/><rect class="cls-14" x="102.81" y="146.35" width="1.49" height="1.48" transform="translate(2.06 -1.43) rotate(0.8)"/><rect class="cls-14" x="102.75" y="150.69" width="1.49" height="1.48" transform="translate(2.13 -1.43) rotate(0.8)"/><rect class="cls-14" x="102.68" y="155.1" width="1.49" height="1.48" transform="translate(2.19 -1.43) rotate(0.8)"/><rect class="cls-14" x="102.62" y="159.37" width="1.49" height="1.48" transform="translate(2.25 -1.43) rotate(0.8)"/><rect class="cls-14" x="102.57" y="163.45" width="1.49" height="1.48" transform="translate(2.3 -1.43) rotate(0.8)"/><rect class="cls-14" x="102.51" y="167.79" width="1.49" height="1.48" transform="translate(2.36 -1.43) rotate(0.8)"/><rect class="cls-14" x="102.45" y="171.78" width="1.49" height="1.48" transform="translate(2.42 -1.42) rotate(0.8)"/><rect class="cls-14" x="102.39" y="176.05" width="1.49" height="1.48" transform="translate(2.48 -1.42) rotate(0.8)"/><rect class="cls-15" x="114.89" y="70.87" width="1.48" height="9.13" transform="translate(38.58 190) rotate(-89.2)"/><rect class="cls-15" x="120.81" y="69.14" width="1.48" height="21.09" transform="translate(40.17 200.11) rotate(-89.2)"/><rect class="cls-15" x="117.2" y="76.77" width="1.48" height="14" transform="translate(32.53 200.53) rotate(-89.2)"/><rect class="cls-15" x="117.14" y="81.16" width="1.48" height="14" transform="translate(28.08 204.8) rotate(-89.2)"/><rect class="cls-15" x="116.2" y="86.28" width="1.48" height="12.24" transform="translate(22.91 208.04) rotate(-89.2)"/><rect class="cls-15" x="117.64" y="88.8" width="1.48" height="15.24" transform="translate(20.32 213.44) rotate(-89.2)"/><rect class="cls-15" x="116.69" y="93.89" width="1.48" height="13.44" transform="translate(15.18 216.62) rotate(-89.2)"/><rect class="cls-15" x="116.15" y="98.65" width="1.48" height="12.48" transform="matrix(0.01, -1, 1, 0.01, 10.38, 220.3)"/><rect class="cls-15" x="114.01" y="105.1" width="1.48" height="8.32" transform="translate(3.9 222.47) rotate(-89.2)"/><rect class="cls-15" x="111.43" y="111.69" width="1.48" height="3.28" transform="translate(-2.71 223.9) rotate(-89.2)"/><rect class="cls-15" x="114.98" y="112.48" width="1.48" height="10.51" transform="translate(-3.62 231.81) rotate(-89.2)"/><rect class="cls-15" x="114.11" y="117.54" width="1.48" height="8.89" transform="translate(-8.73 235.12) rotate(-89.2)"/><rect class="cls-15" x="113.08" y="122.75" width="1.48" height="6.95" transform="translate(-13.98 238.27) rotate(-89.2)"/><rect class="cls-15" x="114.8" y="125.22" width="1.48" height="10.51" transform="translate(-16.53 244.19) rotate(-89.2)"/><rect class="cls-15" x="114.75" y="129.48" width="1.48" height="10.51" transform="translate(-20.85 248.33) rotate(-89.2)"/><rect class="cls-15" x="113.77" y="134.56" width="1.48" height="8.68" transform="translate(-25.97 251.46) rotate(-89.2)"/><rect class="cls-15" x="113.02" y="139.41" width="1.48" height="7.3" transform="matrix(0.01, -1, 1, 0.01, -30.88, 254.82)"/><rect class="cls-15" x="112.96" y="143.66" width="1.48" height="7.3" transform="translate(-35.18 258.95) rotate(-89.2)"/><rect class="cls-15" x="113.26" y="147.57" width="1.48" height="8.01" transform="translate(-39.15 263.44) rotate(-89.2)"/><rect class="cls-15" x="116.48" y="148.57" width="1.48" height="14.57" transform="translate(-40.26 270.88) rotate(-89.2)"/><rect class="cls-15" x="113.14" y="156.05" width="1.48" height="8.01" transform="translate(-47.75 271.69) rotate(-89.2)"/><rect class="cls-15" x="113.08" y="160.33" width="1.48" height="8.01" transform="translate(-52.09 275.85) rotate(-89.2)"/><rect class="cls-15" x="113.41" y="164.12" width="1.48" height="8.78" transform="matrix(0.01, -1, 1, 0.01, -55.94, 280.29)"/><rect class="cls-15" x="111.48" y="170.14" width="1.48" height="5.04" transform="translate(-61.99 282.46) rotate(-89.2)"/><rect class="cls-15" x="113.73" y="172.11" width="1.48" height="9.66" transform="translate(-64.05 288.93) rotate(-89.2)"/><rect class="cls-14" x="190.72" y="185.44" width="8.4" height="1.51" transform="translate(2.62 -2.7) rotate(0.8)"/><rect class="cls-16" x="138.35" y="183.16" width="4.75" height="4.56" transform="translate(2.6 -1.95) rotate(0.8)"/><rect class="cls-17" x="143.24" y="183.23" width="4.75" height="4.56" transform="translate(2.61 -2.02) rotate(0.8)"/><rect class="cls-17" x="148.13" y="183.3" width="4.75" height="4.56" transform="translate(2.61 -2.08) rotate(0.8)"/><rect class="cls-17" x="172.91" y="183.67" width="8.23" height="4.56" transform="translate(2.61 -2.45) rotate(0.8)"/><rect class="cls-17" x="181.41" y="183.79" width="8.63" height="4.56" transform="translate(2.62 -2.58) rotate(0.8)"/><rect class="cls-14" x="183.19" y="185.31" width="5.48" height="1.51" transform="translate(2.62 -2.58) rotate(0.8)"/><rect class="cls-14" x="174.28" y="185.19" width="5.48" height="1.51" transform="translate(2.61 -2.45) rotate(0.8)"/><rect class="cls-14" x="149.46" y="184.82" width="1.72" height="1.51" transform="translate(2.61 -2.08) rotate(0.8)"/><rect class="cls-17" x="153.1" y="183.36" width="4.75" height="4.56" transform="translate(2.61 -2.15) rotate(0.8)"/><rect class="cls-14" x="154.43" y="184.89" width="1.72" height="1.51" transform="translate(2.61 -2.15) rotate(0.8)"/><rect class="cls-17" x="158.07" y="183.43" width="4.75" height="4.56" transform="translate(2.61 -2.22) rotate(0.8)"/><rect class="cls-14" x="159.4" y="184.95" width="1.72" height="1.51" transform="translate(2.61 -2.22) rotate(0.8)"/><rect class="cls-17" x="163.05" y="183.5" width="4.75" height="4.56" transform="translate(2.61 -2.29) rotate(0.8)"/><rect class="cls-14" x="164.37" y="185.02" width="1.72" height="1.51" transform="translate(2.61 -2.29) rotate(0.8)"/><rect class="cls-17" x="168.02" y="183.57" width="4.75" height="4.56" transform="translate(2.61 -2.36) rotate(0.8)"/><rect class="cls-14" x="169.35" y="185.09" width="1.72" height="1.51" transform="translate(2.61 -2.36) rotate(0.8)"/><rect class="cls-14" x="144.95" y="184.75" width="1.72" height="1.51" transform="translate(2.61 -2.02) rotate(0.8)"/><rect class="cls-14" x="139.92" y="184.68" width="1.72" height="1.51" transform="translate(2.6 -1.95) rotate(0.8)"/><path class="cls-20" d="M308,76.46a1.6,1.6,0,0,0-.05,3.2,1.6,1.6,0,1,0,.05-3.2Zm-.33,2.41-.69-.71.24-.23.46.47,1.07-1,.23.24Z"/><path class="cls-20" d="M307.92,80.71a1.6,1.6,0,1,0,1.58,1.62A1.6,1.6,0,0,0,307.92,80.71Zm-.33,2.42-.69-.72.24-.23.46.48,1.07-1,.23.23Z"/><path class="cls-20" d="M307.86,85a1.6,1.6,0,1,0,1.58,1.62A1.6,1.6,0,0,0,307.86,85Zm-.33,2.42-.69-.71.24-.24.46.48,1.07-1,.23.24Z"/><path class="cls-20" d="M307.8,89.22a1.6,1.6,0,1,0,1.58,1.62A1.59,1.59,0,0,0,307.8,89.22Zm-.33,2.41-.69-.71.24-.23.46.47,1.07-1,.23.24Z"/><path class="cls-20" d="M307.74,93.47a1.6,1.6,0,1,0,1.58,1.62A1.6,1.6,0,0,0,307.74,93.47Zm-.33,2.42-.69-.72.24-.23.46.48,1.07-1,.23.24Z"/><path class="cls-20" d="M307.68,97.72a1.6,1.6,0,1,0,1.58,1.62A1.6,1.6,0,0,0,307.68,97.72Zm-.32,2.42-.7-.72.24-.23.46.48,1.07-1,.23.24Z"/><path class="cls-20" d="M307.62,102a1.6,1.6,0,1,0,1.58,1.62A1.59,1.59,0,0,0,307.62,102Zm-.32,2.41-.7-.71.24-.23.46.47,1.07-1,.23.24Z"/><path class="cls-20" d="M307.56,106.23a1.6,1.6,0,0,0-1.62,1.57,1.6,1.6,0,1,0,1.62-1.57Zm-.32,2.41-.7-.71.24-.23.46.47,1.07-1,.23.24Z"/><path class="cls-20" d="M307.5,110.48a1.6,1.6,0,1,0,1.58,1.62A1.6,1.6,0,0,0,307.5,110.48Zm-.32,2.42-.7-.72.24-.23.46.48,1.07-1,.24.23Z"/><path class="cls-20" d="M307.44,114.73a1.6,1.6,0,1,0,1.58,1.62A1.61,1.61,0,0,0,307.44,114.73Zm-.32,2.42-.7-.71.24-.24.46.48,1.07-1,.24.24Z"/><path class="cls-20" d="M307.39,118.69a1.6,1.6,0,1,0,1.58,1.62A1.6,1.6,0,0,0,307.39,118.69Zm-.33,2.42-.69-.71.24-.24.46.48,1.07-1,.23.24Z"/><path class="cls-20" d="M307.33,123a1.6,1.6,0,1,0,1.58,1.62A1.59,1.59,0,0,0,307.33,123Zm-.33,2.41-.69-.71.24-.23.46.47,1.07-1,.23.24Z"/><path class="cls-20" d="M307.27,127.2a1.6,1.6,0,1,0,1.58,1.62A1.6,1.6,0,0,0,307.27,127.2Zm-.33,2.42-.69-.72.24-.23.46.48,1.07-1,.23.23Z"/><path class="cls-20" d="M307.21,131.45a1.6,1.6,0,1,0,1.58,1.62A1.6,1.6,0,0,0,307.21,131.45Zm-.33,2.42-.69-.72.24-.23.46.48,1.07-1,.23.24Z"/><path class="cls-20" d="M307.15,135.71a1.6,1.6,0,1,0,1.58,1.62A1.59,1.59,0,0,0,307.15,135.71Zm-.33,2.41-.69-.71.24-.23.46.47,1.07-1,.23.24Z"/><path class="cls-20" d="M307.09,140a1.6,1.6,0,1,0,1.58,1.62A1.6,1.6,0,0,0,307.09,140Zm-.32,2.41-.7-.71.24-.23.46.47,1.07-1,.23.24Z"/><path class="cls-20" d="M307,144.21a1.6,1.6,0,1,0,1.58,1.62A1.6,1.6,0,0,0,307,144.21Zm-.32,2.42-.7-.72.24-.23.46.48,1.07-1,.23.23Z"/><path class="cls-20" d="M307,148.46a1.6,1.6,0,1,0,1.58,1.62A1.6,1.6,0,0,0,307,148.46Zm-.32,2.42-.7-.71.24-.24.46.48,1.07-1,.23.24Z"/><path class="cls-20" d="M306.91,152.72a1.6,1.6,0,1,0,1.58,1.62A1.6,1.6,0,0,0,306.91,152.72Zm-.32,2.41-.7-.71.24-.23.46.47,1.07-1,.24.24Z"/><path class="cls-20" d="M306.85,157a1.6,1.6,0,1,0,1.58,1.62A1.6,1.6,0,0,0,306.85,157Zm-.32,2.42-.7-.72.24-.23.46.48,1.07-1,.24.23Z"/><path class="cls-20" d="M306.8,161a1.6,1.6,0,1,0,1.57,1.62A1.59,1.59,0,0,0,306.8,161Zm-.33,2.41-.69-.71.23-.23.47.47,1.07-1,.23.24Z"/><path class="cls-20" d="M306.74,165.28a1.6,1.6,0,1,0,1.57,1.62A1.6,1.6,0,0,0,306.74,165.28Zm-.33,2.42-.69-.72.24-.23.46.48,1.07-1,.23.24Z"/><path class="cls-20" d="M306.68,169.53a1.6,1.6,0,1,0,1.58,1.62A1.6,1.6,0,0,0,306.68,169.53Zm-.33,2.42-.69-.72.24-.23.46.48,1.07-1,.23.24Z"/><path class="cls-20" d="M306.62,173.78a1.6,1.6,0,1,0,1.58,1.63A1.6,1.6,0,0,0,306.62,173.78Zm-.33,2.42-.69-.71.24-.23.46.47,1.07-1,.23.24Z"/><path class="cls-20" d="M306.56,178a1.6,1.6,0,1,0,1.58,1.62A1.6,1.6,0,0,0,306.56,178Zm-.33,2.41-.69-.71.24-.23.46.47,1.07-1,.23.24Z"/></g></g></svg>