<svg xmlns="http://www.w3.org/2000/svg" width="30.995" height="36.147" viewBox="0 0 30.995 36.147">
  <path id="Icon_awesome-android" data-name="Icon awesome-android" d="M6.9,16.174v9.347a2.212,2.212,0,0,1-2.22,2.236,2.409,2.409,0,0,1-2.43-2.236V16.174a2.408,2.408,0,0,1,2.43-2.22A2.229,2.229,0,0,1,6.9,16.174Zm.872,12.673a2.384,2.384,0,0,0,2.389,2.389h1.606l.024,4.932a2.228,2.228,0,0,0,4.456,0V31.236h3v4.932a2.24,2.24,0,0,0,4.48,0V31.236h1.63a2.38,2.38,0,0,0,2.373-2.389V14.366H7.771V28.847ZM27.789,13.583H7.682A9.072,9.072,0,0,1,12.816,5.56L11.274,2.711a.311.311,0,1,1,.541-.307l1.566,2.874a10.905,10.905,0,0,1,8.742,0L23.68,2.412a.311.311,0,1,1,.541.307L22.679,5.56a9.093,9.093,0,0,1,5.109,8.023ZM14.01,9.1a.847.847,0,0,0-.848-.848.848.848,0,0,0,0,1.7A.847.847,0,0,0,14.01,9.1Zm9.153,0a.836.836,0,1,0-.823.848A.843.843,0,0,0,23.164,9.1Zm7.652,4.851a2.213,2.213,0,0,0-2.22,2.22v9.347a2.227,2.227,0,0,0,2.22,2.236,2.4,2.4,0,0,0,2.43-2.236V16.174A2.39,2.39,0,0,0,30.816,13.955Z" transform="translate(-2.25 -2.245)" fill="#927ad5"/>
</svg>
