<svg xmlns="http://www.w3.org/2000/svg" width="29.817" height="35.482" viewBox="0 0 29.817 35.482">
  <path id="Icon_awesome-apple" data-name="Icon awesome-apple" d="M25.211,21a7.4,7.4,0,0,1,3.961-6.718,8.511,8.511,0,0,0-6.71-3.533c-2.812-.222-5.886,1.64-7.011,1.64-1.188,0-3.913-1.561-6.052-1.561C4.979,10.9.281,14.354.281,21.381a19.744,19.744,0,0,0,1.141,6.432C2.436,30.72,6.1,37.85,9.914,37.731c2-.048,3.406-1.418,6-1.418,2.519,0,3.826,1.418,6.052,1.418,3.85-.055,7.161-6.535,8.128-9.451A7.853,7.853,0,0,1,25.211,21ZM20.727,7.993a7.461,7.461,0,0,0,1.9-5.743,8.4,8.4,0,0,0-5.379,2.765,7.578,7.578,0,0,0-2.028,5.7,6.653,6.653,0,0,0,5.506-2.717Z" transform="translate(-0.281 -2.25)" fill="#927ad5"/>
</svg>
