<svg xmlns="http://www.w3.org/2000/svg" viewBox="0 0 36.45 51.57"><defs><style>.cls-1{fill:#d8d7b6;}.cls-2{fill:#f4f4e6;}.cls-3{fill:#7d8d9c;}.cls-4{fill:#a9d39f;}.cls-5{fill:#78a36c;}.cls-6{fill:#394d5c;}.cls-7{fill:#87cee9;}</style></defs><title>Asset 27</title><g id="Layer_2" data-name="Layer 2"><g id="Layer_1-2" data-name="Layer 1"><path class="cls-1" d="M32,0a3.56,3.56,0,0,0-3.56,3.56V25.78h7.11V3.56A3.55,3.55,0,0,0,32,0Z"/><path class="cls-2" d="M3.56,0A3.56,3.56,0,0,0,0,3.56v48H28.45v-48A3.56,3.56,0,0,1,32,0Z"/><rect class="cls-3" x="12.45" y="9.78" width="8.89" height="1.78"/><rect class="cls-3" x="12.45" y="13.34" width="1.78" height="1.78"/><rect class="cls-3" x="16" y="13.34" width="5.33" height="1.78"/><rect class="cls-3" x="12.45" y="16.89" width="10.67" height="1.78"/><rect class="cls-3" x="12.45" y="21.34" width="8.89" height="1.78"/><rect class="cls-3" x="12.45" y="24.89" width="1.78" height="1.78"/><rect class="cls-3" x="16" y="24.89" width="5.33" height="1.78"/><rect class="cls-3" x="12.45" y="28.45" width="10.67" height="1.78"/><path class="cls-4" d="M8,18.67a1.78,1.78,0,1,1-1.78-1.78A1.78,1.78,0,0,1,8,18.67Z"/><path class="cls-4" d="M8,25.78A1.78,1.78,0,1,1,6.22,24,1.78,1.78,0,0,1,8,25.78Z"/><path class="cls-4" d="M8,46.23a1.78,1.78,0,1,1-1.78-1.78A1.78,1.78,0,0,1,8,46.23Z"/><path class="cls-5" d="M6.22,34.67a.89.89,0,0,1-.63-.26L3.82,32.63l1.25-1.25,1.15,1.15L9.15,29.6l1.26,1.26L6.85,34.41a.86.86,0,0,1-.63.26Z"/><path class="cls-4" d="M8,39.12a1.78,1.78,0,1,1-1.78-1.78A1.78,1.78,0,0,1,8,39.12Z"/><path class="cls-5" d="M6.22,14.22A.89.89,0,0,1,5.59,14L3.82,12.19l1.25-1.26,1.15,1.15L9.15,9.15l1.26,1.26L6.85,14a.86.86,0,0,1-.63.26Z"/><rect class="cls-3" x="12.45" y="32.01" width="1.78" height="1.78"/><rect class="cls-3" x="16" y="32.01" width="8.89" height="1.78"/><rect class="cls-3" x="12.45" y="35.56" width="9.78" height="1.78"/><rect class="cls-3" x="12.45" y="39.12" width="9.78" height="1.78"/><rect class="cls-3" x="12.45" y="42.67" width="12.45" height="1.78"/><rect class="cls-3" x="12.45" y="46.23" width="12.45" height="1.78"/><rect class="cls-6" x="4.45" y="2.67" width="1.78" height="1.78"/><rect class="cls-6" x="8" y="2.67" width="14.22" height="1.78"/><rect class="cls-6" x="4.45" y="6.22" width="14.22" height="1.78"/><rect class="cls-7" x="31.12" y="28.45" width="1.78" height="12.45"/><rect class="cls-7" x="34.67" y="34.67" width="1.78" height="13.34"/><rect class="cls-7" x="31.12" y="42.67" width="1.78" height="1.78"/></g></g></svg>