<svg xmlns="http://www.w3.org/2000/svg" viewBox="0 0 48.32 48.42"><defs><style>.cls-1{fill:#84dbff;}.cls-2{fill:#54c0eb;}.cls-3{fill:#4cdbc4;}.cls-4{fill:#ff7058;}</style></defs><title>Asset 30</title><g id="Layer_2" data-name="Layer 2"><g id="Layer_1-2" data-name="Layer 1"><path class="cls-1" d="M32.41,13.59A15,15,0,0,0,31,10.07l1.2-2.82L28,3.12,25.17,4.33a13.37,13.37,0,0,0-3.53-1.41L20.64,0H14.7L13.59,2.92a14.64,14.64,0,0,0-3.52,1.41L7.25,3.12,3.12,7.25l1.21,2.82a13.17,13.17,0,0,0-1.41,3.52L0,14.7v5.94l2.92,1.1a14.88,14.88,0,0,0,1.41,3.53L3.12,28.09l4.23,4.12L10.17,31a13.49,13.49,0,0,0,3.52,1.4l1.11,2.92h5.84l1.1-2.92A15.28,15.28,0,0,0,25.27,31l2.82,1.2,4.22-4.12-1.2-2.82a14.08,14.08,0,0,0,1.41-3.53l2.91-1.1V14.7ZM17.62,24.86a7.25,7.25,0,1,1,7.24-7.24A7.21,7.21,0,0,1,17.62,24.86Z"/><path class="cls-2" d="M22.75,22.75a7.17,7.17,0,0,1-10.17,0L10,25.37A10.89,10.89,0,0,0,25.37,10l-2.62,2.61A7.17,7.17,0,0,1,22.75,22.75Z"/><path class="cls-2" d="M10,10a10.93,10.93,0,0,0,0,15.4l2.61-2.62A7.19,7.19,0,0,1,22.75,12.58L25.37,10A10.93,10.93,0,0,0,10,10Z"/><path class="cls-3" d="M34.13,41.27a4.91,4.91,0,0,0,0-1.71l1-1-1-2.52H32.72a15.34,15.34,0,0,0-1.21-1.21V33.42l-2.52-1-1,1a5,5,0,0,0-1.72,0l-1-1-2.52,1v1.41A15.33,15.33,0,0,0,21.54,36H20.13l-1,2.52,1,1a4.91,4.91,0,0,0,0,1.71l-1,1,1,2.52h1.41A13.75,13.75,0,0,0,22.75,46v1.41l2.52,1,1-1a5,5,0,0,0,1.72,0l1,1,2.52-1V46a15.13,15.13,0,0,0,1.21-1.2h1.41l1-2.52Zm-8.06,2.12a3.25,3.25,0,1,1,4.23-1.81A3.23,3.23,0,0,1,26.07,43.39Z"/><path class="cls-4" d="M47.31,28.09a5,5,0,0,0,0-1.72l1-1-1-2.52H45.9a15.13,15.13,0,0,0-1.2-1.21V20.23l-2.52-1-1,1a4.91,4.91,0,0,0-1.71,0l-1-1-2.51,1v1.41a15.34,15.34,0,0,0-1.21,1.21H33.32l-1,2.52,1,1a5,5,0,0,0,0,1.72l-1,1,1,2.52h1.41a15.33,15.33,0,0,0,1.21,1.21v1.41l2.51,1,1-1a4.91,4.91,0,0,0,1.71,0l1,1,2.52-1V32.82a13.75,13.75,0,0,0,1.2-1.21h1.41l1-2.52ZM39.16,30.3a3.25,3.25,0,1,1,4.23-1.81A3.15,3.15,0,0,1,39.16,30.3Z"/></g></g></svg>