<svg xmlns="http://www.w3.org/2000/svg" viewBox="0 0 49.09 49.09"><defs><style>.cls-1{fill:#c7cad3;}.cls-2{fill:#67cbf5;}.cls-3{fill:#99ddf8;}.cls-4{fill:#bfa735;}.cls-5{fill:#ffdf47;}.cls-6{fill:#bf777b;}.cls-7{fill:#ff9ea4;}.cls-8{fill:#95989e;}.cls-9{fill:#64656a;}.cls-10{fill:#d2d5dc;}</style></defs><title>Asset 29</title><g id="Layer_2" data-name="Layer 2"><g id="Layer_1-2" data-name="Layer 1"><path class="cls-1" d="M47.45,42.54H1.64V18a1.63,1.63,0,0,1,1.63-1.64H45.81A1.63,1.63,0,0,1,47.45,18Z"/><rect class="cls-2" x="4.91" y="19.63" width="39.27" height="19.63"/><rect class="cls-3" x="4.91" y="19.63" width="36.81" height="19.63"/><rect class="cls-4" x="15.54" width="21.27" height="27.82"/><rect class="cls-5" x="15.54" width="18.82" height="27.82"/><rect class="cls-6" x="12.27" y="3.27" width="21.27" height="27.82"/><rect class="cls-7" x="12.27" y="3.27" width="18.82" height="27.82"/><polyline class="cls-1" points="12.27 7.36 17.18 7.36 17.18 10.63 12.27 10.63"/><path class="cls-8" d="M23.72,9.82l1.64,1.63h4.91V6.54H25.36L23.72,8.18Z"/><path class="cls-1" d="M25.36,6.54,23.72,8.18V9.82l1.64,1.63h2.46V6.54Z"/><path class="cls-9" d="M45.81,49.09H3.27A3.28,3.28,0,0,1,0,45.81V42.54H49.09v3.27a3.28,3.28,0,0,1-3.28,3.28Z"/><path class="cls-8" d="M46.63,45.81V42.54H0v3.27a3.28,3.28,0,0,0,3.27,3.28H43.36a3.27,3.27,0,0,0,3.27-3.28Z"/><path class="cls-1" d="M14.73,42.54v1.64a1.63,1.63,0,0,0,1.63,1.63H32.72a1.63,1.63,0,0,0,1.64-1.63V42.54"/><path class="cls-10" d="M31.91,44.18V42.54H14.73v1.64a1.63,1.63,0,0,0,1.63,1.63H30.27a1.64,1.64,0,0,0,1.64-1.63Z"/><rect class="cls-8" x="17.18" y="8.18" width="6.54" height="1.64"/><rect class="cls-8" x="14.73" y="13.91" width="16.36" height="1.64"/><rect class="cls-8" x="16.36" y="17.18" width="13.09" height="1.64"/><rect class="cls-8" x="14.73" y="20.45" width="16.36" height="1.64"/><path class="cls-8" d="M18,28.63a.82.82,0,0,1-.58-.24l-1.64-1.63,1.16-1.16L18,26.66,20.69,24l1.16,1.16-3.27,3.27a.82.82,0,0,1-.58.24Z"/><path class="cls-8" d="M26.18,28.63a.82.82,0,0,1-.58-.24L24,26.76l1.16-1.16,1.06,1.06L28.87,24,30,25.12l-3.27,3.27a.82.82,0,0,1-.58.24Z"/></g></g></svg>