<svg xmlns="http://www.w3.org/2000/svg" xmlns:xlink="http://www.w3.org/1999/xlink" viewBox="0 0 45.4 45.99"><defs><style>.cls-1{fill:none;}.cls-2{clip-path:url(#clip-path);}.cls-3{fill:#3abca7;}.cls-4{fill:#fff;}.cls-5{fill:#eddcc7;}.cls-6{fill:#d75a4a;}.cls-7{fill:#f29c21;}.cls-8{fill:#d6c4b1;}.cls-9{fill:#a34740;}.cls-10{fill:#e18c25;}.cls-11{fill:#5e5e5e;}</style><clipPath id="clip-path"><rect class="cls-1" y="0.07" width="45.93" height="46.93"/></clipPath></defs><title>Asset 26</title><g id="Layer_2" data-name="Layer 2"><g id="Layer_1-2" data-name="Layer 1"><g class="cls-2"><path class="cls-3" d="M36.5,43.5H7a7,7,0,0,1-7-7V7A7,7,0,0,1,7,0H36.5a7,7,0,0,1,7,7V36.5a7,7,0,0,1-7,7Z"/></g><path class="cls-4" d="M36.81,11.71H21.75a.84.84,0,1,1,0-1.67H36.81a.84.84,0,0,1,0,1.67Z"/><path class="cls-4" d="M36.81,23.42H21.75a.84.84,0,1,1,0-1.67H36.81a.84.84,0,0,1,0,1.67Z"/><path class="cls-4" d="M36.81,35.14H21.75a.84.84,0,0,1,0-1.68H36.81a.84.84,0,0,1,0,1.68Z"/><path class="cls-4" d="M10.1,14.22a.83.83,0,0,1-.5-.16L5.77,11.18A.83.83,0,0,1,5.6,10a.84.84,0,0,1,1.18-.17L10,12.25l5.23-6.1a.84.84,0,1,1,1.27,1.09l-5.74,6.69a.83.83,0,0,1-.63.29Z"/><path class="cls-4" d="M10.1,25.93a.83.83,0,0,1-.5-.16L5.77,22.9a.84.84,0,1,1,1-1.34L10,24l5.23-6.1A.84.84,0,1,1,16.47,19l-5.74,6.69a.83.83,0,0,1-.63.29Z"/><path class="cls-4" d="M10.1,38.48a.84.84,0,0,1-.5-.17L5.77,35.44a.83.83,0,0,1-.17-1.16.84.84,0,0,1,1.18-.17L10,36.5l5.23-6.09a.82.82,0,0,1,1.18-.09.84.84,0,0,1,.09,1.18l-5.74,6.69a.83.83,0,0,1-.63.29Z"/><path class="cls-5" d="M27.47,38.05h0l-1.66,6.1,3.89-3.89Z"/><path class="cls-6" d="M43.57,26.38l-1-1a1.66,1.66,0,0,0-2.35,0l-3,3,2.22,2.22Z"/><path class="cls-7" d="M37.18,28.34l2.22,2.21-9.71,9.72-2.22-2.22Z"/><path class="cls-8" d="M32.2,42.79h0l-2.51-2.51L25.8,44.16l-.11.41Z"/><path class="cls-9" d="M41.92,33.07l3-3a1.66,1.66,0,0,0,0-2.35l-1.34-1.34L39.4,30.56Z"/><path class="cls-10" d="M32.2,42.79l-2.51-2.52,9.71-9.71,2.52,2.51Z"/><path class="cls-11" d="M25.1,46a.86.86,0,0,1-.6-.24.85.85,0,0,1,0-1.18l1.85-1.85a.83.83,0,0,1,1.18,1.18l-1.84,1.85a.84.84,0,0,1-.59.24Z"/></g></g></svg>