<svg xmlns="http://www.w3.org/2000/svg" viewBox="0 0 45.13 53.47"><defs><style>.cls-1{fill:#49b9de;}.cls-2{fill:#4296bd;}.cls-3{fill:#e1e2ec;}.cls-4{fill:#f6d45a;}.cls-5{fill:#f2a83b;}</style></defs><title>Asset 25</title><g id="Layer_2" data-name="Layer 2"><g id="Layer_1-2" data-name="Layer 1"><path class="cls-1" d="M32.59,25.06h-.28a4.92,4.92,0,0,0,.28-1.67,5,5,0,0,0-5-5,4.78,4.78,0,0,0-1.59.26,6.68,6.68,0,0,0-12.62,3.08,6.45,6.45,0,0,0,.22,1.7,5.85,5.85,0,0,0,.62,11.67H32.59a5,5,0,1,0,0-10Z"/><path class="cls-2" d="M33.43,33.42H15a5.84,5.84,0,0,1-5.58-7.59,5.85,5.85,0,0,0,4.75,9.26H32.59a5,5,0,0,0,4.83-3.65A5,5,0,0,1,33.43,33.42Z"/><path class="cls-3" d="M19.22,28.41h-.1a.84.84,0,0,1,0-1.68h.1a.84.84,0,0,1,0,1.68Z"/><path class="cls-3" d="M22.56,28.41h-.1a.84.84,0,0,1,0-1.68h.1a.84.84,0,0,1,0,1.68Z"/><path class="cls-3" d="M25.91,28.41H25.8a.84.84,0,0,1,0-1.68h.11a.84.84,0,0,1,0,1.68Z"/><path class="cls-4" d="M42,15.29a22.73,22.73,0,0,0-8.17-8.1A2.44,2.44,0,0,0,32,6.94,2.49,2.49,0,0,0,30.42,8.1a2.54,2.54,0,0,0,.92,3.43,17.55,17.55,0,0,1-4,32.08,2.42,2.42,0,0,0,.21-1,2.46,2.46,0,0,0-.74-1.77,2.52,2.52,0,0,0-3.54,0L19.12,45a2.52,2.52,0,0,0,0,3.54l4.18,4.18a2.52,2.52,0,0,0,3.54,0,2.49,2.49,0,0,0,0-3.54l-.25-.26A22.58,22.58,0,0,0,42,15.29Z"/><path class="cls-5" d="M21.83,12.63,26,8.45A2.51,2.51,0,0,0,26,4.9L21.83.72a2.55,2.55,0,0,0-3.55,0,2.53,2.53,0,0,0-.73,1.78,2.49,2.49,0,0,0,.73,1.77l.26.26a22.57,22.57,0,0,0-7.26,41.75,2.51,2.51,0,1,0,2.51-4.34,17.56,17.56,0,0,1,4-32.09,2.52,2.52,0,0,0,.52,2.78A2.55,2.55,0,0,0,21.83,12.63Z"/></g></g></svg>