<svg xmlns="http://www.w3.org/2000/svg" xmlns:xlink="http://www.w3.org/1999/xlink" viewBox="0 0 58.44 52.78"><defs><style>.cls-1{fill:none;}.cls-2{clip-path:url(#clip-path);}.cls-3{fill:#f4bc8e;}.cls-4{fill:#efa66f;}.cls-5{fill:#fbdbb7;}.cls-6{fill:#f1eded;}.cls-7{fill:#82807f;}.cls-8{fill:#fc4830;}.cls-9{fill:#00df97;}.cls-10{fill:#fab03c;}</style><clipPath id="clip-path" transform="translate(0)"><rect class="cls-1" width="58.44" height="52.84"/></clipPath></defs><title>Asset 28</title><g id="Layer_2" data-name="Layer 2"><g id="Layer_1-2" data-name="Layer 1"><g class="cls-2"><path class="cls-3" d="M56.21,5.64A7,7,0,0,0,49.34,0H41.11V7h14a1.14,1.14,0,0,0,1.12-1.35Z" transform="translate(0)"/><path class="cls-4" d="M45.78,5.65A1.14,1.14,0,0,0,46.9,7H41.12V0h8.23A7.45,7.45,0,0,1,51,.19a7,7,0,0,0-5.21,5.46Z" transform="translate(0)"/></g><path class="cls-5" d="M49.43,0a7,7,0,0,0-7,7l0,24.14a1.14,1.14,0,0,1-.33.8L39.68,34.4a1.13,1.13,0,0,0,0,1.6l2.45,2.45a1.14,1.14,0,0,1,.33.8v6.51a7,7,0,0,1-7,7l-24.06,0,0-12.9a1,1,0,0,1,.26-.68l.81-.89a1,1,0,0,0-.4-1.62,1,1,0,0,1-.68-.95V7a7,7,0,0,1,7-7Z" transform="translate(0)"/><g class="cls-2"><path class="cls-3" d="M49.43,0a7,7,0,0,0-7,7l0,24.14a1.14,1.14,0,0,1-.33.8L39.68,34.4a1.13,1.13,0,0,0,0,1.6l2.45,2.45a1.14,1.14,0,0,1,.33.8v6.51a7,7,0,0,1-7,7H33.17a7,7,0,0,0,7-7V39.25a1.09,1.09,0,0,0-.33-.8L37.37,36a1.13,1.13,0,0,1,0-1.6L39.82,32a1.18,1.18,0,0,0,.33-.81L40.13,7a7,7,0,0,1,7-7Z" transform="translate(0)"/><path class="cls-3" d="M27.43,45.77a1.13,1.13,0,0,1,1.13,1,7,7,0,0,0,6.93,6l-28.6,0A7,7,0,0,1,0,47.14a1.14,1.14,0,0,1,1.12-1.35Z" transform="translate(0)"/></g><path class="cls-6" d="M52.24,31.8A12.73,12.73,0,1,1,39.52,19.08,12.72,12.72,0,0,1,52.24,31.8Z" transform="translate(0)"/><path class="cls-7" d="M42.92,32.68H40.31a.88.88,0,0,1,0-1.76h2.61a.88.88,0,0,1,0,1.76Z" transform="translate(0)"/><path class="cls-7" d="M39.52,31.83a.89.89,0,0,1-.89-.88V25.81a.89.89,0,0,1,1.77,0V31a.89.89,0,0,1-.88.88Z" transform="translate(0)"/><path class="cls-8" d="M41,31.8a1.5,1.5,0,1,1-1.49-1.5A1.5,1.5,0,0,1,41,31.8Z" transform="translate(0)"/><path class="cls-9" d="M39.52,24a.88.88,0,0,1-.89-.88v-1a.89.89,0,0,1,1.77,0v1a.88.88,0,0,1-.88.88Z" transform="translate(0)"/><path class="cls-9" d="M39.52,41.8a.89.89,0,0,1-.89-.88v-1a.89.89,0,0,1,1.77,0v1a.89.89,0,0,1-.88.88Z" transform="translate(0)"/><path class="cls-9" d="M48.91,32.4h-1a.88.88,0,1,1,0-1.76h1a.88.88,0,1,1,0,1.76Z" transform="translate(0)"/><path class="cls-9" d="M31.13,32.4h-1a.88.88,0,1,1,0-1.76h1a.88.88,0,0,1,0,1.76Z" transform="translate(0)"/><path class="cls-9" d="M45.45,26.47A.89.89,0,0,1,44.83,25l.71-.71a.88.88,0,0,1,1.24,1.25l-.71.71a.89.89,0,0,1-.62.26Z" transform="translate(0)"/><path class="cls-9" d="M32.87,39.05a.89.89,0,0,1-.62-.26.88.88,0,0,1,0-1.25l.71-.71a.88.88,0,0,1,1.25,1.25l-.71.71a.91.91,0,0,1-.63.26Z" transform="translate(0)"/><path class="cls-9" d="M46.16,39.05a.89.89,0,0,1-.62-.26l-.71-.71a.88.88,0,0,1,1.24-1.25l.71.71a.89.89,0,0,1-.62,1.51Z" transform="translate(0)"/><path class="cls-9" d="M33.58,26.47a.89.89,0,0,1-.62-.26l-.71-.71a.88.88,0,0,1,0-1.25.89.89,0,0,1,1.25,0l.71.71a.89.89,0,0,1-.63,1.51Z" transform="translate(0)"/><path class="cls-9" d="M39.46,12.82A19,19,0,0,0,20.53,30.47l-.22-.22A1.94,1.94,0,0,0,17.56,33l3.5,3.5a1.91,1.91,0,0,0,1.37.57,1.94,1.94,0,0,0,1.38-.57l3.5-3.5a1.94,1.94,0,0,0-2.75-2.75l-.13.13a15.09,15.09,0,1,1,15,16.51,1.95,1.95,0,1,0,0,3.89,19,19,0,0,0,0-38Z" transform="translate(0)"/><path class="cls-10" d="M19.86,12.86H17a.88.88,0,0,1-.88-.89V8.72A.87.87,0,0,1,17,7.84h2.87a.87.87,0,0,1,.88.88V12a.88.88,0,0,1-.88.89Zm-2-1.77H19V9.6H17.87Z" transform="translate(0)"/><path class="cls-10" d="M18.71,18.81a.92.92,0,0,1-.66-.3l-1.11-1.26A.89.89,0,0,1,17,16a.91.91,0,0,1,.82-.19V15.4a.89.89,0,0,1,1.77,0v2.53a.89.89,0,0,1-.57.82.87.87,0,0,1-.32.06Z" transform="translate(0)"/><path class="cls-10" d="M18.19,24.61a.88.88,0,0,1-.88-.88V21.44a.89.89,0,1,1,1.77,0v2.29a.88.88,0,0,1-.89.88Z" transform="translate(0)"/><path class="cls-10" d="M24.45,13.43a.89.89,0,0,1-.88-.89v-4a.88.88,0,0,1,.88-.88h3.7a.87.87,0,0,1,.88.88v2.74a.87.87,0,0,1-.88.88H26.63a.88.88,0,1,1,0-1.76h.64v-1H25.34v3.14a.89.89,0,0,1-.89.89Z" transform="translate(0)"/></g></g></svg>