<svg xmlns="http://www.w3.org/2000/svg" viewBox="0 0 350 250"><defs><style>.cls-1{fill:#fc6e51;}.cls-2{fill:#e9573f;}.cls-3{fill:#f5f7fa;}.cls-4{fill:#434a54;}.cls-5{fill:#ccd1d9;}.cls-6{fill:none;}</style></defs><title>Asset 7</title><g id="Layer_2" data-name="Layer 2"><g id="Layer_1-2" data-name="Layer 1"><rect class="cls-1" x="67.95" y="23.03" width="214.05" height="196.22"/><path class="cls-2" d="M85.79,219.24H282v-8.92h-8.92V192.49H282v-8.93H241.87V165.73H282v-8.92h-8.92V139H282v-8.93H241.87V112.22H282V103.3h-8.92V85.46H282V76.54H241.87V58.71H282V49.78h-8.92V32H282V23H68V32h8.92V49.78H68v8.93h40.14V76.54H68v8.92h8.92V103.3H68v8.92h40.14v17.83H68V139h8.92v17.84H68v8.92h40.14v17.83H68v8.93h8.92v17.83H68v8.92H85.79Zm53.51-35.68H117V165.73h53.52v17.83H139.3Zm40.14-53.51V112.22h53.5v17.83h-53.5ZM201.73,139v17.83H148.22V139h53.51Zm0-35.68H148.22V85.46h53.51Zm-31.21,8.92v17.83H117V112.22h53.52Zm31.21,98.1H148.22V192.49h53.51Zm0-26.76H179.44V165.73h53.5v17.83H201.73Zm62.42,8.93v17.83h-53.5V192.49h53.5Zm0-53.51v17.83h-53.5V139h53.5Zm0-53.52V103.3h-53.5V85.46h53.5ZM210.65,32h53.5V49.78h-53.5Zm0,26.76h22.29V76.54h-53.5V58.71h31.21ZM148.22,32h53.51V49.78H148.22ZM139.3,58.71h31.22V76.54H117V58.71ZM85.79,49.78V32H139.3V49.78H85.79Zm0,53.52V85.46H139.3V103.3H85.79Zm0,53.51V139H139.3v17.83H85.79Zm0,35.68H139.3v17.83H85.79Z"/><path class="cls-3" d="M209.88,40.87H108.08V201.4H241.86V72.85l-2.61-2.61L212.5,43.48l-2.62-2.61Z"/><polygon class="cls-2" points="130.38 130.05 152.57 94.38 174.76 130.05 130.38 130.05"/><polygon class="cls-1" points="157.06 130.05 188.31 76.54 219.56 130.05 157.06 130.05"/><path class="cls-4" d="M188.35,174.65H152.68a4.46,4.46,0,0,1,0-8.92h35.67a4.46,4.46,0,0,1,0,8.92Z"/><path class="cls-4" d="M206.19,156.81H134.84a4.46,4.46,0,0,1,0-8.92h71.35a4.46,4.46,0,1,1,0,8.92Z"/><polygon class="cls-5" points="209.88 40.87 209.88 72.85 241.87 72.85 209.88 40.87"/><rect class="cls-6" width="350" height="250"/></g></g></svg>