<svg xmlns="http://www.w3.org/2000/svg" viewBox="0 0 350 250"><defs><style>.cls-1{fill:#269bd8;}.cls-2{fill:#0d529e;}.cls-3{fill:#90d1f3;}.cls-4{fill:#fcbf29;}.cls-5{fill:#e97424;}.cls-5,.cls-6{opacity:0.5;isolation:isolate;}.cls-6{fill:#f28d01;}.cls-7{fill:#591e00;}.cls-8{fill:#fff;}.cls-9{fill:none;}</style></defs><title>Asset 8</title><g id="Layer_2" data-name="Layer 2"><g id="Layer_1-2" data-name="Layer 1"><polygon class="cls-1" points="280.13 19.86 149.62 19.86 200.38 56.12 200.38 193.88 280.13 193.88 280.13 19.86"/><polygon class="cls-2" points="149.62 19.86 149.62 56.12 200.38 56.12 149.62 19.86"/><rect class="cls-3" x="69.86" y="56.12" width="130.51" height="174.02"/><rect class="cls-4" x="87.99" y="183.01" width="29" height="29"/><path class="cls-5" d="M88,212V183h7.25c0,16,5.74,29,21.75,29Z"/><rect class="cls-4" x="218.5" y="125" width="43.5" height="21.75"/><path class="cls-6" d="M218.5,146.75V125h16.32c0,12,4.3,21.75,16.31,21.75Z"/><rect class="cls-4" x="218.5" y="37.99" width="43.5" height="21.75"/><path class="cls-6" d="M218.5,59.74V38h16.32c0,12,4.3,21.75,16.31,21.75Z"/><path class="cls-4" d="M149.62,103.25V92.09a29,29,0,1,0-29,0v11.16Z"/><rect class="cls-7" x="120.62" y="103.25" width="29" height="14.5"/><rect class="cls-2" x="120.62" y="117.75" width="14.5" height="25.38"/><path class="cls-6" d="M146,85.12a29,29,0,0,1-25.2-43.33,29,29,0,0,0-.18,50.3v11.16h29V92.09A29.24,29.24,0,0,0,160.3,81.33,28.83,28.83,0,0,1,146,85.12Z"/><rect class="cls-1" x="135.12" y="117.75" width="14.5" height="25.38"/><polygon class="cls-8" points="120.62 143.13 149.62 143.13 135.12 161.25 120.62 143.13"/><rect class="cls-8" x="131.5" y="77.87" width="7.25" height="25.38"/><path class="cls-8" d="M135.12,81.5a3.59,3.59,0,0,1-2.56-1.07L121.68,69.56l5.13-5.13,8.31,8.31,8.31-8.31,5.13,5.13L137.68,80.43A3.57,3.57,0,0,1,135.12,81.5Z"/><rect class="cls-7" x="214.88" y="70.62" width="7.25" height="7.25"/><rect class="cls-7" x="229.38" y="70.62" width="36.25" height="7.25"/><rect class="cls-7" x="214.88" y="85.12" width="50.76" height="7.25"/><rect class="cls-7" x="214.88" y="99.62" width="50.76" height="7.25"/><rect class="cls-7" x="214.88" y="157.63" width="7.25" height="7.25"/><rect class="cls-7" x="229.38" y="157.63" width="36.25" height="7.25"/><rect class="cls-7" x="214.88" y="172.13" width="50.76" height="7.25"/><rect class="cls-7" x="127.87" y="179.38" width="7.25" height="7.25"/><rect class="cls-7" x="142.37" y="179.38" width="43.5" height="7.25"/><rect class="cls-7" x="127.87" y="193.88" width="58.01" height="7.25"/><rect class="cls-7" x="127.87" y="208.38" width="58.01" height="7.25"/><rect class="cls-9" width="350" height="250"/></g></g></svg>