<svg xmlns="http://www.w3.org/2000/svg" xmlns:xlink="http://www.w3.org/1999/xlink" viewBox="0 0 350 250"><defs><style>.cls-1,.cls-13{fill:none;}.cls-2{clip-path:url(#clip-path);}.cls-3{fill:#ffe470;}.cls-4{fill:#ffb64c;}.cls-5{fill:#57555c;}.cls-6{fill:#ffa721;}.cls-7{fill:#ff8503;}.cls-8{fill:#3a3a41;}.cls-9{fill:#dedee0;}.cls-10{fill:#c5c3cb;}.cls-11{fill:#88868f;}.cls-12{fill:#78777f;}.cls-13{stroke:#3a3a3a;stroke-miterlimit:10;}</style><clipPath id="clip-path"><rect class="cls-1" width="350" height="250"/></clipPath></defs><title>Asset 6</title><g id="Layer_2" data-name="Layer 2"><g id="Layer_1-2" data-name="Layer 1"><g class="cls-2"><path class="cls-3" d="M296.05,205,64.31,218.74a13.72,13.72,0,0,1-14.5-12.89L41.07,58.64A13.72,13.72,0,0,1,54,44.13L285.69,30.38a13.71,13.71,0,0,1,14.5,12.88l8.74,147.22A13.72,13.72,0,0,1,296.05,205Z"/><path class="cls-4" d="M169.82,37.26l115.87-6.88a13.71,13.71,0,0,1,14.5,12.88l8.74,147.22A13.72,13.72,0,0,1,296.05,205l-115.87,6.87Z"/><path class="cls-5" d="M130,214.84l-42.32,2.51L82.54,162.8l46.08-2.73Z"/><rect class="cls-6" x="152.08" y="88.58" width="103.43" height="15.21" transform="translate(-5.34 12.24) rotate(-3.4)"/><rect class="cls-7" x="184.29" y="118.8" width="47.66" height="15.21" transform="translate(-7.12 12.55) rotate(-3.4)"/><rect class="cls-7" x="186.08" y="148.71" width="62.87" height="15.21" transform="translate(-8.88 13.16) rotate(-3.4)"/><circle class="cls-6" cx="161.56" cy="129.17" r="7.6"/><circle class="cls-6" cx="163.36" cy="159.53" r="7.6"/><rect class="cls-7" x="173.35" y="87.95" width="82.13" height="15.21" transform="translate(-5.28 12.87) rotate(-3.4)"/><polygon class="cls-8" points="128.62 160.07 105.58 161.44 108.82 216.1 129.98 214.84 128.62 160.07"/><path class="cls-9" d="M104.68,146.24a27.86,27.86,0,0,1-20.15-6.92,27.69,27.69,0,0,1-2.33-39.23l18.51-20.72,20.82,18.39A27.67,27.67,0,0,1,123.86,137,27.84,27.84,0,0,1,104.68,146.24Z"/><path class="cls-10" d="M121.53,97.76,100.71,79.37l4,66.87h0A27.84,27.84,0,0,0,123.86,137a27.67,27.67,0,0,0-2.33-39.23Z"/><path class="cls-11" d="M119.13,175.87l-25.3,1.5a12.7,12.7,0,0,1-13.41-11.9l-1.2-20.24a12.7,12.7,0,0,1,11.9-13.41l25.31-1.5a12.69,12.69,0,0,1,13.4,11.9l1.2,20.25A12.68,12.68,0,0,1,119.13,175.87Z"/><path class="cls-12" d="M116.43,130.32l-12.65.75,2.7,45.55,12.65-.75a12.68,12.68,0,0,0,11.9-13.4l-1.2-20.25A12.69,12.69,0,0,0,116.43,130.32Z"/><path class="cls-13" d="M296.05,205,64.31,218.74a13.72,13.72,0,0,1-14.5-12.89L41.07,58.64A13.72,13.72,0,0,1,54,44.13L285.69,30.38a13.71,13.71,0,0,1,14.5,12.88l8.74,147.22A13.72,13.72,0,0,1,296.05,205Z"/></g><rect class="cls-1" width="350" height="250"/></g></g></svg>