<svg xmlns="http://www.w3.org/2000/svg" viewBox="0 0 144.36 107.2"><defs><style>.cls-1{fill:#3a3b3d;}.cls-2{fill:#fff;}.cls-3{fill:#10162c;}.cls-4{fill:#c4dff4;}.cls-5{fill:#99c5df;}.cls-12,.cls-32,.cls-35,.cls-6,.cls-9{fill:none;stroke-miterlimit:10;}.cls-6{stroke:#99c5df;}.cls-12,.cls-6,.cls-9{stroke-linecap:round;}.cls-7{fill:#fdcc97;}.cls-8{fill:#e0a061;}.cls-9{stroke:#e0a061;}.cls-10{fill:#e2efd5;}.cls-11{fill:#c2d8a8;}.cls-12{stroke:#c2d8a8;stroke-width:0.75px;}.cls-13{fill:#ef545d;}.cls-14{font-size:2.47px;fill:#edeeec;font-family:Lato-Bold, Lato;font-weight:700;}.cls-15{letter-spacing:-0.06em;}.cls-16{letter-spacing:-0.01em;}.cls-17{letter-spacing:0em;}.cls-18{letter-spacing:-0.01em;}.cls-19{letter-spacing:-0.01em;}.cls-20{fill:#2883c2;}.cls-21{fill:#efab4a;}.cls-22{fill:#b4b83a;}.cls-23{fill:#56a846;}.cls-24{fill:#23bfd4;}.cls-25{fill:#6ebf6b;}.cls-26{fill:#4b93cf;}.cls-27{fill:#f27650;}.cls-28{fill:#d95855;}.cls-29{fill:#952f91;}.cls-30{fill:#57aa48;}.cls-31{fill:#db5e5a;}.cls-32{stroke:#fff;opacity:0.41;}.cls-32,.cls-35{stroke-width:0.1px;}.cls-33{fill:#0e75bb;}.cls-34{fill:#d5d6d5;}.cls-35{stroke:#39333f;opacity:0.11;}.cls-36{fill:#7bcdee;}.cls-37{fill:#a0a0a0;}</style></defs><title>Asset 10</title><g id="Layer_2" data-name="Layer 2"><g id="Layer_1-2" data-name="Layer 1"><rect class="cls-1" x="38.47" y="57.85" width="66.02" height="49.35" rx="2.29" ry="2.29"/><rect class="cls-2" x="42.04" y="61.07" width="58.87" height="38.48"/><path class="cls-3" d="M108.9,102.69H79.22v1H63.73v-1H32.47v2.94a1.58,1.58,0,0,0,1.58,1.57H108.9a1.57,1.57,0,0,0,1.57-1.57v-2.94Z"/><rect class="cls-4" x="50.1" width="42.74" height="29.51" rx="5" ry="5"/><rect class="cls-5" x="59.34" y="4.02" width="23.87" height="1.27"/><rect class="cls-5" x="52.35" y="7.49" width="37.79" height="1.27"/><rect class="cls-5" x="52.35" y="10.96" width="37.79" height="1.27"/><rect class="cls-5" x="52.35" y="14.43" width="37.79" height="1.27"/><rect class="cls-5" x="52.35" y="17.9" width="37.79" height="1.27"/><rect class="cls-5" x="52.35" y="21.37" width="37.79" height="1.27"/><rect class="cls-5" x="52.35" y="24.84" width="37.79" height="1.27"/><line class="cls-6" x1="71.47" y1="46.33" x2="71.47" y2="32.98"/><line class="cls-6" x1="71.47" y1="54.55" x2="71.47" y2="50.3"/><line class="cls-6" x1="73.96" y1="34.17" x2="73.96" y2="32.98"/><line class="cls-6" x1="73.96" y1="46.31" x2="73.96" y2="38.54"/><line class="cls-6" x1="68.8" y1="34.17" x2="68.8" y2="32.98"/><line class="cls-6" x1="68.8" y1="49.42" x2="68.8" y2="47.75"/><line class="cls-6" x1="68.8" y1="44.31" x2="68.8" y2="36.54"/><rect class="cls-7" y="14.42" width="42.74" height="29.51" rx="5" ry="5"/><rect class="cls-8" x="9.24" y="18.44" width="23.87" height="1.27"/><rect class="cls-8" x="2.25" y="21.91" width="37.79" height="1.27"/><rect class="cls-8" x="2.25" y="25.38" width="37.79" height="1.27"/><rect class="cls-8" x="2.25" y="28.85" width="37.79" height="1.27"/><rect class="cls-8" x="2.25" y="32.32" width="37.79" height="1.27"/><rect class="cls-8" x="2.25" y="35.79" width="37.79" height="1.27"/><rect class="cls-8" x="2.25" y="39.26" width="37.79" height="1.27"/><line class="cls-9" x1="32.06" y1="57.27" x2="25.25" y2="45.8"/><line class="cls-9" x1="36.26" y1="64.34" x2="34.09" y2="60.69"/><line class="cls-9" x1="28.77" y1="46.86" x2="28.16" y2="45.84"/><line class="cls-9" x1="34.97" y1="57.31" x2="31" y2="50.62"/><line class="cls-9" x1="22.45" y1="46.31" x2="21.84" y2="45.29"/><line class="cls-9" x1="30.23" y1="59.43" x2="29.38" y2="57.99"/><line class="cls-9" x1="27.62" y1="55.04" x2="23.66" y2="48.35"/><rect class="cls-10" x="101.62" y="14.75" width="42.74" height="29.51" rx="5" ry="5"/><rect class="cls-11" x="110.86" y="18.77" width="23.87" height="1.27"/><rect class="cls-11" x="103.87" y="22.24" width="37.79" height="1.27"/><rect class="cls-11" x="103.87" y="25.71" width="37.79" height="1.27"/><rect class="cls-11" x="103.87" y="29.17" width="37.79" height="1.27"/><rect class="cls-11" x="103.87" y="32.64" width="37.79" height="1.27"/><rect class="cls-11" x="103.87" y="36.11" width="37.79" height="1.27"/><rect class="cls-11" x="103.87" y="39.58" width="37.79" height="1.27"/><line class="cls-12" x1="110.35" y1="57.27" x2="117.17" y2="45.8"/><line class="cls-12" x1="106.16" y1="64.34" x2="108.33" y2="60.69"/><line class="cls-12" x1="113.64" y1="46.86" x2="114.25" y2="45.84"/><line class="cls-12" x1="107.44" y1="57.31" x2="111.41" y2="50.62"/><line class="cls-12" x1="119.97" y1="46.31" x2="120.58" y2="45.29"/><line class="cls-12" x1="112.18" y1="59.43" x2="113.03" y2="57.99"/><line class="cls-12" x1="114.79" y1="55.04" x2="118.76" y2="48.35"/><rect class="cls-13" x="44.01" y="62.52" width="55.19" height="4.46" rx="1.34" ry="1.34"/><text class="cls-14" transform="translate(44.99 65.53)"><tspan class="cls-15">W</tspan><tspan x="2.44" y="0">el</tspan><tspan class="cls-16" x="4.37" y="0">c</tspan><tspan x="5.54" y="0">ome </tspan><tspan class="cls-17" x="10.94" y="0">t</tspan><tspan x="11.85" y="0">o </tspan><tspan class="cls-18" x="13.87" y="0">D</tspan><tspan x="15.71" y="0">ashboa</tspan><tspan class="cls-19" x="23.51" y="0">r</tspan><tspan x="24.39" y="0">d</tspan></text><rect class="cls-20" x="44.22" y="68.2" width="12.98" height="3.3" rx="0.87" ry="0.87"/><rect class="cls-21" x="58.18" y="68.2" width="12.98" height="3.3" rx="0.87" ry="0.87"/><rect class="cls-22" x="72.15" y="68.2" width="12.98" height="3.3" rx="0.87" ry="0.87"/><rect class="cls-23" x="86.22" y="68.2" width="12.98" height="3.3" rx="0.87" ry="0.87"/><rect class="cls-24" x="44.18" y="72.16" width="9.88" height="5.85" rx="0.87" ry="0.87"/><rect class="cls-25" x="54.98" y="72.16" width="9.88" height="5.85" rx="0.87" ry="0.87"/><rect class="cls-26" x="65.78" y="72.16" width="9.88" height="5.85" rx="0.87" ry="0.87"/><rect class="cls-27" x="44.18" y="78.66" width="9.88" height="5.85" rx="0.87" ry="0.87"/><rect class="cls-28" x="54.98" y="78.66" width="9.88" height="5.85" rx="0.87" ry="0.87"/><rect class="cls-29" x="65.78" y="78.66" width="9.88" height="5.85" rx="0.87" ry="0.87"/><rect class="cls-2" x="76.83" y="72.16" width="22.37" height="12.15" rx="0.84" ry="0.84"/><rect class="cls-2" x="76.83" y="85.07" width="22.37" height="9.32"/><rect class="cls-2" x="44.18" y="85.07" width="31.66" height="9.32" rx="1.55" ry="1.55"/><rect class="cls-30" x="44.9" y="87.01" width="14.8" height="6.63" rx="0.87" ry="0.87"/><rect class="cls-31" x="60.23" y="87.01" width="14.8" height="6.63" rx="0.87" ry="0.87"/><rect class="cls-2" x="49.33" y="68.75" width="2.6" height="0.33"/><line class="cls-32" x1="44.62" y1="69.35" x2="56.67" y2="69.35"/><rect class="cls-2" x="54.82" y="70.21" width="1.72" height="0.38"/><rect class="cls-2" x="63.36" y="68.75" width="2.6" height="0.33"/><line class="cls-32" x1="58.65" y1="69.35" x2="70.7" y2="69.35"/><rect class="cls-2" x="68.85" y="70.21" width="1.72" height="0.38"/><rect class="cls-2" x="77.32" y="68.75" width="2.6" height="0.33"/><line class="cls-32" x1="72.61" y1="69.35" x2="84.66" y2="69.35"/><rect class="cls-2" x="82.81" y="70.21" width="1.72" height="0.38"/><rect class="cls-2" x="91.55" y="68.75" width="2.6" height="0.33"/><line class="cls-32" x1="86.85" y1="69.35" x2="98.89" y2="69.35"/><rect class="cls-2" x="97.05" y="70.21" width="1.72" height="0.38"/><ellipse class="cls-2" cx="49.14" cy="73.63" rx="1.2" ry="1.11"/><rect class="cls-2" x="48.65" y="75.38" width="0.89" height="0.51"/><rect class="cls-2" x="46.94" y="76.64" width="4.31" height="1" rx="0.3" ry="0.3"/><ellipse class="cls-2" cx="59.86" cy="73.63" rx="1.2" ry="1.11"/><rect class="cls-2" x="59.37" y="75.38" width="0.89" height="0.51"/><rect class="cls-2" x="57.66" y="76.64" width="4.31" height="1" rx="0.3" ry="0.3"/><ellipse class="cls-2" cx="70.74" cy="73.63" rx="1.2" ry="1.11"/><rect class="cls-2" x="70.25" y="75.38" width="0.89" height="0.51"/><rect class="cls-2" x="68.54" y="76.64" width="4.31" height="1" rx="0.3" ry="0.3"/><ellipse class="cls-2" cx="49.14" cy="80.14" rx="1.2" ry="1.11"/><rect class="cls-2" x="48.65" y="81.89" width="0.89" height="0.51"/><rect class="cls-2" x="46.94" y="83.15" width="4.31" height="1" rx="0.3" ry="0.3"/><ellipse class="cls-2" cx="59.86" cy="80.14" rx="1.2" ry="1.11"/><rect class="cls-2" x="59.37" y="81.89" width="0.89" height="0.51"/><rect class="cls-2" x="57.66" y="83.15" width="4.31" height="1" rx="0.3" ry="0.3"/><ellipse class="cls-2" cx="70.74" cy="80.14" rx="1.2" ry="1.11"/><rect class="cls-2" x="70.25" y="81.89" width="0.89" height="0.51"/><rect class="cls-2" x="68.54" y="83.15" width="4.31" height="1" rx="0.3" ry="0.3"/><rect class="cls-33" x="78.28" y="73.1" width="3.24" height="0.41"/><rect class="cls-33" x="78.28" y="77.55" width="4.24" height="0.41"/><rect class="cls-33" x="78.28" y="85.95" width="4.24" height="0.41"/><rect class="cls-33" x="45.78" y="85.95" width="6.44" height="0.41"/><rect class="cls-34" x="80.03" y="87.49" width="2.61" height="0.41"/><rect class="cls-34" x="80.55" y="88.89" width="1.58" height="0.21"/><rect class="cls-34" x="80.55" y="90.56" width="1.58" height="0.21"/><rect class="cls-34" x="80.55" y="92.23" width="1.58" height="0.21"/><rect class="cls-34" x="80.55" y="93.77" width="1.58" height="0.21"/><rect class="cls-34" x="89.73" y="88.89" width="4.44" height="0.21"/><rect class="cls-34" x="89.73" y="90.56" width="4.44" height="0.21"/><rect class="cls-34" x="89.73" y="92.23" width="4.44" height="0.21"/><rect class="cls-34" x="89.73" y="93.77" width="4.44" height="0.21"/><rect class="cls-34" x="89.73" y="87.49" width="4.25" height="0.41"/><line class="cls-35" x1="77.47" y1="73.79" x2="98.58" y2="73.79"/><line class="cls-35" x1="77.47" y1="78.23" x2="98.58" y2="78.23"/><line class="cls-35" x1="77.47" y1="86.68" x2="98.58" y2="86.68"/><line class="cls-35" x1="77.47" y1="88.27" x2="98.58" y2="88.27"/><line class="cls-35" x1="77.47" y1="89.87" x2="98.58" y2="89.87"/><line class="cls-35" x1="77.47" y1="91.46" x2="98.58" y2="91.46"/><line class="cls-35" x1="77.47" y1="93.05" x2="98.58" y2="93.05"/><rect class="cls-35" x="77.86" y="74.85" width="7.83" height="1.24" rx="0.37" ry="0.37"/><rect class="cls-35" x="77.86" y="79.22" width="9.55" height="1.24" rx="0.37" ry="0.37"/><rect class="cls-35" x="77.86" y="81.89" width="9.55" height="1.24" rx="0.37" ry="0.37"/><rect class="cls-35" x="88.53" y="79.22" width="9.38" height="1.24" rx="0.37" ry="0.37"/><rect class="cls-35" x="86.74" y="74.85" width="5.96" height="1.24" rx="0.37" ry="0.37"/><rect class="cls-36" x="93.76" y="74.85" width="2.53" height="1.13" rx="0.34" ry="0.34"/><rect class="cls-36" x="88.46" y="81.95" width="2.53" height="1.13" rx="0.34" ry="0.34"/><rect class="cls-2" x="46.04" y="88.06" width="5.04" height="0.46"/><path class="cls-2" d="M45.79,88a.18.18,0,0,0-.09,0h-.16v0h.16l0,0a.08.08,0,0,1,0,0v.31a.08.08,0,0,1,0,0,.06.06,0,0,1,0,0h-.16v0h.16a.12.12,0,0,0,.12-.13v-.31a.16.16,0,0,0,0-.09Z"/><path class="cls-2" d="M45.67,88.29s0,0,0,0L45.42,88h0s0,0,0,0v.12h-.22v.21h.22v.13a0,0,0,0,0,0,0h0l.24-.24v0Z"/><path class="cls-2" d="M45.79,92.36a.12.12,0,0,0-.09,0h0a.06.06,0,0,1,0,0,.08.08,0,0,1,0,0v.31s0,0,0,0l0,0h0a.11.11,0,0,0,.12-.12v-.31a.12.12,0,0,0,0-.09Z"/><path class="cls-2" d="M45.67,92.6v0l-.24-.24h0s0,0,0,0v.13h-.22v.21h.22v.13s0,0,0,0h0l.24-.24s0,0,0,0Z"/><path class="cls-2" d="M60.63,92.85a.12.12,0,0,0,.09,0h0l0,0a.06.06,0,0,1,0,0v-.31s0,0,0,0,0,0,0,0h0a.14.14,0,0,0-.13.13v.31a.12.12,0,0,0,0,.09Z"/><path class="cls-2" d="M61.25,92.6v0L61,92.34h0s0,0,0,0v.13h-.22s0,0,0,0v.17a0,0,0,0,0,0,0H61v.13s0,0,0,0,0,0,0,0h0l.24-.24v0Z"/><circle class="cls-2" cx="51.58" cy="88.29" r="0.23"/><circle class="cls-2" cx="50.76" cy="90.44" r="0.23"/><circle class="cls-2" cx="52.24" cy="92.6" r="0.23"/><rect class="cls-2" x="46.04" y="90.21" width="4.29" height="0.46"/><path class="cls-2" d="M45.81,90.18l0,0a.08.08,0,0,0-.1,0l-.31.34-.1-.08a.08.08,0,0,0-.1,0l0,0a0,0,0,0,0,0,.05.08.08,0,0,0,0,0l.17.16.06,0a.05.05,0,0,0,.05,0l.37-.42a.14.14,0,0,0,0-.06l0,0Z"/><rect class="cls-2" x="46.04" y="92.37" width="5.75" height="0.46"/><line class="cls-32" x1="45.1" y1="89.35" x2="59.5" y2="89.35"/><line class="cls-32" x1="45.1" y1="91.43" x2="59.5" y2="91.43"/><rect class="cls-2" x="61.32" y="88.06" width="4.35" height="0.46"/><rect class="cls-2" x="61.35" y="90.21" width="4.32" height="0.46"/><rect class="cls-2" x="61.35" y="92.37" width="4.32" height="0.46"/><line class="cls-32" x1="60.43" y1="89.35" x2="74.84" y2="89.35"/><line class="cls-32" x1="60.43" y1="91.43" x2="74.84" y2="91.43"/><path class="cls-2" d="M45.44,70a.86.86,0,0,0-.73.73.83.83,0,0,1,.73-.34v.27l.46-.46-.46-.47V70Z"/><path class="cls-2" d="M60,70.09s0,0,0,0H59.6a.21.21,0,0,0,.13,0,.19.19,0,0,0,.05-.13.17.17,0,0,0-.18-.17.16.16,0,0,0-.13.06l-.1.13-.1-.13a.18.18,0,0,0-.14-.06.13.13,0,0,0-.12,0,.14.14,0,0,0-.06.12A.16.16,0,0,0,59,70a.17.17,0,0,0,.12,0h-.37v.29h.1v.33a.08.08,0,0,0,0,0,.05.05,0,0,0,0,0h.87a.12.12,0,0,0,.08-.08v-.33H60s0,0,0,0,0,0,0,0v-.25s0,0,0,0Zm-.42-.24.05,0a.07.07,0,0,1,.06,0,.08.08,0,0,1,0,.05.11.11,0,0,1,0,.06l-.06,0h-.15Zm-.42.13-.05,0s0,0,0-.06,0,0,0-.05,0,0,.05,0l.06,0,.1.13Zm.36.26v.41s0,0,0,0h-.23s0,0,0,0v-.57h.25Z"/><path class="cls-2" d="M73.82,69.74h-1a.07.07,0,0,0-.07.08v.41a.56.56,0,0,0,.56.56h.07a.56.56,0,0,0,.56-.56v-.41A.07.07,0,0,0,73.82,69.74Zm-.17.43-.3.3,0,0-.06,0-.3-.3a.08.08,0,0,1,.11-.11l.25.25.24-.25a.08.08,0,0,1,.11.11Z"/><path class="cls-2" d="M88.37,69.79H86.86a.06.06,0,0,0,0,0v.74s0,0,0,0H88.4a.05.05,0,0,0,0,0v-.74a.08.08,0,0,0,0,0Zm-.05.55a.22.22,0,0,0-.14,0,.2.2,0,0,0-.06.14h-1a.19.19,0,0,0,0-.14.24.24,0,0,0-.14,0v-.25a.2.2,0,0,0,.14-.06.19.19,0,0,0,0-.14h1a.2.2,0,0,0,.06.14.18.18,0,0,0,.14.06Z"/><path class="cls-2" d="M87.63,70.1h.24v.08h-.25v.18h0a.25.25,0,0,0,.11,0l0,0s0,0,0,0h-.1v-.07h.09c.07,0,.11,0,.11.08a.09.09,0,0,1,0,.06.26.26,0,0,1-.09.09l-.11,0h0l0,0,0,0a.43.43,0,0,1,0,0v-.18h0V70.1h0V70h-.1V70h.14l0,0s0,0,0,0v.09Z"/><path class="cls-29" d="M71.46,79.81H70a0,0,0,0,0,0,0v.75a.06.06,0,0,0,0,0h1.54a.08.08,0,0,0,0,0v-.75l0,0Zm0,.54a.18.18,0,0,0-.14.06.2.2,0,0,0-.06.14h-1a.21.21,0,0,0-.2-.2V80.1a.2.2,0,0,0,.14-.06.17.17,0,0,0,.06-.14h1a.17.17,0,0,0,.06.14.18.18,0,0,0,.14.06Z"/><path class="cls-29" d="M70.72,80.12H71v.08h-.25v.18h0a.17.17,0,0,0,.11,0s0,0,0,0a0,0,0,0,1,0,0h0s0,0,0,0h-.06v-.06h.09c.07,0,.11,0,.11.08a.14.14,0,0,1,0,.06.81.81,0,0,1-.1.09l-.11,0h0l0,0,0,0s0,0,0-.06V80.2h-.05v-.08h.05v-.06l0,0h-.07V80h.17a.05.05,0,0,1,0,0s0,0,0,0Z"/><path class="cls-24" d="M49.83,73H48.39a.11.11,0,0,0-.12.11v1a.12.12,0,0,0,.12.12h1.44a.12.12,0,0,0,.12-.12v-1a.11.11,0,0,0-.12-.11Zm.06,1.11a.06.06,0,0,1-.06.06H48.39a.06.06,0,0,1-.06-.06v-1a.06.06,0,0,1,.06-.06h1.44a.06.06,0,0,1,.06.06Z"/><path class="cls-24" d="M48.9,73.83l-.1-.06h0a.18.18,0,0,0,.1-.12.08.08,0,0,0,0-.07v0a.09.09,0,0,0,0-.07.2.2,0,0,0-.22-.16h0a.1.1,0,0,1-.09,0,0,0,0,0,1,0,0H48.5s0,0,0,0v0s0,0,0,0v0a.19.19,0,0,0,0,.07.09.09,0,0,0,0,.07v0a.07.07,0,0,0,0,.07.18.18,0,0,0,.1.12h0l-.11.06a.11.11,0,0,0-.06.1v0s0,.07.28.07S49,74,49,74v0a.12.12,0,0,0-.07-.1Z"/><path class="cls-24" d="M49.11,73.46h.28l0,0a0,0,0,0,0,0,0h-.28a0,0,0,0,0,0,0,0,0,0,0,0,0,0Z"/><path class="cls-24" d="M49.5,73.46h0l0,0a0,0,0,0,0,0,0h0a0,0,0,0,0,0,0l0,0Z"/><path class="cls-24" d="M49.14,73.88h0s0,0,0,0a0,0,0,0,0,0,0h0a0,0,0,0,0,0,0s0,0,0,0Z"/><path class="cls-24" d="M49.31,73.88h-.06s0,0,0,0a0,0,0,0,0,0,0h.06s0,0,0,0a0,0,0,0,0,0,0Z"/><path class="cls-24" d="M49.45,73.88h0s0,0,0,0a0,0,0,0,0,0,0h0s0,0,0,0a0,0,0,0,0,0,0Z"/><path class="cls-24" d="M49.61,73.88h0s0,0,0,0a0,0,0,0,0,0,0h0a0,0,0,0,0,0,0s0,0,0,0Z"/><path class="cls-24" d="M49.71,73.88a0,0,0,0,0,0,0s0,0,0,0,0,0,0,0h0v0Z"/><path class="cls-24" d="M49.73,73.57h-.62a0,0,0,0,0,0,0s0,0,0,0h.62a0,0,0,0,0,0,0s0,0,0,0Z"/><path class="cls-24" d="M49.73,73.74h-.62s0,0,0,0a0,0,0,0,0,0,0h.62s0,0,0,0a0,0,0,0,0,0,0Z"/><path class="cls-25" d="M60.5,73.08a.08.08,0,0,0-.08,0s0,0,0,0H60a.11.11,0,0,0-.09,0h0l-.38,0h0a.18.18,0,0,0-.18-.15.19.19,0,1,0,0,.38H60.5a.09.09,0,0,0,.09-.09v-.09a.09.09,0,0,0-.09-.09Z"/><path class="cls-25" d="M60.6,73.45H59.12a.11.11,0,0,0-.1.1v.13a.1.1,0,0,0,.1.09h.5l.15.14s0,0,0,0l-.22.2h0a.09.09,0,0,0-.1.09.09.09,0,0,0,.1.1.09.09,0,0,0,.09-.1,0,0,0,0,1,0,0l.23-.21a0,0,0,0,1,0,0l.23.21a0,0,0,0,1,0,0,.09.09,0,0,0,.09.1.09.09,0,0,0,.1-.1.09.09,0,0,0-.1-.09h0l-.23-.2h0l.16-.14h.5a.1.1,0,0,0,.1-.09v-.13a.11.11,0,0,0-.1-.1Zm-.74.4h0l-.07-.07s0,0,0,0h.16s0,0,0,0l-.08.07Z"/><path class="cls-26" d="M70.25,73.39a.12.12,0,0,1-.12.12.12.12,0,0,1-.13-.12.13.13,0,0,1,.13-.13.13.13,0,0,1,.12.13Z"/><path class="cls-26" d="M70.81,73.27a.11.11,0,0,1,.16,0,.11.11,0,0,1,0,.16l-.2.13a.1.1,0,0,1-.12,0l0,0a.06.06,0,0,0,0,0,0,0,0,0,0,0,0h.87l0,0v-.07a.22.22,0,0,0-.17-.24,2.25,2.25,0,0,0-.65-.11.27.27,0,0,0-.09.15h0Z"/><path class="cls-26" d="M71.5,73.91h0v-.19h-.85a.11.11,0,0,1-.11-.1v-.11l-.1-.07.23.1a.06.06,0,0,0,.06,0l.2-.13a.06.06,0,0,0-.06-.1l-.18.11-.2-.09h.08a.37.37,0,0,1,0-.11h-.21a.09.09,0,0,0-.09.09h0v.15a.08.08,0,0,0,.06.08H70v-.37s0,0,0,0,0,0,0,0V74a.1.1,0,0,0,.2,0,.11.11,0,0,0-.1-.1s0,0,0,0V73.8H71.4V74a.1.1,0,0,0,.2,0,.11.11,0,0,0-.1-.1Z"/><path class="cls-27" d="M49.67,80.85l-.56-.56v.56l-.62-.62.62-.63v.56l.56-.56Z"/><path class="cls-28" d="M60.55,80a.09.09,0,0,0-.07,0H59.24a.1.1,0,0,0-.1.1v.2a.1.1,0,0,0,.1.1h1.24a.1.1,0,0,0,.1-.1V80a.09.09,0,0,0,0-.07Z"/><path class="cls-33" d="M45.48,86a.24.24,0,0,0-.1-.1.26.26,0,0,0-.28,0,.24.24,0,0,0-.1.1.27.27,0,0,0,0,.28.24.24,0,0,0,.1.1.27.27,0,0,0,.28,0,.24.24,0,0,0,.1-.1.27.27,0,0,0,0-.28ZM45.19,86h.09V86h-.09Zm.14.39h-.18v-.06h0v-.12h0v-.06h.13v.19h0Z"/><path class="cls-33" d="M78.1,73.06h0a.3.3,0,0,0-.14,0,.33.33,0,0,0-.11.08l0,.06h-.13l-.07.12h0l0,0h0l.09,0,.08.09,0,.08h0l0,0h0l.12-.07h0v-.12l.06-.06a.21.21,0,0,0,.08-.11.28.28,0,0,0,0-.13Zm-.07.12h0a0,0,0,0,1,0,0s0,0,0,0,0,0,0,0h0v0a0,0,0,0,0,0,0Z"/><path class="cls-33" d="M78.1,78,78,77.84a.17.17,0,0,0,0-.12.19.19,0,0,0,0-.08.16.16,0,0,0,0-.07l-.07,0h-.17a.18.18,0,0,0-.07,0,.16.16,0,0,0,0,.07.17.17,0,0,0,0,.16.16.16,0,0,0,0,.07.18.18,0,0,0,.07,0h.08a.28.28,0,0,0,.13,0l.1.1h.06s0,0,0,0a0,0,0,0,0,0,0Zm-.19-.13a.18.18,0,0,1-.1,0,.15.15,0,0,1-.09,0,.14.14,0,0,1,0-.2.15.15,0,0,1,.09,0,.18.18,0,0,1,.1,0,.15.15,0,0,1,0,.2Z"/><path class="cls-33" d="M77.9,77.7h-.07v-.07h0v.07h-.07v0h.07v.07h0v-.07h.08v0h0Z"/><path class="cls-33" d="M78.07,86,78,86a.27.27,0,0,0-.12,0,.21.21,0,0,0-.12,0,.38.38,0,0,0-.09.09.27.27,0,0,0,0,.12.21.21,0,0,0,0,.12.2.2,0,0,0,.09.09.21.21,0,0,0,.12,0,.27.27,0,0,0,.12,0,.24.24,0,0,0,.08-.09.16.16,0,0,0,0-.12.19.19,0,0,0,0-.12Zm-.06.21a.17.17,0,0,1-.06.06l-.08,0-.09,0-.06-.06a.15.15,0,0,1,0-.09.11.11,0,0,1,0-.08.17.17,0,0,1,.06-.06.16.16,0,0,1,.09,0A.11.11,0,0,1,78,86a.09.09,0,0,1,.06.06.11.11,0,0,1,0,.08.16.16,0,0,1,0,.09Z"/><path class="cls-33" d="M77.9,86h0v.11h-.08v0h.12v-.14h0Z"/><path class="cls-2" d="M61.13,90.3a.29.29,0,0,0-.11-.11.32.32,0,0,0-.14,0,.4.4,0,0,0-.15,0,.27.27,0,0,0-.1.11.23.23,0,0,0,0,.14.26.26,0,0,0,0,.15.24.24,0,0,0,.1.1.28.28,0,0,0,.15,0,.23.23,0,0,0,.14,0,.27.27,0,0,0,.11-.1.37.37,0,0,0,0-.15.33.33,0,0,0,0-.14Zm-.07.25a.27.27,0,0,1-.08.07.18.18,0,0,1-.2,0,.19.19,0,0,1-.08-.07.23.23,0,0,1,0-.11.19.19,0,0,1,0-.1.19.19,0,0,1,.08-.07.18.18,0,0,1,.2,0,.27.27,0,0,1,.08.07.36.36,0,0,1,0,.1.43.43,0,0,1,0,.11Z"/><path class="cls-2" d="M60.91,90.3h0v.13h-.1v0h.15v-.17h0Z"/><path class="cls-37" d="M97.19,79.84s0,0,0,0h0s0,0,0,0v.06h.09Z"/><path class="cls-37" d="M97.33,79.84s0,0,0,0h0s0,0,0,0v.06h.09Z"/><path class="cls-37" d="M97.47,79.84s0,0,0,0h0s0,0,0,0v.06h.09Z"/><path class="cls-37" d="M97.19,80s0,0,0,0h0s0,0,0,0V80l0,0h0a0,0,0,0,0,0,0Z"/><path class="cls-37" d="M97.33,80s0,0,0,0h0s0,0,0,0V80l0,0h0l0,0Z"/><path class="cls-37" d="M97.47,80s0,0,0,0h0s0,0,0,0V80l0,0h0l0,0Z"/><path class="cls-37" d="M97.57,79.53v.09a.08.08,0,0,1-.07.07h0a.08.08,0,0,1-.07-.07v-.09h-.2v.09a.09.09,0,0,1-.08.07h0a.08.08,0,0,1-.07-.07v-.09a.06.06,0,0,0-.06.06v.51a.06.06,0,0,0,.06.06h.57a.06.06,0,0,0,.06-.06v-.51a.06.06,0,0,0-.06-.06Zm0,.54s0,0,0,0h-.47s0,0,0,0v-.26a0,0,0,0,1,0,0h.47a0,0,0,0,1,0,0Z"/><path class="cls-37" d="M97.07,79.64h0s0,0,0,0v-.15s0,0,0,0h0a0,0,0,0,0,0,0v.15l0,0Z"/><path class="cls-37" d="M97.46,79.64h0a0,0,0,0,0,0,0v-.15a0,0,0,0,0,0,0h0s0,0,0,0v.15s0,0,0,0Z"/><path class="cls-37" d="M86.72,82.55s0,0,0,0h-.06l0,0v0a0,0,0,0,0,0,0h.06s0,0,0,0Z"/><path class="cls-37" d="M86.86,82.55s0,0,0,0h-.06s0,0,0,0v0s0,0,0,0h.06s0,0,0,0Z"/><path class="cls-37" d="M87,82.55s0,0,0,0h-.06s0,0,0,0v0s0,0,0,0H87s0,0,0,0Z"/><path class="cls-37" d="M86.72,82.69s0,0,0,0h-.06a0,0,0,0,0,0,0v.06h.08a0,0,0,0,0,0,0Z"/><path class="cls-37" d="M86.86,82.69s0,0,0,0h-.06s0,0,0,0v.06a0,0,0,0,0,0,0h.06a0,0,0,0,0,0,0Z"/><path class="cls-37" d="M87,82.69s0,0,0,0h-.06s0,0,0,0v.06a0,0,0,0,0,0,0H87a0,0,0,0,0,0,0Z"/><path class="cls-37" d="M87.11,82.24v.08a.08.08,0,0,1-.07.07H87a.07.07,0,0,1-.07-.07v-.08h-.2v.08a.07.07,0,0,1-.07.07H86.6a.08.08,0,0,1-.07-.07v-.08a.06.06,0,0,0-.06.06v.5a.07.07,0,0,0,.07.07h.56a.07.07,0,0,0,.07-.07v-.5a.06.06,0,0,0-.06-.06Zm0,.53s0,0,0,0h-.48a0,0,0,0,1,0,0v-.26a0,0,0,0,1,0,0h.48s0,0,0,0Z"/><path class="cls-37" d="M86.6,82.35h.05s0,0,0,0v-.14a0,0,0,0,0,0,0H86.6a0,0,0,0,0,0,0v.14s0,0,0,0Z"/><path class="cls-37" d="M87,82.35h0a0,0,0,0,0,0,0v-.14s0,0,0,0h0a0,0,0,0,0,0,0v.14s0,0,0,0Z"/><path class="cls-37" d="M85.46,75.33h-.52a0,0,0,0,0,0,0s0,0,0,0l.24.24h0l.24-.24s0,0,0,0,0,0,0,0Z"/><path class="cls-37" d="M87.12,79.75s0,0,0,0h-.47s0,0,0,0v0a0,0,0,0,0,0,0l.23.23h0l.23-.23a0,0,0,0,0,0,0v0Z"/><path class="cls-2" d="M61.18,88.12l-.17.17.17.17a.07.07,0,0,1,0,.09l0,0,0,0-.18-.17-.17.17,0,0-.05,0a.06.06,0,0,1,0-.09l.17-.17-.17-.17a.07.07,0,0,1,0-.1.07.07,0,0,1,.09,0l.17.17.18-.17a.07.07,0,0,1,.09,0,.09.09,0,0,1,0,.1Z"/><circle class="cls-2" cx="66.12" cy="88.29" r="0.23"/><circle class="cls-2" cx="66.12" cy="90.44" r="0.23"/><circle class="cls-2" cx="66.12" cy="92.6" r="0.23"/></g></g></svg>