<?xml version="1.0" encoding="utf-8"?>
<!-- Generator: Adobe Illustrator 25.0.1, SVG Export Plug-In . SVG Version: 6.00 Build 0)  -->
<svg version="1.1" id="Layer_1" xmlns="http://www.w3.org/2000/svg" xmlns:xlink="http://www.w3.org/1999/xlink" x="0px" y="0px"
	 viewBox="0 0 65.2 51.6" style="enable-background:new 0 0 65.2 51.6;" xml:space="preserve">
<style type="text/css">
	.st0{fill:url(#SVGID_1_);}
	.st1{opacity:0.5;}
	.st2{fill:#0C5E91;}
	.st3{fill:#FFFFFF;stroke:#3F98D3;stroke-width:0.75;stroke-miterlimit:10;}
	.st4{fill:#1B75BA;}
	.st5{fill:#3F98D3;}
	.st6{fill:#C0272D;}
	.st7{enable-background:new    ;}
	.st8{opacity:0.5;fill:#9BD9E9;enable-background:new    ;}
	.st9{fill:#F2F2F2;}
</style>
<linearGradient id="SVGID_1_" gradientUnits="userSpaceOnUse" x1="30.7815" y1="1038.1483" x2="79.6515" y2="1082.1183" gradientTransform="matrix(1 0 0 1 -30.11 -1038.5601)">
	<stop  offset="0" style="stop-color:#FFFFFF"/>
	<stop  offset="1" style="stop-color:#00EA6F"/>
</linearGradient>
<path class="st0" d="M62.9,45.9c-1.4,3.5-4.7,5.7-8.5,5.7H14.6c-13,0-17-8.9-13.3-19.7C1.6,31,2,30.2,2.5,29.4L4,27.1
	c0.2-0.3,0.3-0.6,0.5-0.9c2.3-4.5,4-8.6,4.3-13.3c0.4-3.3,2.5-6.1,5.6-7.3C15.6,5,17,4.7,18.4,4.7L52.3,3
	C65.8,3,67.5,34.4,62.9,45.9L62.9,45.9z"/>
<g class="st1">
	<path class="st2" d="M58.1,3.5c-0.1-0.6-0.6-1-1.2-1c-0.7,0-1.3-0.6-1.3-1.3l0,0c0.1-0.5-0.2-1.1-0.7-1.2c0,0,0,0,0,0
		c-0.5-0.1-1.1,0.2-1.2,0.7c0,0,0,0,0,0.1l0,0c0,0.2,0,0.3,0,0.5c0,0.7-0.6,1.3-1.3,1.3l0,0c-0.6-0.1-1.2,0.4-1.3,1l0,0
		c0.1,0.6,0.7,1.1,1.3,1c0.7,0,1.2,0.6,1.3,1.2c-0.1,0.5,0.2,1.1,0.7,1.2c0,0,0,0,0.1,0c0.5,0.1,1-0.2,1.2-0.7
		c0.1-0.2,0.1-0.4,0-0.6c0-0.7,0.6-1.3,1.3-1.3l0,0C57.4,4.6,58,4.2,58.1,3.5z"/>
</g>
<g class="st1">
	<path class="st2" d="M62.6,7.1c0-0.3-0.3-0.5-0.6-0.5c-0.4,0-0.7-0.3-0.7-0.6c0,0,0,0,0,0c0.1-0.3-0.1-0.6-0.3-0.7
		s-0.6,0.1-0.7,0.3l0,0c0,0,0,0.1,0,0.1c0,0.1,0,0.2,0,0.2c0,0.4-0.3,0.7-0.7,0.7C59.4,6.5,59.1,6.7,59,7c-0.1,0.3,0.1,0.6,0.4,0.6
		c0,0,0,0,0,0c0.1,0,0.2,0,0.3,0c0.3,0,0.6,0.3,0.6,0.6c-0.1,0.3,0.1,0.6,0.4,0.6l0,0c0.3,0.1,0.6-0.1,0.6-0.4c0-0.1,0-0.2,0-0.3
		c0-0.4,0.3-0.7,0.7-0.7C62.3,7.6,62.5,7.4,62.6,7.1z"/>
</g>
<path class="st2" d="M10.2,35.1l0.4,0.8c0,0,0.1,0,0.1,0l0,0c0,0,0.1,0,0.1-0.1l0,0l0,0L10.4,35h-0.1L10.2,35.1z"/>
<path class="st2" d="M9.5,33.5l-0.4-0.8c0,0-0.1,0-0.1,0l0,0c0,0,0,0.1,0,0.1c0,0,0,0,0,0l0.4,0.8h0.1L9.5,33.5z"/>
<path class="st2" d="M9,34.6L8.2,35c0,0-0.1,0.1-0.1,0.1l0,0c0,0,0.1,0.1,0.1,0.1l0,0l0.8-0.4v-0.1C9,34.7,9,34.7,9,34.6z"/>
<path class="st2" d="M11.4,33.4l-0.8,0.4V34l0.8-0.4C11.4,33.5,11.4,33.5,11.4,33.4c0,0-0.1,0-0.1,0L11.4,33.4z"/>
<path class="st2" d="M9.5,35.1l-0.3,0.8c0,0,0,0.1,0,0.1h0.1l0,0l0.3-0.8L9.5,35.1z"/>
<path class="st2" d="M10.2,33.5l0.2-0.8c0,0,0-0.1,0-0.1c0,0,0,0,0,0c0,0-0.1,0-0.1,0c0,0,0,0,0,0l0,0l-0.2,0.8
	C10.1,33.4,10.2,33.4,10.2,33.5z"/>
<path class="st2" d="M10.7,34.6l0.8,0.2h0.1c0,0,0,0,0-0.1c0,0,0-0.1,0-0.1l0,0l-0.8-0.2C10.8,34.5,10.7,34.6,10.7,34.6z"/>
<path class="st2" d="M9,34l-0.8-0.3c0,0-0.1,0-0.1,0c0,0,0,0.1,0,0.1h0.1l0.8,0.2C8.9,34.1,9,34,9,34z"/>
<path class="st3" d="M17.5,22.5h31.6c1,0,1.9,0.8,1.9,1.9c0,0,0,0,0,0l0,0v19.1c0,1-0.8,1.9-1.9,1.9c0,0,0,0,0,0H16.8
	c-1,0-1.9-0.8-1.9-1.9c0,0,0,0,0,0l0,0V25.1C14.9,23.7,16.1,22.5,17.5,22.5z"/>
<rect x="27.5" y="27.3" class="st4" width="10.8" height="18"/>
<rect x="28.3" y="28" class="st5" width="9.2" height="17.4"/>
<rect x="39.8" y="27.3" class="st4" width="9.7" height="14.4"/>
<rect x="40.5" y="28" class="st5" width="8.3" height="13"/>
<rect x="16.4" y="27.3" class="st4" width="9.7" height="14.4"/>
<rect x="17.1" y="28" class="st5" width="8.3" height="13"/>
<rect x="23.1" y="14.9" class="st5" width="1.6" height="8.3"/>
<rect x="41.2" y="14.9" class="st5" width="1.6" height="8.3"/>
<path class="st4" d="M14.5,22h36.8c0.7,0,1.3,0.6,1.3,1.3v0c0,0.7-0.6,1.3-1.3,1.3H14.5c-0.7,0-1.3-0.6-1.3-1.3v0
	C13.2,22.6,13.8,22,14.5,22z"/>
<path class="st4" d="M15.5,9.3h34.9c1.3,0,2.3,1,2.3,2.3l0,0v5.3c0,1.4-1.1,2.5-2.5,2.5H15.5c-1.3,0-2.3-1-2.3-2.3c0,0,0,0,0,0l0,0
	v-5.5C13.2,10.3,14.2,9.3,15.5,9.3z"/>
<path class="st3" d="M16.6,10.1h32.7c1.4,0,2.6,1.2,2.6,2.6v3.2c0,1.4-1.2,2.6-2.6,2.6H16.6c-1.4,0-2.6-1.2-2.6-2.6v-3.2
	C14,11.3,15.2,10.1,16.6,10.1z"/>
<path class="st4" d="M15.6,44.6h12v0.8H16.3c-0.2-0.6,0.1-0.2,0,0L15.6,44.6z"/>
<polygon class="st4" points="37.9,44.6 50.3,44.6 49.5,45.4 37.9,45.4 "/>
<rect x="20.3" y="31.6" class="st6" width="1.7" height="6.1"/>
<rect x="18.2" y="33.8" class="st6" width="6.1" height="1.7"/>
<g>
	<g class="st7">
		<path class="st4" d="M26.4,14.2c0-0.8,0.7-1.5,1.5-1.5c0.4,0,0.7,0.1,1,0.3c0.1,0.1,0.1,0.2,0,0.3c-0.1,0.1-0.2,0.1-0.3,0
			c-0.2-0.2-0.4-0.2-0.7-0.2c-0.3,0-0.6,0.1-0.8,0.3c-0.2,0.2-0.3,0.4-0.3,0.7c0,0.3,0.1,0.5,0.3,0.7c0.2,0.2,0.5,0.3,0.8,0.3
			c0.3,0,0.5-0.1,0.7-0.2c0.1-0.1,0.3-0.1,0.3,0c0.1,0.1,0.1,0.3,0,0.3c-0.3,0.2-0.6,0.3-1,0.3C27.1,15.7,26.4,15,26.4,14.2z"/>
	</g>
	<g class="st7">
		<path class="st4" d="M29.7,15.4V13c0-0.1,0.1-0.2,0.2-0.2c0.1,0,0.2,0.1,0.2,0.2v2.2h1.1c0.1,0,0.2,0.1,0.2,0.2
			c0,0.1-0.1,0.2-0.2,0.2H30c0,0,0,0,0,0c0,0,0,0,0,0C29.8,15.7,29.7,15.6,29.7,15.4z"/>
	</g>
	<g class="st7">
		<path class="st4" d="M32.1,13c0-0.1,0.1-0.2,0.2-0.2c0.1,0,0.2,0.1,0.2,0.2v2.5c0,0.1-0.1,0.2-0.2,0.2c-0.1,0-0.2-0.1-0.2-0.2V13z
			"/>
	</g>
	<g class="st7">
		<path class="st4" d="M33.9,15.4c0,0.1-0.1,0.2-0.2,0.2c-0.1,0-0.2-0.1-0.2-0.2V13c0,0,0,0,0,0c0-0.1,0-0.1,0.1-0.2
			c0.1-0.1,0.2-0.1,0.3,0l1.4,1.9V13c0-0.1,0.1-0.2,0.2-0.2c0.1,0,0.2,0.1,0.2,0.2v2.4c0,0.1-0.1,0.2-0.2,0.2c-0.1,0-0.1,0-0.2-0.1
			c0,0,0,0,0,0l-1.3-1.9V15.4z"/>
	</g>
	<g class="st7">
		<path class="st4" d="M36.5,13c0-0.1,0.1-0.2,0.2-0.2c0.1,0,0.2,0.1,0.2,0.2v2.5c0,0.1-0.1,0.2-0.2,0.2c-0.1,0-0.2-0.1-0.2-0.2V13z
			"/>
		<path class="st4" d="M37.7,14.2c0-0.8,0.7-1.5,1.5-1.5c0.4,0,0.7,0.1,1,0.3c0.1,0.1,0.1,0.2,0,0.3c-0.1,0.1-0.2,0.1-0.3,0
			c-0.2-0.2-0.4-0.2-0.7-0.2c-0.3,0-0.6,0.1-0.8,0.3c-0.2,0.2-0.3,0.4-0.3,0.7c0,0.3,0.1,0.5,0.3,0.7c0.2,0.2,0.5,0.3,0.8,0.3
			c0.3,0,0.5-0.1,0.7-0.2c0.1-0.1,0.3-0.1,0.3,0c0.1,0.1,0.1,0.3,0,0.3c-0.3,0.2-0.6,0.3-1,0.3C38.4,15.7,37.7,15,37.7,14.2z"/>
	</g>
</g>
<polygon class="st8" points="17.1,41 25.4,28 25.4,41 "/>
<polygon class="st8" points="40.5,41 48.8,28 48.8,41 "/>
<circle class="st9" cx="36.2" cy="37" r="0.7"/>
</svg>
