<svg xmlns="http://www.w3.org/2000/svg" viewBox="0 0 125.89 79.77"><defs><style>.cls-1{isolation:isolate;}.cls-2{fill:#c1e1f6;}.cls-10,.cls-3{opacity:0.5;}.cls-4{fill:#0c5e91;}.cls-5{fill:#fff;stroke:#3f98d3;stroke-miterlimit:10;stroke-width:0.75px;}.cls-6,.cls-9{fill:#1b75ba;}.cls-7{fill:#3f98d3;}.cls-8{fill:#c0272d;}.cls-9{font-size:5.58px;font-family:ProximaNova-Extrabld, Proxima Nova;font-weight:700;}.cls-10{fill:#9bd9e9;mix-blend-mode:multiply;}.cls-11{fill:#f2f2f2;}</style></defs><title>Asset 17</title><g class="cls-1"><g id="Layer_2" data-name="Layer 2"><g id="Layer_1-2" data-name="Layer 1"><path class="cls-2" d="M111.22,70.39a15,15,0,0,1-13.9,9.38H32C9.81,79.77-5.63,59.83,2,41L14.67,9.39A15,15,0,0,1,28.57,0H93.9c22.18,0,37.62,19.94,30,38.79Z"/><g class="cls-3"><path class="cls-4" d="M96.07,12.66a1.56,1.56,0,0,0-1.71-1.31,1.71,1.71,0,0,1-1.7-1.71,1.35,1.35,0,1,0-2.62,0,1.72,1.72,0,0,1-1.71,1.71,1.55,1.55,0,0,0-1.7,1.31A1.55,1.55,0,0,0,88.33,14,1.71,1.71,0,0,1,90,15.67a1.36,1.36,0,1,0,2.62,0,1.7,1.7,0,0,1,1.7-1.7A1.56,1.56,0,0,0,96.07,12.66Z"/></g><path class="cls-4" d="M32.58,54.54l.51,1a.12.12,0,1,0,.21-.11l-.51-1-.1.06Z"/><path class="cls-4" d="M31.69,52.32l-.52-1a.11.11,0,0,0-.15-.05.12.12,0,0,0-.05.16l.51,1,.1-.06Z"/><path class="cls-4" d="M31,53.87l-1,.52a.12.12,0,1,0,.11.21l1-.52-.06-.1S31,53.91,31,53.87Z"/><path class="cls-4" d="M34.12,52.26l-1,.51.06.1.05.11,1-.51a.12.12,0,0,0,.05-.16A.11.11,0,0,0,34.12,52.26Z"/><path class="cls-4" d="M31.67,54.53l-.34,1a.12.12,0,0,0,.08.15.1.1,0,0,0,.09,0,.09.09,0,0,0,.06-.07l.33-1Z"/><path class="cls-4" d="M32.6,52.33l.33-1.06a.12.12,0,1,0-.22-.07l-.33,1.06A.94.94,0,0,1,32.6,52.33Z"/><path class="cls-4" d="M33.23,53.9l1.06.33a.14.14,0,0,0,.09,0,.11.11,0,0,0,.06-.07.12.12,0,0,0-.08-.15l-1.06-.33A1,1,0,0,1,33.23,53.9Z"/><path class="cls-4" d="M31,53,30,52.63a.12.12,0,1,0-.07.22l1.05.33A1.87,1.87,0,0,1,31,53Z"/><rect class="cls-5" x="38.77" y="37.81" width="47.86" height="30.29"/><rect class="cls-6" x="55.55" y="44.2" width="14.3" height="23.9"/><rect class="cls-7" x="56.62" y="45.1" width="12.17" height="23.01"/><rect class="cls-6" x="71.84" y="44.2" width="12.82" height="19.07"/><rect class="cls-7" x="72.75" y="45.1" width="11" height="17.17"/><rect class="cls-6" x="40.75" y="44.2" width="12.82" height="19.07"/><rect class="cls-7" x="41.66" y="45.1" width="11" height="17.17"/><rect class="cls-7" x="49.7" y="27.68" width="2.08" height="11.02"/><rect class="cls-7" x="73.62" y="27.68" width="2.08" height="11.02"/><rect class="cls-6" x="36.53" y="37.09" width="52.33" height="3.54"/><rect class="cls-6" x="36.53" y="20.3" width="52.33" height="13.25"/><rect class="cls-5" x="37.6" y="21.38" width="50.2" height="11.09"/><rect class="cls-6" x="38.77" y="67.07" width="17.85" height="1.04"/><rect class="cls-6" x="68.78" y="67.07" width="17.85" height="1.04"/><rect class="cls-8" x="46.01" y="49.86" width="2.3" height="8.02"/><rect class="cls-8" x="46.01" y="49.86" width="2.3" height="8.02" transform="translate(101.03 6.72) rotate(90)"/><text class="cls-9" transform="translate(51.61 28.74)">CLINIC</text><polygon class="cls-10" points="41.66 62.27 52.66 45.1 52.66 62.27 41.66 62.27"/><polygon class="cls-10" points="72.75 62.27 83.75 45.1 83.75 62.27 72.75 62.27"/><circle class="cls-11" cx="67.07" cy="56.99" r="0.9"/></g></g></g></svg>