<svg xmlns="http://www.w3.org/2000/svg" xmlns:xlink="http://www.w3.org/1999/xlink" viewBox="0 0 65.19 51.57"><defs><style>.a{fill:url(#a);}.b,.l{opacity:0.5;}.c{fill:#0c5e91;}.d{fill:#fff;stroke:#3f98d3;stroke-miterlimit:10;stroke-width:0.75px;}.e,.i,.j,.k{fill:#1b75ba;}.f{fill:#3f98d3;}.g{fill:#c0272d;}.h,.i,.j,.k,.l{isolation:isolate;}.i,.j,.k{font-size:4.21px;font-family:Quicksand-Bold, Quicksand;font-weight:700;}.j{letter-spacing:0.01em;}.k{letter-spacing:-0.03em;}.l{fill:#9bd9e9;}.m{fill:#f2f2f2;}</style><linearGradient id="a" x1="30.78" y1="41.85" x2="79.65" y2="-2.12" gradientTransform="matrix(1, 0, 0, -1, -30.09, 41.64)" gradientUnits="userSpaceOnUse"><stop offset="0" stop-color="#fff"/><stop offset="1" stop-color="#00ea6f"/></linearGradient></defs><path class="a" d="M62.91,46.06a9.12,9.12,0,0,1-8.46,5.71H14.62c-13,0-17-8.86-13.27-19.7a12.13,12.13,0,0,1,1.18-2.43L4,27.31c.18-.29.35-.6.51-.91,2.32-4.5,4-8.55,4.3-13.28a9,9,0,0,1,5.57-7.34,11.33,11.33,0,0,1,4.06-.92L52.32,3.2c13.51,0,15.2,31.39,10.55,42.88Z" transform="translate(-0.02 -0.2)"/><g class="b"><path class="c" d="M58.12,3.74a1.19,1.19,0,0,0-1.25-1,1.28,1.28,0,0,1-1.28-1.27h0A1,1,0,0,0,54.85.23,1,1,0,0,0,53.61,1h0a1.34,1.34,0,0,0,0,.49,1.28,1.28,0,0,1-1.28,1.28h0a1.18,1.18,0,0,0-1.33,1h0a1.16,1.16,0,0,0,1.28,1A1.29,1.29,0,0,1,53.54,6a1,1,0,0,0,.78,1.23,1,1,0,0,0,1.19-.68.86.86,0,0,0,0-.55,1.29,1.29,0,0,1,1.28-1.28h0A1.18,1.18,0,0,0,58.12,3.74Z" transform="translate(-0.02 -0.2)"/></g><g class="b"><path class="c" d="M62.6,7.31A.6.6,0,0,0,62,6.8a.65.65,0,0,1-.65-.65.52.52,0,0,0-1-.33.24.24,0,0,0,0,.08.36.36,0,0,0,0,.25.66.66,0,0,1-.66.65.53.53,0,0,0-.64.38.52.52,0,0,0,.37.64.62.62,0,0,0,.27,0,.66.66,0,0,1,.64.64.52.52,0,0,0,.36.64h0a.52.52,0,0,0,.64-.36.45.45,0,0,0,0-.28.66.66,0,0,1,.66-.65A.59.59,0,0,0,62.6,7.31Z" transform="translate(-0.02 -0.2)"/></g><path class="c" d="M10.23,35.33l.39.76a.08.08,0,0,0,.11,0h0a.1.1,0,0,0,.07-.09,0,0,0,0,0,0,0h0l-.36-.77-.07,0Z" transform="translate(-0.02 -0.2)"/><path class="c" d="M9.56,33.66l-.4-.75a.08.08,0,0,0-.11,0h0a.07.07,0,0,0,0,.12l.38.75.07,0Z" transform="translate(-0.02 -0.2)"/><path class="c" d="M9,34.82l-.75.4a.1.1,0,0,0-.06.11h0a.1.1,0,0,0,.12.06h0L9.1,35v-.07A.17.17,0,0,1,9,34.82Z" transform="translate(-0.02 -0.2)"/><path class="c" d="M11.4,33.62l-.76.37v.17l.76-.39a.09.09,0,0,0,0-.12.08.08,0,0,0-.11,0Z" transform="translate(-0.02 -0.2)"/><path class="c" d="M9.56,35.32l-.26.76a.09.09,0,0,0,0,.11h.07a0,0,0,0,0,0,0l.26-.75Z" transform="translate(-0.02 -0.2)"/><path class="c" d="M10.25,33.67l.24-.81a.08.08,0,0,0,0-.12.09.09,0,0,0-.13,0h0l-.24.8A.65.65,0,0,1,10.25,33.67Z" transform="translate(-0.02 -0.2)"/><path class="c" d="M10.72,34.85l.8.25h.07a.06.06,0,0,0,0-.06.08.08,0,0,0,0-.1h0l-.8-.25A.43.43,0,0,1,10.72,34.85Z" transform="translate(-0.02 -0.2)"/><path class="c" d="M9,34.17l-.75-.28a.09.09,0,1,0-.13.13h.05l.79.25S9,34.21,9,34.17Z" transform="translate(-0.02 -0.2)"/><path class="d" d="M17.49,22.72H49.12A1.87,1.87,0,0,1,51,24.58h0V43.7a1.88,1.88,0,0,1-1.88,1.88H16.79A1.88,1.88,0,0,1,14.9,43.7h0V25.3A2.62,2.62,0,0,1,17.49,22.72Z" transform="translate(-0.02 -0.2)"/><rect class="e" x="27.54" y="27.33" width="10.79" height="18.02"/><rect class="f" x="28.34" y="28.02" width="9.18" height="17.36"/><rect class="e" x="39.82" y="27.33" width="9.67" height="14.39"/><rect class="f" x="40.51" y="28.02" width="8.3" height="12.95"/><rect class="e" x="16.37" y="27.33" width="9.67" height="14.39"/><rect class="f" x="17.07" y="28.02" width="8.3" height="12.95"/><rect class="f" x="23.13" y="14.87" width="1.57" height="8.32"/><rect class="f" x="41.17" y="14.87" width="1.57" height="8.32"/><rect class="e" x="13.19" y="21.97" width="39.47" height="2.67" rx="1.33"/><path class="e" d="M15.5,9.53H50.4a2.28,2.28,0,0,1,2.28,2.28h0v5.26a2.5,2.5,0,0,1-2.5,2.5H15.5a2.28,2.28,0,0,1-2.29-2.29h0V11.79A2.28,2.28,0,0,1,15.5,9.53Z" transform="translate(-0.02 -0.2)"/><rect class="d" x="14" y="10.13" width="37.86" height="8.37" rx="2.59"/><path class="e" d="M15.58,44.78h12v.79H16.35c-.2-.56.09-.21,0,0Z" transform="translate(-0.02 -0.2)"/><polygon class="e" points="37.93 44.59 50.3 44.59 49.49 45.37 37.93 45.37 37.93 44.59"/><rect class="g" x="20.34" y="31.6" width="1.73" height="6.05"/><rect class="g" x="18.19" y="33.77" width="6.05" height="1.73"/><g class="h"><text class="i" transform="translate(26.05 15.67)">C</text><text class="j" transform="translate(29.29 15.67)">L</text><text class="i" transform="translate(31.68 15.67)">I</text><text class="k" transform="translate(32.97 15.67)">N</text><text class="i" transform="translate(36.06 15.67)">IC</text></g><polygon class="l" points="17.06 40.97 25.36 28.02 25.36 40.97 17.06 40.97"/><polygon class="l" points="40.51 40.97 48.81 28.02 48.81 40.97 40.51 40.97"/><circle class="m" cx="36.23" cy="36.98" r="0.67"/></svg>