<?xml version="1.0" encoding="utf-8"?>
<!-- Generator: Adobe Illustrator 25.0.1, SVG Export Plug-In . SVG Version: 6.00 Build 0)  -->
<svg version="1.1" id="Layer_1" xmlns="http://www.w3.org/2000/svg" xmlns:xlink="http://www.w3.org/1999/xlink" x="0px" y="0px"
	 viewBox="0 0 53.3 58.2" style="enable-background:new 0 0 53.3 58.2;" xml:space="preserve">
<style type="text/css">
	.st0{fill:#E046BF;}
	.st1{fill:#FFFFFF;stroke:#474748;stroke-width:0.5;stroke-linecap:round;stroke-linejoin:round;}
	.st2{fill:#474748;}
	.st3{fill:#FFFFFF;}
	.st4{fill:#EAEAE9;}
	.st5{enable-background:new    ;}
</style>
<path class="st0" d="M27.6,3.3L27.6,3.3c13.3,0,24,10.8,24,24v0c0,13.3-10.8,24-24,24H8.2c-2.6,0-4.6-2.1-4.6-4.6V27.3
	C3.6,14,14.4,3.3,27.6,3.3z"/>
<g>
	
		<image style="overflow:visible;opacity:0.49;" width="68" height="51" xlink:href="3D5A41EF.png"  transform="matrix(1 0 0 1 -7.4786 10.9879)">
	</image>
	<g>
		<g>
			<rect x="33.7" y="22.6" class="st1" width="11.1" height="15.7"/>
			<path class="st2" d="M34.1,22.2H45c0.2,0,0.4,0.2,0.4,0.4v0c0,0.2-0.2,0.4-0.4,0.4H34.1c-0.2,0-0.4-0.2-0.4-0.4v0
				C33.7,22.4,33.8,22.2,34.1,22.2z"/>
			<path class="st2" d="M34.1,29.8H45c0.2,0,0.4,0.2,0.4,0.4v0c0,0.2-0.2,0.4-0.4,0.4H34.1c-0.2,0-0.4-0.2-0.4-0.4v0
				C33.7,29.9,33.8,29.8,34.1,29.8z"/>
			<rect x="41.4" y="23.5" class="st2" width="2.8" height="2.4"/>
			<rect x="41.6" y="23.7" class="st3" width="2.4" height="2"/>
			<rect x="41.4" y="24.5" class="st2" width="2.8" height="0.4"/>
			<rect x="42.6" y="23.6" class="st2" width="0.4" height="2.2"/>
			<rect x="37.7" y="23.5" class="st2" width="2.8" height="2.4"/>
			<rect x="37.9" y="23.7" class="st3" width="2.4" height="2"/>
			<rect x="37.7" y="24.5" class="st2" width="2.8" height="0.4"/>
			<rect x="38.9" y="23.6" class="st2" width="0.4" height="2.2"/>
			<rect x="34" y="23.5" class="st2" width="2.8" height="2.4"/>
			<rect x="34.2" y="23.7" class="st3" width="2.4" height="2"/>
			<rect x="34" y="24.5" class="st2" width="2.8" height="0.4"/>
			<rect x="35.1" y="23.6" class="st2" width="0.4" height="2.2"/>
			<rect x="41.4" y="26.3" class="st2" width="2.8" height="2.4"/>
			<rect x="41.6" y="26.5" class="st3" width="2.4" height="2"/>
			<rect x="41.4" y="27.3" class="st2" width="2.8" height="0.4"/>
			<rect x="42.6" y="26.4" class="st2" width="0.4" height="2.2"/>
			<rect x="37.7" y="26.3" class="st2" width="2.8" height="2.4"/>
			<rect x="37.9" y="26.5" class="st3" width="2.4" height="2"/>
			<rect x="37.7" y="27.3" class="st2" width="2.8" height="0.4"/>
			<rect x="38.9" y="26.4" class="st2" width="0.4" height="2.2"/>
			<rect x="34" y="26.3" class="st2" width="2.8" height="2.4"/>
			<rect x="34.2" y="26.5" class="st3" width="2.4" height="2"/>
			<rect x="34" y="27.3" class="st2" width="2.8" height="0.4"/>
			<rect x="35.1" y="26.4" class="st2" width="0.4" height="2.2"/>
			<rect x="41.4" y="31.2" class="st2" width="2.8" height="5.5"/>
			<rect x="41.7" y="31.5" class="st3" width="2.3" height="4.9"/>
			<rect x="41.4" y="33.8" class="st2" width="2.8" height="0.4"/>
			<rect x="42.6" y="31.4" class="st2" width="0.4" height="5.2"/>
			<rect x="37.7" y="31.2" class="st2" width="2.8" height="5.5"/>
			<rect x="37.9" y="31.5" class="st3" width="2.3" height="4.9"/>
			<rect x="37.7" y="33.8" class="st2" width="2.8" height="0.4"/>
			<rect x="38.9" y="31.4" class="st2" width="0.4" height="5.2"/>
			<rect x="34" y="31.2" class="st2" width="2.8" height="5.5"/>
			<rect x="34.2" y="31.5" class="st3" width="2.3" height="4.9"/>
			<rect x="34" y="33.8" class="st2" width="2.8" height="0.4"/>
			<rect x="35.1" y="31.4" class="st2" width="0.4" height="5.2"/>
			<rect x="8.9" y="22.6" class="st1" width="11.1" height="15.7"/>
			<path class="st2" d="M8.6,22.2h10.9c0.2,0,0.4,0.2,0.4,0.4v0c0,0.2-0.2,0.4-0.4,0.4H8.6c-0.2,0-0.4-0.2-0.4-0.4v0
				C8.2,22.4,8.4,22.2,8.6,22.2z"/>
			<path class="st2" d="M8.6,29.8h10.9c0.2,0,0.4,0.2,0.4,0.4v0c0,0.2-0.2,0.4-0.4,0.4H8.6c-0.2,0-0.4-0.2-0.4-0.4v0
				C8.2,29.9,8.4,29.8,8.6,29.8z"/>
			<rect x="9.4" y="23.5" class="st2" width="2.8" height="2.4"/>
			<rect x="9.6" y="23.7" class="st3" width="2.4" height="2"/>
			<rect x="9.4" y="24.5" class="st2" width="2.8" height="0.4"/>
			<rect x="10.6" y="23.6" class="st2" width="0.4" height="2.2"/>
			<rect x="13.1" y="23.5" class="st2" width="2.8" height="2.4"/>
			<rect x="13.3" y="23.7" class="st3" width="2.4" height="2"/>
			<rect x="13.1" y="24.5" class="st2" width="2.8" height="0.4"/>
			<rect x="14.3" y="23.6" class="st2" width="0.4" height="2.2"/>
			<rect x="16.8" y="23.5" class="st2" width="2.8" height="2.4"/>
			<rect x="17.1" y="23.7" class="st3" width="2.4" height="2"/>
			<rect x="16.8" y="24.5" class="st2" width="2.8" height="0.4"/>
			<rect x="18" y="23.6" class="st2" width="0.4" height="2.2"/>
			<rect x="9.4" y="26.3" class="st2" width="2.8" height="2.4"/>
			<rect x="9.6" y="26.5" class="st3" width="2.4" height="2"/>
			<rect x="9.4" y="27.3" class="st2" width="2.8" height="0.4"/>
			<rect x="10.6" y="26.4" class="st2" width="0.4" height="2.2"/>
			<rect x="13.1" y="26.3" class="st2" width="2.8" height="2.4"/>
			<rect x="13.3" y="26.5" class="st3" width="2.4" height="2"/>
			<rect x="13.1" y="27.3" class="st2" width="2.8" height="0.4"/>
			<rect x="14.3" y="26.4" class="st2" width="0.4" height="2.2"/>
			<rect x="16.8" y="26.3" class="st2" width="2.8" height="2.4"/>
			<rect x="17.1" y="26.5" class="st3" width="2.4" height="2"/>
			<rect x="16.8" y="27.3" class="st2" width="2.8" height="0.4"/>
			<rect x="18" y="26.4" class="st2" width="0.4" height="2.2"/>
			<rect x="9.4" y="31.2" class="st2" width="2.8" height="5.5"/>
			<rect x="9.7" y="31.5" class="st3" width="2.3" height="4.9"/>
			<rect x="9.4" y="33.8" class="st2" width="2.8" height="0.4"/>
			<rect x="10.6" y="31.4" class="st2" width="0.4" height="5.2"/>
			<rect x="13.1" y="31.2" class="st2" width="2.8" height="5.5"/>
			<rect x="13.4" y="31.5" class="st3" width="2.3" height="4.9"/>
			<rect x="13.1" y="33.8" class="st2" width="2.8" height="0.4"/>
			<rect x="14.3" y="31.4" class="st2" width="0.4" height="5.2"/>
			<rect x="16.8" y="31.2" class="st2" width="2.8" height="5.5"/>
			<rect x="17.1" y="31.5" class="st3" width="2.3" height="4.9"/>
			<rect x="16.8" y="33.8" class="st2" width="2.8" height="0.4"/>
			<rect x="18" y="31.4" class="st2" width="0.4" height="5.2"/>
			<rect x="19.9" y="19.6" class="st1" width="13.7" height="18.6"/>
			<path class="st2" d="M19.6,29H34c0.2,0,0.4,0.2,0.4,0.4v0c0,0.2-0.2,0.4-0.4,0.4H19.6c-0.2,0-0.4-0.2-0.4-0.4v0
				C19.2,29.1,19.4,29,19.6,29z"/>
			<path class="st2" d="M19.6,19.6H34c0.2,0,0.4,0.2,0.4,0.4l0,0c0,0.2-0.2,0.4-0.4,0.4H19.6c-0.2,0-0.4-0.2-0.4-0.4l0,0
				C19.2,19.8,19.4,19.6,19.6,19.6z"/>
			<path class="st2" d="M22.7,30.4h8.2c0.3,0,0.5,0.2,0.5,0.5v6.9c0,0.3-0.2,0.5-0.5,0.5h-8.2c-0.3,0-0.5-0.2-0.5-0.5v-6.9
				C22.2,30.6,22.4,30.4,22.7,30.4z"/>
			<rect x="21.2" y="25" class="st2" width="3.1" height="2.6"/>
			<rect x="21.4" y="25.2" class="st3" width="2.6" height="2.2"/>
			<rect x="21.2" y="26.1" class="st2" width="3.1" height="0.5"/>
			<rect x="22.5" y="25.1" class="st2" width="0.5" height="2.4"/>
			<rect x="25.3" y="25" class="st2" width="3.1" height="2.6"/>
			<rect x="25.5" y="25.2" class="st3" width="2.6" height="2.2"/>
			<rect x="25.3" y="26.1" class="st2" width="3.1" height="0.5"/>
			<rect x="26.6" y="25.1" class="st2" width="0.5" height="2.4"/>
			<rect x="29.4" y="25" class="st2" width="3.1" height="2.6"/>
			<rect x="29.6" y="25.2" class="st3" width="2.6" height="2.2"/>
			<rect x="29.4" y="26.1" class="st2" width="3.1" height="0.5"/>
			<rect x="30.7" y="25.1" class="st2" width="0.5" height="2.4"/>
			<rect x="22.7" y="30.9" class="st1" width="8.2" height="7.4"/>
			<path class="st4" d="M25,32h3.6c0.4,0,0.8,0.4,0.8,0.8v4.4c0,0.4-0.4,0.8-0.8,0.8H25c-0.4,0-0.8-0.4-0.8-0.8v-4.4
				C24.2,32.3,24.6,32,25,32z"/>
			<polygon class="st3" points="24.2,32 22.7,30.9 30.9,30.9 29.4,32 			"/>
			<rect x="22.2" y="37.7" class="st2" width="9.2" height="0.6"/>
			<rect x="22.2" y="38" class="st2" width="9.2" height="0.3"/>
			<path class="st2" d="M21.6,38.3H32c0.2,0,0.4,0.2,0.4,0.4l0,0c0,0.2-0.2,0.4-0.4,0.4H21.6c-0.2,0-0.4-0.2-0.4-0.4l0,0
				C21.2,38.4,21.4,38.3,21.6,38.3z"/>
			<polyline class="st2" points="32.4,38.7 32.4,39 21.2,39 21.2,38.7 			"/>
			<path class="st2" d="M20.8,39h11.9c0.2,0,0.4,0.2,0.4,0.4v0c0,0.2-0.2,0.4-0.4,0.4H20.8c-0.2,0-0.4-0.2-0.4-0.4v0
				C20.4,39.2,20.6,39,20.8,39z"/>
			<path class="st4" d="M22.2,21.6h9.7c0.6,0,1,0.5,1,1v0c0,0.6-0.5,1-1,1h-9.7c-0.6,0-1-0.5-1-1v0C21.2,22.1,21.6,21.6,22.2,21.6z"
				/>
			<g class="st5">
				<path class="st2" d="M22.6,22.6c0-0.4,0.3-0.7,0.7-0.7c0.2,0,0.3,0.1,0.5,0.2c0,0,0.1,0.1,0,0.2c0,0.1-0.1,0.1-0.2,0
					c-0.1-0.1-0.2-0.1-0.3-0.1c-0.1,0-0.3,0.1-0.4,0.1c-0.1,0.1-0.1,0.2-0.1,0.3s0.1,0.3,0.1,0.4c0.1,0.1,0.2,0.1,0.4,0.1
					c0.1,0,0.2,0,0.3-0.1c0,0,0.1,0,0.2,0c0,0.1,0,0.1,0,0.2c-0.1,0.1-0.3,0.2-0.5,0.2C22.9,23.4,22.6,23,22.6,22.6z"/>
			</g>
			<path class="st2" d="M25,22.1c0.1,0.1,0.2,0.3,0.2,0.5c0,0.2-0.1,0.4-0.2,0.5c-0.1,0.1-0.3,0.2-0.5,0.2c-0.2,0-0.4-0.1-0.5-0.2
				c-0.1-0.1-0.2-0.3-0.2-0.5c0-0.2,0.1-0.4,0.2-0.5c0.1-0.1,0.3-0.2,0.5-0.2C24.8,21.9,24.9,22,25,22.1z M25,22.6
				c0-0.1-0.1-0.3-0.1-0.4c-0.1-0.1-0.2-0.1-0.3-0.1c-0.1,0-0.2,0.1-0.3,0.1c-0.1,0.1-0.1,0.2-0.1,0.4s0.1,0.3,0.1,0.4
				c0.1,0.1,0.2,0.1,0.3,0.1c0.1,0,0.2-0.1,0.3-0.1C25,22.9,25,22.8,25,22.6z"/>
			<path class="st2" d="M25.4,23.2V22c0-0.1,0-0.1,0.1-0.1c0.1,0,0.1,0.1,0.1,0.1v1.1h0.5c0.1,0,0.1,0.1,0.1,0.1
				c0,0.1-0.1,0.1-0.1,0.1h-0.7c0,0,0,0,0,0c0,0,0,0,0,0C25.5,23.3,25.4,23.3,25.4,23.2z"/>
			<path class="st2" d="M26.6,23.2V22c0-0.1,0-0.1,0.1-0.1c0.1,0,0.1,0.1,0.1,0.1v1.1h0.5c0.1,0,0.1,0.1,0.1,0.1
				c0,0.1-0.1,0.1-0.1,0.1h-0.7c0,0,0,0,0,0c0,0,0,0,0,0C26.6,23.3,26.6,23.3,26.6,23.2z"/>
			<g class="st5">
				<path class="st2" d="M27.7,23.3v-1.2c0-0.1,0-0.1,0.1-0.1h0c0,0,0,0,0,0h0.7c0.1,0,0.1,0,0.1,0.1c0,0.1-0.1,0.1-0.1,0.1h-0.5
					v0.4h0.5c0.1,0,0.1,0.1,0.1,0.1c0,0.1-0.1,0.1-0.1,0.1h-0.5v0.4h0.5c0.1,0,0.1,0.1,0.1,0.1c0,0.1-0.1,0.1-0.1,0.1h-0.7
					c0,0,0,0,0,0l0,0C27.7,23.4,27.7,23.3,27.7,23.3z"/>
			</g>
			<g class="st5">
				<path class="st2" d="M28.7,22.6c0-0.4,0.3-0.7,0.7-0.7c0.2,0,0.3,0.1,0.5,0.2c0.1,0,0.1,0.1,0,0.2c0,0-0.1,0.1-0.2,0
					c-0.1-0.1-0.2-0.1-0.3-0.1c-0.1,0-0.3,0.1-0.4,0.1C29,22.4,29,22.5,29,22.6c0,0.1,0.1,0.3,0.2,0.3c0.1,0.1,0.2,0.1,0.4,0.1
					c0.1,0,0.2,0,0.3-0.1v-0.3h-0.3c-0.1,0-0.1-0.1-0.1-0.1c0-0.1,0.1-0.1,0.1-0.1h0.4c0,0,0,0,0,0c0,0,0,0,0,0c0.1,0,0.1,0,0.1,0.1
					v0.4c0,0,0,0,0,0c0,0,0,0,0,0v0c0,0,0,0,0,0c-0.1,0.1-0.3,0.2-0.5,0.2C29.1,23.4,28.7,23.1,28.7,22.6z"/>
				<path class="st2" d="M30.4,23.3v-1.2c0-0.1,0-0.1,0.1-0.1h0c0,0,0,0,0,0h0.7c0.1,0,0.1,0,0.1,0.1c0,0.1-0.1,0.1-0.1,0.1h-0.5
					v0.4h0.5c0.1,0,0.1,0.1,0.1,0.1c0,0.1-0.1,0.1-0.1,0.1h-0.5v0.4h0.5c0.1,0,0.1,0.1,0.1,0.1c0,0.1-0.1,0.1-0.1,0.1h-0.7
					c0,0,0,0,0,0l0,0C30.5,23.4,30.4,23.3,30.4,23.3z"/>
			</g>
		</g>
	</g>
</g>
</svg>
