<svg xmlns="http://www.w3.org/2000/svg" viewBox="0 0 142.48 141.87"><defs><style>.cls-1{opacity:0.1;}.cls-2{fill:#f79a23;}.cls-3{fill:#dd7f19;}.cls-4,.cls-6{fill:#fff;}.cls-4{stroke:#474748;stroke-linecap:round;stroke-linejoin:round;stroke-width:0.5px;}.cls-5,.cls-8{fill:#474748;}.cls-7{fill:#eaeae9;}.cls-8{font-size:6.6px;font-family:Lato-Black, Lato;}.cls-9{letter-spacing:-0.02em;}.cls-10{letter-spacing:-0.01em;}</style></defs><title>Asset 10</title><g id="Layer_2" data-name="Layer 2"><g id="Layer_1-2" data-name="Layer 1"><rect class="cls-1" x="4.23" y="3.62" width="138.25" height="138.25" rx="5.97" ry="5.97"/><rect class="cls-2" width="138.25" height="138.25" rx="5.97" ry="5.97"/><path class="cls-3" d="M10.23,97.24l49.56,41h72.56a5.91,5.91,0,0,0,5.9-5.9V59.24l-8-14.82L111,51.81,94,35.85,77.65,42.46Z"/><rect class="cls-4" x="91.68" y="45.74" width="36.33" height="51.5"/><rect class="cls-5" x="91.68" y="44.42" width="38.58" height="2.64"/><rect class="cls-5" x="91.68" y="46.41" width="38.58" height="0.65"/><rect class="cls-5" x="91.68" y="69.26" width="38.58" height="2.64"/><rect class="cls-5" x="91.68" y="71.25" width="38.58" height="0.65"/><rect class="cls-5" x="117.08" y="48.66" width="9.22" height="7.74"/><rect class="cls-6" x="117.82" y="49.28" width="7.74" height="6.5"/><rect class="cls-5" x="117.08" y="51.81" width="9.22" height="1.37"/><rect class="cls-5" x="121" y="48.89" width="1.37" height="7.29"/><rect class="cls-5" x="104.86" y="48.66" width="9.22" height="7.74"/><rect class="cls-6" x="105.6" y="49.28" width="7.74" height="6.5"/><rect class="cls-5" x="104.86" y="51.81" width="9.22" height="1.37"/><rect class="cls-5" x="108.78" y="48.89" width="1.37" height="7.29"/><rect class="cls-5" x="92.64" y="48.66" width="9.22" height="7.74"/><rect class="cls-6" x="93.38" y="49.28" width="7.74" height="6.5"/><rect class="cls-5" x="92.64" y="51.81" width="9.22" height="1.37"/><rect class="cls-5" x="96.56" y="48.89" width="1.37" height="7.29"/><rect class="cls-5" x="117.08" y="57.95" width="9.22" height="7.74"/><rect class="cls-6" x="117.82" y="58.58" width="7.74" height="6.5"/><rect class="cls-5" x="117.08" y="61.1" width="9.22" height="1.37"/><rect class="cls-5" x="121" y="58.18" width="1.37" height="7.29"/><rect class="cls-5" x="104.86" y="57.95" width="9.22" height="7.74"/><rect class="cls-6" x="105.6" y="58.58" width="7.74" height="6.5"/><rect class="cls-5" x="104.86" y="61.1" width="9.22" height="1.37"/><rect class="cls-5" x="108.78" y="58.18" width="1.37" height="7.29"/><rect class="cls-5" x="92.64" y="57.95" width="9.22" height="7.74"/><rect class="cls-6" x="93.38" y="58.58" width="7.74" height="6.5"/><rect class="cls-5" x="92.64" y="61.1" width="9.22" height="1.37"/><rect class="cls-5" x="96.56" y="58.18" width="1.37" height="7.29"/><rect class="cls-5" x="117.08" y="74.07" width="9.22" height="17.96"/><rect class="cls-6" x="117.96" y="75.03" width="7.45" height="15.96"/><rect class="cls-5" x="117.08" y="82.37" width="9.22" height="1.37"/><rect class="cls-5" x="121" y="74.52" width="1.37" height="17.06"/><rect class="cls-5" x="104.86" y="74.07" width="9.22" height="17.96"/><rect class="cls-6" x="105.74" y="75.03" width="7.45" height="15.96"/><rect class="cls-5" x="104.86" y="82.37" width="9.22" height="1.37"/><rect class="cls-5" x="108.78" y="74.52" width="1.37" height="17.06"/><rect class="cls-5" x="92.64" y="74.07" width="9.22" height="17.96"/><rect class="cls-6" x="93.52" y="75.03" width="7.45" height="15.96"/><rect class="cls-5" x="92.64" y="82.37" width="9.22" height="1.37"/><rect class="cls-5" x="96.56" y="74.52" width="1.37" height="17.06"/><rect class="cls-4" x="10.23" y="45.74" width="36.33" height="51.5"/><rect class="cls-5" x="7.99" y="44.42" width="38.58" height="2.64"/><rect class="cls-5" x="7.99" y="46.41" width="38.58" height="0.65"/><rect class="cls-5" x="7.99" y="69.26" width="38.58" height="2.64"/><rect class="cls-5" x="7.99" y="71.25" width="38.58" height="0.65"/><rect class="cls-5" x="11.95" y="48.66" width="9.22" height="7.74"/><rect class="cls-6" x="12.69" y="49.28" width="7.74" height="6.5"/><rect class="cls-5" x="11.95" y="51.81" width="9.22" height="1.37"/><rect class="cls-5" x="15.88" y="48.89" width="1.37" height="7.29"/><rect class="cls-5" x="24.17" y="48.66" width="9.22" height="7.74"/><rect class="cls-6" x="24.91" y="49.28" width="7.74" height="6.5"/><rect class="cls-5" x="24.17" y="51.81" width="9.22" height="1.37"/><rect class="cls-5" x="28.1" y="48.89" width="1.37" height="7.29"/><rect class="cls-5" x="36.39" y="48.66" width="9.22" height="7.74"/><rect class="cls-6" x="37.13" y="49.28" width="7.74" height="6.5"/><rect class="cls-5" x="36.39" y="51.81" width="9.22" height="1.37"/><rect class="cls-5" x="40.32" y="48.89" width="1.37" height="7.29"/><rect class="cls-5" x="11.95" y="57.95" width="9.22" height="7.74"/><rect class="cls-6" x="12.69" y="58.58" width="7.74" height="6.5"/><rect class="cls-5" x="11.95" y="61.1" width="9.22" height="1.37"/><rect class="cls-5" x="15.88" y="58.18" width="1.37" height="7.29"/><rect class="cls-5" x="24.17" y="57.95" width="9.22" height="7.74"/><rect class="cls-6" x="24.91" y="58.58" width="7.74" height="6.5"/><rect class="cls-5" x="24.17" y="61.1" width="9.22" height="1.37"/><rect class="cls-5" x="28.1" y="58.18" width="1.37" height="7.29"/><rect class="cls-5" x="36.39" y="57.95" width="9.22" height="7.74"/><rect class="cls-6" x="37.13" y="58.58" width="7.74" height="6.5"/><rect class="cls-5" x="36.39" y="61.1" width="9.22" height="1.37"/><rect class="cls-5" x="40.32" y="58.18" width="1.37" height="7.29"/><rect class="cls-5" x="11.95" y="74.07" width="9.22" height="17.96"/><rect class="cls-6" x="12.84" y="75.03" width="7.45" height="15.96"/><rect class="cls-5" x="11.95" y="82.37" width="9.22" height="1.37"/><rect class="cls-5" x="15.88" y="74.52" width="1.37" height="17.06"/><rect class="cls-5" x="24.17" y="74.07" width="9.22" height="17.96"/><rect class="cls-6" x="25.06" y="75.03" width="7.45" height="15.96"/><rect class="cls-5" x="24.17" y="82.37" width="9.22" height="1.37"/><rect class="cls-5" x="28.1" y="74.52" width="1.37" height="17.06"/><rect class="cls-5" x="36.39" y="74.07" width="9.22" height="17.96"/><rect class="cls-6" x="37.28" y="75.03" width="7.45" height="15.96"/><rect class="cls-5" x="36.39" y="82.37" width="9.22" height="1.37"/><rect class="cls-5" x="40.32" y="74.52" width="1.37" height="17.06"/><rect class="cls-4" x="46.56" y="35.98" width="45.12" height="61.27"/><rect class="cls-5" x="44.21" y="66.61" width="49.83" height="2.64"/><rect class="cls-5" x="44.21" y="68.6" width="49.83" height="0.65"/><rect class="cls-5" x="44.21" y="35.85" width="49.83" height="2.64"/><rect class="cls-5" x="44.21" y="37.84" width="49.83" height="0.65"/><rect class="cls-5" x="54.08" y="71.3" width="30.08" height="25.95"/><rect class="cls-5" x="50.56" y="53.65" width="10.03" height="8.42"/><rect class="cls-6" x="51.37" y="54.33" width="8.42" height="7.07"/><rect class="cls-5" x="50.56" y="57.08" width="10.03" height="1.49"/><rect class="cls-5" x="54.84" y="53.9" width="1.49" height="7.92"/><rect class="cls-5" x="64.11" y="53.65" width="10.03" height="8.42"/><rect class="cls-6" x="64.91" y="54.33" width="8.42" height="7.07"/><rect class="cls-5" x="64.11" y="57.08" width="10.03" height="1.49"/><rect class="cls-5" x="68.38" y="53.9" width="1.49" height="7.92"/><rect class="cls-5" x="77.65" y="53.65" width="10.03" height="8.42"/><rect class="cls-6" x="78.46" y="54.33" width="8.42" height="7.07"/><rect class="cls-5" x="77.65" y="57.08" width="10.03" height="1.49"/><rect class="cls-5" x="81.92" y="53.9" width="1.49" height="7.92"/><rect class="cls-4" x="55.58" y="72.87" width="27.09" height="24.38"/><rect class="cls-7" x="60.59" y="76.55" width="17.06" height="19.71"/><polygon class="cls-6" points="60.59 76.55 55.58 72.87 82.67 72.87 77.65 76.55 60.59 76.55"/><rect class="cls-5" x="54.08" y="95.2" width="30.08" height="2.04"/><rect class="cls-5" x="54.08" y="96.22" width="30.08" height="1.02"/><rect class="cls-5" x="50.83" y="97.24" width="36.59" height="2.48"/><rect class="cls-5" x="50.83" y="98.49" width="36.59" height="1.24"/><rect class="cls-5" x="48.1" y="99.54" width="42.05" height="2.85"/><rect class="cls-5" x="48.1" y="100.97" width="42.05" height="1.43"/><rect class="cls-7" x="50.6" y="42.46" width="38.54" height="6.72"/><text class="cls-8" transform="translate(54.83 48.25)"><tspan class="cls-9">C</tspan><tspan x="4.21" y="0">OLL</tspan><tspan class="cls-10" x="16.51" y="0">E</tspan><tspan x="20.2" y="0">GE</tspan></text></g></g></svg>