<svg xmlns="http://www.w3.org/2000/svg" viewBox="0 0 350 250"><defs><style>.cls-1{fill:none;}.cls-2{fill:#f99d23;}.cls-3{fill:#fcbe2d;}.cls-4{fill:#fcd83e;}.cls-5{fill:#ed8a15;}.cls-6{fill:#303038;}.cls-7{fill:#171a23;}.cls-8{fill:#bbecff;}.cls-9{fill:#80dbff;}</style></defs><title>Asset 9</title><g id="Layer_2" data-name="Layer 2"><g id="Layer_1-2" data-name="Layer 1"><rect class="cls-1" width="350" height="250"/><path class="cls-2" d="M255.24,79.47H135.37a5,5,0,0,0-5.05,5V206.09a5,5,0,0,0,5.05,5H255.24a5,5,0,0,0,5-5V84.52A5,5,0,0,0,255.24,79.47Z"/><path class="cls-3" d="M235.15,59H115.28a5,5,0,0,0-5,5V185.57a5,5,0,0,0,5,5.05H235.15a5,5,0,0,0,5-5.05V64A5,5,0,0,0,235.15,59Z"/><path class="cls-4" d="M214.63,38.86H94.76a5,5,0,0,0-5,5V165.48a5,5,0,0,0,5,5.05H214.63a5,5,0,0,0,5.05-5.05V43.91A5,5,0,0,0,214.63,38.86Z"/><path class="cls-5" d="M255.24,79.47H175V211.14h80.24a5,5,0,0,0,5-5V84.52A5,5,0,0,0,255.24,79.47Z"/><path class="cls-2" d="M235.15,59H175V190.62h60.15a5,5,0,0,0,5-5.05V64A5,5,0,0,0,235.15,59Z"/><path class="cls-3" d="M214.63,38.86H175V170.53h39.63a5,5,0,0,0,5.05-5.05V43.91A5,5,0,0,0,214.63,38.86Z"/><path class="cls-6" d="M187.14,128.08H122.25a5,5,0,1,0,0,10.09h64.89a5,5,0,1,0,0-10.09Z"/><path class="cls-7" d="M187.14,128.08H175v10.09h12.14a5,5,0,1,0,0-10.09Z"/><path class="cls-8" d="M154.7,67.72A24.26,24.26,0,1,0,179,92,24.28,24.28,0,0,0,154.7,67.72Z"/><path class="cls-9" d="M175,78.73v26.5a24.2,24.2,0,0,0,0-26.5Z"/></g></g></svg>