<svg xmlns="http://www.w3.org/2000/svg" width="30.153" height="25.838" viewBox="0 0 30.153 25.838">
  <g id="Icon_ionic-ios-desktop" data-name="Icon ionic-ios-desktop" transform="translate(-2.25 -4.5)">
    <path id="Path_167" data-name="Path 167" d="M24.172,30.965a.343.343,0,0,0-.283-.289l-1.5-.128a2.338,2.338,0,0,1-1.5-1.9l-.081-.518H14.615l-.081.512a2.35,2.35,0,0,1-1.5,1.9l-1.5.128a.367.367,0,0,0-.283.289.345.345,0,0,0,.343.39H23.829A.34.34,0,0,0,24.172,30.965Z" transform="translate(-0.385 -1.011)" fill="#927ad5"/>
    <path id="Path_168" data-name="Path 168" d="M31.925,4.971A1.626,1.626,0,0,0,30.781,4.5H3.879a1.614,1.614,0,0,0-1.144.471A1.639,1.639,0,0,0,2.25,6.115V24.422a1.627,1.627,0,0,0,.485,1.144,1.6,1.6,0,0,0,1.131.471H30.787a1.583,1.583,0,0,0,1.131-.471,1.639,1.639,0,0,0,.485-1.144V6.115A1.6,1.6,0,0,0,31.925,4.971Zm-14.6,19.451a.538.538,0,1,1,.538-.538A.54.54,0,0,1,17.326,24.422ZM31.05,21.73H3.61a.27.27,0,0,1-.269-.269V6.385a.81.81,0,0,1,.808-.808H30.511a.81.81,0,0,1,.808.808V21.461A.27.27,0,0,1,31.05,21.73Z" fill="#927ad5"/>
  </g>
</svg>
