<svg xmlns="http://www.w3.org/2000/svg" xmlns:xlink="http://www.w3.org/1999/xlink" viewBox="0 0 96.54 77.15"><defs><style>.a{fill:url(#a);}.b{fill:#3f98d3;}.c{fill:#1b75ba;}.d{fill:#fff;stroke:#3f98d3;stroke-miterlimit:10;stroke-width:0.75px;}.e{fill:#e5e5e4;}.f{fill:#f1e6e9;}.g{fill:#9bd9e9;}.g,.j{opacity:0.5;}.g,.i{isolation:isolate;}.h{fill:#c0272d;}.i{opacity:0.1;}.k{fill:#0c5e91;}</style><linearGradient id="a" x1="122.52" y1="1071.41" x2="32.36" y2="1014.86" gradientTransform="translate(-18.72 -1005.78)" gradientUnits="userSpaceOnUse"><stop offset="0" stop-color="#00ea6f"/><stop offset="1" stop-color="#fff"/></linearGradient></defs><path class="a" d="M21.86,15.61A13.56,13.56,0,0,1,34.39,7.15H93.33c19.18,0,25.24,13.14,19.62,29.22A18,18,0,0,1,111.22,40l-2.17,3.46c-.27.44-.53.86-.77,1.34-3.46,6.68-5.89,12.67-6.36,19.68-.37,5.08-4,8.93-8.26,10.86a16.5,16.5,0,0,1-6,1.36L37.49,79.16c-20,0-22.49-46.5-15.63-63.5Z" transform="translate(-18.42 -2.01)"/><rect class="b" x="37.16" y="13.28" width="1.24" height="3.96"/><rect class="b" x="46.35" y="13.28" width="1.24" height="3.96"/><path class="c" d="M100,70.81a.45.45,0,0,1-.46.44H21.76V69.81a.44.44,0,0,1,.45-.43H99.54a.45.45,0,0,1,.46.43Z" transform="translate(-18.42 -2.01)"/><rect class="d" x="26.76" y="20.37" width="31.4" height="46.97"/><rect class="b" x="26.76" y="63.56" width="31.4" height="3.77"/><rect class="d" x="58.15" y="30.9" width="21.74" height="36.43"/><rect class="b" x="58.15" y="64.41" width="21.74" height="2.92"/><rect class="d" x="35.65" y="0.38" width="13.46" height="13.46" rx="2.27"/><rect class="b" x="26.76" y="18.65" width="31.4" height="1.71"/><rect class="b" x="42.24" y="55.9" width="6.25" height="13.06" rx="0.19"/><rect class="e" x="42.38" y="56.11" width="5.98" height="12.64" rx="0.18"/><path class="c" d="M61.31,70.21V58.83a.18.18,0,0,1,.18-.18h4.59a.19.19,0,0,1,.19.18V70.21Z" transform="translate(-18.42 -2.01)"/><path class="f" d="M61.71,64.43a.38.38,0,0,0,.37.37h0a.36.36,0,0,0,.37-.35v0a.38.38,0,0,0-.36-.38h0A.38.38,0,0,0,61.71,64.43Z" transform="translate(-18.42 -2.01)"/><rect class="b" x="35.99" y="55.9" width="6.25" height="13.06" rx="0.19"/><rect class="e" x="36.12" y="56.11" width="5.98" height="12.64" rx="0.18"/><path class="c" d="M60,70.21V58.83a.18.18,0,0,0-.18-.18H55.24a.18.18,0,0,0-.18.18h0V70.21Z" transform="translate(-18.42 -2.01)"/><path class="f" d="M59.61,64.43a.38.38,0,0,1-.37.37h0a.36.36,0,0,1-.37-.35v0a.38.38,0,0,1,.36-.38h0A.38.38,0,0,1,59.61,64.43Z" transform="translate(-18.42 -2.01)"/><path class="b" d="M67.35,70.21H54c-.1,0-.18.12-.18.27v.77H67.53v-.77C67.53,70.33,67.45,70.21,67.35,70.21Z" transform="translate(-18.42 -2.01)"/><rect class="b" x="29.37" y="21.97" width="26.16" height="5.8" rx="0.43"/><path class="g" d="M74,29.34a.44.44,0,0,1-.44.43H48.23a.44.44,0,0,1-.44-.43S74,24.17,74,24.41Z" transform="translate(-18.42 -2.01)"/><rect class="b" x="29.37" y="30.63" width="26.16" height="5.8" rx="0.43"/><path class="g" d="M74,38a.44.44,0,0,1-.44.44H48.23a.44.44,0,0,1-.44-.44S74,32.83,74,33.07Z" transform="translate(-18.42 -2.01)"/><rect class="b" x="29.37" y="39.29" width="26.16" height="5.8" rx="0.43"/><path class="g" d="M74,46.66a.44.44,0,0,1-.44.44H48.23a.44.44,0,0,1-.44-.44S74,41.5,74,41.74Z" transform="translate(-18.42 -2.01)"/><rect class="b" x="29.37" y="47.95" width="26.16" height="5.8" rx="0.43"/><path class="g" d="M74,55.33a.44.44,0,0,1-.44.43H48.23a.44.44,0,0,1-.44-.43S74,50.16,74,50.4Z" transform="translate(-18.42 -2.01)"/><rect class="b" x="29.37" y="55.68" width="5.74" height="5.8" rx="0.43"/><path class="g" d="M53.53,63a.43.43,0,0,1-.43.43H48.23a.44.44,0,0,1-.44-.43s5.74-5.17,5.74-4.93Z" transform="translate(-18.42 -2.01)"/><rect class="b" x="49.8" y="55.68" width="5.74" height="5.8" rx="0.43"/><path class="g" d="M74,63a.44.44,0,0,1-.44.43H68.65a.43.43,0,0,1-.43-.43h0S74,57.87,74,58.11Z" transform="translate(-18.42 -2.01)"/><rect class="b" x="60.16" y="32.79" width="17.91" height="5.8" rx="0.43"/><path class="g" d="M96.48,40.15a.43.43,0,0,1-.43.43H79a.43.43,0,0,1-.43-.43h0s17.9-5.17,17.9-4.93Z" transform="translate(-18.42 -2.01)"/><rect class="b" x="60.16" y="40.24" width="17.91" height="5.8" rx="0.43"/><path class="g" d="M96.48,47.61a.43.43,0,0,1-.43.43H79a.43.43,0,0,1-.43-.43h0s17.9-5.17,17.9-4.93Z" transform="translate(-18.42 -2.01)"/><rect class="b" x="60.16" y="52.15" width="17.91" height="5.8" rx="0.43"/><path class="g" d="M96.48,59.52a.43.43,0,0,1-.43.43H79a.43.43,0,0,1-.43-.43h0s17.9-5.17,17.9-4.93Z" transform="translate(-18.42 -2.01)"/><rect class="b" x="60.16" y="59.61" width="17.91" height="5.8" rx="0.43"/><path class="g" d="M96.48,67a.43.43,0,0,1-.43.43H79a.43.43,0,0,1-.43-.43h0s17.9-5.17,17.9-4.93Z" transform="translate(-18.42 -2.01)"/><rect class="c" x="25.23" y="16.09" width="34.44" height="2.86" rx="1.43"/><rect class="b" x="58.15" y="30.13" width="22.02" height="1.58"/><path class="c" d="M99.6,29.77H77.91a1.31,1.31,0,0,0-1.31,1.31h0a1.31,1.31,0,0,0,1.31,1.31H99.6a.4.4,0,0,0,.4-.4h0V30.17a.4.4,0,0,0-.4-.4Z" transform="translate(-18.42 -2.01)"/><path class="c" d="M99.6,49.47h-23V52.1h23a.4.4,0,0,0,.4-.4h0V49.87A.4.4,0,0,0,99.6,49.47Z" transform="translate(-18.42 -2.01)"/><rect class="h" x="41.09" y="1.89" width="2.58" height="10.43" rx="1.29"/><rect class="h" x="37.16" y="5.82" width="10.43" height="2.58" rx="1.29"/><rect class="i" x="58.15" y="27.77" width="3.1" height="39.57"/><rect class="d" x="5.02" y="30.9" width="21.74" height="36.43"/><rect class="b" x="5.02" y="64.41" width="21.74" height="2.92"/><rect class="b" x="19.38" y="32.79" width="5.38" height="5.8" rx="0.43"/><path class="g" d="M43.18,40.15a.44.44,0,0,1-.44.43H38.23a.43.43,0,0,1-.43-.43h0s5.38-5.17,5.38-4.93Z" transform="translate(-18.42 -2.01)"/><rect class="b" x="13.11" y="32.79" width="5.38" height="5.8" rx="0.43"/><path class="g" d="M36.91,40.15a.43.43,0,0,1-.43.43H32a.44.44,0,0,1-.44-.43s5.38-5.17,5.38-4.93Z" transform="translate(-18.42 -2.01)"/><rect class="b" x="6.85" y="32.79" width="5.38" height="5.8" rx="0.43"/><path class="g" d="M30.65,40.15a.44.44,0,0,1-.44.43H25.7a.43.43,0,0,1-.43-.43h0s5.38-5.17,5.38-4.93Z" transform="translate(-18.42 -2.01)"/><rect class="b" x="19.38" y="40.18" width="5.38" height="5.8" rx="0.43"/><path class="g" d="M43.18,47.54a.44.44,0,0,1-.44.43H38.23a.43.43,0,0,1-.43-.43h0s5.38-5.17,5.38-4.93Z" transform="translate(-18.42 -2.01)"/><rect class="b" x="13.11" y="40.18" width="5.38" height="5.8" rx="0.43"/><path class="g" d="M36.91,47.54a.43.43,0,0,1-.43.43H32a.44.44,0,0,1-.44-.43s5.38-5.17,5.38-4.93Z" transform="translate(-18.42 -2.01)"/><rect class="b" x="6.85" y="40.18" width="5.38" height="5.8" rx="0.43"/><path class="g" d="M30.65,47.54a.44.44,0,0,1-.44.43H25.7a.43.43,0,0,1-.43-.43h0s5.38-5.17,5.38-4.93Z" transform="translate(-18.42 -2.01)"/><rect class="b" x="6.85" y="52.15" width="17.91" height="5.8" rx="0.43"/><path class="g" d="M43.18,59.52a.44.44,0,0,1-.44.43h-17a.43.43,0,0,1-.43-.43h0s17.91-5.17,17.91-4.93Z" transform="translate(-18.42 -2.01)"/><rect class="b" x="6.85" y="59.61" width="17.91" height="5.8" rx="0.43"/><path class="g" d="M43.18,67a.44.44,0,0,1-.44.43h-17a.43.43,0,0,1-.43-.43h0s17.91-5.17,17.91-4.93Z" transform="translate(-18.42 -2.01)"/><rect class="b" x="4.74" y="30.13" width="22.02" height="1.58"/><path class="c" d="M22.16,29.77H43.85a1.31,1.31,0,0,1,1.31,1.31h0a1.31,1.31,0,0,1-1.31,1.31H22.16a.38.38,0,0,1-.4-.38V30.17a.38.38,0,0,1,.38-.4Z" transform="translate(-18.42 -2.01)"/><path class="c" d="M22.16,49.47H43.85a1.31,1.31,0,0,1,1.31,1.31h0a1.31,1.31,0,0,1-1.31,1.31H22.16a.38.38,0,0,1-.4-.38V49.87a.38.38,0,0,1,.38-.4Z" transform="translate(-18.42 -2.01)"/><polyline class="i" points="26.76 27.77 23.66 27.77 23.66 67.33 26.76 67.33"/><g class="j"><path class="k" d="M101.5,19.07a1.55,1.55,0,0,0-1.7-1.31,1.71,1.71,0,0,1-1.71-1.7,1.35,1.35,0,1,0-2.61,0,1.71,1.71,0,0,1-1.71,1.7,1.56,1.56,0,0,0-1.71,1.31,1.56,1.56,0,0,0,1.71,1.31,1.71,1.71,0,0,1,1.71,1.7,1.35,1.35,0,1,0,2.61,0,1.71,1.71,0,0,1,1.71-1.7A1.55,1.55,0,0,0,101.5,19.07Z" transform="translate(-18.42 -2.01)"/></g><g class="j"><path class="k" d="M90.39,15.84A1,1,0,0,0,89.33,15a1.07,1.07,0,0,1-1.09-1h0a.84.84,0,0,0-1.62-.44.82.82,0,0,0,0,.44A1.08,1.08,0,0,1,85.56,15a.85.85,0,0,0-1,.59.84.84,0,0,0,.59,1,.86.86,0,0,0,.45,0,1.08,1.08,0,0,1,1.06,1.06.83.83,0,0,0,.58,1,.84.84,0,0,0,1-.59.82.82,0,0,0,0-.44,1.07,1.07,0,0,1,1.06-1.06A1,1,0,0,0,90.39,15.84Z" transform="translate(-18.42 -2.01)"/></g><path class="k" d="M108.26,22.62l.51,1a.12.12,0,0,0,.15.08.14.14,0,0,0,.08-.16l0,0-.52-1-.1.06Z" transform="translate(-18.42 -2.01)"/><path class="k" d="M107.36,20.41l-.51-1a.12.12,0,0,0-.16-.05.11.11,0,0,0,0,.15l.52,1,.1-.06Z" transform="translate(-18.42 -2.01)"/><path class="k" d="M106.7,22l-1,.52a.11.11,0,0,0,0,.15.12.12,0,0,0,.16,0l1-.51-.06-.1Z" transform="translate(-18.42 -2.01)"/><path class="k" d="M109.79,20.35l-1,.51.06.1v.11l1-.51a.12.12,0,0,0,.08-.15.14.14,0,0,0-.16-.08l0,0Z" transform="translate(-18.42 -2.01)"/><path class="k" d="M107.34,22.62,107,23.67a.12.12,0,0,0,.08.15h.09a.09.09,0,0,0,0-.07l.34-1Z" transform="translate(-18.42 -2.01)"/><path class="k" d="M108.28,20.42l.33-1.06a.12.12,0,0,0-.08-.15h0a.11.11,0,0,0-.14.07h0l-.34,1.06A.88.88,0,0,1,108.28,20.42Z" transform="translate(-18.42 -2.01)"/><path class="k" d="M108.91,22l1.06.34a.14.14,0,0,0,.09,0v-.07a.12.12,0,0,0-.07-.15l-1-.36A1.17,1.17,0,0,1,108.91,22Z" transform="translate(-18.42 -2.01)"/><path class="k" d="M106.71,21.05l-1.06-.33a.11.11,0,0,0-.14.07h0a.12.12,0,0,0,.06.15h0l1.06.33A1.87,1.87,0,0,1,106.71,21.05Z" transform="translate(-18.42 -2.01)"/></svg>