<svg xmlns="http://www.w3.org/2000/svg" viewBox="0 0 125.89 79.77"><defs><style>.cls-1{isolation:isolate;}.cls-2{fill:#c1e1f6;}.cls-3{fill:#3f98d3;}.cls-4{fill:#1b75ba;}.cls-5{fill:#fff;stroke:#3f98d3;stroke-miterlimit:10;stroke-width:0.75px;}.cls-6{fill:#e5e5e4;}.cls-7{fill:#f1e6e9;}.cls-8{fill:#9bd9e9;mix-blend-mode:multiply;}.cls-11,.cls-8{opacity:0.5;}.cls-9{fill:#c0272d;}.cls-10{opacity:0.1;}.cls-12{fill:#0c5e91;}</style></defs><title>Asset 19</title><g class="cls-1"><g id="Layer_2" data-name="Layer 2"><g id="Layer_1-2" data-name="Layer 1"><path class="cls-2" d="M111.22,70.39a15,15,0,0,1-13.9,9.38H32C9.81,79.77-5.63,59.83,2,41L14.67,9.39A15,15,0,0,1,28.57,0H93.9c22.18,0,37.62,19.94,30,38.79Z"/><rect class="cls-3" x="55.58" y="15.29" width="1.24" height="3.96"/><rect class="cls-3" x="64.77" y="15.29" width="1.24" height="3.96"/><path class="cls-4" d="M100,70.81a.45.45,0,0,1-.46.44H22.21a.45.45,0,0,1-.45-.44v-1a.44.44,0,0,1,.45-.43H99.54a.45.45,0,0,1,.46.43Z"/><rect class="cls-5" x="45.18" y="22.37" width="31.4" height="46.97"/><rect class="cls-3" x="45.18" y="65.57" width="31.4" height="3.77"/><rect class="cls-5" x="76.57" y="32.91" width="21.74" height="36.43"/><rect class="cls-3" x="76.57" y="66.42" width="21.74" height="2.92"/><rect class="cls-5" x="54.07" y="2.38" width="13.46" height="13.46"/><rect class="cls-3" x="45.18" y="20.66" width="31.4" height="1.71"/><rect class="cls-3" x="60.66" y="57.9" width="6.25" height="13.06" rx="0.19" ry="0.19"/><rect class="cls-6" x="60.8" y="58.11" width="5.98" height="12.64" rx="0.18" ry="0.18"/><path class="cls-4" d="M61.31,70.21V58.83a.18.18,0,0,1,.18-.18h4.59a.19.19,0,0,1,.19.18V70.21Z"/><path class="cls-7" d="M61.71,64.43a.37.37,0,0,0,.38.37.36.36,0,0,0,.37-.37.37.37,0,0,0-.37-.38A.38.38,0,0,0,61.71,64.43Z"/><rect class="cls-3" x="54.41" y="57.9" width="6.25" height="13.06" rx="0.19" ry="0.19"/><rect class="cls-6" x="54.54" y="58.11" width="5.98" height="12.64" rx="0.18" ry="0.18"/><path class="cls-4" d="M60,70.21V58.83a.18.18,0,0,0-.18-.18H55.24a.18.18,0,0,0-.18.18V70.21Z"/><path class="cls-7" d="M59.61,64.43a.37.37,0,0,1-.38.37.36.36,0,0,1-.37-.37.37.37,0,0,1,.37-.38A.38.38,0,0,1,59.61,64.43Z"/><path class="cls-3" d="M67.35,70.21H54c-.1,0-.18.12-.18.27v.77H67.53v-.77C67.53,70.33,67.45,70.21,67.35,70.21Z"/><rect class="cls-3" x="47.79" y="23.98" width="26.16" height="5.8" rx="0.43" ry="0.43"/><path class="cls-8" d="M74,29.34a.44.44,0,0,1-.44.43H48.23a.44.44,0,0,1-.44-.43S74,24.17,74,24.41Z"/><rect class="cls-3" x="47.79" y="32.64" width="26.16" height="5.8" rx="0.43" ry="0.43"/><path class="cls-8" d="M74,38a.44.44,0,0,1-.44.44H48.23a.44.44,0,0,1-.44-.44S74,32.83,74,33.07Z"/><rect class="cls-3" x="47.79" y="41.3" width="26.16" height="5.8" rx="0.43" ry="0.43"/><path class="cls-8" d="M74,46.66a.44.44,0,0,1-.44.44H48.23a.44.44,0,0,1-.44-.44S74,41.5,74,41.74Z"/><rect class="cls-3" x="47.79" y="49.96" width="26.16" height="5.8" rx="0.43" ry="0.43"/><path class="cls-8" d="M74,55.33a.44.44,0,0,1-.44.43H48.23a.44.44,0,0,1-.44-.43S74,50.16,74,50.4Z"/><rect class="cls-3" x="47.79" y="57.68" width="5.74" height="5.8" rx="0.43" ry="0.43"/><path class="cls-8" d="M53.53,63a.43.43,0,0,1-.43.43H48.23a.44.44,0,0,1-.44-.43s5.74-5.17,5.74-4.93Z"/><rect class="cls-3" x="68.22" y="57.68" width="5.74" height="5.8" rx="0.43" ry="0.43"/><path class="cls-8" d="M74,63a.44.44,0,0,1-.44.43H68.65a.43.43,0,0,1-.43-.43S74,57.87,74,58.11Z"/><rect class="cls-3" x="78.58" y="34.79" width="17.91" height="5.8" rx="0.43" ry="0.43"/><path class="cls-8" d="M96.48,40.15a.43.43,0,0,1-.43.43H79a.43.43,0,0,1-.43-.43s17.9-5.17,17.9-4.93Z"/><rect class="cls-3" x="78.58" y="42.25" width="17.91" height="5.8" rx="0.43" ry="0.43"/><path class="cls-8" d="M96.48,47.61a.43.43,0,0,1-.43.43H79a.43.43,0,0,1-.43-.43s17.9-5.17,17.9-4.93Z"/><rect class="cls-3" x="78.58" y="54.16" width="17.91" height="5.8" rx="0.43" ry="0.43"/><path class="cls-8" d="M96.48,59.52a.43.43,0,0,1-.43.43H79a.43.43,0,0,1-.43-.43s17.9-5.17,17.9-4.93Z"/><rect class="cls-3" x="78.58" y="61.62" width="17.91" height="5.8" rx="0.43" ry="0.43"/><path class="cls-8" d="M96.48,67a.43.43,0,0,1-.43.43H79a.43.43,0,0,1-.43-.43s17.9-5.17,17.9-4.93Z"/><rect class="cls-4" x="43.65" y="18.09" width="34.44" height="2.86" rx="0.43" ry="0.43"/><rect class="cls-3" x="76.57" y="32.14" width="22.02" height="1.58"/><path class="cls-4" d="M99.6,29.77h-23V32.4h23a.4.4,0,0,0,.4-.4V30.17A.4.4,0,0,0,99.6,29.77Z"/><path class="cls-4" d="M99.6,49.47h-23V52.1h23a.4.4,0,0,0,.4-.4V49.87A.4.4,0,0,0,99.6,49.47Z"/><rect class="cls-9" x="59.51" y="3.9" width="2.58" height="10.43"/><rect class="cls-9" x="55.58" y="7.82" width="10.43" height="2.58"/><rect class="cls-10" x="76.57" y="29.77" width="3.1" height="39.57"/><rect class="cls-5" x="23.44" y="32.91" width="21.74" height="36.43"/><rect class="cls-3" x="23.44" y="66.42" width="21.74" height="2.92"/><rect class="cls-3" x="37.8" y="34.79" width="5.38" height="5.8" rx="0.43" ry="0.43"/><path class="cls-8" d="M43.18,40.15a.44.44,0,0,1-.44.43H38.23a.43.43,0,0,1-.43-.43s5.38-5.17,5.38-4.93Z"/><rect class="cls-3" x="31.53" y="34.79" width="5.38" height="5.8" rx="0.43" ry="0.43"/><path class="cls-8" d="M36.91,40.15a.43.43,0,0,1-.43.43H32a.44.44,0,0,1-.44-.43s5.38-5.17,5.38-4.93Z"/><rect class="cls-3" x="25.27" y="34.79" width="5.38" height="5.8" rx="0.43" ry="0.43"/><path class="cls-8" d="M30.65,40.15a.44.44,0,0,1-.44.43H25.7a.43.43,0,0,1-.43-.43s5.38-5.17,5.38-4.93Z"/><rect class="cls-3" x="37.8" y="42.18" width="5.38" height="5.8" rx="0.43" ry="0.43"/><path class="cls-8" d="M43.18,47.54a.44.44,0,0,1-.44.43H38.23a.43.43,0,0,1-.43-.43s5.38-5.17,5.38-4.93Z"/><rect class="cls-3" x="31.53" y="42.18" width="5.38" height="5.8" rx="0.43" ry="0.43"/><path class="cls-8" d="M36.91,47.54a.43.43,0,0,1-.43.43H32a.44.44,0,0,1-.44-.43s5.38-5.17,5.38-4.93Z"/><rect class="cls-3" x="25.27" y="42.18" width="5.38" height="5.8" rx="0.43" ry="0.43"/><path class="cls-8" d="M30.65,47.54a.44.44,0,0,1-.44.43H25.7a.43.43,0,0,1-.43-.43s5.38-5.17,5.38-4.93Z"/><rect class="cls-3" x="25.27" y="54.16" width="17.91" height="5.8" rx="0.43" ry="0.43"/><path class="cls-8" d="M43.18,59.52a.44.44,0,0,1-.44.43h-17a.43.43,0,0,1-.43-.43s17.91-5.17,17.91-4.93Z"/><rect class="cls-3" x="25.27" y="61.62" width="17.91" height="5.8" rx="0.43" ry="0.43"/><path class="cls-8" d="M43.18,67a.44.44,0,0,1-.44.43h-17a.43.43,0,0,1-.43-.43s17.91-5.17,17.91-4.93Z"/><rect class="cls-3" x="23.16" y="32.14" width="22.02" height="1.58"/><path class="cls-4" d="M22.16,29.77h23V32.4h-23a.39.39,0,0,1-.4-.4V30.17A.39.39,0,0,1,22.16,29.77Z"/><path class="cls-4" d="M22.16,49.47h23V52.1h-23a.39.39,0,0,1-.4-.4V49.87A.39.39,0,0,1,22.16,49.47Z"/><polyline class="cls-10" points="45.18 29.77 42.08 29.77 42.08 69.34 45.18 69.34"/><g class="cls-11"><path class="cls-12" d="M101.5,19.07a1.55,1.55,0,0,0-1.7-1.31,1.71,1.71,0,0,1-1.71-1.7,1.35,1.35,0,1,0-2.61,0,1.71,1.71,0,0,1-1.71,1.7,1.56,1.56,0,0,0-1.71,1.31,1.56,1.56,0,0,0,1.71,1.31,1.71,1.71,0,0,1,1.71,1.7,1.35,1.35,0,1,0,2.61,0,1.71,1.71,0,0,1,1.71-1.7A1.55,1.55,0,0,0,101.5,19.07Z"/></g><g class="cls-11"><path class="cls-12" d="M109.15,33.27a1,1,0,0,0-1.06-.81A1.07,1.07,0,0,1,107,31.4a.84.84,0,1,0-1.62,0,1.07,1.07,0,0,1-1.06,1.06.84.84,0,1,0,0,1.62,1.07,1.07,0,0,1,1.06,1.06.84.84,0,1,0,1.62,0,1.07,1.07,0,0,1,1.06-1.06A1,1,0,0,0,109.15,33.27Z"/></g><path class="cls-12" d="M108.26,22.62l.51,1a.12.12,0,1,0,.21-.11l-.52-1-.1.06Z"/><path class="cls-12" d="M107.36,20.41l-.51-1a.12.12,0,0,0-.16-.05.11.11,0,0,0,0,.15l.52,1,.1-.06Z"/><path class="cls-12" d="M106.7,22l-1,.52a.11.11,0,0,0,0,.15.12.12,0,0,0,.16.05l1-.51-.06-.1Z"/><path class="cls-12" d="M109.79,20.35l-1,.51.06.1,0,.11,1-.51a.12.12,0,1,0-.11-.21Z"/><path class="cls-12" d="M107.34,22.62,107,23.67a.12.12,0,0,0,.08.15.1.1,0,0,0,.09,0,.13.13,0,0,0,0-.07l.34-1Z"/><path class="cls-12" d="M108.28,20.42l.33-1.06a.12.12,0,0,0-.08-.15.11.11,0,0,0-.14.08l-.34,1.06A.88.88,0,0,1,108.28,20.42Z"/><path class="cls-12" d="M108.91,22l1.06.34a.14.14,0,0,0,.09,0,.18.18,0,0,0,0-.07.12.12,0,0,0-.07-.15L109,21.76A1.42,1.42,0,0,1,108.91,22Z"/><path class="cls-12" d="M106.71,21.05l-1.06-.33a.11.11,0,0,0-.14.07.11.11,0,0,0,.07.15l1.06.33A1.87,1.87,0,0,1,106.71,21.05Z"/></g></g></g></svg>