<svg xmlns="http://www.w3.org/2000/svg" width="34.875" height="34.875" viewBox="0 0 34.875 34.875">
  <path id="Icon_awesome-globe-americas" data-name="Icon awesome-globe-americas" d="M17.438.563A17.438,17.438,0,1,0,34.875,18,17.437,17.437,0,0,0,17.438.563Zm5.786,25.144c-.274.273-.562.559-.8.793a1.68,1.68,0,0,0-.434.753c-.106.4-.192.8-.335,1.186l-1.223,3.294a14.052,14.052,0,0,1-3,.33V30.137a5.264,5.264,0,0,0-1.591-3.6,2.25,2.25,0,0,1-.659-1.591V22.692a2.243,2.243,0,0,0-1.157-1.967c-1.01-.559-2.448-1.34-3.432-1.836A10.136,10.136,0,0,1,8.373,17.36l-.056-.051a8.071,8.071,0,0,1-1.27-1.458c-.66-.968-1.734-2.561-2.432-3.6a14.139,14.139,0,0,1,7.256-7.164l1.688.844A1.125,1.125,0,0,0,15.188,4.93V4.135a14.052,14.052,0,0,1,1.715-.17l1.99,1.99a1.125,1.125,0,0,1,0,1.591l-.33.329-.727.727a.563.563,0,0,0,0,.8l.33.33a.563.563,0,0,1,0,.8l-.562.563a.563.563,0,0,1-.4.165h-.632a.562.562,0,0,0-.392.16l-.7.679a.563.563,0,0,0-.111.655l1.1,2.193a.563.563,0,0,1-.5.814h-.4a.562.562,0,0,1-.368-.138l-.653-.567a1.126,1.126,0,0,0-1.093-.218l-2.192.731a.84.84,0,0,0-.11,1.549l.779.39a4.762,4.762,0,0,0,2.131.5c.74,0,1.588,1.919,2.25,2.25h4.693a2.251,2.251,0,0,1,1.591.659l.963.963a2.145,2.145,0,0,1,.628,1.517,3.272,3.272,0,0,1-.965,2.319Zm6.1-6.423a1.688,1.688,0,0,1-.995-.7l-1.264-1.9a1.685,1.685,0,0,1,0-1.872l1.377-2.066a1.686,1.686,0,0,1,.65-.573L30,11.719A13.622,13.622,0,0,1,31.372,19.8Z" transform="translate(0 -0.563)" fill="#927ad5"/>
</svg>
