<svg xmlns="http://www.w3.org/2000/svg" viewBox="0 0 124 101.28"><defs><style>.cls-1{isolation:isolate;}.cls-2{fill:#f39c12;}.cls-3{fill:#2980b9;}.cls-4{fill:#f1c40f;}.cls-5{fill:#ffe066;}.cls-6{fill:#def0ff;}.cls-7{fill:#adbcc7;}.cls-8{fill:#2c3e50;}.cls-9{fill:#e74c3c;}.cls-10{fill:#233140;}.cls-11{fill:#34495e;}.cls-12{fill:#56799c;}.cls-13{fill:#e67e22;}.cls-14{fill:#ffda45;}.cls-15{fill:#f38212;}.cls-16{fill:#d35400;}.cls-17,.cls-23,.cls-25{fill:#1d1d1b;}.cls-17,.cls-40{opacity:0.2;}.cls-18{fill:#e6b07c;}.cls-19{fill:#dcd9c8;}.cls-20{fill:#f1eedb;}.cls-21{fill:#df4937;}.cls-22{fill:#f6f6f6;}.cls-23{opacity:0.1;}.cls-24{fill:#f5c08c;}.cls-25{opacity:0.05;}.cls-26{fill:#ffcf9f;}.cls-27{fill:#b2b2b2;}.cls-28{fill:#deab7d;}.cls-29{fill:#4da9d6;}.cls-30{fill:#54b9eb;}.cls-31{fill:#3c3c3b;}.cls-32{fill:#575756;}.cls-33{fill:#878787;}.cls-34{fill:#4393ba;}.cls-35{fill:#ededed;}.cls-36{fill:#fff;}.cls-37,.cls-41{fill:#dadada;}.cls-38{fill:#ffc994;}.cls-39{fill:#ebb584;}.cls-41{mix-blend-mode:screen;}.cls-42{fill:#634e42;}.cls-43{fill:#e94e1b;}</style></defs><title>Asset 14</title><g class="cls-1"><g id="Layer_2" data-name="Layer 2"><g id="Layer_1-2" data-name="Layer 1"><path class="cls-2" d="M109.91,31.13l-1,0a7.3,7.3,0,0,0-.6-2.92l1.39-.59a9.15,9.15,0,0,0-2-2.9l-1.06,1.08a7.51,7.51,0,0,0-2.45-1.61l.57-1.4a9.11,9.11,0,0,0-3.38-.65h-.07l0,1.5a7.55,7.55,0,0,0-2.9.59l-.59-1.38a9,9,0,0,0-2.91,2l1.08,1.06a7.25,7.25,0,0,0-1.61,2.45L93,27.8a9,9,0,0,0-.67,3.44h.2l1.31,0a7.54,7.54,0,0,0,.58,2.9l-1.38.58a9,9,0,0,0,2,2.91l1.06-1.06a7.31,7.31,0,0,0,2.44,1.61L98,39.56a8.92,8.92,0,0,0,3.43.67h0v-1.5a7.44,7.44,0,0,0,2.88-.58l.58,1.39a9.19,9.19,0,0,0,2.93-2l-1.07-1.06a7.6,7.6,0,0,0,1.62-2.44l1.4.57a9.07,9.07,0,0,0,.68-3.51Zm-8.5,5.52a5.45,5.45,0,1,1,5.45-5.45A5.45,5.45,0,0,1,101.41,36.65Zm0-10A4.59,4.59,0,1,0,106,31.2,4.59,4.59,0,0,0,101.41,26.61Zm0,8.13a3.54,3.54,0,1,1,3.53-3.54A3.54,3.54,0,0,1,101.41,34.74Z"/><path class="cls-2" d="M13.86,33.16l-.54,0a4.05,4.05,0,0,0-.33-1.6l.76-.32a4.84,4.84,0,0,0-1.09-1.6l-.58.59a4.13,4.13,0,0,0-1.34-.87l.31-.77a4.88,4.88,0,0,0-1.85-.36h0l0,.82a4.18,4.18,0,0,0-1.59.33l-.33-.76a5,5,0,0,0-1.59,1.08l.59.58a4.23,4.23,0,0,0-.89,1.35l-.76-.32a5.05,5.05,0,0,0-.37,1.89h.83a4,4,0,0,0,.32,1.59l-.76.32a4.81,4.81,0,0,0,1.08,1.6l.58-.59A4.19,4.19,0,0,0,7.63,37l-.31.76a4.78,4.78,0,0,0,1.88.37h0v-.82A4.13,4.13,0,0,0,10.78,37l.32.76a4.94,4.94,0,0,0,1.6-1.07l-.58-.58A4.19,4.19,0,0,0,13,34.78l.76.31a4.91,4.91,0,0,0,.38-1.92Zm-4.66,3a3,3,0,1,1,3-3A3,3,0,0,1,9.2,36.19Zm0-5.51a2.52,2.52,0,1,0,2.51,2.52A2.52,2.52,0,0,0,9.2,30.68Zm0,4.46a1.94,1.94,0,1,1,1.93-1.94A1.94,1.94,0,0,1,9.2,35.14Z"/><path class="cls-2" d="M118.92,37.15l-.55,0a4.2,4.2,0,0,0-.33-1.63l.77-.33a5,5,0,0,0-1.11-1.62l-.59.6a4.21,4.21,0,0,0-1.37-.89l.32-.78a4.9,4.9,0,0,0-1.89-.37h0V33a4.19,4.19,0,0,0-1.62.33l-.32-.77a5.15,5.15,0,0,0-1.63,1.1l.6.59a4.35,4.35,0,0,0-.9,1.37l-.78-.32a5.17,5.17,0,0,0-.37,1.92H110a4.15,4.15,0,0,0,.33,1.62l-.77.32a5,5,0,0,0,1.09,1.63l.6-.6a4.22,4.22,0,0,0,1.36.91l-.32.77a5,5,0,0,0,1.91.38h0v-.84a4.32,4.32,0,0,0,1.61-.32l.32.77a5,5,0,0,0,1.63-1.09l-.59-.59a4.24,4.24,0,0,0,.9-1.37l.78.33a5.11,5.11,0,0,0,.38-2Zm-4.75,2.54a2.5,2.5,0,1,1,2.5-2.5A2.49,2.49,0,0,1,114.17,39.69Z"/><path class="cls-2" d="M98.78,55.46a5.82,5.82,0,0,0,.45,2.3l.91-.37A4.92,4.92,0,0,0,101.2,59l-.69.7A5.89,5.89,0,0,0,102.42,61l.38-.91a4.89,4.89,0,0,0,1.88.38v1h0a5.88,5.88,0,0,0,2.24-.44l-.37-.91a5.08,5.08,0,0,0,1.6-1.06l.69.7a5.91,5.91,0,0,0,1.29-1.91l-.91-.38a4.76,4.76,0,0,0,.38-1.89h1a5.9,5.9,0,0,0-.44-2.25l-.91.37a5.08,5.08,0,0,0-1.06-1.6l.71-.69A5.76,5.76,0,0,0,107,50.07l-.38.9a5,5,0,0,0-1.9-.39l0-1h0a5.76,5.76,0,0,0-2.21.43l.37.91a4.94,4.94,0,0,0-1.6,1.05l-.69-.7a5.65,5.65,0,0,0-1.3,1.9l.9.38a4.87,4.87,0,0,0-.39,1.91l-.64,0Zm3,0a2.93,2.93,0,1,1,2.93,2.92A2.93,2.93,0,0,1,101.76,55.51Z"/><path class="cls-2" d="M9.24,22.58a7.61,7.61,0,0,0,.58,3L11,25a6.33,6.33,0,0,0,1.36,2.05l-.89.89a7.53,7.53,0,0,0,2.45,1.64l.48-1.16a6.29,6.29,0,0,0,2.42.48V30.2h0a7.6,7.6,0,0,0,2.87-.56l-.48-1.17a6.33,6.33,0,0,0,2.05-1.36l.88.9a7.42,7.42,0,0,0,1.65-2.44l-1.16-.49a6.36,6.36,0,0,0,.5-2.43l1.09,0h.16a7.5,7.5,0,0,0-.55-2.88l-1.17.47a6.47,6.47,0,0,0-1.35-2.05l.9-.89a7.47,7.47,0,0,0-2.44-1.65l-.49,1.16a6.18,6.18,0,0,0-2.43-.5l0-1.26h-.05a7.39,7.39,0,0,0-2.83.55l.47,1.17a6.3,6.3,0,0,0-2,1.35l-.89-.91a7.55,7.55,0,0,0-1.66,2.44l1.16.49a6.37,6.37,0,0,0-.51,2.44l-.82,0Zm3.82.06a3.75,3.75,0,1,1,3.75,3.74A3.75,3.75,0,0,1,13.06,22.64Z"/><circle class="cls-3" cx="52.48" cy="47.09" r="23.36" transform="translate(-5.29 87.52) rotate(-76.89)"/><path class="cls-4" d="M72.3,47.09A19.83,19.83,0,1,1,52.48,27.27,19.8,19.8,0,0,1,72.3,47.09Z"/><path class="cls-5" d="M71.86,47.09A19.38,19.38,0,1,1,52.48,27.71,19.36,19.36,0,0,1,71.86,47.09Z"/><path class="cls-6" d="M71.17,47.09A18.69,18.69,0,1,1,52.48,28.4,18.62,18.62,0,0,1,71.17,47.09Z"/><path class="cls-7" d="M35.71,50.38a18.69,18.69,0,0,1,33.78-11A18.69,18.69,0,1,0,35.82,55.58,18.36,18.36,0,0,0,37.35,58,18.66,18.66,0,0,1,35.71,50.38Z"/><path class="cls-8" d="M51.05,64.52a.81.81,0,0,1-.73-.86h0a.81.81,0,0,1,.86-.74h0a.81.81,0,0,1,.73.86h0a.8.8,0,0,1-.79.74h-.07Zm4.76-1.06a.81.81,0,0,1,.58-1h0a.79.79,0,0,1,1,.58h0a.79.79,0,0,1-.57,1h0l-.2,0h0A.81.81,0,0,1,55.81,63.46Zm-10.34-.35h0a.8.8,0,0,1-.41-1h0a.8.8,0,0,1,1-.42h0a.79.79,0,0,1,.41,1.05h0a.8.8,0,0,1-.73.48h0A.74.74,0,0,1,45.47,63.11Zm15.47-1.62a.8.8,0,0,1,.23-1.1h0a.81.81,0,0,1,1.11.23h0a.8.8,0,0,1-.23,1.1h0a.8.8,0,0,1-.44.13h0A.82.82,0,0,1,60.94,61.49ZM40.65,60a.8.8,0,0,1,0-1.12h0a.81.81,0,0,1,1.13-.05h0a.8.8,0,0,1,.05,1.13h0a.8.8,0,0,1-.59.26h0A.76.76,0,0,1,40.65,60Zm24.51-2A.78.78,0,0,1,65,56.85h0a.8.8,0,0,1,1.12-.14h0a.79.79,0,0,1,.13,1.11h0a.81.81,0,0,1-.63.31h0A.74.74,0,0,1,65.16,58Zm-28-2.52a.82.82,0,0,1,.32-1.09h0a.8.8,0,0,1,1.08.33h0a.79.79,0,0,1-.32,1.07h0a.75.75,0,0,1-.38.1h0A.8.8,0,0,1,37.11,55.44ZM68,53.26a.79.79,0,0,1-.5-1h0a.79.79,0,0,1,1-.5h0a.81.81,0,0,1,.5,1h0a.8.8,0,0,1-.76.54h0A.69.69,0,0,1,68,53.26ZM35.23,50a.81.81,0,0,1,.66-.92h0a.8.8,0,0,1,.92.66h0a.8.8,0,0,1-.66.92H36A.81.81,0,0,1,35.23,50Zm33.14-2.91v0h0v0h0a.81.81,0,0,1,.78-.81h0A.8.8,0,0,1,70,47h0v0h0v0h0a.8.8,0,0,1-.8.8h0A.79.79,0,0,1,68.37,47.09ZM35.89,45.16a.78.78,0,0,1-.66-.91h0a.79.79,0,0,1,.91-.66h0a.79.79,0,0,1,.65.91h0a.79.79,0,0,1-.78.67h-.12Zm31.6-3.29h0a.79.79,0,0,1,.49-1h0a.79.79,0,0,1,1,.49h0a.79.79,0,0,1-.49,1h0a.59.59,0,0,1-.26,0h0A.78.78,0,0,1,67.49,41.87Zm-30.08-2a.8.8,0,0,1-.33-1.08h0a.8.8,0,0,1,1.08-.33h0a.79.79,0,0,1,.32,1.07h0a.78.78,0,0,1-.7.42h0A.79.79,0,0,1,37.41,39.88ZM65,37.29a.8.8,0,0,1,.13-1.12h0a.8.8,0,0,1,1.12.13h0a.8.8,0,0,1-.13,1.12h0a.84.84,0,0,1-.5.17h0A.79.79,0,0,1,65,37.29Zm-24.42-1.9a.8.8,0,0,1,0-1.13h0a.8.8,0,0,1,1.13,0h0a.81.81,0,0,1,0,1.13h0a.81.81,0,0,1-.55.21h0A.83.83,0,0,1,40.56,35.39Zm20.56-1.64a.78.78,0,0,1-.23-1.09h0a.78.78,0,0,1,1.1-.23h0a.79.79,0,0,1,.23,1.1h0a.79.79,0,0,1-.67.36h0A.75.75,0,0,1,61.12,33.75ZM45,32.15a.78.78,0,0,1,.41-1h0a.79.79,0,0,1,1.05.4h0a.79.79,0,0,1-.41,1h0a.71.71,0,0,1-.32.07h0A.81.81,0,0,1,45,32.15Zm11.33-.48a.79.79,0,0,1-.58-1h0a.79.79,0,0,1,1-.58h0a.79.79,0,0,1,.58,1h0a.79.79,0,0,1-.77.6h0A.58.58,0,0,1,56.33,31.67Zm-6.07-1.14a.79.79,0,0,1,.72-.86h0a.8.8,0,0,1,.86.73h0a.8.8,0,0,1-.72.86h-.07A.79.79,0,0,1,50.26,30.53Z"/><path class="cls-9" d="M59.49,57.8l-.55.35c-.18.11-.39.26-.66.41s-.59.29-.94.47-.78.3-1.22.48-.95.29-1.49.39a13.19,13.19,0,0,1-3.69.22,12.89,12.89,0,0,1-8.21-3.95A13.06,13.06,0,0,1,40,51.74a13,13,0,0,1,.67-10.6,13.16,13.16,0,0,1,7.74-6.43,13.24,13.24,0,0,1,10.8,1.37,12.15,12.15,0,0,1,1.53,1.11l.52.43-.61.65-.47-.41a11.23,11.23,0,0,0-1.42-1.06,12.54,12.54,0,0,0-10.16-1.44,9.27,9.27,0,0,0-1.08.38,7.19,7.19,0,0,0-1.06.48,8,8,0,0,0-1,.6,8.63,8.63,0,0,0-1,.71,12.49,12.49,0,0,0-4.07,14.08A12.66,12.66,0,0,0,51,60a13.13,13.13,0,0,0,3.66-.16c.54-.1,1-.24,1.49-.37s.86-.3,1.22-.45.67-.33,1-.46.48-.3.67-.4Z"/><polygon class="cls-9" points="62.64 39.96 59 38.19 60.74 37.83 61.28 36.14 62.64 39.96"/><path class="cls-10" d="M38.39,47.3l12.85-.85a.64.64,0,0,1,.69.6h0a.65.65,0,0,1-.6.69l-12.85.86a.65.65,0,0,1-.69-.61h0A.64.64,0,0,1,38.39,47.3Z"/><path class="cls-10" d="M59.46,43.19l-5.79,3.73a.65.65,0,0,1-.9-.19h0a.65.65,0,0,1,.19-.9l5.8-3.73a.65.65,0,0,1,.9.2h0A.65.65,0,0,1,59.46,43.19Z"/><circle class="cls-11" cx="52.48" cy="47.09" r="1.43"/><path class="cls-12" d="M53.42,47.09a.94.94,0,1,1-.94-.94A.94.94,0,0,1,53.42,47.09Z"/><path class="cls-13" d="M105.43,71.39h-87a11.32,11.32,0,0,0,0,22.63h8.11C34,94,38.1,84.08,36.8,79.77H102c7.65,0,10.57,7.31,8.79,12.92a11.31,11.31,0,0,0-5.31-21.3Z"/><path class="cls-3" d="M29.28,87.2a11.75,11.75,0,0,0,.89-4.52h-.45a.83.83,0,0,1-.84-.76,10.78,10.78,0,0,0-.51-2.55.82.82,0,0,1,.47-1l.42-.18a11.75,11.75,0,0,0-2.56-3.79l-.32.32a.82.82,0,0,1-1.12.06,10.79,10.79,0,0,0-2.16-1.43.82.82,0,0,1-.38-1.06l.17-.42A11.55,11.55,0,0,0,18.43,71h0v.44a.84.84,0,0,1-.76.85,10.23,10.23,0,0,0-2.54.51.82.82,0,0,1-1-.48l-.18-.42a11.79,11.79,0,0,0-3.8,2.56l.33.32a.83.83,0,0,1,.05,1.12A10.79,10.79,0,0,0,9.06,78,.82.82,0,0,1,8,78.41l-.42-.17a11.57,11.57,0,0,0-.88,4.47v0h.44a.83.83,0,0,1,.84.76A10.7,10.7,0,0,0,8.49,86,.82.82,0,0,1,8,87l-.42.18A11.9,11.9,0,0,0,10.15,91l.32-.32a.82.82,0,0,1,1.12-.06,10.56,10.56,0,0,0,2.16,1.44.83.83,0,0,1,.38,1l-.18.43a11.65,11.65,0,0,0,4.48.88h0V94a.83.83,0,0,1,.76-.83,10.7,10.7,0,0,0,2.54-.51.83.83,0,0,1,1,.48l.17.42A11.65,11.65,0,0,0,26.74,91l-.33-.32a.84.84,0,0,1-.05-1.13A10.49,10.49,0,0,0,27.8,87.4.84.84,0,0,1,28.86,87Z"/><circle class="cls-8" cx="18.43" cy="82.71" r="9.24"/><path class="cls-3" d="M116.28,87.2a11.75,11.75,0,0,0,.89-4.52h-.45a.82.82,0,0,1-.84-.76,10.31,10.31,0,0,0-.52-2.55.84.84,0,0,1,.48-1l.42-.18a11.75,11.75,0,0,0-2.56-3.79l-.32.32a.83.83,0,0,1-1.13.06,10.45,10.45,0,0,0-2.15-1.43.83.83,0,0,1-.39-1.06l.18-.42a11.55,11.55,0,0,0-4.46-.88h0v.44a.83.83,0,0,1-.75.85,10.21,10.21,0,0,0-2.55.51.83.83,0,0,1-1-.48l-.17-.42a11.69,11.69,0,0,0-3.8,2.56l.32.32a.82.82,0,0,1,.06,1.12A10.79,10.79,0,0,0,96.06,78a.82.82,0,0,1-1.06.38l-.43-.17a11.75,11.75,0,0,0-.88,4.47v0h.45a.84.84,0,0,1,.84.76A10.7,10.7,0,0,0,95.49,86,.82.82,0,0,1,95,87l-.42.18A11.87,11.87,0,0,0,97.14,91l.32-.32a.83.83,0,0,1,1.13-.06,10.49,10.49,0,0,0,2.15,1.44.81.81,0,0,1,.38,1l-.17.43a11.62,11.62,0,0,0,4.48.88h0V94a.82.82,0,0,1,.75-.83,10.5,10.5,0,0,0,2.54-.51.82.82,0,0,1,1,.48l.18.42a11.5,11.5,0,0,0,3.8-2.55l-.32-.32a.84.84,0,0,1,0-1.13,10.45,10.45,0,0,0,1.43-2.15.85.85,0,0,1,1.07-.38Z"/><circle class="cls-8" cx="105.43" cy="82.71" r="9.24"/><path class="cls-8" d="M105.43,94.86h-87a12.16,12.16,0,0,1,0-24.31h87a12.16,12.16,0,1,1,0,24.31Zm-87-23.47a11.32,11.32,0,0,0,0,22.63h87a11.32,11.32,0,1,0,0-22.63Z"/><path class="cls-4" d="M112.37,82.49h0a.19.19,0,0,0,.18-.19h0a.17.17,0,0,0-.19-.17h0a.19.19,0,1,0,0-.37.18.18,0,0,0,.15-.21.18.18,0,0,0-.21-.15h0a.18.18,0,0,0,.14-.22.18.18,0,0,0-.21-.14.19.19,0,0,0,.13-.22.19.19,0,0,0-.23-.13.19.19,0,0,0,.12-.23.19.19,0,0,0-.23-.12h0a.19.19,0,0,0,.1-.24.18.18,0,0,0-.23-.1.18.18,0,0,0,.08-.24.17.17,0,0,0-.24-.09.19.19,0,1,0-.17-.33.18.18,0,0,0-.19-.31h0a.19.19,0,0,0,.06-.26.19.19,0,0,0-.26,0h0a.18.18,0,0,0,0-.25.19.19,0,0,1-.23-.3.19.19,0,0,0-.26,0h0a.17.17,0,0,0,0-.25h0a.18.18,0,0,0-.26,0,.18.18,0,0,0-.26-.26h0a.18.18,0,0,0-.27-.25h0a.18.18,0,0,0,0-.25.19.19,0,0,0-.26,0h0a.18.18,0,1,0-.3-.21h0a.19.19,0,0,0-.06-.26.18.18,0,0,0-.25.06h0a.18.18,0,0,0-.32-.18h0a.19.19,0,0,0-.08-.25.2.2,0,0,0-.25.09h0a.18.18,0,0,0-.1-.24.16.16,0,0,0-.23.09h0a.17.17,0,0,0-.1-.23.18.18,0,0,0-.24.11h0a.17.17,0,0,0-.12-.22.18.18,0,0,0-.23.12.2.2,0,0,0-.14-.23.18.18,0,0,0-.21.13h0a.19.19,0,0,0-.15-.21.19.19,0,0,0-.22.14v0h0v0a.17.17,0,0,0-.15-.2.18.18,0,0,0-.21.15.17.17,0,0,0-.17-.19.16.16,0,0,0-.19.16.44.44,0,0,1-.56-.19.19.19,0,0,1-.37,0,.19.19,0,0,0-.17.2h0a.19.19,0,0,0-.21-.16h0a.18.18,0,0,0-.16.2.17.17,0,0,0-.21-.14.18.18,0,0,0-.15.21.18.18,0,1,0-.36.08.18.18,0,0,0-.22-.13.19.19,0,0,0-.13.23h0a.18.18,0,0,0-.34.12.19.19,0,0,0-.24-.1.18.18,0,0,0-.1.24.19.19,0,0,0-.24-.09.18.18,0,0,0-.1.24.17.17,0,0,0-.24-.07.18.18,0,0,0-.08.24.18.18,0,0,0-.25,0,.18.18,0,0,0-.06.25h0a.18.18,0,1,0-.3.2h0a.18.18,0,0,0-.26,0,.17.17,0,0,0,0,.25h0a.2.2,0,0,0-.26,0,.18.18,0,0,0,0,.26h0a.19.19,0,0,0-.26,0,.18.18,0,0,0,0,.26h0a.18.18,0,0,0-.26,0,.19.19,0,0,0,0,.26h0a.18.18,0,1,0-.23.27.19.19,0,0,0-.23.3h0a.18.18,0,0,0-.25,0,.19.19,0,0,0,0,.26h0a.18.18,0,0,0-.25,0,.2.2,0,0,0,.06.26.18.18,0,0,0-.25.07.19.19,0,0,0,.07.25h0a.18.18,0,1,0-.15.33h0a.18.18,0,0,0-.24.1h0a.18.18,0,0,0,.09.24h0a.18.18,0,0,0-.23.11h0a.18.18,0,0,0,.11.23h0a.19.19,0,0,0-.1.36.17.17,0,0,0-.22.13.18.18,0,0,0,.13.22h0a.19.19,0,0,0-.21.15.18.18,0,0,0,.15.21h0a.19.19,0,0,0,0,.37h0a.17.17,0,0,0-.19.16.16.16,0,0,0,.16.2.18.18,0,0,0-.18.18h0a.19.19,0,0,0,.18.19h0a.19.19,0,0,0,0,.37h0s0,0,0,0a.18.18,0,0,0,0,.36.18.18,0,0,0-.15.21.17.17,0,0,0,.18.15h0a.2.2,0,0,0-.15.22h0a.18.18,0,0,0,.22.14h0a.2.2,0,0,0-.14.23.2.2,0,0,0,.18.14h0a.19.19,0,0,0-.13.23.19.19,0,0,0,.18.13h0a.2.2,0,0,0-.11.24h0a.19.19,0,0,0,.24.12.17.17,0,0,0-.1.24.18.18,0,0,0,.24.09.2.2,0,0,0-.09.25.18.18,0,0,0,.24.08.19.19,0,0,0-.06.25.17.17,0,0,0,.24.07.2.2,0,0,0-.06.26.19.19,0,0,1,.21.31.18.18,0,0,0,.25,0,.19.19,0,0,0,0,.26.17.17,0,0,0,.25,0,.19.19,0,0,0,0,.26.2.2,0,0,0,.14.06.17.17,0,0,0,.12,0h0a.18.18,0,0,0,.26.26.18.18,0,0,0,0,.26.13.13,0,0,0,.12,0,.16.16,0,0,0,.13-.06h0a.18.18,0,0,0,0,.25.16.16,0,0,0,.11,0,.21.21,0,0,0,.15-.07h0a.18.18,0,0,0,0,.26.2.2,0,0,0,.11,0,.18.18,0,0,0,.15-.07h0a.18.18,0,0,0,0,.26.17.17,0,0,0,.1,0,.18.18,0,0,0,.15-.08h0a.19.19,0,0,0,.06.25.18.18,0,0,0,.1,0,.16.16,0,0,0,.15-.09h0a.18.18,0,0,0,.07.25.16.16,0,0,0,.09,0,.19.19,0,0,0,.16-.1h0a.18.18,0,0,0,.09.24h0l.07,0a.18.18,0,0,0,.17-.11h0a.19.19,0,0,0,.11.24h.06a.18.18,0,0,0,.17-.11h0a.18.18,0,0,0,.12.23h.06a.18.18,0,0,0,.17-.12h0a.17.17,0,0,0,.13.22h.05a.17.17,0,0,0,.17-.13h0a.19.19,0,0,0,.14.22h0a.17.17,0,0,0,.18-.14h0a.18.18,0,0,0,.15.21h0a.18.18,0,0,0,.21-.15h0a.18.18,0,0,0,.16.2.19.19,0,0,1,.38,0h0a.18.18,0,0,0,.18-.17h0a.18.18,0,0,0,.18.18h0a.18.18,0,0,0,.18-.18.19.19,0,0,0,.19.18.2.2,0,0,0,.18-.2h0a.17.17,0,0,0,.18.17h0a.18.18,0,0,0,.17-.2.19.19,0,0,0,.21.16.18.18,0,0,0,.15-.21.18.18,0,0,0,.22.14.17.17,0,0,0,.14-.21.19.19,0,0,0,.22.13.19.19,0,0,0,.14-.22.19.19,0,0,0,.23.12.19.19,0,0,0,.12-.23h0a.17.17,0,0,0,.17.12h.06a.19.19,0,0,1,.35-.15.18.18,0,0,0,.1-.24.18.18,0,1,0,.32-.16.19.19,0,0,0,.25.07.18.18,0,0,0,.07-.25.19.19,0,0,0,.25.06.19.19,0,0,0,.06-.26h0a.18.18,0,0,0,.15.08.21.21,0,0,0,.1,0,.17.17,0,0,0,.05-.25h0a.19.19,0,0,0,.14.07.21.21,0,0,0,.11,0,.18.18,0,0,0,0-.26h0a.2.2,0,0,0,.14.06.15.15,0,0,0,.12,0,.18.18,0,0,0,0-.25h0a.19.19,0,0,0,.13,0,.24.24,0,0,0,.13,0,.19.19,0,0,0,0-.26h0a.19.19,0,0,0,.12,0,.29.29,0,0,1,.38-.34.19.19,0,0,0,0-.26h0a.15.15,0,0,0,.11,0,.17.17,0,0,0,.14-.08.17.17,0,0,0,0-.25h0a.23.23,0,0,0,.11,0,.19.19,0,0,0,.1-.34.18.18,0,0,0,.25-.06h0a.19.19,0,0,0-.07-.25h0a.16.16,0,0,0,.09,0,.2.2,0,0,0,.16-.1h0a.18.18,0,0,0-.08-.24h.07a.19.19,0,0,0,.17-.1.18.18,0,0,0-.09-.24h0l.07,0a.19.19,0,0,0,.17-.12A.18.18,0,0,0,112,85H112a.17.17,0,0,0,.17-.13.18.18,0,0,0-.11-.23.17.17,0,0,0,.22-.12.18.18,0,0,0-.13-.23h0a.18.18,0,0,0,0-.36.18.18,0,0,0,.21-.15.18.18,0,0,0-.15-.21.19.19,0,0,0,.2-.16.19.19,0,0,0-.17-.21.18.18,0,0,0,.2-.17.19.19,0,0,1,0-.38h0A.18.18,0,0,0,112.37,82.49ZM107.31,76Zm-1.44-.24Zm-.74,0h0Zm-.72.07h0Zm-.72.15Zm-4.26,3.23Zm-.7,1.69Zm-.23,1.44Zm1.34,4.47ZM107,89.47Zm1.38-.48Zm.65-.34h0Z"/><path class="cls-14" d="M98.48,82.72h0a.19.19,0,0,0,0,.37h0s0,0,0,0a.18.18,0,0,0,0,.36.18.18,0,0,0-.15.21.17.17,0,0,0,.18.15h0a.2.2,0,0,0-.15.22h0a.18.18,0,0,0,.22.14h0a.2.2,0,0,0-.14.23.2.2,0,0,0,.18.14h0a.19.19,0,0,0-.13.23.19.19,0,0,0,.18.13h0a.2.2,0,0,0-.11.24h0a.19.19,0,0,0,.24.12.17.17,0,0,0-.1.24.18.18,0,0,0,.24.09.2.2,0,0,0-.09.25.18.18,0,0,0,.24.08.19.19,0,0,0-.06.25.17.17,0,0,0,.24.07.2.2,0,0,0-.06.26.19.19,0,0,1,.21.31.18.18,0,0,0,.25,0,.19.19,0,0,0,0,.26.17.17,0,0,0,.25,0,.19.19,0,0,0,0,.26l0,0,.5-.35c2-1.36,4-2.72,5.93-4.06,1.75-1.19,3.5-2.36,5.27-3.51a.07.07,0,0,0,0,0,.19.19,0,0,0-.25-.08.18.18,0,0,0-.19-.31h0a.19.19,0,0,0,.06-.26.19.19,0,0,0-.26,0h0a.18.18,0,0,0,0-.25.19.19,0,0,1-.23-.3.19.19,0,0,0-.26,0h0a.17.17,0,0,0,0-.25h0a.18.18,0,0,0-.26,0,.18.18,0,0,0-.26-.26h0a.18.18,0,0,0-.27-.25h0a.18.18,0,0,0,0-.25.19.19,0,0,0-.26,0h0a.18.18,0,1,0-.3-.21h0a.19.19,0,0,0-.06-.26.18.18,0,0,0-.25.06h0a.18.18,0,0,0-.32-.18h0a.19.19,0,0,0-.08-.25.2.2,0,0,0-.25.09h0a.18.18,0,0,0-.1-.24.16.16,0,0,0-.23.09h0a.17.17,0,0,0-.1-.23.18.18,0,0,0-.24.11h0a.17.17,0,0,0-.12-.22.18.18,0,0,0-.23.12.2.2,0,0,0-.14-.23.18.18,0,0,0-.21.13h0a.19.19,0,0,0-.15-.21.19.19,0,0,0-.22.14v0h0v0a.17.17,0,0,0-.15-.2.18.18,0,0,0-.21.15.17.17,0,0,0-.17-.19.16.16,0,0,0-.19.16.44.44,0,0,1-.56-.19.19.19,0,0,1-.37,0,.19.19,0,0,0-.17.2h0a.19.19,0,0,0-.21-.16h0a.18.18,0,0,0-.16.2.17.17,0,0,0-.21-.14.18.18,0,0,0-.15.21.18.18,0,1,0-.36.08.18.18,0,0,0-.22-.13.19.19,0,0,0-.13.23h0a.18.18,0,0,0-.34.12.19.19,0,0,0-.24-.1.18.18,0,0,0-.1.24.19.19,0,0,0-.24-.09.18.18,0,0,0-.1.24.17.17,0,0,0-.24-.07.18.18,0,0,0-.08.24.18.18,0,0,0-.25,0,.18.18,0,0,0-.06.25h0a.18.18,0,1,0-.3.2h0a.18.18,0,0,0-.26,0,.17.17,0,0,0,0,.25h0a.2.2,0,0,0-.26,0,.18.18,0,0,0,0,.26h0a.19.19,0,0,0-.26,0,.18.18,0,0,0,0,.26h0a.18.18,0,0,0-.26,0,.19.19,0,0,0,0,.26h0a.18.18,0,1,0-.23.27.19.19,0,0,0-.23.3h0a.18.18,0,0,0-.25,0,.19.19,0,0,0,0,.26h0a.18.18,0,0,0-.25,0,.2.2,0,0,0,.06.26.18.18,0,0,0-.25.07.19.19,0,0,0,.07.25h0a.18.18,0,1,0-.15.33h0a.18.18,0,0,0-.24.1h0a.18.18,0,0,0,.09.24h0a.18.18,0,0,0-.23.11h0a.18.18,0,0,0,.11.23h0a.19.19,0,0,0-.1.36.17.17,0,0,0-.22.13.18.18,0,0,0,.13.22h0a.19.19,0,0,0-.21.15.18.18,0,0,0,.15.21h0a.19.19,0,0,0,0,.37h0a.17.17,0,0,0-.19.16.16.16,0,0,0,.16.2.18.18,0,0,0-.18.18h0A.19.19,0,0,0,98.48,82.72Z"/><polygon class="cls-14" points="107.31 76.02 107.31 76.03 107.31 76.02 107.31 76.02"/><polygon class="cls-14" points="105.87 75.78 105.87 75.78 105.87 75.78 105.87 75.78"/><polygon class="cls-14" points="105.14 75.77 105.14 75.78 105.14 75.78 105.14 75.77"/><polygon class="cls-14" points="104.41 75.84 104.41 75.84 104.41 75.84 104.41 75.84"/><polygon class="cls-14" points="103.69 75.99 103.69 75.99 103.69 75.99 103.69 75.99"/><polygon class="cls-14" points="99.43 79.22 99.43 79.22 99.43 79.22 99.43 79.22"/><polygon class="cls-14" points="98.73 80.91 98.73 80.91 98.73 80.91 98.73 80.91"/><polygon class="cls-14" points="98.5 82.35 98.5 82.35 98.5 82.35 98.5 82.35"/><polygon class="cls-14" points="99.84 86.82 99.84 86.82 99.84 86.82 99.84 86.82"/><polygon class="cls-4" points="98.31 82.91 98.31 82.91 98.31 82.91 98.31 82.91"/><circle class="cls-15" cx="105.43" cy="82.7" r="5.95"/><path class="cls-2" d="M101.45,87.12A77.63,77.63,0,0,1,111,80.59a5.95,5.95,0,1,0-9.54,6.53Z"/><path class="cls-13" d="M99.89,83.12a5.94,5.94,0,0,1,9.94-4.41,5.94,5.94,0,1,0-8.39,8.4A5.91,5.91,0,0,1,99.89,83.12Z"/><path class="cls-13" d="M105.24,87l-1-.67,0-3.69h-.92v-1h.92V80.49c0-.32-.07-.48-.2-.48s-.25.09-.46.28l-.5-.8a1.49,1.49,0,0,1,1-.66c.89,0,1.33.6,1.33,1.79a5.55,5.55,0,0,1-.06,1h.85v1h-.85v3.15c1.3-.41,1.95-.93,1.95-1.54,0-.26-.1-.39-.32-.39s-.27.13-.56.39l-.58-.77a1.31,1.31,0,0,1,2.19-.34,1.59,1.59,0,0,1,.38,1.05C108.49,85.42,107.41,86.38,105.24,87Z"/><path class="cls-14" d="M105,86.82l-1-.66,0-3.7h-.92v-1H104V80.33q0-.48-.21-.48c-.09,0-.24.1-.45.28l-.5-.8a1.45,1.45,0,0,1,1-.65c.88,0,1.33.59,1.33,1.78a5.47,5.47,0,0,1-.06,1H106v1h-.84v3.14c1.3-.41,1.95-.92,1.95-1.54,0-.26-.11-.39-.32-.39s-.27.13-.56.39l-.58-.77a1.3,1.3,0,0,1,2.19-.33,1.57,1.57,0,0,1,.38,1Q108.21,85.93,105,86.82Z"/><path class="cls-4" d="M107.2,82.53l-1.39.94.41.55c.29-.26.48-.39.56-.39s.32.13.32.39c0,.62-.65,1.13-1.95,1.54V83.92l-1.14.77,0,1.47,1,.66q3.26-.9,3.25-2.86a1.57,1.57,0,0,0-.38-1A1.24,1.24,0,0,0,107.2,82.53Z"/><circle class="cls-16" cx="18.43" cy="82.71" r="6.94" transform="translate(-66.16 87.61) rotate(-80.76)"/><path class="cls-4" d="M24.7,82.54a6.46,6.46,0,1,1-6.46-6.46A6.46,6.46,0,0,1,24.7,82.54Z"/><path class="cls-2" d="M24.33,82.71a5.91,5.91,0,0,1-5.9,5.89,5.87,5.87,0,0,1-5.25-3.22,5.9,5.9,0,1,1,11.15-2.67Z"/><path class="cls-4" d="M24.19,82.71a5.75,5.75,0,0,1-5.76,5.76,5.73,5.73,0,0,1-5.13-3.15,5.76,5.76,0,1,1,10.89-2.61Z"/><path class="cls-6" d="M24,82.71a5.55,5.55,0,0,1-5.56,5.55,5.47,5.47,0,0,1-1.86-.32,5.61,5.61,0,0,1-3.09-2.71A5.56,5.56,0,1,1,24,82.71Z"/><path class="cls-7" d="M13.45,83.69a5.55,5.55,0,0,1,10-3.28,5.55,5.55,0,0,0-9.67-.8,5.59,5.59,0,0,0-.34,5.62,5,5,0,0,0,.46.73A5.38,5.38,0,0,1,13.45,83.69Z"/><path class="cls-8" d="M18,87.89a.25.25,0,0,1-.22-.26h0a.24.24,0,0,1,.26-.22h0a.24.24,0,0,1,.21.26h0a.24.24,0,0,1-.23.22h0Zm1.41-.32a.24.24,0,0,1,.18-.28h0a.22.22,0,0,1,.28.17h0a.22.22,0,0,1-.17.28h-.06A.24.24,0,0,1,19.42,87.57Zm-3.07-.1h0a.23.23,0,0,1-.12-.31h0a.23.23,0,0,1,.31-.12h0a.23.23,0,0,1,.12.31h0a.24.24,0,0,1-.21.14h0ZM21,87a.24.24,0,0,1,.07-.33h0a.24.24,0,0,1,.33.07h0a.24.24,0,0,1-.07.33h0a.31.31,0,0,1-.13,0h0A.23.23,0,0,1,21,87Zm-6-.46a.23.23,0,0,1,0-.33h0a.24.24,0,0,1,.34,0h0a.23.23,0,0,1,0,.33h0a.23.23,0,0,1-.17.08h0A.2.2,0,0,1,14.92,86.53Zm7.28-.59a.24.24,0,0,1,0-.33h0a.23.23,0,0,1,.33,0h0a.23.23,0,0,1,0,.33h0a.21.21,0,0,1-.18.09h0A.3.3,0,0,1,22.2,85.94Zm-8.34-.75a.24.24,0,0,1,.1-.32h0a.23.23,0,0,1,.32.09h0a.24.24,0,0,1-.09.32h0a.27.27,0,0,1-.12,0h0A.25.25,0,0,1,13.86,85.19Zm9.19-.65a.23.23,0,0,1-.15-.3h0a.24.24,0,0,1,.3-.15h0a.24.24,0,0,1,.15.3h0a.24.24,0,0,1-.22.16h-.08Zm-9.74-1a.22.22,0,0,1,.19-.27h0a.23.23,0,0,1,.27.19h0a.24.24,0,0,1-.19.28h0A.23.23,0,0,1,13.31,83.57Zm9.85-.86h0a.23.23,0,0,1,.23-.24h0a.23.23,0,0,1,.24.23h0v0h0a.23.23,0,0,1-.24.23h0A.23.23,0,0,1,23.16,82.71Zm-9.66-.58a.24.24,0,0,1-.2-.27h0a.23.23,0,0,1,.28-.19h0a.24.24,0,0,1,.19.27h0a.24.24,0,0,1-.23.2h0Zm9.4-1h0a.23.23,0,0,1,.14-.3h0a.23.23,0,0,1,.3.15h0a.23.23,0,0,1-.14.3h-.08A.22.22,0,0,1,22.9,81.15ZM14,80.56a.24.24,0,0,1-.1-.32h0a.24.24,0,0,1,.33-.09h0a.24.24,0,0,1,.09.32h0a.22.22,0,0,1-.21.12h0A.23.23,0,0,1,14,80.56Zm8.2-.77a.24.24,0,0,1,0-.33h0a.24.24,0,0,1,.33,0h0a.24.24,0,0,1,0,.33h0a.24.24,0,0,1-.14,0h0A.25.25,0,0,1,22.15,79.79Zm-7.26-.56a.25.25,0,0,1,0-.34h0a.25.25,0,0,1,.34,0h0a.24.24,0,0,1,0,.34h0a.23.23,0,0,1-.16.06h0A.23.23,0,0,1,14.89,79.23ZM21,78.74a.24.24,0,0,1-.07-.33h0a.24.24,0,0,1,.33-.06h0a.24.24,0,0,1,.07.33h0a.23.23,0,0,1-.2.11h0A.22.22,0,0,1,21,78.74Zm-4.79-.48a.23.23,0,0,1,.12-.31h0a.23.23,0,0,1,.31.12h0a.23.23,0,0,1-.12.31h0a.15.15,0,0,1-.09,0h0A.24.24,0,0,1,16.21,78.26Zm3.37-.14a.24.24,0,0,1-.18-.28h0a.25.25,0,0,1,.29-.18h0a.23.23,0,0,1,.17.29h0a.23.23,0,0,1-.23.18h-.05Zm-1.81-.34a.24.24,0,0,1,.22-.25h0a.23.23,0,0,1,.25.21h0A.24.24,0,0,1,18,78h0A.24.24,0,0,1,17.77,77.78Z"/><path class="cls-7" d="M20.14,86.84,19,83.27a.47.47,0,0,0,.12-.3.41.41,0,0,0-.67-.34l-1.78-.89a.19.19,0,0,0-.26.09.2.2,0,0,0,.08.26l1.78.88a.44.44,0,0,0,.36.42L19.77,87a.2.2,0,0,0,.25.12A.19.19,0,0,0,20.14,86.84Z"/><path class="cls-3" d="M19.56,86.7l-1.21-3.63a.21.21,0,0,1,.12-.25h0a.2.2,0,0,1,.25.13l1.21,3.63a.2.2,0,0,1-.13.24h0A.18.18,0,0,1,19.56,86.7Z"/><path class="cls-3" d="M16.4,81.48l1.84.91a.2.2,0,0,1,.08.26h0a.19.19,0,0,1-.26.09l-1.83-.92a.19.19,0,0,1-.09-.26h0A.2.2,0,0,1,16.4,81.48Z"/><circle class="cls-4" cx="18.43" cy="82.71" r="0.42"/><path class="cls-5" d="M18.67,82.65a.29.29,0,0,1-.28.28.28.28,0,0,1-.28-.28.27.27,0,0,1,.28-.28A.28.28,0,0,1,18.67,82.65Z"/><path class="cls-11" d="M16.76,81.18h-.39V80.05H16v-.32h1.1v.32h-.35Z"/><path class="cls-11" d="M17.32,81.18V79.73h.39v1.45Z"/><path class="cls-11" d="M18.66,81.18l-.3-1.05h0a3.57,3.57,0,0,1,0,.42v.63H18V79.73h.52l.3,1h0l.29-1h.53v1.45h-.36v-.75s0-.14,0-.3h0L19,81.18Z"/><path class="cls-11" d="M20.85,81.18H20V79.73h.86V80h-.47v.23h.43v.31h-.43v.28h.47Z"/><path class="cls-2" d="M34.73,27.22,34.46,27l1-.82a27.54,27.54,0,0,1,28.06-3.36,2.59,2.59,0,0,0-.14.29,27.2,27.2,0,0,0-27.72,3.33C35.34,26.71,35,27,34.73,27.22Z"/><path class="cls-2" d="M25.22,51a27.06,27.06,0,0,0,2.56,8.92,25.88,25.88,0,0,0,2,3.54l-.3.13a26.78,26.78,0,0,1-2-3.53,27.66,27.66,0,0,1-2.59-9,28.32,28.32,0,0,1-.16-3.31l.32,0A27.58,27.58,0,0,0,25.22,51Z"/><path class="cls-2" d="M23.57,45.33a29.26,29.26,0,0,0,.06,5.84,29.88,29.88,0,0,0,.55,3.3l-.32.05a33.13,33.13,0,0,1-.56-3.31,30.75,30.75,0,0,1-.05-5.91Z"/><path class="cls-2" d="M43.3,20.62c0-.12.08-.24.11-.37a29.43,29.43,0,0,1,12.4-1.19,2.88,2.88,0,0,0-.13.31,28.64,28.64,0,0,0-6.48,0A29.39,29.39,0,0,0,43.3,20.62Z"/><path class="cls-2" d="M28.86,31.21a28.65,28.65,0,0,0-4.32,8.91l-.33,0A28.92,28.92,0,0,1,28.62,31Z"/><path class="cls-2" d="M36.8,21.8a.66.66,0,0,0,0-.39,30.8,30.8,0,0,1,12.16-4,31.75,31.75,0,0,1,5.33-.11,1.13,1.13,0,0,0,0,.32,31.87,31.87,0,0,0-5.34.11A30.64,30.64,0,0,0,36.8,21.8Z"/><path class="cls-2" d="M29.6,27.23a2.39,2.39,0,0,0,.22.23,30.39,30.39,0,0,0-4.9,7.17,1,1,0,0,0-.27-.19,30.53,30.53,0,0,1,5-7.21Z"/><path class="cls-2" d="M.75,84.83,0,84.94A18.53,18.53,0,0,0,7.21,97.48c.11-.23.23-.45.35-.68A17.79,17.79,0,0,1,.75,84.83Z"/><path class="cls-2" d="M47.13,100.52H18.43a17.75,17.75,0,0,1-6.73-1.33c-.12.22-.22.45-.33.68a18.45,18.45,0,0,0,7.06,1.41H47.05C47.08,101,47.1,100.78,47.13,100.52Z"/><path class="cls-2" d="M83.64,101.28H99.56c0-.25-.11-.5-.16-.76H83.83C83.77,100.77,83.71,101,83.64,101.28Z"/><path class="cls-2" d="M14.81,64.92a2.7,2.7,0,0,1-.26-.36A18.6,18.6,0,0,0,.05,80.08L.82,80a17.86,17.86,0,0,1,14.1-14.73C14.88,65.14,14.84,65,14.81,64.92Z"/><path class="cls-2" d="M115.91,67.38c0,.28-.09.55-.14.83a17.81,17.81,0,0,1-5.27,31.58c0,.26,0,.53-.07.8a18.57,18.57,0,0,0,5.48-33.21Z"/><path class="cls-2" d="M2,81.86a.94.94,0,0,1,.12-.09A16.33,16.33,0,0,1,18.43,66.4H19c0-.25,0-.5-.05-.76h-.56a17.07,17.07,0,0,0-17,16.8A7.09,7.09,0,0,1,2,81.86Z"/><path class="cls-2" d="M18,99.17A.87.87,0,0,1,18,99a16.08,16.08,0,0,1-7.3-2,3.24,3.24,0,0,1-.09.4c0,.12-.09.23-.13.34a17,17,0,0,0,7.66,2A1.31,1.31,0,0,0,18,99.17Z"/><path class="cls-2" d="M37.94,99H30.06c0,.26,0,.51,0,.76h8C38,99.52,38,99.26,37.94,99Z"/><path class="cls-2" d="M44.49,99.77H63.17c-.05-.12-.1-.24-.16-.36a2.48,2.48,0,0,1-.15-.4H44.56C44.54,99.27,44.52,99.52,44.49,99.77Z"/><path class="cls-2" d="M115.78,95.27a16.17,16.17,0,0,1-8.54,3.64c.07.25.13.49.21.74a17.05,17.05,0,0,0,8.88-3.85Z"/><path class="cls-2" d="M121.38,79.3a16.62,16.62,0,0,1,.36,3.4,16.27,16.27,0,0,1-2.24,8.22l.62.43A17,17,0,0,0,122,78.56Z"/><path class="cls-2" d="M105.43,65.64H98.08c0,.26,0,.51,0,.76h7.33a16.24,16.24,0,0,1,5.51,1l0-.13a3.3,3.3,0,0,1,.32-.55A17.05,17.05,0,0,0,105.43,65.64Z"/><path class="cls-2" d="M116,72.39l.62-.44a15.49,15.49,0,0,0-11.21-4.8H96.1v.76h9.33A14.75,14.75,0,0,1,116,72.39Z"/><path class="cls-2" d="M73.66,97.5c0,.24-.07.49-.11.76H85.33a8.31,8.31,0,0,1,.44-.76Z"/><path class="cls-2" d="M7.71,72.54A5.39,5.39,0,0,0,7.17,72,15.4,15.4,0,0,0,3.32,86.33l.24-.2A2,2,0,0,1,4,85.89a14.55,14.55,0,0,1-.36-3.18A14.72,14.72,0,0,1,7.71,72.54Z"/><path class="cls-2" d="M18.43,67.15a15.41,15.41,0,0,0-7.51,1.95,6.93,6.93,0,0,1,.5.58,14.7,14.7,0,0,1,7-1.77h8.31c0-.25.05-.51.08-.76Z"/><path class="cls-2" d="M18.5,97.5c-.08.25-.17.5-.25.75H38.32c0-.25.12-.5.18-.76Z"/><path class="cls-2" d="M118.35,89.89A14.86,14.86,0,0,1,109.16,97c0,.06,0,.11,0,.17s.09.38.13.57a15.56,15.56,0,0,0,9.56-7.27C118.71,90.29,118.54,90.09,118.35,89.89Z"/><path class="cls-17" d="M93.56,72.88c0,1.48-9.23,2.69-20.62,2.69s-20.62-1.21-20.62-2.69,9.24-2.7,20.62-2.7S93.56,71.39,93.56,72.88Z"/><path class="cls-18" d="M89.35,40.05l-2.47,1.68,1.25,1.82c-.44.33-.29,1.07.16,1.73l1.47,2.12a11,11,0,0,0,4-2.1l-1-1.43.64-.41h0c0-.05-1.14-1.22-1.23-1.3a1.77,1.77,0,0,0-1.35-.41l-.28.06Z"/><rect class="cls-19" x="89.56" y="48.84" width="0.66" height="1.15" transform="translate(-11.93 36.98) rotate(-21.84)"/><rect class="cls-19" x="95.19" y="46.58" width="0.66" height="1.15" transform="translate(-10.69 38.91) rotate(-21.83)"/><path class="cls-19" d="M101.46,55.7l-9.78,3.93a2.21,2.21,0,0,1-2.83-1.32l-2.08-5.19a2.21,2.21,0,0,1,1.14-2.91l9.78-3.92a2.21,2.21,0,0,1,2.83,1.31l2.09,5.2A2.21,2.21,0,0,1,101.46,55.7Z"/><path class="cls-20" d="M91.44,59a1.57,1.57,0,0,1-2-1l-2.08-5.19a1.58,1.58,0,0,1,.78-2.08l9.79-3.92a1.57,1.57,0,0,1,2,1L102,53a1.56,1.56,0,0,1-.78,2.07Z"/><path class="cls-21" d="M95.84,55.83a3.1,3.1,0,1,1,1.72-4A3.09,3.09,0,0,1,95.84,55.83Z"/><rect class="cls-22" x="94.08" y="50.91" width="1.2" height="4.09" transform="translate(-12.9 39.01) rotate(-21.83)"/><rect class="cls-22" x="92.64" y="52.36" width="4.09" height="1.2" transform="translate(-12.9 39.01) rotate(-21.83)"/><path class="cls-21" d="M95.5,47.12a.65.65,0,0,1-.83-.36l-.53-1.34a.22.22,0,0,0-.29-.12l-4.06,1.62a.22.22,0,0,0-.12.29l.54,1.34A.64.64,0,0,1,89,49l-.53-1.34a1.5,1.5,0,0,1,.83-1.95l4.06-1.62a1.49,1.49,0,0,1,1.94.83l.54,1.34A.65.65,0,0,1,95.5,47.12Z"/><path class="cls-23" d="M89.82,59.46a2.1,2.1,0,0,0,1.86.17l9.78-3.93a2.21,2.21,0,0,0,1.15-2.9l-2.09-5.2a2.34,2.34,0,0,0-.27-.49C100.44,54,97.3,56.81,89.82,59.46Z"/><path class="cls-24" d="M92.66,45.18a.61.61,0,0,1,.15-.84l.09-.06a.6.6,0,0,1,.45-.11.61.61,0,0,1,.39.25l.71,1a.57.57,0,0,1-.14.79l-.18.13a.53.53,0,0,1-.74-.13Z"/><path class="cls-24" d="M91.49,45.81a.68.68,0,0,1-.11-.46.61.61,0,0,1,.25-.39l.09-.07a.61.61,0,0,1,.84.14l.91,1.25a.53.53,0,0,1,.1.42.56.56,0,0,1-.23.37l-.19.13a.52.52,0,0,1-.73-.12Z"/><path class="cls-24" d="M90.37,46.43a.6.6,0,0,1,.15-.84l.09-.06a.6.6,0,0,1,.45-.11.61.61,0,0,1,.39.25l.71,1a.57.57,0,0,1-.14.79l-.19.13a.53.53,0,0,1-.39.09.53.53,0,0,1-.34-.22Z"/><path class="cls-24" d="M89.53,47.09a.5.5,0,0,1,.14-.67l.08-.05a.47.47,0,0,1,.67.09l.55.76a.46.46,0,0,1-.13.63l-.16.11a.43.43,0,0,1-.59-.08Z"/><path class="cls-25" d="M93.34,46.58l-.19.14a.54.54,0,0,1-.73-.12l-.19-.27A.56.56,0,0,1,92,47l-.19.13a.49.49,0,0,1-.39.09A.51.51,0,0,1,91.1,47L91,46.87a.46.46,0,0,1-.18.49l-.16.11a.42.42,0,0,1-.59-.08l-.56-.79v0a.47.47,0,0,0,0,.51l.56.79a.43.43,0,0,0,.59.08l.16-.11a.46.46,0,0,0,.18-.49l.08.1a.53.53,0,0,0,.34.22.53.53,0,0,0,.39-.09l.19-.13a.57.57,0,0,0,.21-.65l.19.27a.52.52,0,0,0,.73.12l.19-.13a.56.56,0,0,0,.23-.37.54.54,0,0,0-.06-.33A.5.5,0,0,1,93.34,46.58Z"/><path class="cls-25" d="M94.31,45.72l-.18.13a.53.53,0,0,1-.65,0,.52.52,0,0,1,.09.4.56.56,0,0,1,0,.12.53.53,0,0,0,.6,0l.18-.13a.58.58,0,0,0,.19-.71A.56.56,0,0,1,94.31,45.72Z"/><path class="cls-26" d="M88.62,41.8l.71,1a2,2,0,0,0,2.51,1L92,44a.36.36,0,0,1,.1.28l-.08.62a.81.81,0,0,0,.18.6.78.78,0,0,0,.55.3l.12,0a.4.4,0,0,0,.43-.34l.08-.67.12-1a.46.46,0,0,0-.08-.3h0c0-.05-1.14-1.22-1.23-1.3a1.77,1.77,0,0,0-1.35-.41l-.28.06-.35-.53h0Z"/><path class="cls-22" d="M90.27,41.48l.45-.33-2.09-2.81-2.28-3-1-4.9L85,29.14l-.13-.65c0-.22-.09-.43-.13-.66l-.43-2.7a1.39,1.39,0,0,0-2.76.35l.25,2.72c0,.23,0,.47.08.7l.09.69.18,1.4.78,5.4,0,.32.25.4,2.12,3.41,1.75,2.86A29.14,29.14,0,0,0,90.27,41.48Z"/><path class="cls-25" d="M86.16,40.25,83.81,37l-.28-.38-.07-.32L82.32,31,82,29.58l0-.24,0,.25.18,1.4.78,5.4,0,.32.25.4,2.13,3.41,1.74,2.86.88-.49Z"/><path class="cls-27" d="M78.79,45s5.35,10.11,6.77,12.15c-8.59,3.15-12.68,2-14.75,1.65h0a58.2,58.2,0,0,1-8.31-2.16c-.71-.25-.79-1.13-1.36-1.37s-1.76-.12-2.31-.69a13.28,13.28,0,0,0,3.79-6.77l3.31-6.57,10.13,2.64Z"/><rect class="cls-28" x="74.77" y="18.55" width="7.04" height="4.61" transform="matrix(0.25, -0.97, 0.97, 0.25, 38.38, 91.36)"/><path class="cls-29" d="M72.21,42.7c-2-.52-3.87-4.19-6.1-5.27,1.53-6.4,4.12-10.6,7.24-15.57L78.45,23l4.2-.23c.12,5.38-.93,11.65-2.54,18.36C77.63,40.93,74.25,43.24,72.21,42.7Z"/><path class="cls-30" d="M78.35,23l-2.78,2.17-2.22-3.27L76.12,20A3,3,0,0,0,78.35,23c1.65-.15,2.14-.88,2.32-2.11L83,23.17l-2.25,2.39Z"/><path class="cls-31" d="M70.14,48.67a17.14,17.14,0,0,1-2.52-.77,4.75,4.75,0,0,1-3-4.65,28,28,0,0,1,1-5.94,30,30,0,0,0,6.69,3,30.33,30.33,0,0,0,7.31.62,27.75,27.75,0,0,1-2,5.68,4.76,4.76,0,0,1-4.89,2.6A17.88,17.88,0,0,1,70.14,48.67Z"/><path class="cls-32" d="M79.62,41c-.11.44-.23.89-.36,1.33q-1.41,0-2.76,0c-.65,0-1.29-.09-1.92-.16l-.38,0c-.65-.09-1.28-.19-1.91-.32L72,41.67a29.92,29.92,0,0,1-6.68-3c.11-.45.22-.89.34-1.34a30,30,0,0,0,6.69,3l.33.07c.61.13,1.24.24,1.88.32l.3,0c.62.08,1.25.13,1.9.17C77.67,41,78.64,41,79.62,41Z"/><path class="cls-33" d="M76.72,40.92l-.22,1.34c-.65,0-1.29-.09-1.92-.16l.24-1.35C75.44,40.83,76.07,40.88,76.72,40.92Z"/><polygon class="cls-31" points="66.79 39.58 66.4 39.48 66.79 37.97 67.16 38.17 66.79 39.58"/><polygon class="cls-31" points="77.49 42.37 77.88 42.47 78.28 40.96 77.86 40.96 77.49 42.37"/><polygon class="cls-31" points="68.95 40.68 68.55 40.57 68.94 39.07 69.32 39.23 68.95 40.68"/><path class="cls-34" d="M76.55,35.33l-1.19-1.28A36.72,36.72,0,0,0,78,25.4c.25,0,.18,0,.43,0-.11,3.21.3,6.26-.58,9.4C77.54,34.84,76.88,35.29,76.55,35.33Z"/><path class="cls-32" d="M75.93,35c-.23-.25-.69-.88-.92-1.12a36.66,36.66,0,0,0,2.66-8.66l.74.07a37.16,37.16,0,0,1-1.07,9.21C77,34.51,76.26,34.91,75.93,35Z"/><polygon class="cls-31" points="78.48 25.42 79 24 78.39 23.17 77.58 23.8 77.65 25.27 78.48 25.42"/><path class="cls-35" d="M85.57,57.16c-.15.09-7.35,3.53-8.66,3.18a109.66,109.66,0,0,1,.93-14.21c.29-2.19.92-5.61,1.22-8,.16-1.38.34-2.78.51-4.21v0c.46-4.19,0-9.09,1.09-13.09L83,22.91a5.08,5.08,0,0,1,1.39,2.23,6.2,6.2,0,0,1,.31,1.63c.06,1.2-2.11,10.12-1.75,18.93,0,.41,0,.83.07,1.24A25.36,25.36,0,0,0,85.57,57.16Z"/><path class="cls-36" d="M83,26.4,79.6,33.74c.12-6.05.17-9.42,1.06-12.89l1.22.92.85,4.05L81,25.91Z"/><path class="cls-22" d="M83,46.94l-3.6,0c0-.41,0-.82,0-1.24l3.55,0C82.93,46.11,83,46.53,83,46.94Z"/><path class="cls-36" d="M68.38,31.15l-1,3.76a1.28,1.28,0,0,0,.92,1.57l1.41.37a1.3,1.3,0,0,0,1.57-.92l1-3.77Z"/><rect class="cls-37" x="69.72" y="30.12" width="0.98" height="4.03" transform="translate(21.42 91.97) rotate(-75.4)"/><path class="cls-38" d="M84.65,6.84a2.66,2.66,0,0,1,.08.33l.48,2.88.28,3.36,0,.11c0,.28,0,.53,0,.74a5.63,5.63,0,0,1-.45,2.43l-1.45,3a1.44,1.44,0,0,1-1,.56l-3.31.39a1.42,1.42,0,0,1-.84-.17,1.27,1.27,0,0,1-.27-.18L77.91,20l-2.08-1.77a4.77,4.77,0,0,1-1.63-3.59v-.1l-.46-3.37-.23-3.25A2.27,2.27,0,0,1,74,6.5a2.39,2.39,0,0,1,1.11-.84,17.49,17.49,0,0,1,3.61-.86l.13,0s.38,0,.43,0a17,17,0,0,1,3.53.44A2.32,2.32,0,0,1,84.65,6.84Z"/><path class="cls-39" d="M85.48,13.52A5.74,5.74,0,0,1,85,15.85l-1.45,3a1.49,1.49,0,0,1-1,.57l-3.32.38a1.4,1.4,0,0,1-.83-.17,1.27,1.27,0,0,1-.27-.18l-.31-.26L75.75,17.4a4.8,4.8,0,0,1-1.55-2.76h0a4.77,4.77,0,0,0,1.63,3.59L77.91,20l.31.26a1.27,1.27,0,0,0,.27.18,1.42,1.42,0,0,0,.84.17l3.31-.39a1.44,1.44,0,0,0,1-.56l1.45-3a5.63,5.63,0,0,0,.45-2.43c0-.21,0-.46,0-.74h0Z"/><path class="cls-31" d="M85.22,3.51a5.58,5.58,0,0,0-1.07-1.1A7.63,7.63,0,0,0,80,.94l.08,0,.28-.08.13,0,.12,0,.21,0h.31L81,.65a.48.48,0,0,0-.16-.08L80.61.49l-.14,0h-.15a1.82,1.82,0,0,0-.33,0,2.91,2.91,0,0,0-.73.16L79,.69l-.1-.17c0-.07-.09-.13-.15-.2a1.06,1.06,0,0,0-.36-.26A.58.58,0,0,0,78.12,0L78,0l.08.07a.63.63,0,0,1,.15.19,2.15,2.15,0,0,1,.14.3.84.84,0,0,0,0,.12A1.75,1.75,0,0,0,78,.57a1.4,1.4,0,0,0-.55,0l-.11,0-.09,0a.37.37,0,0,0-.14.07L77,.79h.13l.14,0,.08,0,.1,0a2.59,2.59,0,0,1,.43.16h0a8.65,8.65,0,0,0-2.9,1,5.91,5.91,0,0,0-2.43,2.45A5.43,5.43,0,0,0,72,7.68l.51,3.15C73,12,74,11.6,74.29,12l0-3.63a2.15,2.15,0,0,1,1.93-2c1.78,0,2.65.48,4.44.46-.36-.15-.72-.33-1.1-.51a7.44,7.44,0,0,0,4.78-.1,2.42,2.42,0,0,1,.2.59,3.4,3.4,0,0,1,.07.34l.41,3c.49.41.64.16.91-.44l-.11-3.19A6.11,6.11,0,0,0,85.22,3.51Z"/><g class="cls-40"><path class="cls-41" d="M80.46,5.16a1.85,1.85,0,0,0,2.17-.79c-1.55,1.06-3.43-1.17-5-.09A6.89,6.89,0,0,1,80,5a5.88,5.88,0,0,0-3.61-.25c2.44.18,5.34,2.57,7.61.63A5.85,5.85,0,0,1,80.46,5.16Z"/><path class="cls-41" d="M80.84,1.45A6.54,6.54,0,0,1,86,7.29,5.4,5.4,0,0,0,80.84,1.45Z"/><path class="cls-41" d="M85.68,8.14a5.17,5.17,0,0,0-1.5-4.3A19.24,19.24,0,0,1,85.68,8.14Z"/><path class="cls-41" d="M72.39,7.44a7.39,7.39,0,0,1,2-4.44A4.11,4.11,0,0,0,72.39,7.44Z"/></g><path class="cls-31" d="M86.56,73a3.79,3.79,0,0,1-1.84.12l-.07-.42,1.87-.56Z"/><path class="cls-31" d="M84.65,72.68c3.55.33,6.09,0,7.41-.74l0-.54L84.59,72Z"/><path class="cls-42" d="M84.61,72.22c1.18.48,6.91-.08,7.41-.82,0-.37-.69-.66-1.83-.91l-.35-.08-.27,0-.36-.06h0l-.26,0h0l-.38-.06-1-.12C84.59,69.72,84.56,71.62,84.61,72.22Z"/><path class="cls-31" d="M88,71a.15.15,0,0,0,.14,0,.12.12,0,0,0,.08,0l.73-.7-.38-.06-.56.54A.16.16,0,0,0,88,71Z"/><path class="cls-31" d="M88.66,71.08a.11.11,0,0,0,.12,0,.11.11,0,0,0,.09-.05l.41-.42a4,4,0,0,0,.29-.29l-.36-.06h0l-.14.14c-.14.14-.29.28-.42.43A.14.14,0,0,0,88.66,71.08Z"/><path class="cls-31" d="M89.3,71.19a.14.14,0,0,0,.13,0,.15.15,0,0,0,.09,0l.67-.7-.35-.08L89.3,71A.14.14,0,0,0,89.3,71.19Z"/><path class="cls-31" d="M52.83,63.64a3.76,3.76,0,0,1-.26-1.83l.42-.1.69,1.82Z"/><path class="cls-31" d="M53,61.71c-.07,3.56.44,6.07,1.29,7.33l.54-.08L53.64,61.6Z"/><path class="cls-42" d="M53.44,61.63c-.39,1.22.61,6.89,1.38,7.33.37-.06.61-.74.77-1.89,0-.12,0-.24,0-.36l0-.27,0-.36h0a2.11,2.11,0,0,0,0-.26h0l0-.38c0-.32,0-.65,0-1C55.93,61.43,54,61.54,53.44,61.63Z"/><path class="cls-31" d="M55,64.92a.17.17,0,0,0,0,.14.12.12,0,0,0,0,.07l.75.68,0-.38-.58-.52A.16.16,0,0,0,55,64.92Z"/><path class="cls-31" d="M54.88,65.59a.13.13,0,0,0,0,.12.18.18,0,0,0,.06.09c.15.11.3.25.45.38s.2.18.31.26l0-.36h0L55.56,66a5.71,5.71,0,0,0-.47-.39A.15.15,0,0,0,54.88,65.59Z"/><path class="cls-31" d="M54.82,66.24a.15.15,0,0,0,0,.13.22.22,0,0,0,.05.08l.75.62c0-.12,0-.24,0-.36l-.6-.49A.15.15,0,0,0,54.82,66.24Z"/><polygon class="cls-17" points="84.61 33.36 84.61 33.36 84.53 32.43 82.82 32.58 82.04 32.65 80.61 32.4 80.61 35.55 84.78 35.23 84.61 33.36"/><rect class="cls-37" x="80.73" y="32.21" width="4.21" height="2.89" transform="translate(-2.63 7.37) rotate(-5.02)"/><rect class="cls-43" x="80.65" y="32.21" width="4.21" height="0.94" transform="translate(-2.54 7.36) rotate(-5.02)"/><rect class="cls-32" x="81.6" y="33.44" width="2.59" height="0.2" transform="translate(-2.62 7.38) rotate(-5.02)"/><rect class="cls-32" x="82.02" y="33.93" width="1.85" height="0.2" transform="translate(-2.66 7.38) rotate(-5.01)"/><rect class="cls-32" x="81.86" y="34.35" width="2.25" height="0.2" transform="translate(-2.69 7.39) rotate(-5.02)"/><rect class="cls-33" x="82.31" y="31.44" width="0.78" height="1.34" rx="0.25" ry="0.25" transform="translate(-2.49 7.34) rotate(-5.01)"/><polygon class="cls-17" points="84.61 33.36 84.61 33.36 84.53 32.43 82.82 32.58 82.04 32.65 80.61 32.4 80.61 35.55 84.78 35.23 84.61 33.36"/><rect class="cls-37" x="80.73" y="32.21" width="4.21" height="2.89" transform="translate(-2.63 7.37) rotate(-5.02)"/><rect class="cls-43" x="80.65" y="32.21" width="4.21" height="0.94" transform="translate(-2.54 7.36) rotate(-5.02)"/><rect class="cls-32" x="81.6" y="33.44" width="2.59" height="0.2" transform="translate(-2.62 7.38) rotate(-5.02)"/><rect class="cls-32" x="82.02" y="33.93" width="1.85" height="0.2" transform="translate(-2.66 7.38) rotate(-5.01)"/><rect class="cls-32" x="81.86" y="34.35" width="2.25" height="0.2" transform="translate(-2.69 7.39) rotate(-5.02)"/><rect class="cls-33" x="82.31" y="31.44" width="0.78" height="1.34" rx="0.25" ry="0.25" transform="translate(-2.49 7.34) rotate(-5.01)"/><path class="cls-31" d="M83.09,66.84c.25.94.49,1.89.74,2.83.1.41.19.85.3,1.28A8.26,8.26,0,0,0,89,69.51l0-.07c-.4-1.22-.81-2.45-1.22-3.67-.85-2.54-1.74-5.06-2.56-7.6-.21-.62-.4-1.25-.61-1.88a3.74,3.74,0,0,0-.26-.8l-.75-1.15q-1.41-2.19-3-4.28c-1.17-1.56-2.33-3.12-3.44-4.74a1.53,1.53,0,0,0-2.74,1.22A6,6,0,0,0,75.16,48c.43.77.89,1.52,1.36,2.26,1.42,2.26,2.78,4.55,4,6.9q.81,3.18,1.65,6.34C82.49,64.6,82.79,65.72,83.09,66.84Z"/><path class="cls-31" d="M70.3,43.86a4.05,4.05,0,0,0-.58,1.53c-.11.35-.21.7-.33,1-.33,1-.67,1.94-1,2.89-.95,2.44-1.86,4.88-2.68,7.36a47.33,47.33,0,0,1-7.58,2.93l-1.86.68a14.73,14.73,0,0,0-1.71.66c0,1.71,1.21,3.5,2.11,4.93,2.25-1.09,5.24-2.64,7.52-3.66a26.84,26.84,0,0,0,5-3c.1-.08.13-.52.16-.65s.07-.26.1-.4c.12-.51.24-1,.37-1.55.45-1.82,1-3.62,1.57-5.41.61-2,1.15-4,1.6-6.1A1.54,1.54,0,0,0,70.3,43.86Z"/><path class="cls-35" d="M74.83,32.32A48.35,48.35,0,0,1,72.51,43a52.65,52.65,0,0,1-8.12,16c-1.89-2.33-4.79-3.76-5.52-4.38,4.34-6.78,6.89-26,10.56-31.65a4.06,4.06,0,0,1,3.42-2.32L76.12,20C74.93,24.36,75.24,28,74.83,32.32Z"/><path class="cls-36" d="M76.12,20c-.55,4.45-.9,8.92-1.39,13.22l-2.28-8.2,2-.12-1.67-.41,1.68-4.3Z"/><path class="cls-22" d="M68.42,44.75,68.1,46l-4.7-1.23c.1-.4.21-.8.31-1.2Z"/><path class="cls-36" d="M68.74,31.17l-.94,3.77a1.29,1.29,0,0,0,.94,1.56l1.41.35a1.29,1.29,0,0,0,1.56-.94l.94-3.77Z"/><rect class="cls-37" x="70.09" y="30.11" width="0.98" height="4.03" transform="translate(22.35 92.85) rotate(-76.02)"/><path class="cls-24" d="M60.4,39.17c.24-.1.8.29.89.54a8.64,8.64,0,0,0,1.07,2,.47.47,0,0,1-.12.64h0c-.2.14-.74.2-.88,0A14.69,14.69,0,0,1,59.7,39.7C59.6,39.44,60.4,39.17,60.4,39.17Z"/><path class="cls-24" d="M62.34,43.57c0-.43.06-1.1.1-1.54a3.43,3.43,0,0,1-1.07.14,12.82,12.82,0,0,0,0,1.38c0,.27.15.49.57.49h0A.46.46,0,0,0,62.34,43.57Z"/><path class="cls-24" d="M60.41,42.24h0a.53.53,0,0,1,.34.67l-1.09,3.74A.54.54,0,0,1,59,47h0a.54.54,0,0,1-.35-.68l1.09-3.74A.54.54,0,0,1,60.41,42.24Z"/><path class="cls-24" d="M59.61,41.72h0a.54.54,0,0,1,.24.72l-1.89,4a.55.55,0,0,1-.72.24h0a.54.54,0,0,1-.25-.72l1.9-4A.54.54,0,0,1,59.61,41.72Z"/><path class="cls-24" d="M58.74,41.33h0a.53.53,0,0,1,.16.74l-2.15,3.46a.53.53,0,0,1-.74.16h0a.53.53,0,0,1-.16-.74L58,41.49A.53.53,0,0,1,58.74,41.33Z"/><path class="cls-24" d="M57.87,41h0a.47.47,0,0,1,.08.66l-2.08,2.69a.48.48,0,0,1-.67.08h0a.49.49,0,0,1-.08-.67L57.2,41A.48.48,0,0,1,57.87,41Z"/><path class="cls-26" d="M60.67,43.2,61,42.15h0l.39-1.23a1.57,1.57,0,0,0-1-2l-1-.32a1.57,1.57,0,0,0-2,1L57,40.87h0l-.23.73a.48.48,0,0,0,.31.6h0a.48.48,0,0,0,.6-.31l0,.17a.53.53,0,0,0,.34.67h0a.54.54,0,0,0,.68-.35l0,.15a.54.54,0,0,0,.35.68h0a.54.54,0,0,0,.67-.35.55.55,0,0,0,.35.68h0A.54.54,0,0,0,60.67,43.2Z"/><rect class="cls-26" x="58.63" y="37.61" width="2.17" height="2.89" transform="translate(4 83.63) rotate(-71.84)"/><path class="cls-22" d="M72.59,22.21a1.39,1.39,0,0,0-1.9-.52l-2.37,1.36-.59.37-.6.37-1.19.74-4.59,3-.52.34-.2.68-1.47,5.1-1.27,4.32A31.87,31.87,0,0,0,62,39l1-4.46,1-4.58,3.8-2.84,1.07-.77.54-.39c.18-.13.36-.27.55-.39l2.27-1.52A1.4,1.4,0,0,0,72.59,22.21Z"/><path class="cls-25" d="M63.28,29.32,61.1,38.83,62,39l1-4.46,1-4.58,3.8-2.84,1.07-.77.54-.39c.18-.13.36-.27.55-.39l2.27-1.52a1.47,1.47,0,0,0,.31-.3C69.89,24.84,63.28,29.32,63.28,29.32Z"/><path class="cls-25" d="M56.05,44.09c-.36.23-.92-.27-.56-.85l-.37.47a.49.49,0,0,0,.08.67h0a.48.48,0,0,0,.67-.08Z"/><path class="cls-25" d="M56.13,44.49l-.28.46a.53.53,0,0,0,.16.74h0a.53.53,0,0,0,.74-.16l.22-.34A.58.58,0,0,1,56.13,44.49Z"/><path class="cls-25" d="M62.36,43.09c-.08.42-.89.57-1,.18a1.31,1.31,0,0,0,0,.28c0,.27.15.49.57.49h0a.46.46,0,0,0,.44-.47A4.36,4.36,0,0,1,62.36,43.09Z"/><path class="cls-25" d="M58.74,46l-.1.35A.54.54,0,0,0,59,47h0a.54.54,0,0,0,.67-.35l.16-.58C59.61,46.5,58.81,46.51,58.74,46Z"/><path class="cls-25" d="M57.18,45.51l-.19.42a.54.54,0,0,0,.25.72h0a.55.55,0,0,0,.72-.24l.21-.46C57.8,46.26,57.12,46.06,57.18,45.51Z"/></g></g></g></svg>