<svg xmlns="http://www.w3.org/2000/svg" viewBox="0 0 208.15 143.16"><defs><style>.cls-1{fill:#fff;}.cls-2{fill:#f05344;}.cls-3{fill:#763f9a;}.cls-4{fill:#fb7898;}.cls-5{fill:#4f117e;}.cls-6{fill:#f76b1c;}.cls-7{fill:#3d076d;}.cls-8{fill:#f2f6fc;}.cls-9{fill:#ffbeaa;}.cls-10{fill:#ffca15;}</style></defs><title>Asset 16</title><g id="Layer_2" data-name="Layer 2"><g id="Layer_1-2" data-name="Layer 1"><path class="cls-1" d="M208.15,89.32c0,40.47-16.06,28.47-73.11,28.47s-115.59,56.41-129.17,1C-7.85,62.79-.09,0,57,0S208.15,32.28,208.15,89.32Z"/><path class="cls-2" d="M30.08,100.6l2.08,4.22A8.45,8.45,0,0,0,36,108.65l4.22,2.08L36,112.81a8.45,8.45,0,0,0-3.83,3.83l-2.08,4.23L28,116.64a8.45,8.45,0,0,0-3.83-3.83l-4.23-2.08,4.23-2.08A8.45,8.45,0,0,0,28,104.82Z"/><path class="cls-2" d="M170.09,45l1.6,3.25a6.44,6.44,0,0,0,2.95,2.95l3.24,1.6-3.24,1.59a6.44,6.44,0,0,0-2.95,2.95l-1.6,3.25-1.6-3.25a6.44,6.44,0,0,0-3-2.95l-3.24-1.59,3.24-1.6a6.44,6.44,0,0,0,3-2.95Z"/><rect class="cls-3" x="40.91" y="15.65" width="115.59" height="85.76"/><rect class="cls-4" x="48.3" y="23.11" width="100.68" height="70.85"/><rect class="cls-3" x="72.6" y="120.05" width="52.2" height="7.46"/><path class="cls-5" d="M119.21,120.05h-41l3.73-18.64h33.55Z"/><rect class="cls-6" x="143.45" y="23.11" width="7.46" height="70.85"/><path class="cls-7" d="M115.48,101.41h-5.59l3.73,18.64h5.59Z"/><path class="cls-3" d="M83.79,60.39s0,7.46-5.59,7.46H63.28c-5.59,0-5.59-7.46-5.59-7.46a13,13,0,0,1,7-11.59l6,6,6-6a13,13,0,0,1,7.05,11.59Z"/><path class="cls-8" d="M70.74,47.34a12.88,12.88,0,0,1,6,1.46l-6,6-6-6a12.88,12.88,0,0,1,6-1.46Z"/><path class="cls-9" d="M70.74,32.43a7.46,7.46,0,1,1-7.46,7.45,7.45,7.45,0,0,1,7.46-7.45Z"/><path class="cls-10" d="M80,51.18a12.75,12.75,0,0,0-3.21-2.38l-6,6-6-6h0a13.24,13.24,0,0,0-3.19,2.37l9.22,9.21Z"/><rect class="cls-10" x="139.83" y="84.63" width="3.51" height="3.73"/><rect class="cls-10" x="57.69" y="73.55" width="70.85" height="3.51"/><rect class="cls-10" x="91.25" y="64.23" width="50.34" height="3.51"/><rect class="cls-10" x="91.25" y="56.77" width="50.34" height="3.51"/><rect class="cls-10" x="91.25" y="49.31" width="50.34" height="3.51"/><rect class="cls-10" x="85.65" y="41.86" width="44.75" height="3.51"/><rect class="cls-10" x="78.2" y="81.01" width="50.34" height="3.51"/><rect class="cls-10" x="57.69" y="81.01" width="14.91" height="3.51"/><rect class="cls-10" x="126.67" y="34.4" width="3.73" height="3.51"/><rect class="cls-10" x="119.21" y="34.4" width="3.73" height="3.51"/></g></g></svg>