<svg xmlns="http://www.w3.org/2000/svg" viewBox="0 0 208.15 143.16"><defs><style>.cls-1{fill:#fff;}.cls-2{fill:#f05344;}.cls-3{fill:#fb7898;}.cls-4{fill:#ffca15;}.cls-5{fill:#4f117e;}.cls-6{fill:#ff864a;}.cls-7{fill:#f76b1c;}.cls-8{fill:#694b4b;}.cls-9{fill:#563b3b;}.cls-10{fill:#fbcb99;}.cls-11{fill:#edba89;}</style></defs><title>Asset 17</title><g id="Layer_2" data-name="Layer 2"><g id="Layer_1-2" data-name="Layer 1"><path class="cls-1" d="M208.15,89.32c0,40.47-16.06,28.47-73.11,28.47s-115.59,56.41-129.17,1C-7.85,62.79-.09,0,57,0S208.15,32.28,208.15,89.32Z"/><path class="cls-2" d="M14.57,49.37l2.07,4.22a8.4,8.4,0,0,0,3.84,3.84L24.7,59.5l-4.22,2.08a8.4,8.4,0,0,0-3.84,3.84l-2.07,4.22-2.08-4.22a8.4,8.4,0,0,0-3.84-3.84L4.43,59.5l4.22-2.07a8.4,8.4,0,0,0,3.84-3.84Z"/><path class="cls-2" d="M169.19,91.69l1.6,3.24a6.44,6.44,0,0,0,3,2.95l3.25,1.6-3.25,1.6a6.44,6.44,0,0,0-3,3l-1.6,3.24L167.6,104a6.44,6.44,0,0,0-2.95-3l-3.25-1.6,3.25-1.6a6.44,6.44,0,0,0,2.95-2.95Z"/><path class="cls-3" d="M126.38,1.1h-93a.41.41,0,0,0-.41.41V32.35a.41.41,0,0,0,.41.41h93a.41.41,0,0,0,.41-.41V1.51A.41.41,0,0,0,126.38,1.1Z"/><path class="cls-3" d="M130.86,94l-1.44-.78a11.05,11.05,0,0,1-5.32-6.64l-.58-2.07a.41.41,0,0,0-.41-.3l-2.15.07h0a4.15,4.15,0,0,1-4.08-4.13,3.35,3.35,0,0,1,0-.54l.41-3.11a.44.44,0,0,0-.1-.33.41.41,0,0,0-.31-.14H33.4a.41.41,0,0,0-.41.41v30.84a.41.41,0,0,0,.41.42h79.43l1,.16h.06a.43.43,0,0,0,.22-.06l.88-.54a9,9,0,0,1,1.72-.84l14.15-5.54a.4.4,0,0,0,.26-.38V94.37A.41.41,0,0,0,130.86,94Z"/><path class="cls-3" d="M126.38,38.57h-93A.41.41,0,0,0,33,39V69.82a.41.41,0,0,0,.41.42h82.89a.42.42,0,0,0,.41-.38l.23-2.5c.46-5,3.23-7.35,8.17-9.94l1.47-.78a.4.4,0,0,0,.22-.36V39A.41.41,0,0,0,126.38,38.57Z"/><path class="cls-4" d="M88.76,15.43H66a2.06,2.06,0,0,1,0-4.12H88.76a2.06,2.06,0,0,1,0,4.12Z"/><path class="cls-4" d="M111.51,24.54H66a2.07,2.07,0,0,1,0-4.13h45.51a2.07,2.07,0,0,1,0,4.13Z"/><path class="cls-4" d="M88.76,52.9H66a2.06,2.06,0,0,1,0-4.12H88.76a2.06,2.06,0,0,1,0,4.12Z"/><path class="cls-4" d="M111,62H66a2.07,2.07,0,0,1,0-4.13h45A2.07,2.07,0,0,1,111,62Z"/><path class="cls-4" d="M88.76,90.37H66a2.06,2.06,0,0,1,0-4.12H88.76a2.06,2.06,0,0,1,0,4.12Z"/><path class="cls-4" d="M110.69,99.48H66a2.07,2.07,0,0,1,0-4.13h44.69a2.07,2.07,0,0,1,0,4.13Z"/><path class="cls-5" d="M56.22,26.82H41.87a2.06,2.06,0,0,1-2.06-2.06V11.08A2.06,2.06,0,0,1,41.87,9H52.28a2.07,2.07,0,0,1,0,4.13H43.93V22.7H54.15V21.07a2.07,2.07,0,0,1,4.13,0v3.69A2.06,2.06,0,0,1,56.22,26.82Z"/><path class="cls-4" d="M50.46,22h0a2.05,2.05,0,0,1-1.51-.66l-3.62-3.95a2.06,2.06,0,0,1,3-2.79l2.12,2.31,6.85-7.27a2.06,2.06,0,1,1,3,2.83L52,21.39A2.06,2.06,0,0,1,50.46,22Z"/><path class="cls-5" d="M56.22,64.29H41.87a2.06,2.06,0,0,1-2.06-2.06V48.56a2.07,2.07,0,0,1,2.06-2.07H52.28a2.07,2.07,0,0,1,0,4.13H43.93v9.55H54.15V58.54a2.07,2.07,0,0,1,4.13,0v3.69A2.06,2.06,0,0,1,56.22,64.29Z"/><path class="cls-4" d="M50.46,59.5h0a2.05,2.05,0,0,1-1.51-.66L45.32,54.9a2.07,2.07,0,0,1,3-2.8l2.12,2.31,6.85-7.27a2.06,2.06,0,1,1,3,2.83L52,58.86A2.06,2.06,0,0,1,50.46,59.5Z"/><path class="cls-5" d="M56.22,101.76H41.87a2.06,2.06,0,0,1-2.06-2.06V86A2.07,2.07,0,0,1,41.87,84H52.28a2.07,2.07,0,0,1,0,4.13H43.93v9.55H54.15V96a2.07,2.07,0,0,1,4.13,0V99.7A2.06,2.06,0,0,1,56.22,101.76Z"/><path class="cls-4" d="M50.46,97h0a2.1,2.1,0,0,1-1.51-.67l-3.62-3.94a2.06,2.06,0,1,1,3-2.79l2.12,2.3,6.85-7.27a2.07,2.07,0,0,1,2.92-.08,2,2,0,0,1,.08,2.91L52,96.33A2.07,2.07,0,0,1,50.46,97Z"/><path class="cls-6" d="M159.4,116.81c0-.22,0-.43,0-.65a.28.28,0,0,0,0-.09c0-.11,0-.21,0-.32s0-.27,0-.41,0-.11,0-.16l-.06-.55v0a13.65,13.65,0,0,0-4-8.15l0,0a3.83,3.83,0,0,0-.29-.28l-.15-.13-.17-.15-.28-.24,0,0a11.35,11.35,0,0,0-3.34-1.92h-.05l-12.35-5-3.09,3.21L132.28,105l-3.16-3.07L126,98.69l-12.36,5h-.05a11.35,11.35,0,0,0-3.34,1.92l0,0-.29.24-.17.15-.15.13-.29.28,0,0a13.71,13.71,0,0,0-4,8.15v0l-.06.55a.88.88,0,0,1,0,.16c0,.14,0,.27,0,.41s0,.21,0,.32v.09c0,.22,0,.43,0,.65v2h0v6a2.67,2.67,0,0,0,3,2.58h48.26a2.67,2.67,0,0,0,3-2.58v-6h0v-2Z"/><path class="cls-7" d="M126,98.83l-12.3,4.82h0c-3.15,1.13-8.48,5.16-8.48,13.15v8a2.67,2.67,0,0,0,3,2.58h.62V116.81c0-8,5.33-12,8.48-13.15h0L127,99.84Z"/><path class="cls-8" d="M132.92,53.74h-1.34a16.52,16.52,0,0,0-16.5,16.51V78s3.76-.37,4.22-2.2h0a1.93,1.93,0,0,0,.38-.59c2.13-.06,12.09-.14,17.78-7a11.19,11.19,0,0,0,7.39,6.92,1.9,1.9,0,0,0,.39.64l0,0c.46,1.83,4.22,2.2,4.22,2.2V70.25A16.52,16.52,0,0,0,132.92,53.74Zm12.44,20.87.16-.12h0l-.26.2Zm-.08,0,0-.06,0-.11h0l-.07.14Zm-.44.34h0l.4-.3-.09.1-.3.22Zm.34-.1-.13.27h0l.21-.41h0Z"/><path class="cls-9" d="M118,74.51V70.25a16.53,16.53,0,0,1,15.72-16.49l-.79,0h-1.34a16.52,16.52,0,0,0-16.5,16.51V78a9.61,9.61,0,0,0,2.91-.81V74.51Z"/><path class="cls-10" d="M147.44,75.6a2,2,0,0,0-1.85.31,2.08,2.08,0,0,0-.85,1.67V83.5a2.08,2.08,0,0,0,.85,1.67,2,2,0,0,0,1.23.41,2.16,2.16,0,0,0,.62-.09A5.3,5.3,0,0,0,148.6,85a11.68,11.68,0,0,1,1.17-1,5.16,5.16,0,0,0-2.33-8.37Z"/><path class="cls-11" d="M119,75.91a2,2,0,0,0-1.85-.31,5.18,5.18,0,0,0,0,9.89,2.21,2.21,0,0,0,.62.09,2.07,2.07,0,0,0,2.08-2.08V77.58A2.05,2.05,0,0,0,119,75.91Z"/><path class="cls-10" d="M138,93.82a2.1,2.1,0,0,0-1.53-.57h-.07a2.32,2.32,0,0,0-.38,0,11.1,11.1,0,0,1-2.43.27H131a11.22,11.22,0,0,1-2.5-.29,2.07,2.07,0,0,0-2.54,2v6.06a2.07,2.07,0,0,0,.62,1.61l4.18,4.06a2,2,0,0,0,1.45.59h0a2.06,2.06,0,0,0,1.46-.63l4.3-4.47a2.05,2.05,0,0,0,.59-1.44V95.33A2.14,2.14,0,0,0,138,93.82Z"/><path class="cls-11" d="M132.64,106.42l-4.18-4.07a2,2,0,0,1-.62-1.6V94.69a2,2,0,0,1,.56-1.42,2,2,0,0,0-1.65.41,2.11,2.11,0,0,0-.78,1.63v6.06a2.07,2.07,0,0,0,.62,1.61l4.18,4.06a2,2,0,0,0,1.45.59h0a2.06,2.06,0,0,0,1.46-.63l0,0A2.08,2.08,0,0,1,132.64,106.42Z"/><path class="cls-10" d="M144.43,73.9a5.83,5.83,0,0,1-.72-.32,10.72,10.72,0,0,1-5.52-5,1.26,1.26,0,0,1-.11-.17.7.7,0,0,0-1.07-.28h0a29.49,29.49,0,0,1-9.78,4.81,29,29,0,0,1-3.26.77,25.84,25.84,0,0,1-3.26.41,2.08,2.08,0,0,0-1.93,2.08v8.47A12.24,12.24,0,0,0,131,96.89h2.54a12.24,12.24,0,0,0,12.23-12.23V75.85A2.08,2.08,0,0,0,144.43,73.9Z"/><path class="cls-11" d="M121.27,84.66V76.19a2.09,2.09,0,0,1,1.93-2.08,25.84,25.84,0,0,0,3.26-.41,28.53,28.53,0,0,0,3.26-.77,30,30,0,0,0,8.65-4c-.07-.13-.13-.25-.18-.37a1.26,1.26,0,0,1-.11-.17.7.7,0,0,0-1.07-.28h0a29.49,29.49,0,0,1-9.78,4.81,29,29,0,0,1-3.26.77,23.7,23.7,0,0,1-3.26.41,2.08,2.08,0,0,0-1.93,2.08v8.47A12.24,12.24,0,0,0,131,96.89h2.49A12.24,12.24,0,0,1,121.27,84.66Z"/></g></g></svg>