<svg xmlns="http://www.w3.org/2000/svg" viewBox="0 0 208.15 143.16"><defs><style>.cls-1{fill:#f05344;}.cls-2{fill:#fff;}.cls-3{fill:#fb7898;}.cls-4{fill:#ffca15;}.cls-5{fill:#84dbff;}.cls-6{fill:#ffd05b;}.cls-7{fill:#f1543f;}.cls-8{fill:#ff7058;}.cls-9{fill:#54c0eb;}.cls-10{fill:#f9b54c;}.cls-11{fill:#324a5e;}.cls-12{fill:#4f117e;}</style></defs><title>Asset 15</title><g id="Layer_2" data-name="Layer 2"><g id="Layer_1-2" data-name="Layer 1"><path class="cls-1" d="M58.18,7.61l2.08,4.22a8.43,8.43,0,0,0,3.83,3.84l4.23,2.08-4.23,2.07a8.43,8.43,0,0,0-3.83,3.84l-2.08,4.22L56.1,23.66a8.43,8.43,0,0,0-3.83-3.84l-4.22-2.07,4.22-2.08a8.43,8.43,0,0,0,3.83-3.84Z"/><path class="cls-2" d="M208.15,89.32c0,40.47-16.06,28.47-73.11,28.47s-115.59,56.41-129.17,1C-7.85,62.79-.09,0,57,0S208.15,32.28,208.15,89.32Z"/><path class="cls-1" d="M17.63,40.9l2.08,4.23A8.45,8.45,0,0,0,23.54,49L27.77,51l-4.23,2.08A8.45,8.45,0,0,0,19.71,57l-2.08,4.22L15.55,57a8.41,8.41,0,0,0-3.83-3.83L7.5,51,11.72,49a8.41,8.41,0,0,0,3.83-3.83Z"/><path class="cls-1" d="M150.84,94.08l1.59,3.25a6.53,6.53,0,0,0,2.95,3l3.25,1.59-3.25,1.6a6.53,6.53,0,0,0-2.95,3l-1.59,3.25-1.6-3.25a6.48,6.48,0,0,0-3-3l-3.24-1.6,3.24-1.59a6.48,6.48,0,0,0,3-3Z"/><path class="cls-3" d="M131.38,130.63h-78a5.44,5.44,0,0,1-5.46-5.46V23a5.44,5.44,0,0,1,5.46-5.46h78A5.44,5.44,0,0,1,136.84,23V125.17A5.37,5.37,0,0,1,131.38,130.63Z"/><rect class="cls-4" x="54.22" y="63.66" width="76.43" height="3.15"/><rect class="cls-4" x="54.22" y="72.88" width="76.43" height="3.15"/><rect class="cls-4" x="54.22" y="81.98" width="76.43" height="3.15"/><rect class="cls-4" x="54.22" y="91.08" width="76.43" height="3.15"/><rect class="cls-4" x="54.22" y="100.3" width="76.43" height="3.15"/><polygon class="cls-4" points="95.95 112.43 130.65 112.43 130.65 109.4 54.22 109.4 54.22 112.55 95.95 112.55 95.95 112.43"/><rect class="cls-4" x="54.22" y="118.49" width="41.86" height="3.15"/><circle class="cls-2" cx="85.88" cy="34.42" r="20.5"/><path class="cls-5" d="M102,47a20.31,20.31,0,0,1-16.14,7.88A20.88,20.88,0,0,1,69.63,47a21.89,21.89,0,0,1,9.7-5,14.94,14.94,0,0,0,1,5.58c1.22-2.91,5.58-3.15,5.58-3.15s4.25.24,5.58,3.15a12.13,12.13,0,0,0,1-5.58A20.34,20.34,0,0,1,102,47Z"/><path class="cls-6" d="M91.1,39.76c0,.48-.36,2.67-5.1,4.49h-.24c-4.73-1.82-5.09-4-5.09-4.49h0a6.59,6.59,0,0,1,.6-2.55,6.5,6.5,0,0,0,4.61,2.43,6.48,6.48,0,0,0,4.61-2.43A6.43,6.43,0,0,1,91.1,39.76Z"/><path class="cls-7" d="M86,44.37Z"/><path class="cls-7" d="M88.67,45.09l-1.09,2.19H83.94l-1.09-2.19a11,11,0,0,1,2.91-.72A10,10,0,0,1,88.67,45.09Z"/><path class="cls-8" d="M83.09,54.68a21.89,21.89,0,0,0,2.79.24,21.89,21.89,0,0,0,2.79-.24l-1-7.52H84.06Z"/><path class="cls-9" d="M91.1,39.76s.24,2.67-5.22,4.61c0,0,4.25.24,5.58,3.15C91.46,47.64,93.89,41.21,91.1,39.76Z"/><path class="cls-9" d="M80.67,39.76c-2.79,1.57-.37,7.88-.37,7.88,1.22-2.91,5.58-3.15,5.58-3.15C80.42,42.3,80.67,39.76,80.67,39.76Z"/><path class="cls-10" d="M90.74,37.94a7,7,0,0,1-4.86,2.42A6.74,6.74,0,0,1,81,37.94c.12-.25.12-.49.24-.73a6.5,6.5,0,0,0,4.61,2.43,6.48,6.48,0,0,0,4.61-2.43A1.72,1.72,0,0,1,90.74,37.94Z"/><path class="cls-6" d="M94.86,32.84c-.73,1.21-1.7,1.82-2.55,1.7-1.57,2.91-3.88,5.1-6.43,5.1s-4.85-2.19-6.43-5.1c-.85.12-1.82-.61-2.54-1.7-.85-1.33-.85-2.91,0-3.4a.9.9,0,0,1,.6-.12,7.75,7.75,0,0,0,1.22,2.19C78,27.26,81,26.9,80.55,22.77c0,0,1.94,4.37,7.52,1.34l-.49.85c7.65-1.7,5.22,7.15,5.1,7.64a11.1,11.1,0,0,0,1.82-3.28.44.44,0,0,1,.36.12C95.71,30.05,95.71,31.51,94.86,32.84Z"/><path class="cls-11" d="M77.51,19.62s1.58-.25,2.06,1c0,0-.48-1.7,0-2.43s0-.24,0-.24a2.36,2.36,0,0,0,.25,1.7s1.09-4,7.76-2.91a4.27,4.27,0,0,0-2.91,1.21s4.61-2.06,7.4,1.09a5.92,5.92,0,0,0-1.7-.48s5.95,2.3,5.1,8.25l-.37-1.34a10.37,10.37,0,0,1-2.42,7.28s2.79-9.46-5.1-7.64l.49-.85c-5.58,3-7.52-1.34-7.52-1.34.48,4-2.55,4.49-1.82,8.74a8.12,8.12,0,0,1-1.58-7l-.85,1a4.4,4.4,0,0,1,2.91-4.85A2.55,2.55,0,0,0,77.51,19.62Z"/><path class="cls-12" d="M114.61,32.56h-5.68a22.36,22.36,0,0,0-20.39-20.4V6.48a1.87,1.87,0,0,0-3.73,0v5.68a22.36,22.36,0,0,0-20.39,20.4H58.74a1.86,1.86,0,1,0,0,3.72h5.68a22.37,22.37,0,0,0,20.39,20.4v5.68a1.87,1.87,0,0,0,3.73,0V56.68a22.37,22.37,0,0,0,20.39-20.4h5.68a1.86,1.86,0,0,0,0-3.72ZM86.67,53A18.63,18.63,0,1,1,105.3,34.42,18.64,18.64,0,0,1,86.67,53Z"/></g></g></svg>