<svg xmlns="http://www.w3.org/2000/svg" viewBox="0 0 208.15 143.16"><defs><style>.cls-1{fill:#f05344;}.cls-2{fill:#fff;}.cls-3{fill:#763f9a;}.cls-4{fill:#4f117e;}.cls-5{fill:#fb7898;}.cls-6{fill:#ff7480;}.cls-7{fill:#f76b1c;}.cls-8{fill:#ffca15;}</style></defs><title>Asset 14</title><g id="Layer_2" data-name="Layer 2"><g id="Layer_1-2" data-name="Layer 1"><path class="cls-1" d="M58.18,7.61l2.08,4.22a8.43,8.43,0,0,0,3.83,3.84l4.23,2.08-4.23,2.07a8.43,8.43,0,0,0-3.83,3.84l-2.08,4.22L56.1,23.66a8.43,8.43,0,0,0-3.83-3.84l-4.22-2.07,4.22-2.08a8.43,8.43,0,0,0,3.83-3.84Z"/><path class="cls-2" d="M208.15,89.32c0,40.47-16.06,28.47-73.11,28.47s-115.59,56.41-129.17,1C-7.85,62.79-.09,0,57,0S208.15,32.28,208.15,89.32Z"/><path class="cls-3" d="M170,.32l-35.6,5.09L142.07,13,111.54,43.56l-5.08,35.6L157.33,28.3,165,35.93Z"/><path class="cls-3" d="M137,69,86.11,119.86l15.26,15.26,30.52-30.52Z"/><path class="cls-4" d="M137,69,116.63,89.34,106.46,79.16l20.35-20.34Z"/><path class="cls-5" d="M88.08,67.72a26,26,0,1,1-26-26A26.05,26.05,0,0,1,88.08,67.72Z"/><path class="cls-6" d="M65.55,67.72A3.52,3.52,0,1,1,62,64.2a3.52,3.52,0,0,1,3.52,3.52Z"/><path class="cls-7" d="M91,45h2.28a1.44,1.44,0,0,0,0-2.88H87.84a1.44,1.44,0,0,0-1.44,1.44V49a1.44,1.44,0,1,0,2.88,0V47.4A34,34,0,1,1,62,33.73a35.84,35.84,0,0,1,4.15.25,1.44,1.44,0,1,0,.35-2.85,37.36,37.36,0,0,0-4.5-.28A36.88,36.88,0,1,0,91,45Z"/><path class="cls-4" d="M40.78,52.59a1.44,1.44,0,0,0-2,.44,27.48,27.48,0,1,0,8.6-8.58,1.44,1.44,0,1,0,1.54,2.43,24.61,24.61,0,1,1-4.3,38.24,24.77,24.77,0,0,1-3.4-30.55,1.44,1.44,0,0,0-.45-2Z"/><path class="cls-8" d="M80.74,69.18h1.78a1.44,1.44,0,1,0,0-2.88H80.74a1.44,1.44,0,1,0,0,2.88Z"/><path class="cls-8" d="M40.11,67.7a1.44,1.44,0,0,0,1.44,1.43h1.78a1.44,1.44,0,0,0,0-2.87H41.55a1.44,1.44,0,0,0-1.44,1.44Z"/><path class="cls-8" d="M63.5,49V47.24a1.44,1.44,0,1,0-2.88,0V49a1.44,1.44,0,0,0,2.88,0Z"/><path class="cls-8" d="M60.57,86.43V88.2a1.44,1.44,0,0,0,2.88,0V86.43a1.44,1.44,0,1,0-2.88,0Z"/><path class="cls-8" d="M54.82,58.47a1.44,1.44,0,1,0-2,2l4.88,4.87A5,5,0,1,0,67,67.72a4.87,4.87,0,0,0-.59-2.34l9.85-9.84a1.44,1.44,0,0,0-2-2l-9.84,9.84a4.92,4.92,0,0,0-4.67,0Zm9.29,9.25A2.08,2.08,0,1,1,62,65.64a2.08,2.08,0,0,1,2.08,2.08Z"/><path class="cls-4" d="M44.63,50.32a1.42,1.42,0,0,0,0-2,1.49,1.49,0,0,0-1-.42,1.47,1.47,0,0,0-1,.42,1.45,1.45,0,0,0,0,2,1.42,1.42,0,0,0,1,.42,1.45,1.45,0,0,0,1-.42Z"/><path class="cls-7" d="M72,35.15a1.45,1.45,0,0,0,1-.42,1.44,1.44,0,0,0,0-2,1.45,1.45,0,0,0-2,0,1.44,1.44,0,0,0,0,2,1.45,1.45,0,0,0,1,.42Z"/><path class="cls-1" d="M47.63,2.68,49.71,6.9a8.43,8.43,0,0,0,3.83,3.84l4.23,2.07-4.23,2.08a8.43,8.43,0,0,0-3.83,3.84L47.63,23l-2.08-4.22a8.38,8.38,0,0,0-3.83-3.84L37.5,12.81l4.22-2.07A8.38,8.38,0,0,0,45.55,6.9Z"/><path class="cls-1" d="M146.84,102.12l1.59,3.24a6.53,6.53,0,0,0,2.95,3l3.25,1.6-3.25,1.59a6.58,6.58,0,0,0-2.95,3l-1.59,3.25-1.6-3.25a6.53,6.53,0,0,0-3-3l-3.24-1.59,3.24-1.6a6.48,6.48,0,0,0,3-3Z"/></g></g></svg>