<svg xmlns="http://www.w3.org/2000/svg" viewBox="0 0 208.15 143.16"><defs><style>.cls-1{fill:#fff;}.cls-2{fill:#4f117e;}.cls-3{fill:#763f9a;}.cls-4{fill:#fb7898;}.cls-5{fill:#f76b1c;}.cls-6{fill:#ffca15;}.cls-7{fill:#f05344;}</style></defs><title>Asset 13</title><g id="Layer_2" data-name="Layer 2"><g id="Layer_1-2" data-name="Layer 1"><path class="cls-1" d="M208.15,89.32c0,40.47-16.06,28.47-73.11,28.47s-115.59,56.41-129.17,1C-7.85,62.79-.09,0,57,0S208.15,32.28,208.15,89.32Z"/><path class="cls-2" d="M128.7,106.43H145v8.25a10.72,10.72,0,0,1-10.73,10.73H30.68a10.73,10.73,0,0,1-10.74-10.73v-8.25H66.71l2.18,2.36a10.7,10.7,0,0,0,7.89,3.46H88.13A10.7,10.7,0,0,0,96,108.79l2.18-2.36Z"/><path class="cls-3" d="M139.29,106.41v0H128.7V39.32H111V28h17.58a10.73,10.73,0,0,1,10.73,10.74Z"/><path class="cls-4" d="M111,85.49V39.32H128.7v67.11H98.2L96,108.79a10.7,10.7,0,0,1-7.89,3.46H76.78a10.7,10.7,0,0,1-7.89-3.46l-2.18-2.36H36.2V39.32H53.93V85.49Z"/><path class="cls-5" d="M111,39.32V85.49h-57V17.75l5.7,5.87,5.7-5.87L71,23.62l5.71-5.87,5.7,5.87,5.71-5.87,5.7,5.87,5.71-5.87,5.71,5.87L111,17.75Z"/><path class="cls-3" d="M53.93,28V39.32H36.2v67.11H25.61V38.71A10.74,10.74,0,0,1,36.35,28Z"/><path class="cls-6" d="M72.82,68.94H92.09a2.11,2.11,0,1,0,0-4.22H72.82a2.11,2.11,0,1,0,0,4.22Z"/><path class="cls-6" d="M101.26,73.16H63.65a2.12,2.12,0,1,0,0,4.23h37.61a2.12,2.12,0,0,0,0-4.23Z"/><path class="cls-6" d="M95.73,50.21q0,6.67-11.38,10a4.28,4.28,0,0,1-3.52-.51h0a4.24,4.24,0,0,1-2-3.58v-12H76.43A1.46,1.46,0,0,1,75,42.61v-.22a1.46,1.46,0,0,1,1.46-1.47h2.45V36.35c0-1.48-.44-2.23-1.32-2.23a2,2,0,0,0-.8.16A1.46,1.46,0,0,1,75,33.81l-.19-.29A1.4,1.4,0,0,1,75,31.67a4.35,4.35,0,0,1,2.8-1.25q4,0,4.74,3.7.1,3.41.2,6.8h2.14a1.47,1.47,0,0,1,1.47,1.47h0a1.47,1.47,0,0,1-1.47,1.47H82.73V54.31A1.83,1.83,0,0,0,85.19,56q6.68-2.36,6.68-5.62c0-1.25-.6-1.87-1.81-1.87a2.12,2.12,0,0,0-1,.4,1.88,1.88,0,0,1-2.42-.43h0a1.89,1.89,0,0,1,.24-2.67,5.59,5.59,0,0,1,3.29-1,5.24,5.24,0,0,1,3.86,1.49A5.3,5.3,0,0,1,95.73,50.21Z"/><path class="cls-6" d="M118.9,87.6H46a2.11,2.11,0,0,1,0-4.22H118.9a2.11,2.11,0,1,1,0,4.22Z"/><path class="cls-7" d="M18,53.74,20.09,58a8.45,8.45,0,0,0,3.83,3.83l4.23,2.08L23.92,66a8.41,8.41,0,0,0-3.83,3.83L18,74l-2.08-4.22A8.41,8.41,0,0,0,12.1,66L7.87,63.88,12.1,61.8A8.45,8.45,0,0,0,15.93,58Z"/><path class="cls-7" d="M188.35,94.32l1.6,3.25a6.48,6.48,0,0,0,3,3l3.25,1.6-3.25,1.59a6.48,6.48,0,0,0-3,3l-1.6,3.25-1.59-3.25a6.48,6.48,0,0,0-2.95-3l-3.25-1.59,3.25-1.6a6.48,6.48,0,0,0,2.95-3Z"/><circle class="cls-2" cx="119.99" cy="59.9" r="16.28"/><path class="cls-4" d="M110.69,67.53l-1.56,1.55a.36.36,0,0,0,0,.49.35.35,0,0,0,.49,0L111.17,68a.34.34,0,0,0-.48-.48Zm-1.43-5.71a.34.34,0,0,0-.49,0L107,63.63a.34.34,0,0,0,.49.48l1.81-1.81a.34.34,0,0,0,0-.48Zm19.29-12.68h0a1.27,1.27,0,0,0-1.31-.18l-2.7,1.14a.35.35,0,0,0-.18.45.35.35,0,0,0,.45.18l2.7-1.14,0,0-16.18,11.9-3.06-3.07a.44.44,0,0,1-.13-.42.46.46,0,0,1,.28-.34l14.87-6.29a.34.34,0,0,0,.19-.45.35.35,0,0,0-.45-.18L108.16,57a1.16,1.16,0,0,0-.37,1.88L111,62.08l1.44,5a.63.63,0,0,0,.56.45h0a.6.6,0,0,0,.27-.06l2.16-.89,3.19,3.2a.35.35,0,0,0,.49,0,.36.36,0,0,0,0-.49l-3.36-3.35h0l-1.08-1.08,13.58-14.89a.58.58,0,0,1,0,.39l-6.73,20.21a.55.55,0,0,1-.92.22l-.38-.38a.34.34,0,0,0-.48.48l.38.38a1.19,1.19,0,0,0,.87.36l.29,0a1.23,1.23,0,0,0,.89-.81l6.73-20.21a1.28,1.28,0,0,0-.39-1.4ZM114.94,66l-1,.43.44-1Zm-1-1.42a.21.21,0,0,0-.06.1l-.88,2L111.7,62l14-10.32ZM115.73,69l-2.6,2.6a.34.34,0,0,0,0,.49.35.35,0,0,0,.24.1.37.37,0,0,0,.24-.1l2.61-2.61a.34.34,0,0,0,0-.48.34.34,0,0,0-.49,0Z"/><path class="cls-5" d="M178.73,46.24h15.52a2,2,0,0,1,2,2V63.33a2,2,0,0,1-2,2H182.36l-3.63,2.19-4.42,2.66.47-4.85h-2.85a2,2,0,0,1-2-2V48.26a2,2,0,0,1,2-2Z"/><path class="cls-2" d="M178.74,94.88v6.61a4.12,4.12,0,0,1-4.12,4.12H145.86a4.13,4.13,0,0,1-4.13-4.12V94.88Z"/><path class="cls-4" d="M178.74,67.55V94.88h-37V51.14h28.18V63.33a2,2,0,0,0,2,2h2.85l-.47,4.85,4.42-2.66ZM170.09,87.4V78.07a4.75,4.75,0,0,0-4.75-4.75,6.34,6.34,0,0,1-10.21,0,4.75,4.75,0,0,0-4.75,4.75V87.4Zm-4.58-21.49a5.28,5.28,0,1,0-5.27,5.28,5.27,5.27,0,0,0,5.27-5.28Z"/><path class="cls-2" d="M178.73,46.24h-6.8a2,2,0,0,0-2,2v2.88H141.73v-4.6a4.13,4.13,0,0,1,4.13-4.12h28.76a4.12,4.12,0,0,1,4.11,3.82Z"/><path class="cls-6" d="M170.09,78.07V87.4H150.38V78.07a4.75,4.75,0,0,1,4.75-4.75,6.34,6.34,0,0,0,10.21,0,4.75,4.75,0,0,1,4.75,4.75Z"/><path class="cls-6" d="M160.24,60.63A5.28,5.28,0,1,1,155,65.91a5.28,5.28,0,0,1,5.28-5.28Z"/><path class="cls-6" d="M164.25,48.11h-8a.82.82,0,1,1,0-1.64h8a.82.82,0,0,1,0,1.64Z"/><path class="cls-6" d="M167,100.59H153.48a.83.83,0,1,1,0-1.65H167a.83.83,0,0,1,0,1.65Z"/><path class="cls-6" d="M188,57.88q0,2.92-5,4.38a1.89,1.89,0,0,1-1.54-.22h0a1.87,1.87,0,0,1-.86-1.57V55.19h-1.07a.64.64,0,0,1-.64-.65v-.09a.63.63,0,0,1,.64-.64h1.07v-2c0-.65-.19-1-.58-1a1,1,0,0,0-.35.07.63.63,0,0,1-.78-.2l-.09-.13a.62.62,0,0,1,.09-.81,1.92,1.92,0,0,1,1.23-.55,1.86,1.86,0,0,1,2.08,1.62l.09,3h.94a.64.64,0,0,1,.64.64h0a.64.64,0,0,1-.64.64h-.94v4.58a.8.8,0,0,0,1.08.75c2-.69,2.93-1.51,2.93-2.46a.72.72,0,0,0-.8-.82.9.9,0,0,0-.42.17.82.82,0,0,1-1.06-.19h0a.81.81,0,0,1,.11-1.16,2.39,2.39,0,0,1,1.44-.43A2.37,2.37,0,0,1,188,57.88Z"/></g></g></svg>