<svg xmlns="http://www.w3.org/2000/svg" viewBox="0 0 208.15 145.8"><defs><style>.cls-1{fill:#fff;}.cls-2{fill:#f05344;}.cls-3{fill:#763f9a;}.cls-4{fill:#41dfd0;}.cls-5{fill:#fb7898;}.cls-6{fill:#5a2d84;}.cls-7{fill:#e86087;}.cls-8{fill:#e85f1a;}.cls-9{fill:#f76b1c;}.cls-10{fill:#ffca15;}.cls-11{fill:#4f117e;}.cls-12{fill:#3f0c6b;}</style></defs><title>Asset 18</title><g id="Layer_2" data-name="Layer 2"><g id="Layer_1-2" data-name="Layer 1"><path class="cls-1" d="M208.15,92c0,40.46-16.06,28.46-73.11,28.46s-115.59,56.41-129.17,1C-7.85,65.43-.09,2.65,57,2.65S208.15,34.92,208.15,92Z"/><path class="cls-2" d="M172.31,68.55l2.07,4.22a8.4,8.4,0,0,0,3.84,3.84l4.22,2.08-4.22,2.07a8.4,8.4,0,0,0-3.84,3.84l-2.07,4.22-2.08-4.22a8.4,8.4,0,0,0-3.84-3.84l-4.22-2.07,4.22-2.08a8.4,8.4,0,0,0,3.84-3.84Z"/><path class="cls-2" d="M21.47,48.38l1.6,3.25A6.46,6.46,0,0,0,26,54.58l3.25,1.6L26,57.77a6.46,6.46,0,0,0-2.94,2.95L21.47,64l-1.6-3.25a6.48,6.48,0,0,0-2.95-2.95l-3.24-1.59,3.24-1.6a6.48,6.48,0,0,0,2.95-2.95Z"/><path class="cls-3" d="M58.3,37.45h91.55a8.33,8.33,0,0,1,8.32,8.32v62.42H50V45.77a8.32,8.32,0,0,1,8.32-8.32Z"/><path class="cls-4" d="M62.46,45.77h83.22a4.17,4.17,0,0,1,4.17,4.16v58.26H58.3V49.93a4.16,4.16,0,0,1,4.16-4.16Z"/><path class="cls-5" d="M62.46,45.77h83.22a4.17,4.17,0,0,1,4.17,4.16v58.26H58.3V49.93a4.16,4.16,0,0,1,4.16-4.16Z"/><rect class="cls-6" x="49.98" y="101.95" width="108.19" height="6.24"/><rect class="cls-7" x="58.3" y="101.95" width="91.55" height="6.24"/><path class="cls-8" d="M62.46,0H133.2a8.32,8.32,0,0,1,8.32,8.32V18.73H54.14V8.32A8.32,8.32,0,0,1,62.46,0Z"/><path class="cls-9" d="M66.62,0H133.2a8.32,8.32,0,0,1,8.32,8.32v99.87H66.62Z"/><rect class="cls-8" x="66.62" y="101.95" width="74.9" height="8.32"/><path class="cls-10" d="M133.2,52H74.94a2.08,2.08,0,0,0-2.08,2.08v25a2.08,2.08,0,0,0,2.08,2.08H122.8v6.25a2.08,2.08,0,0,0,2.08,2.08h8.32a2.08,2.08,0,0,0,2.08-2.08V54.1A2.08,2.08,0,0,0,133.2,52Zm-2.08,4.16v4.16H127V56.18ZM122.8,68.66h-25V64.5h25ZM127,64.5h4.16v4.16H127Zm0,8.32h4.16V77H127ZM77,56.18H122.8v4.16H77ZM93.67,68.66H77V64.5H93.67ZM77,77V72.82H93.67V77Zm20.8,0V72.82h25V77Zm33.29,8.32H127V81.14h4.16Z"/><rect class="cls-10" x="72.86" y="85.3" width="20.81" height="4.16"/><rect class="cls-10" x="72.86" y="93.63" width="14.56" height="4.16"/><rect class="cls-10" x="122.8" y="93.63" width="12.48" height="4.16"/><rect class="cls-10" x="112.4" y="35.37" width="20.81" height="4.16"/><rect class="cls-10" x="118.64" y="43.69" width="14.56" height="4.16"/><path class="cls-11" d="M43.74,108.19H164.41v6.24a6.24,6.24,0,0,1-6.24,6.24H50a6.24,6.24,0,0,1-6.24-6.24Z"/><path class="cls-12" d="M114.48,114.43H93.67l-2.08-6.24h25Z"/><path class="cls-10" d="M112.91,22.74q0,5.55-9.49,8.33a3.54,3.54,0,0,1-2.92-.43h0a3.55,3.55,0,0,1-1.64-3v-10h-2a1.21,1.21,0,0,1-1.22-1.22v-.18A1.22,1.22,0,0,1,96.83,15h2V11.19c0-1.24-.36-1.86-1.1-1.86a1.69,1.69,0,0,0-.66.13,1.22,1.22,0,0,1-1.49-.39l-.16-.24a1.17,1.17,0,0,1,.17-1.54,3.63,3.63,0,0,1,2.34-1q3.36,0,4,3.09c.06,1.89.11,3.78.17,5.67h1.78a1.22,1.22,0,0,1,1.22,1.22h0a1.21,1.21,0,0,1-1.22,1.22h-1.78v8.71a1.53,1.53,0,0,0,2,1.43c3.72-1.31,5.57-2.87,5.57-4.68,0-1-.5-1.57-1.51-1.57a1.94,1.94,0,0,0-.8.34,1.56,1.56,0,0,1-2-.36h0a1.56,1.56,0,0,1,.2-2.22,4.57,4.57,0,0,1,2.74-.8,4.37,4.37,0,0,1,3.22,1.24A4.41,4.41,0,0,1,112.91,22.74Z"/></g></g></svg>