<svg xmlns="http://www.w3.org/2000/svg" xmlns:xlink="http://www.w3.org/1999/xlink" viewBox="0 0 201.39 152.17"><defs><style>.cls-1{isolation:isolate;}.cls-2{fill:#3a3b3d;}.cls-3,.cls-8{fill:#fff;}.cls-4{fill:none;stroke:#fff;stroke-miterlimit:10;stroke-width:0.1px;}.cls-5{fill:url(#linear-gradient);}.cls-6{fill:#666;}.cls-7{fill:#2ebaec;}.cls-8{font-size:3.74px;font-family:Montserrat-Light, Montserrat;}.cls-9{fill:#10162c;}.cls-10{fill:#3e4a67;}.cls-11{fill:#ccdae2;}.cls-12{fill:#2b3451;}.cls-13{fill:#cc2029;}.cls-14{fill:#71bd46;}.cls-15,.cls-19{opacity:0.1;}.cls-16{opacity:0.66;}.cls-16,.cls-19{mix-blend-mode:multiply;}.cls-17{fill:url(#linear-gradient-2);}.cls-18{fill:url(#linear-gradient-3);}.cls-20{fill:#1e75bb;}.cls-21{opacity:0.14;}</style><linearGradient id="linear-gradient" x1="18.53" y1="96.85" x2="29.21" y2="96.85" gradientUnits="userSpaceOnUse"><stop offset="0" stop-color="#ea9733"/><stop offset="0.35" stop-color="#eb9c3c"/><stop offset="0.92" stop-color="#eda953"/><stop offset="1" stop-color="#edab57"/></linearGradient><linearGradient id="linear-gradient-2" x1="-5376.69" y1="-2594.01" x2="-5424.17" y2="-2603.08" gradientTransform="matrix(0.85, -0.57, 0.58, 0.82, 6198, -891.42)" gradientUnits="userSpaceOnUse"><stop offset="0" stop-color="#dbdbdb"/><stop offset="1" stop-color="#fff"/></linearGradient><linearGradient id="linear-gradient-3" x1="-5417.29" y1="-2615.52" x2="-5421.95" y2="-2614.48" gradientTransform="matrix(0.85, -0.57, 0.58, 0.82, 6198, -891.42)" gradientUnits="userSpaceOnUse"><stop offset="0" stop-color="#d9d9d9"/><stop offset="1" stop-color="#e0e0e0"/></linearGradient></defs><title>Asset 6</title><g class="cls-1"><g id="Layer_2" data-name="Layer 2"><g id="Layer_1-2" data-name="Layer 1"><rect class="cls-2" x="8.4" y="82.96" width="92.58" height="69.21" rx="3.21" ry="3.21"/><rect class="cls-3" x="13.41" y="87.47" width="82.56" height="53.97"/><circle class="cls-4" cx="93.24" cy="104.04" r="0.14"/><rect class="cls-5" x="18.53" y="91.51" width="10.68" height="10.68" rx="0.61" ry="0.61"/><rect class="cls-6" x="18.61" y="105.66" width="67.23" height="3.01"/><rect class="cls-6" x="18.61" y="113.26" width="67.23" height="3.01"/><rect class="cls-6" x="18.61" y="120.87" width="67.23" height="3.01"/><rect class="cls-6" x="18.61" y="128.47" width="67.23" height="3.01"/><path class="cls-6" d="M47.67,97A.39.39,0,0,1,48,97a.34.34,0,0,1,.17.22.36.36,0,0,1,0,.27.32.32,0,0,1,.16.2.39.39,0,0,1,0,.28.33.33,0,0,1-.22.18l-.23.06a.1.1,0,0,1-.09,0,.11.11,0,0,1-.06-.07.1.1,0,0,1,0-.09A.13.13,0,0,1,47.7,98l.24-.07a.13.13,0,0,0,.07-.06.1.1,0,0,0,0-.09A.11.11,0,0,0,48,97.7a.1.1,0,0,0-.09,0l-.23.06a.12.12,0,0,1-.1,0,.11.11,0,0,1-.06-.07.1.1,0,0,1,0-.09.11.11,0,0,1,.07-.06l.23-.07a.12.12,0,0,0,.08-.06.14.14,0,0,0,0-.09.13.13,0,0,0-.06-.07.1.1,0,0,0-.09,0l-.24.07a.15.15,0,0,1-.09,0,.11.11,0,0,1-.06-.07.14.14,0,0,1,0-.09.12.12,0,0,1,.08-.06Z"/><path class="cls-6" d="M47.21,96.64a.11.11,0,0,1,.08,0,.12.12,0,0,1,0,.09.09.09,0,0,1,0,.09.12.12,0,0,1-.17,0,.11.11,0,0,1,0-.09.16.16,0,0,1,0-.09A.13.13,0,0,1,47.21,96.64Zm.73,0a.14.14,0,0,1,.09,0,.1.1,0,0,1,0,.09.16.16,0,0,1,0,.09l-.09,0h-.4a.07.07,0,0,1-.08,0,.09.09,0,0,1,0-.08.09.09,0,0,1,0-.09.09.09,0,0,1,.08,0Z"/><path class="cls-6" d="M48,96a.12.12,0,0,1,.08,0,.16.16,0,0,1,0,.09v0a.38.38,0,0,1-.4.34l-.49,0a.14.14,0,0,1-.08,0,.12.12,0,0,1,0-.17.16.16,0,0,1,.09,0h.13v-.15a.12.12,0,0,1,0-.08.11.11,0,0,1,.09,0,.12.12,0,0,1,.08,0,.09.09,0,0,1,0,.09v.15h.12a.09.09,0,0,0,.09,0,.1.1,0,0,0,0-.08v0a.14.14,0,0,1,0-.08A.12.12,0,0,1,48,96Z"/><path class="cls-6" d="M48.11,95.49a.12.12,0,0,1,.08.06.1.1,0,0,1,0,.09v0a.33.33,0,0,1-.16.22.35.35,0,0,1-.28,0l-.48-.13s-.05,0-.07,0a.16.16,0,0,1,0-.1.13.13,0,0,1,.06-.07.1.1,0,0,1,.09,0l.12,0,0-.15a.16.16,0,0,1,.06-.08.14.14,0,0,1,.09,0,.11.11,0,0,1,.07.06.1.1,0,0,1,0,.09l0,.15.12,0a.1.1,0,0,0,.09,0,.11.11,0,0,0,.06-.07v0A.16.16,0,0,1,48,95.5.14.14,0,0,1,48.11,95.49Z"/><path class="cls-6" d="M48,94.59a.33.33,0,0,1,.16.15.31.31,0,0,1,0,.21l.11.06a.09.09,0,0,1,.06.07.14.14,0,0,1,0,.09.13.13,0,0,1-.07.06h-.1l-.11-.06a.36.36,0,0,1-.2.11.42.42,0,0,1-.22,0l-.24-.12a.09.09,0,0,1-.06-.07.1.1,0,0,1,0-.09.09.09,0,0,1,.07-.06h.09l.24.12a.14.14,0,0,0,.09,0A.11.11,0,0,0,48,95a.1.1,0,0,0,0-.09.16.16,0,0,0-.07-.07l-.24-.12a.09.09,0,0,1-.06-.07.1.1,0,0,1,0-.09.09.09,0,0,1,.07-.06.14.14,0,0,1,.09,0Z"/><path class="cls-6" d="M48.76,93.65a.1.1,0,0,1,0,.09.11.11,0,0,1,0,.08l-.18.2a.08.08,0,0,0,0,.09.29.29,0,0,0,0,.09.16.16,0,0,1,0,.09.11.11,0,0,1-.09,0,.16.16,0,0,1-.09,0,.05.05,0,0,1,0,0,.3.3,0,0,1,0-.21.35.35,0,0,1,.1-.2l.18-.19a.09.09,0,0,1,.08,0A.12.12,0,0,1,48.76,93.65Zm.24.23,0,0a.41.41,0,0,1,0,.22.4.4,0,0,1-.09.2l-.18.19a.18.18,0,0,1-.09,0,.12.12,0,0,1-.09,0,.12.12,0,0,1,0-.08.1.1,0,0,1,0-.09l.18-.19a.14.14,0,0,0,0-.14.11.11,0,0,1,0-.14.12.12,0,0,1,.08,0A.1.1,0,0,1,49,93.88Z"/><path class="cls-6" d="M49.75,93.56a.15.15,0,0,1,0,.09.12.12,0,0,1-.06.08l-.19.13a.36.36,0,0,1-.28.06.32.32,0,0,1-.23-.16.32.32,0,0,1-.06-.27.36.36,0,0,1,.16-.24l.2-.13s0,0,.09,0a.16.16,0,0,1,.08.06s0,0,0,.09a.1.1,0,0,1-.05.08l-.19.13a.12.12,0,0,0-.06.08.15.15,0,0,0,0,.09.16.16,0,0,0,.08.05.15.15,0,0,0,.09,0l.2-.13a.1.1,0,0,1,.09,0A.14.14,0,0,1,49.75,93.56Z"/><path class="cls-6" d="M50.46,93.28a.17.17,0,0,1,0,.1.13.13,0,0,1-.07.06.17.17,0,0,1-.1,0,.13.13,0,0,1-.06-.07l-.09-.23a.13.13,0,0,0-.06-.07H50a.08.08,0,0,0-.07.07.1.1,0,0,0,0,.09l.08.23a.07.07,0,0,1,0,.09.12.12,0,0,1-.07.07.1.1,0,0,1-.09,0,.09.09,0,0,1-.06-.06l-.27-.69a.14.14,0,0,1,0-.09.12.12,0,0,1,.07-.07.14.14,0,0,1,.09,0,.12.12,0,0,1,.07.07l0,.13.11-.06a.39.39,0,0,1,.28,0,.37.37,0,0,1,.19.2Z"/><path class="cls-6" d="M51.19,92.93a.37.37,0,0,1-.07.27.33.33,0,0,1-.24.14.33.33,0,0,1-.27-.07.35.35,0,0,1-.15-.24.37.37,0,0,1,.07-.27.33.33,0,0,1,.24-.14.35.35,0,0,1,.28.07A.37.37,0,0,1,51.19,92.93Zm-.25,0a.12.12,0,0,0,0-.08.12.12,0,0,0-.17,0,.09.09,0,0,0,0,.09.1.1,0,0,0,0,.07.11.11,0,0,0,.09,0,.11.11,0,0,0,.08,0A.09.09,0,0,0,50.94,93Z"/><path class="cls-6" d="M52,93a.36.36,0,0,1-.13.25.34.34,0,0,1-.26.08.34.34,0,0,1-.25-.13.33.33,0,0,1-.09-.27.32.32,0,0,1,.13-.24.34.34,0,0,1,.27-.09.36.36,0,0,1,.25.13A.38.38,0,0,1,52,93Zm-.24,0a.12.12,0,0,0,0-.09.09.09,0,0,0-.08,0,.1.1,0,0,0-.09,0,.11.11,0,0,0,0,.09.07.07,0,0,0,0,.08.14.14,0,0,0,.08,0,.16.16,0,0,0,.09,0A.12.12,0,0,0,51.77,93Z"/><path class="cls-6" d="M52.28,93.32a.11.11,0,0,1-.06.07.1.1,0,0,1-.09,0,.16.16,0,0,1-.08-.06.14.14,0,0,1,0-.09l.18-.71a.11.11,0,0,1,.05-.08.11.11,0,0,1,.1,0s.05,0,.07.05a.16.16,0,0,1,0,.1Z"/><path class="cls-6" d="M53.64,93.57a.1.1,0,0,1-.08.05.1.1,0,0,1-.09,0l-.06,0,0,0a.33.33,0,0,1-.19.14.31.31,0,0,1-.23,0l-.16-.09a.26.26,0,0,1-.15-.19.31.31,0,0,1,0-.23.37.37,0,0,1,.15-.13.26.26,0,0,1,0-.19.28.28,0,0,1,.18-.14.31.31,0,0,1,.23,0l.2.11a.12.12,0,0,1,.06.08.1.1,0,0,1,0,.09.11.11,0,0,1-.07.06.14.14,0,0,1-.09,0l-.2-.12a0,0,0,0,0,0,0s0,0,0,0,0,0,0,0l0,0,0,0a.1.1,0,0,1,.06.12.08.08,0,0,1,0,0,.11.11,0,0,1-.07.06.1.1,0,0,1-.09,0l-.05,0a0,0,0,0,0,0,0l0,0a.09.09,0,0,0,0,.05s0,0,0,0l.16.09a0,0,0,0,0,.05,0l0,0,.09-.16a.12.12,0,0,1,.08-.06.1.1,0,0,1,.09,0l.17.1a.11.11,0,0,1,.06.07A.16.16,0,0,1,53.64,93.57Z"/><path class="cls-6" d="M54.15,94.65a.16.16,0,0,1-.09,0,.13.13,0,0,1-.09-.05l-.15-.18a.31.31,0,0,1-.09-.26.36.36,0,0,1,.13-.26.34.34,0,0,1,.26-.08.34.34,0,0,1,.25.13l.16.18a.12.12,0,0,1,0,.09.2.2,0,0,1,0,.08.16.16,0,0,1-.09,0,.13.13,0,0,1-.09,0l-.15-.18a.13.13,0,0,0-.09,0,.11.11,0,0,0-.08,0,.09.09,0,0,0,0,.08.09.09,0,0,0,0,.09l.16.18a.16.16,0,0,1,0,.09A.15.15,0,0,1,54.15,94.65Z"/><path class="cls-6" d="M54.72,95.21a.39.39,0,0,1-.28,0,.36.36,0,0,1-.22-.18.39.39,0,0,1,0-.28.37.37,0,0,1,.7.22A.36.36,0,0,1,54.72,95.21ZM54.61,95s0,0,0-.07a.14.14,0,0,0,0-.09.12.12,0,0,0-.08-.06h-.09a.12.12,0,0,0-.06.08.14.14,0,0,0,0,.09.13.13,0,0,0,.07.06A.17.17,0,0,0,54.61,95Z"/><path class="cls-6" d="M54.59,95.61a.11.11,0,0,1-.1,0,.11.11,0,0,1-.06-.07.1.1,0,0,1,0-.09.16.16,0,0,1,.07-.07l.69-.23a.17.17,0,0,1,.1,0,.12.12,0,0,1,.06.08.1.1,0,0,1,0,.09.11.11,0,0,1-.07.06Z"/><path class="cls-6" d="M54.66,95.91a.1.1,0,0,1-.09,0,.11.11,0,0,1-.06-.07.16.16,0,0,1,0-.1.18.18,0,0,1,.07,0l.72-.17a.1.1,0,0,1,.09,0,.12.12,0,0,1,.06.08.1.1,0,0,1,0,.09.13.13,0,0,1-.07.06Z"/><path class="cls-6" d="M54.74,96.69a.16.16,0,0,1-.09,0,.13.13,0,0,1,0-.09l0-.24a.39.39,0,0,1,.09-.26.36.36,0,0,1,.25-.13.38.38,0,0,1,.4.34.39.39,0,0,1-.07.23.3.3,0,0,1-.19.14h0a.16.16,0,0,1-.09,0,.12.12,0,0,1,0-.08.13.13,0,0,1,.09-.13.11.11,0,0,0,.08-.12.15.15,0,0,0,0-.09.16.16,0,0,0-.09,0,.14.14,0,0,0-.08,0,.11.11,0,0,0,0,.08l0,.24a.12.12,0,0,1,0,.09A.11.11,0,0,1,54.74,96.69Z"/><path class="cls-6" d="M54.63,97.46a.32.32,0,0,1-.24-.15.37.37,0,0,1-.07-.27l0-.12a.1.1,0,0,1,0-.08.15.15,0,0,1,.09,0,.14.14,0,0,1,.08.05.1.1,0,0,1,0,.09l0,.12a.16.16,0,0,0,0,.09.12.12,0,0,0,.07,0l.25,0a.16.16,0,0,0,.09,0,.12.12,0,0,0,0-.07.17.17,0,0,0,0-.1A.1.1,0,0,0,55,97a.14.14,0,0,0-.09,0,.09.09,0,0,1-.08,0,.09.09,0,0,1-.08,0,.12.12,0,0,1,0-.09s0-.09.13-.12a.37.37,0,0,1,.18,0,.38.38,0,0,1,.24.15.33.33,0,0,1,.07.27.35.35,0,0,1-.15.24.37.37,0,0,1-.27.07Z"/><path class="cls-6" d="M54.34,98.19a.13.13,0,0,1-.06-.07.1.1,0,0,1,0-.09l.09-.23a.39.39,0,0,1,.2-.2.37.37,0,0,1,.48.19.41.41,0,0,1,0,.29.46.46,0,0,1-.16.18.41.41,0,0,1-.24,0h0a.13.13,0,0,1-.07-.06.17.17,0,0,1,0-.1.13.13,0,0,1,.14-.07.13.13,0,0,0,.13-.08.14.14,0,0,0,0-.09.13.13,0,0,0-.07-.06.08.08,0,0,0-.09,0,.13.13,0,0,0-.07.06l-.09.23a.09.09,0,0,1-.06.06A.12.12,0,0,1,54.34,98.19Z"/><path class="cls-6" d="M50.18,95.58v.64A3.5,3.5,0,0,1,51.34,96a3.69,3.69,0,0,1,1.16.25v-.65a2.93,2.93,0,0,0-1.17-.31,2.76,2.76,0,0,0-1.15.33Z"/><path class="cls-6" d="M53.15,95.42l.23-.13-.23-.12v-.06s.06-.33-.31-.16t0,0l-1.52-.84-2,1.15.75.34v-.11a3,3,0,0,1,1.29-.36,3.25,3.25,0,0,1,1.3.34v.2l.42-.23v.91h-.14v.32l.18-.13.21.13v-.32h-.15v-1Zm-.1-.37v.06L52.92,95s.13-.07.13,0Zm0,.36a.1.1,0,0,1,0-.2.1.1,0,0,1,0,.2Z"/><path class="cls-6" d="M52.81,97.34a1,1,0,0,1-1,1,1,1,0,0,1-.43-.1,1,1,0,0,1-1.48-.93v-.44a.58.58,0,0,1,.18-.43.58.58,0,0,1,.42-.18.6.6,0,0,1,.44.19.59.59,0,0,1,.43-.19.61.61,0,0,1,.44.19.61.61,0,0,1,.43-.19.58.58,0,0,1,.43.18.58.58,0,0,1,.18.42Zm-.39,0V96.9a.21.21,0,0,0-.21-.21.21.21,0,0,0-.16.06.22.22,0,0,0-.07.16v.43a.21.21,0,0,1-.07.15.2.2,0,0,1-.3,0,.2.2,0,0,1-.06-.15v-.43a.24.24,0,0,0-.07-.16.21.21,0,0,0-.16-.06.2.2,0,0,0-.15.06.24.24,0,0,0-.07.16v.43a.25.25,0,0,1-.06.16.22.22,0,0,1-.3,0,.24.24,0,0,1-.06-.15v-.44a.24.24,0,0,0-.07-.16.23.23,0,0,0-.16-.06.2.2,0,0,0-.15.06.25.25,0,0,0-.06.16v.44a.63.63,0,0,0,.19.46.65.65,0,0,0,.9,0,.63.63,0,0,0,.43.17.61.61,0,0,0,.46-.2A.6.6,0,0,0,52.42,97.34Z"/><path class="cls-6" d="M51.33,91.71a4.87,4.87,0,1,0,4.87,4.86A4.87,4.87,0,0,0,51.33,91.71Zm0,9.53A4.67,4.67,0,1,1,56,96.57,4.66,4.66,0,0,1,51.34,101.24Z"/><path class="cls-6" d="M56.13,101c.28-.11.43-.16.72-.25a8.59,8.59,0,0,0-1.13-.72l-.13-.07.33-.19c-.23-.11-.47-.21-.7-.3a4.87,4.87,0,1,0-8.75-2.93,4.78,4.78,0,0,0,1,2.92l-.58.25.25.16L47,100a8.5,8.5,0,0,0-1.13.71,6,6,0,0,1,.71.26c-.08.34-.12.52-.18.86a9.25,9.25,0,0,1,1-.64l.07,0c0,.09,0,.19-.08.3a9.21,9.21,0,0,1,1.29-.49l.36-.08a4.81,4.81,0,0,0,2.3.57,4.73,4.73,0,0,0,2.28-.57l.48.12a9.34,9.34,0,0,1,1.29.51c0-.08,0-.16-.07-.23a7.22,7.22,0,0,1,1,.64C56.25,101.56,56.21,101.39,56.13,101Zm-4.79.2a4.75,4.75,0,0,1-2-.44,10,10,0,0,1,4,0A4.81,4.81,0,0,1,51.34,101.24ZM53,98.93a11.13,11.13,0,0,0-3.36,0,2.89,2.89,0,1,1,4.57-2.36A2.84,2.84,0,0,1,53,98.93Zm.21.77a.65.65,0,0,1,0,.2.37.37,0,0,1,0,.16.14.14,0,0,1-.1.07h-.28l-.17,0a.13.13,0,0,1-.07-.1.53.53,0,0,1,0-.18.6.6,0,0,1,0-.18.12.12,0,0,1,.09-.08.53.53,0,0,1,.18,0H53a.56.56,0,0,1,.19,0A.13.13,0,0,1,53.22,99.7Zm-1-.09a.18.18,0,0,0-.15-.06h0a.18.18,0,0,0-.15.06.32.32,0,0,0,0,.17V100h-.1v-.26a.4.4,0,0,0,0-.17.18.18,0,0,0-.15-.07h0a.18.18,0,0,0-.15.06.4.4,0,0,0,0,.18V100h-.09v-.58h.1v.07a.18.18,0,0,1,.17-.07h.06a.25.25,0,0,1,.21.12.22.22,0,0,1,.21-.11h.07c.18,0,.26.1.25.29v.29h-.09v-.3A.2.2,0,0,0,52.19,99.61Zm-1.38.1v.08l-.39,0a.17.17,0,0,0,0,.14s.07,0,.15,0h.12a.33.33,0,0,0,.14,0s0,0,0-.08H51A.14.14,0,0,1,51,100a.58.58,0,0,1-.21,0h-.13a.48.48,0,0,1-.18,0,.11.11,0,0,1-.08-.07.6.6,0,0,1,0-.18.92.92,0,0,1,0-.19.14.14,0,0,1,.08-.09.48.48,0,0,1,.18,0h.13a.36.36,0,0,1,.22,0,.13.13,0,0,1,.07.12h-.09s0-.06-.06-.06h-.26a.34.34,0,0,0-.15,0s0,.07,0,.13Zm-1-.16a.32.32,0,0,1,.18,0,.16.16,0,0,1,.08.1,1.06,1.06,0,0,1,0,.18.37.37,0,0,1,0,.2.26.26,0,0,1-.19.08l-.4.05-.07-.58Zm4.63-.31A11.72,11.72,0,0,0,53.18,99a3,3,0,1,0-4.86-2.38A3,3,0,0,0,49.48,99c-.38.07-.76.15-1.14.25s-.47.14-.7.23A4.67,4.67,0,1,1,56,96.57a4.6,4.6,0,0,1-1,2.86Z"/><path class="cls-6" d="M52.86,99.63H52.7a.27.27,0,0,0-.05.14v.06a.18.18,0,0,0,0,.14.3.3,0,0,0,.15,0l.1,0H53a.09.09,0,0,0,.07,0,.5.5,0,0,0,0-.12v0a.24.24,0,0,0,0-.12.08.08,0,0,0,0,0l-.12,0Z"/><path class="cls-6" d="M49.89,100c.06,0,.11,0,.12-.05s0-.06,0-.13v-.07a.18.18,0,0,0,0-.13.19.19,0,0,0-.14,0l-.28,0,0,.4Z"/><rect class="cls-7" x="72.93" y="94.08" width="13.24" height="5.71" rx="0.6" ry="0.6"/><path class="cls-3" d="M76.36,96.82a.27.27,0,0,0-.21-.09h-.1v-.41a.35.35,0,0,0,0-.13.36.36,0,0,0-.08-.12l-.24-.24a.24.24,0,0,0-.11-.08l-.14,0H74.39a.14.14,0,0,0-.15.15v.86h-.1a.29.29,0,0,0-.22.09.28.28,0,0,0-.08.21v.65s0,0,0,0h.39V98a.13.13,0,0,0,0,.1.16.16,0,0,0,.11,0H75.9a.16.16,0,0,0,.11,0,.13.13,0,0,0,0-.1v-.26h.39s0,0,0,0V97a.29.29,0,0,0-.09-.21Zm-.51,1.12H74.44v-.41h1.41Zm0-1H74.44v-1h1v.25a.14.14,0,0,0,.15.15h.25Zm.37.17a.1.1,0,1,1,0-.07.09.09,0,0,1,0,.07Z"/><text class="cls-8" transform="translate(76.66 98.11)">Print</text><circle class="cls-3" cx="23.87" cy="95.08" r="2.13"/><rect class="cls-3" x="20.4" y="97.6" width="6.95" height="3.28" rx="0.35" ry="0.35"/><path class="cls-9" d="M107.18,145.85H65.56v1.4H43.83v-1.4H0V150a2.21,2.21,0,0,0,2.21,2.21h105a2.22,2.22,0,0,0,2.21-2.21v-4.11Z"/><rect class="cls-10" x="117.15" y="63.98" width="72.27" height="22.4"/><rect class="cls-11" x="129.59" y="59.33" width="47.39" height="36.28"/><rect class="cls-12" x="105.18" y="75.18" width="96.21" height="39.68" rx="3.29" ry="3.29"/><path class="cls-13" d="M114.21,80.47A2.18,2.18,0,1,1,112,78.29,2.19,2.19,0,0,1,114.21,80.47Z"/><path class="cls-14" d="M114.21,86.84A2.18,2.18,0,1,1,112,84.66,2.19,2.19,0,0,1,114.21,86.84Z"/><path class="cls-15" d="M105.18,95v16.55a3.3,3.3,0,0,0,3.29,3.29h89.62a3.31,3.31,0,0,0,3.3-3.29V95Z"/><rect class="cls-11" x="129.59" y="104.94" width="47.39" height="21.63"/><path class="cls-6" d="M141.28,114.9a2.36,2.36,0,0,0,2.3,1.67h.32a2.36,2.36,0,0,0,2.26-1.73l2-6.79a.8.8,0,1,0-1.54-.45l-.75,2.6-4.32,0-.8-2.58a.79.79,0,0,0-.78-.56l-.23,0a.82.82,0,0,0-.53,1Zm4.08-3.09-.74,2.59a.79.79,0,0,1-.74.56h-.32a.75.75,0,0,1-.74-.54l-.81-2.57Z"/><path class="cls-6" d="M157.57,110l12.89-.14a.81.81,0,1,0,0-1.61l-12.88.14a.81.81,0,0,0,0,1.61Z"/><path class="cls-6" d="M135.05,112.71h.68v.68a.8.8,0,0,0,.81.8.82.82,0,0,0,.8-.82v-.67H138a.81.81,0,0,0,0-1.61h-.68v-.68a.8.8,0,0,0-.81-.8.82.82,0,0,0-.8.82v.67H135a.8.8,0,0,0-.79.82.8.8,0,0,0,.81.79Z"/><rect class="cls-10" x="117.15" y="102.97" width="72.27" height="8.31"/><path class="cls-6" d="M155.92,119.93a.29.29,0,0,1-.24,0,.31.31,0,0,1-.16-.19.32.32,0,0,0-.13-.4.29.29,0,0,1,0-.24.31.31,0,0,1,.18-.16l.2-.06a.1.1,0,0,1,.09,0,.1.1,0,0,1,.05.06.08.08,0,0,1,0,.08.1.1,0,0,1-.06,0l-.2.07a.06.06,0,0,0-.06.05.11.11,0,0,0,0,.08l0,.06a.11.11,0,0,0,.08,0l.2-.06a.08.08,0,0,1,.08,0,.09.09,0,0,1,.06.06.08.08,0,0,1,0,.08s0,0-.06,0l-.2.07s0,0-.06,0a.08.08,0,0,0,0,.08.1.1,0,0,0,.05.06h.08l.2-.07a.1.1,0,0,1,.09,0,.1.1,0,0,1,.05.06.11.11,0,0,1,0,.08s0,0-.06,0Z"/><path class="cls-6" d="M156.33,120.21a.11.11,0,0,1-.08,0,.09.09,0,0,1,0-.07.08.08,0,0,1,0-.08l.07,0a.11.11,0,0,1,.08,0,.16.16,0,0,1,0,.07.11.11,0,0,1,0,.08A.1.1,0,0,1,156.33,120.21Zm-.63.05a.11.11,0,0,1-.08,0,.1.1,0,0,1,0-.07.13.13,0,0,1,0-.08.09.09,0,0,1,.07,0l.34,0a.11.11,0,0,1,.08,0,.2.2,0,0,1,0,.08.11.11,0,0,1,0,.07.08.08,0,0,1-.07,0Z"/><path class="cls-6" d="M155.68,120.75a.09.09,0,0,1-.07,0,.11.11,0,0,1,0-.08v0a.3.3,0,0,1,.11-.22.32.32,0,0,1,.23-.09l.42,0a.1.1,0,0,1,.07,0,.11.11,0,0,1,0,.08.09.09,0,0,1,0,.07.09.09,0,0,1-.07,0h-.11v.13a.2.2,0,0,1,0,.08.12.12,0,0,1-.15,0,.11.11,0,0,1,0-.08v-.13h-.11a.11.11,0,0,0-.07,0,.25.25,0,0,0,0,.07v0a.11.11,0,0,1,0,.08A.11.11,0,0,1,155.68,120.75Z"/><path class="cls-6" d="M155.58,121.23s-.05,0-.06,0a.08.08,0,0,1,0-.08v0a.28.28,0,0,1,.13-.2.35.35,0,0,1,.24,0l.42.09a.1.1,0,0,1,.06,0,.08.08,0,0,1,0,.08.12.12,0,0,1,0,.07.11.11,0,0,1-.08,0l-.1,0,0,.13a.12.12,0,0,1-.05.07.11.11,0,0,1-.08,0s-.05,0-.06,0a.11.11,0,0,1,0-.08l0-.13-.1,0a.12.12,0,0,0-.08,0,.15.15,0,0,0,0,.06v0a.12.12,0,0,1-.05.07A.11.11,0,0,1,155.58,121.23Z"/><path class="cls-6" d="M155.7,122a.37.37,0,0,1-.15-.13.27.27,0,0,1,0-.18l-.1,0a.17.17,0,0,1-.06-.06.08.08,0,0,1,0-.08.1.1,0,0,1,0-.06h.09l.09,0a.28.28,0,0,1,.17-.09.25.25,0,0,1,.19,0l.21.09a.09.09,0,0,1,.06.06.11.11,0,0,1,0,.08s0,0-.06,0a.06.06,0,0,1-.08,0l-.21-.09a.11.11,0,0,0-.08,0,.09.09,0,0,0-.06.06.11.11,0,0,0,0,.08.12.12,0,0,0,.05,0l.22.1a.12.12,0,0,1,.05,0,.14.14,0,0,1,0,.09.1.1,0,0,1-.06,0,.11.11,0,0,1-.08,0Z"/><path class="cls-6" d="M155.08,122.84a.1.1,0,0,1,0-.07.11.11,0,0,1,0-.08l.15-.17a.08.08,0,0,0,0-.08l0-.08a.08.08,0,0,1,0-.08.2.2,0,0,1,.08,0,.09.09,0,0,1,.07,0l0,0a.28.28,0,0,1,0,.18.29.29,0,0,1-.07.18l-.15.17a.12.12,0,0,1-.08,0A.11.11,0,0,1,155.08,122.84Zm-.22-.19,0,0a.34.34,0,0,1,0-.18.37.37,0,0,1,.08-.18l.15-.17a.09.09,0,0,1,.07,0,.08.08,0,0,1,.08,0,.2.2,0,0,1,0,.08.11.11,0,0,1,0,.07l-.15.17a.11.11,0,0,0,0,.12s0,.09,0,.12a.07.07,0,0,1-.07,0A.13.13,0,0,1,154.86,122.65Z"/><path class="cls-6" d="M154.23,123a.11.11,0,0,1,0-.08.16.16,0,0,1,0-.07l.17-.12a.32.32,0,1,1,.37.51l-.17.12a.07.07,0,0,1-.07,0,.08.08,0,0,1-.07,0,.08.08,0,0,1,0-.08.1.1,0,0,1,0-.07l.17-.12s0,0,0-.07a.08.08,0,0,0,0-.07.12.12,0,0,0-.07,0l-.08,0-.16.12a.08.08,0,0,1-.08,0A.1.1,0,0,1,154.23,123Z"/><path class="cls-6" d="M153.62,123.21a.11.11,0,0,1,0-.08.09.09,0,0,1,.06-.06h.08a.09.09,0,0,1,.06.06l.08.19a.09.09,0,0,0,.06.06.11.11,0,0,0,.08,0,.1.1,0,0,0,.05-.06s0,0,0-.08l-.08-.19a.14.14,0,0,1,0-.09.1.1,0,0,1,.06,0,.08.08,0,0,1,.08,0l.06,0,.25.59a.11.11,0,0,1,0,.08.09.09,0,0,1-.06.06.11.11,0,0,1-.08,0,.09.09,0,0,1-.06-.06l0-.11-.09,0a.29.29,0,0,1-.24,0,.31.31,0,0,1-.17-.17Z"/><path class="cls-6" d="M153,123.54a.35.35,0,0,1,.06-.24.31.31,0,0,1,.2-.13.3.3,0,0,1,.24.06.31.31,0,0,1,.13.2.34.34,0,0,1,0,.24.36.36,0,0,1-.21.13.35.35,0,0,1-.24-.06A.31.31,0,0,1,153,123.54Zm.21,0a.12.12,0,0,0,0,.07.08.08,0,0,0,.07,0,.12.12,0,0,0,.07,0,.1.1,0,0,0,0-.07.12.12,0,0,0,0-.07.1.1,0,0,0-.07,0l-.07,0A.12.12,0,0,0,153.21,123.5Z"/><path class="cls-6" d="M152.29,123.51a.32.32,0,0,1,.1-.22.38.38,0,0,1,.23-.08.31.31,0,0,1,.22.11.27.27,0,0,1,.08.23.28.28,0,0,1-.1.21.33.33,0,0,1-.23.09.31.31,0,0,1-.22-.11A.27.27,0,0,1,152.29,123.51Zm.21,0a.11.11,0,0,0,0,.08.09.09,0,0,0,.07,0,.12.12,0,0,0,.08,0,.11.11,0,0,0,0-.08.11.11,0,0,0,0-.07l-.07,0a.09.09,0,0,0-.07,0A.09.09,0,0,0,152.5,123.52Z"/><path class="cls-6" d="M152.05,123.24s0-.06,0-.07a.11.11,0,0,1,.08,0,.1.1,0,0,1,.06,0,.11.11,0,0,1,0,.08l-.13.62a.18.18,0,0,1,0,.07.11.11,0,0,1-.08,0,.1.1,0,0,1-.07,0,.11.11,0,0,1,0-.08Z"/><path class="cls-6" d="M150.87,123.06a.1.1,0,0,1,.06,0,.11.11,0,0,1,.08,0l.06,0,0,0a.29.29,0,0,1,.16-.13.28.28,0,0,1,.2,0l.14.08a.22.22,0,0,1,.13.15.28.28,0,0,1-.14.32.22.22,0,0,1,0,.16.22.22,0,0,1-.15.13.23.23,0,0,1-.2,0l-.18-.1a.1.1,0,0,1-.05-.06.11.11,0,0,1,0-.08s0,0,.06,0a.08.08,0,0,1,.08,0l.18.09s0,0,0,0l0,0v0s0,0,0,0l0,0a.08.08,0,0,1-.05-.1.06.06,0,0,1,0,0s0,0,.06,0a.11.11,0,0,1,.08,0l0,0s0,0,0,0a0,0,0,0,0,0,0,0,0,0,0,0,0,0s0,0,0,0l-.14-.07a0,0,0,0,0,0,0l0,0-.07.14a.12.12,0,0,1-.07.05h-.08l-.15-.08a.18.18,0,0,1,0-.07A.12.12,0,0,1,150.87,123.06Z"/><path class="cls-6" d="M150.4,122.15a.09.09,0,0,1,.07,0,.11.11,0,0,1,.08,0l.13.15a.33.33,0,0,1,.09.23.35.35,0,0,1-.1.22.33.33,0,0,1-.23.09.31.31,0,0,1-.22-.11l-.14-.15a.11.11,0,0,1,.08-.18.12.12,0,0,1,.08,0l.13.15a.11.11,0,0,0,.08,0,.08.08,0,0,0,.07,0,.2.2,0,0,0,0-.08.09.09,0,0,0,0-.07l-.14-.15a.11.11,0,0,1,0-.08A.08.08,0,0,1,150.4,122.15Z"/><path class="cls-6" d="M149.88,121.68a.34.34,0,0,1,.24,0,.26.26,0,0,1,.19.15.25.25,0,0,1,0,.24.3.3,0,0,1-.14.19.34.34,0,0,1-.24,0,.3.3,0,0,1-.2-.15.33.33,0,0,1,0-.24A.36.36,0,0,1,149.88,121.68Zm.11.18a.12.12,0,0,0-.05.07.08.08,0,0,0,0,.08.1.1,0,0,0,.06,0h.08a.12.12,0,0,0,0-.07.11.11,0,0,0,0-.08.15.15,0,0,0-.06-.05Z"/><path class="cls-6" d="M150,121.33a.14.14,0,0,1,.09,0,.1.1,0,0,1,.05.06.11.11,0,0,1,0,.08.09.09,0,0,1-.06.06l-.59.22a.14.14,0,0,1-.09,0,.1.1,0,0,1,0-.06.11.11,0,0,1,0-.08s0,0,.06,0Z"/><path class="cls-6" d="M149.91,121.07a.11.11,0,0,1,.08,0,.12.12,0,0,1,0,.07.08.08,0,0,1,0,.08.1.1,0,0,1-.06,0l-.62.17a.12.12,0,0,1-.08,0,.18.18,0,0,1-.05-.07.25.25,0,0,1,0-.08.18.18,0,0,1,.07-.05Z"/><path class="cls-6" d="M149.82,120.4a.1.1,0,0,1,.07,0,.09.09,0,0,1,0,.07l0,.21a.34.34,0,0,1-.07.24.36.36,0,0,1-.21.11.34.34,0,0,1-.24-.06.32.32,0,0,1-.12-.22.35.35,0,0,1,.05-.2.28.28,0,0,1,.17-.13h0a.13.13,0,0,1,.08,0s0,0,0,.07a.11.11,0,0,1-.07.11.09.09,0,0,0-.07.11.08.08,0,0,0,0,.07.06.06,0,0,0,.07,0,.08.08,0,0,0,.07,0,.07.07,0,0,0,0-.07l0-.21a.19.19,0,0,1,0-.08A.12.12,0,0,1,149.82,120.4Z"/><path class="cls-6" d="M149.89,119.73a.28.28,0,0,1,.21.12.28.28,0,0,1,.07.23v.1s0,.06,0,.07a.13.13,0,0,1-.08,0l-.07,0a.08.08,0,0,1,0-.08v-.1a.19.19,0,0,0,0-.08.1.1,0,0,0-.07,0l-.21,0a.08.08,0,0,0-.08,0,.08.08,0,0,0,0,.07.1.1,0,0,0,0,.07.08.08,0,0,0,.07,0,.07.07,0,0,0,.07,0,.12.12,0,0,1,.08,0,.08.08,0,0,1,.07,0,.1.1,0,0,1,0,.07.14.14,0,0,1-.11.11.26.26,0,0,1-.15,0,.36.36,0,0,1-.22-.11.34.34,0,0,1-.06-.24.3.3,0,0,1,.12-.21.28.28,0,0,1,.23-.07Z"/><path class="cls-6" d="M150.12,119.09l.06.06a.11.11,0,0,1,0,.08l-.07.2a.32.32,0,0,1-.6-.22.34.34,0,0,1,.13-.16.38.38,0,0,1,.21,0h0a.1.1,0,0,1,.06,0,.14.14,0,0,1,0,.09.11.11,0,0,1-.12.06.11.11,0,0,0-.11.07.08.08,0,0,0,0,.08.1.1,0,0,0,.05.06.08.08,0,0,0,.08,0,.09.09,0,0,0,.06-.06l.07-.19a.1.1,0,0,1,.05-.06A.14.14,0,0,1,150.12,119.09Z"/><path class="cls-6" d="M153.8,121.22l0-.55a3.22,3.22,0,0,1-1,.26,3.25,3.25,0,0,1-1-.19l0,.56a2.51,2.51,0,0,0,1,.23,2.29,2.29,0,0,0,1-.31Z"/><path class="cls-6" d="M151.23,121.45l-.19.11.2.11v0s0,.28.27.12c0,0,0,0,0,0l1.34.68,1.69-1.06-.66-.27v.1a2.55,2.55,0,0,1-1.09.35,2.76,2.76,0,0,1-1.14-.26v-.17l-.35.21,0-.79h.12v-.28l-.16.12-.18-.11v.28h.13l0,.83Zm.1.31v-.05l.11.05s-.1.07-.11,0Zm0-.31a.09.09,0,0,1,.08.09s0,.08-.08.08a.08.08,0,0,1-.08-.08s0-.08.08-.09Z"/><path class="cls-6" d="M151.47,119.78a.86.86,0,0,1,.24-.65.82.82,0,0,1,.62-.28.74.74,0,0,1,.38.07.86.86,0,0,1,.37-.1.88.88,0,0,1,.65.24.86.86,0,0,1,.28.62l0,.38a.5.5,0,0,1-.14.37.51.51,0,0,1-.36.17.48.48,0,0,1-.39-.15.53.53,0,0,1-.37.18.55.55,0,0,1-.38-.15.53.53,0,0,1-.37.18.55.55,0,0,1-.37-.14.52.52,0,0,1-.17-.37Zm.33,0v.38a.26.26,0,0,0,.06.13.19.19,0,0,0,.14,0,.16.16,0,0,0,.13-.06.17.17,0,0,0,.05-.13v-.38a.15.15,0,0,1,0-.13.16.16,0,0,1,.13-.06.14.14,0,0,1,.13,0,.15.15,0,0,1,.06.13v.37a.3.3,0,0,0,.06.14.24.24,0,0,0,.14,0,.23.23,0,0,0,.13-.06.16.16,0,0,0,.05-.14v-.38a.21.21,0,0,1,0-.13.18.18,0,0,1,.13-.06.17.17,0,0,1,.13,0,.16.16,0,0,1,.06.13l0,.38a.18.18,0,0,0,.06.13.21.21,0,0,0,.13,0,.15.15,0,0,0,.13-.06.16.16,0,0,0,.05-.14v-.38a.59.59,0,0,0-.18-.39.5.5,0,0,0-.4-.15.59.59,0,0,0-.38.16.52.52,0,0,0-.38-.13.51.51,0,0,0-.39.18A.5.5,0,0,0,151.8,119.76Z"/><path class="cls-6" d="M152.92,124.59a4.2,4.2,0,1,0-4.36-4A4.2,4.2,0,0,0,152.92,124.59Zm-.3-8.23a4,4,0,1,1-3.89,4.18A4,4,0,0,1,152.62,116.36Z"/><path class="cls-6" d="M148.48,116.68a6.44,6.44,0,0,1-.61.24,8.45,8.45,0,0,0,1,.59l.11,0-.27.18.61.24a4.21,4.21,0,1,0,6.71-.24l.49-.22-.21-.14.12-.07a7.28,7.28,0,0,0,1-.64,6.6,6.6,0,0,1-.63-.2c.06-.3.09-.46.13-.75a8.1,8.1,0,0,1-.86.58l-.06,0c0-.08,0-.16.06-.26a7,7,0,0,1-1.11.46l-.3.08a4.25,4.25,0,0,0-2-.42,4,4,0,0,0-2,.56l-.42-.09a6.87,6.87,0,0,1-1.13-.39l.06.19a9.06,9.06,0,0,1-.87-.52C148.37,116.24,148.4,116.38,148.48,116.68Zm4.14-.32a4,4,0,0,1,1.73.32,8.57,8.57,0,0,1-3.42.12A4,4,0,0,1,152.62,116.36Zm-1.38,2a9.79,9.79,0,0,0,2.91-.1,2.5,2.5,0,1,1-2.91.1Zm-.21-.66a1.31,1.31,0,0,1,0-.17.28.28,0,0,1,0-.15.13.13,0,0,1,.09-.05h.24a.28.28,0,0,1,.15,0,.11.11,0,0,1,.06.07.71.71,0,0,1,0,.16,1.57,1.57,0,0,1,0,.16.14.14,0,0,1-.08.07h-.25a.53.53,0,0,1-.17,0A.15.15,0,0,1,151,117.75Zm.9,0a.14.14,0,0,0,.13,0h0a.17.17,0,0,0,.13,0,.28.28,0,0,0,0-.15v-.23h.08v.22a.39.39,0,0,0,0,.15s.06.06.13.06h0a.14.14,0,0,0,.13-.06.31.31,0,0,0,0-.15v-.22h.08v.5h-.09v-.06a.18.18,0,0,1-.15.06h0a.2.2,0,0,1-.19-.09.21.21,0,0,1-.18.1h-.06c-.15,0-.23-.08-.23-.25v-.25h.07v.26A.16.16,0,0,0,151.93,117.79Zm1.19-.12v-.08l.34,0c0-.06,0-.1,0-.12h-.24l-.12,0a.07.07,0,0,0,0,.07h-.08c0-.07,0-.11.05-.13a.48.48,0,0,1,.18,0h.11a.42.42,0,0,1,.16,0,.16.16,0,0,1,.08.06,1.57,1.57,0,0,1,0,.16.42.42,0,0,1,0,.16.12.12,0,0,1-.06.08.46.46,0,0,1-.16,0h-.11a.34.34,0,0,1-.19,0,.14.14,0,0,1-.07-.11H153s0,.05,0,.05h.23a.19.19,0,0,0,.13,0,.16.16,0,0,0,0-.11Zm.85.1a.23.23,0,0,1-.15,0,.1.1,0,0,1-.07-.08.75.75,0,0,1,0-.15c0-.09,0-.15,0-.18a.21.21,0,0,1,.15-.07l.35-.06.08.5Zm-4,.41q.57.13,1.11.21a2.63,2.63,0,0,0-.93,2.1,2.61,2.61,0,1,0,4.14-2.21c.32-.07.65-.15,1-.25s.4-.14.6-.22a4,4,0,0,1-3,6.61,4,4,0,0,1-3.42-6.38Z"/><path class="cls-6" d="M151.36,117.8c.06,0,.11,0,.13,0s0-.05,0-.12v0a.14.14,0,0,0,0-.12s-.06,0-.12,0h-.19a.07.07,0,0,0-.06,0,.56.56,0,0,0,0,.1v0a.33.33,0,0,0,0,.1.1.1,0,0,0,0,0l.1,0Z"/><path class="cls-6" d="M153.91,117.35a.19.19,0,0,0-.11.05.23.23,0,0,0,0,.12v.06s0,.09,0,.1.06,0,.12,0l.24,0-.05-.35Z"/><g class="cls-16"><path class="cls-3" d="M122.25,49.34,82,74.63s-18.71-23-21.23-26.21c-3.32-4.26-10.45-13.93-11.33-19-.36-2.07,3.16-5.1,9.57-9.37C64.44,16.5,85.67,1.77,85.67,1.77Z"/></g><path class="cls-17" d="M119.7,49.52,82,74.63S63.84,50.32,61.78,46.48c-2.71-5.08-8.51-16.58-8.86-22.31-.15-2.36,3.44-5.48,9.84-9.75L84.41,0Z"/><path class="cls-18" d="M52.92,24.17s-.16,6.9,9.87,24c0,0-5.13-8.09-5.73-21.52C57.06,26.65,53.68,27.12,52.92,24.17Z"/><g class="cls-19"><path class="cls-20" d="M82,74.63,119.7,49.52,84.41,0,62.76,14.42c-6.4,4.27-10,7.39-9.84,9.75,0,0-.15,6.24,8.45,21.53l.41.78c.15.27.37.63.65,1.08l0,0,0,0C66.29,53.61,82,74.63,82,74.63Z"/><path class="cls-20" d="M62.46,47.61c.21.37.33.56.33.56Z"/></g><path class="cls-6" d="M76,39.84l-6.27,4.33a.72.72,0,0,0-.18,1,.7.7,0,0,0,1,.18L76.82,41A.71.71,0,1,0,76,39.84Z"/><path class="cls-6" d="M84.93,47.57l-.08,0a.72.72,0,0,0,.81,1.18l.08-.06a.71.71,0,0,0-.81-1.17Z"/><path class="cls-6" d="M78.43,38.16l-.07.06a.71.71,0,0,0-.19,1,.72.72,0,0,0,1,.18l.08,0a.72.72,0,0,0-.82-1.18Z"/><path class="cls-6" d="M82.76,44.43l-.08.06a.71.71,0,1,0,.82,1.17l.07,0a.72.72,0,1,0-.81-1.18Z"/><path class="cls-6" d="M78.17,43,71.9,47.3a.72.72,0,1,0,.81,1.18L79,44.15A.72.72,0,0,0,78.17,43Z"/><path class="cls-6" d="M84.66,52.38l-6.27,4.33a.72.72,0,0,0,.81,1.18l6.27-4.33a.72.72,0,1,0-.81-1.18Z"/><path class="cls-6" d="M82.5,49.25l-6.27,4.33a.71.71,0,0,0-.19,1,.72.72,0,0,0,1,.18l6.27-4.33a.71.71,0,0,0,.18-1,.7.7,0,0,0-1-.18Z"/><path class="cls-6" d="M80.33,46.11l-6.27,4.33a.72.72,0,0,0,.81,1.18l6.27-4.33a.72.72,0,1,0-.81-1.18Z"/><path class="cls-6" d="M95.35,40.37,89.08,44.7a.72.72,0,0,0,.81,1.18l6.28-4.33a.72.72,0,1,0-.82-1.18Z"/><path class="cls-6" d="M84.36,19.7a2.12,2.12,0,0,0-2.53-.09l-.23.16a2.1,2.1,0,0,0-.81,2.39l1.93,6a.72.72,0,0,0,.9.46.73.73,0,0,0,.46-.9l-.74-2.28,3.15-2.18,1.87,1.5a.72.72,0,0,0,.85,0,1.07,1.07,0,0,0,.16-.14.73.73,0,0,0-.12-1ZM82.88,24l-.73-2.28a.66.66,0,0,1,.26-.77l.23-.16a.66.66,0,0,1,.82,0l1.87,1.49Z"/><path class="cls-6" d="M98.52,39.92l.08-.05a.72.72,0,0,0-.82-1.18l-.07.06a.71.71,0,1,0,.81,1.17Z"/><path class="cls-6" d="M74.81,31.4,65.4,37.9a.72.72,0,0,0-.18,1,.71.71,0,0,0,1,.18l9.41-6.49a.72.72,0,0,0-.81-1.18Z"/><path class="cls-6" d="M90,18.22l-.5.34-.34-.49a.71.71,0,1,0-1.17.81l.34.49-.5.34a.72.72,0,0,0,.82,1.18l.49-.34.34.49a.7.7,0,0,0,1,.18.71.71,0,0,0,.19-1l-.35-.49.5-.35A.71.71,0,1,0,90,18.22Z"/><path class="cls-6" d="M93.19,37.24l-6.27,4.32a.72.72,0,0,0,.81,1.18L94,38.41a.71.71,0,0,0-.81-1.17Z"/><path class="cls-6" d="M94.19,33.65l.08,0a.73.73,0,0,0,.18-1,.72.72,0,0,0-1-.18l-.08.06a.71.71,0,0,0-.19,1,.72.72,0,0,0,1,.18Z"/><path class="cls-6" d="M97.52,43.51l-6.27,4.33A.71.71,0,1,0,92.06,49l6.27-4.33a.71.71,0,0,0-.81-1.17Z"/><path class="cls-6" d="M91,34.1l-6.27,4.33a.72.72,0,0,0-.18,1,.7.7,0,0,0,1,.18l6.28-4.32A.72.72,0,1,0,91,34.1Z"/><path class="cls-6" d="M67.36,22.85a.28.28,0,0,1,.21-.12.32.32,0,0,1,.23.06.37.37,0,0,1,.12.2.26.26,0,0,1,.21.06.33.33,0,0,1,.12.21.34.34,0,0,1-.06.24l-.13.16a.08.08,0,0,1-.07,0,.08.08,0,0,1-.08,0,.08.08,0,0,1,0-.07.08.08,0,0,1,0-.08l.13-.16a.12.12,0,0,0,0-.08.1.1,0,0,0,0-.07.1.1,0,0,0-.07,0,.08.08,0,0,0-.07,0l-.13.16a.09.09,0,0,1-.08,0,.06.06,0,0,1-.07,0,.08.08,0,0,1,0-.07.08.08,0,0,1,0-.08l.13-.16a.12.12,0,0,0,0-.08.1.1,0,0,0,0-.07.08.08,0,0,0-.08,0,.1.1,0,0,0-.07,0l-.13.16a.08.08,0,0,1-.07,0,.08.08,0,0,1-.08,0,.16.16,0,0,1,0-.07.13.13,0,0,1,0-.08Z"/><path class="cls-6" d="M66.86,22.85a.11.11,0,0,1,.08,0l.07,0a.11.11,0,0,1,0,.08A.1.1,0,0,1,67,23a.08.08,0,0,1-.08,0,.09.09,0,0,1-.07,0,.12.12,0,0,1,0-.08A.08.08,0,0,1,66.86,22.85Zm.5-.4a.06.06,0,0,1,.07,0,.08.08,0,0,1,.07,0,.13.13,0,0,1,0,.08.2.2,0,0,1,0,.08l-.27.21a.08.08,0,0,1-.08,0,.08.08,0,0,1-.07,0,.07.07,0,0,1,0-.07.09.09,0,0,1,0-.08Z"/><path class="cls-6" d="M67.09,22a.11.11,0,0,1,.08,0,.12.12,0,0,1,.07.05v0a.33.33,0,0,1,0,.24.3.3,0,0,1-.15.2l-.36.22a.11.11,0,0,1-.08,0,.18.18,0,0,1-.07-.05.22.22,0,0,1,0-.08.18.18,0,0,1,0-.07l.09,0-.07-.11a.12.12,0,0,1,0-.08.12.12,0,0,1,0-.07.11.11,0,0,1,.08,0,.06.06,0,0,1,.06.05l.07.11.09-.06s0,0,0-.06a.11.11,0,0,0,0-.08l0,0a.11.11,0,0,1,0-.08A.12.12,0,0,1,67.09,22Z"/><path class="cls-6" d="M66.91,21.58H67a.1.1,0,0,1,.05.06v0a.28.28,0,0,1,0,.25.31.31,0,0,1-.17.17l-.4.15H66.4s0,0-.06-.06a.08.08,0,0,1,0-.08s0,0,.05-.06l.1,0,0-.13a.08.08,0,0,1,0-.08.08.08,0,0,1,.05-.05.06.06,0,0,1,.08,0,.1.1,0,0,1,.06.05l0,.13.1,0a.1.1,0,0,0,0-.06.08.08,0,0,0,0-.08v0a.11.11,0,0,1,0-.08A.09.09,0,0,1,66.91,21.58Z"/><path class="cls-6" d="M66.37,21a.31.31,0,0,1,.19,0,.29.29,0,0,1,.14.13l.11,0a.11.11,0,0,1,.12.08.11.11,0,0,1,0,.08.12.12,0,0,1-.07.05l-.11,0a.38.38,0,0,1-.08.17.32.32,0,0,1-.17.09l-.23,0a.11.11,0,0,1-.08,0,.1.1,0,0,1,0-.07.08.08,0,0,1,0-.08.08.08,0,0,1,.06,0l.23-.05a.1.1,0,0,0,.07,0,.11.11,0,0,0,0-.08.1.1,0,0,0,0-.07.11.11,0,0,0-.08,0l-.22,0a.08.08,0,0,1-.08,0s0,0,0-.06a.11.11,0,0,1,0-.08.12.12,0,0,1,.07-.05Z"/><path class="cls-6" d="M66.42,20a.08.08,0,0,1,.07,0,.08.08,0,0,1,0,.08l0,.23a.08.08,0,0,0,0,.08l.06.05a.11.11,0,0,1,0,.08.1.1,0,0,1,0,.07.08.08,0,0,1-.08,0h0a.29.29,0,0,1-.14-.13.32.32,0,0,1,0-.19l0-.23a.16.16,0,0,1,0-.07A.12.12,0,0,1,66.42,20Zm.28,0h0a.27.27,0,0,1,.13.13.26.26,0,0,1,0,.19l0,.23a.13.13,0,0,1,0,.07l-.08,0-.07,0a.12.12,0,0,1,0-.08l0-.23a.1.1,0,0,0-.06-.1.1.1,0,0,1,0-.11.08.08,0,0,1,0-.07A.07.07,0,0,1,66.7,20Z"/><path class="cls-6" d="M67.07,19.4a.13.13,0,0,1,.06.05.11.11,0,0,1,0,.08l-.07.19a.28.28,0,0,1-.17.18.29.29,0,0,1-.24,0,.31.31,0,0,1-.18-.16.33.33,0,0,1,0-.24l.07-.19a.13.13,0,0,1,.06-.07.11.11,0,0,1,.08,0,.09.09,0,0,1,.06.06.11.11,0,0,1,0,.08l-.07.19a.08.08,0,0,0,0,.08.1.1,0,0,0,0,.06.11.11,0,0,0,.08,0,.09.09,0,0,0,.06-.06l.07-.19a.1.1,0,0,1,0-.06Z"/><path class="cls-6" d="M67.42,18.84s0,0,0,.07a.13.13,0,0,1,0,.08.08.08,0,0,1-.06,0,.11.11,0,0,1-.08,0l-.18-.12a.11.11,0,0,0-.08,0,.1.1,0,0,0-.07,0A.11.11,0,0,0,67,19a.16.16,0,0,0,0,.07l.18.11a.12.12,0,0,1,0,.07.08.08,0,0,1,0,.08.1.1,0,0,1-.06.05.11.11,0,0,1-.08,0L66.54,19a.1.1,0,0,1,0-.07.11.11,0,0,1,0-.08.18.18,0,0,1,.07-.05.12.12,0,0,1,.08,0l.1.07a1,1,0,0,1,0-.1.31.31,0,0,1,.2-.14.33.33,0,0,1,.24,0Z"/><path class="cls-6" d="M67.75,18.22a.32.32,0,0,1,.09.23.28.28,0,0,1-.1.22.29.29,0,0,1-.22.09.3.3,0,0,1-.22-.1.25.25,0,0,1-.09-.22.32.32,0,0,1,.09-.23.33.33,0,0,1,.23-.09A.3.3,0,0,1,67.75,18.22Zm-.15.15a.11.11,0,0,0-.07,0,.11.11,0,0,0-.08,0,.1.1,0,0,0,.07.17.11.11,0,0,0,.08,0,.11.11,0,0,0,0-.08A.09.09,0,0,0,67.6,18.37Z"/><path class="cls-6" d="M68.36,17.84a.34.34,0,0,1,0,.24.34.34,0,0,1-.15.2.33.33,0,0,1-.24,0,.3.3,0,0,1-.19-.14.3.3,0,0,1,0-.24.35.35,0,0,1,.14-.2.34.34,0,0,1,.24,0A.32.32,0,0,1,68.36,17.84Zm-.18.11a.18.18,0,0,0-.07-.05.13.13,0,0,0-.08,0A.07.07,0,0,0,68,18a.08.08,0,0,0,0,.08.1.1,0,0,0,.06.05h.08a.12.12,0,0,0,0-.07A.11.11,0,0,0,68.18,18Z"/><path class="cls-6" d="M68.71,17.94a.11.11,0,0,1,0,.08.09.09,0,0,1-.06.06.11.11,0,0,1-.08,0s0,0-.06-.06l-.23-.59a.11.11,0,0,1,0-.08.09.09,0,0,1,.06-.06h.08a.1.1,0,0,1,0,.06Z"/><path class="cls-6" d="M69.79,17.42a.19.19,0,0,1,0,.08.2.2,0,0,1-.08,0h-.06v.06a.23.23,0,0,1-.06.19.24.24,0,0,1-.18.1l-.16,0a.31.31,0,0,1-.19-.06.27.27,0,0,1-.1-.18.23.23,0,0,1,0-.16.26.26,0,0,1-.07-.15.26.26,0,0,1,.23-.3l.2,0a.11.11,0,0,1,.07,0,.07.07,0,0,1,0,.07.06.06,0,0,1,0,.07.08.08,0,0,1-.07,0l-.2,0h0a.08.08,0,0,0,0,0,.05.05,0,0,0,0,0h.08a.11.11,0,0,1,.11.06s0,0,0,0a.12.12,0,0,1,0,.08.09.09,0,0,1-.07,0h-.05a.05.05,0,0,0,0,0s0,0,0,0,0,0,0,0,0,0,0,0h.16l0,0s0,0,0,0l0-.16a.12.12,0,0,1,0-.08l.07,0h.17a.08.08,0,0,1,.08,0A.16.16,0,0,1,69.79,17.42Z"/><path class="cls-6" d="M70.69,17.92a.08.08,0,0,1,0,.06.08.08,0,0,1-.08,0l-.2,0a.3.3,0,0,1-.2-.15.29.29,0,0,1,0-.24.3.3,0,0,1,.14-.19.3.3,0,0,1,.24,0l.2.05s.05,0,.07.05a.11.11,0,0,1,0,.08.07.07,0,0,1-.05.06.08.08,0,0,1-.08,0l-.2,0a.08.08,0,0,0-.08,0,.08.08,0,0,0,0,.06.08.08,0,0,0,0,.08.13.13,0,0,0,.06,0l.2.05s0,0,.07.05A.08.08,0,0,1,70.69,17.92Z"/><path class="cls-6" d="M71.38,18a.28.28,0,0,1-.18.16.29.29,0,0,1-.24,0A.31.31,0,0,1,70.8,18a.31.31,0,0,1,0-.25.3.3,0,0,1,.18-.15.31.31,0,0,1,.25,0,.31.31,0,0,1,.16.18A.33.33,0,0,1,71.38,18Zm-.19-.09a.22.22,0,0,0,0-.08.09.09,0,0,0-.06-.06.11.11,0,0,0-.08,0,.13.13,0,0,0-.06,0,.11.11,0,0,0,0,.08.1.1,0,0,0,0,.06.11.11,0,0,0,.08,0S71.18,18,71.19,17.92Z"/><path class="cls-6" d="M71.49,18.36s0,0-.07.05a.12.12,0,0,1-.08,0,.16.16,0,0,1,0-.07.11.11,0,0,1,0-.08l.37-.52a.07.07,0,0,1,.06,0,.08.08,0,0,1,.08,0s0,0,0,.06a.11.11,0,0,1,0,.08Z"/><path class="cls-6" d="M71.7,18.54a.12.12,0,0,1-.15,0,.12.12,0,0,1,0-.08.11.11,0,0,1,0-.07l.41-.49a.09.09,0,0,1,.07,0,.08.08,0,0,1,.08,0,.16.16,0,0,1,0,.07.11.11,0,0,1,0,.08Z"/><path class="cls-6" d="M72.15,19a.07.07,0,0,1-.07,0A.11.11,0,0,1,72,19l-.13-.16a.34.34,0,0,1-.08-.23.36.36,0,0,1,.11-.22.34.34,0,0,1,.23-.08.35.35,0,0,1,.3.31.31.31,0,0,1-.07.2v0a.08.08,0,0,1-.08,0,.09.09,0,0,1-.07,0,.09.09,0,0,1,0-.13.12.12,0,0,0,0-.14.09.09,0,0,0-.07,0,.08.08,0,0,0-.08,0,.16.16,0,0,0,0,.07.11.11,0,0,0,0,.08l.13.16a.11.11,0,0,1,0,.08A.08.08,0,0,1,72.15,19Z"/><path class="cls-6" d="M72.46,19.64a.28.28,0,0,1-.24,0A.31.31,0,0,1,72,19.5L72,19.41a.11.11,0,0,1,0-.08.09.09,0,0,1,.06-.06.08.08,0,0,1,.08,0,.15.15,0,0,1,.06,0l0,.09a.09.09,0,0,0,.06.06h.08l.19-.1a.1.1,0,0,0,0-.06.08.08,0,0,0,0-.08.1.1,0,0,0-.06-.05.11.11,0,0,0-.08,0s0,0,0,.06a.1.1,0,0,1,0,.06h-.08a.06.06,0,0,1-.06-.05.14.14,0,0,1,0-.15.53.53,0,0,1,.12-.1.31.31,0,0,1,.25,0,.3.3,0,0,1,.18.15.31.31,0,0,1,0,.25.31.31,0,0,1-.16.18Z"/><path class="cls-6" d="M72.63,20.29a.12.12,0,0,1-.08,0,.1.1,0,0,1,0-.07l-.06-.2a.34.34,0,0,1,0-.24.34.34,0,0,1,.2-.15.34.34,0,0,1,.24,0,.32.32,0,0,1,.14.2.27.27,0,0,1,0,.2.29.29,0,0,1-.14.15h0a.08.08,0,0,1-.08,0,.07.07,0,0,1,0-.06.09.09,0,0,1,0-.12.09.09,0,0,0,0-.12.1.1,0,0,0,0-.07.12.12,0,0,0-.08,0,.12.12,0,0,0-.07.05.11.11,0,0,0,0,.08l0,.2a.11.11,0,0,1,0,.08A.12.12,0,0,1,72.63,20.29Z"/><path class="cls-6" d="M68.39,20.59l.33.44a3.16,3.16,0,0,1,.68-.77,3.28,3.28,0,0,1,.94-.41L70,19.4a2.49,2.49,0,0,0-1,.38,2.37,2.37,0,0,0-.64.81Z"/><path class="cls-6" d="M70.39,19l.1-.2-.23,0,0,0s-.12-.27-.29,0a.08.08,0,0,0,0,0L68.44,19l-.82,1.82.71-.15-.06-.08a2.61,2.61,0,0,1,.71-.9,2.83,2.83,0,0,1,1.09-.42l.1.13.18-.37.46.64-.1.07.17.22.06-.18.21,0L71,19.56l-.1.08L70.39,19Zm-.26-.2,0,0-.12,0c0-.05,0-.12.09-.06Zm.15.27a.07.07,0,0,1-.11,0,.09.09,0,0,1,0-.12.08.08,0,0,1,.12,0,.08.08,0,0,1,0,.12Z"/><path class="cls-6" d="M71.13,20.48a.84.84,0,0,1,.16.67.83.83,0,0,1-.35.59,1,1,0,0,1-.36.15.89.89,0,0,1-.25.29.84.84,0,0,1-.67.16.93.93,0,0,1-.59-.35l-.22-.31a.54.54,0,0,1-.09-.39.51.51,0,0,1,.61-.43.44.44,0,0,1,.2-.35.48.48,0,0,1,.4-.09.52.52,0,0,1,.21-.36.54.54,0,0,1,.39-.09.5.5,0,0,1,.34.21Zm-.27.2-.22-.31a.19.19,0,0,0-.12-.07.17.17,0,0,0-.14,0,.17.17,0,0,0-.08.13.18.18,0,0,0,0,.14l.23.3a.17.17,0,0,1,0,.14.19.19,0,0,1-.07.12.17.17,0,0,1-.14,0,.15.15,0,0,1-.12-.07L70,20.81a.19.19,0,0,0-.12-.07.15.15,0,0,0-.14,0,.2.2,0,0,0-.08.12.18.18,0,0,0,0,.14l.22.31a.15.15,0,0,1,0,.13.19.19,0,0,1-.07.13.17.17,0,0,1-.14,0,.16.16,0,0,1-.12-.08l-.22-.3a.22.22,0,0,0-.13-.08.18.18,0,0,0-.14,0,.2.2,0,0,0-.08.12.23.23,0,0,0,0,.14l.22.31a.55.55,0,0,0,.37.22.52.52,0,0,0,.42-.1.53.53,0,0,0,.22-.34.53.53,0,0,0,.39-.1.55.55,0,0,0,.12-.79Z"/><path class="cls-6" d="M67.23,17.3a4.21,4.21,0,1,0,5.88.92A4.21,4.21,0,0,0,67.23,17.3ZM72.09,24A4,4,0,1,1,73,18.32,4,4,0,0,1,72.09,24Z"/><path class="cls-6" d="M75.34,21.37a6.3,6.3,0,0,1,.37-.53,6.24,6.24,0,0,0-1.15.07l-.13,0,.13-.3c-.21,0-.43.08-.64.14a4.16,4.16,0,0,0-.81-2.55,4.21,4.21,0,1,0-6.8,5,4.14,4.14,0,0,0,2.17,1.54c-.09.16-.19.31-.27.46h.25l-.06.12A7.75,7.75,0,0,0,68,26.37c.25-.08.38-.12.63-.18.12.28.18.42.32.7a6,6,0,0,1,.39-1l0-.06c0,.07.06.16.1.25a7.52,7.52,0,0,1,.66-1l.2-.24a4.24,4.24,0,0,0,3.21-2.33l.39-.16a7.33,7.33,0,0,1,1.16-.31L74.89,22a6.69,6.69,0,0,1,1-.06C75.69,21.68,75.57,21.58,75.34,21.37ZM72.09,24a4,4,0,0,1-1.61.7,8.68,8.68,0,0,1,2.76-2A4,4,0,0,1,72.09,24Zm0-2.47a9.37,9.37,0,0,0-2.35,1.71,2.5,2.5,0,1,1,2-4A2.48,2.48,0,0,1,72.08,21.49Zm.55.43a.85.85,0,0,1,.09.14.39.39,0,0,1,0,.14.13.13,0,0,1,0,.1.48.48,0,0,1-.12.08l-.08,0a.3.3,0,0,1-.14.06.12.12,0,0,1-.1,0,1,1,0,0,1-.16-.28.1.1,0,0,1,0-.1.44.44,0,0,1,.12-.1l.08,0a.4.4,0,0,1,.16-.06A.12.12,0,0,1,72.63,21.92Zm-.77.46a.16.16,0,0,0-.14,0h0a.17.17,0,0,0-.08.12.27.27,0,0,0,.06.14l.13.18-.06.05-.13-.18a.29.29,0,0,0-.11-.11.15.15,0,0,0-.14,0h0a.16.16,0,0,0-.07.13.3.3,0,0,0,.06.14l.12.18-.07,0-.28-.41.07-.05,0,.06a.18.18,0,0,1,.09-.14l0,0a.2.2,0,0,1,.21,0,.18.18,0,0,1,.09-.18l0,0c.13-.09.23-.06.33.07l.14.21-.06.05L72,22.46A.22.22,0,0,0,71.86,22.38Zm-.92.77,0,.06-.26.22a.16.16,0,0,0,.11.07.2.2,0,0,0,.11-.07l.08-.06.09-.09a.06.06,0,0,0,0-.08l.06-.05a.13.13,0,0,1,0,.14s-.06.07-.13.13l-.08.07a.5.5,0,0,1-.13.09.11.11,0,0,1-.1,0l-.12-.11-.09-.13a.14.14,0,0,1,0-.11.36.36,0,0,1,.11-.12l.08-.07a.56.56,0,0,1,.17-.09.15.15,0,0,1,.12,0L71,23a.06.06,0,0,0-.07,0l-.1.07-.08.07a.35.35,0,0,0-.09.1s0,.06,0,.11Zm-.76.4c0-.05.09-.08.13-.08a.13.13,0,0,1,.11,0,.53.53,0,0,1,.11.11.17.17,0,0,1,0,.3l-.26.24-.34-.37ZM73.25,21c-.36.14-.7.29-1,.45a2.61,2.61,0,1,0-4.61.82,2.57,2.57,0,0,0,2,1.06c-.23.24-.45.49-.67.76s-.25.34-.37.51a4,4,0,1,1,5.17-3.75C73.58,20.86,73.42,20.92,73.25,21Z"/><path class="cls-6" d="M72.33,22.05c-.06,0-.1.07-.1.09s0,.06,0,.12l0,0a.18.18,0,0,0,.09.1l.12,0,.08,0s.07,0,.08-.06a.05.05,0,0,0,0-.05.16.16,0,0,0,0-.1l0,0a.18.18,0,0,0-.06-.08.08.08,0,0,0-.07,0l-.09,0Z"/><path class="cls-6" d="M70.47,23.86s.06-.07.06-.1a.18.18,0,0,0-.06-.1l0-.05s-.07-.06-.1-.06a.18.18,0,0,0-.1.06l-.18.17.24.25Z"/><g class="cls-21"><path class="cls-6" d="M81.5,45.19a.45.45,0,0,1,.28-.16.42.42,0,0,1,.31.09.38.38,0,0,1,.16.26.4.4,0,0,1,.28.08.39.39,0,0,1,.16.28.38.38,0,0,1-.08.31l-.18.23a.13.13,0,0,1-.09,0,.17.17,0,0,1-.1,0,.18.18,0,0,1-.06-.09.2.2,0,0,1,0-.11l.17-.22a.1.1,0,0,0,0-.1.11.11,0,0,0,0-.09.1.1,0,0,0-.1,0,.11.11,0,0,0-.09.05l-.18.22a.11.11,0,0,1-.09,0,.11.11,0,0,1-.11,0,.13.13,0,0,1-.05-.09.17.17,0,0,1,0-.1l.17-.22a.11.11,0,0,0,0-.11.12.12,0,0,0,0-.09.17.17,0,0,0-.1,0,.15.15,0,0,0-.09.06l-.18.22a.13.13,0,0,1-.09,0,.23.23,0,0,1-.11,0,.16.16,0,0,1,0-.09.2.2,0,0,1,0-.11Z"/><path class="cls-6" d="M80.84,45.19a.2.2,0,0,1,.11,0,.11.11,0,0,1,.09.05.11.11,0,0,1,0,.11.11.11,0,0,1,0,.09.1.1,0,0,1-.1,0,.14.14,0,0,1-.1,0,.2.2,0,0,1,0-.11A.16.16,0,0,1,80.84,45.19Zm.66-.53a.2.2,0,0,1,.11,0,.11.11,0,0,1,.09.06.1.1,0,0,1,0,.1.11.11,0,0,1,0,.09l-.36.29a.17.17,0,0,1-.1,0,.11.11,0,0,1-.09-.05.15.15,0,0,1,0-.11.15.15,0,0,1,.06-.09Z"/><path class="cls-6" d="M81.15,44.11a.14.14,0,0,1,.11,0,.11.11,0,0,1,.08.07l0,0a.4.4,0,0,1,0,.32.42.42,0,0,1-.19.26l-.48.29a.12.12,0,0,1-.1,0,.15.15,0,0,1-.09-.06.14.14,0,0,1,0-.11.13.13,0,0,1,.07-.08l.12-.08-.09-.15a.12.12,0,0,1,0-.1.15.15,0,0,1,.06-.09.22.22,0,0,1,.11,0,.16.16,0,0,1,.09.07l.09.15.12-.07a.15.15,0,0,0,0-.2l0,0a.12.12,0,0,1,0-.1A.15.15,0,0,1,81.15,44.11Z"/><path class="cls-6" d="M80.91,43.51H81s.07,0,.08.08v0a.4.4,0,0,1,0,.32.4.4,0,0,1-.23.23l-.52.21h-.11a.2.2,0,0,1-.08-.08.14.14,0,0,1,0-.11.14.14,0,0,1,.07-.08l.13,0-.06-.16a.11.11,0,0,1,0-.11.14.14,0,0,1,.08-.07.09.09,0,0,1,.1,0,.11.11,0,0,1,.08.08l.07.16.12-.05a.16.16,0,0,0,.08-.08.09.09,0,0,0,0-.1v0a.09.09,0,0,1,0-.1S80.87,43.52,80.91,43.51Z"/><path class="cls-6" d="M80.2,42.74a.36.36,0,0,1,.25,0,.39.39,0,0,1,.19.17l.14,0a.12.12,0,0,1,.1,0,.1.1,0,0,1,.06.09.12.12,0,0,1,0,.1.1.1,0,0,1-.09.06l-.14,0a.41.41,0,0,1-.11.23.48.48,0,0,1-.22.12l-.3,0a.14.14,0,0,1-.11,0,.15.15,0,0,1-.06-.09.12.12,0,0,1,0-.1.12.12,0,0,1,.09-.06l.3-.06a.15.15,0,0,0,.09-.06.12.12,0,0,0,0-.1.11.11,0,0,0,0-.09.14.14,0,0,0-.11,0l-.3.06a.12.12,0,0,1-.1,0,.15.15,0,0,1-.06-.09.12.12,0,0,1,0-.1.1.1,0,0,1,.09-.06Z"/><path class="cls-6" d="M80.27,41.37a.11.11,0,0,1,.09.05.19.19,0,0,1,0,.1l0,.3a.14.14,0,0,0,0,.11l.08.07a.13.13,0,0,1,0,.11.11.11,0,0,1,0,.09.2.2,0,0,1-.11,0h0a.39.39,0,0,1-.18-.18.45.45,0,0,1-.05-.25l0-.3a.13.13,0,0,1,.16-.12Zm.37.05h0a.52.52,0,0,1,.18.18.43.43,0,0,1,0,.25l0,.29a.14.14,0,0,1-.05.1.17.17,0,0,1-.1,0,.21.21,0,0,1-.1-.06.17.17,0,0,1,0-.1l0-.3a.13.13,0,0,0-.07-.14.13.13,0,0,1-.08-.14.21.21,0,0,1,.06-.1A.12.12,0,0,1,80.64,41.42Z"/><path class="cls-6" d="M81.12,40.62a.13.13,0,0,1,.08.18l-.09.25a.4.4,0,0,1-.22.24.4.4,0,0,1-.32,0,.43.43,0,0,1-.24-.22.4.4,0,0,1,0-.32l.09-.26a.16.16,0,0,1,.08-.08.11.11,0,0,1,.11,0,.1.1,0,0,1,.07.07.14.14,0,0,1,0,.11l-.09.25a.11.11,0,0,0,0,.11.14.14,0,0,0,.08.07h.1a.13.13,0,0,0,.07-.08l.1-.26a.18.18,0,0,1,.07-.08A.14.14,0,0,1,81.12,40.62Z"/><path class="cls-6" d="M81.59,39.88a.15.15,0,0,1,.06.09.12.12,0,0,1,0,.1.13.13,0,0,1-.09.07.18.18,0,0,1-.1,0L81.2,40a.18.18,0,0,0-.1,0,.14.14,0,0,0,0,.26l.24.15a.15.15,0,0,1,.06.09.12.12,0,0,1,0,.1.1.1,0,0,1-.09.06.11.11,0,0,1-.1,0l-.71-.46a.1.1,0,0,1-.06-.09.14.14,0,0,1,0-.11.18.18,0,0,1,.09-.06.14.14,0,0,1,.11,0l.14.09a.5.5,0,0,1,0-.13.39.39,0,0,1,.27-.18.35.35,0,0,1,.31.06Z"/><path class="cls-6" d="M82,39.06a.41.41,0,0,1,.12.3.46.46,0,0,1-.13.29.41.41,0,0,1-.3.12.38.38,0,0,1-.3-.13.36.36,0,0,1-.11-.3.4.4,0,0,1,.12-.29.44.44,0,0,1,.3-.12A.42.42,0,0,1,82,39.06Zm-.21.2a.11.11,0,0,0-.09,0,.18.18,0,0,0-.1,0,.14.14,0,0,0,0,.2.13.13,0,0,0,.09,0,.12.12,0,0,0,.1,0,.13.13,0,0,0,0-.1A.11.11,0,0,0,81.82,39.26Z"/><path class="cls-6" d="M82.83,38.56a.4.4,0,0,1,0,.32.42.42,0,0,1-.19.26.39.39,0,0,1-.32,0,.38.38,0,0,1-.26-.19.39.39,0,0,1,0-.32.37.37,0,0,1,.19-.25.38.38,0,0,1,.31-.05A.39.39,0,0,1,82.83,38.56Zm-.24.14a.16.16,0,0,0-.08-.06.15.15,0,0,0-.11,0,.16.16,0,0,0-.06.08.2.2,0,0,0,0,.11.15.15,0,0,0,.2,0,.1.1,0,0,0,.06-.08A.15.15,0,0,0,82.59,38.7Z"/><path class="cls-6" d="M83.3,38.69a.12.12,0,0,1,0,.1s0,.07-.08.08a.17.17,0,0,1-.1,0s-.07,0-.08-.08L82.72,38a.21.21,0,0,1,0-.11.18.18,0,0,1,.08-.07.11.11,0,0,1,.11,0,.1.1,0,0,1,.07.07Z"/><path class="cls-6" d="M84.73,38a.17.17,0,0,1,0,.1.21.21,0,0,1-.1.06h-.08v.07a.35.35,0,0,1-.08.26.32.32,0,0,1-.23.13l-.22,0a.34.34,0,0,1-.38-.31.34.34,0,0,1,0-.22.3.3,0,0,1-.1-.2.33.33,0,0,1,.08-.25.32.32,0,0,1,.23-.13l.26,0a.1.1,0,0,1,.1,0,.18.18,0,0,1,.06.09.2.2,0,0,1,0,.11.19.19,0,0,1-.1.05l-.26,0,0,0s0,0,0,.05a.05.05,0,0,0,0,0,0,0,0,0,0,.05,0H84a.12.12,0,0,1,.14.07.08.08,0,0,1,0,.05.23.23,0,0,1,0,.11.19.19,0,0,1-.1,0H84s0,0,0,0a.09.09,0,0,0,0,0,.08.08,0,0,0,0,.05h0l.22,0s0,0,0,0a.08.08,0,0,0,0-.05l0-.2a.15.15,0,0,1,0-.11.11.11,0,0,1,.09-.05l.22,0a.23.23,0,0,1,.11,0A.19.19,0,0,1,84.73,38Z"/><path class="cls-6" d="M85.93,38.66a.16.16,0,0,1-.06.08.15.15,0,0,1-.11,0l-.27-.06a.42.42,0,0,1-.26-.19.4.4,0,0,1,0-.32.42.42,0,0,1,.19-.26.4.4,0,0,1,.32,0l.26.06A.13.13,0,0,1,86,38a.12.12,0,0,1,0,.1.13.13,0,0,1-.07.09.12.12,0,0,1-.1,0l-.27-.07a.18.18,0,0,0-.1,0,.13.13,0,0,0-.07.09.18.18,0,0,0,0,.1.15.15,0,0,0,.09.06l.26.07a.15.15,0,0,1,.09.06A.14.14,0,0,1,85.93,38.66Z"/><path class="cls-6" d="M86.84,38.79a.42.42,0,0,1-.24.21.4.4,0,0,1-.32,0,.4.4,0,0,1-.22-.24.44.44,0,0,1,0-.32.45.45,0,0,1,.25-.22.4.4,0,0,1,.32,0,.42.42,0,0,1,.21.24A.4.4,0,0,1,86.84,38.79Zm-.25-.13a.12.12,0,0,0,0-.1.11.11,0,0,0-.07-.08.12.12,0,0,0-.1,0,.11.11,0,0,0-.08.07.14.14,0,0,0,0,.11.18.18,0,0,0,.07.08.14.14,0,0,0,.11,0A.13.13,0,0,0,86.59,38.66Z"/><path class="cls-6" d="M87,39.25a.21.21,0,0,1-.1.06.13.13,0,0,1-.1,0,.15.15,0,0,1-.06-.09.12.12,0,0,1,0-.1l.48-.69a.15.15,0,0,1,.09-.06.14.14,0,0,1,.11,0,.24.24,0,0,1,.06.09.2.2,0,0,1,0,.11Z"/><path class="cls-6" d="M87.26,39.48a.19.19,0,0,1-.1.05.13.13,0,0,1-.1,0,.11.11,0,0,1,0-.09.2.2,0,0,1,0-.11l.55-.64a.19.19,0,0,1,.1,0,.13.13,0,0,1,.1,0,.13.13,0,0,1,0,.09.15.15,0,0,1,0,.1Z"/><path class="cls-6" d="M87.86,40.14a.13.13,0,0,1-.1,0,.19.19,0,0,1-.1,0l-.18-.21a.48.48,0,0,1-.1-.31.41.41,0,0,1,.15-.29.48.48,0,0,1,.31-.1.39.39,0,0,1,.28.15.37.37,0,0,1,.1.26.34.34,0,0,1-.08.26l0,0a.17.17,0,0,1-.1,0,.14.14,0,0,1-.1-.05.14.14,0,0,1,0-.17.12.12,0,0,0,0-.17.14.14,0,0,0-.1-.05.1.1,0,0,0-.1,0,.1.1,0,0,0,0,.09.09.09,0,0,0,0,.1l.18.21a.2.2,0,0,1,0,.11A.11.11,0,0,1,87.86,40.14Z"/><path class="cls-6" d="M88.27,40.94A.44.44,0,0,1,88,41a.42.42,0,0,1-.24-.21l-.06-.12a.14.14,0,0,1,0-.11.1.1,0,0,1,.07-.08.12.12,0,0,1,.1,0,.13.13,0,0,1,.09.07l.06.12a.14.14,0,0,0,.08.07.11.11,0,0,0,.1,0l.26-.13a.27.27,0,0,0,.07-.08.21.21,0,0,0,0-.11.22.22,0,0,0-.09-.07.12.12,0,0,0-.1,0s0,0-.07.08a.22.22,0,0,1-.06.07.14.14,0,0,1-.11,0A.14.14,0,0,1,88,40.4a.19.19,0,0,1,0-.2.52.52,0,0,1,.16-.14.44.44,0,0,1,.32,0,.47.47,0,0,1,.25.21.4.4,0,0,1,0,.32.37.37,0,0,1-.2.25Z"/><path class="cls-6" d="M88.5,41.8a.14.14,0,0,1-.11,0,.15.15,0,0,1-.06-.09l-.07-.27a.4.4,0,0,1,0-.32.39.39,0,0,1,.26-.19.4.4,0,0,1,.32,0,.39.39,0,0,1,.19.26.42.42,0,0,1,0,.27.37.37,0,0,1-.19.2l0,0a.16.16,0,0,1-.1,0,.13.13,0,0,1-.07-.09.14.14,0,0,1,.07-.16.11.11,0,0,0,.07-.15.15.15,0,0,0-.06-.09.12.12,0,0,0-.1,0,.13.13,0,0,0-.09.07.18.18,0,0,0,0,.1l.07.27a.14.14,0,0,1,0,.11A.15.15,0,0,1,88.5,41.8Z"/><path class="cls-6" d="M82.88,42.2l.43.59a4.24,4.24,0,0,1,.9-1,4.16,4.16,0,0,1,1.25-.55l-.44-.6a3.36,3.36,0,0,0-1.29.5,3.16,3.16,0,0,0-.85,1.08Z"/><path class="cls-6" d="M85.52,40.05l.13-.28-.3,0,0-.05s-.16-.35-.38.06c0,0,0,0,0,0l-2,.25-1.08,2.41.93-.2-.08-.1a3.52,3.52,0,0,1,1-1.2,3.86,3.86,0,0,1,1.44-.56l.13.18.24-.49.61.84-.13.1.22.3.09-.25.27,0-.22-.3-.14.11-.64-.89Zm-.34-.28,0,.06-.15,0c0-.06.06-.15.11-.08Zm.21.36a.11.11,0,1,1,0-.16.11.11,0,0,1,0,.16Z"/><path class="cls-6" d="M86.51,42.06a1.2,1.2,0,0,1-.26,1.66,1.05,1.05,0,0,1-.47.2,1.17,1.17,0,0,1-.34.39,1.2,1.2,0,0,1-1.66-.26l-.29-.41a.62.62,0,0,1-.13-.51.64.64,0,0,1,.28-.45.62.62,0,0,1,.53-.12A.68.68,0,0,1,85,42a.68.68,0,0,1,.28-.47.66.66,0,0,1,.51-.12.66.66,0,0,1,.45.27Zm-.36.26-.29-.41a.27.27,0,0,0-.17-.1.24.24,0,0,0-.18,0,.21.21,0,0,0-.1.16.26.26,0,0,0,0,.19l.3.4a.26.26,0,0,1,0,.19.23.23,0,0,1-.1.16.22.22,0,0,1-.18,0,.21.21,0,0,1-.16-.1l-.3-.4a.21.21,0,0,0-.16-.1.26.26,0,0,0-.19.05.21.21,0,0,0-.1.16.22.22,0,0,0,.05.19l.29.4a.26.26,0,0,1,0,.19.26.26,0,0,1-.09.16.26.26,0,0,1-.19,0,.23.23,0,0,1-.16-.1l-.29-.4a.23.23,0,0,0-.17-.1.26.26,0,0,0-.19,0,.22.22,0,0,0-.09.17.23.23,0,0,0,0,.18l.3.41a.76.76,0,0,0,.49.3.72.72,0,0,0,.55-.14.69.69,0,0,0,.29-.45.75.75,0,0,0,.82-.63A.72.72,0,0,0,86.15,42.32Z"/><path class="cls-6" d="M81.34,37.84a5.58,5.58,0,1,0,7.79,1.21A5.58,5.58,0,0,0,81.34,37.84Zm6.44,8.82A5.35,5.35,0,1,1,89,39.19,5.35,5.35,0,0,1,87.78,46.66Z"/><path class="cls-6" d="M92.09,43.24a8.17,8.17,0,0,1,.49-.71,8.62,8.62,0,0,0-1.53.09l-.17,0,.18-.4c-.29,0-.57.12-.85.19a5.58,5.58,0,1,0-10.09,3.19,5.52,5.52,0,0,0,2.88,2c-.13.2-.25.4-.37.61H83l-.09.16a9.79,9.79,0,0,0-.57,1.42,8.64,8.64,0,0,1,.83-.24c.16.38.24.56.42.92a9,9,0,0,1,.52-1.28l0-.08.13.33a9.13,9.13,0,0,1,.87-1.32l.27-.32a5.56,5.56,0,0,0,2.53-1,5.62,5.62,0,0,0,1.73-2.07l.52-.21a9.54,9.54,0,0,1,1.53-.4L91.49,44a8.41,8.41,0,0,1,1.34-.07C92.54,43.65,92.4,43.51,92.09,43.24Zm-4.31,3.42a5.44,5.44,0,0,1-2.14.94,11.37,11.37,0,0,1,3.67-2.67A5.36,5.36,0,0,1,87.78,46.66Zm0-3.27a12.67,12.67,0,0,0-3.12,2.27,3.31,3.31,0,0,1-2-6,3.31,3.31,0,0,1,5.1,3.72Zm.72.57a1.67,1.67,0,0,1,.12.19.37.37,0,0,1,.07.19.18.18,0,0,1-.05.12l-.16.11-.11.06a.55.55,0,0,1-.19.08.13.13,0,0,1-.13,0,.92.92,0,0,1-.12-.16.48.48,0,0,1-.08-.2.11.11,0,0,1,0-.13.35.35,0,0,1,.17-.13l.1-.06a.51.51,0,0,1,.21-.08A.16.16,0,0,1,88.49,44Zm-1,.62a.22.22,0,0,0-.18,0l0,0a.19.19,0,0,0-.1.16.34.34,0,0,0,.08.18l.17.25-.09.06-.16-.24a.39.39,0,0,0-.15-.14.2.2,0,0,0-.18,0l0,0a.19.19,0,0,0-.1.16.37.37,0,0,0,.08.19l.17.24-.1.06-.37-.54.09-.07.05.07a.22.22,0,0,1,.11-.18l0,0a.26.26,0,0,1,.28,0,.24.24,0,0,1,.13-.24l.06,0a.28.28,0,0,1,.43.1l.19.28-.08.05-.19-.28A.29.29,0,0,0,87.47,44.58Zm-1.21,1,.06.07L86,46c.06.07.11.1.15.1a.31.31,0,0,0,.15-.09l.11-.09a.53.53,0,0,0,.11-.11.08.08,0,0,0,0-.11l.08-.06a.16.16,0,0,1,0,.18.63.63,0,0,1-.17.18l-.11.09a.77.77,0,0,1-.17.11.17.17,0,0,1-.14,0,.52.52,0,0,1-.14-.15.44.44,0,0,1-.12-.17.17.17,0,0,1,0-.14.52.52,0,0,1,.15-.16l.11-.09a.39.39,0,0,1,.23-.12.14.14,0,0,1,.14.06l-.08.07a.08.08,0,0,0-.1,0l-.13.09-.1.09a.33.33,0,0,0-.12.13s0,.08,0,.14Zm-1,.52a.46.46,0,0,1,.18-.11.19.19,0,0,1,.14,0,1,1,0,0,1,.15.15.29.29,0,0,1,.11.2.27.27,0,0,1-.11.19l-.35.32-.45-.48Zm4.08-3.42a14.16,14.16,0,0,0-1.37.6,3.45,3.45,0,1,0-3.44,2.5,12.41,12.41,0,0,0-.89,1c-.17.22-.34.45-.49.68a5.35,5.35,0,1,1,6.84-5Z"/><path class="cls-6" d="M88.1,44.14c-.08,0-.13.08-.14.11s0,.09,0,.17l0,0q.06.12.12.12s.08,0,.16-.06l.1-.05.11-.07a.1.1,0,0,0,0-.08.36.36,0,0,0,0-.13l0-.05A.38.38,0,0,0,88.4,44a.09.09,0,0,0-.09,0l-.12.06Z"/><path class="cls-6" d="M85.63,46.53c.05-.05.08-.09.08-.13a.33.33,0,0,0-.09-.13l-.05-.06a.38.38,0,0,0-.13-.09s-.08,0-.14.08l-.24.22.32.34Z"/></g></g></g></g></svg>