<svg xmlns="http://www.w3.org/2000/svg" viewBox="0 0 166.51 133.11"><defs><style>.cls-1{isolation:isolate;}.cls-2{fill:#cf2649;}.cls-3{fill:#5088af;}.cls-4{fill:#9ec2a8;}.cls-5{fill:#987c66;}.cls-6{fill:#e3e4e3;}.cls-7{fill:#a28473;}.cls-8{opacity:0.08;}.cls-9{fill:#f0efef;}.cls-10{fill:#2c2c2c;}.cls-11{fill:#b9c6a9;}.cls-12{fill:#35789a;}.cls-13{fill:#e4e3e2;}.cls-14{fill:#fff;}.cls-15{fill:#cac9c9;}.cls-16{fill:#ffde89;}.cls-17{fill:#f1cbac;}.cls-18{fill:#dbdadb;}.cls-19{fill:#343433;}.cls-20{fill:#c5af97;}.cls-21{opacity:0.07;}.cls-21,.cls-22{mix-blend-mode:multiply;}.cls-22{opacity:0.2;}.cls-23{fill:#f7f0e2;}.cls-24{opacity:0.16;}.cls-25{fill:#ef5328;opacity:0.7;}.cls-26,.cls-27{fill:#f79a23;}.cls-100,.cls-101,.cls-102,.cls-103,.cls-27,.cls-28,.cls-29,.cls-30,.cls-32,.cls-33,.cls-34,.cls-35,.cls-36,.cls-37,.cls-38,.cls-39,.cls-40,.cls-41,.cls-42,.cls-43,.cls-44,.cls-45,.cls-46,.cls-47,.cls-48,.cls-49,.cls-50,.cls-51,.cls-52,.cls-53,.cls-54,.cls-55,.cls-56,.cls-57,.cls-58,.cls-59,.cls-60,.cls-61,.cls-62,.cls-63,.cls-64,.cls-65,.cls-66,.cls-67,.cls-68,.cls-69,.cls-70,.cls-71,.cls-72,.cls-73,.cls-74,.cls-75,.cls-76,.cls-77,.cls-78,.cls-79,.cls-80,.cls-81,.cls-82,.cls-83,.cls-84,.cls-85,.cls-86,.cls-87,.cls-88,.cls-89,.cls-90,.cls-91,.cls-92,.cls-93,.cls-94,.cls-95,.cls-96,.cls-97,.cls-98,.cls-99{fill-rule:evenodd;}.cls-28{fill:#939396;}.cls-29{fill:#b2b1b3;}.cls-30{fill:#6c6c6e;}.cls-31{fill:#585759;}.cls-32{fill:#4b4b4d;}.cls-33{fill:#949497;}.cls-34{fill:#959598;}.cls-35{fill:#959599;}.cls-36{fill:#969698;}.cls-37{fill:#979799;}.cls-38{fill:#98989a;}.cls-39{fill:#99999c;}.cls-40{fill:#9a9a9c;}.cls-41{fill:#9a9a9d;}.cls-42{fill:#9b9a9d;}.cls-43{fill:#9b9b9e;}.cls-44{fill:#9c9c9f;}.cls-45{fill:#9c9ca0;}.cls-46{fill:#9d9da0;}.cls-47{fill:#9e9ea1;}.cls-48{fill:#9e9ea2;}.cls-49{fill:#9f9fa2;}.cls-50{fill:#a0a0a3;}.cls-51{fill:#a2a1a4;}.cls-52{fill:#a2a1a5;}.cls-53{fill:#a3a2a5;}.cls-54{fill:#a3a3a6;}.cls-55{fill:#a3a3a7;}.cls-56{fill:#a4a4a7;}.cls-57{fill:#a6a5a8;}.cls-58{fill:#a6a5a9;}.cls-59{fill:#a7a7aa;}.cls-60{fill:#a7a7ab;}.cls-61{fill:#a8a8ab;}.cls-62{fill:#aaa9ac;}.cls-63{fill:#aaa9ad;}.cls-64{fill:#ababad;}.cls-65{fill:#ababae;}.cls-66{fill:#acacaf;}.cls-67{fill:#adacaf;}.cls-68{fill:#adacb0;}.cls-69{fill:#aeadb0;}.cls-70{fill:#afaeb1;}.cls-71{fill:#afaeb2;}.cls-72{fill:#b0afb2;}.cls-73{fill:#b0afb3;}.cls-74{fill:#b1b0b4;}.cls-75{fill:#b2b1b4;}.cls-76{fill:#b2b1b5;}.cls-77{fill:#b3b2b5;}.cls-78{fill:#b3b2b6;}.cls-79{fill:#b3b3b7;}.cls-80{fill:#b4b4b7;}.cls-81{fill:#b4b4b8;}.cls-82{fill:#b6b5b9;}.cls-83{fill:#b7b6b9;}.cls-84{fill:#b7b6ba;}.cls-85{fill:#b7b7bb;}.cls-86{fill:#b9b8bc;}.cls-87{fill:#bab9bc;}.cls-88{fill:#bab9bd;}.cls-89{fill:#bababe;}.cls-90{fill:#bbbbbe;}.cls-91{fill:#bbbbbf;}.cls-92{fill:#bcbcc0;}.cls-93{fill:#bebdc1;}.cls-94{fill:#bebec1;}.cls-95{fill:#bebec2;}.cls-96{fill:#bfbfc3;}.cls-97{fill:#c1c0c4;}.cls-98{fill:#c2c1c5;}.cls-99{fill:#c2c2c6;}.cls-100{fill:#c3c3c6;}.cls-101{fill:#c3c3c7;}.cls-102{fill:#c4c4c7;}.cls-103{fill:#c5c5c8;}</style></defs><title>Asset 9</title><g class="cls-1"><g id="Layer_2" data-name="Layer 2"><g id="Layer_1-2" data-name="Layer 1"><path class="cls-2" d="M13.05,54.86h1.65a0,0,0,0,1,0,0v.63a0,0,0,0,1,0,0H13.05a.11.11,0,0,1-.11-.11V55A.11.11,0,0,1,13.05,54.86Z"/><path class="cls-3" d="M13.75,56.09H15.4a0,0,0,0,1,0,0v.63a0,0,0,0,1,0,0H13.75a.11.11,0,0,1-.11-.11v-.42A.11.11,0,0,1,13.75,56.09Z"/><path class="cls-4" d="M14.19,57.26h1.65a0,0,0,0,1,0,0v.63a0,0,0,0,1,0,0H14.19a.11.11,0,0,1-.11-.11v-.42A.11.11,0,0,1,14.19,57.26Z"/><path class="cls-5" d="M66.49,127.26l9.07-7.12a.65.65,0,0,0-.38-1.16H22.85l-7,8.28Z"/><polygon class="cls-6" points="64.38 116.86 64.38 126.12 73.05 120.04 72.75 113.62 64.38 116.86"/><path class="cls-5" d="M66.49,116.15l7.42-3a.43.43,0,0,0-.15-.83L24.93,112l-9.11,3.73Z"/><rect class="cls-7" x="15.82" y="115.72" width="50.67" height="11.54"/><polygon class="cls-8" points="66.49 116.15 72.78 113.62 72.8 114.07 66.49 118.07 66.49 116.15"/><rect class="cls-9" x="18.64" y="118.07" width="34" height="7.12"/><ellipse class="cls-10" cx="59.14" cy="121.57" rx="2.56" ry="2.63"/><path class="cls-11" d="M59.14,124.32a2.76,2.76,0,1,1,2.67-2.75A2.72,2.72,0,0,1,59.14,124.32Zm0-5.26a2.51,2.51,0,1,0,2.43,2.51A2.47,2.47,0,0,0,59.14,119.06Z"/><path class="cls-12" d="M59.25,38.11l13.66,8.06c.71.46.25,1.3-.51,1.3L20.71,46.36l-4.4-5.84Z"/><polygon class="cls-13" points="58.8 49.58 58.36 38.46 69.72 45.18 69.32 53.27 58.8 49.58"/><path class="cls-12" d="M59.18,49,71,53.53a.51.51,0,0,1-.21,1L22.15,52.25l-6-3.3Z"/><polygon class="cls-3" points="59.25 38.11 16.13 40.53 16.15 48.95 59.18 48.95 59.25 38.11"/><polygon class="cls-14" points="17.93 47.97 17.91 41.8 45.33 40.04 45.36 47.82 17.93 47.97"/><rect class="cls-15" x="17.15" y="102.74" width="50.42" height="11.74"/><rect class="cls-4" x="15.95" y="94.48" width="50.42" height="8.29"/><rect class="cls-3" x="17.88" y="84.62" width="50.42" height="9.88"/><rect class="cls-2" x="14.71" y="73.5" width="50.42" height="11.76"/><rect class="cls-16" x="15.84" y="61.66" width="50.42" height="11.76"/><rect class="cls-17" x="16.98" y="57.57" width="50.42" height="4.05"/><rect class="cls-17" x="14.71" y="54.38" width="50.42" height="4.05"/><path class="cls-6" d="M66.64,52.35H16.22a4.35,4.35,0,0,0,0-2h0l50.42,1Z"/><path class="cls-18" d="M67.57,54.37H17.15a3.17,3.17,0,0,0,0-2H67.57Z"/><rect class="cls-9" x="18.3" y="75.31" width="31.3" height="8.13"/><ellipse class="cls-19" cx="60.17" cy="89" rx="2.47" ry="2.54"/><path class="cls-20" d="M60.17,91.66A2.67,2.67,0,1,1,62.77,89,2.63,2.63,0,0,1,60.17,91.66Zm0-5.08A2.42,2.42,0,1,0,62.53,89,2.39,2.39,0,0,0,60.17,86.58Z"/><ellipse class="cls-19" cx="59.14" cy="79.48" rx="2.47" ry="2.54"/><path class="cls-20" d="M59.14,82.14a2.66,2.66,0,1,1,2.59-2.66A2.63,2.63,0,0,1,59.14,82.14Zm0-5.08a2.42,2.42,0,1,0,2.35,2.42A2.4,2.4,0,0,0,59.14,77.06Z"/><ellipse class="cls-19" cx="58.81" cy="68.8" rx="2.47" ry="2.54"/><path class="cls-20" d="M58.81,71.47a2.67,2.67,0,1,1,2.6-2.67A2.63,2.63,0,0,1,58.81,71.47Zm0-5.09a2.42,2.42,0,1,0,2.36,2.42A2.39,2.39,0,0,0,58.81,66.38Z"/><ellipse class="cls-19" cx="59.93" cy="109.01" rx="2.47" ry="2.54"/><path class="cls-20" d="M59.93,111.67a2.67,2.67,0,1,1,2.6-2.66A2.63,2.63,0,0,1,59.93,111.67Zm0-5.08A2.42,2.42,0,1,0,62.29,109,2.4,2.4,0,0,0,59.93,106.59Z"/><ellipse class="cls-19" cx="52.19" cy="43.53" rx="2.47" ry="2.54"/><path class="cls-20" d="M52.19,46.19a2.66,2.66,0,1,1,2.6-2.66A2.63,2.63,0,0,1,52.19,46.19Zm0-5.08a2.42,2.42,0,1,0,2.36,2.42A2.4,2.4,0,0,0,52.19,41.11Z"/><path class="cls-9" d="M53.1,68.43s16.11,9.42,26.82-6.72l13.5,8.58s-20.26,8.48-21.81,7.95A64.07,64.07,0,0,1,53.1,68.43Z"/><path class="cls-9" d="M59.25,45.25s3,1.36,11-2.77L79,45.87s-8.88,5-9.72,4.67A34.38,34.38,0,0,1,59.25,45.25Z"/><path class="cls-21" d="M67.11,97A21.75,21.75,0,0,1,61.7,84.62a61.49,61.49,0,0,0,2,19.58c.12.44,1.67,1.76,3.8,3.4C67.48,104.05,67.3,100.51,67.11,97Z"/><path class="cls-9" d="M63.05,81.55S64.15,99,81.91,99.18l.4,15s-16.84-11.56-17.23-13.05A61.85,61.85,0,0,1,63.05,81.55Z"/><path class="cls-6" d="M23,50.54c-1.11-.23-2.23-.41-3.36-.58s-2.15-.22-3.2-.42l1.93.36-3.14-.65a5.24,5.24,0,0,0,1.53.74s0,0,0,0l-1.55-.1h0a4.21,4.21,0,0,0,2.09.64l5.29-.1Z"/><polygon class="cls-9" points="64.81 49.3 71.37 51.74 71.37 51.98 59.05 47.97 64.81 49.3"/><path class="cls-22" d="M32.24,54.37s23,11.15,23.85,15.27l6.44-5.37S41.94,54.45,32.24,54.37Z"/><path class="cls-6" d="M63.4,67.84h0a58.83,58.83,0,0,0-18.75-9.92L32.24,54.37h46.1Z"/><path class="cls-23" d="M19.1,64.48v1.91a1.8,1.8,0,0,1,0,3.42v2.1H29.21V64.48Z"/><path class="cls-9" d="M20.38,95.9v1.4a1.26,1.26,0,0,1,0,2.51v1.54H30.5V95.9Z"/><rect class="cls-7" x="26.73" y="65.07" width="0.24" height="6.21"/><rect class="cls-17" x="27.48" y="65.07" width="1.14" height="6.21"/><rect class="cls-9" x="21.24" y="105.71" width="29.09" height="5.85"/><rect class="cls-9" x="21.24" y="86.07" width="29.09" height="5.85"/><g class="cls-24"><rect class="cls-3" x="23.51" y="97.14" width="0.68" height="3.5"/><rect class="cls-3" x="25.1" y="97.14" width="0.68" height="3.5"/><rect class="cls-3" x="27.13" y="97.14" width="0.68" height="3.5"/></g><rect class="cls-16" x="60.6" y="96.43" width="1.1" height="4.92"/><path class="cls-25" d="M41.16,42.29A41.16,41.16,0,1,0,82.31,83.45,41.16,41.16,0,0,0,41.16,42.29ZM71.87,83.45a30.47,30.47,0,0,1-5.65,17.68L23.47,58.38a30.66,30.66,0,0,1,48.4,25.07Zm-61.43,0a30.55,30.55,0,0,1,5.65-17.69l42.75,42.75a30.66,30.66,0,0,1-48.4-25.06Z"/><polygon class="cls-26" points="125.27 92.49 123.99 94.87 122.87 94.72 122.26 92.08 123.62 81.89 126.63 82.29 125.27 92.49"/><path class="cls-26" d="M126.65,82.15A1.5,1.5,0,0,1,125,83.43h0a1.48,1.48,0,0,1-1.28-1.68l.18-1.37c.11-.82.75-.56,1.57-.46h0c.82.11,1.51,0,1.4.85Z"/><rect class="cls-26" x="123.42" y="81.16" width="3.2" height="3.37" transform="translate(26.39 195.82) rotate(-82.41)"/><path class="cls-26" d="M122.85,94.65a11.16,11.16,0,0,0,.27,1.13c.09.26.23.47.87-.91A1,1,0,0,0,122.85,94.65Z"/><polygon class="cls-26" points="129.78 92.4 128.5 94.78 127.39 94.63 126.77 92 128.13 81.8 131.14 82.2 129.78 92.4"/><path class="cls-26" d="M131.16,82.06a1.5,1.5,0,0,1-1.68,1.28h0a1.51,1.51,0,0,1-1.29-1.69l.18-1.37c.11-.82.76-.56,1.57-.45h0c.82.11,1.5,0,1.39.85Z"/><rect class="cls-26" x="127.93" y="81.07" width="3.2" height="3.37" transform="translate(30.39 200.22) rotate(-82.41)"/><path class="cls-26" d="M127.37,94.56s.17.88.26,1.13.23.47.87-.91A1,1,0,0,0,127.37,94.56Z"/><path class="cls-26" d="M131,82s.76.51.79.81-.66,5.34-.66,5.34a.29.29,0,0,1-.37.34l.56-4.18-.27-.52L131,81.94Z"/><polygon class="cls-26" points="109.9 88.58 100.28 84.22 110.16 79.87 119.68 84.12 109.9 88.58"/><rect class="cls-26" x="118.88" y="83.97" width="0.61" height="6.38"/><path class="cls-26" d="M120.14,90.58a1,1,0,1,0-1,1A1,1,0,0,0,120.14,90.58Z"/><path class="cls-26" d="M118.74,90.88a7.87,7.87,0,0,0-.46,4h1.1V90.66S118.74,91,118.74,90.88Z"/><path class="cls-26" d="M119.71,90.88a7.94,7.94,0,0,1,.45,4h-1.09V90.66S119.71,91,119.71,90.88Z"/><path class="cls-26" d="M115.37,86.82c0,.05-4.71,2.23-5.62,2.65-.91-.42-5.62-2.6-5.62-2.65v6.47c1.52,1.61,4.51,1.88,5.47,1.92h.3c1,0,3.95-.31,5.47-1.92Z"/><path class="cls-26" d="M92.9,38.61a5.15,5.15,0,0,0,1.55-.68c1.16-.81-.33-2.94-1.55-4.27v1a3.72,3.72,0,0,1,1.29,2.12c0,.61-.65.91-1.29,1.07v.79Zm0-1.12V35a3,3,0,0,1,.68,1.62A1.24,1.24,0,0,1,92.9,37.49Zm-1.2-4.94s-.28-.15-.28-.72v-2.9a.55.55,0,0,0,.3-.38h.06V27.28h-.06v0c0-.38-.79-.68-1.77-.68s-1.77.3-1.77.68c0,0,0,0,0,0h0v1.27h0c0,.16.14.29.51.4v2.88a.73.73,0,0,1-.39.72c-.65.38-4.47,4.22-2.81,5.38a8.43,8.43,0,0,0,4.48,1,11.12,11.12,0,0,0,2.92-.3v-.79a6.57,6.57,0,0,1-1.3.15h0a4.76,4.76,0,0,0,1.3-.48V35a11.56,11.56,0,0,0-1-1.26,10.31,10.31,0,0,1,1,.9v-1A7.36,7.36,0,0,0,91.7,32.55Z"/><path class="cls-26" d="M159.17,25.4a1.75,1.75,0,1,1,1.75,1.75A1.75,1.75,0,0,1,159.17,25.4Z"/><path class="cls-26" d="M160.4,26.53c0,.08,3.66,9.57,3.66,9.57a16.06,16.06,0,0,0,1.67,1.59c.17,0-4.13-11.46-4.13-11.46Z"/><polygon class="cls-26" points="161.41 26.75 157.14 35.94 155.59 37.49 156.05 35.36 160.15 26.23 161.47 26.64 161.41 26.75"/><path class="cls-26" d="M161.37,24a.32.32,0,1,1-.64,0V22.74a.32.32,0,1,1,.64,0Z"/><path class="cls-26" d="M135.41,29c1.54,0,2.78-3.37,2.78-7.53s-1.24-7.54-2.78-7.54v1.23c1.29,0,2.33,2.82,2.33,6.31s-1,6.31-2.33,6.31Zm0-15.07c-1.53,0-2.77,3.37-2.77,7.54S133.88,29,135.41,29h0V27.77h0c-1.28,0-2.32-2.83-2.32-6.31s1-6.31,2.32-6.31h0V13.92Z"/><path class="cls-26" d="M143,21.46c0-1.54-3.37-2.78-7.54-2.78v.45c3.49,0,6.31,1,6.31,2.33s-2.82,2.32-6.31,2.32v.45C139.58,24.23,143,23,143,21.46Zm-7.54-2.78h0c-4.16,0-7.53,1.24-7.53,2.78s3.37,2.77,7.53,2.77h0v-.45h0c-3.48,0-6.31-1-6.31-2.32h0c0-1.29,2.83-2.33,6.31-2.33h0Z"/><path class="cls-26" d="M140.74,16.13c-.84-.85-3-.12-5.33,1.64v.6c1.94-1.47,3.76-2.08,4.47-1.38.9.91-.36,3.65-2.82,6.11a15.3,15.3,0,0,1-1.65,1.44v.6a19.08,19.08,0,0,0,2-1.72C140.32,20.48,141.83,17.21,140.74,16.13Zm-5.33,1.64a21.55,21.55,0,0,0-2,1.72c-2.94,3-4.45,6.21-3.36,7.29.84.85,3,.12,5.32-1.64v-.6c-1.93,1.47-3.75,2.09-4.46,1.38h0c-.91-.91.36-3.64,2.82-6.11a17.61,17.61,0,0,1,1.64-1.44Z"/><path class="cls-26" d="M140.74,26.78c1.09-1.08-.42-4.34-3.36-7.29a20.36,20.36,0,0,0-2-1.72v.6a16.49,16.49,0,0,1,1.65,1.44c2.46,2.47,3.72,5.2,2.81,6.11-.7.7-2.52.09-4.46-1.38v.6C137.72,26.9,139.9,27.63,140.74,26.78Zm-5.33-9c-2.31-1.76-4.48-2.49-5.32-1.64-1.09,1.08.42,4.35,3.36,7.29a20.11,20.11,0,0,0,2,1.72v-.6a16.26,16.26,0,0,1-1.64-1.44C131.31,20.64,130,17.9,131,17h0c.71-.7,2.53-.09,4.46,1.38Z"/><path class="cls-26" d="M136.59,21.46a1.17,1.17,0,1,0-1.17,1.16A1.17,1.17,0,0,0,136.59,21.46Z"/><path class="cls-26" d="M154.67,21.71h3.73l-3.73-7.06v2.58l1.66,2.89h-1.66Zm-2.6-12v12h2.6V20.12H153V14.35h0l1.65,2.88V14.65Z"/><rect class="cls-26" x="148.89" y="9.62" width="1.59" height="11.76"/><path class="cls-26" d="M110.44,74.29c.28-2.37-2.16-3.91-2.16-3.91l-.51-.24V72.4a1.44,1.44,0,0,1,.67.16,1.49,1.49,0,0,1-.67,2.83v1.18C109.17,76.46,110.24,75.93,110.44,74.29Zm-2.67-4.15A10.29,10.29,0,0,0,101.7,69v.45a.84.84,0,0,1,.34.08h0A.76.76,0,0,1,101.7,71v5.61a1.3,1.3,0,0,1,0,.85v1.21c1.43-.59,2.53-2.25,4.06-2.11a13.76,13.76,0,0,0,2,0V75.39a1.44,1.44,0,0,1-.67-.16h0a1.49,1.49,0,0,1,.67-2.83ZM101.7,69a5.42,5.42,0,0,0-.72.19V70l0-.09a.76.76,0,0,1,.67-.43V69ZM101,78.82a2.26,2.26,0,0,0,.72-.19V77.42l-.06.14a1.28,1.28,0,0,1-.66.6v.66ZM101.7,71v5.61a1.21,1.21,0,0,0-.6-.68l-.12,0V72.15a.92.92,0,0,0,0-.57V70.46a.74.74,0,0,0,.38.42A.68.68,0,0,0,101.7,71ZM101,69.18a4.73,4.73,0,0,0-1,.46v1.22a1.11,1.11,0,0,1,.46.11,1,1,0,0,1,.5.61V70.46a.85.85,0,0,1,0-.5v-.78Zm-1,9.55a2.15,2.15,0,0,0,1,.09v-.66a1.23,1.23,0,0,1-1,0v.59Zm1-6.58v3.69a1.23,1.23,0,0,0-1,0v-.44a1.11,1.11,0,0,0,.53-.52,1.15,1.15,0,0,0-.5-1.55h0v-.47a1,1,0,0,0,.9-.57A.85.85,0,0,0,101,72.15Zm-1-2.51c-3.18,2-2.65,7.62-.76,8.75a3.31,3.31,0,0,0,.76.34v-.59l0,0h0a1.25,1.25,0,0,1-.55-1.67,1.3,1.3,0,0,1,.59-.57v-.44a1.13,1.13,0,0,1-1,0h0a1.15,1.15,0,0,1,1-2.08v-.47a.91.91,0,0,1-.45-.11,1,1,0,0,1-.44-1.35h0a1,1,0,0,1,.89-.57Z"/><path class="cls-26" d="M145.1,79.49a6.09,6.09,0,1,1-8.46,8.59l-.62.5a6.89,6.89,0,1,0,9.55-9.73Z"/><path class="cls-26" d="M141.58,90a5.46,5.46,0,0,0,0-10.92v.25a5.21,5.21,0,0,1,0,10.42Zm0-10.92a5.46,5.46,0,0,0,0,10.92h0v-.25h0a5.21,5.21,0,0,1,0-10.42h0v-.25Z"/><path class="cls-26" d="M140.8,79.31A5.44,5.44,0,0,0,137.71,81s1-1,1.55-1l.14.05a.27.27,0,0,1,0,.07.49.49,0,0,0-.1.15s0,.1,0,.1l0,.07-.06,0s0,0,0,.07a.31.31,0,0,0,0,.1v.11l0,.06-.08,0a.27.27,0,0,1-.13,0s0-.09,0-.09l.1-.07s0,0,0,0,0-.08-.09-.07a.85.85,0,0,0-.14.09l-.09.06s0,.12,0,.12l.07,0a.22.22,0,0,1,0,.06.3.3,0,0,1,0,.09s0,0-.08,0a.62.62,0,0,1-.16,0,.14.14,0,0,0-.11,0s-.05,0-.06,0-.13.09-.13.09-.05,0-.05.05a1,1,0,0,1,0,.12.37.37,0,0,1-.13.06.24.24,0,0,0-.1,0l0,.1a.37.37,0,0,0-.11.1.72.72,0,0,1-.19.15.31.31,0,0,0-.09.12s0,.12,0,.15a.26.26,0,0,0-.05.14.23.23,0,0,1-.07.13s-.06.06-.08.06l-.17.07a.21.21,0,0,0-.05.11s.05.06.07.06l.08,0v.12s0,.11,0,.11h.1l.1,0,.09.06,0,0,0,.08s0,.06-.06,0,0,0,0,0,0-.06,0-.07-.09,0-.11,0a.15.15,0,0,1-.08,0s0,0,0,0,0-.08,0-.1,0-.08-.08-.08,0,.05,0,0-.07-.07-.08-.07-.05,0-.05,0,0-.09,0-.12,0-.08,0-.11,0-.17,0-.17a3.31,3.31,0,0,0-.22.57s.07,0,.07,0a.48.48,0,0,1,0,.12v.17c0,.13,0,.17,0,.21s0,.1,0,.15a.59.59,0,0,0,0,.2l0,.06s0,.12,0,0l.09-.14,0-.05s0-.07.09,0,.09,0,.11,0,0,.12,0,.13.17,0,.2,0,.08,0,.09.07a.4.4,0,0,0,.08.16s0,.09,0,.14.13.09.16.09a.55.55,0,0,1,.17,0s0,.08.07.09.08.15.08.15,0,.12,0,.15,0,.09,0,.1l.15,0s-.06.08,0,.11l.21.09s-.06.09.05.08a.42.42,0,0,1,.26,0c.05,0,0,.1.14.17l.21.12s.1,0,.08.11,0,.17-.08.21a1.37,1.37,0,0,0-.15.21.19.19,0,0,0,0,.19.45.45,0,0,1,.08.18.55.55,0,0,1,0,.22s-.07.14-.07.14.09.08,0,.14a.85.85,0,0,1-.22.16.82.82,0,0,0-.15.11,2.06,2.06,0,0,1,0,.25s-.2.37-.13.45a.21.21,0,0,1,.06.21c0,.05,0,0-.06.08s-.14,0-.07.13a1.24,1.24,0,0,1,.15.21c0,.06,0,.09.08.15a.91.91,0,0,0,.13.19c.06,0,.13.08.13.14s.12.19,0,.09,0,0-.21-.17-.24-.09-.32-.19,0,.25-.12-.16a1.46,1.46,0,0,0-.24-.46c0-.09,0,0-.13-.2s0-.08-.11-.21-.11,0-.16-.19-.06-.09-.13-.36,0-.29-.1-.42-.14-.07-.19-.16a1.06,1.06,0,0,0-.12-.24c-.13-.23-.31-.33-.3-.73v-.46a.4.4,0,0,1-.13-.4c.07-.23.09-.15.07-.23s0-.06-.12-.15-.07-.08-.09-.14a1.63,1.63,0,0,1,0-.18l0,0s-.54,5.27,4.72,6c0,0-1.21-.27-1.31-.5,0,0,0-.23,0-.23s.13,0,.2,0l.16-.14,0,.1.16,0c.24,0,.24,0,.32,0s.19-.22.24-.11-.06.06.05.11a.62.62,0,0,0,.33,0,1.41,1.41,0,0,0,.4,0s0-.1.1-.08.1.11.1.11l-.2.11-.19.14s-.09,0,0,.06a.42.42,0,0,0,.2,0c.09,0,.3.18.35.08a1.3,1.3,0,0,1,.1-.18c0-.06,0-.14.11-.14a.65.65,0,0,1,.18,0l-.08.16h.21c.07,0,.08.1.17,0s.1-.09.18-.1a1.86,1.86,0,0,1,.26,0l.15,0s.22.14.26.11a1.21,1.21,0,0,1,.26,0,3,3,0,0,1-1.91.59,5.27,5.27,0,0,0,4.54-2.71c1.64-2.83.5-6.47-3.23-7.74a6.12,6.12,0,0,1,3.53,3.71l0,0c-.08-.07-.08,0-.14-.16s0-.1-.07-.19,0,0-.1-.11a.52.52,0,0,0-.12-.13c-.05,0-.1-.21-.14-.26s-.15-.06-.2-.07,0-.08-.05,0,.08.17.08.17v.2a1.3,1.3,0,0,1,.07.23A.85.85,0,0,1,146,83s0,.15-.08.18l-.33.07a1.27,1.27,0,0,1-.14-.19c0-.08-.21-.11-.24-.15s0-.11,0-.21,0-.07-.1-.16l-.1-.09s-.22-.07-.15.05,0,.26.05.28.1,0,.15.07a1.17,1.17,0,0,0,.1.2s0,.2.1.22.19,0,.18.06-.09.15,0,.17.1.07.15,0,0,0,.11,0a.53.53,0,0,1,.19,0s.11.09.11.13,0,.25,0,.25l-.11.21s0,.37-.05.37-.14.17-.17.19-.05.28-.05.28l-.12.13a1.88,1.88,0,0,0,0,.24,1,1,0,0,1,0,.35.52.52,0,0,1-.17.2s.19.18.09.2-.2.18-.22.22,0,.11-.08.12-.18,0-.18.06v.19l-.2.29-.23.2s0,.14,0,.15a1.25,1.25,0,0,0-.37.15.66.66,0,0,1-.28.13c-.07,0,0,.17-.07,0s0-.07-.11-.27-.09,0-.09-.2,0,0,0-.15,0,0,0-.2-.07-.11-.17-.21-.17,0-.11-.16,0,0,.06-.17,0-.18.09-.26.19-.09.18-.19,0-.13,0-.2-.13-.16-.14-.2,0,0-.09-.12l-.12-.18s0-.26,0-.36,0,.06,0-.1a2,2,0,0,0,0-.26s-.18-.13-.26-.12-.06.13-.18,0-.08-.15-.12-.17a.15.15,0,0,0-.18,0c-.06,0-.2,0-.31.1a.56.56,0,0,1-.3,0c-.15,0-.33,0-.44,0s-.12,0-.17-.1,0-.11-.12-.17-.13,0-.15-.13,0-.08,0-.18l-.09-.1c-.14-.16-.19,0-.14-.16s.09,0,.09-.2.22.07.09-.23-.17-.24,0-.47.29-.3.31-.35a.92.92,0,0,1,.13-.21c.05,0,0-.07.12-.06a.46.46,0,0,0,.32-.11,1,1,0,0,1,.22-.21c.05,0,0,0,.14,0a1,1,0,0,1,.21,0c.08,0-.07,0,.14,0l.21,0s0,0,.11,0,.08-.17.09,0-.07.28.08.29H143c.15,0,.11,0,.19.07a.44.44,0,0,0,.22.08c.11,0,0,.17.11,0s-.12-.18.17-.16.32.09.37.06.06,0,.19,0,.14-.07.19,0,.05.14.1,0,.15-.07,0-.15-.2,0-.23-.09.13-.07,0-.1a.7.7,0,0,1-.24-.06c-.11,0-.23.12-.26,0s-.25.08,0-.11.12-.26.26-.23.1.17.19.09.25-.12.09-.24-.05-.06-.22-.13-.31.28-.38.23-.12-.08-.17-.06-.05.16-.06.26.09.13-.07.05.17,0-.19-.17-.49-.1-.54,0-.13,0-.16.07.11.13,0,0a.27.27,0,0,0-.3,0,.11.11,0,0,0-.11,0,.33.33,0,0,1-.27.06c-.07,0-.23,0-.1-.15s0-.08.25-.16.53-.1.25-.17.15-.06-.21-.23-.37.06-.36-.18,0-.25-.1-.24l-.39.08c-.09,0,0,.09-.15,0s-.23,0-.16-.1a.53.53,0,0,1,.17-.27c.1-.08.08-.41.33-.29s.15.09.35.11.29,0,.29-.07-.23-.15-.23-.15-.07,0,0,0l.08-.11-.08-.07A8,8,0,0,0,140.8,79.31Z"/><path class="cls-26" d="M141.16,91.13v1.26a2,2,0,0,1-1,.88c-.72.25-1.39.64-1.32,1s.92.71,3.46.71V90.87Z"/><path class="cls-26" d="M142.61,91.13v1.26a1.72,1.72,0,0,0,1,.88c.72.25,1.6.64,1.54,1s-1.44.71-3.25.71V90.87Z"/><path class="cls-26" d="M145.1,79.49a6.09,6.09,0,1,1-8.46,8.59l-.62.5a6.89,6.89,0,1,0,9.55-9.73Z"/><path class="cls-26" d="M141.58,90a5.46,5.46,0,0,0,0-10.92v.25a5.21,5.21,0,0,1,0,10.42Zm0-10.92a5.46,5.46,0,0,0,0,10.92h0v-.25h0a5.21,5.21,0,0,1,0-10.42h0v-.25Z"/><path class="cls-26" d="M140.8,79.31A5.44,5.44,0,0,0,137.71,81s1-1,1.55-1l.14.05a.27.27,0,0,1,0,.07.49.49,0,0,0-.1.15s0,.1,0,.1l0,.07-.06,0s0,0,0,.07a.31.31,0,0,0,0,.1v.11l0,.06-.08,0a.27.27,0,0,1-.13,0s0-.09,0-.09l.1-.07s0,0,0,0,0-.08-.09-.07a.85.85,0,0,0-.14.09l-.09.06s0,.12,0,.12l.07,0a.22.22,0,0,1,0,.06.3.3,0,0,1,0,.09s0,0-.08,0a.62.62,0,0,1-.16,0,.14.14,0,0,0-.11,0s-.05,0-.06,0-.13.09-.13.09-.05,0-.05.05a1,1,0,0,1,0,.12.37.37,0,0,1-.13.06.24.24,0,0,0-.1,0l0,.1a.37.37,0,0,0-.11.1.72.72,0,0,1-.19.15.31.31,0,0,0-.09.12s0,.12,0,.15a.26.26,0,0,0-.05.14.23.23,0,0,1-.07.13s-.06.06-.08.06l-.17.07a.21.21,0,0,0-.05.11s.05.06.07.06l.08,0v.12s0,.11,0,.11h.1l.1,0,.09.06,0,0,0,.08s0,.06-.06,0,0,0,0,0,0-.06,0-.07-.09,0-.11,0a.15.15,0,0,1-.08,0s0,0,0,0,0-.08,0-.1,0-.08-.08-.08,0,.05,0,0-.07-.07-.08-.07-.05,0-.05,0,0-.09,0-.12,0-.08,0-.11,0-.17,0-.17a3.31,3.31,0,0,0-.22.57s.07,0,.07,0a.48.48,0,0,1,0,.12v.17c0,.13,0,.17,0,.21s0,.1,0,.15a.59.59,0,0,0,0,.2l0,.06s0,.12,0,0l.09-.14,0-.05s0-.07.09,0,.09,0,.11,0,0,.12,0,.13.17,0,.2,0,.08,0,.09.07a.4.4,0,0,0,.08.16s0,.09,0,.14.13.09.16.09a.55.55,0,0,1,.17,0s0,.08.07.09.08.15.08.15,0,.12,0,.15,0,.09,0,.1l.15,0s-.06.08,0,.11l.21.09s-.06.09.05.08a.42.42,0,0,1,.26,0c.05,0,0,.1.14.17l.21.12s.1,0,.08.11,0,.17-.08.21a1.37,1.37,0,0,0-.15.21.19.19,0,0,0,0,.19.45.45,0,0,1,.08.18.55.55,0,0,1,0,.22s-.07.14-.07.14.09.08,0,.14a.85.85,0,0,1-.22.16.82.82,0,0,0-.15.11,2.06,2.06,0,0,1,0,.25s-.2.37-.13.45a.21.21,0,0,1,.06.21c0,.05,0,0-.06.08s-.14,0-.07.13a1.24,1.24,0,0,1,.15.21c0,.06,0,.09.08.15a.91.91,0,0,0,.13.19c.06,0,.13.08.13.14s.12.19,0,.09,0,0-.21-.17-.24-.09-.32-.19,0,.25-.12-.16a1.46,1.46,0,0,0-.24-.46c0-.09,0,0-.13-.2s0-.08-.11-.21-.11,0-.16-.19-.06-.09-.13-.36,0-.29-.1-.42-.14-.07-.19-.16a1.06,1.06,0,0,0-.12-.24c-.13-.23-.31-.33-.3-.73v-.46a.4.4,0,0,1-.13-.4c.07-.23.09-.15.07-.23s0-.06-.12-.15-.07-.08-.09-.14a1.63,1.63,0,0,1,0-.18l0,0s-.54,5.27,4.72,6c0,0-1.21-.27-1.31-.5,0,0,0-.23,0-.23s.13,0,.2,0l.16-.14,0,.1.16,0c.24,0,.24,0,.32,0s.19-.22.24-.11-.06.06.05.11a.62.62,0,0,0,.33,0,1.41,1.41,0,0,0,.4,0s0-.1.1-.08.1.11.1.11l-.2.11-.19.14s-.09,0,0,.06a.42.42,0,0,0,.2,0c.09,0,.3.18.35.08a1.3,1.3,0,0,1,.1-.18c0-.06,0-.14.11-.14a.65.65,0,0,1,.18,0l-.08.16h.21c.07,0,.08.1.17,0s.1-.09.18-.1a1.86,1.86,0,0,1,.26,0l.15,0s.22.14.26.11a1.21,1.21,0,0,1,.26,0,3,3,0,0,1-1.91.59,5.27,5.27,0,0,0,4.54-2.71c1.64-2.83.5-6.47-3.23-7.74a6.12,6.12,0,0,1,3.53,3.71l0,0c-.08-.07-.08,0-.14-.16s0-.1-.07-.19,0,0-.1-.11a.52.52,0,0,0-.12-.13c-.05,0-.1-.21-.14-.26s-.15-.06-.2-.07,0-.08-.05,0,.08.17.08.17v.2a1.3,1.3,0,0,1,.07.23A.85.85,0,0,1,146,83s0,.15-.08.18l-.33.07a1.27,1.27,0,0,1-.14-.19c0-.08-.21-.11-.24-.15s0-.11,0-.21,0-.07-.1-.16l-.1-.09s-.22-.07-.15.05,0,.26.05.28.1,0,.15.07a1.17,1.17,0,0,0,.1.2s0,.2.1.22.19,0,.18.06-.09.15,0,.17.1.07.15,0,0,0,.11,0a.53.53,0,0,1,.19,0s.11.09.11.13,0,.25,0,.25l-.11.21s0,.37-.05.37-.14.17-.17.19-.05.28-.05.28l-.12.13a1.88,1.88,0,0,0,0,.24,1,1,0,0,1,0,.35.52.52,0,0,1-.17.2s.19.18.09.2-.2.18-.22.22,0,.11-.08.12-.18,0-.18.06v.19l-.2.29-.23.2s0,.14,0,.15a1.25,1.25,0,0,0-.37.15.66.66,0,0,1-.28.13c-.07,0,0,.17-.07,0s0-.07-.11-.27-.09,0-.09-.2,0,0,0-.15,0,0,0-.2-.07-.11-.17-.21-.17,0-.11-.16,0,0,.06-.17,0-.18.09-.26.19-.09.18-.19,0-.13,0-.2-.13-.16-.14-.2,0,0-.09-.12l-.12-.18s0-.26,0-.36,0,.06,0-.1a2,2,0,0,0,0-.26s-.18-.13-.26-.12-.06.13-.18,0-.08-.15-.12-.17a.15.15,0,0,0-.18,0c-.06,0-.2,0-.31.1a.56.56,0,0,1-.3,0c-.15,0-.33,0-.44,0s-.12,0-.17-.1,0-.11-.12-.17-.13,0-.15-.13,0-.08,0-.18l-.09-.1c-.14-.16-.19,0-.14-.16s.09,0,.09-.2.22.07.09-.23-.17-.24,0-.47.29-.3.31-.35a.92.92,0,0,1,.13-.21c.05,0,0-.07.12-.06a.46.46,0,0,0,.32-.11,1,1,0,0,1,.22-.21c.05,0,0,0,.14,0a1,1,0,0,1,.21,0c.08,0-.07,0,.14,0l.21,0s0,0,.11,0,.08-.17.09,0-.07.28.08.29H143c.15,0,.11,0,.19.07a.44.44,0,0,0,.22.08c.11,0,0,.17.11,0s-.12-.18.17-.16.32.09.37.06.06,0,.19,0,.14-.07.19,0,.05.14.1,0,.15-.07,0-.15-.2,0-.23-.09.13-.07,0-.1a.7.7,0,0,1-.24-.06c-.11,0-.23.12-.26,0s-.25.08,0-.11.12-.26.26-.23.1.17.19.09.25-.12.09-.24-.05-.06-.22-.13-.31.28-.38.23-.12-.08-.17-.06-.05.16-.06.26.09.13-.07.05.17,0-.19-.17-.49-.1-.54,0-.13,0-.16.07.11.13,0,0a.27.27,0,0,0-.3,0,.11.11,0,0,0-.11,0,.33.33,0,0,1-.27.06c-.07,0-.23,0-.1-.15s0-.08.25-.16.53-.1.25-.17.15-.06-.21-.23-.37.06-.36-.18,0-.25-.1-.24l-.39.08c-.09,0,0,.09-.15,0s-.23,0-.16-.1a.53.53,0,0,1,.17-.27c.1-.08.08-.41.33-.29s.15.09.35.11.29,0,.29-.07-.23-.15-.23-.15-.07,0,0,0l.08-.11-.08-.07A8,8,0,0,0,140.8,79.31Z"/><path class="cls-26" d="M152.48,62.66a4.94,4.94,0,0,0-1-.11v.9a3.72,3.72,0,0,1,.81.09,3.93,3.93,0,0,1-.81,7.77v.9a4.83,4.83,0,0,0,1-9.55Zm-1-.11a4.83,4.83,0,0,0-1,9.56,4.75,4.75,0,0,0,1,.1v-.9a4.63,4.63,0,0,1-.81-.08h0a3.93,3.93,0,0,1,.81-7.78Z"/><rect class="cls-26" x="147.76" y="73.24" width="4.7" height="1.31" transform="translate(46.86 205.55) rotate(-78.1)"/><path class="cls-26" d="M150.18,78.62a1,1,0,1,1-2-.43l.91-4.34a1.06,1.06,0,0,1,1.24-.81,1,1,0,0,1,.81,1.24Z"/><path class="cls-26" d="M125,10.57s-2.23-2.24-6.31-.09V1.05s4.17-2.36,6.45,0h6.45v9.46Z"/><path class="cls-26" d="M126.56,74.8h-1v.66h1.07a.24.24,0,0,1,0,.48h-1.07v1.54h1a1.26,1.26,0,0,0,1.26-1.26v-.16a1.26,1.26,0,0,0-1.26-1.26Zm-1-1.21h3.78a1.26,1.26,0,0,0,1.26-1.26V65.71a1.26,1.26,0,0,0-1.26-1.27h-3.78v.85h3.07a1,1,0,0,1,1,1v5.39a1,1,0,0,1-1,1h-3.07Zm0,1.21h-1.32V73.59h1.32v-.85h-2.84v4.74h2.84V75.94h-1.06a.24.24,0,0,1,0-.48h1.06V74.8Zm0-10.36h-2.84v.85h2.84Zm-2.84,0h-6.62a1.27,1.27,0,0,0-1.27,1.27v6.62a1.27,1.27,0,0,0,1.27,1.26h5V74.8h-2.26a1.25,1.25,0,0,0-1.26,1.26v.16a1.25,1.25,0,0,0,1.26,1.26h3.84V72.74h-5.91a1,1,0,0,1-1-1V66.32a1,1,0,0,1,1-1h5.91Z"/><path class="cls-26" d="M160.12,44.15l2.78-3.41-2.78-2.27v1.71a.72.72,0,0,1,.55,1.17h0a.7.7,0,0,1-.55.27ZM157.3,41.8l2,1.61-.25.31-2-1.61-.58.7,1,.85-.25.31-1-.85-.57.7,1,.85-.25.31-1-.85-.58.71,1,.84-.25.31-1-.85-.57.71,2,1.6-.25.31-2-1.61-.58.71,1,.84L154,48l-1-.85-.58.71,1,.84-.25.31-1-.85-.57.71,1,.84-.25.31-1-.85-.58.71,2,1.6-.25.31-2-1.61-.57.71,1,.84-.25.31-1-.85-.58.71,1,.85-.25.3-1-.84-.58.7,1,.85-.25.3-1-.84-.57.7,2,1.61-.25.3-2-1.6-.58.7,1,.85-.25.3-1-.84-.57.7,1,.85-.25.3-1-.84-.58.7,1,.85-.25.3-1-.84-.58.7,2,1.61-.25.3-2-1.6-1.14,1.4L145.52,62l14.6-17.85V41.62a.75.75,0,0,1-.46-.17.71.71,0,0,1-.1-1,.71.71,0,0,1,.56-.27V38.47l-.06,0Z"/><path class="cls-26" d="M164.55,53.05a.52.52,0,0,0,.36-.32l1.19-3.08a.55.55,0,0,0-.19-.62l.48-1.25a1.79,1.79,0,0,0-1-2.3,1.67,1.67,0,0,0-.82-.11v3.07l.25.16-.25-.1v1.4l.21-.54a.48.48,0,0,0-.12-.5l.86.33a.44.44,0,0,1,.26.58l-1,2.65a.48.48,0,0,1-.19.23Zm-3,7.57,2.92-7.56h0v-.4a.48.48,0,0,1-.39,0l-.86-.33h0a.48.48,0,0,0,.42-.3l.83-2.15V48.5l-2-.75a.52.52,0,0,0-.55.33l-1.19,3.08a.56.56,0,0,0,.07.52l-1,2.69v4.76l.21,0a.58.58,0,0,1,.36.62.55.55,0,0,1,.67-.22.57.57,0,0,1,.33.74l-.06.15-1.51,1v.3l1.71-1.15Zm3-15.25v3.07l-1.79-1.15.31-.79A1.76,1.76,0,0,1,164.55,45.37Zm-4.67,9L158,59.24l.81,3.25,1.07-.72v-.3l-.1.06-1.05-.4-.46-1.88h0l.06-.16a.56.56,0,0,1,.73-.32.57.57,0,0,1,.36.61.53.53,0,0,1,.46-.25Z"/><path class="cls-26" d="M134.67,47.52h0V49.4a.94.94,0,0,0,.88-.59,5.94,5.94,0,0,1,5,5,.95.95,0,0,0,0,1.76,6,6,0,0,1-5,5h0a1,1,0,0,0-.88-.6v1.89h0a7.17,7.17,0,1,0,0-14.34Zm0,0h0a7.17,7.17,0,1,0,0,14.34h0V60h0a1,1,0,0,0-.88.6,6,6,0,0,1-5-5,.95.95,0,0,0,0-1.76,5.94,5.94,0,0,1,5-5,.94.94,0,0,0,.88.59h0Z"/><path class="cls-26" d="M136.8,52l-1.64,1.65a1,1,0,0,0-.49-.12,1.11,1.11,0,0,0-1,.76h-3.48v.72h3.48a1.11,1.11,0,0,0,2.16-.36,1.14,1.14,0,0,0-.11-.49l1.64-1.65Z"/><path class="cls-26" d="M141.09,68.15a3.43,3.43,0,0,0-2.24.83,3.45,3.45,0,0,0-2.24-.83,3.31,3.31,0,0,0-3.36,3.25A5.44,5.44,0,0,0,139,76.59a5.13,5.13,0,0,0,5.43-5.19A3.31,3.31,0,0,0,141.09,68.15Z"/><path class="cls-26" d="M138.91,69.84a3.34,3.34,0,0,1,.8-3.87l1.59.29C139.8,67.09,138.9,68,138.91,69.84Z"/><path class="cls-26" d="M115.43,7.11,115,6.54l-12.16,8.12a2,2,0,0,1-2.74-.69,2,2,0,0,1,.41-2.79l12.17-8.12-.38-.58L100,10.71a2.66,2.66,0,0,0-.55,3.71,2.66,2.66,0,0,0,3.64.92Z"/><path class="cls-26" d="M115.73,7.92a.51.51,0,0,1-.7-.14l-3.46-5.19a.49.49,0,0,1,.14-.69.5.5,0,0,1,.69.13l3.46,5.2A.49.49,0,0,1,115.73,7.92Z"/><path class="cls-26" d="M113.53,6.79l-.47-.71-10.88,7.26a1.36,1.36,0,0,1-1.35.07.22.22,0,0,1,0,.08,1.39,1.39,0,0,0,1.9.48Z"/><path class="cls-26" d="M93.68,24.28l-.25,0v2a1,1,0,0,0,.95-.74,1,1,0,0,0-.7-1.21Zm-.25-.85V17.78a2.43,2.43,0,0,1,1.44-.47L95.73,14a.76.76,0,0,1,.93-.55.77.77,0,0,1,.55.94l-.85,3.27a2.44,2.44,0,0,1,1.15,2.86l-.43,1.64h0c-.2.75.78,1.21.78,1.21l-.29,1.1Zm0,.82a1,1,0,0,0-.25,1.95,1,1,0,0,0,.25,0v-2Zm0-6.47v5.65l-2.93-.76.29-1.11s1.07.08,1.26-.68l.43-1.64A2.56,2.56,0,0,1,93.43,17.78Z"/><path class="cls-26" d="M94.13,48.81a3.88,3.88,0,0,0,0-3.22v3.22Zm0,2.31v-.86a.39.39,0,0,1,.24.1h0l1.2,1.2a.35.35,0,0,1-.5.5l-.94-.94Zm0-7V43.3l.94-.95a.35.35,0,0,1,.5.5l-1.2,1.2h0a.34.34,0,0,1-.24.1Zm3.1,2.7h-1.7a.36.36,0,0,0,0,.71h1.7a.36.36,0,0,0,0-.71Zm-6.54,8.39H91a1.88,1.88,0,0,0,1.88-1.88v-3a3.76,3.76,0,0,0,1.3-1.52V45.59a3.8,3.8,0,0,0-3.44-2.18v.78a3,3,0,0,1,2.13.88,3,3,0,0,1,.88,2.13,3,3,0,0,1-1.46,2.59h0a.37.37,0,0,0-.19.33v1.74H90.69v3.38ZM94.13,43.3v.85a.35.35,0,0,1-.26-.1.35.35,0,0,1,0-.5l.26-.25Zm0,7v.86l-.26-.26a.35.35,0,0,1,0-.5.35.35,0,0,1,.26-.1Zm-3.44-7.52v-2.4h0a.35.35,0,0,1,.35.35v1.7a.35.35,0,0,1-.35.35h0Zm0,.67a3.79,3.79,0,0,0-3.41,2.13v3.32a3.77,3.77,0,0,0,1.33,1.52v3a1.88,1.88,0,0,0,1.88,1.88h.2V51.86H89.4v-1.7a.4.4,0,0,0-.2-.34,3,3,0,0,1,1.49-5.63h0v-.78Zm0-3.07v2.4a.36.36,0,0,1-.33-.35v-1.7a.37.37,0,0,1,.33-.35Zm-3.41,10.8v-.88a.37.37,0,0,1,.28.1.37.37,0,0,1,0,.5l-.28.28Zm0-7v-.88l.28.28a.37.37,0,0,1,0,.5A.34.34,0,0,1,87.28,44.15Zm0,1.39a3.73,3.73,0,0,0,0,3.32V45.54Zm0-2.27v.88a.37.37,0,0,1-.22-.1h0l-1.2-1.2a.35.35,0,0,1,.5-.5l.92.92Zm0,7v.88l-.92.92a.35.35,0,0,1-.5-.5l1.2-1.2h0a.37.37,0,0,1,.22-.1Zm-1-3h0a.36.36,0,0,0-.35-.36H84.2a.36.36,0,0,0,0,.71h1.7A.35.35,0,0,0,86.25,47.21Z"/><path class="cls-26" d="M146.94,6.25a.53.53,0,0,1-.05.39.52.52,0,0,1-.71.21.52.52,0,0,1-.2-.71.48.48,0,0,1,.31-.25l-.75-.41a.49.49,0,0,1,0,.39.53.53,0,1,1-.61-.75l-.75-.42a.49.49,0,0,1,0,.39.52.52,0,0,1-.71.21.52.52,0,0,1-.2-.71.48.48,0,0,1,.31-.25l-.75-.42a.51.51,0,0,1,0,.4.52.52,0,0,1-.71.2.52.52,0,0,1-.21-.71.58.58,0,0,1,.31-.25l-.74-.41a.56.56,0,0,1,0,.4.52.52,0,0,1-.91-.51.51.51,0,0,1,.31-.25L140,2.38a.48.48,0,0,1,0,.39l-.06.08V5.37l5.78,3.21a.12.12,0,1,1-.11.21h0l-5.67-3.14v1.2L145,9.71a.11.11,0,0,1,0,.16.12.12,0,0,1-.16.05h0l-5-2.79v1.2l4.53,2.51a.12.12,0,0,1,.05.16.13.13,0,0,1-.17.05h0l-4.41-2.44v1.2l3.9,2.16a.13.13,0,0,1,.05.17.14.14,0,0,1-.17,0h0l-3.78-2.09V13l2,1.12a1.31,1.31,0,0,0,1.77-.5l3.89-7Zm-7.09-3.4a.52.52,0,0,1-.86-.58A.48.48,0,0,1,139.3,2l-.64-.36-3.9,7a1.3,1.3,0,0,0,.51,1.76L139.85,13v-2.9L136,7.93a.13.13,0,0,1,0-.17.12.12,0,0,1,.16,0l3.78,2.09V8.61l-3.27-1.82a.12.12,0,0,1-.05-.16.13.13,0,0,1,.17,0l3.15,1.75V7.13l-2.64-1.47a.12.12,0,0,1-.05-.16.12.12,0,0,1,.16,0l2.53,1.4V5.65l-2-1.12a.12.12,0,0,1-.05-.16.12.12,0,0,1,.16,0l1.9,1Z"/><path class="cls-26" d="M99.83,66.08l1.47-.69a1.45,1.45,0,0,0,.69-1.92l-2.16-4.62v2.54l.06.07.32.69h0a.22.22,0,0,1-.1.31l-.28.13v.59l.5-.23a.22.22,0,0,1,.3.11l.33.7h0a.23.23,0,0,1-.11.3l-1,.47Zm-1.12.52,1.12-.52V64.53l-.5.24a.23.23,0,0,1-.3-.11L98.71,64V66.6Zm1.12-7.75-1.12-2.4v3.36l.13-.06a.24.24,0,0,1,.3.12l.32.69h0a.23.23,0,0,1-.1.31l-.65.31v.57l.87-.4a.23.23,0,0,1,.25,0V58.85Zm0,3.74v.59l-1,.48a.22.22,0,0,0-.1.09v-.63Zm-1.61,4.24.49-.23V64a.22.22,0,0,1,0-.21v-.63l-.13.06a.23.23,0,0,1-.3-.12l-.06-.12v1.29l.31.66h0a.22.22,0,0,1-.11.3l-.2.1v1.54Zm.49-10.38v0a1.45,1.45,0,0,0-.48-.56v1.91l.22.48h0a.67.67,0,0,1-.22.85V60l.49-.23V56.45Zm0,4.73v.57l-.49.23V61.4Zm-1.31,6,.82-.39V65.29l-.82.38v1.55Zm.82-11.35a1.51,1.51,0,0,0-.82-.27v1.21a.67.67,0,0,1,.55.39l.27.58V55.87Zm0,3.24V60l-.82.39v-.92l.7-.33.12-.07Zm0,2.29V62l-.16.08a.23.23,0,0,0-.1.31l.26.57v1.29l0,0a.22.22,0,0,0-.3-.1l-.5.23v-.59l.28-.13a.23.23,0,0,0,.1-.31h0l-.32-.69-.06-.08V61.18l.13.29a.23.23,0,0,0,.31.11Zm-1.44-5.66-.5.23v1.24l.74-.34a.63.63,0,0,1,.38-.06V55.6a1.37,1.37,0,0,0-.62.14Zm-.5,12,1.12-.52V65.67l-.5.23a.22.22,0,0,1-.3-.1l-.32-.68v2.62Zm1.12-8.23v.92l-.09,0a.24.24,0,0,0-.1.31l.19.4v1.34a.23.23,0,0,0-.25,0l-.87.41v-.58l.65-.3A.24.24,0,0,0,97,61.7h0L96.71,61a.24.24,0,0,0-.3-.12l-.13.06V60l1.12-.52Zm0,4.22v.59l-1,.48a.22.22,0,0,0-.1.09v-.64ZM96.28,56,95,56.59v1.24l1.32-.62V56ZM95,68.33a1.14,1.14,0,0,0,.26-.09l1.06-.5V65.1a.26.26,0,0,1,0-.21v-.64l-.13.06a.21.21,0,0,1-.3-.12l-.32-.69a.23.23,0,0,1,.1-.31l.65-.3v-.58l-.87.41a.25.25,0,0,1-.31-.12L95,62.3v1.37a.13.13,0,0,1,.06.07l.32.69h0a.22.22,0,0,1-.1.31l-.28.13v.59l.51-.23a.21.21,0,0,1,.29.1l.33.7h0a.22.22,0,0,1-.11.3l-1,.48v1.52ZM96.28,60V61L95,61.57v-.92ZM95,56.59l-1.49.7v1.24l1.49-.7V56.59ZM93.47,67.81a1.45,1.45,0,0,0,1.49.52V66.81l-.5.24a.23.23,0,0,1-.3-.11l-.33-.7a.23.23,0,0,1,.11-.3l1-.48v-.59l-1.25.58a.21.21,0,0,1-.24,0v2.39ZM95,60.65v.92l-.07,0a.24.24,0,0,0-.11.31l.18.39v1.37a.22.22,0,0,0-.24-.05l-1.25.59v-.58l1-.48a.23.23,0,0,0,.11-.31h0l-.33-.69A.24.24,0,0,0,94,62l-.5.24v-.92Zm-1.49-3.36L90.7,58.58A1.44,1.44,0,0,0,90,60.5l3.29,7a1.78,1.78,0,0,0,.17.27V65.42l-.06-.09-.32-.68a.24.24,0,0,1,.1-.31l.28-.13v-.58l-.5.23a.23.23,0,0,1-.3-.12l-.33-.69a.24.24,0,0,1,.11-.31l1-.47v-.92l-1,.46a.71.71,0,0,1-.94-.32l-.49-1.06a.7.7,0,0,1,.35-.93l2.07-1Z"/><rect class="cls-26" x="137.63" y="42.96" width="15.48" height="0.81"/><rect class="cls-26" x="138.28" y="41.4" width="14.19" height="0.81"/><rect class="cls-26" x="143.87" y="39.79" width="3.01" height="0.81"/><rect class="cls-26" x="144.41" y="34.04" width="1.94" height="6.29"/><rect class="cls-26" x="143.87" y="33.72" width="3.01" height="0.81"/><rect class="cls-26" x="148.41" y="39.79" width="3.01" height="0.81"/><rect class="cls-26" x="148.95" y="34.04" width="1.94" height="6.29"/><rect class="cls-26" x="148.41" y="33.72" width="3.01" height="0.81"/><rect class="cls-26" x="139.32" y="39.79" width="3.01" height="0.81"/><rect class="cls-26" x="139.86" y="34.04" width="1.94" height="6.29"/><rect class="cls-26" x="139.32" y="33.72" width="3.01" height="0.81"/><rect class="cls-26" x="138.28" y="31.99" width="14.19" height="0.81"/><polygon class="cls-27" points="145.37 27.48 152.47 32 138.28 32 145.37 27.48"/><path class="cls-27" d="M103.54,33l15.32,5-15.32,5v-2c1.33,0,2.41-.81,2.41-1.8v-3h.61V35H104v1.28h.61v3c0,.36-.48.65-1.07.65Zm-4.41-1.45L103.54,33v6.92h0c-.59,0-1.07-.29-1.07-.65v-3h.61V35h-2.56v1.28h.61v3c0,1,1.08,1.8,2.41,1.8h0v2l-4.41,1.45Z"/><path class="cls-26" d="M144.72,52.58a.39.39,0,0,0-.15,0V53.8a.62.62,0,0,0,.6-.46.61.61,0,0,0-.45-.76Zm-.15-.55V48.47a1.56,1.56,0,0,1,.91-.29l.54-2.07a.48.48,0,0,1,.59-.34.47.47,0,0,1,.34.59l-.53,2.06a1.54,1.54,0,0,1,.72,1.8l-.27,1h0c-.12.47.49.76.49.76l-.18.69Zm0,.53a.62.62,0,0,0-.16,1.22.44.44,0,0,0,.16,0V52.56Zm0-4.09V52l-1.85-.48.19-.69s.67,0,.79-.43l.27-1A1.65,1.65,0,0,1,144.57,48.47Z"/><path class="cls-27" d="M108.84,18h2.75v.49h-2.75V18Zm0,2h2.75v7.85A1.56,1.56,0,0,1,110,29.41h-1.2V27l.17-.05a1.52,1.52,0,0,0,.76-.68,2.55,2.55,0,0,0,.36-1.33c0-.71-.24-1.06-.73-1.06a1.06,1.06,0,0,0-.52.17l.3-1.4-.34,0V20Zm0,6.41q.24-.06.45-.51a2.37,2.37,0,0,0,.21-.95.78.78,0,0,0-.18-.61.28.28,0,0,0-.12-.05l-.24,0a.33.33,0,0,0-.12.05ZM107.65,18h1.19v.49h-1.19V18Zm0,2h1.19v2.66l-.58.08-.61,2.88V22.85l.09-.45-.09,0V20Zm1.19,9.4h-1.19V26.66a.61.61,0,0,0,.12.16.84.84,0,0,0,.6.21,1.65,1.65,0,0,0,.47-.05v2.43Zm0-5,0,0L108.46,26a.78.78,0,0,0,0,.14c0,.19.11.29.33.29h.07ZM106.2,18h1.45v.49H106.2V18Zm0,2h1.45v2.36a1.18,1.18,0,0,0-.4-.05,1.64,1.64,0,0,0-1,.47V20Zm1.45,9.4H106.2V27h.56l.89-4.15v2.78l-.06.25a2.21,2.21,0,0,0,0,.35.83.83,0,0,0,.1.43v2.75Zm-1.45-4,.14-.67-.14-.06v.73Zm0-1,.2.08.36-1.7a1.94,1.94,0,0,0-.56.53ZM105.61,18h.59v.49h-.59V18Zm0,2h.59v2.78l0,.05a6.14,6.14,0,0,0-.54.58V20Zm.59,9.4h-.59V24.52a2.44,2.44,0,0,1,.59.15v.73l-.33,1.6h.33v2.41Zm0-6.12a6.45,6.45,0,0,0-.56.95,5.72,5.72,0,0,1,.56.14ZM103.92,18h1.69v.49h-1.88a.75.75,0,0,0-.74.75h0a.75.75,0,0,0,.74.74h1.88v3.41a7.42,7.42,0,0,0-.53.74,2.06,2.06,0,0,0-.33,0,1.73,1.73,0,0,0-.91.22.66.66,0,0,0-.36.55.33.33,0,0,0,.11.26.41.41,0,0,0,.31.1.36.36,0,0,0,.22-.07.19.19,0,0,0,.1-.15.35.35,0,0,0,0-.16s0-.06,0-.06a.36.36,0,0,1,.25-.23,1.46,1.46,0,0,1,.48-.09c-.14.23-.26.47-.38.72A4.76,4.76,0,0,0,104,27a.59.59,0,0,0,.32.59,1.22,1.22,0,0,0,.51.08.69.69,0,0,1-.08-.36,3.25,3.25,0,0,1,.06-.57,10.18,10.18,0,0,1,.75-2.27h.1v4.89h-1.69a1.56,1.56,0,0,1-1.55-1.55V19.57A1.55,1.55,0,0,1,103.92,18Z"/><path class="cls-27" d="M133.64,41.83V38.29a.91.91,0,0,1,.16.52v3Zm0-5.73V33.76l.07,0,.35-.14c.12,0,.22,0,.22.17v1.84a.41.41,0,0,1-.22.36l-.35.14Zm0-2.34V36.1c-.09,0-.16-.07-.16-.18V34.07a.43.43,0,0,1,.16-.31Zm0,4.53a.94.94,0,0,0-.78-.43V32.67H131.5v6a.93.93,0,1,1,0,1.85v1.26h2.14V38.29Zm-2.14,5.82V42.46h.91v.94a.71.71,0,0,1-.71.71Zm0-11.78V30.78c.84.42,1.36,1,1.36,1.55Zm0-1.55v1.55h-.79V32h0a.45.45,0,0,0,0-.89h0v-.61a6.49,6.49,0,0,1,.79.32Zm0,1.89v6h0a.92.92,0,0,0-.79.44V36.44h.35V33.75h-.35V32.67Zm0,7.9v1.26h-.79v-1.7a.9.9,0,0,0,.79.44Zm0,1.89v1.65h-.2a.7.7,0,0,1-.59-.31V42.46Zm-2.09-11.39a.45.45,0,0,1,0,.89l-.12,0v.39h1.42V32a.45.45,0,1,1,0-.89v-.61a9.24,9.24,0,0,0-1.42-.34v1l.12,0Zm1.3,1.6v1.08h-1.42V32.67Zm0,3.77v2.72a.91.91,0,0,0,0,1v1.7h-1.42V36.44Zm0,6V43.8a.7.7,0,0,1-.12-.4v-.94Zm-1.42-10.52a.44.44,0,0,1,0-.85v-1a13,13,0,0,0-2-.16h-.05v2.37h2.08v-.39Zm0,.73v1.08h-1.77v2.69h1.77v5.39h-2.08V40.66h2V40h-2V39.6h2V39h-2v-.43h2v-.63h-2V32.67ZM127.21,30v2.37h-2v-.39a.44.44,0,0,0,0-.85v-1a12.18,12.18,0,0,1,2-.16Zm0,2.71v5.25h-2V36.44H127V33.75h-1.77V32.67Zm0,5.88V39h-2v-.43Zm0,1.05V40h-2V39.6Zm0,1.06v1.17h-2V40.66Zm-2-10.54v1l-.13,0a.45.45,0,0,0,0,.89l.13,0v.39h-1.42V32a.45.45,0,0,0,0-.89v-.61a9,9,0,0,1,1.42-.34Zm0,2.55v1.08h-1.42V32.67Zm0,3.77v1.48h-.06v.63h.06V39h-.06v.62h.06V40h-.06v.63h.06v1.17h-1.42v-1.7a1,1,0,0,0,0-1V36.44Zm-1.42,7.36V42.46h.12v.94A.7.7,0,0,1,123.82,43.8Zm0-13.34v.61a.45.45,0,0,0,0,.89v.37H123V30.78a6.49,6.49,0,0,1,.79-.32Zm0,2.21v1.08h-.35v2.69h.35v2.72a.94.94,0,0,0-.79-.44v-6Zm0,7.46v1.7H123V40.57a.92.92,0,0,0,.79-.44Zm0,2.33V43.8a.72.72,0,0,1-.59.31H123V42.46ZM123,30.78v1.55h-1.36c0-.59.51-1.13,1.36-1.55Zm0,1.89v6a.93.93,0,1,0,0,1.85v1.26h-2.15V38.29a.94.94,0,0,1,.79-.43V32.67Zm0,9.79v1.65h-.2a.71.71,0,0,1-.72-.71v-.94Zm-2.15-6.36c.1,0,.16-.07.16-.18V34.07a.4.4,0,0,0-.16-.31Zm0-2.34V36.1h-.06l-.35-.14a.4.4,0,0,1-.23-.36V33.75c0-.15.1-.22.23-.17l.35.14.06,0Zm0,4.53v3.54h-.15v-3A1,1,0,0,1,120.88,38.29Z"/><path class="cls-26" d="M120.77,60.23A1.27,1.27,0,0,0,122,59V49.43a1.27,1.27,0,0,0-1.27-1.27h-2.54V49h1.83a1,1,0,0,1,1,1v8.29a1,1,0,0,1-1,1h-1.83v.85Zm-2.54-1.6v-.31h1.31v-.51h-1.31v-8h1.34a.83.83,0,0,1,.83.82V57.8a.83.83,0,0,1-.83.83Zm0-10.47h-2V49h2v-.86Zm-2,12.07h2v-.85h-2v.85Zm2-10.46v8h-1.3v.51h1.3v.31h-2v-3.2l.12,0a1.18,1.18,0,0,0,.6-.35,1.4,1.4,0,0,0,.35-.6,1.13,1.13,0,0,0,.05-.32,1.42,1.42,0,0,0,0-.34.74.74,0,0,0-.24-.36.78.78,0,0,0-.5-.18,1.32,1.32,0,0,0,.39-.52.92.92,0,0,0,0-.54.58.58,0,0,0-.35-.4.76.76,0,0,0-.41-.07V49.77Zm-2,5.31h0a.45.45,0,0,0,.34-.34,1,1,0,0,0,0-.59.93.93,0,0,0-.39-.56v1.5Zm0-2a1.13,1.13,0,0,0,.17-.59,1,1,0,0,0,0-.24.43.43,0,0,0-.11-.2l0,0Zm0-4.89H114.1V49h2.15v-.86ZM114.1,60.23h2.15v-.85H114.1v.85Zm2.15-10.46v1.95a1.17,1.17,0,0,0-.3.05,1,1,0,0,0-.66.47.86.86,0,0,0-.13.7.74.74,0,0,0,.56.54,1.17,1.17,0,0,0-.52.56,1,1,0,0,0,0,.7.92.92,0,0,0,.42.57,1,1,0,0,0,.68.12v3.2H114.1V55.55h.06l0-.61.59-.15,0-.55-.6.15V49.77Zm0,2.23a.2.2,0,0,0-.17,0,.44.44,0,0,0-.31.28.59.59,0,0,0,0,.41.74.74,0,0,0,.4.54l.11-.15V52Zm0,1.58-.08,0a1.32,1.32,0,0,0-.35.9,1.86,1.86,0,0,0,0,.26A.58.58,0,0,0,116,55a.27.27,0,0,0,.22.08Zm-2.15-5.42h-2.58V49h2.58v-.86Zm-2.58,12.07h2.58v-.85h-2.58v.85Zm2.58-10.46v4l-.53.14,0,.6-.6.15,0,.55.59-.15,0,.6.47-.12v3.08h-2.58v-2l.16,0a1.16,1.16,0,0,0,.78-.63,1.48,1.48,0,0,0,.12-1.1.88.88,0,0,0-.28-.48.56.56,0,0,0-.24-.13.65.65,0,0,0-.36,0,.67.67,0,0,0-.18.07V53.2l.06,0a.22.22,0,0,1,.19,0,.33.33,0,0,1,.11.15.26.26,0,0,1,0,.19.49.49,0,0,0,.29-.18.3.3,0,0,0,0-.26.31.31,0,0,0-.21-.21.59.59,0,0,0-.42,0h0V49.77Zm-2.58,6.47h.12a.59.59,0,0,0,.39-.43,1.17,1.17,0,0,0,0-.69c-.08-.33-.2-.47-.37-.43a.36.36,0,0,0-.18.12Zm0-8.08h-4.09a1.27,1.27,0,0,0-1.27,1.27V59a1.27,1.27,0,0,0,1.27,1.27h4.09v-.85h-3.38a1,1,0,0,1-1-1V50.05a1,1,0,0,1,1-1h3.38v-.86Zm0,1.61V52.9a1.28,1.28,0,0,0-.76.52,2.16,2.16,0,0,0-.34,1,5.06,5.06,0,0,0,0,.69,4.42,4.42,0,0,0,.11.71l0,.08a1.81,1.81,0,0,0,.13.35.74.74,0,0,0,.85.38v2h-2.89a.83.83,0,0,1-.83-.83V50.59a.83.83,0,0,1,.83-.82Zm0,3.43v1.15a.74.74,0,0,0-.19.16.41.41,0,0,0-.11.4.48.48,0,0,0,.16.23.83.83,0,0,1,.14-.34v1.44a.3.3,0,0,1-.15-.05c-.08,0-.14-.16-.19-.35s-.05-.27-.09-.52a4.59,4.59,0,0,1-.06-.73,2.46,2.46,0,0,1,.16-1A.68.68,0,0,1,111.52,53.2Z"/><path class="cls-26" d="M116.82,30.54a1.62,1.62,0,0,0-1,.39,1.62,1.62,0,0,0-1.06-.39,1.56,1.56,0,0,0-1.59,1.53,2.57,2.57,0,0,0,2.73,2.45,2.42,2.42,0,0,0,2.56-2.45A1.56,1.56,0,0,0,116.82,30.54Z"/><path class="cls-26" d="M115.8,31.34a1.58,1.58,0,0,1,.37-1.83l.76.14A1.74,1.74,0,0,0,115.8,31.34Z"/><path class="cls-26" d="M111.92,67.3l.86,1.28,0,1.65-.83-.31v-.14l.25.1.46-.31,0-.95h0l0-.07a.29.29,0,0,0-.39-.08.27.27,0,0,0-.1.33.31.31,0,0,0-.2-.07Zm-.72,2.34L109,66.32a.3.3,0,0,1-.23-.11l0,0v-.24l.07.1a.22.22,0,0,0,.31.06l.37-.25h0a.24.24,0,0,1-.23-.1l-.52-.77V64l.6-.4a.25.25,0,0,1,.3.1l.91,1.35a.25.25,0,0,1,0,.25l1.36,2v1.43a.28.28,0,0,0-.15,0,.3.3,0,0,0-.11.34.27.27,0,0,0-.35,0,.28.28,0,0,0-.07.39l.05.07.63.24v.14l-.72-.28Zm-2.47-6.86v1l.46-.46L109,63A.84.84,0,0,0,108.73,62.78Zm0,3.4-.88-1.33a.26.26,0,0,1,0-.32L107.5,64a.88.88,0,0,1,1.23-1.21v1l-.37.39.37-.25v1l-.27-.41a.24.24,0,0,1,0-.26l-.38.26a.22.22,0,0,0-.06.31l.71,1.06Z"/><path class="cls-26" d="M155.24,27.27a1.89,1.89,0,0,0,0-1.65v1.65Zm0,1.18V28a.17.17,0,0,1,.13.05h0l.61.61a.19.19,0,0,1,0,.26.18.18,0,0,1-.25,0l-.49-.49Zm0-3.56v-.44l.49-.49a.18.18,0,0,1,.25,0,.19.19,0,0,1,0,.26l-.61.61h0a.18.18,0,0,1-.13.06Zm1.59,1.38H156a.18.18,0,0,0,0,.36h.87a.18.18,0,0,0,0-.36Zm-3.35,4.3h.14a1,1,0,0,0,1-1V28.05a1.86,1.86,0,0,0,.66-.78V25.62a1.94,1.94,0,0,0-1.76-1.12v.41A1.54,1.54,0,0,1,155,26.45a1.55,1.55,0,0,1-.74,1.32h0a.19.19,0,0,0-.1.17v.89h-.7v1.74Zm1.76-6.12v.44a.19.19,0,0,1-.13-.06.18.18,0,0,1,0-.25l.13-.13Zm0,3.57v.43l-.13-.13a.18.18,0,0,1,0-.25.18.18,0,0,1,.13-.05Zm-1.76-3.86V22.93h0a.19.19,0,0,1,.18.18V24a.19.19,0,0,1-.18.18h0Zm0,.34a2,2,0,0,0-1.75,1.1v1.7a2,2,0,0,0,.69.78v1.53a1,1,0,0,0,1,1h.1V28.83h-.66V28a.21.21,0,0,0-.1-.17,1.54,1.54,0,0,1-.78-1.34,1.53,1.53,0,0,1,.45-1.09,1.54,1.54,0,0,1,1.09-.45h0V24.5Zm0-1.57v1.23a.18.18,0,0,1-.17-.18v-.87a.19.19,0,0,1,.17-.18Zm-1.75,5.54V28a.18.18,0,0,1,.15.3l-.15.15Zm0-3.58v-.46l.15.15a.18.18,0,0,1,0,.25A.2.2,0,0,1,151.73,24.89Zm0,.71a2,2,0,0,0-.19.85,2,2,0,0,0,.19.85V25.6Zm0-1.17v.46a.24.24,0,0,1-.11-.06h0l-.61-.61a.19.19,0,0,1,0-.26.18.18,0,0,1,.25,0l.47.47Zm0,3.59v.45l-.47.47a.18.18,0,0,1-.25,0,.19.19,0,0,1,0-.26l.61-.61h0a.16.16,0,0,1,.11-.05Zm-.52-1.57h0a.18.18,0,0,0-.18-.18h-.87a.18.18,0,0,0,0,.36H151A.18.18,0,0,0,151.21,26.45Z"/><path class="cls-27" d="M120.39,12.89l.81-.26,2.24,6.92-2.49.81-.56-1.73V12.89Zm0,11.69a3.47,3.47,0,0,0,2-.66h-1.55V23h4.77v1h-.86a5.22,5.22,0,0,1-2.46,2c1.08.19,1.87.54,1.87,1.07v.79h-3.8v-.73a.71.71,0,0,0,0-1.42Zm-1.68-11.15,1.68-.54v5.74l-.33-1a3.5,3.5,0,0,0,.31,7h0v1.08a.71.71,0,1,0,0,1.42v.73h-3.84V27c0-.53.79-.88,1.87-1.07a5.24,5.24,0,0,1,1.09-10Z"/><path class="cls-26" d="M116.9,12.19a2.69,2.69,0,0,0-2.49-1.69V11a2.18,2.18,0,0,1,.81,4.21,2.13,2.13,0,0,1-.81.16v.5a2.64,2.64,0,0,0,1-.19A2.69,2.69,0,0,0,116.9,12.19Zm-2.49-1.69a2.69,2.69,0,1,0,0,5.37v-.5a2.18,2.18,0,0,1-2-1.38h0a2.17,2.17,0,0,1,1.22-2.83,2.09,2.09,0,0,1,.81-.16Z"/><rect class="cls-26" x="109.66" y="14.19" width="2.61" height="0.73" transform="translate(2.51 42.18) rotate(-21.76)"/><path class="cls-26" d="M108.8,16.05a.58.58,0,0,1-.43-1.08l2.29-.92a.6.6,0,0,1,.76.33.58.58,0,0,1-.32.75Z"/><path class="cls-26" d="M113.47,42.84l.85-.16a.33.33,0,0,1,.36.17l.79-.15a1.08,1.08,0,1,1,.43,2.12l-.51.1-.57-1.36L115.1,45a.33.33,0,0,1-.26.3l-1.37.27V43.68l.89-.17a.3.3,0,0,1,.29.12l-.11-.55a.28.28,0,0,0-.33-.22l-.74.15Zm-6.13,1.38,4.77-.95a.33.33,0,0,1,.24-.2l1.12-.23V43l-1,.19a.27.27,0,0,0-.21.32l.11.55h0a.27.27,0,0,1,.22-.22l.83-.17v1.87l-.6.12a.32.32,0,0,1-.3-.1l-4.84,1-.39-.18v-.17l.41.19h0l.1,0a.34.34,0,0,0,.27-.41.35.35,0,0,0-.33-.28.34.34,0,0,0,.2-.38.35.35,0,0,0-.33-.28.34.34,0,0,0,.2-.38.34.34,0,0,0-.4-.27l-.11,0v-.15Zm-.06,0h.06v.17l-.8.83.13.67.67.29v.17l-1.47-.65Z"/><path class="cls-26" d="M157.58,54.05l-.27-.17-3.52,5.69a1,1,0,0,1-1.63-1l3.52-5.7-.27-.16-3.56,5.76A1.28,1.28,0,0,0,154,59.81Z"/><path class="cls-26" d="M157.86,54.33a.24.24,0,0,1-.32.07l-2.43-1.5a.24.24,0,0,1-.07-.32.23.23,0,0,1,.31-.07l2.43,1.5A.24.24,0,0,1,157.86,54.33Z"/><path class="cls-26" d="M156.73,54.27l-.33-.2-3.15,5.09a.63.63,0,0,1-.55.28l0,0a.62.62,0,0,0,.87-.16Z"/><path class="cls-26" d="M147.5,22.49c1.25.81,1,3,.3,3.44a1.31,1.31,0,0,1-.3.14v-.23h0a.5.5,0,0,0,.21-.66.57.57,0,0,0-.23-.23v-.17a.41.41,0,0,0,.39,0h0a.45.45,0,0,0,.2-.6.45.45,0,0,0-.59-.22v-.18a.39.39,0,0,0,.18,0,.41.41,0,0,0,.17-.54h0a.41.41,0,0,0-.35-.22Zm-.38-.18a2.22,2.22,0,0,1,.38.18V23a.39.39,0,0,0-.38.28v-.44a.31.31,0,0,0,0-.19v-.31Zm.38,3.76a.84.84,0,0,1-.38,0v-.26a.5.5,0,0,0,.38,0v.23Zm0-2.3V24h0a.45.45,0,0,0,0,.81v.17a.5.5,0,0,0-.38,0V23.48a.36.36,0,0,0,0,.07A.38.38,0,0,0,147.5,23.77Zm-.66-1.54.28.08v.31s0,0,0,0a.3.3,0,0,0-.26-.17v-.18Zm.28,3.87a.89.89,0,0,1-.28-.07v-.48a.14.14,0,0,0,0,.06.49.49,0,0,0,.26.23v.26Zm0-3.29v.44a.45.45,0,0,0,0,.23v1.45l0,0a.46.46,0,0,0-.24.27V23a.31.31,0,0,0,.13,0A.35.35,0,0,0,147.12,22.81Zm-2.67-.12a4.1,4.1,0,0,1,2.39-.46v.18a.35.35,0,0,0-.14,0h0a.31.31,0,0,0-.13.4.31.31,0,0,0,.27.17v2.21a.47.47,0,0,0,0,.33V26c-.56-.23-1-.89-1.6-.83a7.12,7.12,0,0,1-.79,0v-.47a.58.58,0,0,0,.26-.06h0a.6.6,0,0,0,.27-.79.58.58,0,0,0-.53-.32Zm-1,1.63a1.82,1.82,0,0,1,.85-1.54l.2-.09v.89a.59.59,0,0,0-.53.85.6.6,0,0,0,.53.32v.47C143.9,25.17,143.48,25,143.4,24.32Z"/><path class="cls-26" d="M97.49,49.44l.22-.14,3,4.84a.82.82,0,0,0,1.38-.86l-3-4.83.23-.14,3,4.89a1.08,1.08,0,0,1-1.83,1.14Z"/><path class="cls-26" d="M97.25,49.68a.2.2,0,0,0,.27.06l2.06-1.27a.2.2,0,0,0,.06-.27.18.18,0,0,0-.26-.06l-2.07,1.27A.2.2,0,0,0,97.25,49.68Z"/><path class="cls-26" d="M98.21,49.63l.28-.17,2.68,4.32a.5.5,0,0,0,.46.24l0,0a.54.54,0,0,1-.75-.13Z"/><path class="cls-26" d="M135.16,92.46a1.51,1.51,0,0,0,0-1.27v1.27Zm0,.91V93a.21.21,0,0,1,.1,0h0l.47.48a.14.14,0,0,1,0,.19.13.13,0,0,1-.2,0l-.37-.37Zm0-2.75v-.34l.37-.37a.13.13,0,0,1,.2,0,.14.14,0,0,1,0,.19l-.47.48h0a.21.21,0,0,1-.1,0Zm1.22,1.07h-.67a.13.13,0,0,0-.13.14.14.14,0,0,0,.13.14h.67a.14.14,0,0,0,.14-.14A.14.14,0,0,0,136.38,91.69ZM133.8,95h.1a.75.75,0,0,0,.75-.74v-1.2a1.56,1.56,0,0,0,.51-.6V91.19a1.51,1.51,0,0,0-1.36-.87v.31a1.2,1.2,0,0,1,.61,2.22h0a.14.14,0,0,0-.07.13v.68h-.54V95Zm1.36-4.72v.34a.13.13,0,0,1-.1,0,.13.13,0,0,1,0-.2l.1-.1Zm0,2.75v.34l-.1-.1a.13.13,0,0,1,0-.2.18.18,0,0,1,.1,0Zm-1.36-3v-1h0a.14.14,0,0,1,.14.14v.67a.14.14,0,0,1-.14.14h0Zm0,.26a1.52,1.52,0,0,0-1.35.85v1.31a1.47,1.47,0,0,0,.53.6v1.18a.74.74,0,0,0,.74.74h.08V93.66h-.51V93a.16.16,0,0,0-.08-.13,1.19,1.19,0,0,1,.59-2.23v-.31Zm0-1.21v1a.13.13,0,0,1-.13-.14v-.67a.15.15,0,0,1,.13-.14Zm-1.35,4.27V93a.15.15,0,0,1,.11,0,.13.13,0,0,1,0,.2l-.11.11Zm0-2.76v-.35l.11.11a.13.13,0,0,1,0,.2A.15.15,0,0,1,132.45,90.62Zm0,.55a1.51,1.51,0,0,0,0,1.31V91.17Zm0-.9v.35a.12.12,0,0,1-.08,0h0l-.48-.48a.14.14,0,0,1,0-.19.13.13,0,0,1,.2,0l.36.36Zm0,2.76v.35l-.36.36a.13.13,0,0,1-.2,0,.14.14,0,0,1,0-.19l.48-.48h0a.2.2,0,0,1,.08,0Zm-.4-1.2h0a.14.14,0,0,0-.14-.14h-.67a.14.14,0,0,0-.14.14.14.14,0,0,0,.14.14h.67A.15.15,0,0,0,132.05,91.83Z"/><path class="cls-26" d="M126.07,50.93a.71.71,0,0,1-1.4-.24.71.71,0,1,1,1.4.24Z"/><path class="cls-26" d="M125.65,50.39s-.8-4.09-.8-4.09a5.83,5.83,0,0,0-.56-.75c-.06,0,.86,4.88.86,4.88Z"/><polygon class="cls-26" points="125.26 50.23 127.61 46.85 128.35 46.33 128.01 47.15 125.73 50.53 125.23 50.27 125.26 50.23"/><path class="cls-26" d="M125.09,51.33a.12.12,0,0,1,.15-.1.13.13,0,0,1,.11.15l-.09.51a.13.13,0,0,1-.15.11.14.14,0,0,1-.11-.16Z"/><path class="cls-26" d="M127.81,14.8a1.46,1.46,0,0,0,.14-.63,1.53,1.53,0,0,0-.14-.64V14.8Zm0,.91v-.33a.14.14,0,0,1,.1,0h0l.47.47a.14.14,0,0,1-.2.2l-.37-.38Zm0-2.75v-.34l.37-.37a.14.14,0,0,1,.2.2l-.47.47h0a.14.14,0,0,1-.1,0ZM129,14h-.66a.14.14,0,1,0,0,.28H129a.14.14,0,1,0,0-.28Zm-2.58,3.31h.11a.74.74,0,0,0,.74-.74V15.41a1.51,1.51,0,0,0,.51-.61V13.53a1.5,1.5,0,0,0-1.36-.86V13a1.2,1.2,0,0,1,1.19,1.19,1.19,1.19,0,0,1-.58,1h0a.17.17,0,0,0-.07.13V16h-.54v1.33Zm1.36-4.72V13a.13.13,0,0,1-.1,0,.13.13,0,0,1,0-.2l.1-.1Zm0,2.76v.33l-.1-.1a.12.12,0,0,1,0-.19.13.13,0,0,1,.1,0Zm-1.36-3v-.94h0a.14.14,0,0,1,.14.14v.67a.13.13,0,0,1-.14.13h0Zm0,.27a1.51,1.51,0,0,0-1.35.84v1.31a1.4,1.4,0,0,0,.53.6V16.6a.74.74,0,0,0,.74.74h.08V16h-.51v-.67a.16.16,0,0,0-.08-.14,1.18,1.18,0,0,1-.6-1A1.2,1.2,0,0,1,126.45,13v-.31Zm0-1.21v.94a.13.13,0,0,1-.13-.13V11.6a.13.13,0,0,1,.13-.14Zm-1.35,4.26v-.34a.12.12,0,0,1,.11,0,.12.12,0,0,1,0,.19l-.11.11Zm0-2.76v-.35l.11.11a.13.13,0,0,1,0,.2A.12.12,0,0,1,125.1,13Zm0,.55a1.6,1.6,0,0,0-.15.66,1.55,1.55,0,0,0,.15.65V13.51Zm0-.9V13a.09.09,0,0,1-.08,0h0l-.48-.47a.14.14,0,0,1,.2-.2l.36.36Zm0,2.77v.34l-.36.37a.14.14,0,0,1-.2-.2l.48-.47h0a.09.09,0,0,1,.08,0Zm-.4-1.21h0a.14.14,0,0,0-.14-.14h-.67a.14.14,0,0,0,0,.28h.67A.14.14,0,0,0,124.7,14.17Z"/><path class="cls-28" d="M125.11,129.82c-2.81,0-8.7-.26-8.88-1.14s-1-1.41-3.25-2.73-2.9-2.9-2.9-3.86.7-1.68-.44-2.12-.88-.88.08-1.23.36-1,.36-1.93,1-1.14-.36-1.23-1.23-1-.17-1.32.44-1,.44-1.76.61-1.32-.35-1.58-.88-1.06.26-1.32.44-.71.35-1.32.79-1.41.18-1.41a1.62,1.62,0,0,1-1.58-1.14l-1-7.39h35.41l-.68,5.54c-.09.7-1,1.14-1.59,1.14s.27.8.18,1.41-.79,1.06.35,1.32,1.23,1.06.26,1.32-.35.79-.35,1.58-.61,1.41.44,1.76,1.23,1.23-.17,1.32-.36.26-.36,1.23-.61,1.58.36,1.94,1.23.79.08,1.23-.44,1.14-.44,2.11c0,.28.76.59.65,1.19-.26,1.42-1.62,3.13-3.28,4.52s-3.08,1.85-3.26,2.73S127.93,129.82,125.11,129.82Z"/><path class="cls-29" d="M120.24,129.82c-.81,0-2.5-.26-2.55-1.14a6.72,6.72,0,0,0-.93-2.73,9.47,9.47,0,0,1-.84-3.86c0-1,.2-1.68-.13-2.12a1,1,0,0,1,0-1.23c.28-.35.1-1,.1-1.93s.3-1.14-.1-1.23-.35-1,0-1.32.13-1,.13-1.76.17-1.32-.11-1.58a1.08,1.08,0,0,1,.08-1.32c.33-.27.13-.71.1-1.32s.23-1.41,0-1.41-.45-.44-.45-1.14.15-1.15.15-2.11a24,24,0,0,0,0-2.73c-.09-.62-.21-1.8-.24-2.55h10a5.13,5.13,0,0,1-.12,1.33,6,6,0,0,0-.23,2.1c0,1,.15,1.41.15,2.11S125,105,124.81,105s.07.8,0,1.41-.23,1.06.1,1.32a1.07,1.07,0,0,1,.07,1.32c-.27.26-.1.79-.1,1.58s-.17,1.41.13,1.76.35,1.23,0,1.32-.1.26-.1,1.23-.18,1.58.1,1.94a.94.94,0,0,1,0,1.23c-.32.44-.12,1.14-.12,2.11a5.33,5.33,0,0,1,.18,1.19,17.51,17.51,0,0,1-.94,4.52,11.92,11.92,0,0,0-.94,2.73C123.16,129.56,121.05,129.82,120.24,129.82Z"/><path class="cls-30" d="M125.84,129.56c2.23,0,4,.8,4,1.78s-1.81,1.77-4,1.77-4-.79-4-1.77S123.6,129.56,125.84,129.56Z"/><ellipse class="cls-31" cx="125.84" cy="129.88" rx="7.03" ry="1.95"/><path class="cls-32" d="M125.16,130.54c-2.58,0-8-.24-8.15-1,0-.09-.06-.21-.11-.36,1.66.52,5.93.69,8.2.69s7.76-.18,9.67-.74a3.21,3.21,0,0,0-.11.41C134.49,130.3,127.74,130.54,125.16,130.54Z"/><path class="cls-30" d="M110.39,108.69l30.5-1.43c0,.2.1.37.64.49a1.53,1.53,0,0,1,.79.4l-32.74,1.54a2.45,2.45,0,0,1,.32-.09C110.77,109.4,110.57,109.1,110.39,108.69Z"/><path class="cls-30" d="M109,106.14l33.26-1.57A2,2,0,0,1,141,105c-.34,0-.22.25-.06.58L110.65,107c0-.09-.06-.15-.22-.15A1.87,1.87,0,0,1,109,106.14Z"/><path class="cls-30" d="M109.71,110.94l31.55-1.49c-.06.24.11.56.16,1l-31.33,1.48C110.21,111.44,110.32,111.13,109.71,110.94Z"/><path class="cls-30" d="M110.07,113.08l31.21-1.47c-.05.34,0,.61.6.8a2.52,2.52,0,0,1,.29.12L110,114C110.27,113.8,110.17,113.47,110.07,113.08Z"/><path class="cls-30" d="M109.73,115.58l31.32-1.48a1.54,1.54,0,0,1,.3.86v.09l-31.24,1.47C110.28,115.8,111,115.66,109.73,115.58Z"/><path class="cls-30" d="M110.23,117.8l30.93-1.46c0,.23.16.42.55.56a2.3,2.3,0,0,1,.67.34l-32.77,1.55.11-.05C110.31,118.53,110.32,118.22,110.23,117.8Z"/><path class="cls-30" d="M110,120.14l31.21-1.47a1.94,1.94,0,0,0,.11,1l-31,1.47C110.33,120.7,110.34,120.39,110,120.14Z"/><path class="cls-30" d="M125.11,129.82c-2.81,0-8.7-.26-8.88-1.14s-1-1.41-3.25-2.73a6.52,6.52,0,0,1-2.52-2.47L141.84,122a10.4,10.4,0,0,1-3.12,4c-1.67,1.4-3.08,1.85-3.26,2.73S127.93,129.82,125.11,129.82Z"/><path class="cls-28" d="M119.24,129.54a14.56,14.56,0,0,0-1.83-3.53,17.55,17.55,0,0,1-1.37-2.79l8.94-.43a30,30,0,0,1,.11,3.22c0,1.86-.32,2.46-.08,3.63a1.1,1.1,0,0,1,0,.18C123.5,129.82,121.13,129.74,119.24,129.54Z"/><path class="cls-28" d="M130.39,98.34h12.88l-.68,5.54c-.09.7-1,1.14-1.59,1.14l-10.58.1Z"/><path class="cls-33" d="M130.54,98.34h12.73q-.35,2.77-.68,5.54c-.09.69-1,1.13-1.57,1.14l-10.45.06Z"/><path class="cls-33" d="M130.69,98.34h12.58q-.35,2.77-.68,5.54c-.09.69-1,1.12-1.56,1.13l-10.31,0Z"/><path class="cls-34" d="M130.85,98.34h12.42q-.35,2.77-.68,5.54c-.09.68-.94,1.11-1.54,1.13l-10.19,0C130.86,102.77,130.85,100.56,130.85,98.34Z"/><path class="cls-35" d="M131,98.34h12.27q-.35,2.77-.68,5.54a1.58,1.58,0,0,1-1.53,1.12L131,104.94C131,102.74,131,100.54,131,98.34Z"/><path class="cls-36" d="M131.15,98.34h12.12q-.35,2.77-.68,5.54a1.59,1.59,0,0,1-1.52,1.12l-9.91-.1C131.16,102.71,131.16,100.53,131.15,98.34Z"/><path class="cls-37" d="M131.31,98.34h12q-.35,2.77-.68,5.54c-.09.67-.92,1.09-1.5,1.11l-9.78-.14Z"/><path class="cls-37" d="M131.46,98.34h11.81q-.35,2.77-.68,5.54c-.09.66-.91,1.08-1.49,1.1l-9.64-.18Z"/><path class="cls-38" d="M131.61,98.34h11.66q-.35,2.77-.68,5.54a1.55,1.55,0,0,1-1.47,1.1l-9.51-.22Z"/><path class="cls-39" d="M131.77,98.34h11.5q-.35,2.77-.68,5.54a1.55,1.55,0,0,1-1.46,1.09l-9.37-.26Q131.76,101.53,131.77,98.34Z"/><path class="cls-39" d="M131.92,98.34h11.35q-.35,2.77-.68,5.54c-.08.65-.88,1.06-1.44,1.09l-9.24-.3Q131.91,101.51,131.92,98.34Z"/><path class="cls-40" d="M132.07,98.34h11.2q-.35,2.77-.68,5.54c-.08.64-.87,1.05-1.43,1.08l-9.1-.34C132.06,102.53,132.07,100.44,132.07,98.34Z"/><path class="cls-41" d="M132.22,98.34h11.05q-.35,2.77-.68,5.54c-.08.64-.86,1.05-1.41,1.08l-9-.38C132.21,102.5,132.22,100.42,132.22,98.34Z"/><path class="cls-42" d="M132.38,98.34h10.89q-.35,2.77-.68,5.54a1.5,1.5,0,0,1-1.4,1.07l-8.84-.42Z"/><path class="cls-43" d="M132.53,98.34h10.74q-.35,2.77-.68,5.54c-.08.63-.84,1-1.38,1.07l-8.71-.46Z"/><path class="cls-43" d="M132.68,98.34h10.59q-.35,2.77-.68,5.54c-.08.62-.83,1-1.37,1.06l-8.57-.5Z"/><path class="cls-44" d="M132.84,98.34h10.43q-.35,2.77-.68,5.54a1.47,1.47,0,0,1-1.36,1.05l-8.43-.53C132.81,102.38,132.83,100.36,132.84,98.34Z"/><path class="cls-45" d="M133,98.34h10.28q-.35,2.77-.68,5.54a1.47,1.47,0,0,1-1.34,1.05l-8.3-.58Z"/><path class="cls-46" d="M133.14,98.34h10.13q-.35,2.77-.68,5.54a1.46,1.46,0,0,1-1.33,1l-8.16-.61C133.11,102.32,133.13,100.33,133.14,98.34Z"/><path class="cls-47" d="M133.3,98.34h10q-.35,2.77-.68,5.54a1.46,1.46,0,0,1-1.31,1l-8-.66Z"/><path class="cls-48" d="M133.45,98.34h9.82q-.35,2.77-.68,5.54a1.45,1.45,0,0,1-1.3,1l-7.89-.69C133.41,102.26,133.43,100.3,133.45,98.34Z"/><path class="cls-49" d="M133.6,98.34h9.67q-.35,2.77-.68,5.54a1.43,1.43,0,0,1-1.28,1l-7.76-.74Z"/><path class="cls-50" d="M133.76,98.34h9.51q-.35,2.77-.68,5.54a1.42,1.42,0,0,1-1.27,1l-7.63-.77C133.72,102.2,133.74,100.27,133.76,98.34Z"/><path class="cls-50" d="M133.91,98.34h9.36q-.35,2.77-.68,5.54a1.42,1.42,0,0,1-1.25,1l-7.5-.82C133.87,102.17,133.89,100.26,133.91,98.34Z"/><path class="cls-51" d="M134.06,98.34h9.21q-.35,2.77-.68,5.54a1.41,1.41,0,0,1-1.24,1L134,104C134,102.14,134,100.24,134.06,98.34Z"/><path class="cls-52" d="M134.22,98.34h9.05q-.35,2.77-.68,5.54c-.07.57-.73.94-1.23,1l-7.22-.9C134.17,102.11,134.19,100.23,134.22,98.34Z"/><path class="cls-53" d="M134.37,98.34h8.9q-.35,2.77-.68,5.54a1.38,1.38,0,0,1-1.21,1l-7.09-.93C134.32,102.08,134.34,100.21,134.37,98.34Z"/><path class="cls-54" d="M134.52,98.34h8.75q-.35,2.77-.68,5.54a1.36,1.36,0,0,1-1.2,1l-6.95-1C134.47,102.05,134.49,100.2,134.52,98.34Z"/><path class="cls-55" d="M134.67,98.34h8.6q-.35,2.77-.68,5.54a1.37,1.37,0,0,1-1.18,1l-6.82-1C134.62,102,134.65,100.18,134.67,98.34Z"/><path class="cls-56" d="M134.83,98.34h8.44q-.35,2.77-.68,5.54a1.35,1.35,0,0,1-1.17,1l-6.68-1Z"/><path class="cls-57" d="M135,98.34h8.29q-.35,2.77-.68,5.54a1.36,1.36,0,0,1-1.15,1l-6.55-1.09Z"/><path class="cls-58" d="M135.13,98.34h8.14q-.35,2.77-.68,5.54a1.34,1.34,0,0,1-1.14,1L135,103.72Z"/><path class="cls-59" d="M135.29,98.34h8q-.35,2.77-.68,5.54a1.35,1.35,0,0,1-1.12,1l-6.29-1.18C135.22,101.9,135.25,100.12,135.29,98.34Z"/><path class="cls-60" d="M135.44,98.34h7.83q-.35,2.77-.68,5.54a1.33,1.33,0,0,1-1.11,1l-6.15-1.21C135.37,101.87,135.4,100.11,135.44,98.34Z"/><path class="cls-61" d="M135.59,98.34h7.68q-.35,2.77-.68,5.54a1.32,1.32,0,0,1-1.1,1l-6-1.25C135.52,101.84,135.56,100.09,135.59,98.34Z"/><path class="cls-62" d="M135.75,98.34h7.52q-.35,2.77-.68,5.54a1.31,1.31,0,0,1-1.08,1l-5.88-1.29Z"/><path class="cls-63" d="M135.9,98.34h7.37q-.35,2.77-.68,5.54a1.3,1.3,0,0,1-1.07.94l-5.74-1.33Z"/><path class="cls-64" d="M136.05,98.34h7.22q-.35,2.77-.68,5.54a1.3,1.3,0,0,1-1.05.94l-5.61-1.37Z"/><path class="cls-65" d="M136.21,98.34h7.06q-.35,2.77-.68,5.54a1.29,1.29,0,0,1-1,.93l-5.47-1.41C136.12,101.72,136.16,100,136.21,98.34Z"/><path class="cls-66" d="M136.36,98.34h6.91q-.35,2.77-.68,5.54a1.28,1.28,0,0,1-1,.93l-5.34-1.45Z"/><path class="cls-67" d="M136.51,98.34h6.76q-.35,2.77-.68,5.54a1.27,1.27,0,0,1-1,.92l-5.2-1.49C136.42,101.66,136.47,100,136.51,98.34Z"/><path class="cls-68" d="M136.67,98.34h6.6q-.35,2.77-.68,5.54a1.28,1.28,0,0,1-1,.92l-5.08-1.53Z"/><path class="cls-69" d="M136.82,98.34h6.45q-.35,2.77-.68,5.54a1.25,1.25,0,0,1-1,.91l-4.94-1.57Z"/><path class="cls-70" d="M137,98.34h6.3q-.35,2.77-.68,5.54a1.26,1.26,0,0,1-1,.91l-4.81-1.61Z"/><path class="cls-71" d="M137.12,98.34h6.15q-.35,2.77-.68,5.54a1.23,1.23,0,0,1-1,.9L137,103.13Z"/><path class="cls-72" d="M137.28,98.34h6q-.35,2.77-.68,5.54a1.22,1.22,0,0,1-.94.89l-4.53-1.68C137.17,101.51,137.23,99.93,137.28,98.34Z"/><path class="cls-73" d="M137.43,98.34h5.84q-.35,2.77-.68,5.54a1.23,1.23,0,0,1-.92.89l-4.4-1.73C137.32,101.48,137.38,99.91,137.43,98.34Z"/><path class="cls-74" d="M137.58,98.34h5.69q-.35,2.77-.68,5.54a1.22,1.22,0,0,1-.91.88L137.42,103C137.47,101.45,137.53,99.9,137.58,98.34Z"/><path class="cls-75" d="M137.74,98.34h5.53q-.35,2.77-.68,5.54a1.21,1.21,0,0,1-.89.88L137.57,103C137.62,101.42,137.68,99.88,137.74,98.34Z"/><path class="cls-76" d="M137.89,98.34h5.38q-.35,2.77-.68,5.54a1.2,1.2,0,0,1-.88.87l-4-1.84C137.77,101.39,137.83,99.87,137.89,98.34Z"/><path class="cls-77" d="M138,98.34h5.23q-.35,2.77-.68,5.54a1.2,1.2,0,0,1-.86.87l-3.86-1.89C137.92,101.36,138,99.85,138,98.34Z"/><path class="cls-78" d="M138.2,98.34h5.07q-.35,2.77-.68,5.54a1.19,1.19,0,0,1-.85.86L138,102.82C138.08,101.33,138.14,99.83,138.2,98.34Z"/><path class="cls-79" d="M138.35,98.34h4.92q-.35,2.77-.68,5.54a1.19,1.19,0,0,1-.83.86l-3.6-2C138.23,101.3,138.29,99.82,138.35,98.34Z"/><path class="cls-80" d="M138.5,98.34h4.77q-.35,2.77-.68,5.54a1.19,1.19,0,0,1-.82.85c-1.15-.67-2.3-1.34-3.46-2C138.38,101.27,138.44,99.8,138.5,98.34Z"/><path class="cls-81" d="M138.66,98.34h4.61q-.35,2.77-.68,5.54a1.17,1.17,0,0,1-.81.84l-3.32-2C138.53,101.23,138.59,99.79,138.66,98.34Z"/><path class="cls-82" d="M138.81,98.34h4.46q-.35,2.77-.68,5.54a1.19,1.19,0,0,1-.79.84l-3.19-2.09C138.68,101.2,138.74,99.77,138.81,98.34Z"/><path class="cls-83" d="M139,98.34h4.31q-.35,2.77-.68,5.54a1.17,1.17,0,0,1-.78.83l-3.05-2.12C138.83,101.17,138.89,99.76,139,98.34Z"/><path class="cls-84" d="M139.11,98.34h4.16q-.35,2.77-.68,5.54a1.16,1.16,0,0,1-.76.83l-2.92-2.17C139,101.14,139.05,99.74,139.11,98.34Z"/><path class="cls-85" d="M139.27,98.34h4q-.35,2.77-.68,5.54a1.13,1.13,0,0,1-.75.82l-2.78-2.2Z"/><path class="cls-85" d="M139.42,98.34h3.85q-.35,2.77-.68,5.54a1.16,1.16,0,0,1-.73.82l-2.65-2.25Z"/><path class="cls-86" d="M139.57,98.34h3.7q-.35,2.77-.68,5.54a1.13,1.13,0,0,1-.72.81l-2.51-2.28Z"/><path class="cls-87" d="M139.73,98.34h3.54q-.35,2.77-.68,5.54a1.15,1.15,0,0,1-.7.81l-2.39-2.33Z"/><path class="cls-88" d="M139.88,98.34h3.39q-.35,2.77-.68,5.54a1.12,1.12,0,0,1-.69.8l-2.25-2.36C139.73,101,139.8,99.67,139.88,98.34Z"/><path class="cls-89" d="M140,98.34h3.24q-.35,2.77-.68,5.54a1.12,1.12,0,0,1-.67.79l-2.12-2.4C139.88,101,140,99.65,140,98.34Z"/><path class="cls-90" d="M140.19,98.34h3.08q-.35,2.77-.68,5.54a1.14,1.14,0,0,1-.66.79l-2-2.44Z"/><path class="cls-91" d="M140.34,98.34h2.93q-.35,2.77-.68,5.54a1.11,1.11,0,0,1-.65.78l-1.84-2.48Z"/><path class="cls-92" d="M140.49,98.34h2.78q-.35,2.77-.68,5.54a1.13,1.13,0,0,1-.63.78l-1.71-2.52Z"/><path class="cls-92" d="M140.65,98.34h2.62q-.35,2.77-.68,5.54a1.1,1.1,0,0,1-.62.77c-.52-.85-1.05-1.7-1.57-2.56C140.48,100.84,140.56,99.59,140.65,98.34Z"/><path class="cls-93" d="M140.8,98.34h2.47q-.35,2.77-.68,5.54a1.14,1.14,0,0,1-.6.77l-1.44-2.6C140.63,100.81,140.72,99.58,140.8,98.34Z"/><path class="cls-94" d="M141,98.34h2.32q-.35,2.77-.68,5.54a1.11,1.11,0,0,1-.59.76L140.7,102Z"/><path class="cls-95" d="M141.11,98.34h2.16q-.35,2.77-.68,5.54a1.13,1.13,0,0,1-.57.76c-.39-.9-.78-1.79-1.18-2.68Z"/><path class="cls-96" d="M141.26,98.34h2q-.35,2.77-.68,5.54a1.1,1.1,0,0,1-.56.75c-.34-.91-.69-1.81-1-2.72Z"/><path class="cls-96" d="M141.41,98.34h1.86q-.35,2.77-.68,5.54a1.08,1.08,0,0,1-.54.74c-.31-.92-.61-1.83-.91-2.75Z"/><path class="cls-97" d="M141.56,98.34h1.71q-.35,2.77-.68,5.54a1.09,1.09,0,0,1-.53.74c-.26-.93-.51-1.87-.77-2.8Z"/><path class="cls-98" d="M141.72,98.34h1.55q-.35,2.77-.68,5.54a1.08,1.08,0,0,1-.52.73l-.63-2.83Z"/><path class="cls-98" d="M141.87,98.34h1.4q-.35,2.77-.68,5.54a1.08,1.08,0,0,1-.5.73c-.17-1-.33-1.92-.5-2.88C141.68,100.6,141.78,99.47,141.87,98.34Z"/><path class="cls-99" d="M142,98.34h1.25q-.35,2.77-.68,5.54a1.07,1.07,0,0,1-.49.72l-.36-2.91C141.83,100.57,141.93,99.46,142,98.34Z"/><path class="cls-100" d="M142.18,98.34h1.09q-.35,2.77-.68,5.54a1.14,1.14,0,0,1-.47.72c-.08-1-.16-2-.23-3C142,100.54,142.08,99.44,142.18,98.34Z"/><path class="cls-101" d="M142.33,98.34h.94q-.35,2.77-.68,5.54a1.13,1.13,0,0,1-.46.71l-.09-3C142.13,100.51,142.23,99.43,142.33,98.34Z"/><path class="cls-102" d="M142.48,98.34h.79q-.35,2.77-.68,5.54a1.14,1.14,0,0,1-.44.71c0-1,0-2,0-3S142.38,99.41,142.48,98.34Z"/><path class="cls-102" d="M142.64,98.34h.63q-.35,2.77-.68,5.54a1.13,1.13,0,0,1-.43.7c.06-1,.12-2,.17-3.08S142.54,99.4,142.64,98.34Z"/><path class="cls-103" d="M142.79,98.34h.48l-.68,5.54a1.13,1.13,0,0,1-.41.69Z"/></g></g></g></svg>