<svg xmlns="http://www.w3.org/2000/svg" viewBox="0 0 125.89 79.77"><defs><style>.cls-1{fill:#c1e1f6;}.cls-2{opacity:0.5;}.cls-3{fill:#0c5e91;}.cls-4,.cls-8{fill:#fff;}.cls-4{stroke:#3f98d3;stroke-miterlimit:10;stroke-width:0.75px;}.cls-5{fill:#1b75ba;}.cls-6{fill:#3f98d3;}.cls-7{fill:#f05a5a;}.cls-9{fill:#e2f3f7;}</style></defs><title>Asset 15</title><g id="Layer_2" data-name="Layer 2"><g id="Layer_1-2" data-name="Layer 1"><path class="cls-1" d="M111.22,70.39a15,15,0,0,1-13.9,9.38H32C9.81,79.77-5.63,59.83,2,41L14.67,9.39A15,15,0,0,1,28.57,0H93.9c22.18,0,37.62,19.94,30,38.79Z"/><g class="cls-2"><path class="cls-3" d="M113.2,61.53a1,1,0,0,0-1.09-.84A1.09,1.09,0,0,1,111,59.6a.86.86,0,1,0-1.67,0,1.09,1.09,0,0,1-1.09,1.09.86.86,0,1,0,0,1.67,1.09,1.09,0,0,1,1.09,1.09.86.86,0,1,0,1.67,0,1.09,1.09,0,0,1,1.09-1.09A1,1,0,0,0,113.2,61.53Z"/></g><path class="cls-3" d="M88.3,11.54l.87,1.67a.2.2,0,1,0,.35-.19l-.87-1.67-.17.11Z"/><path class="cls-3" d="M86.78,7.77,85.91,6.1A.21.21,0,0,0,85.64,6a.2.2,0,0,0-.09.27L86.43,8a1,1,0,0,1,.17-.1Z"/><path class="cls-3" d="M85.65,10.41,84,11.29a.2.2,0,0,0-.09.27.21.21,0,0,0,.27.08l1.67-.87-.1-.17Z"/><path class="cls-3" d="M90.91,7.67l-1.67.87.1.18a1.42,1.42,0,0,1,.08.18L91.09,8a.2.2,0,0,0-.18-.36Z"/><path class="cls-3" d="M86.74,11.52l-.56,1.8a.2.2,0,0,0,.13.25.19.19,0,0,0,.15,0,.23.23,0,0,0,.1-.12l.56-1.8A1.39,1.39,0,0,1,86.74,11.52Z"/><path class="cls-3" d="M88.33,7.79,88.9,6a.21.21,0,0,0-.13-.25.2.2,0,0,0-.25.13L88,7.67A2.4,2.4,0,0,1,88.33,7.79Z"/><path class="cls-3" d="M89.41,10.45,91.2,11a.19.19,0,0,0,.15,0,.15.15,0,0,0,.1-.12.19.19,0,0,0-.13-.25l-1.79-.56A2.4,2.4,0,0,1,89.41,10.45Z"/><path class="cls-3" d="M85.67,8.86l-1.8-.56a.19.19,0,0,0-.25.13.21.21,0,0,0,.13.25l1.8.56A2.4,2.4,0,0,1,85.67,8.86Z"/><rect class="cls-4" x="41.31" y="18.2" width="39.35" height="48.24"/><rect class="cls-5" x="39.48" y="14.82" width="43.01" height="3.38"/><rect class="cls-6" x="40.45" y="18.2" width="41.07" height="1.35"/><rect class="cls-5" x="41.31" y="46.62" width="39.35" height="3.58"/><rect class="cls-6" x="41.31" y="45.75" width="39.35" height="0.86"/><rect class="cls-5" x="45.66" y="54.21" width="30.66" height="2.2"/><rect class="cls-6" x="41.22" y="50.19" width="39.35" height="0.86"/><rect class="cls-4" x="50.09" y="8.86" width="21.79" height="45.35"/><path class="cls-5" d="M65.4,8.63A4.41,4.41,0,1,1,61,4.22,4.42,4.42,0,0,1,65.4,8.63Z"/><circle class="cls-7" cx="60.99" cy="8.63" r="3.64"/><polygon class="cls-8" points="63.15 7.88 61.73 7.88 61.73 6.47 60.24 6.47 60.24 7.88 58.83 7.88 58.83 9.37 60.24 9.37 60.24 10.79 61.73 10.79 61.73 9.37 63.15 9.37 63.15 7.88"/><path class="cls-5" d="M52.27,18.2V14.81H53V16.2h.59V14.81h.69V18.2h-.69V16.69H53V18.2Z"/><path class="cls-5" d="M55.91,18.24a1.29,1.29,0,0,1-.47-.07.72.72,0,0,1-.31-.23A1,1,0,0,1,55,17.6a2.28,2.28,0,0,1-.05-.48V15.87A2.19,2.19,0,0,1,55,15.4a1,1,0,0,1,.17-.34.7.7,0,0,1,.31-.22,1.29,1.29,0,0,1,.47-.07,1,1,0,0,1,.77.28,1.27,1.27,0,0,1,.23.82v1.25a1.33,1.33,0,0,1-.23.84A1,1,0,0,1,55.91,18.24Zm-.14-.52a.32.32,0,0,0,.14,0,.27.27,0,0,0,.13,0,.22.22,0,0,0,.09-.07.23.23,0,0,0,0-.1.5.5,0,0,0,0-.12s0-.08,0-.14V15.71c0-.06,0-.1,0-.14a.5.5,0,0,0,0-.12.23.23,0,0,0,0-.1.15.15,0,0,0-.09-.06.28.28,0,0,0-.13,0,.32.32,0,0,0-.14,0,.16.16,0,0,0-.08.06.23.23,0,0,0,0,.1.5.5,0,0,0,0,.12s0,.08,0,.14v1.58c0,.06,0,.1,0,.14a.5.5,0,0,0,0,.12.23.23,0,0,0,0,.1A.27.27,0,0,0,55.77,17.72Z"/><path class="cls-5" d="M58.44,18.24a.91.91,0,0,1-.7-.26,1.25,1.25,0,0,1-.25-.8l.59-.1a1.17,1.17,0,0,0,.09.48.26.26,0,0,0,.24.16.22.22,0,0,0,.18-.08.39.39,0,0,0,0-.2.68.68,0,0,0-.08-.34,1.48,1.48,0,0,0-.28-.3l-.36-.32a1.65,1.65,0,0,1-.23-.22,1.13,1.13,0,0,1-.14-.27,1,1,0,0,1-.06-.36.82.82,0,0,1,.24-.63,1,1,0,0,1,.67-.23,1,1,0,0,1,.26,0,.77.77,0,0,1,.2.07A.64.64,0,0,1,59,15a.72.72,0,0,1,.11.15.75.75,0,0,1,.07.18,1.49,1.49,0,0,1,0,.18c0,.06,0,.13,0,.2l-.59.09a1.16,1.16,0,0,1,0-.17l0-.15a.28.28,0,0,0,0-.11.27.27,0,0,0-.08-.07.16.16,0,0,0-.12,0,.21.21,0,0,0-.17.08.34.34,0,0,0-.06.2.47.47,0,0,0,0,.17.27.27,0,0,0,.07.14.53.53,0,0,0,.09.11l.11.11.36.31.2.2a1.4,1.4,0,0,1,.16.22,1.19,1.19,0,0,1,.11.26,1.12,1.12,0,0,1,0,.32.8.8,0,0,1-.24.6A.85.85,0,0,1,58.44,18.24Z"/><path class="cls-5" d="M59.88,18.2V14.81h1c.59,0,.88.33.88,1a1.18,1.18,0,0,1-.07.45.61.61,0,0,1-.19.29.87.87,0,0,1-.3.16,1.48,1.48,0,0,1-.38,0h-.3V18.2Zm.69-2h.22a.35.35,0,0,0,.3-.1.65.65,0,0,0,.08-.37c0-.08,0-.15,0-.2a.66.66,0,0,0,0-.15.23.23,0,0,0-.12-.1.56.56,0,0,0-.2,0h-.22Z"/><path class="cls-5" d="M62.37,18.2V14.81h.69V18.2Z"/><path class="cls-5" d="M64.09,18.2V15.32h-.54v-.51h1.76v.51h-.53V18.2Z"/><path class="cls-5" d="M65.61,18.2l.66-3.39H67l.65,3.39h-.63l-.13-.75h-.53l-.13.75ZM66.45,17h.4l-.2-1.35Z"/><path class="cls-5" d="M68.23,18.2V14.81h.68v2.92h.79v.47Z"/><rect class="cls-5" x="52.27" y="20.67" width="17.43" height="33.54"/><rect class="cls-5" x="19.1" y="68.01" width="83.68" height="3.14"/><rect class="cls-6" x="19.1" y="66.44" width="83.68" height="1.57"/><rect class="cls-6" x="48.16" y="56.41" width="1.75" height="10.03"/><rect class="cls-6" x="72.06" y="56.41" width="1.75" height="10.03"/><rect class="cls-4" x="53.25" y="66.44" width="15.46" height="1.57"/><rect class="cls-5" x="53.25" y="66.44" width="15.46" height="0.66"/><rect class="cls-4" x="47.73" y="68.01" width="26.51" height="1.57"/><rect class="cls-4" x="41.34" y="69.59" width="39.3" height="1.57"/><rect class="cls-5" x="47.73" y="68.01" width="26.51" height="0.66"/><rect class="cls-5" x="41.34" y="69.59" width="39.3" height="0.66"/><rect class="cls-5" x="80.66" y="21.69" width="24.76" height="3.38"/><rect class="cls-4" x="80.66" y="25.06" width="22.11" height="41.38"/><rect class="cls-5" x="83.03" y="28.11" width="4.29" height="7.47"/><rect class="cls-8" x="83.62" y="28.81" width="3.12" height="6.05"/><rect class="cls-5" x="83.3" y="31.53" width="3.74" height="0.62"/><rect class="cls-5" x="89.57" y="28.11" width="4.29" height="7.47"/><rect class="cls-8" x="90.16" y="28.81" width="3.12" height="6.05"/><rect class="cls-5" x="89.85" y="31.53" width="3.74" height="0.62"/><rect class="cls-5" x="96.12" y="28.11" width="4.29" height="7.47"/><rect class="cls-8" x="96.71" y="28.81" width="3.12" height="6.05"/><rect class="cls-5" x="96.39" y="31.53" width="3.74" height="0.62"/><rect class="cls-5" x="83.03" y="39.15" width="4.29" height="7.47"/><rect class="cls-8" x="83.62" y="39.86" width="3.12" height="6.05"/><rect class="cls-5" x="83.3" y="42.58" width="3.74" height="0.62"/><rect class="cls-5" x="89.57" y="39.15" width="4.29" height="7.47"/><rect class="cls-8" x="90.16" y="39.86" width="3.12" height="6.05"/><rect class="cls-5" x="89.85" y="42.58" width="3.74" height="0.62"/><rect class="cls-5" x="96.12" y="39.15" width="4.29" height="7.47"/><rect class="cls-8" x="96.71" y="39.86" width="3.12" height="6.05"/><rect class="cls-5" x="96.39" y="42.58" width="3.74" height="0.62"/><rect class="cls-5" x="83.03" y="50.19" width="4.29" height="7.47"/><rect class="cls-8" x="83.62" y="50.9" width="3.12" height="6.05"/><rect class="cls-5" x="83.3" y="53.62" width="3.74" height="0.62"/><rect class="cls-5" x="89.57" y="50.19" width="4.29" height="7.47"/><rect class="cls-8" x="90.16" y="50.9" width="3.12" height="6.05"/><rect class="cls-5" x="89.85" y="53.62" width="3.74" height="0.62"/><rect class="cls-5" x="96.12" y="50.19" width="4.29" height="7.47"/><rect class="cls-8" x="96.71" y="50.9" width="3.12" height="6.05"/><rect class="cls-5" x="96.39" y="53.62" width="3.74" height="0.62"/><rect class="cls-6" x="80.66" y="25.06" width="23.59" height="1.35"/><rect class="cls-5" x="80.66" y="61.43" width="22.13" height="5.02"/><polygon class="cls-9" points="83.61 28.8 86.73 28.8 83.61 31.52 83.61 28.8"/><polygon class="cls-9" points="90.16 28.8 93.28 28.8 90.16 31.52 90.16 28.8"/><polygon class="cls-9" points="96.71 28.8 99.82 28.8 96.71 31.52 96.71 28.8"/><polygon class="cls-9" points="83.61 32.14 86.73 32.14 83.61 34.86 83.61 32.14"/><polygon class="cls-9" points="90.16 32.14 93.28 32.14 90.16 34.86 90.16 32.14"/><polygon class="cls-9" points="96.71 32.14 99.82 32.14 96.71 34.86 96.71 32.14"/><polygon class="cls-9" points="83.61 39.86 86.73 39.86 83.61 42.58 83.61 39.86"/><polygon class="cls-9" points="90.16 39.86 93.28 39.86 90.16 42.58 90.16 39.86"/><polygon class="cls-9" points="96.71 39.86 99.82 39.86 96.71 42.58 96.71 39.86"/><polygon class="cls-9" points="83.61 43.19 86.73 43.19 83.61 45.91 83.61 43.19"/><polygon class="cls-9" points="90.16 43.19 93.28 43.19 90.16 45.91 90.16 43.19"/><polygon class="cls-9" points="96.71 43.19 99.82 43.19 96.71 45.91 96.71 43.19"/><polygon class="cls-9" points="83.61 50.9 86.73 50.9 83.61 53.62 83.61 50.9"/><polygon class="cls-9" points="90.16 50.9 93.28 50.9 90.16 53.62 90.16 50.9"/><polygon class="cls-9" points="96.71 50.9 99.82 50.9 96.71 53.62 96.71 50.9"/><polygon class="cls-9" points="83.61 54.24 86.73 54.24 83.61 56.95 83.61 54.24"/><polygon class="cls-9" points="90.16 54.24 93.28 54.24 90.16 56.95 90.16 54.24"/><polygon class="cls-9" points="96.71 54.24 99.82 54.24 96.71 56.95 96.71 54.24"/><rect class="cls-5" x="16.55" y="21.68" width="24.76" height="3.38"/><rect class="cls-4" x="19.2" y="25.06" width="22.11" height="41.38"/><rect class="cls-5" x="21.56" y="28.1" width="4.29" height="7.47"/><rect class="cls-8" x="22.15" y="28.81" width="3.12" height="6.05"/><rect class="cls-5" x="21.84" y="31.52" width="3.74" height="0.62"/><rect class="cls-5" x="28.11" y="28.1" width="4.29" height="7.47"/><rect class="cls-8" x="28.7" y="28.81" width="3.12" height="6.05"/><rect class="cls-5" x="28.38" y="31.52" width="3.74" height="0.62"/><rect class="cls-5" x="34.65" y="28.1" width="4.29" height="7.47"/><rect class="cls-8" x="35.24" y="28.81" width="3.12" height="6.05"/><rect class="cls-5" x="34.93" y="31.52" width="3.74" height="0.62"/><rect class="cls-5" x="21.56" y="39.14" width="4.29" height="7.47"/><rect class="cls-8" x="22.15" y="39.85" width="3.12" height="6.05"/><rect class="cls-5" x="21.84" y="42.57" width="3.74" height="0.62"/><rect class="cls-5" x="28.11" y="39.14" width="4.29" height="7.47"/><rect class="cls-8" x="28.7" y="39.85" width="3.12" height="6.05"/><rect class="cls-5" x="28.38" y="42.57" width="3.74" height="0.62"/><rect class="cls-5" x="34.65" y="39.14" width="4.29" height="7.47"/><rect class="cls-8" x="35.24" y="39.85" width="3.12" height="6.05"/><rect class="cls-5" x="34.93" y="42.57" width="3.74" height="0.62"/><rect class="cls-5" x="21.56" y="50.19" width="4.29" height="7.47"/><rect class="cls-8" x="22.15" y="50.89" width="3.12" height="6.05"/><rect class="cls-5" x="21.84" y="53.61" width="3.74" height="0.62"/><rect class="cls-5" x="28.11" y="50.19" width="4.29" height="7.47"/><rect class="cls-8" x="28.7" y="50.89" width="3.12" height="6.05"/><rect class="cls-5" x="28.38" y="53.61" width="3.74" height="0.62"/><rect class="cls-5" x="34.65" y="50.19" width="4.29" height="7.47"/><rect class="cls-8" x="35.24" y="50.89" width="3.12" height="6.05"/><rect class="cls-5" x="34.93" y="53.61" width="3.74" height="0.62"/><rect class="cls-5" x="19.2" y="61.42" width="22.11" height="5.02"/><rect class="cls-6" x="17.72" y="25.06" width="23.59" height="1.35"/><polygon class="cls-9" points="22.15 28.8 25.27 28.8 22.15 31.52 22.15 28.8"/><polygon class="cls-9" points="28.7 28.8 31.81 28.8 28.7 31.52 28.7 28.8"/><polygon class="cls-9" points="35.24 28.8 38.36 28.8 35.24 31.52 35.24 28.8"/><polygon class="cls-9" points="22.15 32.14 25.27 32.14 22.15 34.86 22.15 32.14"/><polygon class="cls-9" points="28.7 32.14 31.81 32.14 28.7 34.86 28.7 32.14"/><polygon class="cls-9" points="35.24 32.14 38.36 32.14 35.24 34.86 35.24 32.14"/><polygon class="cls-9" points="22.15 39.85 25.27 39.85 22.15 42.57 22.15 39.85"/><polygon class="cls-9" points="28.7 39.85 31.81 39.85 28.7 42.57 28.7 39.85"/><polygon class="cls-9" points="35.24 39.85 38.36 39.85 35.24 42.57 35.24 39.85"/><polygon class="cls-9" points="22.15 43.18 25.27 43.18 22.15 45.9 22.15 43.18"/><polygon class="cls-9" points="28.7 43.18 31.81 43.18 28.7 45.9 28.7 43.18"/><polygon class="cls-9" points="35.24 43.18 38.36 43.18 35.24 45.9 35.24 43.18"/><polygon class="cls-9" points="22.15 50.89 25.27 50.89 22.15 53.61 22.15 50.89"/><polygon class="cls-9" points="28.7 50.89 31.81 50.89 28.7 53.61 28.7 50.89"/><polygon class="cls-9" points="35.24 50.89 38.36 50.89 35.24 53.61 35.24 50.89"/><polygon class="cls-9" points="22.15 54.23 25.27 54.23 22.15 56.95 22.15 54.23"/><polygon class="cls-9" points="28.7 54.23 31.81 54.23 28.7 56.95 28.7 54.23"/><polygon class="cls-9" points="35.24 54.23 38.36 54.23 35.24 56.95 35.24 54.23"/><rect class="cls-5" x="55.92" y="56.34" width="10.13" height="10.1"/><rect class="cls-8" x="56.73" y="57.13" width="8.51" height="9.32"/><rect class="cls-5" x="60.66" y="56.89" width="0.65" height="9.56"/><polygon class="cls-9" points="60.65 57.13 56.73 66.44 56.73 57.13 60.65 57.13"/><polygon class="cls-9" points="65.23 57.13 61.31 66.44 61.31 57.13 65.23 57.13"/><rect class="cls-8" x="53.54" y="22.27" width="2.78" height="2.78"/><polygon class="cls-9" points="53.54 25.05 53.54 22.27 56.32 22.27 53.54 25.05"/><rect class="cls-8" x="57.58" y="22.27" width="2.78" height="2.78"/><polygon class="cls-9" points="57.58 25.05 57.58 22.27 60.35 22.27 57.58 25.05"/><rect class="cls-8" x="61.62" y="22.27" width="2.78" height="2.78"/><polygon class="cls-9" points="61.62 25.05 61.62 22.27 64.39 22.27 61.62 25.05"/><rect class="cls-8" x="65.66" y="22.27" width="2.78" height="2.78"/><polygon class="cls-9" points="65.66 25.05 65.66 22.27 68.43 22.27 65.66 25.05"/><rect class="cls-8" x="53.54" y="26.21" width="2.78" height="2.78"/><polygon class="cls-9" points="53.54 28.99 53.54 26.21 56.32 26.21 53.54 28.99"/><rect class="cls-8" x="57.58" y="26.21" width="2.78" height="2.78"/><polygon class="cls-9" points="57.58 28.99 57.58 26.21 60.35 26.21 57.58 28.99"/><rect class="cls-8" x="61.62" y="26.21" width="2.78" height="2.78"/><polygon class="cls-9" points="61.62 28.99 61.62 26.21 64.39 26.21 61.62 28.99"/><rect class="cls-8" x="65.66" y="26.21" width="2.78" height="2.78"/><polygon class="cls-9" points="65.66 28.99 65.66 26.21 68.43 26.21 65.66 28.99"/><rect class="cls-8" x="53.54" y="30.15" width="2.78" height="2.78"/><polygon class="cls-9" points="53.54 32.92 53.54 30.15 56.32 30.15 53.54 32.92"/><rect class="cls-8" x="57.58" y="30.15" width="2.78" height="2.78"/><polygon class="cls-9" points="57.58 32.92 57.58 30.15 60.35 30.15 57.58 32.92"/><rect class="cls-8" x="61.62" y="30.15" width="2.78" height="2.78"/><polygon class="cls-9" points="61.62 32.92 61.62 30.15 64.39 30.15 61.62 32.92"/><rect class="cls-8" x="65.66" y="30.15" width="2.78" height="2.78"/><polygon class="cls-9" points="65.66 32.92 65.66 30.15 68.43 30.15 65.66 32.92"/><rect class="cls-8" x="53.54" y="34.09" width="2.78" height="2.78"/><polygon class="cls-9" points="53.54 36.86 53.54 34.09 56.32 34.09 53.54 36.86"/><rect class="cls-8" x="57.58" y="34.09" width="2.78" height="2.78"/><polygon class="cls-9" points="57.58 36.86 57.58 34.09 60.35 34.09 57.58 36.86"/><rect class="cls-8" x="61.62" y="34.09" width="2.78" height="2.78"/><polygon class="cls-9" points="61.62 36.86 61.62 34.09 64.39 34.09 61.62 36.86"/><rect class="cls-8" x="65.66" y="34.09" width="2.78" height="2.78"/><polygon class="cls-9" points="65.66 36.86 65.66 34.09 68.43 34.09 65.66 36.86"/><rect class="cls-8" x="53.54" y="38.02" width="2.78" height="2.78"/><polygon class="cls-9" points="53.54 40.8 53.54 38.02 56.32 38.02 53.54 40.8"/><rect class="cls-8" x="57.58" y="38.02" width="2.78" height="2.78"/><polygon class="cls-9" points="57.58 40.8 57.58 38.02 60.35 38.02 57.58 40.8"/><rect class="cls-8" x="61.62" y="38.02" width="2.78" height="2.78"/><polygon class="cls-9" points="61.62 40.8 61.62 38.02 64.39 38.02 61.62 40.8"/><rect class="cls-8" x="65.66" y="38.02" width="2.78" height="2.78"/><polygon class="cls-9" points="65.66 40.8 65.66 38.02 68.43 38.02 65.66 40.8"/><rect class="cls-8" x="53.54" y="41.96" width="2.78" height="2.78"/><polygon class="cls-9" points="53.54 44.73 53.54 41.96 56.32 41.96 53.54 44.73"/><rect class="cls-8" x="57.58" y="41.96" width="2.78" height="2.78"/><polygon class="cls-9" points="57.58 44.73 57.58 41.96 60.35 41.96 57.58 44.73"/><rect class="cls-8" x="61.62" y="41.96" width="2.78" height="2.78"/><polygon class="cls-9" points="61.62 44.73 61.62 41.96 64.39 41.96 61.62 44.73"/><rect class="cls-8" x="65.66" y="41.96" width="2.78" height="2.78"/><polygon class="cls-9" points="65.66 44.73 65.66 41.96 68.43 41.96 65.66 44.73"/><rect class="cls-8" x="53.54" y="45.9" width="2.78" height="2.78"/><polygon class="cls-9" points="53.54 48.67 53.54 45.9 56.32 45.9 53.54 48.67"/><rect class="cls-8" x="57.58" y="45.9" width="2.78" height="2.78"/><polygon class="cls-9" points="57.58 48.67 57.58 45.9 60.35 45.9 57.58 48.67"/><rect class="cls-8" x="61.62" y="45.9" width="2.78" height="2.78"/><polygon class="cls-9" points="61.62 48.67 61.62 45.9 64.39 45.9 61.62 48.67"/><rect class="cls-8" x="65.66" y="45.9" width="2.78" height="2.78"/><polygon class="cls-9" points="65.66 48.67 65.66 45.9 68.43 45.9 65.66 48.67"/><rect class="cls-8" x="53.54" y="49.83" width="2.78" height="2.78"/><polygon class="cls-9" points="53.54 52.61 53.54 49.83 56.32 49.83 53.54 52.61"/><rect class="cls-8" x="57.58" y="49.83" width="2.78" height="2.78"/><polygon class="cls-9" points="57.58 52.61 57.58 49.83 60.35 49.83 57.58 52.61"/><rect class="cls-8" x="61.62" y="49.83" width="2.78" height="2.78"/><polygon class="cls-9" points="61.62 52.61 61.62 49.83 64.39 49.83 61.62 52.61"/><rect class="cls-8" x="65.66" y="49.83" width="2.78" height="2.78"/><polygon class="cls-9" points="65.66 52.61 65.66 49.83 68.43 49.83 65.66 52.61"/><rect class="cls-6" x="19.1" y="61.43" width="22.36" height="1.48"/><rect class="cls-6" x="80.66" y="61.43" width="22.36" height="1.48"/></g></g></svg>