<svg xmlns="http://www.w3.org/2000/svg" xmlns:xlink="http://www.w3.org/1999/xlink" viewBox="0 0 95.15 73.67"><defs><style>.a{fill:url(#a);}.b{opacity:0.5;}.c{fill:#0c5e91;}.d,.h{fill:#fff;}.d{stroke:#3f98d3;stroke-miterlimit:10;stroke-width:0.75px;}.e,.j,.k,.l,.m{fill:#1b75ba;}.f{fill:#3f98d3;}.g{fill:#f05a5a;}.i{fill:#e2f3f7;}.j,.k,.l,.m{isolation:isolate;font-size:4.32px;font-family:Quicksand-Bold, Quicksand;font-weight:700;}.j{letter-spacing:-0.1em;}.k{letter-spacing:-0.08em;}.l{letter-spacing:-0.17em;}.m{letter-spacing:-0.07em;}</style><linearGradient id="a" x1="104.11" y1="1071.07" x2="15.3" y2="1015.37" gradientTransform="translate(-18.72 -1005.78)" gradientUnits="userSpaceOnUse"><stop offset="0" stop-color="#00ea6f"/><stop offset="1" stop-color="#fff"/></linearGradient></defs><path class="a" d="M4.69,16A13.36,13.36,0,0,1,17,7.68H75.08c18.9,0,24.87,13,19.33,28.79A18.17,18.17,0,0,1,92.71,40l-2.14,3.41c-.27.43-.52.85-.76,1.32C86.4,51.34,84,57.24,83.55,64.14c-.37,5-3.94,8.8-8.14,10.7a16.26,16.26,0,0,1-5.91,1.34L20.08,78.61c-19.7,0-22.15-45.8-15.39-62.54Z" transform="translate(-1.24 -4.94)"/><g class="b"><path class="c" d="M94.09,60a1,1,0,0,0-1-.82,1,1,0,0,1-1-1h0a.83.83,0,0,0-.55-1l0,0h0a.83.83,0,0,0-1,.53s0,0,0,.07h0a.9.9,0,0,0,0,.4,1,1,0,0,1-1,1.05h0a.85.85,0,0,0-.38,1.64h0a1.21,1.21,0,0,0,.38,0,1,1,0,0,1,1,1.05h0a.84.84,0,0,0,.55,1h0a.82.82,0,0,0,1-.61h0a.9.9,0,0,0,0-.4,1,1,0,0,1,1-1h0A1,1,0,0,0,94.09,60Z" transform="translate(-1.24 -4.94)"/></g><path class="c" d="M70.17,11,71,12.62a.17.17,0,0,0,.23.1h0a.2.2,0,0,0,.1-.25h0l-.82-1.6-.16.1Z" transform="translate(-1.24 -4.94)"/><path class="c" d="M68.7,7.33l-.81-1.6a.2.2,0,0,0-.25-.09.19.19,0,0,0-.1.25h0l.82,1.64.17-.09Z" transform="translate(-1.24 -4.94)"/><path class="c" d="M67.64,9.89l-1.59.82A.19.19,0,0,0,66,11h0a.23.23,0,0,0,.27.07l1.59-.81-.09-.17Z" transform="translate(-1.24 -4.94)"/><path class="c" d="M72.68,7.23l-1.61.82.1.17a.18.18,0,0,0,.07.17l1.64-.81A.21.21,0,0,0,73,7.29a.19.19,0,0,0-.26-.07Z" transform="translate(-1.24 -4.94)"/><path class="c" d="M68.66,11l-.53,1.74a.19.19,0,0,0,.11.23h.15a.19.19,0,0,0,.07-.12L69,11.07A1.06,1.06,0,0,1,68.66,11Z" transform="translate(-1.24 -4.94)"/><path class="c" d="M70.17,7.38l.56-1.73a.21.21,0,0,0-.17-.23.2.2,0,0,0-.21.11l-.49,1.7A.89.89,0,0,1,70.17,7.38Z" transform="translate(-1.24 -4.94)"/><path class="c" d="M71.22,9.92l1.71.54a.17.17,0,0,0,.14,0,.15.15,0,0,0,.1-.12.17.17,0,0,0-.08-.22h0l-1.72-.54A2.09,2.09,0,0,1,71.22,9.92Z" transform="translate(-1.24 -4.94)"/><path class="c" d="M67.64,8.37l-1.73-.54a.17.17,0,0,0-.23.1h0a.2.2,0,0,0,.12.24l1.73.54A1.93,1.93,0,0,1,67.64,8.37Z" transform="translate(-1.24 -4.94)"/><rect class="d" x="23.78" y="13.43" width="37.79" height="46.33"/><path class="e" d="M24.9,15.13H63a1.62,1.62,0,0,1,1.64,1.58h0A1.64,1.64,0,0,1,63,18.33H24.9a1.63,1.63,0,0,1-1.63-1.62h0A1.63,1.63,0,0,1,24.9,15.13Z" transform="translate(-1.24 -4.94)"/><rect class="f" x="22.96" y="13.43" width="39.46" height="1.3"/><rect class="e" x="23.78" y="40.74" width="37.79" height="3.44"/><rect class="f" x="23.78" y="39.9" width="37.79" height="0.83"/><path class="e" d="M30.27,53H57.6a1,1,0,0,1,1,1h0a1,1,0,0,1-1,1H30.27a1,1,0,0,1-1-1h0A1,1,0,0,1,30.27,53Z" transform="translate(-1.24 -4.94)"/><rect class="f" x="23.7" y="44.16" width="37.79" height="0.83"/><rect class="d" x="32.22" y="4.46" width="20.93" height="43.55"/><path class="e" d="M48.17,9.18A4.19,4.19,0,1,1,44,4.94h0A4.26,4.26,0,0,1,48.17,9.18Z" transform="translate(-1.24 -4.94)"/><circle class="g" cx="42.68" cy="4.24" r="3.5"/><polygon class="h" points="44.77 3.52 43.41 3.52 43.41 2.17 41.96 2.17 41.96 3.52 40.61 3.52 40.61 4.96 41.96 4.96 41.96 6.32 43.41 6.32 43.41 4.96 44.77 4.96 44.77 3.52"/><rect class="e" x="34.31" y="15.8" width="16.74" height="32.22"/><path class="e" d="M5.21,63.5H82.57A1.5,1.5,0,0,1,84.07,65v0h0a1.5,1.5,0,0,1-1.5,1.51H5.21A1.51,1.51,0,0,1,3.7,65h0A1.51,1.51,0,0,1,5.19,63.5Z" transform="translate(-1.24 -4.94)"/><rect class="f" x="2.45" y="58.77" width="80.38" height="1.51"/><rect class="f" x="30.36" y="50.13" width="1.69" height="9.63"/><rect class="f" x="53.32" y="49.13" width="1.69" height="9.63"/><rect class="d" x="35.26" y="59.77" width="14.86" height="1.51"/><rect class="e" x="35.26" y="59.77" width="14.86" height="0.63"/><rect class="d" x="29.95" y="61.28" width="25.46" height="1.51"/><rect class="d" x="23.81" y="62.79" width="37.75" height="1.51"/><rect class="e" x="29.95" y="61.28" width="25.46" height="0.63"/><rect class="e" x="23.81" y="62.79" width="37.75" height="0.63"/><path class="e" d="M64.45,20.73H85a1.61,1.61,0,0,1,1.62,1.6v0h0A1.62,1.62,0,0,1,85,24H64.45a1.62,1.62,0,0,1-1.61-1.62h0A1.62,1.62,0,0,1,64.45,20.73Z" transform="translate(-1.24 -4.94)"/><rect class="d" x="61.59" y="19.02" width="21.24" height="39.75"/><rect class="e" x="63.86" y="21.96" width="4.12" height="7.18"/><rect class="h" x="64.42" y="22.63" width="3" height="5.81"/><rect class="e" x="64.12" y="25.23" width="3.59" height="0.6"/><rect class="e" x="70.15" y="21.96" width="4.12" height="7.18"/><rect class="h" x="70.71" y="22.63" width="3" height="5.81"/><rect class="e" x="70.41" y="25.23" width="3.59" height="0.6"/><rect class="e" x="76.43" y="21.96" width="4.12" height="7.18"/><rect class="h" x="77" y="22.63" width="3" height="5.81"/><rect class="e" x="76.69" y="25.23" width="3.59" height="0.6"/><rect class="e" x="63.86" y="32.56" width="4.12" height="7.18"/><rect class="h" x="64.42" y="33.24" width="3" height="5.81"/><rect class="e" x="64.12" y="35.86" width="3.59" height="0.6"/><rect class="e" x="70.15" y="32.56" width="4.12" height="7.18"/><rect class="h" x="70.71" y="33.24" width="3" height="5.81"/><rect class="e" x="70.41" y="35.86" width="3.59" height="0.6"/><rect class="e" x="76.43" y="32.56" width="4.12" height="7.18"/><rect class="h" x="77" y="33.24" width="3" height="5.81"/><rect class="e" x="76.69" y="35.86" width="3.59" height="0.6"/><rect class="e" x="63.86" y="43.16" width="4.12" height="7.18"/><rect class="h" x="64.42" y="43.84" width="3" height="5.81"/><rect class="e" x="64.12" y="46.45" width="3.59" height="0.6"/><rect class="e" x="70.15" y="43.16" width="4.12" height="7.18"/><rect class="h" x="70.71" y="43.84" width="3" height="5.81"/><rect class="e" x="70.41" y="46.45" width="3.59" height="0.6"/><rect class="e" x="76.43" y="43.16" width="4.12" height="7.18"/><rect class="h" x="77" y="43.84" width="3" height="5.81"/><rect class="e" x="76.69" y="46.45" width="3.59" height="0.6"/><rect class="f" x="61.59" y="19.02" width="22.66" height="1.3"/><rect class="e" x="61.59" y="53.96" width="21.26" height="4.82"/><polygon class="i" points="64.41 22.62 67.41 22.62 64.41 25.23 64.41 22.62"/><polygon class="i" points="70.71 22.62 73.71 22.62 70.71 25.23 70.71 22.62"/><polygon class="i" points="77.01 22.62 79.99 22.62 77.01 25.23 77.01 22.62"/><polygon class="i" points="64.41 25.82 67.41 25.82 64.41 28.43 64.41 25.82"/><polygon class="i" points="70.71 25.82 73.71 25.82 70.71 28.43 70.71 25.82"/><polygon class="i" points="77.01 25.82 79.99 25.82 77.01 28.43 77.01 25.82"/><polygon class="i" points="64.41 33.24 67.41 33.24 64.41 35.86 64.41 33.24"/><polygon class="i" points="70.71 33.24 73.71 33.24 70.71 35.86 70.71 33.24"/><polygon class="i" points="77.01 33.24 79.99 33.24 77.01 35.86 77.01 33.24"/><polygon class="i" points="64.41 36.44 67.41 36.44 64.41 39.05 64.41 36.44"/><polygon class="i" points="70.71 36.44 73.71 36.44 70.71 39.05 70.71 36.44"/><polygon class="i" points="77.01 36.44 79.99 36.44 77.01 39.05 77.01 36.44"/><polygon class="i" points="64.41 43.84 67.41 43.84 64.41 46.45 64.41 43.84"/><polygon class="i" points="70.71 43.84 73.71 43.84 70.71 46.45 70.71 43.84"/><polygon class="i" points="77.01 43.84 79.99 43.84 77.01 46.45 77.01 43.84"/><polygon class="i" points="64.41 47.06 67.41 47.06 64.41 49.66 64.41 47.06"/><polygon class="i" points="70.71 47.06 73.71 47.06 70.71 49.66 70.71 47.06"/><polygon class="i" points="77.01 47.06 79.99 47.06 77.01 49.66 77.01 47.06"/><path class="e" d="M2.88,21.72H23.41A1.63,1.63,0,0,1,25,23.34h0A1.62,1.62,0,0,1,23.41,25H2.88a1.62,1.62,0,0,1-1.64-1.61h0A1.64,1.64,0,0,1,2.88,21.72Z" transform="translate(-1.24 -4.94)"/><rect class="d" x="2.55" y="20.02" width="21.24" height="39.75"/><rect class="e" x="4.81" y="21.95" width="4.12" height="7.18"/><rect class="h" x="5.37" y="22.63" width="3" height="5.81"/><rect class="e" x="5.08" y="25.23" width="3.59" height="0.6"/><rect class="e" x="11.11" y="21.95" width="4.12" height="7.18"/><rect class="h" x="11.67" y="22.63" width="3" height="5.81"/><rect class="e" x="11.37" y="25.23" width="3.59" height="0.6"/><rect class="e" x="17.39" y="22.95" width="4.12" height="7.18"/><rect class="h" x="17.96" y="23.63" width="3" height="5.81"/><rect class="e" x="17.65" y="26.23" width="3.59" height="0.6"/><rect class="e" x="4.81" y="32.55" width="4.12" height="7.18"/><rect class="h" x="5.37" y="33.23" width="3" height="5.81"/><rect class="e" x="5.08" y="35.84" width="3.59" height="0.6"/><rect class="e" x="11.11" y="32.55" width="4.12" height="7.18"/><rect class="h" x="11.67" y="33.23" width="3" height="5.81"/><rect class="e" x="11.37" y="35.84" width="3.59" height="0.6"/><rect class="e" x="17.39" y="33.55" width="4.12" height="7.18"/><rect class="h" x="17.96" y="34.23" width="3" height="5.81"/><rect class="e" x="17.65" y="36.84" width="3.59" height="0.6"/><rect class="e" x="4.81" y="43.16" width="4.12" height="7.18"/><rect class="h" x="5.37" y="43.84" width="3" height="5.81"/><rect class="e" x="5.08" y="46.45" width="3.59" height="0.6"/><rect class="e" x="11.11" y="43.16" width="4.12" height="7.18"/><rect class="h" x="11.67" y="43.84" width="3" height="5.81"/><rect class="e" x="11.37" y="46.45" width="3.59" height="0.6"/><rect class="e" x="17.39" y="44.16" width="4.12" height="7.18"/><rect class="h" x="17.96" y="44.84" width="3" height="5.81"/><rect class="e" x="17.65" y="47.45" width="3.59" height="0.6"/><rect class="e" x="2.55" y="54.95" width="21.24" height="4.82"/><rect class="f" x="1.12" y="20.02" width="22.66" height="1.3"/><polygon class="i" points="5.38 22.62 8.37 22.62 5.38 25.23 5.38 22.62"/><polygon class="i" points="11.68 22.62 14.66 22.62 11.68 25.23 11.68 22.62"/><polygon class="i" points="17.96 23.62 20.95 23.62 17.96 26.23 17.96 23.62"/><polygon class="i" points="5.38 25.82 8.37 25.82 5.38 28.43 5.38 25.82"/><polygon class="i" points="11.68 25.82 14.66 25.82 11.68 28.43 11.68 25.82"/><polygon class="i" points="17.96 26.82 20.95 26.82 17.96 29.43 17.96 26.82"/><polygon class="i" points="5.38 33.23 8.37 33.23 5.38 35.84 5.38 33.23"/><polygon class="i" points="11.68 33.23 14.66 33.23 11.68 35.84 11.68 33.23"/><polygon class="i" points="17.96 34.23 20.95 34.23 17.96 36.84 17.96 34.23"/><polygon class="i" points="5.38 36.44 8.37 36.44 5.38 39.04 5.38 36.44"/><polygon class="i" points="11.68 36.44 14.66 36.44 11.68 39.04 11.68 36.44"/><polygon class="i" points="17.96 37.44 20.95 37.44 17.96 40.04 17.96 37.44"/><polygon class="i" points="5.38 43.83 8.37 43.83 5.38 46.45 5.38 43.83"/><polygon class="i" points="11.68 43.83 14.66 43.83 11.68 46.45 11.68 43.83"/><polygon class="i" points="17.96 44.83 20.95 44.83 17.96 47.45 17.96 44.83"/><polygon class="i" points="5.38 47.05 8.37 47.05 5.38 49.66 5.38 47.05"/><polygon class="i" points="11.68 47.05 14.66 47.05 11.68 49.66 11.68 47.05"/><polygon class="i" points="17.96 48.05 20.95 48.05 17.96 50.66 17.96 48.05"/><rect class="e" x="37.82" y="50.07" width="9.73" height="9.7"/><rect class="h" x="38.6" y="50.84" width="8.18" height="8.95"/><rect class="e" x="42.37" y="50.61" width="0.63" height="9.18"/><polygon class="i" points="42.36 50.84 38.6 59.77 38.6 50.84 42.36 50.84"/><polygon class="i" points="46.76 50.84 43 59.77 43 50.84 46.76 50.84"/><rect class="h" x="35.54" y="17.35" width="2.67" height="2.67"/><polygon class="i" points="35.54 20.01 35.54 17.35 38.21 17.35 35.54 20.01"/><rect class="h" x="39.42" y="17.35" width="2.67" height="2.67"/><polygon class="i" points="39.41 20.01 39.41 17.35 42.08 17.35 39.41 20.01"/><rect class="h" x="43.29" y="17.35" width="2.67" height="2.67"/><polygon class="i" points="43.29 20.01 43.29 17.35 45.95 17.35 43.29 20.01"/><rect class="h" x="47.17" y="17.35" width="2.67" height="2.67"/><polygon class="i" points="47.17 20.01 47.17 17.35 49.84 17.35 47.17 20.01"/><rect class="h" x="35.54" y="21.13" width="2.67" height="2.67"/><polygon class="i" points="35.54 23.8 35.54 21.13 38.21 21.13 35.54 23.8"/><rect class="h" x="39.42" y="21.13" width="2.67" height="2.67"/><polygon class="i" points="39.41 23.8 39.41 21.13 42.08 21.13 39.41 23.8"/><rect class="h" x="43.29" y="21.13" width="2.67" height="2.67"/><polygon class="i" points="43.29 23.8 43.29 21.13 45.95 21.13 43.29 23.8"/><rect class="h" x="47.17" y="21.13" width="2.67" height="2.67"/><polygon class="i" points="47.17 23.8 47.17 21.13 49.84 21.13 47.17 23.8"/><rect class="h" x="35.54" y="24.9" width="2.67" height="2.67"/><polygon class="i" points="35.54 27.58 35.54 24.91 38.21 24.91 35.54 27.58"/><rect class="h" x="39.42" y="24.9" width="2.67" height="2.67"/><polygon class="i" points="39.41 27.58 39.41 24.91 42.08 24.91 39.41 27.58"/><rect class="h" x="43.29" y="24.9" width="2.67" height="2.67"/><polygon class="i" points="43.29 27.58 43.29 24.91 45.95 24.91 43.29 27.58"/><rect class="h" x="47.17" y="24.9" width="2.67" height="2.67"/><polygon class="i" points="47.17 27.58 47.17 24.91 49.84 24.91 47.17 27.58"/><rect class="h" x="35.54" y="28.7" width="2.67" height="2.67"/><polygon class="i" points="35.54 31.36 35.54 28.7 38.21 28.7 35.54 31.36"/><rect class="h" x="39.42" y="28.7" width="2.67" height="2.67"/><polygon class="i" points="39.41 31.36 39.41 28.7 42.08 28.7 39.41 31.36"/><rect class="h" x="43.29" y="28.7" width="2.67" height="2.67"/><polygon class="i" points="43.29 31.36 43.29 28.7 45.95 28.7 43.29 31.36"/><rect class="h" x="47.17" y="28.7" width="2.67" height="2.67"/><polygon class="i" points="47.17 31.36 47.17 28.7 49.84 28.7 47.17 31.36"/><rect class="h" x="35.54" y="32.47" width="2.67" height="2.67"/><polygon class="i" points="35.54 35.14 35.54 32.47 38.21 32.47 35.54 35.14"/><rect class="h" x="39.42" y="32.47" width="2.67" height="2.67"/><polygon class="i" points="39.41 35.14 39.41 32.47 42.08 32.47 39.41 35.14"/><rect class="h" x="43.29" y="32.47" width="2.67" height="2.67"/><polygon class="i" points="43.29 35.14 43.29 32.47 45.95 32.47 43.29 35.14"/><rect class="h" x="47.17" y="32.47" width="2.67" height="2.67"/><polygon class="i" points="47.17 35.14 47.17 32.47 49.84 32.47 47.17 35.14"/><rect class="h" x="35.54" y="36.26" width="2.67" height="2.67"/><polygon class="i" points="35.54 38.91 35.54 36.25 38.21 36.25 35.54 38.91"/><rect class="h" x="39.42" y="36.26" width="2.67" height="2.67"/><polygon class="i" points="39.41 38.91 39.41 36.25 42.08 36.25 39.41 38.91"/><rect class="h" x="43.29" y="36.26" width="2.67" height="2.67"/><polygon class="i" points="43.29 38.91 43.29 36.25 45.95 36.25 43.29 38.91"/><rect class="h" x="47.17" y="36.26" width="2.67" height="2.67"/><polygon class="i" points="47.17 38.91 47.17 36.25 49.84 36.25 47.17 38.91"/><rect class="h" x="35.54" y="40.04" width="2.67" height="2.67"/><polygon class="i" points="35.54 42.7 35.54 40.04 38.21 40.04 35.54 42.7"/><rect class="h" x="39.42" y="40.04" width="2.67" height="2.67"/><polygon class="i" points="39.41 42.7 39.41 40.04 42.08 40.04 39.41 42.7"/><rect class="h" x="43.29" y="40.04" width="2.67" height="2.67"/><polygon class="i" points="43.29 42.7 43.29 40.04 45.95 40.04 43.29 42.7"/><rect class="h" x="47.17" y="40.04" width="2.67" height="2.67"/><polygon class="i" points="47.17 42.7 47.17 40.04 49.84 40.04 47.17 42.7"/><rect class="h" x="35.54" y="43.82" width="2.67" height="2.67"/><polygon class="i" points="35.54 46.49 35.54 43.82 38.21 43.82 35.54 46.49"/><rect class="h" x="39.42" y="43.82" width="2.67" height="2.67"/><polygon class="i" points="39.41 46.49 39.41 43.82 42.08 43.82 39.41 46.49"/><rect class="h" x="43.29" y="43.82" width="2.67" height="2.67"/><polygon class="i" points="43.29 46.49 43.29 43.82 45.95 43.82 43.29 46.49"/><rect class="h" x="47.17" y="43.82" width="2.67" height="2.67"/><polygon class="i" points="47.17 46.49 47.17 43.82 49.84 43.82 47.17 46.49"/><rect class="f" x="2.45" y="54.96" width="21.48" height="1.42"/><rect class="f" x="61.59" y="53.96" width="21.48" height="1.42"/><text class="j" transform="translate(33.52 13.43)">H</text><text class="k" transform="translate(36.13 13.43)">O</text><text class="k" transform="translate(39.46 13.43)">SPI</text><text class="l" transform="translate(45.2 13.43)">T</text><text class="m" transform="translate(47.27 13.43)">AL</text></svg>