<?xml version="1.0" encoding="utf-8"?>
<!-- Generator: Adobe Illustrator 25.0.1, SVG Export Plug-In . SVG Version: 6.00 Build 0)  -->
<svg version="1.1" id="Layer_1" xmlns="http://www.w3.org/2000/svg" xmlns:xlink="http://www.w3.org/1999/xlink" x="0px" y="0px"
	 viewBox="0 0 95.2 73.7" style="enable-background:new 0 0 95.2 73.7;" xml:space="preserve">
<style type="text/css">
	.st0{fill:url(#SVGID_1_);}
	.st1{opacity:0.5;}
	.st2{fill:#0C5E91;}
	.st3{fill:#FFFFFF;stroke:#3F98D3;stroke-width:0.75;stroke-miterlimit:10;}
	.st4{fill:#1B75BA;}
	.st5{fill:#3F98D3;}
	.st6{fill:#F05A5A;}
	.st7{fill:#FFFFFF;}
	.st8{fill:#E2F3F7;}
	.st9{enable-background:new    ;}
</style>
<linearGradient id="SVGID_1_" gradientUnits="userSpaceOnUse" x1="104.1082" y1="-995.0728" x2="15.2982" y2="-939.3728" gradientTransform="matrix(1 0 0 -1 -19.96 -934.72)">
	<stop  offset="0" style="stop-color:#00EA6F"/>
	<stop  offset="1" style="stop-color:#FFFFFF"/>
</linearGradient>
<path class="st0" d="M3.5,11.1c2-5,6.9-8.3,12.3-8.3h58.1c18.9,0,24.9,13,19.3,28.8c-0.4,1.2-1,2.4-1.7,3.5l-2.1,3.4
	c-0.3,0.4-0.5,0.8-0.8,1.3c-3.4,6.6-5.8,12.5-6.3,19.4c-0.4,5-3.9,8.8-8.1,10.7c-1.9,0.8-3.9,1.3-5.9,1.3l-49.4,2.4
	C-0.9,73.7-3.3,27.9,3.5,11.1L3.5,11.1z"/>
<g class="st1">
	<path class="st2" d="M92.8,55.1c-0.1-0.5-0.5-0.8-1-0.8c-0.6,0-1-0.4-1-1l0,0c0.1-0.4-0.1-0.9-0.6-1l0,0l0,0
		c-0.4-0.1-0.9,0.1-1,0.5c0,0,0,0,0,0.1l0,0c0,0.1,0,0.3,0,0.4c0,0.6-0.4,1-0.9,1c0,0,0,0-0.1,0l0,0c-0.5,0-0.9,0.3-0.9,0.8
		c0,0.4,0.2,0.7,0.5,0.9l0,0c0.1,0,0.3,0,0.4,0c0.6,0,1,0.4,1,1c0,0,0,0,0,0.1l0,0c-0.1,0.4,0.1,0.9,0.6,1l0,0
		c0.4,0.1,0.9-0.2,1-0.6c0,0,0,0,0,0l0,0c0-0.1,0-0.3,0-0.4c0-0.6,0.4-1,1-1l0,0C92.4,56,92.8,55.6,92.8,55.1z"/>
</g>
<path class="st2" d="M68.9,6.1l0.8,1.6c0,0.1,0.1,0.1,0.2,0.1c0,0,0,0,0,0l0,0c0.1,0,0.1-0.2,0.1-0.2l0,0l-0.8-1.6L69.1,6L68.9,6.1z
	"/>
<path class="st2" d="M67.5,2.4l-0.8-1.6c0-0.1-0.2-0.1-0.2-0.1c-0.1,0-0.1,0.2-0.1,0.2c0,0,0,0,0,0l0,0l0.8,1.6l0.2-0.1L67.5,2.4z"
	/>
<path class="st2" d="M66.4,5l-1.6,0.8c-0.1,0.1-0.1,0.2-0.1,0.3c0,0,0,0,0,0l0,0c0.1,0.1,0.2,0.1,0.3,0.1l1.6-0.8l-0.1-0.2L66.4,5z"
	/>
<path class="st2" d="M71.4,2.3l-1.6,0.8l0.1,0.2c0,0.1,0,0.1,0.1,0.2l1.6-0.8c0.1,0,0.2-0.2,0.1-0.3c0,0,0,0,0,0
	C71.7,2.3,71.6,2.2,71.4,2.3C71.5,2.3,71.5,2.3,71.4,2.3L71.4,2.3z"/>
<path class="st2" d="M67.4,6.1l-0.5,1.7c0,0.1,0,0.2,0.1,0.2h0.2c0,0,0.1-0.1,0.1-0.1l0.5-1.8C67.6,6.1,67.5,6.1,67.4,6.1z"/>
<path class="st2" d="M68.9,2.4l0.6-1.7c0-0.1-0.1-0.2-0.2-0.2c-0.1,0-0.2,0-0.2,0.1l-0.5,1.7C68.7,2.3,68.8,2.4,68.9,2.4z"/>
<path class="st2" d="M70,5l1.7,0.5c0,0,0.1,0,0.1,0c0.1,0,0.1-0.1,0.1-0.1c0-0.1,0-0.2-0.1-0.2l0,0l-1.7-0.5C70.1,4.8,70,4.9,70,5z"
	/>
<path class="st2" d="M66.4,3.4l-1.7-0.5c-0.1,0-0.2,0-0.2,0.1c0,0,0,0,0,0l0,0c0,0.1,0,0.2,0.1,0.2l1.7,0.5
	C66.3,3.7,66.4,3.5,66.4,3.4z"/>
<rect x="23.8" y="13.4" class="st3" width="37.8" height="46.3"/>
<path class="st4" d="M23.7,10.2h38.1c0.9,0,1.6,0.7,1.6,1.6l0,0c0,0.9-0.7,1.6-1.6,1.6H23.7c-0.9,0-1.6-0.7-1.6-1.6l0,0
	C22.1,10.9,22.8,10.2,23.7,10.2z"/>
<rect x="23" y="13.4" class="st5" width="39.5" height="1.3"/>
<rect x="23.8" y="40.7" class="st4" width="37.8" height="3.4"/>
<rect x="23.8" y="39.9" class="st5" width="37.8" height="0.8"/>
<path class="st4" d="M29,48.1h27.3c0.6,0,1,0.4,1,1l0,0c0,0.6-0.4,1-1,1H29c-0.6,0-1-0.4-1-1l0,0C28,48.5,28.5,48.1,29,48.1z"/>
<rect x="23.7" y="44.2" class="st5" width="37.8" height="0.8"/>
<rect x="32.2" y="4.5" class="st3" width="20.9" height="43.5"/>
<path class="st4" d="M46.9,4.2c0,2.3-1.9,4.2-4.2,4.1c-2.3,0-4.2-1.9-4.1-4.2c0-2.3,1.9-4.2,4.2-4.1l0,0C45.1,0,46.9,1.9,46.9,4.2z"
	/>
<circle class="st6" cx="42.7" cy="4.2" r="3.5"/>
<polygon class="st7" points="44.8,3.5 43.4,3.5 43.4,2.2 42,2.2 42,3.5 40.6,3.5 40.6,5 42,5 42,6.3 43.4,6.3 43.4,5 44.8,5 "/>
<rect x="34.3" y="15.8" class="st4" width="16.7" height="32.2"/>
<path class="st4" d="M4,58.6h77.4c0.8,0,1.5,0.7,1.5,1.5l0,0l0,0c0,0.8-0.7,1.5-1.5,1.5c0,0,0,0,0,0H4c-0.8,0-1.5-0.7-1.5-1.5l0,0
	l0,0C2.5,59.2,3.1,58.6,4,58.6L4,58.6z"/>
<rect x="2.5" y="58.8" class="st5" width="80.4" height="1.5"/>
<rect x="30.4" y="50.1" class="st5" width="1.7" height="9.6"/>
<rect x="53.3" y="49.1" class="st5" width="1.7" height="9.6"/>
<rect x="35.3" y="59.8" class="st3" width="14.9" height="1.5"/>
<rect x="35.3" y="59.8" class="st4" width="14.9" height="0.6"/>
<rect x="30" y="61.3" class="st3" width="25.5" height="1.5"/>
<rect x="23.8" y="62.8" class="st3" width="37.8" height="1.5"/>
<rect x="30" y="61.3" class="st4" width="25.5" height="0.6"/>
<rect x="23.8" y="62.8" class="st4" width="37.8" height="0.6"/>
<path class="st4" d="M63.2,15.8h20.6c0.9,0,1.6,0.7,1.6,1.6c0,0,0,0,0,0l0,0l0,0c0,0.9-0.7,1.6-1.6,1.7c0,0,0,0-0.1,0H63.2
	c-0.9,0-1.6-0.7-1.6-1.6l0,0C61.6,16.5,62.3,15.8,63.2,15.8C63.2,15.8,63.2,15.8,63.2,15.8z"/>
<rect x="61.6" y="19" class="st3" width="21.2" height="39.8"/>
<rect x="63.9" y="22" class="st4" width="4.1" height="7.2"/>
<rect x="64.4" y="22.6" class="st7" width="3" height="5.8"/>
<rect x="64.1" y="25.2" class="st4" width="3.6" height="0.6"/>
<rect x="70.2" y="22" class="st4" width="4.1" height="7.2"/>
<rect x="70.7" y="22.6" class="st7" width="3" height="5.8"/>
<rect x="70.4" y="25.2" class="st4" width="3.6" height="0.6"/>
<rect x="76.4" y="22" class="st4" width="4.1" height="7.2"/>
<rect x="77" y="22.6" class="st7" width="3" height="5.8"/>
<rect x="76.7" y="25.2" class="st4" width="3.6" height="0.6"/>
<rect x="63.9" y="32.6" class="st4" width="4.1" height="7.2"/>
<rect x="64.4" y="33.2" class="st7" width="3" height="5.8"/>
<rect x="64.1" y="35.9" class="st4" width="3.6" height="0.6"/>
<rect x="70.2" y="32.6" class="st4" width="4.1" height="7.2"/>
<rect x="70.7" y="33.2" class="st7" width="3" height="5.8"/>
<rect x="70.4" y="35.9" class="st4" width="3.6" height="0.6"/>
<rect x="76.4" y="32.6" class="st4" width="4.1" height="7.2"/>
<rect x="77" y="33.2" class="st7" width="3" height="5.8"/>
<rect x="76.7" y="35.9" class="st4" width="3.6" height="0.6"/>
<rect x="63.9" y="43.2" class="st4" width="4.1" height="7.2"/>
<rect x="64.4" y="43.8" class="st7" width="3" height="5.8"/>
<rect x="64.1" y="46.5" class="st4" width="3.6" height="0.6"/>
<rect x="70.2" y="43.2" class="st4" width="4.1" height="7.2"/>
<rect x="70.7" y="43.8" class="st7" width="3" height="5.8"/>
<rect x="70.4" y="46.5" class="st4" width="3.6" height="0.6"/>
<rect x="76.4" y="43.2" class="st4" width="4.1" height="7.2"/>
<rect x="77" y="43.8" class="st7" width="3" height="5.8"/>
<rect x="76.7" y="46.5" class="st4" width="3.6" height="0.6"/>
<rect x="61.6" y="19" class="st5" width="22.7" height="1.3"/>
<rect x="61.6" y="54" class="st4" width="21.3" height="4.8"/>
<polygon class="st8" points="64.4,22.6 67.4,22.6 64.4,25.2 "/>
<polygon class="st8" points="70.7,22.6 73.7,22.6 70.7,25.2 "/>
<polygon class="st8" points="77,22.6 80,22.6 77,25.2 "/>
<polygon class="st8" points="64.4,25.8 67.4,25.8 64.4,28.4 "/>
<polygon class="st8" points="70.7,25.8 73.7,25.8 70.7,28.4 "/>
<polygon class="st8" points="77,25.8 80,25.8 77,28.4 "/>
<polygon class="st8" points="64.4,33.2 67.4,33.2 64.4,35.9 "/>
<polygon class="st8" points="70.7,33.2 73.7,33.2 70.7,35.9 "/>
<polygon class="st8" points="77,33.2 80,33.2 77,35.9 "/>
<polygon class="st8" points="64.4,36.4 67.4,36.4 64.4,39 "/>
<polygon class="st8" points="70.7,36.4 73.7,36.4 70.7,39 "/>
<polygon class="st8" points="77,36.4 80,36.4 77,39 "/>
<polygon class="st8" points="64.4,43.8 67.4,43.8 64.4,46.5 "/>
<polygon class="st8" points="70.7,43.8 73.7,43.8 70.7,46.5 "/>
<polygon class="st8" points="77,43.8 80,43.8 77,46.5 "/>
<polygon class="st8" points="64.4,47.1 67.4,47.1 64.4,49.7 "/>
<polygon class="st8" points="70.7,47.1 73.7,47.1 70.7,49.7 "/>
<polygon class="st8" points="77,47.1 80,47.1 77,49.7 "/>
<path class="st4" d="M1.6,16.8h20.5c0.9,0,1.6,0.7,1.6,1.6l0,0c0,0.9-0.7,1.6-1.6,1.7c0,0,0,0,0,0H1.6c-0.9,0-1.6-0.7-1.6-1.6
	c0,0,0,0,0,0l0,0C0,17.5,0.7,16.8,1.6,16.8C1.6,16.8,1.6,16.8,1.6,16.8z"/>
<rect x="2.5" y="20" class="st3" width="21.2" height="39.8"/>
<rect x="4.8" y="22" class="st4" width="4.1" height="7.2"/>
<rect x="5.4" y="22.6" class="st7" width="3" height="5.8"/>
<rect x="5.1" y="25.2" class="st4" width="3.6" height="0.6"/>
<rect x="11.1" y="22" class="st4" width="4.1" height="7.2"/>
<rect x="11.7" y="22.6" class="st7" width="3" height="5.8"/>
<rect x="11.4" y="25.2" class="st4" width="3.6" height="0.6"/>
<rect x="17.4" y="23" class="st4" width="4.1" height="7.2"/>
<rect x="18" y="23.6" class="st7" width="3" height="5.8"/>
<rect x="17.6" y="26.2" class="st4" width="3.6" height="0.6"/>
<rect x="4.8" y="32.5" class="st4" width="4.1" height="7.2"/>
<rect x="5.4" y="33.2" class="st7" width="3" height="5.8"/>
<rect x="5.1" y="35.8" class="st4" width="3.6" height="0.6"/>
<rect x="11.1" y="32.5" class="st4" width="4.1" height="7.2"/>
<rect x="11.7" y="33.2" class="st7" width="3" height="5.8"/>
<rect x="11.4" y="35.8" class="st4" width="3.6" height="0.6"/>
<rect x="17.4" y="33.5" class="st4" width="4.1" height="7.2"/>
<rect x="18" y="34.2" class="st7" width="3" height="5.8"/>
<rect x="17.6" y="36.8" class="st4" width="3.6" height="0.6"/>
<rect x="4.8" y="43.2" class="st4" width="4.1" height="7.2"/>
<rect x="5.4" y="43.8" class="st7" width="3" height="5.8"/>
<rect x="5.1" y="46.5" class="st4" width="3.6" height="0.6"/>
<rect x="11.1" y="43.2" class="st4" width="4.1" height="7.2"/>
<rect x="11.7" y="43.8" class="st7" width="3" height="5.8"/>
<rect x="11.4" y="46.5" class="st4" width="3.6" height="0.6"/>
<rect x="17.4" y="44.2" class="st4" width="4.1" height="7.2"/>
<rect x="18" y="44.8" class="st7" width="3" height="5.8"/>
<rect x="17.6" y="47.5" class="st4" width="3.6" height="0.6"/>
<rect x="2.5" y="55" class="st4" width="21.2" height="4.8"/>
<rect x="1.1" y="20" class="st5" width="22.7" height="1.3"/>
<polygon class="st8" points="5.4,22.6 8.4,22.6 5.4,25.2 "/>
<polygon class="st8" points="11.7,22.6 14.7,22.6 11.7,25.2 "/>
<polygon class="st8" points="18,23.6 21,23.6 18,26.2 "/>
<polygon class="st8" points="5.4,25.8 8.4,25.8 5.4,28.4 "/>
<polygon class="st8" points="11.7,25.8 14.7,25.8 11.7,28.4 "/>
<polygon class="st8" points="18,26.8 21,26.8 18,29.4 "/>
<polygon class="st8" points="5.4,33.2 8.4,33.2 5.4,35.8 "/>
<polygon class="st8" points="11.7,33.2 14.7,33.2 11.7,35.8 "/>
<polygon class="st8" points="18,34.2 21,34.2 18,36.8 "/>
<polygon class="st8" points="5.4,36.4 8.4,36.4 5.4,39 "/>
<polygon class="st8" points="11.7,36.4 14.7,36.4 11.7,39 "/>
<polygon class="st8" points="18,37.4 21,37.4 18,40 "/>
<polygon class="st8" points="5.4,43.8 8.4,43.8 5.4,46.5 "/>
<polygon class="st8" points="11.7,43.8 14.7,43.8 11.7,46.5 "/>
<polygon class="st8" points="18,44.8 21,44.8 18,47.5 "/>
<polygon class="st8" points="5.4,47 8.4,47 5.4,49.7 "/>
<polygon class="st8" points="11.7,47 14.7,47 11.7,49.7 "/>
<polygon class="st8" points="18,48 21,48 18,50.7 "/>
<rect x="37.8" y="50.1" class="st4" width="9.7" height="9.7"/>
<rect x="38.6" y="50.8" class="st7" width="8.2" height="9"/>
<rect x="42.4" y="50.6" class="st4" width="0.6" height="9.2"/>
<polygon class="st8" points="42.4,50.8 38.6,59.8 38.6,50.8 "/>
<polygon class="st8" points="46.8,50.8 43,59.8 43,50.8 "/>
<rect x="35.5" y="17.4" class="st7" width="2.7" height="2.7"/>
<polygon class="st8" points="35.5,20 35.5,17.4 38.2,17.4 "/>
<rect x="39.4" y="17.4" class="st7" width="2.7" height="2.7"/>
<polygon class="st8" points="39.4,20 39.4,17.4 42.1,17.4 "/>
<rect x="43.3" y="17.4" class="st7" width="2.7" height="2.7"/>
<polygon class="st8" points="43.3,20 43.3,17.4 46,17.4 "/>
<rect x="47.2" y="17.4" class="st7" width="2.7" height="2.7"/>
<polygon class="st8" points="47.2,20 47.2,17.4 49.8,17.4 "/>
<rect x="35.5" y="21.1" class="st7" width="2.7" height="2.7"/>
<polygon class="st8" points="35.5,23.8 35.5,21.1 38.2,21.1 "/>
<rect x="39.4" y="21.1" class="st7" width="2.7" height="2.7"/>
<polygon class="st8" points="39.4,23.8 39.4,21.1 42.1,21.1 "/>
<rect x="43.3" y="21.1" class="st7" width="2.7" height="2.7"/>
<polygon class="st8" points="43.3,23.8 43.3,21.1 46,21.1 "/>
<rect x="47.2" y="21.1" class="st7" width="2.7" height="2.7"/>
<polygon class="st8" points="47.2,23.8 47.2,21.1 49.8,21.1 "/>
<rect x="35.5" y="24.9" class="st7" width="2.7" height="2.7"/>
<polygon class="st8" points="35.5,27.6 35.5,24.9 38.2,24.9 "/>
<rect x="39.4" y="24.9" class="st7" width="2.7" height="2.7"/>
<polygon class="st8" points="39.4,27.6 39.4,24.9 42.1,24.9 "/>
<rect x="43.3" y="24.9" class="st7" width="2.7" height="2.7"/>
<polygon class="st8" points="43.3,27.6 43.3,24.9 46,24.9 "/>
<rect x="47.2" y="24.9" class="st7" width="2.7" height="2.7"/>
<polygon class="st8" points="47.2,27.6 47.2,24.9 49.8,24.9 "/>
<rect x="35.5" y="28.7" class="st7" width="2.7" height="2.7"/>
<polygon class="st8" points="35.5,31.4 35.5,28.7 38.2,28.7 "/>
<rect x="39.4" y="28.7" class="st7" width="2.7" height="2.7"/>
<polygon class="st8" points="39.4,31.4 39.4,28.7 42.1,28.7 "/>
<rect x="43.3" y="28.7" class="st7" width="2.7" height="2.7"/>
<polygon class="st8" points="43.3,31.4 43.3,28.7 46,28.7 "/>
<rect x="47.2" y="28.7" class="st7" width="2.7" height="2.7"/>
<polygon class="st8" points="47.2,31.4 47.2,28.7 49.8,28.7 "/>
<rect x="35.5" y="32.5" class="st7" width="2.7" height="2.7"/>
<polygon class="st8" points="35.5,35.1 35.5,32.5 38.2,32.5 "/>
<rect x="39.4" y="32.5" class="st7" width="2.7" height="2.7"/>
<polygon class="st8" points="39.4,35.1 39.4,32.5 42.1,32.5 "/>
<rect x="43.3" y="32.5" class="st7" width="2.7" height="2.7"/>
<polygon class="st8" points="43.3,35.1 43.3,32.5 46,32.5 "/>
<rect x="47.2" y="32.5" class="st7" width="2.7" height="2.7"/>
<polygon class="st8" points="47.2,35.1 47.2,32.5 49.8,32.5 "/>
<rect x="35.5" y="36.3" class="st7" width="2.7" height="2.7"/>
<polygon class="st8" points="35.5,38.9 35.5,36.2 38.2,36.2 "/>
<rect x="39.4" y="36.3" class="st7" width="2.7" height="2.7"/>
<polygon class="st8" points="39.4,38.9 39.4,36.2 42.1,36.2 "/>
<rect x="43.3" y="36.3" class="st7" width="2.7" height="2.7"/>
<polygon class="st8" points="43.3,38.9 43.3,36.2 46,36.2 "/>
<rect x="47.2" y="36.3" class="st7" width="2.7" height="2.7"/>
<polygon class="st8" points="47.2,38.9 47.2,36.2 49.8,36.2 "/>
<rect x="35.5" y="40" class="st7" width="2.7" height="2.7"/>
<polygon class="st8" points="35.5,42.7 35.5,40 38.2,40 "/>
<rect x="39.4" y="40" class="st7" width="2.7" height="2.7"/>
<polygon class="st8" points="39.4,42.7 39.4,40 42.1,40 "/>
<rect x="43.3" y="40" class="st7" width="2.7" height="2.7"/>
<polygon class="st8" points="43.3,42.7 43.3,40 46,40 "/>
<rect x="47.2" y="40" class="st7" width="2.7" height="2.7"/>
<polygon class="st8" points="47.2,42.7 47.2,40 49.8,40 "/>
<rect x="35.5" y="43.8" class="st7" width="2.7" height="2.7"/>
<polygon class="st8" points="35.5,46.5 35.5,43.8 38.2,43.8 "/>
<rect x="39.4" y="43.8" class="st7" width="2.7" height="2.7"/>
<polygon class="st8" points="39.4,46.5 39.4,43.8 42.1,43.8 "/>
<rect x="43.3" y="43.8" class="st7" width="2.7" height="2.7"/>
<polygon class="st8" points="43.3,46.5 43.3,43.8 46,43.8 "/>
<rect x="47.2" y="43.8" class="st7" width="2.7" height="2.7"/>
<polygon class="st8" points="47.2,46.5 47.2,43.8 49.8,43.8 "/>
<rect x="2.5" y="55" class="st5" width="21.5" height="1.4"/>
<rect x="61.6" y="54" class="st5" width="21.5" height="1.4"/>
<g class="st9">
	<path class="st4" d="M34,13.2v-2.5c0-0.1,0.1-0.2,0.2-0.2s0.2,0.1,0.2,0.2v1h1.1v-1c0-0.1,0.1-0.2,0.2-0.2s0.2,0.1,0.2,0.2v2.5
		c0,0.1-0.1,0.2-0.2,0.2s-0.2-0.1-0.2-0.2v-1h-1.1v1c0,0.1-0.1,0.2-0.2,0.2S34,13.3,34,13.2z"/>
</g>
<g class="st9">
	<path class="st4" d="M39,10.8c0.3,0.3,0.4,0.7,0.4,1.1S39.2,12.7,39,13c-0.3,0.3-0.6,0.5-1,0.5c-0.4,0-0.8-0.2-1.1-0.5
		c-0.3-0.3-0.4-0.7-0.4-1.1s0.2-0.8,0.4-1.1c0.3-0.3,0.6-0.5,1.1-0.5C38.3,10.3,38.7,10.5,39,10.8z M38.9,11.9
		c0-0.3-0.1-0.6-0.3-0.8c-0.2-0.2-0.4-0.3-0.7-0.3c-0.3,0-0.5,0.1-0.7,0.3c-0.2,0.2-0.3,0.5-0.3,0.8s0.1,0.6,0.3,0.8
		c0.2,0.2,0.4,0.3,0.7,0.3c0.3,0,0.5-0.1,0.7-0.3C38.8,12.4,38.9,12.2,38.9,11.9z"/>
</g>
<g class="st9">
	<path class="st4" d="M39.8,12.7c0.1-0.1,0.2-0.1,0.3,0c0.2,0.2,0.5,0.3,0.8,0.3c0.2,0,0.4-0.1,0.5-0.2c0.1-0.1,0.2-0.2,0.2-0.3
		c0-0.1,0-0.1,0-0.1c0,0-0.1-0.1-0.1-0.1c-0.1-0.1-0.3-0.2-0.6-0.2h0c-0.2,0-0.4-0.1-0.6-0.2c-0.2-0.1-0.3-0.2-0.4-0.3
		c-0.1-0.1-0.1-0.2-0.1-0.4c0-0.3,0.1-0.5,0.3-0.6c0.2-0.1,0.5-0.2,0.7-0.2c0.4,0,0.7,0.2,0.9,0.3c0.1,0.1,0.1,0.2,0.1,0.3
		c-0.1,0.1-0.2,0.1-0.3,0.1c-0.2-0.1-0.4-0.3-0.7-0.3c-0.2,0-0.4,0.1-0.5,0.1c-0.1,0.1-0.2,0.2-0.2,0.3c0,0.1,0,0.1,0,0.1
		c0,0,0.1,0.1,0.1,0.1c0.1,0.1,0.3,0.1,0.5,0.2h0c0.2,0,0.4,0.1,0.6,0.2c0.2,0.1,0.3,0.2,0.4,0.4c0.1,0.1,0.1,0.2,0.1,0.4
		c0,0.3-0.2,0.5-0.4,0.7c-0.2,0.2-0.5,0.2-0.8,0.2c-0.5,0-0.9-0.2-1.1-0.4C39.8,12.9,39.7,12.8,39.8,12.7z"/>
	<path class="st4" d="M43.5,12.3h-0.5v0.9c0,0.1-0.1,0.2-0.2,0.2c-0.1,0-0.2-0.1-0.2-0.2v-2.5c0-0.1,0.1-0.2,0.2-0.2h0h0.8
		c0.5,0,0.9,0.4,0.9,0.9C44.4,11.8,44,12.3,43.5,12.3z M42.9,11.8h0.5c0.3,0,0.4-0.2,0.4-0.4c0-0.2-0.2-0.4-0.4-0.4h-0.5V11.8z"/>
	<path class="st4" d="M44.6,10.6c0-0.1,0.1-0.2,0.2-0.2c0.1,0,0.2,0.1,0.2,0.2v2.5c0,0.1-0.1,0.2-0.2,0.2c-0.1,0-0.2-0.1-0.2-0.2
		V10.6z"/>
</g>
<g class="st9">
	<path class="st4" d="M47.5,10.9h-0.7v2.3c0,0.1-0.1,0.2-0.2,0.2c-0.1,0-0.2-0.1-0.2-0.2v-2.3h-0.7c-0.1,0-0.2-0.1-0.2-0.2
		c0-0.1,0.1-0.2,0.2-0.2h1.8c0.1,0,0.2,0.1,0.2,0.2C47.7,10.8,47.6,10.9,47.5,10.9z"/>
</g>
<path class="st4" d="M49.3,12.7h-1L48,13.3c0,0.1-0.1,0.2-0.2,0.2c0,0-0.1,0-0.1,0c-0.1,0-0.2-0.2-0.1-0.3l1-2.5
	c0-0.1,0.1-0.2,0.2-0.2c0.1,0,0.2,0.1,0.2,0.2l1,2.5c0,0.1,0,0.3-0.1,0.3c0,0-0.1,0-0.1,0c-0.1,0-0.2-0.1-0.2-0.2L49.3,12.7z
	 M49.1,12.2l-0.4-0.9l-0.3,0.9H49.1z"/>
<path class="st4" d="M50.2,13.2v-2.5c0-0.1,0.1-0.2,0.2-0.2c0.1,0,0.2,0.1,0.2,0.2V13h1.2c0.1,0,0.2,0.1,0.2,0.2
	c0,0.1-0.1,0.2-0.2,0.2h-1.4c0,0,0,0,0,0c0,0,0,0,0,0C50.3,13.4,50.2,13.3,50.2,13.2z"/>
</svg>
