<svg xmlns="http://www.w3.org/2000/svg" xmlns:xlink="http://www.w3.org/1999/xlink" viewBox="0 0 177.1 131.51"><defs><style>.cls-1{fill:#3a3b3d;}.cls-2{fill:#fff;}.cls-3{fill:#10162c;}.cls-4{fill:url(#radial-gradient);}.cls-5{fill:url(#linear-gradient);}.cls-6{fill:#e6e6e5;}.cls-7{fill:url(#linear-gradient-2);}.cls-8{fill:#f4f5f5;}.cls-9{fill:#3672a4;}.cls-10,.cls-38,.cls-41,.cls-44{fill:none;stroke-miterlimit:10;}.cls-10{stroke:#fff;stroke-width:0.1px;}.cls-11{fill:url(#linear-gradient-3);}.cls-12{fill:#4bb8d7;}.cls-13{fill:url(#linear-gradient-4);}.cls-14{fill:#5b4380;}.cls-15{fill:url(#linear-gradient-5);}.cls-16{fill:#e31b74;}.cls-17{fill:url(#linear-gradient-6);}.cls-18{fill:url(#linear-gradient-7);}.cls-19{fill:url(#linear-gradient-8);}.cls-20{fill:#ea9633;}.cls-21{fill:url(#linear-gradient-9);}.cls-22{fill:url(#linear-gradient-10);}.cls-23{fill:url(#linear-gradient-11);}.cls-24{fill:#83c341;}.cls-25{fill:url(#linear-gradient-12);}.cls-26{fill:url(#linear-gradient-13);}.cls-27{fill:#db6666;}.cls-28{fill:#c83133;}.cls-29{opacity:0.93;}.cls-30{fill:#72ba44;}.cls-31{fill:#dcdcdc;}.cls-32{fill:#f7f8f9;}.cls-33{fill:#787878;}.cls-34{fill:#979797;}.cls-35{fill:#7bcdee;}.cls-36{fill:#c4dff4;}.cls-37{fill:#99c5df;}.cls-38{stroke:#99c5df;}.cls-38,.cls-41,.cls-44{stroke-linecap:round;}.cls-39{fill:#fdcc97;}.cls-40{fill:#e0a061;}.cls-41{stroke:#e0a061;}.cls-42{fill:#e2efd5;}.cls-43{fill:#c2d8a8;}.cls-44{stroke:#c2d8a8;stroke-width:0.75px;}</style><radialGradient id="radial-gradient" cx="71.94" cy="11.71" r="24.84" gradientTransform="translate(15.77 65.64) scale(0.99 1.07)" gradientUnits="userSpaceOnUse"><stop offset="0" stop-color="#f8a256"/><stop offset="1" stop-color="#f47f2b"/></radialGradient><linearGradient id="linear-gradient" x1="52.32" y1="85.81" x2="68.81" y2="85.81" gradientUnits="userSpaceOnUse"><stop offset="0" stop-color="#3571a4"/><stop offset="1" stop-color="#6e9ec7"/></linearGradient><linearGradient id="linear-gradient-2" x1="56.27" y1="82.96" x2="52.72" y2="85" gradientUnits="userSpaceOnUse"><stop offset="0" stop-color="#3571a4"/><stop offset="0.23" stop-color="#5389b7"/><stop offset="0.46" stop-color="#6e9ec7"/><stop offset="0.6" stop-color="#6899c3"/><stop offset="0.78" stop-color="#568cb9"/><stop offset="0.99" stop-color="#3a76a8"/><stop offset="1" stop-color="#3975a7"/></linearGradient><linearGradient id="linear-gradient-3" x1="52.32" y1="96.25" x2="68.81" y2="96.25" gradientUnits="userSpaceOnUse"><stop offset="0" stop-color="#55bbd9"/><stop offset="1" stop-color="#aaddeb"/></linearGradient><linearGradient id="linear-gradient-4" x1="87.92" y1="96.12" x2="104.4" y2="96.12" gradientUnits="userSpaceOnUse"><stop offset="0" stop-color="#604783"/><stop offset="1" stop-color="#8878a2"/></linearGradient><linearGradient id="linear-gradient-5" x1="105.73" y1="96.12" x2="122.22" y2="96.12" gradientUnits="userSpaceOnUse"><stop offset="0" stop-color="#e41e77"/><stop offset="1" stop-color="#ec649d"/></linearGradient><linearGradient id="linear-gradient-6" x1="70.14" y1="96.12" x2="86.62" y2="96.12" xlink:href="#linear-gradient-5"/><linearGradient id="linear-gradient-7" x1="70.14" y1="85.81" x2="86.62" y2="85.81" gradientUnits="userSpaceOnUse"><stop offset="0" stop-color="#ea9733"/><stop offset="0.35" stop-color="#eb9c3c"/><stop offset="0.92" stop-color="#eda953"/><stop offset="1" stop-color="#edab57"/></linearGradient><linearGradient id="linear-gradient-8" x1="74.27" y1="82.5" x2="70.61" y2="85.35" gradientUnits="userSpaceOnUse"><stop offset="0" stop-color="#ea9733"/><stop offset="0.18" stop-color="#eb9c3c"/><stop offset="0.48" stop-color="#eda953"/><stop offset="0.52" stop-color="#edab57"/><stop offset="1" stop-color="#ec9b38"/></linearGradient><linearGradient id="linear-gradient-9" x1="87.96" y1="85.81" x2="104.44" y2="85.81" gradientUnits="userSpaceOnUse"><stop offset="0" stop-color="#83c341"/><stop offset="1" stop-color="#87bd48"/></linearGradient><linearGradient id="linear-gradient-10" x1="92.61" y1="82.19" x2="88.16" y2="85.46" gradientUnits="userSpaceOnUse"><stop offset="0" stop-color="#7bb73c"/><stop offset="0.41" stop-color="#84bb45"/><stop offset="0.52" stop-color="#87bd48"/><stop offset="1" stop-color="#7cb83d"/></linearGradient><linearGradient id="linear-gradient-11" x1="89.29" y1="83.91" x2="91.47" y2="83.91" gradientUnits="userSpaceOnUse"><stop offset="0" stop-color="#83c341"/><stop offset="0.52" stop-color="#87bd48"/><stop offset="1" stop-color="#83c341"/></linearGradient><linearGradient id="linear-gradient-12" x1="105.65" y1="85.81" x2="122.14" y2="85.81" gradientUnits="userSpaceOnUse"><stop offset="0" stop-color="#c83234"/><stop offset="0.27" stop-color="#cb3b3c"/><stop offset="0.72" stop-color="#d55253"/><stop offset="1" stop-color="#dc6565"/></linearGradient><linearGradient id="linear-gradient-13" x1="109.99" y1="82.35" x2="105.27" y2="86.01" gradientUnits="userSpaceOnUse"><stop offset="0" stop-color="#cb3a3b"/><stop offset="0.17" stop-color="#ce4344"/><stop offset="0.44" stop-color="#d85a5b"/><stop offset="0.52" stop-color="#db6364"/><stop offset="1" stop-color="#ca3839"/></linearGradient></defs><title>Asset 7</title><g id="Layer_2" data-name="Layer 2"><g id="Layer_1-2" data-name="Layer 1"><rect class="cls-1" x="47.19" y="70.96" width="80.98" height="60.54" rx="2.81" ry="2.81"/><rect class="cls-2" x="51.57" y="74.91" width="72.22" height="47.21"/><path class="cls-3" d="M133.59,126H97.18v1.22h-19V126H39.84v3.6a1.94,1.94,0,0,0,1.93,1.93h91.82a1.94,1.94,0,0,0,1.93-1.93V126Z"/><rect class="cls-4" x="52.32" y="76.92" width="69.69" height="2.48"/><path class="cls-2" d="M54.39,78.57l-.23-.77-.24.77h-.1l-.28-.91h.11l.23.79.23-.79h.1l.23.79.23-.79h.1l-.28.91Z"/><path class="cls-2" d="M55.37,78.27h-.52a.23.23,0,0,0,.23.22.28.28,0,0,0,.2-.08l0,.06a.31.31,0,0,1-.25.11.32.32,0,0,1-.32-.35.32.32,0,0,1,.32-.35C55.28,77.88,55.38,78,55.37,78.27Zm-.08-.08a.21.21,0,0,0-.21-.22.22.22,0,0,0-.23.22Z"/><path class="cls-2" d="M55.54,78.57v-1h.1v1Z"/><path class="cls-2" d="M56.37,78l0,.08a.26.26,0,0,0-.19-.08.25.25,0,0,0,0,.5.24.24,0,0,0,.2-.08l.05.06a.3.3,0,0,1-.26.12.32.32,0,0,1-.31-.35.32.32,0,0,1,.31-.35A.34.34,0,0,1,56.37,78Z"/><path class="cls-2" d="M57.11,78.23a.33.33,0,0,1-.33.35.32.32,0,0,1-.32-.35.32.32,0,0,1,.32-.35A.33.33,0,0,1,57.11,78.23Zm-.56,0a.23.23,0,1,0,.46,0,.23.23,0,1,0-.46,0Z"/><path class="cls-2" d="M58.33,78.15v.42h-.1v-.39c0-.13-.06-.2-.17-.2s-.21.11-.21.26v.33h-.1v-.39c0-.13-.06-.2-.18-.2a.23.23,0,0,0-.21.26v.33h-.09v-.68h.09V78a.25.25,0,0,1,.25-.16.23.23,0,0,1,.23.18.25.25,0,0,1,.25-.18C58.24,77.88,58.33,78,58.33,78.15Z"/><path class="cls-2" d="M59.09,78.27h-.52a.22.22,0,0,0,.23.22.3.3,0,0,0,.2-.08l0,.06a.33.33,0,0,1-.26.11.32.32,0,0,1-.32-.35.32.32,0,0,1,.32-.35C59,77.88,59.1,78,59.09,78.27ZM59,78.19a.2.2,0,0,0-.21-.22.22.22,0,0,0-.22.22Z"/><path class="cls-2" d="M59.91,78.53a.24.24,0,0,1-.14,0c-.1,0-.16-.06-.16-.2V78h-.1v-.08h.1v-.18h.09v.18h.2V78h-.2v.38c0,.08,0,.11.08.11a.23.23,0,0,0,.11,0Z"/><path class="cls-2" d="M60.63,78.23a.32.32,0,0,1-.32.35.33.33,0,0,1-.33-.35.33.33,0,0,1,.33-.35A.32.32,0,0,1,60.63,78.23Zm-.55,0a.23.23,0,0,0,.23.26.24.24,0,0,0,.23-.26.23.23,0,0,0-.23-.25A.23.23,0,0,0,60.08,78.23Z"/><path class="cls-2" d="M61.86,78.57l-.23-.77-.23.77h-.1L61,77.66h.1l.24.79.23-.79h.09l.24.79.23-.79h.1l-.29.91Z"/><path class="cls-2" d="M62.46,77.69a.07.07,0,0,1-.07.07.07.07,0,0,1,0-.14A.07.07,0,0,1,62.46,77.69Zm-.11.88v-.68h.09v.68Z"/><path class="cls-2" d="M63,78.53a.24.24,0,0,1-.14,0c-.1,0-.16-.06-.16-.2V78h-.1v-.08h.1v-.18h.09v.18H63V78h-.2v.38c0,.08,0,.11.08.11a.23.23,0,0,0,.11,0Z"/><path class="cls-2" d="M63.48,78.53a.3.3,0,0,1-.15,0c-.09,0-.16-.06-.16-.2V78h-.09v-.08h.09v-.18h.09v.18h.2V78h-.2v.38c0,.08,0,.11.09.11l.1,0Z"/><path class="cls-2" d="M63.82,78.67c0,.11-.11.17-.19.17a.19.19,0,0,1-.13,0l0-.09a.17.17,0,0,0,.1,0s.09,0,.11-.1l0-.06-.27-.68h.1l.22.57.2-.57h.1Z"/><path class="cls-2" d="M64.92,77.66a.44.44,0,0,1,.43.46.43.43,0,0,1-.44.45h-.34v-.91Zm-.25.82h.25a.36.36,0,0,0,0-.72h-.24Z"/><path class="cls-2" d="M65.91,78.47a.27.27,0,0,1-.23.11.21.21,0,0,1-.22-.21c0-.12.09-.2.24-.2h.21v0a.15.15,0,0,0-.17-.16.37.37,0,0,0-.21.08l0-.07a.44.44,0,0,1,.26-.1.22.22,0,0,1,.25.24v.45h-.1Zm0-.13v-.09h-.2c-.11,0-.16,0-.16.12s0,.12.15.12A.21.21,0,0,0,65.91,78.34Z"/><path class="cls-2" d="M66.59,78l0,.08a.27.27,0,0,0-.17-.06c-.07,0-.13,0-.13.09s.36.08.36.32-.11.2-.23.2a.36.36,0,0,1-.25-.1l0-.07a.3.3,0,0,0,.21.08c.08,0,.14,0,.14-.09s-.36-.09-.36-.33a.2.2,0,0,1,.22-.19A.35.35,0,0,1,66.59,78Z"/><path class="cls-2" d="M67.35,78.15v.42h-.09v-.39c0-.13-.07-.2-.18-.2s-.21.11-.21.26v.33h-.1v-1h.1V78a.24.24,0,0,1,.24-.16C67.27,77.88,67.35,78,67.35,78.15Z"/><path class="cls-2" d="M68.22,78.23a.31.31,0,0,1-.3.35.26.26,0,0,1-.25-.15v.14h-.1v-1h.1V78a.27.27,0,0,1,.24-.15A.32.32,0,0,1,68.22,78.23Zm-.1,0a.23.23,0,1,0-.22.25A.22.22,0,0,0,68.12,78.23Z"/><path class="cls-2" d="M69,78.23a.33.33,0,1,1-.65,0,.33.33,0,1,1,.65,0Zm-.55,0a.23.23,0,0,0,.23.26.24.24,0,0,0,.23-.26.23.23,0,0,0-.23-.25A.23.23,0,0,0,68.42,78.23Z"/><path class="cls-2" d="M69.53,78.47a.27.27,0,0,1-.23.11.21.21,0,0,1-.22-.21c0-.12.09-.2.24-.2h.21v0a.15.15,0,0,0-.17-.16.37.37,0,0,0-.21.08l0-.07a.45.45,0,0,1,.27-.1.22.22,0,0,1,.24.24v.45h-.1Zm0-.13v-.09h-.2c-.1,0-.16,0-.16.12s.06.12.15.12A.21.21,0,0,0,69.53,78.34Z"/><path class="cls-2" d="M69.93,78a.24.24,0,0,1,.23-.16V78a.22.22,0,0,0-.23.23v.36h-.09v-.68h.09Z"/><path class="cls-2" d="M70.87,78.57h-.09v-.14a.26.26,0,0,1-.25.15.32.32,0,0,1-.31-.35.32.32,0,0,1,.31-.35.28.28,0,0,1,.25.15v-.42h.09Zm-.09-.34a.23.23,0,0,0-.23-.25.23.23,0,0,0-.23.25.23.23,0,0,0,.23.26A.24.24,0,0,0,70.78,78.23Z"/><rect class="cls-5" x="52.32" y="82.8" width="16.49" height="6.01"/><rect class="cls-6" x="52.32" y="88.61" width="16.49" height="2.02"/><rect class="cls-7" x="52.91" y="81.89" width="3.63" height="3.92" rx="0.7" ry="0.7"/><path class="cls-8" d="M55.27,83a.55.55,0,1,1-.54-.59A.56.56,0,0,1,55.27,83Z"/><rect class="cls-8" x="53.76" y="83.71" width="1.94" height="1.44" rx="0.28" ry="0.28"/><rect class="cls-8" x="65.65" y="83.71" width="2.3" height="0.26"/><rect class="cls-8" x="65.65" y="84.11" width="2.3" height="0.26"/><rect class="cls-8" x="65.65" y="84.5" width="2.3" height="0.26"/><rect class="cls-8" x="62.14" y="85.81" width="5.82" height="0.26"/><rect class="cls-9" x="52.93" y="89.59" width="3.27" height="0.26"/><path class="cls-9" d="M68,89.72a.25.25,0,1,1-.49,0,.25.25,0,1,1,.49,0Z"/><path class="cls-10" d="M67.83,89.72a.12.12,0,0,1-.12.13.12.12,0,0,1-.12-.13.13.13,0,0,1,.12-.13A.12.12,0,0,1,67.83,89.72Z"/><rect class="cls-11" x="52.32" y="93.25" width="16.49" height="6.01"/><rect class="cls-6" x="52.32" y="99.19" width="16.49" height="2.03"/><rect class="cls-8" x="52.93" y="96.65" width="4.97" height="0.39"/><rect class="cls-8" x="52.93" y="95.86" width="3.27" height="0.39"/><rect class="cls-8" x="52.93" y="95.08" width="3.27" height="0.4"/><rect class="cls-8" x="67.47" y="96.65" width="0.36" height="0.39"/><rect class="cls-8" x="67.47" y="95.86" width="0.36" height="0.39"/><rect class="cls-8" x="67.47" y="95.08" width="0.36" height="0.4"/><rect class="cls-12" x="52.93" y="100.17" width="5.45" height="0.26"/><path class="cls-12" d="M68,100.3a.25.25,0,1,1-.49,0,.25.25,0,1,1,.49,0Z"/><path class="cls-10" d="M67.83,100.3a.12.12,0,0,1-.12.13.13.13,0,0,1,0-.26A.12.12,0,0,1,67.83,100.3Z"/><rect class="cls-13" x="87.92" y="93.12" width="16.48" height="6.01"/><rect class="cls-6" x="87.92" y="99.06" width="16.48" height="2.02"/><rect class="cls-8" x="88.52" y="96.52" width="4.36" height="0.39"/><rect class="cls-8" x="88.52" y="95.73" width="3.27" height="0.39"/><rect class="cls-8" x="88.52" y="94.95" width="3.64" height="0.39"/><rect class="cls-8" x="103.07" y="96.52" width="0.36" height="0.39"/><rect class="cls-8" x="103.07" y="95.73" width="0.36" height="0.39"/><rect class="cls-8" x="103.07" y="94.95" width="0.36" height="0.39"/><rect class="cls-14" x="88.52" y="100.04" width="6.06" height="0.26"/><path class="cls-14" d="M103.55,100.17a.25.25,0,0,1-.24.26.26.26,0,0,1,0-.52A.25.25,0,0,1,103.55,100.17Z"/><path class="cls-10" d="M103.43,100.17a.12.12,0,1,1-.12-.13A.12.12,0,0,1,103.43,100.17Z"/><rect class="cls-15" x="105.73" y="93.12" width="16.48" height="6.01"/><rect class="cls-6" x="105.73" y="99.06" width="16.48" height="2.02"/><rect class="cls-8" x="106.34" y="96.52" width="4.12" height="0.39"/><rect class="cls-8" x="106.34" y="95.73" width="4.97" height="0.39"/><rect class="cls-8" x="106.34" y="94.95" width="4.61" height="0.39"/><rect class="cls-8" x="120.88" y="96.52" width="0.36" height="0.39"/><rect class="cls-8" x="120.88" y="95.73" width="0.36" height="0.39"/><rect class="cls-8" x="120.88" y="94.95" width="0.36" height="0.39"/><rect class="cls-16" x="106.34" y="100.04" width="6.06" height="0.26"/><path class="cls-16" d="M121.37,100.17a.25.25,0,1,1-.24-.26A.25.25,0,0,1,121.37,100.17Z"/><path class="cls-10" d="M121.25,100.17a.13.13,0,0,1-.12.13.13.13,0,0,1,0-.26A.13.13,0,0,1,121.25,100.17Z"/><rect class="cls-17" x="70.14" y="93.12" width="16.48" height="6.01"/><rect class="cls-6" x="70.14" y="99.06" width="16.48" height="2.02"/><rect class="cls-8" x="70.74" y="96.52" width="4.12" height="0.39"/><rect class="cls-8" x="70.74" y="95.73" width="4.97" height="0.39"/><rect class="cls-8" x="70.74" y="94.95" width="4.61" height="0.39"/><rect class="cls-8" x="85.29" y="96.52" width="0.36" height="0.39"/><rect class="cls-8" x="85.29" y="95.73" width="0.36" height="0.39"/><rect class="cls-8" x="85.29" y="94.95" width="0.36" height="0.39"/><rect class="cls-16" x="70.74" y="100.04" width="6.06" height="0.26"/><path class="cls-16" d="M85.77,100.17a.25.25,0,0,1-.24.26.26.26,0,0,1,0-.52A.25.25,0,0,1,85.77,100.17Z"/><path class="cls-10" d="M85.65,100.17a.12.12,0,0,1-.12.13.13.13,0,0,1,0-.26A.12.12,0,0,1,85.65,100.17Z"/><rect class="cls-18" x="70.14" y="82.8" width="16.48" height="6.01"/><rect class="cls-6" x="70.14" y="88.61" width="16.48" height="2.02"/><rect class="cls-19" x="70.72" y="81.89" width="3.64" height="3.92" rx="0.7" ry="0.7"/><path class="cls-8" d="M73.09,83a.57.57,0,0,1-.55.58.59.59,0,0,1,0-1.17A.57.57,0,0,1,73.09,83Z"/><rect class="cls-8" x="71.57" y="83.71" width="1.94" height="1.44" rx="0.28" ry="0.28"/><rect class="cls-8" x="83.47" y="83.71" width="2.3" height="0.26"/><rect class="cls-8" x="83.47" y="84.11" width="2.3" height="0.26"/><rect class="cls-8" x="83.47" y="84.5" width="2.3" height="0.26"/><rect class="cls-8" x="79.96" y="85.81" width="5.82" height="0.26"/><rect class="cls-20" x="70.74" y="89.59" width="3.27" height="0.26"/><path class="cls-20" d="M85.77,89.72a.25.25,0,0,1-.24.27.26.26,0,0,1-.24-.27.25.25,0,0,1,.24-.26A.25.25,0,0,1,85.77,89.72Z"/><path class="cls-10" d="M85.65,89.72a.12.12,0,0,1-.12.13.12.12,0,0,1-.12-.13.13.13,0,0,1,.12-.13A.12.12,0,0,1,85.65,89.72Z"/><rect class="cls-21" x="87.96" y="82.8" width="16.48" height="6.01"/><rect class="cls-6" x="87.96" y="88.61" width="16.48" height="2.02"/><rect class="cls-22" x="88.54" y="81.89" width="3.64" height="3.92" rx="0.7" ry="0.7"/><rect class="cls-8" x="89.05" y="82.8" width="2.67" height="2.22" rx="0.43" ry="0.43"/><rect class="cls-23" x="89.29" y="83.19" width="2.18" height="1.44" rx="0.28" ry="0.28"/><rect class="cls-8" x="102.26" y="84.11" width="1.33" height="0.26"/><rect class="cls-8" x="102.26" y="84.5" width="1.33" height="0.26"/><rect class="cls-8" x="97.77" y="85.81" width="5.82" height="0.26"/><rect class="cls-24" x="88.56" y="89.59" width="3.27" height="0.26"/><path class="cls-24" d="M103.59,89.72a.24.24,0,1,1-.48,0,.24.24,0,1,1,.48,0Z"/><path class="cls-10" d="M103.47,89.72a.12.12,0,1,1-.24,0,.12.12,0,1,1,.24,0Z"/><rect class="cls-25" x="105.65" y="82.8" width="16.48" height="6.01"/><rect class="cls-6" x="105.65" y="88.61" width="16.48" height="2.02"/><rect class="cls-26" x="106.24" y="81.89" width="3.64" height="3.92" rx="0.7" ry="0.7"/><path class="cls-8" d="M107.17,82.8H109a.43.43,0,0,1,.43.43V84.6A.43.43,0,0,1,109,85h-1.82a.42.42,0,0,1-.42-.42V83.23a.42.42,0,0,1,.42-.42Z"/><rect class="cls-27" x="107.11" y="83.39" width="1.94" height="1.05" rx="0.2" ry="0.2"/><rect class="cls-8" x="119.95" y="84.11" width="1.33" height="0.26"/><rect class="cls-8" x="119.95" y="84.5" width="1.33" height="0.26"/><rect class="cls-8" x="115.47" y="85.81" width="5.82" height="0.26"/><rect class="cls-28" x="106.26" y="89.59" width="3.27" height="0.26"/><path class="cls-28" d="M121.29,89.72a.25.25,0,1,1-.24-.26A.25.25,0,0,1,121.29,89.72Z"/><path class="cls-10" d="M121.16,89.72a.12.12,0,0,1-.11.13.13.13,0,0,1-.13-.13.13.13,0,0,1,.13-.13A.12.12,0,0,1,121.16,89.72Z"/><g class="cls-29"><path class="cls-8" d="M80.42,117.45H53.62a.7.7,0,0,1-.69-.72V104.62a.7.7,0,0,1,.69-.72h26.8a.7.7,0,0,1,.69.72v12.11A.7.7,0,0,1,80.42,117.45Z"/><path class="cls-8" d="M80.42,117.47H53.62a.73.73,0,0,1-.71-.74V104.62a.73.73,0,0,1,.71-.74h26.8a.73.73,0,0,1,.71.74v12.11A.73.73,0,0,1,80.42,117.47Zm-26.8-13.55a.68.68,0,0,0-.67.7v12.11a.68.68,0,0,0,.67.7h26.8a.68.68,0,0,0,.67-.7V104.62a.68.68,0,0,0-.67-.7Z"/><path class="cls-8" d="M121.46,117.45H83a.7.7,0,0,1-.69-.72V104.62a.7.7,0,0,1,.69-.72h38.45a.7.7,0,0,1,.69.72v12.11A.7.7,0,0,1,121.46,117.45Z"/><path class="cls-8" d="M121.46,117.47H83a.72.72,0,0,1-.7-.74V104.62a.72.72,0,0,1,.7-.74h38.45a.73.73,0,0,1,.71.74v12.11A.73.73,0,0,1,121.46,117.47ZM83,103.92a.68.68,0,0,0-.67.7v12.11a.68.68,0,0,0,.67.7h38.45a.68.68,0,0,0,.67-.7V104.62a.68.68,0,0,0-.67-.7Z"/><rect class="cls-30" x="53.57" y="104.85" width="5.38" height="0.77"/><rect class="cls-30" x="83.22" y="104.85" width="4.13" height="0.77"/><rect class="cls-30" x="83.22" y="109.63" width="5.42" height="0.77"/><rect class="cls-31" x="53.57" y="105.85" width="26.85" height="0.05"/><rect class="cls-31" x="83.22" y="105.85" width="38.38" height="0.05"/><rect class="cls-31" x="83.22" y="110.65" width="38.38" height="0.05"/><rect class="cls-31" x="53.57" y="108.09" width="26.85" height="0.05"/><rect class="cls-31" x="53.57" y="109.84" width="26.85" height="0.05"/><rect class="cls-31" x="53.57" y="111.51" width="26.85" height="0.05"/><rect class="cls-31" x="53.57" y="113.25" width="26.85" height="0.05"/><rect class="cls-31" x="53.57" y="114.99" width="26.85" height="0.05"/><rect class="cls-32" x="53.57" y="108.11" width="26.85" height="1.75"/><rect class="cls-32" x="53.57" y="111.53" width="26.85" height="1.75"/><rect class="cls-32" x="53.57" y="114.95" width="26.85" height="1.75"/><rect class="cls-33" x="53.95" y="106.94" width="3.18" height="0.56"/><rect class="cls-33" x="63.94" y="106.94" width="5.2" height="0.56"/><rect class="cls-33" x="53.95" y="108.89" width="2.09" height="0.22"/><rect class="cls-33" x="53.95" y="110.59" width="2.09" height="0.22"/><rect class="cls-33" x="53.95" y="112.29" width="2.09" height="0.22"/><rect class="cls-33" x="53.95" y="114.01" width="2.09" height="0.22"/><rect class="cls-33" x="53.95" y="115.72" width="2.09" height="0.22"/><rect class="cls-33" x="64" y="108.89" width="5.79" height="0.22"/><rect class="cls-33" x="64" y="110.59" width="5.79" height="0.22"/><rect class="cls-33" x="64" y="112.29" width="5.79" height="0.22"/><rect class="cls-33" x="64" y="114.01" width="5.79" height="0.22"/><rect class="cls-33" x="64" y="115.72" width="5.79" height="0.22"/><path class="cls-34" d="M98.36,108.24H83.8a.07.07,0,0,1-.07-.07v-1.79a.07.07,0,0,1,.07-.07H98.36a.07.07,0,0,1,.06.07v1.79A.07.07,0,0,1,98.36,108.24ZM83.8,106.36l0,0v1.79a0,0,0,0,0,0,0H98.36a0,0,0,0,0,0,0v-1.79a0,0,0,0,0,0,0Z"/><path class="cls-34" d="M101.58,113H83.8a.07.07,0,0,1-.07-.07v-1.79a.07.07,0,0,1,.07-.07h17.78a.07.07,0,0,1,.06.07V113A.07.07,0,0,1,101.58,113ZM83.8,111.16a0,0,0,0,0,0,0V113a0,0,0,0,0,0,0h17.78a0,0,0,0,0,0,0v-1.79a0,0,0,0,0,0,0Z"/><path class="cls-34" d="M101.58,115.66H83.8a.07.07,0,0,1-.07-.07v-1.78a.07.07,0,0,1,.07-.07h17.78a.07.07,0,0,1,.06.07v1.78A.07.07,0,0,1,101.58,115.66ZM83.8,113.78s0,0,0,0v1.78l0,0h17.78a0,0,0,0,0,0,0v-1.78s0,0,0,0Z"/><path class="cls-34" d="M120.87,113H103.09A.07.07,0,0,1,103,113v-1.79a.07.07,0,0,1,.07-.07h17.78a.07.07,0,0,1,.07.07V113A.07.07,0,0,1,120.87,113Zm-17.78-1.88a0,0,0,0,0,0,0V113a0,0,0,0,0,0,0h17.78a0,0,0,0,0,0,0v-1.79a0,0,0,0,0,0,0Z"/><path class="cls-34" d="M111.27,108.24H99.82a.07.07,0,0,1-.06-.07v-1.79a.07.07,0,0,1,.06-.07h11.45a.07.07,0,0,1,.06.07v1.79A.07.07,0,0,1,111.27,108.24Zm-11.45-1.88,0,0v1.79a0,0,0,0,0,0,0h11.45a0,0,0,0,0,0,0v-1.79a0,0,0,0,0,0,0Z"/><rect class="cls-33" x="84.5" y="107.12" width="4.13" height="0.45"/><rect class="cls-33" x="84.5" y="111.99" width="4.13" height="0.45"/><rect class="cls-33" x="100.34" y="107.12" width="2.89" height="0.45"/><rect class="cls-33" x="103.57" y="111.85" width="2.89" height="0.45"/><rect class="cls-33" x="84.31" y="114.56" width="2.89" height="0.45"/><rect class="cls-33" x="99.84" y="113.76" width="0.04" height="1.88"/><rect class="cls-33" x="100.39" y="114.42" width="0.64" height="0.67"/><rect class="cls-33" x="119.69" y="111.71" width="0.61" height="0.64"/><polygon class="cls-33" points="101.21 112.22 101.36 111.95 101.06 111.95 101.21 112.22"/><polygon class="cls-33" points="97.98 107.44 98.13 107.17 97.84 107.17 97.98 107.44"/><path class="cls-35" d="M115.06,108h-1.71a.75.75,0,0,1-.73-.76h0a.75.75,0,0,1,.73-.76h1.71a.75.75,0,0,1,.73.76h0A.75.75,0,0,1,115.06,108Z"/><rect class="cls-2" x="113.08" y="107.06" width="2.23" height="0.38"/><path class="cls-35" d="M105.48,115.51h-1.71a.75.75,0,0,1-.73-.76h0a.75.75,0,0,1,.73-.76h1.71a.75.75,0,0,1,.73.76h0A.75.75,0,0,1,105.48,115.51Z"/><rect class="cls-2" x="103.51" y="114.57" width="2.23" height="0.38"/></g><rect class="cls-36" x="61.46" width="52.44" height="36.2" rx="5" ry="5"/><rect class="cls-37" x="72.8" y="4.93" width="29.28" height="1.56"/><rect class="cls-37" x="64.22" y="9.19" width="46.36" height="1.56"/><rect class="cls-37" x="64.22" y="13.44" width="46.36" height="1.56"/><rect class="cls-37" x="64.22" y="17.7" width="46.36" height="1.56"/><rect class="cls-37" x="64.22" y="21.96" width="46.36" height="1.56"/><rect class="cls-37" x="64.22" y="26.21" width="46.36" height="1.56"/><rect class="cls-37" x="64.22" y="30.47" width="46.36" height="1.56"/><line class="cls-38" x1="87.68" y1="56.83" x2="87.68" y2="40.46"/><line class="cls-38" x1="87.68" y1="66.92" x2="87.68" y2="61.7"/><line class="cls-38" x1="90.73" y1="41.91" x2="90.73" y2="40.46"/><line class="cls-38" x1="90.73" y1="56.81" x2="90.73" y2="47.28"/><line class="cls-38" x1="84.4" y1="41.91" x2="84.4" y2="40.46"/><line class="cls-38" x1="84.4" y1="60.63" x2="84.4" y2="58.58"/><line class="cls-38" x1="84.4" y1="54.36" x2="84.4" y2="44.83"/><rect class="cls-39" y="17.69" width="52.44" height="36.2" rx="5" ry="5"/><rect class="cls-40" x="11.34" y="22.62" width="29.28" height="1.56"/><rect class="cls-40" x="2.76" y="26.88" width="46.36" height="1.56"/><rect class="cls-40" x="2.76" y="31.13" width="46.36" height="1.56"/><rect class="cls-40" x="2.76" y="35.39" width="46.36" height="1.56"/><rect class="cls-40" x="2.76" y="39.65" width="46.36" height="1.56"/><rect class="cls-40" x="2.76" y="43.9" width="46.36" height="1.56"/><rect class="cls-40" x="2.76" y="48.16" width="46.36" height="1.56"/><line class="cls-41" x1="39.33" y1="70.26" x2="30.97" y2="56.18"/><line class="cls-41" x1="44.48" y1="78.93" x2="41.81" y2="74.45"/><line class="cls-41" x1="35.29" y1="57.49" x2="34.55" y2="56.23"/><line class="cls-41" x1="42.9" y1="70.3" x2="38.03" y2="62.1"/><line class="cls-41" x1="27.53" y1="56.81" x2="26.79" y2="55.56"/><line class="cls-41" x1="37.09" y1="72.9" x2="36.04" y2="71.14"/><line class="cls-41" x1="33.89" y1="67.51" x2="29.02" y2="59.32"/><rect class="cls-42" x="124.66" y="18.09" width="52.44" height="36.2" rx="5" ry="5"/><rect class="cls-43" x="136" y="23.02" width="29.28" height="1.56"/><rect class="cls-43" x="127.42" y="27.28" width="46.36" height="1.56"/><rect class="cls-43" x="127.42" y="31.53" width="46.36" height="1.56"/><rect class="cls-43" x="127.42" y="35.79" width="46.36" height="1.56"/><rect class="cls-43" x="127.42" y="40.05" width="46.36" height="1.56"/><rect class="cls-43" x="127.42" y="44.3" width="46.36" height="1.56"/><rect class="cls-43" x="127.42" y="48.56" width="46.36" height="1.56"/><line class="cls-44" x1="135.38" y1="70.26" x2="143.74" y2="56.18"/><line class="cls-44" x1="130.23" y1="78.93" x2="132.89" y2="74.45"/><line class="cls-44" x1="139.41" y1="57.49" x2="140.16" y2="56.23"/><line class="cls-44" x1="131.81" y1="70.3" x2="136.67" y2="62.1"/><line class="cls-44" x1="147.17" y1="56.81" x2="147.92" y2="55.56"/><line class="cls-44" x1="137.62" y1="72.9" x2="138.66" y2="71.14"/><line class="cls-44" x1="140.82" y1="67.51" x2="145.68" y2="59.32"/></g></g></svg>