<svg xmlns="http://www.w3.org/2000/svg" viewBox="0 0 68.71 66.43"><defs><style>.cls-1{fill:#40596b;}.cls-2{fill:#334a5e;}.cls-3{fill:#ffd15c;}.cls-4{fill:#f2f2f2;}.cls-5{fill:#72c06d;}.cls-6{fill:#2d9f48;}.cls-7{fill:#f05829;}.cls-8{fill:#ffde33;}</style></defs><title>Asset 17</title><g id="Layer_2" data-name="Layer 2"><g id="Layer_1-2" data-name="Layer 1"><rect class="cls-1" x="9.96" y="28.86" width="46.31" height="37.56"/><rect class="cls-2" x="9.96" y="28.86" width="46.31" height="2.58"/><rect class="cls-3" x="14.53" y="51.93" width="16.66" height="14.49"/><polygon class="cls-4" points="20.27 57.65 20.27 51.93 25.45 51.93 25.45 57.64 22.86 55.46 20.27 57.65"/><polygon class="cls-5" points="61.69 20.05 61.69 66.43 56 66.43 56 29.28 10.38 29.28 10.38 66.43 4.69 66.43 4.69 20.05 61.69 20.05"/><rect class="cls-6" x="4.69" y="20.05" width="57" height="3.62"/><path class="cls-7" d="M1.07,16.87,32.27.24a2,2,0,0,1,1.89,0L65.36,16.87a2,2,0,0,1-.95,3.78H2a2,2,0,0,1-.94-3.78"/><path class="cls-7" d="M68.15,48.7,58.42,30.83a4,4,0,0,0-6.93,0L41.76,48.7a4,4,0,0,0,0,4.06,4,4,0,0,0,3.5,2H64.68a4,4,0,0,0,3.5-2A4,4,0,0,0,68.15,48.7Z"/><path class="cls-8" d="M66.76,49.52,57,31.65a2.43,2.43,0,0,0-4.16,0L43.15,49.52a2.43,2.43,0,0,0,2.08,3.66H64.68a2.43,2.43,0,0,0,2.08-3.66Z"/><path class="cls-7" d="M55,51.57A1.61,1.61,0,1,1,56.57,50,1.61,1.61,0,0,1,55,51.57Z"/><path class="cls-7" d="M56.57,45.12a1.61,1.61,0,0,1-3.22,0V37.05a1.61,1.61,0,0,1,3.22,0Z"/></g></g></svg>