<svg xmlns="http://www.w3.org/2000/svg" xmlns:xlink="http://www.w3.org/1999/xlink" viewBox="0 0 82.14 82.16"><defs><style>.cls-1{fill:none;}.cls-2{fill:#334a5e;}.cls-3{fill:#fe8944;}.cls-4{fill:#40596b;}.cls-5{clip-path:url(#clip-path);}.cls-6{fill:#72c06d;}.cls-7{fill:#2d9f48;}.cls-8{fill:#f4a14e;}.cls-9{fill:#ea6d4b;}.cls-10{fill:#494b5b;}.cls-11{fill:#c69a6a;}.cls-12{fill:#d3aa81;}.cls-13{fill:#b58657;}.cls-14{fill:#e28d40;}.cls-15{fill:#e8dbc4;}.cls-16{fill:#f05829;}</style><clipPath id="clip-path"><path class="cls-1" d="M50.11,50.14A25.34,25.34,0,0,1,14.37,50a25,25,0,0,1,.17-35.58A25.22,25.22,0,1,1,50.11,50.14Z"/></clipPath></defs><title>Asset 18</title><g id="Layer_2" data-name="Layer 2"><g id="Layer_1-2" data-name="Layer 1"><polygon class="cls-2" points="61.74 56.29 56.27 61.77 50.63 56.12 56.1 50.65 61.74 56.29"/><path class="cls-3" d="M79.7,79.73h0a8.36,8.36,0,0,1-11.8,0L51.83,63.65l11.8-11.8L79.7,67.92A8.36,8.36,0,0,1,79.7,79.73Z"/><path class="cls-4" d="M55.25,9.43a32.36,32.36,0,0,0-45.67,0,32,32,0,0,0-.17,45.5A32.29,32.29,0,0,0,55.25,9.43Z"/><g class="cls-5"><path class="cls-6" d="M58.07,31.71q0,1.23-.11,2.43a25.85,25.85,0,0,1-3.45,10.71,26.18,26.18,0,0,1-5.9,6.93,25.9,25.9,0,0,1-15.78,5.94H31.41q-1.13,0-2.23-.15a25.67,25.67,0,0,1-3.72-.68q-1-.25-1.91-.58a25.87,25.87,0,0,1-5.95-3,26.14,26.14,0,0,1-8-8.5A25.95,25.95,0,0,1,6,31.71q0-1.3.13-2.57A26,26,0,0,1,54.51,18.57,25.83,25.83,0,0,1,57.44,26a25.35,25.35,0,0,1,.47,2.85q.13,1.16.15,2.35C58.07,31.38,58.07,31.55,58.07,31.71Z"/><path class="cls-7" d="M57.32,28.73H53.63a1.35,1.35,0,1,1,0-2.71h3.81a25.35,25.35,0,0,1,.47,2.85A1.34,1.34,0,0,0,57.32,28.73Z"/><path class="cls-7" d="M58.07,31.71q0,1.23-.11,2.43h-1a1.35,1.35,0,1,1,0-2.71h.38a1.34,1.34,0,0,0,.74-.22C58.07,31.38,58.07,31.55,58.07,31.71Z"/><path class="cls-7" d="M16.49,35.91a1.35,1.35,0,0,1-1.35,1.35H6.62A26.05,26.05,0,0,1,6,31.71q0-1.3.13-2.57H13a1.35,1.35,0,1,1,0,2.71H8.66a1.35,1.35,0,1,0,0,2.71h6.47a1.36,1.36,0,0,1,1.35,1.35Z"/><path class="cls-8" d="M52.41,21.35V48.48a23.61,23.61,0,0,1-40.73,0V21.35Z"/><path class="cls-9" d="M52,16.44H12.08a1,1,0,0,0-1,.63l-2,4.7a1,1,0,0,0,1,1.46H54a1,1,0,0,0,1-1.46l-2-4.7A1,1,0,0,0,52,16.44Z"/><path class="cls-10" d="M48.61,32.56V53.37a23.58,23.58,0,0,1-33.12,0V32.56a1.36,1.36,0,0,1,1.36-1.36H47.25A1.36,1.36,0,0,1,48.61,32.56Z"/><path class="cls-11" d="M47.06,51.71v3.05a23.48,23.48,0,0,1-14.31,5.39H31.47q-1,0-2-.13V51.71H47.06Z"/><rect class="cls-11" x="37.73" y="41.21" width="7.9" height="10.5"/><rect class="cls-12" x="37.73" y="35.97" width="7.03" height="5.25"/><path class="cls-13" d="M32.76,51.71v8.44H31.47q-1,0-2-.13V51.71h3.31Z"/><rect class="cls-14" x="11.68" y="23.23" width="40.73" height="2.6"/><path class="cls-3" d="M51,19.91H40.86a1,1,0,0,1-1-1h0a1,1,0,0,1,1-1H51a1,1,0,0,1,1,1h0A1,1,0,0,1,51,19.91Z"/><path class="cls-12" d="M31.47,49V60.15q-1,0-2-.13a23.27,23.27,0,0,1-3.37-.62q-.88-.23-1.73-.52a23.45,23.45,0,0,1-5.39-2.68V49Z"/><rect class="cls-11" x="19.36" y="38.17" width="10.29" height="10.84"/><polygon class="cls-13" points="29.65 47.71 29.65 49.02 28.41 49.02 24.52 44.92 23.27 43.61 19.39 39.51 19.39 38.2 20.63 38.2 24.52 42.3 25.76 43.61 29.65 47.71"/><polygon class="cls-13" points="29.65 38.2 29.65 39.51 25.76 43.61 24.52 44.92 20.63 49.02 19.39 49.02 19.39 47.71 23.27 43.61 24.52 42.3 28.41 38.2 29.65 38.2"/><path class="cls-13" d="M26.07,49V59.4q-.88-.23-1.73-.52V49Z"/><rect class="cls-15" x="35.42" y="51.71" width="3.08" height="4.43"/><rect class="cls-15" x="23.6" y="38.17" width="2.59" height="3.72"/><rect class="cls-15" x="40.38" y="41.21" width="2.59" height="3.72"/></g><polygon class="cls-16" points="63.63 51.85 51.65 63.48 56.61 68.44 68.42 56.63 63.63 51.85"/></g></g></svg>