<svg xmlns="http://www.w3.org/2000/svg" xmlns:xlink="http://www.w3.org/1999/xlink" viewBox="0 0 67.75 67.75"><defs><style>.cls-1,.cls-5,.cls-8{fill:none;}.cls-2{fill:#556080;}.cls-3{fill:#72c06d;}.cls-4{clip-path:url(#clip-path);}.cls-5{stroke:#434d68;}.cls-5,.cls-8{stroke-linecap:round;stroke-miterlimit:10;stroke-width:1.6px;}.cls-6{fill:#f05829;}.cls-7{fill:#e7eced;}.cls-8{stroke:#fff;}</style><clipPath id="clip-path" transform="translate(0 -0.58)"><rect class="cls-1" width="68.34" height="69.74"/></clipPath></defs><title>Asset 19</title><g id="Layer_2" data-name="Layer 2"><g id="Layer_1-2" data-name="Layer 1"><path class="cls-2" d="M60.13,68.34H7.63A7.63,7.63,0,0,1,0,60.71V8.21A7.63,7.63,0,0,1,7.63.58h52.5a7.63,7.63,0,0,1,7.63,7.63v52.5a7.62,7.62,0,0,1-7.63,7.63Zm0,0" transform="translate(0 -0.58)"/><path class="cls-3" d="M50.23,31H17.52a11.68,11.68,0,1,1,0-23.36H50.23a11.68,11.68,0,0,1,0,23.36Zm0,0" transform="translate(0 -0.58)"/><g class="cls-4"><path class="cls-5" d="M50.23,31H17.52a11.68,11.68,0,1,1,0-23.36H50.23a11.68,11.68,0,0,1,0,23.36Zm0,0" transform="translate(0 -0.58)"/></g><path class="cls-6" d="M17.52,61.33H50.23a11.68,11.68,0,1,0,0-23.36H17.52a11.68,11.68,0,1,0,0,23.36Zm0,0" transform="translate(0 -0.58)"/><g class="cls-4"><path class="cls-5" d="M17.52,61.33H50.23a11.68,11.68,0,1,0,0-23.36H17.52a11.68,11.68,0,1,0,0,23.36Zm0,0" transform="translate(0 -0.58)"/></g><path class="cls-7" d="M61.91,19.28A11.68,11.68,0,1,1,50.23,7.59,11.68,11.68,0,0,1,61.91,19.28Zm0,0" transform="translate(0 -0.58)"/><g class="cls-4"><path class="cls-8" d="M61.91,19.28A11.68,11.68,0,1,1,50.23,7.59,11.68,11.68,0,0,1,61.91,19.28Zm0,0" transform="translate(0 -0.58)"/></g><path class="cls-7" d="M29.2,49.65A11.68,11.68,0,1,1,17.52,38,11.68,11.68,0,0,1,29.2,49.65Zm0,0" transform="translate(0 -0.58)"/><g class="cls-4"><path class="cls-8" d="M29.2,49.65A11.68,11.68,0,1,1,17.52,38,11.68,11.68,0,0,1,29.2,49.65Zm0,0" transform="translate(0 -0.58)"/></g></g></g></svg>