<svg xmlns="http://www.w3.org/2000/svg" viewBox="0 0 51.05 82.25"><defs><style>.cls-1{fill:#f05829;}.cls-2{fill:#72c06d;}.cls-3{fill:#ffa273;}</style></defs><title>Asset 22</title><g id="Layer_2" data-name="Layer 2"><g id="Layer_1-2" data-name="Layer 1"><path class="cls-1" d="M51.05,32.62A25.53,25.53,0,1,0,25.53,58.14,25.53,25.53,0,0,0,51.05,32.62"/><path class="cls-2" d="M25.53,7.09a25.39,25.39,0,0,1,15.6,5.35V0H9.93V12.44a25.39,25.39,0,0,1,15.6-5.35"/><path class="cls-2" d="M25.53,58.14a25.39,25.39,0,0,1-15.6-5.35V82.25l15.6-15.6,15.6,15.6V52.79a25.39,25.39,0,0,1-15.6,5.35"/><path class="cls-3" d="M26.75,46.77A8.74,8.74,0,0,1,23,45.85a6.84,6.84,0,0,1-2.9-2.34q-.66-1-.63-5l0-4A1.44,1.44,0,0,0,18,33.08H15.77a1.44,1.44,0,0,1-1.43-1.44v-1a1.42,1.42,0,0,1,1.41-1.44H18a1.42,1.42,0,0,0,1.41-1.44V26.69a36.91,36.91,0,0,0-.21-3.7,1.47,1.47,0,0,0-.21-.63A3.89,3.89,0,0,0,17.56,21a1.41,1.41,0,0,1-.47-2l.39-.63a1.43,1.43,0,0,1,1.86-.52,7.38,7.38,0,0,1,2.8,2.25,8.17,8.17,0,0,1,1.14,4.77l0,2.81a1.44,1.44,0,0,0,1.43,1.43h1.06a1.44,1.44,0,0,1,1.43,1.44v1a1.42,1.42,0,0,1-1.41,1.44H24.75a1.42,1.42,0,0,0-1.41,1.44l0,6.05A1.43,1.43,0,0,0,24,41.73a4.6,4.6,0,0,0,2.47,1A6,6,0,0,0,31,40.68,6.68,6.68,0,0,0,32.84,36a3.78,3.78,0,0,0-1.5-3.08,1.45,1.45,0,0,1,0-2.27l.9-.72a1.44,1.44,0,0,1,1.93.15,8.42,8.42,0,0,1,2.57,6,10.59,10.59,0,0,1-3,7.39A9.2,9.2,0,0,1,26.75,46.77Z"/></g></g></svg>