<svg xmlns="http://www.w3.org/2000/svg" xmlns:xlink="http://www.w3.org/1999/xlink" viewBox="0 0 72.81 72.81"><defs><style>.cls-1{fill:#fcd462;}.cls-2{fill:#72c06d;}.cls-3{fill:#f05829;}.cls-4{fill:url(#linear-gradient);}.cls-5{fill:#b35892;}.cls-6{fill:#44c4a1;}.cls-7{fill:#3ea69b;}.cls-8{fill:url(#linear-gradient-2);}.cls-9{fill:url(#linear-gradient-3);}.cls-10{fill:url(#linear-gradient-4);}.cls-11{fill:url(#linear-gradient-5);}.cls-12{fill:url(#linear-gradient-6);}.cls-13{fill:#fff;}.cls-14{fill:#f6c358;}.cls-15{fill:#dc8744;}.cls-16{fill:url(#linear-gradient-7);}</style><linearGradient id="linear-gradient" x1="4.32" y1="56.4" x2="68.48" y2="56.4" gradientUnits="userSpaceOnUse"><stop offset="0" stop-color="#e5c1db"/><stop offset="0.11" stop-color="#e7b4ca"/><stop offset="0.24" stop-color="#e8acbe"/><stop offset="0.37" stop-color="#e8a9ba"/><stop offset="1" stop-color="#ebd8c9"/></linearGradient><linearGradient id="linear-gradient-2" x1="4.32" y1="51.32" x2="68.48" y2="51.32" xlink:href="#linear-gradient"/><linearGradient id="linear-gradient-3" x1="4.32" y1="46.23" x2="68.48" y2="46.23" xlink:href="#linear-gradient"/><linearGradient id="linear-gradient-4" x1="4.32" y1="41.15" x2="68.48" y2="41.15" xlink:href="#linear-gradient"/><linearGradient id="linear-gradient-5" x1="4.32" y1="36.07" x2="68.48" y2="36.07" xlink:href="#linear-gradient"/><linearGradient id="linear-gradient-6" x1="10.25" y1="31.74" x2="62.56" y2="31.74" xlink:href="#linear-gradient"/><linearGradient id="linear-gradient-7" x1="32.06" y1="30.95" x2="42.68" y2="30.95" gradientUnits="userSpaceOnUse"><stop offset="0" stop-color="#e8a9ba"/><stop offset="1" stop-color="#e8afbc"/></linearGradient></defs><title>Asset 21</title><g id="Layer_2" data-name="Layer 2"><g id="Layer_1-2" data-name="Layer 1"><polygon class="cls-1" points="21.6 25.43 10.8 14.63 0 25.43 6.64 25.43 6.64 45.73 14.95 45.73 14.95 25.43 21.6 25.43"/><polygon class="cls-2" points="47.2 16.59 36.4 5.79 25.61 16.59 32.25 16.59 32.25 36.89 40.56 36.89 40.56 16.59 47.2 16.59"/><polygon class="cls-3" points="72.81 10.8 62.01 0 51.21 10.8 57.85 10.8 57.85 31.1 66.16 31.1 66.16 10.8 72.81 10.8"/><polygon class="cls-4" points="58.12 49.8 46.69 46.22 24.47 53.33 4.32 55.44 4.32 59.76 26.12 66.58 68.48 53.04 68.48 48.71 58.12 49.8"/><polygon class="cls-5" points="46.69 41.89 4.32 55.44 26.12 62.25 68.48 48.71 46.69 41.89"/><path class="cls-6" d="M23.24,60.38l-13-4.05c1.56-.5,1.55-1.3,0-1.8L43.87,43.78a11,11,0,0,0,5.69,0l13,4.05c-1.56.5-1.55,1.3,0,1.8L28.93,60.37A11,11,0,0,0,23.24,60.38Z"/><path class="cls-7" d="M42.21,50.22c4.11,1.28,4.83,3.16,1.62,4.18s-9.14.82-13.25-.47S25.76,50.77,29,49.75,38.11,48.93,42.21,50.22Z"/><path class="cls-7" d="M54.17,46.39c.73.23.74.6,0,.84a5.13,5.13,0,0,1-2.64,0c-.73-.23-.74-.6,0-.84A5.13,5.13,0,0,1,54.17,46.39Z"/><path class="cls-7" d="M21.26,56.91c.73.23.74.6,0,.84a5.13,5.13,0,0,1-2.64,0c-.73-.23-.74-.6,0-.84A5.13,5.13,0,0,1,21.26,56.91Z"/><path class="cls-6" d="M42.08,54,41,53.72a22.43,22.43,0,0,1-5.09.63l-.21-.73a18.83,18.83,0,0,0,3.73-.4l-2.8-.88a21.34,21.34,0,0,1-3.39.44,8,8,0,0,1-2.64-.35q-1.25-.39-1.18-.92t1.39-1l-.72-.23L31,50l.74.23a20,20,0,0,1,4.06-.61l.4.71a16.28,16.28,0,0,0-2.88.39l2.72.85h0a21.26,21.26,0,0,1,3.47-.44,8.24,8.24,0,0,1,2.7.36q1.26.4,1.17.93t-1.48,1l1,.33ZM31.74,51.45c0,.15.12.27.44.37a3.43,3.43,0,0,0,1.05.15,11.17,11.17,0,0,0,1.63-.18L32.37,51Q31.78,51.23,31.74,51.45Zm9.34,1q.07-.23-.44-.39a3.57,3.57,0,0,0-1.12-.15,11.88,11.88,0,0,0-1.73.2l2.6.81C40.81,52.79,41,52.63,41.09,52.47Z"/><polygon class="cls-8" points="58.12 44.71 46.69 41.14 24.47 48.24 4.32 50.35 4.32 54.68 26.12 61.5 68.48 47.96 68.48 43.63 58.12 44.71"/><polygon class="cls-5" points="46.69 36.81 4.32 50.35 26.12 57.17 68.48 43.63 46.69 36.81"/><path class="cls-6" d="M23.24,55.3l-13-4.05c1.56-.5,1.55-1.3,0-1.8L43.87,38.69a11,11,0,0,0,5.69,0l13,4.05c-1.56.5-1.55,1.3,0,1.8L28.93,55.29A11,11,0,0,0,23.24,55.3Z"/><path class="cls-7" d="M42.21,45.13c4.11,1.28,4.83,3.16,1.62,4.18s-9.14.82-13.25-.47S25.76,45.69,29,44.66,38.11,43.85,42.21,45.13Z"/><path class="cls-7" d="M54.17,41.31c.73.23.74.6,0,.84a5.13,5.13,0,0,1-2.64,0c-.73-.23-.74-.6,0-.84A5.13,5.13,0,0,1,54.17,41.31Z"/><path class="cls-7" d="M21.26,51.83c.73.23.74.6,0,.84a5.13,5.13,0,0,1-2.64,0c-.73-.23-.74-.6,0-.84A5.13,5.13,0,0,1,21.26,51.83Z"/><path class="cls-6" d="M42.08,49,41,48.63a22.43,22.43,0,0,1-5.09.63l-.21-.73a18.83,18.83,0,0,0,3.73-.4l-2.8-.88a21.34,21.34,0,0,1-3.39.44,8,8,0,0,1-2.64-.35q-1.25-.39-1.18-.92t1.39-1l-.72-.23.91-.29.74.23a20,20,0,0,1,4.06-.61l.4.71a16.28,16.28,0,0,0-2.88.39L36,46.5h0A21.26,21.26,0,0,1,39.55,46a8.24,8.24,0,0,1,2.7.36q1.26.4,1.17.93t-1.48,1l1,.33ZM31.74,46.37c0,.15.12.27.44.37a3.43,3.43,0,0,0,1.05.15,11.17,11.17,0,0,0,1.63-.18l-2.5-.78Q31.78,46.15,31.74,46.37Zm9.34,1q.07-.23-.44-.39a3.57,3.57,0,0,0-1.12-.15,11.88,11.88,0,0,0-1.73.2l2.6.81C40.81,47.7,41,47.54,41.09,47.39Z"/><polygon class="cls-9" points="58.12 39.63 46.69 36.05 24.47 43.16 4.32 45.27 4.32 49.6 26.12 56.41 68.48 42.87 68.48 38.54 58.12 39.63"/><polygon class="cls-5" points="46.69 31.73 4.32 45.27 26.12 52.09 68.48 38.54 46.69 31.73"/><path class="cls-6" d="M23.24,50.21l-13-4.05c1.56-.5,1.55-1.3,0-1.8L43.87,33.61a11,11,0,0,0,5.69,0l13,4.05c-1.56.5-1.55,1.3,0,1.8L28.93,50.2A11,11,0,0,0,23.24,50.21Z"/><path class="cls-7" d="M42.21,40c4.11,1.28,4.83,3.16,1.62,4.18s-9.14.82-13.25-.47S25.76,40.61,29,39.58,38.11,38.76,42.21,40Z"/><path class="cls-7" d="M54.17,36.23c.73.23.74.6,0,.84a5.13,5.13,0,0,1-2.64,0c-.73-.23-.74-.6,0-.84A5.13,5.13,0,0,1,54.17,36.23Z"/><path class="cls-7" d="M21.26,46.75c.73.23.74.6,0,.84a5.13,5.13,0,0,1-2.64,0c-.73-.23-.74-.6,0-.84A5.13,5.13,0,0,1,21.26,46.75Z"/><path class="cls-6" d="M42.08,43.88,41,43.55a22.43,22.43,0,0,1-5.09.63l-.21-.73a18.83,18.83,0,0,0,3.73-.4l-2.8-.88a21.34,21.34,0,0,1-3.39.44,8,8,0,0,1-2.64-.35q-1.25-.39-1.18-.92t1.39-1l-.72-.23.91-.29.74.23a20,20,0,0,1,4.06-.61l.4.71a16.28,16.28,0,0,0-2.88.39l2.72.85h0A21.26,21.26,0,0,1,39.55,41a8.24,8.24,0,0,1,2.7.36q1.26.4,1.17.93t-1.48,1l1,.33ZM31.74,41.29c0,.15.12.27.44.37a3.43,3.43,0,0,0,1.05.15,11.17,11.17,0,0,0,1.63-.18l-2.5-.78Q31.78,41.07,31.74,41.29Zm9.34,1q.07-.23-.44-.39a3.57,3.57,0,0,0-1.12-.15,11.88,11.88,0,0,0-1.73.2l2.6.81C40.81,42.62,41,42.46,41.09,42.3Z"/><polygon class="cls-10" points="58.12 34.55 46.69 30.97 24.47 38.07 4.32 40.18 4.32 44.51 26.12 51.33 68.48 37.79 68.48 33.46 58.12 34.55"/><polygon class="cls-5" points="46.69 26.64 4.32 40.18 26.12 47 68.48 33.46 46.69 26.64"/><path class="cls-6" d="M23.24,45.13l-13-4.05c1.56-.5,1.55-1.3,0-1.8L43.87,28.53a11,11,0,0,0,5.69,0l13,4.05c-1.56.5-1.55,1.3,0,1.8L28.93,45.12A11,11,0,0,0,23.24,45.13Z"/><path class="cls-7" d="M42.21,35c4.11,1.28,4.83,3.16,1.62,4.18s-9.14.82-13.25-.47S25.76,35.52,29,34.5,38.11,33.68,42.21,35Z"/><path class="cls-7" d="M54.17,31.14c.73.23.74.6,0,.84a5.13,5.13,0,0,1-2.64,0c-.73-.23-.74-.6,0-.84A5.13,5.13,0,0,1,54.17,31.14Z"/><path class="cls-7" d="M21.26,41.66c.73.23.74.6,0,.84a5.13,5.13,0,0,1-2.64,0c-.73-.23-.74-.6,0-.84A5.13,5.13,0,0,1,21.26,41.66Z"/><path class="cls-6" d="M42.08,38.8,41,38.47a22.43,22.43,0,0,1-5.09.63l-.21-.73a18.83,18.83,0,0,0,3.73-.4l-2.8-.88a21.34,21.34,0,0,1-3.39.44,8,8,0,0,1-2.64-.35q-1.25-.39-1.18-.92t1.39-1L30.1,35l.91-.29.74.23a20,20,0,0,1,4.06-.61l.4.71a16.28,16.28,0,0,0-2.88.39l2.72.85h0a21.26,21.26,0,0,1,3.47-.44,8.24,8.24,0,0,1,2.7.36q1.26.4,1.17.93t-1.48,1l1,.33ZM31.74,36.2c0,.15.12.27.44.37a3.43,3.43,0,0,0,1.05.15,11.17,11.17,0,0,0,1.63-.18l-2.5-.78Q31.78,36,31.74,36.2Zm9.34,1q.07-.23-.44-.39a3.57,3.57,0,0,0-1.12-.15,11.88,11.88,0,0,0-1.73.2l2.6.81C40.81,37.53,41,37.38,41.09,37.22Z"/><polygon class="cls-11" points="58.12 29.46 46.69 25.89 24.47 32.99 4.32 35.1 4.32 39.43 26.12 46.25 68.48 32.7 68.48 28.38 58.12 29.46"/><polygon class="cls-5" points="46.69 21.56 4.32 35.1 26.12 41.92 68.48 28.38 46.69 21.56"/><path class="cls-12" d="M23.24,40,10.28,36c1.56-.5,1.55-1.3,0-1.8L43.87,23.44a11,11,0,0,0,5.69,0l13,4.05c-1.56.5-1.55,1.3,0,1.8L28.93,40A11,11,0,0,0,23.24,40Z"/><polygon class="cls-13" points="42.33 36.74 42.33 61.41 52.07 58.29 52.07 33.62 42.33 36.74"/><polygon class="cls-1" points="43.49 36.37 43.49 61.04 44.5 60.71 44.5 36.04 43.49 36.37"/><polygon class="cls-1" points="49.91 34.31 49.91 58.99 50.91 58.66 50.91 33.99 49.91 34.31"/><path class="cls-14" d="M51,69.64c0,1.75-3.71,3.16-8.29,3.16s-8.29-1.42-8.29-3.16V67.05H51Z"/><ellipse class="cls-1" cx="42.72" cy="67.06" rx="8.29" ry="3.16"/><path class="cls-15" d="M42.72,64.51c-4,0-7.23,1.14-7.23,2.55s3.24,2.55,7.23,2.55,7.23-1.14,7.23-2.55S46.71,64.51,42.72,64.51Zm0,4.81c-3.55,0-6.43-1-6.43-2.26s2.88-2.26,6.43-2.26,6.43,1,6.43,2.26S46.27,69.32,42.72,69.32Z"/><path class="cls-15" d="M42.45,68.81V68.5a11.52,11.52,0,0,1-3-.46l.88-.37a8.76,8.76,0,0,0,2.09.37v-.82a11,11,0,0,1-2-.3q-.63-.19-.63-.55t.73-.6a6.79,6.79,0,0,1,1.9-.25V65.3h.77v.22a12,12,0,0,1,2.51.32l-.78.39A8.94,8.94,0,0,0,43.22,66v.8h0a10.86,10.86,0,0,1,2,.31q.65.2.65.57t-.75.6a7.24,7.24,0,0,1-2,.25v.31Zm-.85-2.74c-.21.06-.31.14-.31.24s.08.17.24.22a5.07,5.07,0,0,0,.92.16V66A3.34,3.34,0,0,0,41.6,66.07Zm2.54,1.86c.22-.06.34-.15.34-.25s-.09-.18-.26-.24a5.64,5.64,0,0,0-1-.16v.76A4,4,0,0,0,44.14,67.93Z"/><path class="cls-14" d="M51,66.5c0,1.75-3.71,3.16-8.29,3.16s-8.29-1.42-8.29-3.16V63.91H51Z"/><ellipse class="cls-1" cx="42.72" cy="63.91" rx="8.29" ry="3.16"/><path class="cls-15" d="M42.72,61.36c-4,0-7.23,1.14-7.23,2.55s3.24,2.55,7.23,2.55,7.23-1.14,7.23-2.55S46.71,61.36,42.72,61.36Zm0,4.81c-3.55,0-6.43-1-6.43-2.26s2.88-2.26,6.43-2.26,6.43,1,6.43,2.26S46.27,66.17,42.72,66.17Z"/><path class="cls-15" d="M42.45,65.67v-.31a11.52,11.52,0,0,1-3-.46l.88-.37a8.76,8.76,0,0,0,2.09.37v-.82a11,11,0,0,1-2-.3q-.63-.19-.63-.55t.73-.6a6.79,6.79,0,0,1,1.9-.25v-.21h.77v.22a12,12,0,0,1,2.51.32l-.78.39a8.94,8.94,0,0,0-1.72-.25v.8h0a10.86,10.86,0,0,1,2,.31q.65.2.65.57t-.75.6a7.24,7.24,0,0,1-2,.25v.31Zm-.85-2.74c-.21.06-.31.14-.31.24s.08.17.24.22a5.07,5.07,0,0,0,.92.16v-.73A3.34,3.34,0,0,0,41.6,62.93Zm2.54,1.86c.22-.06.34-.15.34-.25s-.09-.18-.26-.24a5.64,5.64,0,0,0-1-.16v.76A4,4,0,0,0,44.14,64.79Z"/><path class="cls-14" d="M51,63.36c0,1.75-3.71,3.16-8.29,3.16s-8.29-1.42-8.29-3.16V60.77H51Z"/><ellipse class="cls-1" cx="42.72" cy="60.77" rx="8.29" ry="3.16"/><path class="cls-15" d="M42.72,58.22c-4,0-7.23,1.14-7.23,2.55s3.24,2.55,7.23,2.55,7.23-1.14,7.23-2.55S46.71,58.22,42.72,58.22Zm0,4.81c-3.55,0-6.43-1-6.43-2.26s2.88-2.26,6.43-2.26,6.43,1,6.43,2.26S46.27,63,42.72,63Z"/><path class="cls-15" d="M42.45,62.53v-.31a11.52,11.52,0,0,1-3-.46l.88-.37a8.76,8.76,0,0,0,2.09.37v-.82a11,11,0,0,1-2-.3q-.63-.19-.63-.55t.73-.6a6.79,6.79,0,0,1,1.9-.25V59h.77v.22a12,12,0,0,1,2.51.32l-.78.39a8.94,8.94,0,0,0-1.72-.25v.8h0a10.86,10.86,0,0,1,2,.31q.65.2.65.57t-.75.6a7.24,7.24,0,0,1-2,.25v.31Zm-.85-2.74c-.21.06-.31.14-.31.24s.08.17.24.22a5.07,5.07,0,0,0,.92.16v-.73A3.34,3.34,0,0,0,41.6,59.79Zm2.54,1.86c.22-.06.34-.15.34-.25s-.09-.18-.26-.24a5.64,5.64,0,0,0-1-.16v.76A4,4,0,0,0,44.14,61.65Z"/><path class="cls-14" d="M51,60.21c0,1.75-3.71,3.16-8.29,3.16S34.43,62,34.43,60.21V57.62H51Z"/><ellipse class="cls-1" cx="42.72" cy="57.62" rx="8.29" ry="3.16"/><path class="cls-15" d="M42.72,55.08c-4,0-7.23,1.14-7.23,2.55s3.24,2.55,7.23,2.55,7.23-1.14,7.23-2.55S46.71,55.08,42.72,55.08Zm0,4.81c-3.55,0-6.43-1-6.43-2.26s2.88-2.26,6.43-2.26,6.43,1,6.43,2.26S46.27,59.89,42.72,59.89Z"/><path class="cls-15" d="M42.45,59.38v-.31a11.52,11.52,0,0,1-3-.46l.88-.37a8.76,8.76,0,0,0,2.09.37v-.82a11,11,0,0,1-2-.3q-.63-.19-.63-.55t.73-.6a6.79,6.79,0,0,1,1.9-.25v-.21h.77v.22a12,12,0,0,1,2.51.32l-.78.39a8.94,8.94,0,0,0-1.72-.25v.8h0a10.86,10.86,0,0,1,2,.31q.65.2.65.57t-.75.6a7.24,7.24,0,0,1-2,.25v.31Zm-.85-2.74c-.21.06-.31.14-.31.24s.08.17.24.22a5.07,5.07,0,0,0,.92.16v-.73A3.34,3.34,0,0,0,41.6,56.64Zm2.54,1.86c.22-.06.34-.15.34-.25s-.09-.18-.26-.24a5.64,5.64,0,0,0-1-.16v.76A4,4,0,0,0,44.14,58.5Z"/><path class="cls-14" d="M51,57.07c0,1.75-3.71,3.16-8.29,3.16s-8.29-1.42-8.29-3.16V54.48H51Z"/><ellipse class="cls-1" cx="42.72" cy="54.48" rx="8.29" ry="3.16"/><path class="cls-15" d="M42.72,51.94c-4,0-7.23,1.14-7.23,2.55S38.72,57,42.72,57s7.23-1.14,7.23-2.55S46.71,51.94,42.72,51.94Zm0,4.81c-3.55,0-6.43-1-6.43-2.26s2.88-2.26,6.43-2.26,6.43,1,6.43,2.26S46.27,56.74,42.72,56.74Z"/><path class="cls-15" d="M42.45,56.24v-.31a11.52,11.52,0,0,1-3-.46l.88-.37a8.76,8.76,0,0,0,2.09.37v-.82a11,11,0,0,1-2-.3q-.63-.19-.63-.55t.73-.6a6.79,6.79,0,0,1,1.9-.25v-.21h.77v.22a12,12,0,0,1,2.51.32l-.78.39a8.94,8.94,0,0,0-1.72-.25v.8h0a10.86,10.86,0,0,1,2,.31q.65.2.65.57t-.75.6a7.24,7.24,0,0,1-2,.25v.31ZM41.6,53.5c-.21.06-.31.14-.31.24s.08.17.24.22a5.07,5.07,0,0,0,.92.16v-.73A3.34,3.34,0,0,0,41.6,53.5Zm2.54,1.86c.22-.06.34-.15.34-.25s-.09-.18-.26-.24a5.64,5.64,0,0,0-1-.16v.76A4,4,0,0,0,44.14,55.36Z"/><path class="cls-14" d="M51,53.93c0,1.75-3.71,3.16-8.29,3.16s-8.29-1.42-8.29-3.16V51.34H51Z"/><ellipse class="cls-1" cx="42.72" cy="51.34" rx="8.29" ry="3.16"/><path class="cls-15" d="M42.72,48.79c-4,0-7.23,1.14-7.23,2.55s3.24,2.55,7.23,2.55,7.23-1.14,7.23-2.55S46.71,48.79,42.72,48.79Zm0,4.81c-3.55,0-6.43-1-6.43-2.26s2.88-2.26,6.43-2.26,6.43,1,6.43,2.26S46.27,53.6,42.72,53.6Z"/><path class="cls-15" d="M42.45,53.1v-.31a11.52,11.52,0,0,1-3-.46l.88-.37a8.76,8.76,0,0,0,2.09.37V51.5a11,11,0,0,1-2-.3q-.63-.19-.63-.55t.73-.6a6.79,6.79,0,0,1,1.9-.25v-.21h.77v.22a12,12,0,0,1,2.51.32l-.78.39a8.94,8.94,0,0,0-1.72-.25v.8h0a10.86,10.86,0,0,1,2,.31q.65.2.65.57t-.75.6a7.24,7.24,0,0,1-2,.25v.31Zm-.85-2.74c-.21.06-.31.14-.31.24s.08.17.24.22a5.07,5.07,0,0,0,.92.16v-.73A3.34,3.34,0,0,0,41.6,50.36Zm2.54,1.86c.22-.06.34-.15.34-.25s-.09-.18-.26-.24a5.64,5.64,0,0,0-1-.16v.76A4,4,0,0,0,44.14,52.22Z"/><path class="cls-14" d="M51,50.78c0,1.75-3.71,3.16-8.29,3.16s-8.29-1.42-8.29-3.16V48.19H51Z"/><ellipse class="cls-1" cx="42.72" cy="48.2" rx="8.29" ry="3.16"/><path class="cls-15" d="M42.72,45.65c-4,0-7.23,1.14-7.23,2.55s3.24,2.55,7.23,2.55,7.23-1.14,7.23-2.55S46.71,45.65,42.72,45.65Zm0,4.81c-3.55,0-6.43-1-6.43-2.26s2.88-2.26,6.43-2.26,6.43,1,6.43,2.26S46.27,50.46,42.72,50.46Z"/><path class="cls-15" d="M42.45,50v-.31a11.52,11.52,0,0,1-3-.46l.88-.37a8.76,8.76,0,0,0,2.09.37v-.82a11,11,0,0,1-2-.3q-.63-.19-.63-.55t.73-.6a6.79,6.79,0,0,1,1.9-.25v-.21h.77v.22a12,12,0,0,1,2.51.32l-.78.39a8.94,8.94,0,0,0-1.72-.25v.8h0a10.86,10.86,0,0,1,2,.31q.65.2.65.57t-.75.6a7.24,7.24,0,0,1-2,.25V50Zm-.85-2.74c-.21.06-.31.14-.31.24s.08.17.24.22a5.07,5.07,0,0,0,.92.16V47.1A3.34,3.34,0,0,0,41.6,47.22Zm2.54,1.86c.22-.06.34-.15.34-.25s-.09-.18-.26-.24a5.64,5.64,0,0,0-1-.16v.76A4,4,0,0,0,44.14,49.08Z"/><path class="cls-14" d="M51,47.64c0,1.75-3.71,3.16-8.29,3.16s-8.29-1.42-8.29-3.16V45.05H51Z"/><ellipse class="cls-1" cx="42.72" cy="45.05" rx="8.29" ry="3.16"/><path class="cls-15" d="M42.72,42.51c-4,0-7.23,1.14-7.23,2.55s3.24,2.55,7.23,2.55,7.23-1.14,7.23-2.55S46.71,42.51,42.72,42.51Zm0,4.81c-3.55,0-6.43-1-6.43-2.26s2.88-2.26,6.43-2.26,6.43,1,6.43,2.26S46.27,47.31,42.72,47.31Z"/><path class="cls-14" d="M68.48,69.64c0,1.75-3.71,3.16-8.29,3.16s-8.29-1.42-8.29-3.16V67.05H68.48Z"/><ellipse class="cls-1" cx="60.19" cy="67.06" rx="8.29" ry="3.16"/><path class="cls-15" d="M60.19,64.51c-4,0-7.23,1.14-7.23,2.55s3.24,2.55,7.23,2.55,7.23-1.14,7.23-2.55S64.19,64.51,60.19,64.51Zm0,4.81c-3.55,0-6.43-1-6.43-2.26s2.88-2.26,6.43-2.26,6.43,1,6.43,2.26S63.75,69.32,60.19,69.32Z"/><path class="cls-15" d="M59.93,68.81V68.5A11.52,11.52,0,0,1,57,68l.88-.37a8.76,8.76,0,0,0,2.09.37v-.82a11,11,0,0,1-2-.3q-.63-.19-.63-.55t.73-.6a6.79,6.79,0,0,1,1.9-.25V65.3h.77v.22a12,12,0,0,1,2.51.32l-.78.39A8.94,8.94,0,0,0,60.7,66v.8h0a10.86,10.86,0,0,1,2,.31q.65.2.65.57t-.75.6a7.24,7.24,0,0,1-2,.25v.31Zm-.85-2.74c-.21.06-.31.14-.31.24s.08.17.24.22a5.07,5.07,0,0,0,.92.16V66A3.34,3.34,0,0,0,59.08,66.07Zm2.54,1.86c.22-.06.34-.15.34-.25s-.09-.18-.26-.24a5.64,5.64,0,0,0-1-.16v.76A4,4,0,0,0,61.62,67.93Z"/><path class="cls-14" d="M68.48,66.5c0,1.75-3.71,3.16-8.29,3.16s-8.29-1.42-8.29-3.16V63.91H68.48Z"/><ellipse class="cls-1" cx="60.19" cy="63.91" rx="8.29" ry="3.16"/><path class="cls-15" d="M60.19,61.36c-4,0-7.23,1.14-7.23,2.55s3.24,2.55,7.23,2.55,7.23-1.14,7.23-2.55S64.19,61.36,60.19,61.36Zm0,4.81c-3.55,0-6.43-1-6.43-2.26s2.88-2.26,6.43-2.26,6.43,1,6.43,2.26S63.75,66.17,60.19,66.17Z"/><path class="cls-15" d="M59.93,65.67v-.31a11.52,11.52,0,0,1-3-.46l.88-.37a8.76,8.76,0,0,0,2.09.37v-.82a11,11,0,0,1-2-.3q-.63-.19-.63-.55t.73-.6a6.79,6.79,0,0,1,1.9-.25v-.21h.77v.22a12,12,0,0,1,2.51.32l-.78.39a8.94,8.94,0,0,0-1.72-.25v.8h0a10.86,10.86,0,0,1,2,.31q.65.2.65.57t-.75.6a7.24,7.24,0,0,1-2,.25v.31Zm-.85-2.74c-.21.06-.31.14-.31.24s.08.17.24.22a5.07,5.07,0,0,0,.92.16v-.73A3.34,3.34,0,0,0,59.08,62.93Zm2.54,1.86c.22-.06.34-.15.34-.25s-.09-.18-.26-.24a5.64,5.64,0,0,0-1-.16v.76A4,4,0,0,0,61.62,64.79Z"/><path class="cls-14" d="M68.48,63.36c0,1.75-3.71,3.16-8.29,3.16s-8.29-1.42-8.29-3.16V60.77H68.48Z"/><ellipse class="cls-1" cx="60.19" cy="60.77" rx="8.29" ry="3.16"/><path class="cls-15" d="M60.19,58.22c-4,0-7.23,1.14-7.23,2.55s3.24,2.55,7.23,2.55,7.23-1.14,7.23-2.55S64.19,58.22,60.19,58.22Zm0,4.81c-3.55,0-6.43-1-6.43-2.26s2.88-2.26,6.43-2.26,6.43,1,6.43,2.26S63.75,63,60.19,63Z"/><path class="cls-15" d="M59.93,62.53v-.31a11.52,11.52,0,0,1-3-.46l.88-.37a8.76,8.76,0,0,0,2.09.37v-.82a11,11,0,0,1-2-.3q-.63-.19-.63-.55t.73-.6a6.79,6.79,0,0,1,1.9-.25V59h.77v.22a12,12,0,0,1,2.51.32l-.78.39a8.94,8.94,0,0,0-1.72-.25v.8h0a10.86,10.86,0,0,1,2,.31q.65.2.65.57t-.75.6a7.24,7.24,0,0,1-2,.25v.31Zm-.85-2.74c-.21.06-.31.14-.31.24s.08.17.24.22a5.07,5.07,0,0,0,.92.16v-.73A3.34,3.34,0,0,0,59.08,59.79Zm2.54,1.86c.22-.06.34-.15.34-.25s-.09-.18-.26-.24a5.64,5.64,0,0,0-1-.16v.76A4,4,0,0,0,61.62,61.65Z"/><path class="cls-14" d="M68.48,60.21c0,1.75-3.71,3.16-8.29,3.16S51.91,62,51.91,60.21V57.62H68.48Z"/><ellipse class="cls-1" cx="60.19" cy="57.62" rx="8.29" ry="3.16"/><path class="cls-15" d="M60.19,55.08c-4,0-7.23,1.14-7.23,2.55s3.24,2.55,7.23,2.55,7.23-1.14,7.23-2.55S64.19,55.08,60.19,55.08Zm0,4.81c-3.55,0-6.43-1-6.43-2.26s2.88-2.26,6.43-2.26,6.43,1,6.43,2.26S63.75,59.89,60.19,59.89Z"/><path class="cls-15" d="M59.93,59.38v-.31a11.52,11.52,0,0,1-3-.46l.88-.37a8.76,8.76,0,0,0,2.09.37v-.82a11,11,0,0,1-2-.3q-.63-.19-.63-.55t.73-.6a6.79,6.79,0,0,1,1.9-.25v-.21h.77v.22a12,12,0,0,1,2.51.32l-.78.39a8.94,8.94,0,0,0-1.72-.25v.8h0a10.86,10.86,0,0,1,2,.31q.65.2.65.57t-.75.6a7.24,7.24,0,0,1-2,.25v.31Zm-.85-2.74c-.21.06-.31.14-.31.24s.08.17.24.22a5.07,5.07,0,0,0,.92.16v-.73A3.34,3.34,0,0,0,59.08,56.64Zm2.54,1.86c.22-.06.34-.15.34-.25s-.09-.18-.26-.24a5.64,5.64,0,0,0-1-.16v.76A4,4,0,0,0,61.62,58.5Z"/><path class="cls-14" d="M68.48,57.07c0,1.75-3.71,3.16-8.29,3.16s-8.29-1.42-8.29-3.16V54.48H68.48Z"/><ellipse class="cls-1" cx="60.19" cy="54.48" rx="8.29" ry="3.16"/><path class="cls-15" d="M60.19,51.94c-4,0-7.23,1.14-7.23,2.55S56.2,57,60.19,57s7.23-1.14,7.23-2.55S64.19,51.94,60.19,51.94Zm0,4.81c-3.55,0-6.43-1-6.43-2.26s2.88-2.26,6.43-2.26,6.43,1,6.43,2.26S63.75,56.74,60.19,56.74Z"/><ellipse class="cls-1" cx="45.52" cy="64.52" rx="9.12" ry="8.28"/><path class="cls-15" d="M45.52,57.29c-4.4,0-8,3.24-8,7.23s3.56,7.23,8,7.23,8-3.24,8-7.23S49.91,57.29,45.52,57.29Zm0,13.65c-3.91,0-7.08-2.88-7.08-6.43s3.17-6.43,7.08-6.43,7.08,2.88,7.08,6.43S49.42,70.95,45.52,70.95Z"/><path class="cls-15" d="M46.21,68.81a2.64,2.64,0,0,1-1.13-.28,2.07,2.07,0,0,1-.87-.71A3.39,3.39,0,0,1,44,66.32v-1.2a.43.43,0,0,0-.43-.43h-.69a.43.43,0,0,1-.43-.43v-.31a.43.43,0,0,1,.43-.43h.69a.43.43,0,0,0,.43-.43v-.32a11.15,11.15,0,0,0-.06-1.12.44.44,0,0,0-.06-.19,1.18,1.18,0,0,0-.44-.4.43.43,0,0,1-.14-.6l.12-.19A.43.43,0,0,1,44,60.1a2.23,2.23,0,0,1,.85.68,2.47,2.47,0,0,1,.34,1.44v.85a.43.43,0,0,0,.43.43h.32a.43.43,0,0,1,.43.43v.31a.43.43,0,0,1-.43.44H45.6a.43.43,0,0,0-.43.44v1.83a.43.43,0,0,0,.18.35,1.39,1.39,0,0,0,.75.31A1.8,1.8,0,0,0,47.48,67,2,2,0,0,0,48,65.55a1.14,1.14,0,0,0-.45-.93.44.44,0,0,1,0-.68l.27-.22a.44.44,0,0,1,.58,0,2.54,2.54,0,0,1,.77,1.81,3.2,3.2,0,0,1-.9,2.23A2.78,2.78,0,0,1,46.21,68.81Z"/><path class="cls-5" d="M32.65,27.92c2.08-1,5.59-1,8.46,0,3.38,1.15,5.47,3.5,3.83,5.37-2.05,2.33-8.05,2.3-11.9,0C30,31.38,30.21,29.06,32.65,27.92Z"/><path class="cls-16" d="M42.22,32.18a3,3,0,0,1-1.11.57,4,4,0,0,1-1.47.2,5.83,5.83,0,0,1-1.77-.68l-1.19-.59a.85.85,0,0,0-.78,0l-.61.41a.85.85,0,0,1-.8,0L34.2,32c-.22-.12-.21-.33,0-.46l.61-.39c.21-.13.2-.32,0-.42l-.27-.13q-.46-.23-1-.43a.69.69,0,0,0-.2,0,2.61,2.61,0,0,0-.7.05c-.28.06-.54,0-.58-.17l0-.13c0-.13.13-.26.38-.32a5,5,0,0,1,1.22-.13,3.61,3.61,0,0,1,1.41.38l.71.33a.83.83,0,0,0,.71,0l.24-.15a.84.84,0,0,1,.7,0l.28.12c.22.09.25.27.08.38l-.24.16c-.18.12-.15.31.08.41l1.82.84a.89.89,0,0,0,.5.07,2,2,0,0,0,.87-.29.8.8,0,0,0,.27-1,1.75,1.75,0,0,0-1-.84,2.33,2.33,0,0,0-1.15-.14c-.31,0-.61-.09-.61-.25v-.19c0-.12.18-.22.42-.23a5.19,5.19,0,0,1,2.09.3,3,3,0,0,1,1.64,1.28A1.21,1.21,0,0,1,42.22,32.18Z"/><path class="cls-15" d="M45.6,45.84a2.21,2.21,0,0,1-.83.43,3,3,0,0,1-1.1.15,4.36,4.36,0,0,1-1.32-.51l-.89-.44a.64.64,0,0,0-.58,0l-.46.31a.64.64,0,0,1-.6,0l-.21-.12c-.16-.09-.16-.24,0-.35l.46-.29c.15-.1.15-.24,0-.31l-.2-.1q-.34-.17-.72-.32l-.15,0a2,2,0,0,0-.52,0c-.21,0-.4,0-.43-.12l0-.1c0-.09.1-.2.28-.24a3.73,3.73,0,0,1,.91-.1,2.7,2.7,0,0,1,1.05.28l.53.24a.62.62,0,0,0,.53,0l.18-.11a.63.63,0,0,1,.52,0l.21.09c.16.07.19.2.06.29l-.18.12c-.14.09-.11.23.06.31l1.36.63a.66.66,0,0,0,.37,0,1.48,1.48,0,0,0,.65-.22.59.59,0,0,0,.2-.77A1.31,1.31,0,0,0,44,44a1.74,1.74,0,0,0-.86-.11c-.23,0-.45-.06-.45-.18v-.15c0-.09.14-.16.32-.17a3.88,3.88,0,0,1,1.56.22,2.23,2.23,0,0,1,1.23,1A.91.91,0,0,1,45.6,45.84Z"/><path class="cls-15" d="M63.37,55.13a2.21,2.21,0,0,1-.83.43,3,3,0,0,1-1.1.15,4.36,4.36,0,0,1-1.32-.51l-.89-.44a.64.64,0,0,0-.58,0l-.46.31a.64.64,0,0,1-.6,0L57.38,55c-.16-.09-.16-.24,0-.35l.46-.29c.15-.1.15-.24,0-.31l-.2-.1q-.34-.17-.72-.32l-.15,0a2,2,0,0,0-.52,0c-.21,0-.4,0-.43-.12l0-.1c0-.09.1-.2.28-.24a3.73,3.73,0,0,1,.91-.1,2.7,2.7,0,0,1,1.05.28l.53.24a.62.62,0,0,0,.53,0l.18-.11a.63.63,0,0,1,.52,0l.21.09c.16.07.19.2.06.29l-.18.12c-.14.09-.11.23.06.31l1.36.63a.66.66,0,0,0,.37,0,1.48,1.48,0,0,0,.65-.22.59.59,0,0,0,.2-.77,1.31,1.31,0,0,0-.76-.63,1.74,1.74,0,0,0-.86-.11c-.23,0-.45-.06-.45-.18V52.9c0-.09.14-.16.32-.17a3.88,3.88,0,0,1,1.56.22,2.23,2.23,0,0,1,1.23,1A.91.91,0,0,1,63.37,55.13Z"/></g></g></svg>