<svg xmlns="http://www.w3.org/2000/svg" viewBox="0 0 66.27 78.89"><defs><style>.cls-1{fill:#f05829;}.cls-2{fill:#fff;stroke:#d1cfcf;stroke-miterlimit:10;stroke-width:0.2px;}.cls-3{fill:#72c06d;}.cls-4{fill:#ffa273;}</style></defs><title>Asset 23</title><g id="Layer_2" data-name="Layer 2"><g id="Layer_1-2" data-name="Layer 1"><path class="cls-1" d="M.1,48.46V73.87a5.08,5.08,0,0,0,5.08,4.92H15.84V48.46Z"/><path class="cls-2" d="M61.25.1H5.18A5.11,5.11,0,0,0,.1,5.18V50.1L9.77,78.79H61.09a5.11,5.11,0,0,0,5.08-5.08V5.18A5.08,5.08,0,0,0,61.25.1Z"/><rect class="cls-3" x="8.62" y="8.46" width="49.35" height="3.28"/><rect class="cls-3" x="8.62" y="20.26" width="49.35" height="3.28"/><rect class="cls-3" x="8.62" y="31.9" width="49.35" height="3.28"/><rect class="cls-3" x="8.62" y="43.71" width="49.35" height="3.28"/><rect class="cls-3" x="26.33" y="55.35" width="31.48" height="3.28"/><rect class="cls-3" x="26.33" y="67.15" width="31.48" height="3.28"/><path class="cls-4" d="M12.89,61.74.1,50.1,9.77,78.79a10.23,10.23,0,0,1,3.11-7.21A6.7,6.7,0,0,0,12.89,61.74Z"/></g></g></svg>