<svg xmlns="http://www.w3.org/2000/svg" viewBox="0 0 66.96 82.61"><defs><style>.cls-1{fill:#fff;stroke:#d1cfcf;stroke-miterlimit:10;stroke-width:0.2px;}.cls-2{fill:#d5dced;}.cls-3{fill:#72c06d;}.cls-4{fill:#f05829;}.cls-5{fill:#ffde33;}.cls-6{fill:#7f8499;}.cls-7{fill:#5b5d6e;}.cls-8{fill:#f0c087;}.cls-9{fill:#e6af78;}</style></defs><title>Asset 20</title><g id="Layer_2" data-name="Layer 2"><g id="Layer_1-2" data-name="Layer 1"><path class="cls-1" d="M51.31,65.54H2.95A2.85,2.85,0,0,1,.1,62.69V2.95A2.85,2.85,0,0,1,2.95.1H51.31a2.85,2.85,0,0,1,2.85,2.85V62.69A2.85,2.85,0,0,1,51.31,65.54Z"/><path class="cls-2" d="M54.16,62.69V50.29c-.15.05-.3.08-.44.14a6.25,6.25,0,0,0-3.89-1.93q-.33,0-.65,0a6.51,6.51,0,0,0-.71,0v-15a6.41,6.41,0,0,0-6.4-6.4h0q-.32,0-.65,0a6.57,6.57,0,0,0-5.75,6.57v16.4l-3.48,3.48a9.9,9.9,0,0,0-2.65,9.32l.61,2.6H51.31A2.85,2.85,0,0,0,54.16,62.69Z"/><circle class="cls-3" cx="12.9" cy="17.17" r="4.27"/><circle class="cls-4" cx="12.9" cy="32.82" r="4.27"/><circle class="cls-5" cx="12.9" cy="48.47" r="4.27"/><path class="cls-6" d="M45.62,37.09H22.86a1.42,1.42,0,1,1,0-2.85H45.62a1.42,1.42,0,0,1,0,2.85Z"/><path class="cls-7" d="M39.93,31.4H22.86a1.42,1.42,0,0,1,0-2.85H39.93a1.42,1.42,0,1,1,0,2.85Z"/><path class="cls-6" d="M45.62,52.74H22.86a1.42,1.42,0,1,1,0-2.85H45.62a1.42,1.42,0,1,1,0,2.85Z"/><path class="cls-7" d="M39.93,47H22.86a1.42,1.42,0,1,1,0-2.85H39.93a1.42,1.42,0,1,1,0,2.85Z"/><path class="cls-6" d="M45.62,21.44H22.86a1.42,1.42,0,1,1,0-2.85H45.62a1.42,1.42,0,1,1,0,2.85Z"/><path class="cls-7" d="M39.93,15.75H22.86a1.42,1.42,0,1,1,0-2.85H39.93a1.42,1.42,0,1,1,0,2.85Z"/><path class="cls-8" d="M63.77,54.18a3.56,3.56,0,0,0-3.92,3.54V56.5a3.7,3.7,0,0,0-3.19-3.74,3.56,3.56,0,0,0-3.92,3.54V55.07a3.7,3.7,0,0,0-3.19-3.74,3.56,3.56,0,0,0-3.92,3.54V33.53A3.56,3.56,0,0,0,41.7,30a3.7,3.7,0,0,0-3.19,3.74V51.31L34.2,55.63a7.11,7.11,0,0,0-1.89,6.66l3,12.65A10,10,0,0,0,45,82.61H57a10,10,0,0,0,10-10V57.92A3.7,3.7,0,0,0,63.77,54.18Z"/><path class="cls-9" d="M47,58.34a1.42,1.42,0,0,0,1.42-1.42V51.4a3.54,3.54,0,0,0-2.85,3.47v2A1.42,1.42,0,0,0,47,58.34Z"/><path class="cls-9" d="M54.16,59.76a1.42,1.42,0,0,0,1.42-1.42V52.83a3.54,3.54,0,0,0-2.85,3.47v2A1.42,1.42,0,0,0,54.16,59.76Z"/><path class="cls-9" d="M61.27,61.18a1.42,1.42,0,0,0,1.42-1.42V54.25a3.54,3.54,0,0,0-2.85,3.47v2A1.42,1.42,0,0,0,61.27,61.18Z"/><path class="cls-9" d="M38.83,74.93l-3.3-14a4.59,4.59,0,0,1,1.22-4.3l1.76-1.76v3.56a1.42,1.42,0,1,0,2.85,0V30.06a3.72,3.72,0,0,0-2.85,3.67V51.31L34.2,55.63a7.11,7.11,0,0,0-1.89,6.66l3,12.65A10,10,0,0,0,45,82.61h3.55A10,10,0,0,1,38.83,74.93Z"/></g></g></svg>