<svg xmlns="http://www.w3.org/2000/svg" viewBox="0 0 85.38 66.77"><defs><style>.cls-1{fill:#fe8944;}.cls-2{fill:#feba00;}.cls-3{fill:#fee899;}.cls-4{fill:#72c06d;}.cls-5{fill:#2d9f48;}.cls-6{fill:#fff8f8;}</style></defs><title>Asset 16</title><g id="Layer_2" data-name="Layer 2"><g id="Layer_1-2" data-name="Layer 1"><polygon class="cls-1" points="75.18 15.85 52.47 15.85 47.77 17.59 44.28 36.88 47.77 57.92 75.18 57.92 75.18 15.85"/><polygon class="cls-1" points="20.35 15.85 20.35 57.92 47.77 57.92 47.77 17.59 43.06 15.85 20.35 15.85"/><polygon class="cls-2" points="52.47 15.85 47.77 15.85 44.28 21.45 47.77 27.06 52.47 27.06 52.47 15.85"/><rect class="cls-3" x="43.06" y="15.85" width="4.7" height="11.21"/><polygon class="cls-3" points="29.73 40.82 27.12 40.82 25.38 46.3 27.12 51.77 29.73 51.77 29.73 40.82"/><rect class="cls-3" x="24.51" y="40.82" width="2.61" height="10.95"/><polygon class="cls-3" points="36.5 40.82 33.89 40.82 32.14 46.3 33.89 51.77 36.5 51.77 36.5 40.82"/><rect class="cls-3" x="31.27" y="40.82" width="2.61" height="10.95"/><polygon class="cls-3" points="43.27 40.82 40.66 40.82 38.91 46.3 40.66 51.77 43.27 51.77 43.27 40.82"/><rect class="cls-3" x="38.04" y="40.82" width="2.61" height="10.95"/><polygon class="cls-4" points="85.38 55.3 42.69 55.3 39.2 57.92 42.69 60.53 85.38 60.53 85.38 55.3"/><polygon class="cls-4" points="11.92 55.3 11.92 5.12 0 5.12 0 10.35 6.69 10.35 6.69 60.53 42.69 60.53 42.69 55.3 11.92 55.3"/><path class="cls-5" d="M71.31,0,67.82,11.75l3.49,11.32A11.54,11.54,0,1,0,71.31,0Z"/><path class="cls-5" d="M59.77,11.54A11.54,11.54,0,0,0,71.31,23.08V0A11.54,11.54,0,0,0,59.77,11.54Z"/><path class="cls-5" d="M18.66,57.92l-3.49,4.43,3.49,4.43a4.43,4.43,0,0,0,0-8.85Z"/><path class="cls-5" d="M14.23,62.34a4.43,4.43,0,0,0,4.43,4.43V57.92A4.43,4.43,0,0,0,14.23,62.34Z"/><path class="cls-5" d="M73.49,57.92,70,62.34l3.49,4.43a4.43,4.43,0,0,0,0-8.85Z"/><path class="cls-5" d="M69.06,62.34a4.43,4.43,0,0,0,4.43,4.43V57.92A4.43,4.43,0,0,0,69.06,62.34Z"/><rect class="cls-6" x="67.82" y="3.32" width="4" height="11.53"/><rect class="cls-6" x="71.72" y="6.95" width="4" height="11.8" transform="translate(86.57 -60.86) rotate(90)"/></g></g></svg>