<svg xmlns="http://www.w3.org/2000/svg" viewBox="0 0 96.87 68.82"><defs><style>.cls-1{fill:#f05829;}.cls-2{fill:#d5e4f5;}.cls-3{fill:#a4c5e7;}.cls-4{fill:#237d3e;}.cls-5{fill:#f38066;}</style></defs><title>Asset 8</title><g id="Layer_2" data-name="Layer 2"><g id="Layer_1-2" data-name="Layer 1"><path class="cls-1" d="M71,0A14.14,14.14,0,1,0,85.1,14.14,14.15,14.15,0,0,0,71,0Z"/><path class="cls-2" d="M71,35A25.9,25.9,0,0,0,58,38.5a3.38,3.38,0,0,0,3.38,5.85L69.27,58A3.38,3.38,0,0,0,71,64.32H93.49a3.38,3.38,0,0,0,3.38-3.38A25.94,25.94,0,0,0,71,35Z"/><path class="cls-1" d="M25.91,0A14.14,14.14,0,1,0,40,14.14,14.15,14.15,0,0,0,25.91,0Z"/><path class="cls-3" d="M38.86,38.5A25.91,25.91,0,0,0,0,60.94a3.38,3.38,0,0,0,3.38,3.38H25.91A3.38,3.38,0,0,0,27.59,58l7.89-13.66a3.38,3.38,0,0,0,3.38-5.85Z"/><path class="cls-2" d="M48.43,35A25.94,25.94,0,0,0,22.53,60.94a3.38,3.38,0,0,0,3.38,3.38H71a3.38,3.38,0,0,0,3.38-3.38A25.94,25.94,0,0,0,48.43,35Z"/><path class="cls-3" d="M48.43,35V64.32H71a3.38,3.38,0,0,0,3.38-3.38A25.94,25.94,0,0,0,48.43,35Z"/><path class="cls-4" d="M48.43,35a3.38,3.38,0,0,0-3.38,3.38v27a3.38,3.38,0,1,0,6.76,0v-27A3.38,3.38,0,0,0,48.43,35Z"/><path class="cls-5" d="M48.43,0A14.14,14.14,0,1,0,62.57,14.14,14.15,14.15,0,0,0,48.43,0Z"/></g></g></svg>