<svg xmlns="http://www.w3.org/2000/svg" viewBox="0 0 73.22 74.02"><defs><style>.cls-1{fill:#e6e6e6;}.cls-2{fill:#b3b3b3;}.cls-3{fill:none;stroke:gray;stroke-miterlimit:10;stroke-width:0.1px;}.cls-4{fill:gray;}.cls-5{fill:#fbd08a;}.cls-6{fill:#f8dd57;}.cls-7{fill:#3a3a3a;}.cls-8{fill:#5cc3b6;}.cls-9{fill:#f37953;}.cls-10{fill:#2d9f48;}.cls-11{fill:#29a9e1;}.cls-12{fill:#f05829;}.cls-13{fill:#0c89e6;}.cls-14{fill:#02aff3;}.cls-15{fill:#f2f2f2;}</style></defs><title>Asset 12</title><g id="Layer_2" data-name="Layer 2"><g id="Layer_1-2" data-name="Layer 1"><path class="cls-1" d="M49.89,2.64V30.32A2.64,2.64,0,0,1,47.24,33H2.64A2.64,2.64,0,0,1,0,30.32V2.64A2.64,2.64,0,0,1,2.64,0h44.6a2.64,2.64,0,0,1,2.64,2.64Zm0,0"/><path class="cls-2" d="M49.88,2.64V5.27H0V2.64A2.64,2.64,0,0,1,2.64,0h44.6a2.64,2.64,0,0,1,2.64,2.64Zm0,0"/><line class="cls-3" x1="48.06" y1="1.04" x2="45.89" y2="3.21"/><line class="cls-3" x1="48.06" y1="3.21" x2="45.89" y2="1.04"/><line class="cls-3" x1="39.2" y1="1.74" x2="36.13" y2="1.74"/><polyline class="cls-3" points="41.91 3.24 41.61 3.24 41.61 0.89 43.96 0.89 43.96 1.23"/><rect class="cls-3" x="41.91" y="1.23" width="2.35" height="2.35"/><rect class="cls-4" x="4.92" y="8.59" width="38.3" height="20.94" rx="1.99" ry="1.99"/><path class="cls-5" d="M49.72,36.21l-6.67,6.15a7.85,7.85,0,0,1-10.64,0l-6.67-6.15a8,8,0,0,1-2.56-6.5l.39-8a13.92,13.92,0,0,1,.21-1.58,14.2,14.2,0,0,1,22.51-8.69q.57.43,1.1.92a14.5,14.5,0,0,1,1.2,1.26,14.14,14.14,0,0,1,3.09,6.51,13.92,13.92,0,0,1,.21,1.58l.39,8a8,8,0,0,1-2.56,6.5Zm0,0"/><path class="cls-6" d="M55.9,20.36H53.78a16.05,16.05,0,1,0-32.1,0H19.56a18.17,18.17,0,0,1,36.34,0Zm0,0"/><path class="cls-7" d="M51.69,20.14a14.14,14.14,0,0,0-3.09-6.51,14.5,14.5,0,0,0-1.2-1.26l-.52-.46-.11-.09-.44-.35,0,0h0a14.2,14.2,0,0,0-17.11,0h0l-.58.46-.05,0-.53.47-.06.06-.51.51,0,0q-.27.28-.52.58a14.14,14.14,0,0,0-3.09,6.5A12,12,0,0,0,29.18,17a12,12,0,0,0,17.11,0,12,12,0,0,0,5.4,3.18Zm0,0"/><path class="cls-1" d="M28.95,40.9l8.31,8.31-3.91,6.36-6.52-13Zm0,0"/><path class="cls-1" d="M46.52,40.9,38.2,49.21l3.91,6.36,6.52-13Zm0,0"/><path class="cls-8" d="M40,54.58l-2.3-3.91-2.3,3.91,2.3,2.31Zm0,0"/><path class="cls-8" d="M44.07,67.68,37.73,56.92,31.4,67.68,37.73,74Zm0,0"/><path class="cls-9" d="M29.74,36.66a1.06,1.06,0,0,1-1.06,1.06h-5a4.26,4.26,0,0,1-4.25-4.26V30.63h2.12v2.83a2.14,2.14,0,0,0,2.14,2.14h5a1.06,1.06,0,0,1,1.06,1.06Zm0,0"/><path class="cls-10" d="M22,18.55a6.66,6.66,0,0,0,0,13.31"/><path class="cls-10" d="M53.46,18.55a6.66,6.66,0,0,1,0,13.31"/><path class="cls-4" d="M29.74,36.66a1.06,1.06,0,0,1-1.06,1.06h-3.1V35.6h3.1a1.06,1.06,0,0,1,1.06,1.06Zm0,0"/><path class="cls-4" d="M71.28,69.24H51.69a1.94,1.94,0,0,1-1.94-1.94V42a1.94,1.94,0,0,1,1.94-1.94H71.28A1.94,1.94,0,0,1,73.22,42V67.3a1.94,1.94,0,0,1-1.94,1.94Zm0,0"/><rect class="cls-1" x="52.19" y="42.51" width="18.58" height="24.28"/><path class="cls-11" d="M63.67,38.76H59.29A1.23,1.23,0,0,0,58.06,40v4.14H64.9V40a1.23,1.23,0,0,0-1.23-1.23Zm0,0"/><rect class="cls-12" x="58.59" y="46.58" width="5.79" height="1.79"/><rect class="cls-4" x="54.47" y="50.51" width="14.02" height="1.79"/><rect class="cls-4" x="54.47" y="54.44" width="14.02" height="1.79"/><rect class="cls-4" x="54.47" y="58.36" width="14.02" height="1.79"/><rect class="cls-4" x="54.47" y="62.29" width="14.02" height="1.79"/><path class="cls-13" d="M9.1,39A9,9,0,0,0,3.39,54.88L1.58,60l4.67-3.49h0A9,9,0,1,0,9.1,39Zm0,0"/><path class="cls-14" d="M30,52.33l1.81-5.08-4.67,3.49h0A9,9,0,1,0,30,52.33Zm0,0"/><polygon class="cls-15" points="8.13 46.51 7.76 47.4 10.47 47.4 10.1 46.51 12.85 47.9 10.1 49.3 10.47 48.4 7.76 48.4 8.13 49.3 5.37 47.9 8.13 46.51"/><path class="cls-15" d="M13.49,52.87H4.72a.58.58,0,0,1-.58-.58V43.52a.58.58,0,0,1,.58-.58h8.78a.58.58,0,0,1,.58.58v8.77A.58.58,0,0,1,13.49,52.87ZM9.07,43.81A4.12,4.12,0,0,0,5,47.9,4.06,4.06,0,0,0,9.1,52a4.15,4.15,0,0,0,4.1-4.1A4,4,0,0,0,9.07,43.81Z"/><path class="cls-15" d="M29.72,60.6a1.53,1.53,0,0,1-.28-.9h0a5.18,5.18,0,0,0-7-4.87,1.53,1.53,0,0,1-.94,0,2.53,2.53,0,0,0-2.74,3.92,1.52,1.52,0,0,1,.28.9h0a5.18,5.18,0,0,0,7,4.87,1.53,1.53,0,0,1,.94,0,2.53,2.53,0,0,0,2.74-3.92Zm-5.27-1.83c1,.25,2.62.62,2.62,2.36A1.9,1.9,0,0,1,25.89,63a4.32,4.32,0,0,1-1.7.27,3.75,3.75,0,0,1-2.72-1.33.78.78,0,0,1,1.22-1,2.31,2.31,0,0,0,1.5.74c1.06,0,1.3-.28,1.33-.55s-.25-.57-1.43-.85c-1-.24-2.5-.59-2.5-2.2,0-.5.2-2.13,2.81-2.13a3.53,3.53,0,0,1,2.66,1.35.78.78,0,0,1-1.25.93,2.34,2.34,0,0,0-1.41-.72c-.63-.06-1.25.17-1.25.5S23.33,58.5,24.45,58.76Z"/></g></g></svg>