<svg xmlns="http://www.w3.org/2000/svg" viewBox="0 0 77.94 73.14"><defs><style>.cls-1{fill:#d6cdd0;}.cls-2{fill:#c2b7b8;}.cls-3{fill:#ebe6e9;}.cls-4{fill:#f05829;}.cls-5{fill:#fff;}.cls-6{fill:#4d4c4d;}.cls-7{fill:#cbcbca;}.cls-8{fill:#2d9f48;}.cls-9{fill:#979797;}</style></defs><title>Asset 11</title><g id="Layer_2" data-name="Layer 2"><g id="Layer_1-2" data-name="Layer 1"><path class="cls-1" d="M70.32,29,47.13,43.73,23.94,29a2.55,2.55,0,0,0-.83,1.88v29a2.55,2.55,0,0,0,.84,1.89L47.13,47,71,62.4h.2V30.87A2.55,2.55,0,0,0,70.32,29Z"/><path class="cls-2" d="M25.67,62.4H71L54.78,45.35H39.48L23.94,61.73A2.55,2.55,0,0,0,25.67,62.4Z"/><path class="cls-3" d="M25.67,28.3a2.55,2.55,0,0,0-1.73.68L45.36,51.47a2.42,2.42,0,0,0,3.54,0L70.32,29a2.55,2.55,0,0,0-1.73-.68Z"/><circle class="cls-4" cx="68.65" cy="60.25" r="9.29"/><path class="cls-5" d="M68.65,64.9a1.07,1.07,0,0,1-1.07-1.07v-4.7a1.07,1.07,0,0,1-1.11-1.77l1.43-1.43a1.07,1.07,0,0,1,1.83.76v7.14A1.07,1.07,0,0,1,68.65,64.9Z"/><path class="cls-6" d="M35,73.14H5.66A5.68,5.68,0,0,1,0,67.48V5.66A5.68,5.68,0,0,1,5.66,0H35a5.68,5.68,0,0,1,5.66,5.66V67.48A5.68,5.68,0,0,1,35,73.14Z"/><rect class="cls-5" x="2.68" y="5.77" width="35.27" height="57.68"/><path class="cls-7" d="M25.61,3.49H18.39a.59.59,0,0,1-.59-.59h0a.59.59,0,0,1,.59-.59h7.22a.59.59,0,0,1,.59.59h0A.59.59,0,0,1,25.61,3.49Z"/><circle class="cls-7" cx="15.03" cy="2.9" r="0.59"/><path class="cls-7" d="M20.32,71.08a2.79,2.79,0,1,1,2.79-2.79A2.79,2.79,0,0,1,20.32,71.08Zm0-5a2.22,2.22,0,1,0,2.22,2.22A2.22,2.22,0,0,0,20.32,66.07Z"/><path class="cls-5" d="M15,40H11.27a3.05,3.05,0,0,1-3.05-3V26.24a3.05,3.05,0,0,1,3.05-3H26a3.05,3.05,0,0,1,3.05,3V36.91A3.05,3.05,0,0,1,26,40H20.07L15,44.08Z"/><path class="cls-8" d="M26,23.76a2.48,2.48,0,0,1,2.48,2.48V36.91A2.48,2.48,0,0,1,26,39.38H19.86l-.32.26-4,3.24v-3.5h-4.3a2.48,2.48,0,0,1-2.48-2.48V26.24a2.48,2.48,0,0,1,2.48-2.48H26m0-1.14H11.27a3.63,3.63,0,0,0-3.62,3.62V36.91a3.63,3.63,0,0,0,3.62,3.62h3.16v4.76l5.84-4.76H26a3.63,3.63,0,0,0,3.62-3.62V26.24A3.63,3.63,0,0,0,26,22.62Z"/><path class="cls-8" d="M43.39,9.74H21.17a3.06,3.06,0,0,0-3.05,3.05V28.66a3.06,3.06,0,0,0,3.05,3.05H31.34l9.28,7.55V31.72h2.77a3.06,3.06,0,0,0,3.05-3.05V12.8A3.06,3.06,0,0,0,43.39,9.74Z"/><rect class="cls-5" x="22.56" y="15.97" width="19.45" height="0.57"/><rect class="cls-5" x="22.56" y="20.74" width="19.45" height="0.57"/><rect class="cls-5" x="22.56" y="25.51" width="19.45" height="0.57"/><rect class="cls-9" x="7.45" y="49.52" width="25.73" height="0.57"/><rect class="cls-9" x="7.45" y="53.12" width="25.73" height="0.57"/><rect class="cls-9" x="7.45" y="56.71" width="25.73" height="0.57"/></g></g></svg>