<svg xmlns="http://www.w3.org/2000/svg" viewBox="0 0 58.74 78.11"><defs><style>.cls-1{fill:#647989;}.cls-2{fill:#ebeff2;}.cls-3{fill:#fff;}.cls-4{fill:#3b566a;}.cls-5{fill:#e0e5e8;}.cls-6{fill:#f05829;}.cls-7{fill:#26a0da;}.cls-8{fill:#2d9f48;}.cls-9{fill:#fad362;}.cls-10{fill:#d24727;}.cls-11{fill:#2d92b9;}.cls-12{fill:#237d3e;}.cls-13{fill:#f4c158;}.cls-14{fill:#d4d5db;}</style></defs><title>Asset 10</title><g id="Layer_2" data-name="Layer 2"><g id="Layer_1-2" data-name="Layer 1"><path class="cls-1" d="M55.62,6.72H3.13A3.13,3.13,0,0,0,0,9.85V75a3.13,3.13,0,0,0,3.13,3.13H55.62A3.13,3.13,0,0,0,58.74,75V9.85A3.13,3.13,0,0,0,55.62,6.72Z"/><rect class="cls-2" x="3.44" y="10.83" width="51.86" height="63.97"/><rect class="cls-3" x="3.44" y="9.27" width="51.86" height="63.97"/><rect class="cls-4" x="13.17" y="6.72" width="32.4" height="2.54"/><rect class="cls-5" x="13.17" y="9.27" width="32.4" height="5.58"/><path class="cls-6" d="M42,4.65H34.15a4.78,4.78,0,0,0-9.55,0H16.77a1.3,1.3,0,0,0-1.3,1.3v6.61H43.28V5.95A1.3,1.3,0,0,0,42,4.65Z"/><rect class="cls-6" x="6.85" y="33.99" width="4.95" height="6.84"/><rect class="cls-7" x="13.53" y="26.27" width="4.95" height="14.56"/><rect class="cls-8" x="20.2" y="18.46" width="4.95" height="22.37"/><rect class="cls-9" x="26.88" y="28.94" width="4.95" height="11.89"/><rect class="cls-10" x="6.85" y="38.69" width="4.95" height="2.15"/><rect class="cls-11" x="13.53" y="38.69" width="4.95" height="2.15"/><rect class="cls-12" x="20.2" y="38.69" width="4.95" height="2.15"/><rect class="cls-13" x="26.88" y="38.69" width="4.95" height="2.15"/><rect class="cls-14" x="6.85" y="44.33" width="45.04" height="1.53"/><rect class="cls-14" x="36.63" y="20.15" width="15.26" height="1.53"/><rect class="cls-14" x="36.63" y="26.2" width="15.26" height="1.53"/><rect class="cls-14" x="36.63" y="32.25" width="15.26" height="1.53"/><rect class="cls-14" x="36.63" y="38.29" width="15.26" height="1.53"/><rect class="cls-14" x="6.85" y="50.38" width="45.04" height="1.53"/><rect class="cls-14" x="6.85" y="56.27" width="45.04" height="15.15"/><rect class="cls-2" x="6.85" y="55.65" width="45.04" height="15.15"/><path class="cls-8" d="M7.68,70.39a.43.43,0,0,1-.32-.71L13.09,63a.43.43,0,0,1,.53-.09L20,66.51l5.62-5.82a.43.43,0,0,1,.52-.07l6.77,4,5.25-5.8a.42.42,0,0,1,.51-.09l6.09,3.13L50,57.32a.43.43,0,0,1,.56.65l-5.47,4.7a.43.43,0,0,1-.47.06l-6.06-3.11-5.26,5.81a.43.43,0,0,1-.53.08l-6.78-4-5.61,5.81a.43.43,0,0,1-.52.08l-6.34-3.57L8,70.24A.43.43,0,0,1,7.68,70.39Z"/><path class="cls-6" d="M7.68,70.39a.43.43,0,0,1-.18-.82l7-3.2a.42.42,0,0,1,.34,0l5,2.1L25,65.78a.43.43,0,0,1,.31,0L32,67.6l6.21-3.72a.43.43,0,0,1,.32,0l7.53,1.8,2.11-1.46a.43.43,0,1,1,.48.7l-2.27,1.56a.43.43,0,0,1-.34.06l-7.54-1.8-6.22,3.72a.43.43,0,0,1-.33,0l-6.77-1.86-5.09,2.71a.42.42,0,0,1-.37,0l-5-2.1L7.86,70.35A.42.42,0,0,1,7.68,70.39Z"/></g></g></svg>