<svg xmlns="http://www.w3.org/2000/svg" viewBox="0 0 68.67 74.87"><defs><style>.cls-1{fill:#31343a;}.cls-2{fill:#404247;}.cls-3{fill:#70b0e0;}.cls-4{fill:#fcfdff;}.cls-5{fill:#2d9f48;}.cls-6{fill:#dedede;}.cls-7{fill:#f05829;}</style></defs><title>Asset 6</title><g id="Layer_2" data-name="Layer 2"><g id="Layer_1-2" data-name="Layer 1"><path class="cls-1" d="M0,52.51v7.6a2.34,2.34,0,0,0,2.37,2.37H66.3a2.34,2.34,0,0,0,2.37-2.37v-7.6Z"/><path class="cls-2" d="M68.67,15a2.34,2.34,0,0,0-2.37-2.37H2.37A2.34,2.34,0,0,0,0,15V52.51H68.67Z"/><rect class="cls-3" x="3.46" y="15.74" width="61.81" height="33.61"/><rect class="cls-2" x="26.98" y="62.48" width="14.77" height="8.39"/><path class="cls-1" d="M43.88,70.86H24.8a4,4,0,0,0-4,4H48A4,4,0,0,0,43.88,70.86Z"/><rect class="cls-4" x="13.07" width="42.54" height="49.35"/><rect class="cls-5" x="18.11" y="4.98" width="16.41" height="2.19"/><rect class="cls-6" x="18.11" y="11.06" width="32.39" height="2.19"/><rect class="cls-6" x="18.11" y="17.2" width="32.39" height="2.19"/><rect class="cls-6" x="31.66" y="23.34" width="18.9" height="2.19"/><rect class="cls-6" x="31.66" y="29.48" width="18.9" height="2.19"/><rect class="cls-6" x="31.66" y="35.55" width="18.9" height="2.19"/><rect class="cls-6" x="31.66" y="41.69" width="18.9" height="2.19"/><path class="cls-7" d="M24.59,41.61a4.92,4.92,0,0,1-2.08-.51,3.78,3.78,0,0,1-1.61-1.29,6.09,6.09,0,0,1-.34-2.76v-2.2a.8.8,0,0,0-.8-.8H18.49a.8.8,0,0,1-.8-.8v-.57a.8.8,0,0,1,.8-.8h1.27a.8.8,0,0,0,.8-.8v-.58a20.27,20.27,0,0,0-.11-2.05.81.81,0,0,0-.11-.35,2.17,2.17,0,0,0-.81-.74.78.78,0,0,1-.26-1.1l.22-.35a.81.81,0,0,1,1-.29,4.12,4.12,0,0,1,1.57,1.25,4.49,4.49,0,0,1,.62,2.65V31.1a.8.8,0,0,0,.8.8h.59a.8.8,0,0,1,.8.8v.57a.8.8,0,0,1-.8.8h-.59a.8.8,0,0,0-.8.8V38.2a.78.78,0,0,0,.32.64,2.58,2.58,0,0,0,1.38.56A3.38,3.38,0,0,0,27,38.26,3.68,3.68,0,0,0,28,35.66a2.07,2.07,0,0,0-.82-1.7.79.79,0,0,1,0-1.25l.51-.4a.81.81,0,0,1,1.08.09,4.59,4.59,0,0,1,1.41,3.31,5.84,5.84,0,0,1-1.7,4.07A5.2,5.2,0,0,1,24.59,41.61Z"/></g></g></svg>