<svg xmlns="http://www.w3.org/2000/svg" xmlns:xlink="http://www.w3.org/1999/xlink" viewBox="0 0 104.23 65.4"><defs><style>.cls-1{fill:url(#linear-gradient);}.cls-2{fill:#56806e;}.cls-3{fill:#f6faf5;}.cls-4{fill:#e42127;}.cls-13,.cls-5{fill:#fff;}.cls-5{stroke:#56806e;stroke-miterlimit:10;stroke-width:0.5px;}.cls-6{fill:url(#linear-gradient-2);}.cls-7{fill:#e5e6e6;}.cls-8{fill:#b0b5ba;}.cls-9{fill:#d5e4f5;}.cls-10{fill:#a4c5e7;}.cls-11{fill:#2d9f48;}.cls-12{fill:#f38066;}</style><linearGradient id="linear-gradient" x1="52.02" y1="-32.84" x2="95.31" y2="-32.84" gradientTransform="translate(48.68 -40.8) rotate(90)" gradientUnits="userSpaceOnUse"><stop offset="0" stop-color="#cdc1ab"/><stop offset="0.09" stop-color="#c5cdb0"/><stop offset="0.24" stop-color="#bdd9b4"/><stop offset="0.38" stop-color="#baddb6"/><stop offset="0.5" stop-color="#cedbbe"/><stop offset="0.64" stop-color="#ded9c4"/><stop offset="0.8" stop-color="#e8d8c8"/><stop offset="1" stop-color="#ebd8c9"/></linearGradient><linearGradient id="linear-gradient-2" x1="49.85" y1="-21.34" x2="93.14" y2="-21.34" gradientTransform="translate(56.96 -27.38) rotate(90)" xlink:href="#linear-gradient"/></defs><title>Asset 9</title><g id="Layer_2" data-name="Layer 2"><g id="Layer_1-2" data-name="Layer 1"><rect class="cls-1" x="69.08" y="11.22" width="24.89" height="43.29" transform="translate(41.22 110.98) rotate(-84.66)"/><path class="cls-2" d="M62.56,20.12l-2,21.74,40,3.73,2-21.74ZM99.28,41.66a2.32,2.32,0,0,0-2.56,2.06l-32.13-3a2.32,2.32,0,0,0-2.14-2.5l1.32-14.16A2.32,2.32,0,0,0,66.33,22l32.13,3a2.32,2.32,0,0,0,2.14,2.5Z"/><ellipse class="cls-3" cx="71.35" cy="31.91" rx="7.71" ry="6.32" transform="translate(32.94 99.99) rotate(-84.66)"/><path class="cls-2" d="M70.77,37.08a3.13,3.13,0,0,1-1.29-.44,2.41,2.41,0,0,1-.94-.91,3.88,3.88,0,0,1-.05-1.77l.13-1.39a.51.51,0,0,0-.46-.55l-.81-.08a.51.51,0,0,1-.46-.55l0-.36a.51.51,0,0,1,.55-.46l.81.08a.51.51,0,0,0,.55-.46l0-.37a12.9,12.9,0,0,0,.05-1.31.52.52,0,0,0-.05-.23,1.38,1.38,0,0,0-.47-.52.5.5,0,0,1-.1-.71l.16-.21a.51.51,0,0,1,.68-.12,2.62,2.62,0,0,1,.92.89,2.86,2.86,0,0,1,.24,1.72l-.09,1a.51.51,0,0,0,.46.55l.38,0a.51.51,0,0,1,.46.55l0,.36a.51.51,0,0,1-.55.46l-.38,0a.51.51,0,0,0-.55.46l-.2,2.12a.49.49,0,0,0,.17.43,1.64,1.64,0,0,0,.84.44,2.15,2.15,0,0,0,1.68-.57,2.34,2.34,0,0,0,.83-1.58,1.32,1.32,0,0,0-.42-1.13.51.51,0,0,1,.07-.79l.35-.22a.52.52,0,0,1,.68.12,2.92,2.92,0,0,1,.69,2.18,3.72,3.72,0,0,1-1.32,2.48A3.31,3.31,0,0,1,70.77,37.08Z"/><circle class="cls-4" cx="90.35" cy="34.92" r="3.35" transform="translate(47.18 121.64) rotate(-84.66)"/><path class="cls-2" d="M93,33.36l-.48,5.15s0,.06-.07.06l-.42,0s0,0,0,0a.25.25,0,0,0,0,0l.65-7c0-.31.09-.6.14-.91s.1-.59.14-.88l.16-1c0-.08,0-.08-.06-.08l-2.1-.15s-.06,0-.05.05q0,.91.05,1.83l0,.91a.51.51,0,0,1,0,.06q-.32,3.48-.65,7c0,.06,0,.07-.07.06l-.44,0s0,0,0,0a.26.26,0,0,0,0,0q.31-3.31.62-6.62c0-.31,0-.62,0-.93s0-.62,0-.92,0-.81,0-1.22c0-.05,0-.06-.06-.07l-1.86-.15s-.06,0-.05,0c0,.49.06,1,.1,1.48l.08,1.23a.61.61,0,0,1,0,.09q-.32,3.45-.64,6.91c0,.05,0,.07-.07.06l-.4,0s0,0,0-.05c0-.42.08-.83.12-1.25q.25-2.71.51-5.42a6.32,6.32,0,0,0,0-.79l0-1,0-1.13c0-.16,0-.33,0-.49s0-.05,0,0l2.54.19,2.73.2h.19s0,0,0,0c0,.35-.09.7-.14,1s-.11.85-.17,1.27C93.13,31.57,93.06,32.5,93,33.36Z"/><path class="cls-2" d="M86.34,34.69q-.15,1.6-.3,3.2c0,.05,0,.06-.07.06l-.27,0s0,0,0,0a.31.31,0,0,0,0,0q.28-3,.57-6.06c0-.06,0-.07-.06-.07l-.64-.06s-.06,0-.06.05q-.27,2.91-.54,5.81c0,.1,0,.2,0,.29s0,0,0,0l-.33,0s0,0,0-.05v0q.3-3.2.6-6.4c0-.05,0-.07.07-.06l1.43.13s.06,0,.05.07Q86.49,33.08,86.34,34.69Z"/><path class="cls-2" d="M94.15,35.41q.15-1.6.3-3.2c0-.05,0-.06.07-.06l1.44.13s.06,0,.05.06q-.3,3.21-.6,6.42s0,.06-.06,0l-.32,0s0,0,0,0a.35.35,0,0,0,0,0q.28-3,.57-6.05c0-.06,0-.07-.06-.07l-.64-.06s-.06,0-.06.05q-.1,1.11-.21,2.22-.18,1.93-.36,3.86c0,.06,0,.07-.08.06l-.27,0s0,0,0,0a.67.67,0,0,0,0-.07Z"/><path class="cls-2" d="M84.1,35.35q-.11,1.14-.21,2.28s0,.06-.06.05l-.28,0s0,0,0,0a.22.22,0,0,0,0,0q.2-2.11.4-4.22c0-.05,0-.07-.06-.07l-.6-.06s-.06,0-.07.06l-.39,4.24c0,.05,0,.07-.07.06l-.29,0s0,0,0-.06c0-.33.06-.67.09-1q.17-1.79.33-3.58s0-.06.07-.06l1.38.13s.06,0,.05.06Q84.21,34.2,84.1,35.35Z"/><path class="cls-2" d="M96.23,36.48q.11-1.14.21-2.29s0-.06.06-.05l1.39.13s.06,0,.05.06q-.22,2.29-.43,4.58s0,.06-.06.05l-.31,0s0,0,0,0a.29.29,0,0,0,0,0q.2-2.11.4-4.22c0-.05,0-.07-.06-.07l-.6-.06s-.06,0-.06.05l-.39,4.24c0,.05,0,.07-.07.06l-.25,0s-.05,0-.05-.06Q96.12,37.62,96.23,36.48Z"/><rect class="cls-5" x="81.99" y="38.15" width="15.73" height="0.94" transform="translate(3.98 -8.19) rotate(5.34)"/><rect class="cls-6" x="65.85" y="22.47" width="24.89" height="43.29" transform="matrix(0.09, -1, 1, 0.09, 27.09, 117.96)"/><path class="cls-2" d="M59.33,31.37l-2,21.74,40,3.73,2-21.74ZM96,52.91A2.32,2.32,0,0,0,93.49,55L61.36,52a2.32,2.32,0,0,0-2.14-2.5l1.32-14.16a2.32,2.32,0,0,0,2.56-2.06l32.13,3a2.32,2.32,0,0,0,2.14,2.5Z"/><ellipse class="cls-3" cx="68.12" cy="43.16" rx="7.71" ry="6.32" transform="translate(18.81 106.97) rotate(-84.66)"/><path class="cls-2" d="M67.54,48.33a3.13,3.13,0,0,1-1.29-.44,2.41,2.41,0,0,1-.94-.91,3.88,3.88,0,0,1-.05-1.77l.13-1.39a.51.51,0,0,0-.46-.55l-.81-.08a.51.51,0,0,1-.46-.55l0-.36a.51.51,0,0,1,.55-.46l.81.08a.51.51,0,0,0,.55-.46l0-.37a12.9,12.9,0,0,0,.05-1.31.52.52,0,0,0-.05-.23,1.38,1.38,0,0,0-.47-.52.5.5,0,0,1-.1-.71l.16-.21a.51.51,0,0,1,.68-.12,2.62,2.62,0,0,1,.92.89,2.86,2.86,0,0,1,.24,1.72l-.09,1a.51.51,0,0,0,.46.55l.38,0a.51.51,0,0,1,.46.55l0,.36a.51.51,0,0,1-.55.46l-.38,0a.51.51,0,0,0-.55.46l-.2,2.12a.49.49,0,0,0,.17.43,1.64,1.64,0,0,0,.84.44,2.15,2.15,0,0,0,1.68-.57,2.34,2.34,0,0,0,.83-1.58,1.32,1.32,0,0,0-.42-1.13.51.51,0,0,1,.07-.79l.35-.22a.52.52,0,0,1,.68.12,2.92,2.92,0,0,1,.69,2.18,3.72,3.72,0,0,1-1.32,2.48A3.31,3.31,0,0,1,67.54,48.33Z"/><circle class="cls-4" cx="87.12" cy="46.17" r="3.35" transform="translate(33.05 128.63) rotate(-84.66)"/><path class="cls-2" d="M89.75,44.61l-.48,5.15s0,.06-.07.06l-.42,0s0,0,0,0a.25.25,0,0,0,0,0l.65-7c0-.31.09-.6.14-.91s.1-.59.14-.88l.16-1c0-.08,0-.08-.06-.08l-2.1-.15s-.06,0-.05.05q0,.91.05,1.83l0,.91a.51.51,0,0,1,0,.06q-.32,3.48-.65,7c0,.06,0,.07-.07.06l-.44,0s0,0,0,0a.26.26,0,0,0,0,0q.31-3.31.62-6.62c0-.31,0-.62,0-.93s0-.62,0-.92,0-.81,0-1.22c0-.05,0-.06-.06-.07l-1.86-.15s-.06,0-.05,0c0,.49.06,1,.1,1.48l.08,1.23a.61.61,0,0,1,0,.09q-.32,3.45-.64,6.91c0,.05,0,.07-.07.06l-.4,0s0,0,0-.05c0-.42.08-.83.12-1.25q.25-2.71.51-5.42a6.32,6.32,0,0,0,0-.79l0-1,0-1.13c0-.16,0-.33,0-.49s0-.05,0,0l2.54.19,2.73.2h.19s0,0,0,0c0,.35-.09.7-.14,1s-.11.85-.17,1.27C89.9,42.82,89.83,43.75,89.75,44.61Z"/><path class="cls-2" d="M83.11,45.94q-.15,1.6-.3,3.2c0,.05,0,.06-.07.06l-.27,0s0,0,0,0a.31.31,0,0,0,0,0q.28-3,.57-6.06c0-.06,0-.07-.06-.07l-.64-.06s-.06,0-.06.05q-.27,2.91-.54,5.81c0,.1,0,.2,0,.29s0,0,0,0l-.33,0s0,0,0-.05v0q.3-3.2.6-6.4c0-.05,0-.07.07-.06l1.43.13s.06,0,.05.07Q83.26,44.33,83.11,45.94Z"/><path class="cls-2" d="M90.92,46.66q.15-1.6.3-3.2c0-.05,0-.06.07-.06l1.44.13s.06,0,.05.06q-.3,3.21-.6,6.42s0,.06-.06,0l-.32,0s0,0,0,0a.35.35,0,0,0,0,0q.28-3,.57-6.05c0-.06,0-.07-.06-.07l-.64-.06s-.06,0-.06.05q-.1,1.11-.21,2.22Q91.17,48,91,49.9c0,.06,0,.07-.08.06l-.27,0s0,0,0,0a.67.67,0,0,0,0-.07Z"/><path class="cls-2" d="M80.87,46.6q-.11,1.14-.21,2.28s0,.06-.06.05l-.28,0s0,0,0,0a.22.22,0,0,0,0,0q.2-2.11.4-4.22c0-.05,0-.07-.06-.07l-.6-.06s-.06,0-.07.06l-.39,4.24c0,.05,0,.07-.07.06l-.29,0s0,0,0-.06c0-.33.06-.67.09-1q.17-1.79.33-3.58s0-.06.07-.06l1.38.13s.06,0,.05.06Q81,45.45,80.87,46.6Z"/><path class="cls-2" d="M93,47.73q.11-1.14.21-2.29s0-.06.06-.05l1.39.13s.06,0,.05.06q-.22,2.29-.43,4.58s0,.06-.06.05l-.31,0s0,0,0,0a.29.29,0,0,0,0,0q.2-2.11.4-4.22c0-.05,0-.07-.06-.07l-.6-.06s-.06,0-.06.05L93.16,50c0,.05,0,.07-.07.06l-.25,0s-.05,0-.05-.06Q92.89,48.87,93,47.73Z"/><rect class="cls-5" x="78.76" y="49.4" width="15.73" height="0.94" transform="translate(5.01 -7.84) rotate(5.34)"/><path id="SVGCleanerId_0" data-name="SVGCleanerId 0" class="cls-7" d="M27.52,3.82a4.25,4.25,0,0,0-4.25,4.25V52.65H53v7.2a5.46,5.46,0,0,0,4.79,5.51,5.31,5.31,0,0,0,5.83-5.28v-51a5.31,5.31,0,0,1,5.31-5.31Z"/><path id="SVGCleanerId_0-2" data-name="SVGCleanerId 0" class="cls-7" d="M27.52,3.82a4.25,4.25,0,0,0-4.25,4.25V52.65H53v7.2a5.46,5.46,0,0,0,4.79,5.51,5.31,5.31,0,0,0,5.83-5.28v-51a5.31,5.31,0,0,1,5.31-5.31Z"/><path class="cls-8" d="M68.93,3.82h0a5.31,5.31,0,0,0-5.31,5.31v7.44h8.48a2.13,2.13,0,0,0,2.13-2.13V9.13a5.31,5.31,0,0,0-5.31-5.31"/><path class="cls-8" d="M58.32,65.4h0A5.31,5.31,0,0,1,53,60.09V52.66H14.8a2.13,2.13,0,0,0-2.13,2.13v5.31A5.31,5.31,0,0,0,18,65.4Z"/><path class="cls-8" d="M49.82,11.26H37.08a1.06,1.06,0,0,1,0-2.12H49.82a1.06,1.06,0,0,1,0,2.12"/><path class="cls-8" d="M57.26,17.63H29.65a1.06,1.06,0,1,1,0-2.12h27.6a1.06,1.06,0,1,1,0,2.12"/><path class="cls-8" d="M57.26,24H29.65a1.06,1.06,0,0,1,0-2.12h27.6a1.06,1.06,0,1,1,0,2.12"/><path class="cls-8" d="M42.36,30.37H29.65a1.06,1.06,0,0,1,0-2.12H42.36a1.06,1.06,0,1,1,0,2.12"/><path class="cls-8" d="M38.36,36.74H29.65a1.06,1.06,0,1,1,0-2.12h8.71a1.06,1.06,0,1,1,0,2.12"/><path class="cls-8" d="M39,43.11H29.65a1.06,1.06,0,1,1,0-2.12H39a1.06,1.06,0,0,1,0,2.12"/><path class="cls-9" d="M24.14,32.64A24.17,24.17,0,0,0,0,56.79a3.15,3.15,0,0,0,3.15,3.15h42a3.15,3.15,0,0,0,3.15-3.15A24.17,24.17,0,0,0,24.14,32.64Z"/><path class="cls-10" d="M24.14,32.64V59.94h21a3.15,3.15,0,0,0,3.15-3.15A24.17,24.17,0,0,0,24.14,32.64Z"/><path class="cls-11" d="M24.14,32.64A3.15,3.15,0,0,0,21,35.79V61a3.15,3.15,0,0,0,6.3,0V35.79A3.15,3.15,0,0,0,24.14,32.64Z"/><path class="cls-8" d="M58.32,65.4h0A5.31,5.31,0,0,1,53,60.09V52.66H14.8a2.13,2.13,0,0,0-2.13,2.13v5.31A5.31,5.31,0,0,0,18,65.4Z"/><path class="cls-12" d="M24.14,0A13.17,13.17,0,1,0,37.32,13.17,13.19,13.19,0,0,0,24.14,0Z"/><path class="cls-11" d="M59.38,37.8A10.62,10.62,0,1,0,48.76,48.42,10.62,10.62,0,0,0,59.38,37.8"/><path class="cls-13" d="M47.7,44.17a1.06,1.06,0,0,1-.75-.31L42.7,39.61a1.06,1.06,0,0,1,1.5-1.5l3.33,3.33L53.19,33A1.06,1.06,0,1,1,55,34.14L48.58,43.7a1.06,1.06,0,0,1-.78.47H47.7"/></g></g></svg>