<svg xmlns="http://www.w3.org/2000/svg" viewBox="0 0 71.6 74.07"><defs><style>.cls-1{fill:#f38174;}.cls-2{fill:#f05829;}.cls-3{fill:#74767c;}.cls-4{fill:#606369;}.cls-5{fill:#c2c2c5;}.cls-6{fill:#afb0b3;}.cls-7{fill:#fbdb83;}.cls-8{fill:#fccf44;}.cls-9{fill:#f0bf25;}</style></defs><title>Asset 7</title><g id="Layer_2" data-name="Layer 2"><g id="Layer_1-2" data-name="Layer 1"><path class="cls-1" d="M71.06,23.67,36.49.21a1.23,1.23,0,0,0-1.39,0L.54,23.67a1.23,1.23,0,0,0-.54,1V72.83a1.23,1.23,0,0,0,1.23,1.23H70.37a1.23,1.23,0,0,0,1.23-1.23V24.69A1.23,1.23,0,0,0,71.06,23.67Z"/><path class="cls-2" d="M3.7,72.83V24.69a1.23,1.23,0,0,1,.54-1L37.65,1,36.49.21a1.23,1.23,0,0,0-1.39,0L.54,23.67a1.23,1.23,0,0,0-.54,1V72.83a1.23,1.23,0,0,0,1.23,1.23h3.7A1.23,1.23,0,0,1,3.7,72.83Z"/><path class="cls-3" d="M58,29.63H13.58a1.23,1.23,0,0,0-1.23,1.23v42a1.23,1.23,0,0,0,1.23,1.23H58a1.23,1.23,0,0,0,1.23-1.23v-42A1.23,1.23,0,0,0,58,29.63Z"/><path class="cls-4" d="M13.58,29.63a1.23,1.23,0,0,0-1.23,1.23v42a1.23,1.23,0,0,0,1.23,1.23H16V29.63Z"/><path class="cls-5" d="M60.49,24.69H11.11a1.23,1.23,0,0,0-1.23,1.23v4.94a1.23,1.23,0,0,0,1.23,1.23H60.49a1.23,1.23,0,0,0,1.23-1.23V25.92A1.23,1.23,0,0,0,60.49,24.69Z"/><path class="cls-6" d="M60.49,29.63H11.11a1.23,1.23,0,0,1-1.23-1.23v2.47a1.23,1.23,0,0,0,1.23,1.23H60.49a1.23,1.23,0,0,0,1.23-1.23V28.39A1.23,1.23,0,0,1,60.49,29.63Z"/><path class="cls-2" d="M40.74,11.11H30.86a1.23,1.23,0,0,1,0-2.47h9.88a1.23,1.23,0,1,1,0,2.47Z"/><path class="cls-2" d="M40.74,16H30.86a1.23,1.23,0,0,1,0-2.47h9.88a1.23,1.23,0,1,1,0,2.47Z"/><path class="cls-2" d="M40.74,21H30.86a1.23,1.23,0,0,1,0-2.47h9.88a1.23,1.23,0,1,1,0,2.47Z"/><path class="cls-7" d="M28.39,39.5H13.58a1.23,1.23,0,0,0-1.23,1.23V55.55a1.23,1.23,0,0,0,1.23,1.23L21,58l7.41-1.23a1.23,1.23,0,0,0,1.23-1.23V40.74A1.23,1.23,0,0,0,28.39,39.5Z"/><path class="cls-7" d="M28.39,56.79H13.58A1.23,1.23,0,0,0,12.34,58V72.83a1.23,1.23,0,0,0,1.23,1.23H28.39a1.23,1.23,0,0,0,1.23-1.23V58A1.23,1.23,0,0,0,28.39,56.79Z"/><path class="cls-8" d="M14.81,72.83V58A1.23,1.23,0,0,1,16,56.79H13.58A1.23,1.23,0,0,0,12.34,58V72.83a1.23,1.23,0,0,0,1.23,1.23H16A1.23,1.23,0,0,1,14.81,72.83Z"/><path class="cls-9" d="M23.46,56.79H18.52V63a1.23,1.23,0,0,0,1.23,1.23h2.47A1.23,1.23,0,0,0,23.46,63Z"/><path class="cls-3" d="M23.46,71.6H18.52a1.23,1.23,0,0,1,0-2.47h4.94a1.23,1.23,0,1,1,0,2.47Z"/><path class="cls-8" d="M14.81,55.55V40.74A1.23,1.23,0,0,1,16,39.5H13.58a1.23,1.23,0,0,0-1.23,1.23V55.55a1.23,1.23,0,0,0,1.23,1.23H16A1.23,1.23,0,0,1,14.81,55.55Z"/><path class="cls-9" d="M23.46,39.5H18.52v6.17a1.23,1.23,0,0,0,1.23,1.23h2.47a1.23,1.23,0,0,0,1.23-1.23Z"/><path class="cls-3" d="M23.46,54.32H18.52a1.23,1.23,0,1,1,0-2.47h4.94a1.23,1.23,0,1,1,0,2.47Z"/><path class="cls-7" d="M45.68,56.79H30.86A1.23,1.23,0,0,0,29.63,58V72.83a1.23,1.23,0,0,0,1.23,1.23H45.68a1.23,1.23,0,0,0,1.23-1.23V58A1.23,1.23,0,0,0,45.68,56.79Z"/><path class="cls-8" d="M32.1,72.83V58a1.23,1.23,0,0,1,1.23-1.23H30.86A1.23,1.23,0,0,0,29.63,58V72.83a1.23,1.23,0,0,0,1.23,1.23h2.47A1.23,1.23,0,0,1,32.1,72.83Z"/><path class="cls-9" d="M40.74,56.79H35.8V63A1.23,1.23,0,0,0,37,64.19H39.5A1.23,1.23,0,0,0,40.74,63Z"/><path class="cls-3" d="M40.74,71.6H35.8a1.23,1.23,0,0,1,0-2.47h4.94a1.23,1.23,0,0,1,0,2.47Z"/></g></g></svg>