<svg xmlns="http://www.w3.org/2000/svg" viewBox="0 0 73.98 74.04"><defs><style>.cls-1{fill:#cbcbca;}.cls-2{fill:#2d9f48;}.cls-3{fill:#237d3e;}.cls-4{fill:#4d4e4e;}.cls-5{fill:#676767;}.cls-6{fill:gray;}.cls-7{fill:#d24727;}.cls-8{fill:#f05829;}.cls-9{fill:#fff;}</style></defs><title>Asset 5</title><g id="Layer_2" data-name="Layer 2"><g id="Layer_1-2" data-name="Layer 1"><path class="cls-1" d="M27.93,0A4,4,0,0,0,25,1.27,4,4,0,1,0,22,8.08h5.88a4,4,0,0,0,0-8.08ZM20.21,4a1.84,1.84,0,0,1,3.67,0V5.88H22A1.84,1.84,0,0,1,20.21,4Zm7.72,1.84H26.09V4a1.84,1.84,0,1,1,1.84,1.84Z"/><rect class="cls-2" x="26.92" y="5.88" width="6.98" height="8.5"/><rect class="cls-3" x="14.98" y="5.88" width="11.94" height="8.5"/><rect class="cls-1" x="19.81" y="5.88" width="2.39" height="8.5"/><path class="cls-4" d="M58.73,31.75H56.15V27.83a4.38,4.38,0,1,0-8.76,0v3.92H44.82V27.83a7,7,0,0,1,13.91,0v3.92Z"/><polygon class="cls-5" points="22.87 14.01 26.52 33.99 13.04 74.04 0 74.04 0 14.01 14.97 14.01 22.87 14.01"/><polygon class="cls-6" points="40.38 14.01 40.38 31.29 38.11 37.62 22.87 37.62 22.87 14.01 26.92 14.01 33.9 14.01 40.38 14.01"/><polygon class="cls-1" points="38.11 33.99 54.26 74.04 13.04 74.04 13.04 33.99 22.87 33.99 38.11 33.99"/><polygon class="cls-7" points="44.84 31.29 58.49 74.04 39.91 74.04 36.15 74.04 38.11 33.99 38.25 31.29 40.38 31.29 44.84 31.29"/><polygon class="cls-8" points="71.89 31.29 73.98 74.04 60.64 74.04 42.75 74.04 44.84 31.29 71.89 31.29"/><path class="cls-5" d="M64,37.16a1.29,1.29,0,0,1-1.29-1.29v-8.5a4.38,4.38,0,0,0-8.76,0v8.5a1.29,1.29,0,0,1-2.57,0v-8.5a7,7,0,0,1,13.91,0v8.5A1.29,1.29,0,0,1,64,37.16Z"/><path class="cls-9" d="M63.83,49.48a1.84,1.84,0,0,0-2.6,0L53.32,57.4a1.84,1.84,0,1,0,2.6,2.6l7.91-7.91A1.84,1.84,0,0,0,63.83,49.48Z"/><circle class="cls-9" cx="62.53" cy="58.7" r="1.84"/><circle class="cls-9" cx="54.62" cy="50.78" r="1.84"/></g></g></svg>