<svg height="512pt" viewBox="0 0 512 512" width="512pt" xmlns="http://www.w3.org/2000/svg"><g fill-rule="evenodd"><path d="m159.996094 62h-129.996094c-11 0-20 9-20 20v20.003906h491.996094v-20.003906c0-11-8.996094-20-19.996094-20zm0 0" fill="#c1c1c1"/><path d="m10 372h196c0 11 9 20 20 20h60c11 0 20-9 20-20h195.996094v-269.996094h-491.996094zm0 0" fill="#b6e7ff"/><path d="m206 372h-196v30c0 11 8.996094 20 20 20h452c10.996094 0 19.996094-9 19.996094-20v-30h-195.996094c0 11-9 20-20 20h-60c-11 0-20-9-20-20zm0 0" fill="#c1c1c1"/><path d="m206 422-10 80h120l-10-80zm0 0" fill="#a3a3a3"/><path d="m148.964844 62h80v100h-80zm0 0" fill="#a6f074"/><path d="m228.964844 62v100h-80v-100zm-120.003906 40.003906v269.996094h97.039062c0 11 9 20 20 20h60c11 0 20-9 20-20h97.035156v-346c0-8.800781-7.199218-16-16-16h-261.269531c-9.242187 0-16.804687 7.5625-16.804687 16.800781zm0 0" fill="#f7f7f7"/></g><path d="m482 52h-68.964844v-26c0-14.335938-11.664062-26-26-26h-261.269531c-14.777344 0-26.804687 12.023438-26.804687 26.800781v65.203125h-78.960938v-10.003906c0-5.511719 4.484375-10 10-10 5.519531 0 10-4.476562 10-10 0-5.519531-4.480469-10-10-10-16.542969 0-30 13.460938-30 30v320c0 16.542969 13.457031 30 30 30h164.824219l-7.820313 60h-11.003906c-5.523438 0-10 4.476562-10 10s4.476562 10 10 10h160c5.519531 0 10-4.476562 10-10s-4.480469-10-10-10h-11.007812l-7.820313-60h74.824219c5.523437 0 10-4.476562 10-10 0-5.519531-4.476563-10-10-10h-361.996094c-5.515625 0-10-4.484375-10-10v-20h178.683594c3.464844 5.972656 9.929687 10 17.316406 10h80c7.386719 0 13.851562-4.027344 17.3125-10h178.683594v20c0 5.515625-4.484375 10-9.996094 10h-10c-5.523438 0-10 4.480469-10 10 0 5.523438 4.476562 10 10 10h10c16.539062 0 29.996094-13.457031 29.996094-30v-320c0-16.539062-13.457032-30-29.996094-30zm-177.175781 440h-97.652344l7.820313-60h82.011718zm177.175781-420c5.511719 0 9.996094 4.488281 9.996094 10v10.003906h-78.960938v-20.003906zm-462 40.003906h78.960938v249.996094h-78.960938zm286 249.996094c-5.523438 0-10 4.476562-10 10h-80c0-5.523438-4.480469-10-10-10h-87.039062v-335.199219c0-3.6875 3.117187-6.800781 6.804687-6.800781h261.269531c3.253906 0 6 2.746094 6 6v336zm107.035156 0v-249.996094h78.960938v249.996094zm0 0"/><path d="m148.964844 172h80c5.523437 0 10-4.476562 10-10v-100c0-5.519531-4.476563-10-10-10h-80c-5.523438 0-10 4.480469-10 10v100c0 5.523438 4.476562 10 10 10zm10-100h60v80h-60zm0 0"/><path d="m363.035156 52h-94.070312c-5.519532 0-10 4.480469-10 10 0 5.523438 4.480468 10 10 10h94.070312c5.519532 0 10-4.476562 10-10 0-5.519531-4.480468-10-10-10zm0 0"/><path d="m316 92.003906h-47.035156c-5.519532 0-10 4.476563-10 10 0 5.519532 4.480468 10 10 10h47.035156c5.519531 0 10-4.480468 10-10 0-5.523437-4.480469-10-10-10zm0 0"/><path d="m148.964844 212.003906h80c5.523437 0 10-4.480468 10-10 0-5.523437-4.476563-10-10-10h-80c-5.523438 0-10 4.476563-10 10 0 5.519532 4.476562 10 10 10zm0 0"/><path d="m316 232.003906h-167.035156c-5.523438 0-10 4.476563-10 10 0 5.523438 4.476562 10 10 10h167.035156c5.519531 0 10-4.476562 10-10 0-5.523437-4.480469-10-10-10zm0 0"/><path d="m316 272.003906h-167.035156c-5.523438 0-10 4.480469-10 10 0 5.523438 4.476562 10 10 10h167.035156c5.519531 0 10-4.476562 10-10 0-5.519531-4.480469-10-10-10zm0 0"/><path d="m316 312.007812h-167.035156c-5.523438 0-10 4.476563-10 10 0 5.519532 4.476562 10 10 10h167.035156c5.519531 0 10-4.480468 10-10 0-5.523437-4.480469-10-10-10zm0 0"/><path d="m70.003906 72c5.519532 0 10-4.476562 10-10 0-5.519531-4.480468-10-10-10h-.007812c-5.523438 0-9.996094 4.480469-9.996094 10 0 5.523438 4.480469 10 10.003906 10zm0 0"/><path d="m432 412h-.003906c-5.523438 0-9.996094 4.480469-9.996094 10 0 5.523438 4.476562 10 10 10s10-4.476562 10-10c0-5.519531-4.476562-10-10-10zm0 0"/></svg>