<svg height="477.60001pt" viewBox="0 0 477.60001 477.60001" width="477.60001pt" xmlns="http://www.w3.org/2000/svg"><path d="m477.601562 238.800781c0 131.886719-106.914062 238.800781-238.800781 238.800781s-238.800781-106.914062-238.800781-238.800781 106.914062-238.800781 238.800781-238.800781 238.800781 106.914062 238.800781 238.800781zm0 0" fill="#382b73"/><path d="m445.398438 238.800781c0 114.101563-92.496094 206.597657-206.597657 206.597657-114.101562 0-206.597656-92.496094-206.597656-206.597657 0-114.101562 92.496094-206.597656 206.597656-206.597656 114.101563 0 206.597657 92.496094 206.597657 206.597656zm0 0" fill="#473080"/><path d="m387.28125 354.109375c.011719-.074219.007812-.152344.019531-.230469.074219-.507812.121094-1.027344.136719-1.550781.007812-.15625.011719-.3125.015625-.46875 0-.636719-.03125-1.28125-.121094-1.929687l-.074219-.546876-.207031-1.472656-.917969-6.632812-1.859374-13.390625-1.574219-11.347657c-1.203125-8.636718-6.160157-16.195312-13.398438-20.773437-1.273437-.808594-2.613281-1.539063-4.023437-2.148437l-34.933594-11.796876-6.3125-7.445312-6.558594 5.3125 6.558594-5.3125v-9.695312c.121094-.15625.25-.304688.363281-.464844.816407-1.105469 1.5625-2.273438 2.246094-3.492188.683594-1.214844 1.304687-2.480468 1.871094-3.78125.5625-1.300781 1.070312-2.640625 1.527343-4.007812.453126-1.367188.859376-2.761719 1.21875-4.171875.359376-1.40625.671876-2.832031.941407-4.265625.082031-.433594.15625-.867188.230469-1.300782 3.894531-.164062 7.503906-5.128906 8.261718-11.597656.574219-4.886718-.644531-9.308594-2.886718-11.636718.019531-.175782.039062-.351563.058593-.527344.027344-.238282.050781-.480469.078125-.71875.027344-.296875.058594-.589844.085938-.886719.019531-.238281.039062-.480469.058594-.71875.023437-.296875.046874-.589844.0625-.886719.015624-.242187.03125-.484375.046874-.730468.015626-.292969.027344-.589844.039063-.882813.011719-.242187.019531-.484375.027344-.726563.007812-.292968.015625-.585937.019531-.878906.003906-.242187.003906-.484375.003906-.726562 0-.292969 0-.582032-.007812-.871094-.003906-.242188-.007813-.480469-.011719-.71875-.007813-.289062-.023437-.574219-.039063-.863281-.011718-.234375-.019531-.472657-.035156-.707031-.015625-.289063-.042968-.570313-.0625-.855469-.019531-.230469-.035156-.460938-.0625-.691407-.027344-.285156-.0625-.570312-.097656-.855468-.023438-.21875-.050781-.4375-.082031-.65625-.039063-.285156-.085938-.570313-.132813-.855469-.035156-.207031-.066406-.417969-.105468-.621094-.054688-.292969-.117188-.578125-.179688-.867187-.039062-.1875-.078125-.378906-.121094-.566406-.074218-.308594-.160156-.609376-.242187-.910157-.042969-.152343-.078125-.316406-.125-.46875-.132813-.453125-.277344-.894531-.433594-1.324219-.488281-1.335937-1.109375-2.484374-1.828125-3.472656-.683594-.9375-1.457031-1.71875-2.277344-2.386718-.472656-.382813-.957031-.734376-1.453125-1.039063-1.363281-.835937-2.800781-1.398437-4.167969-1.769531-.910156-.246094-1.792968-.410156-2.601562-.519532-.210938-.027343-.402344-.042968-.601562-.0625l.003906-.007812c-.140625-.011719-.269532-.023438-.40625-.035156-.078125-.007813-.160156-.011719-.238282-.019532-.3125-.019531-.605468-.035156-.878906-.046874-.0625 0-.113281 0-.171875-.003907-.222656-.007812-.429687-.007812-.617187-.007812-.0625 0-.121094 0-.175782.003906-.210937.003906-.398437.007813-.550781.015625-.027343.003906-.042969.003906-.070312.003906-.136719.007813-.238281.015625-.320313.019532-.035156.003906-.046875.003906-.070312.007812-.0625.003906-.101563.007812-.101563.007812l-.003906.023438c-.011719-.03125-.019531-.066406-.03125-.097656.007813.007812.011719.019531.019531.03125-.011718-.042969-.03125-.082032-.042968-.125-.066407-.222656-.136719-.441406-.21875-.664063-.03125-.089843-.0625-.183593-.101563-.273437-.042969-.121094-.085937-.238282-.136719-.355469-.019531-.042969-.039062-.078125-.058594-.121094-.117187-.261719-.238281-.519531-.375-.777343-.011718-.019532-.023437-.039063-.03125-.054688-.0625-.113281-.132812-.222656-.195312-.332031-.050781-.085938-.097656-.167969-.148438-.253907-.125-.195312-.257812-.390624-.394531-.585937-.054687-.078125-.109375-.15625-.164062-.230469-.09375-.125-.1875-.253906-.289063-.378906-.054687-.066406-.113281-.132812-.167968-.199219-.167969-.203125-.339844-.402343-.527344-.601562-.019532-.023438-.042969-.042969-.0625-.066407-.117188-.121093-.242188-.242187-.367188-.363281-.070312-.066406-.132812-.136719-.203125-.203125-.183593-.167968-.378906-.335937-.574219-.5-.078124-.066406-.152343-.132812-.234374-.199218-.15625-.125-.316407-.253907-.484376-.382813-.097656-.074219-.203124-.148437-.304687-.222656-.214844-.152344-.425781-.308594-.652344-.457031-.011719-.007813-.023437-.019532-.035156-.027344v.007812c-.234375-.15625-.480469-.308594-.734375-.457031-.066406-.042969-.128906-.082031-.195312-.125-.5625-.324219-1.167969-.636719-1.804688-.9375-.148438-.070313-.300781-.140625-.453125-.210937-.667969-.300782-1.363281-.59375-2.117187-.871094-5.21875-1.90625-14.074219-2.910156-22.34375.640625v-33.875c0-4.449219-3.605469-8.054688-8.054688-8.054688h-180.34375c-4.449219 0-8.054688 3.605469-8.054688 8.054688v111.875c0 4.445312 3.605469 8.050781 8.054688 8.050781h71.207031c-.210937 4.785156-1 9.503906-2.308593 14.074219-.199219.703125-.429688 1.394531-.65625 2.085937-.164063.503906-.316407 1.007813-.492188 1.507813-.253906.71875-.542969 1.429687-.824219 2.140625-.179687.457031-.351562.925781-.546875 1.382812-.332031.777344-.699218 1.542969-1.0625 2.308594-.179687.375-.339844.753906-.523437 1.121094-.566407 1.128906-1.167969 2.246094-1.804688 3.339844l-1.175781 2.023437h-20.078125c-2.449219 0-4.5625 1.347656-5.703125 3.324219-.003906-.007813-.011719-.015625-.015625-.023438-.128906.21875-.238281.449219-.339844.683594-.007812.019531-.019531.035156-.027343.058594-.148438.347656-.257813.714844-.339844 1.089844-.023438.09375-.039063.1875-.054688.28125-.070312.386718-.121094.777343-.121094 1.1875 0 .910156.183594 1.78125.519532 2.570312 1 2.371094 3.347656 4.03125 6.082031 4.03125h81.222656c-.613281 1.78125-1.058593 3.632812-1.324219 5.539062l-3.730468 26.863282-.460938 3.316406-.367187 2.667969-.078125.542969c-.089844.648437-.117188 1.292968-.121094 1.929687 0 .160156.007812.316406.011719.46875.019531.527344.066406 1.046875.140625 1.554687.011718.074219.007812.152344.019531.226563l.003906-.039063c.15625.960938.410157 1.890626.757813 2.785157 1.996094 5.164062 6.988281 8.917969 12.976562 8.917969h144.566406c5.820313 0 10.710938-3.539063 12.816407-8.476563.4375-1.019531.738281-2.105469.917969-3.226563zm-171.738281-58.332031c-.640625-1.097656-1.238281-2.210938-1.804688-3.339844-.1875-.375-.347656-.757812-.527343-1.132812-.363282-.761719-.730469-1.523438-1.0625-2.300782-.195313-.457031-.363282-.925781-.546876-1.386718-.28125-.710938-.566406-1.414063-.820312-2.132813-.179688-.5-.332031-1.007813-.496094-1.515625-.226562-.691406-.453125-1.378906-.652344-2.082031-1.3125-4.570313-2.097656-9.289063-2.3125-14.070313h71.164063v6.558594l6.558594 5.316406-6.558594-5.316406-6.304687 7.445312-.304688.101563-5.328125 1.800781-29.300781 9.894532c-1.226563.53125-2.402344 1.148437-3.53125 1.828124-1.167969.707032-2.277344 1.5-3.328125 2.351563h-13.664063zm0 0" fill="#382b73"/><path d="m278.53125 253.816406h-180.34375c-4.449219 0-8.054688-3.605468-8.054688-8.054687v-106.503907c0-4.449218 3.605469-8.054687 8.054688-8.054687h180.34375c4.445312 0 8.054688 3.605469 8.054688 8.054687v106.503907c0 4.445312-3.605469 8.054687-8.054688 8.054687zm0 0" fill="#d1d3d4"/><path d="m278.53125 248.445312h-180.34375c-4.449219 0-8.054688-3.605468-8.054688-8.054687v-106.503906c0-4.449219 3.605469-8.058594 8.054688-8.058594h180.34375c4.445312 0 8.054688 3.609375 8.054688 8.058594v106.503906c0 4.449219-3.605469 8.054687-8.054688 8.054687zm0 0" fill="#fff"/><path d="m276.292969 239.941406h-175.867188c-1.480469 0-2.6875-1.203125-2.6875-2.683594v-102.03125c0-1.480468 1.203125-2.683593 2.6875-2.683593h175.867188c1.484375 0 2.683593 1.203125 2.683593 2.683593v102.03125c0 1.480469-1.199218 2.683594-2.683593 2.683594zm0 0" fill="#ef5a9d"/><path d="m276.292969 132.542969h-175.867188c-1.480469 0-2.6875 1.199219-2.6875 2.683593v5.371094c0-1.484375 1.203125-2.6875 2.6875-2.6875h175.867188c1.484375 0 2.683593 1.203125 2.683593 2.6875v-5.371094c0-1.480468-1.199218-2.683593-2.683593-2.683593zm0 0" fill="#e43d91"/><path d="m216.71875 283.796875h-56.71875l1.175781-2.019531c4.957031-8.519532 7.78125-18.113282 8.21875-27.960938h37.925781c.441407 9.847656 3.265626 19.441406 8.222657 27.960938zm0 0" fill="#bcbec0"/><path d="m236.796875 296.996094h-96.875c-3.648437 0-6.601563-2.953125-6.601563-6.597656 0-3.644532 2.957032-6.601563 6.601563-6.601563h96.875c3.644531 0 6.597656 2.957031 6.597656 6.601563.003907 3.644531-2.949219 6.597656-6.597656 6.597656zm0 0" fill="#fff"/><path d="m236.796875 290.398438h-96.875c-2.445313 0-4.578125-1.328126-5.71875-3.300782-.5625.972656-.886719 2.097656-.886719 3.300782 0 3.644531 2.957032 6.597656 6.601563 6.597656h96.875c3.648437 0 6.601562-2.953125 6.601562-6.597656 0-1.203126-.324219-2.332032-.882812-3.300782-1.136719 1.972656-3.273438 3.300782-5.714844 3.300782zm0 0" fill="#d1d3d4"/><path d="m161.175781 281.777344-1.175781 2.019531h56.71875l-1.175781-2.019531c-2.613281-4.496094-4.636719-9.289063-6.023438-14.257813h-42.316406c-1.390625 4.96875-3.410156 9.761719-6.027344 14.257813zm0 0" fill="#e6e7e8"/><path d="m214.609375 157.441406c-18.277344-14.496094-44.851563-11.429687-59.347656 6.847656-14.5 18.28125-11.433594 44.855469 6.847656 59.351563 18.277344 14.5 44.851563 11.433594 59.351563-6.847656 14.496093-18.28125 11.429687-44.851563-6.851563-59.351563zm0 0" fill="#e7ad27"/><path d="m214.613281 152.078125c-18.28125-14.5-44.855469-11.433594-59.351562 6.847656-14.5 18.28125-11.433594 44.851563 6.847656 59.351563s44.851563 11.433594 59.351563-6.847656c14.496093-18.28125 11.429687-44.851563-6.847657-59.351563zm0 0" fill="#fede3a"/><path d="m188.359375 217.988281c-18.082031 0-32.796875-14.710937-32.796875-32.796875 0-18.082031 14.714844-32.796875 32.796875-32.796875 18.085937 0 32.796875 14.714844 32.796875 32.796875 0 18.085938-14.710938 32.796875-32.796875 32.796875zm0-59.734375c-14.851563 0-26.9375 12.085938-26.9375 26.9375 0 14.855469 12.085937 26.941406 26.9375 26.941406 14.855469 0 26.941406-12.085937 26.941406-26.941406-.003906-14.851562-12.085937-26.9375-26.941406-26.9375zm0 0" fill="#1caee4"/><path d="m218.226562 185.191406c0-16.496094-13.371093-29.867187-29.867187-29.867187s-29.867187 13.371093-29.867187 29.867187 13.371093 29.867188 29.867187 29.867188 29.867187-13.371094 29.867187-29.867188zm-29.867187 26.941406c-14.851563 0-26.9375-12.085937-26.9375-26.941406 0-14.851562 12.085937-26.9375 26.9375-26.9375 14.855469 0 26.941406 12.085938 26.941406 26.9375-.003906 14.855469-12.085937 26.941406-26.941406 26.941406zm0 0" fill="#009add"/><path d="m188.359375 217.988281c-10.617187 0-18.933594-14.40625-18.933594-32.796875s8.316407-32.796875 18.933594-32.796875 18.9375 14.40625 18.9375 32.796875c-.003906 18.390625-8.320313 32.796875-18.9375 32.796875zm0-59.734375c-6.183594 0-13.078125 11.0625-13.078125 26.9375s6.894531 26.941406 13.078125 26.941406c6.1875 0 13.082031-11.066406 13.082031-26.941406s-6.894531-26.9375-13.082031-26.9375zm0 0" fill="#1caee4"/><path d="m204.367188 185.191406c0-16.496094-7.167969-29.867187-16.007813-29.867187s-16.007813 13.371093-16.007813 29.867187 7.167969 29.867188 16.007813 29.867188 16.007813-13.371094 16.007813-29.867188zm-16.007813 26.941406c-6.183594 0-13.078125-11.066406-13.078125-26.941406s6.894531-26.9375 13.078125-26.9375c6.1875 0 13.082031 11.0625 13.082031 26.9375s-6.894531 26.941406-13.082031 26.941406zm0 0" fill="#009add"/><path d="m185.433594 155.324219h5.855468v59.734375h-5.855468zm0 0" fill="#1caee4"/><path d="m158.492188 182.265625h59.734374v5.855469h-59.734374zm0 0" fill="#1caee4"/><path d="m373.542969 351.769531h-144.566407c-8.453124 0-14.953124-7.46875-13.789062-15.839843l4.632812-33.390626c1.410157-10.15625 8.015626-18.84375 17.421876-22.917968l16.046874-5.417969 6.199219-2.09375c.003907-.003906.003907-.003906.003907-.003906l12.382812-4.183594 6.613281-2.230469h45.542969l15.503906 5.234375 1.523438.515625 24.21875 8.175782c9.410156 4.078124 16.007812 12.765624 17.421875 22.921874l1.578125 11.347657 1.859375 13.390625 1.199219 8.652344c1.15625 8.371093-5.34375 15.839843-13.792969 15.839843zm0 0" fill="#e6e7e8"/><path d="m219.820312 307.09375c1.410157-10.15625 8.015626-18.84375 17.421876-22.921875l41.242187-13.929687h45.546875l41.242188 13.929687c9.40625 4.078125 16.007812 12.765625 17.417968 22.921875l4.585938 33.011719c.21875-1.34375.25-2.746094.050781-4.179688l-4.636719-33.390625c-1.410156-10.15625-8.011718-18.839844-17.417968-22.917968l-41.242188-13.929688h-45.546875l-41.242187 13.929688c-9.40625 4.078124-16.011719 12.761718-17.421876 22.917968l-4.636718 33.390625c-.199219 1.433594-.167969 2.835938.050781 4.179688zm0 0" fill="#fff"/><path d="m386.886719 332.71875c-1.699219 5.683594-6.96875 9.9375-13.347657 9.9375h-144.5625c-6.375 0-11.644531-4.253906-13.34375-9.9375l-.445312 3.210938c-1.164062 8.371093 5.339844 15.839843 13.789062 15.839843h144.5625c8.453126 0 14.953126-7.46875 13.792969-15.839843zm0 0" fill="#d1d3d4"/><path d="m330.902344 268.488281-6.871094-8.113281-22.773438 18.449219-22.773437-18.449219-6.871094 8.113281c-1.417969 3.082031-1.386719 6.636719.082031 9.695313l21.417969 44.511718 8.144531 16.925782 29.558594-61.441406c1.472656-3.054688 1.503906-6.609376.085938-9.691407zm0 0" fill="#e6e7e8"/><path d="m312.875 351.769531-7.371094-61.707031h-8.488281l-7.375 61.707031zm0 0" fill="#1caee4"/><path d="m290.730469 342.65625-1.089844 9.113281h23.234375l-1.089844-9.113281zm0 0" fill="#009add"/><path d="m278.484375 238.746094v21.628906l22.773437 18.453125 22.773438-18.453125v-21.628906zm0 0" fill="#f6ca14"/><path d="m301.257812 278.828125-18.171874 23.019531-11.371094-23.652344c-1.480469-3.0625-1.515625-6.628906-.09375-9.71875l6.863281-8.097656zm0 0" fill="#d0d2d3"/><path d="m301.257812 278.828125 18.171876 23.019531 11.371093-23.65625c1.480469-3.0625 1.515625-6.625.09375-9.714844l-6.863281-8.101562zm0 0" fill="#d0d2d3"/><path d="m308.867188 290.144531-4.386719 4.386719c-1.78125 1.78125-4.667969 1.78125-6.449219 0l-4.382812-4.386719c-1.78125-1.777343-1.78125-4.667969 0-6.449219l1.109374-1.109374c3.589844-3.589844 9.40625-3.589844 12.996094 0l1.109375 1.109374c1.785157 1.78125 1.785157 4.671876.003907 6.449219zm0 0" fill="#23c1e6"/><path d="m308.359375 283.1875-4.820313 4.816406c-1.257812 1.261719-3.300781 1.261719-4.5625 0l-4.816406-4.816406-1.453125 1.453125c-1.261719 1.257813-1.261719 3.300781 0 4.5625l6.269531 6.269531c1.257813 1.261719 3.300782 1.261719 4.5625 0l6.269532-6.269531c1.261718-1.261719 1.261718-3.304687 0-4.5625zm0 0" fill="#1cade3"/><path d="m333.898438 210.054688c0 19.285156-3.492188 51.316406-32.640626 51.316406-29.148437 0-32.640624-32.03125-32.640624-51.316406 0-19.285157 3.035156-34.917969 32.640624-34.917969 29.605469-.003907 32.640626 15.632812 32.640626 34.917969zm0 0" fill="#fff235"/><path d="m301.257812 252.261719c-26.945312 0-31.964843-27.371094-32.570312-46.738281-.050781 1.484374-.070312 2.996093-.070312 4.53125 0 19.285156 3.492187 51.316406 32.640624 51.316406 29.148438 0 32.640626-32.03125 32.640626-51.316406 0-1.535157-.019532-3.046876-.070313-4.53125-.605469 19.367187-5.625 46.738281-32.570313 46.738281zm0 0" fill="#fddd3a"/><path d="m276.613281 215.832031c.804688 6.878907-1.921875 12.851563-6.09375 13.34375-4.171875.488281-8.203125-4.695312-9.007812-11.574219-.808594-6.878906 1.921875-12.851562 6.089843-13.339843 4.171876-.488281 8.203126 4.691406 9.011719 11.570312zm0 0" fill="#fff235"/><path d="m325.589844 215.832031c-.804688 6.878907 1.921875 12.851563 6.09375 13.34375 4.167968.484375 8.203125-4.695312 9.007812-11.574219.804688-6.878906-1.921875-12.851562-6.089844-13.339843-4.171874-.488281-8.207031 4.691406-9.011718 11.570312zm0 0" fill="#fff235"/><path d="m270.21875 217.75c-.417969-3.566406-.335938-6.902344.136719-9.613281-.175781-.003907-.359375 0-.539063.019531-3.304687.390625-5.523437 4.683594-4.949218 9.59375.578124 4.910156 3.726562 8.574219 7.03125 8.1875.070312-.007812.136718-.027344.207031-.039062-.863281-2.324219-1.53125-5.113282-1.886719-8.148438zm0 0" fill="#fddd3a"/><path d="m332.296875 217.75c.417969-3.566406.339844-6.902344-.136719-9.613281.179688-.003907.359375 0 .539063.019531 3.308593.390625 5.523437 4.683594 4.949219 9.59375-.226563 1.964844-.882813 3.925781-2.054688 5.53125-.492188.675781-1.078125 1.289062-1.765625 1.769531-.503906.347657-1.5.984375-2.132813.859375.058594-.417968-.007812-.851562-.183593-1.230468-.050781-.105469-.105469-.203126-.148438-.304688-.40625-.933594.167969-2.152344.363281-3.085938.242188-1.171874.433594-2.351562.570313-3.539062zm0 0" fill="#fddd3a"/><path d="m317.785156 189.671875s-7.015625 10.859375-19.214844 11.863281c-12.195312 1-20.789062 1.746094-24.183593 7.757813-3.394531 6.015625.089843 17.347656-2.617188 17.347656s-9.011719-25.960937.34375-44.675781c9.355469-18.710938 28.128907-18.019532 36.820313-14.847656 8.6875 3.175781 11.527344 8.1875 11.527344 13.367187-.003907 5.179687-2.675782 9.1875-2.675782 9.1875zm0 0" fill="#1cade3"/><path d="m314.230469 169.710938c1.183593 1.96875 1.671875 4.078124 1.671875 6.21875 0 5.179687-2.675782 9.1875-2.675782 9.1875s-7.015624 10.859374-19.210937 11.859374c-12.195313 1.003907-20.789063 1.746094-24.183594 7.761719-2.097656 3.710938-1.570312 9.449219-1.5 13.296875 1.011719 5.210938 2.457031 8.601563 3.4375 8.601563 2.703125 0-.777343-11.328125 2.617188-17.34375s11.988281-6.757813 24.183593-7.761719c12.195313-1 19.210938-11.859375 19.210938-11.859375s2.675781-4.011719 2.675781-9.191406c0-3.925781-1.640625-7.761719-6.226562-10.769531zm0 0" fill="#0099dc"/><path d="m320.019531 177.128906s12.644531-1.386718 16.53125 9.3125c5.128907 14.121094-2.488281 39.515625-4.777343 39.515625-2.289063 0 .757812-12.449219-2.6875-23.589843-3.453126-11.136719-11.796876-12-11.796876-12zm0 0" fill="#1cade3"/><path d="m333.636719 197.8125c-3.449219-11.136719-11.792969-12-11.792969-12l1.777344-8.628906c-2.113282-.21875-3.601563-.058594-3.601563-.058594l-2.730469 13.242188s8.347657.863281 11.796876 12c3.445312 11.140624.398437 23.589843 2.6875 23.589843.804687 0 2.273437-3.152343 3.609374-7.847656-.066406-4.441406.613282-12.671875-1.746093-20.296875zm0 0" fill="#0099dc"/><path d="m273.019531 184.242188c9.355469-18.710938 28.132813-18.019532 36.820313-14.847657 5.421875 1.984375 8.566406 4.679688 10.164062 7.683594-1.097656-3.90625-4.3125-7.488281-11.074218-9.960937-8.6875-3.171876-27.464844-3.863282-36.820313 14.847656-8.054687 16.113281-4.496094 37.597656-1.625 43.257812-2.582031-7.824218-4.675781-26.554687 2.535156-40.980468zm0 0" fill="#23c1e6"/><path d="m336.550781 186.441406c-3.890625-10.699218-16.53125-9.3125-16.53125-9.3125l-.460937 2.226563c2.964844-.082031 12.371094.398437 15.628906 9.363281 4.164062 11.464844-.070312 30.347656-3.039062 37.058594 2.632812-2.285156 9.28125-25.90625 4.402343-39.335938zm0 0" fill="#23c1e6"/><g fill="#fff"><path d="m301.257812 278.828125-19.746093 19.746094-9.796875-20.382813c-1.480469-3.0625-1.515625-6.625-.09375-9.714844l6.863281-8.101562zm0 0"/><path d="m301.257812 278.828125 19.75 19.746094 9.792969-20.382813c1.480469-3.0625 1.515625-6.625.09375-9.714844l-6.863281-8.101562zm0 0"/></g></svg>