<svg xmlns="http://www.w3.org/2000/svg" viewBox="0 0 350 250"><defs><style>.cls-1{fill:none;}.cls-2{fill:#ffd55c;}.cls-3{fill:#ffb733;}.cls-4{fill:#fff;}.cls-5{fill:#3e4959;}.cls-6{fill:#cccbca;}.cls-7{fill:#242d3c;}.cls-8{fill:#21d8de;}.cls-9{fill:#16c6cc;}.cls-10{fill:#06b2b8;}</style></defs><title>Asset 1</title><g id="Layer_2" data-name="Layer 2"><g id="Layer_1-2" data-name="Layer 1"><rect class="cls-1" width="350" height="250"/><path class="cls-2" d="M235.74,85.3A60.74,60.74,0,1,1,175,24.57,60.74,60.74,0,0,1,235.74,85.3Z"/><path class="cls-3" d="M218.72,85.3A43.72,43.72,0,1,1,175,41.58,43.72,43.72,0,0,1,218.72,85.3Z"/><rect class="cls-2" x="153.42" y="142.11" width="43.14" height="9.43"/><path class="cls-4" d="M206.59,88.8v-7h-5.54a26,26,0,0,0-1.73-6.49l4.78-2.76-3.5-6.08-4.79,2.78a26.37,26.37,0,0,0-4.74-4.76l2.77-4.8-6.08-3.5L185,61a26.1,26.1,0,0,0-6.49-1.73V53.71h-7v5.54A25.91,25.91,0,0,0,165,61l-2.77-4.79-6.08,3.5,2.77,4.8a26.05,26.05,0,0,0-4.74,4.76l-4.8-2.78-3.5,6.08,4.78,2.76A26.54,26.54,0,0,0,149,81.8h-5.53v7H149a27,27,0,0,0,1.73,6.5l-4.78,2.75,3.5,6.08,4.8-2.77a27,27,0,0,0,4.74,4.75l-2.77,4.8,6.07,3.49,2.77-4.78a26.54,26.54,0,0,0,6.49,1.73v5.54h7v-5.54a26.66,26.66,0,0,0,6.49-1.73l2.76,4.78,6.08-3.49-2.76-4.8a27,27,0,0,0,4.74-4.75l4.79,2.77,3.51-6.08-4.79-2.76a26.54,26.54,0,0,0,1.73-6.49ZM175,101.94A16.65,16.65,0,1,1,191.64,85.3,16.64,16.64,0,0,1,175,101.94Z"/><rect class="cls-5" x="148.9" y="151.55" width="52.15" height="21.68"/><polygon class="cls-6" points="148.9 204.88 174.99 230.96 201.06 204.88 148.9 204.88"/><polygon class="cls-7" points="161.94 217.92 174.99 230.96 188.02 217.92 161.94 217.92"/><rect class="cls-8" x="148.9" y="173.22" width="17.4" height="31.66"/><rect class="cls-9" x="166.29" y="173.22" width="17.4" height="31.66"/><rect class="cls-10" x="183.67" y="173.22" width="17.38" height="31.66"/><path class="cls-7" d="M197.63,151.54h-2.14V141.35l.69-.26a59.66,59.66,0,1,0-42.37,0l.69.26v10.19h-2.14v-8.71a61.82,61.82,0,1,1,45.27,0v8.71Z"/><rect class="cls-7" x="144.37" y="150.47" width="61.25" height="2.15"/><rect class="cls-7" x="144.37" y="157.69" width="61.25" height="2.15"/><rect class="cls-7" x="144.37" y="164.92" width="61.25" height="2.15"/><rect class="cls-7" x="144.37" y="172.14" width="61.25" height="2.15"/><rect class="cls-7" x="114.26" y="23.5" width="121.47" height="2.14"/><rect class="cls-4" x="170.53" y="20.12" width="8.93" height="8.92"/><rect class="cls-4" x="231.28" y="80.86" width="8.93" height="8.92"/><rect class="cls-4" x="109.8" y="80.86" width="8.93" height="8.92"/><path class="cls-7" d="M180.54,30.11H169.46V19h11.08ZM171.61,28h6.78V21.18h-6.78Z"/><path class="cls-7" d="M241.28,90.85H230.2V79.78h11.08Zm-8.94-2.14h6.79V81.92h-6.79Z"/><path class="cls-7" d="M119.8,90.85H108.72V79.78H119.8Zm-8.93-2.14h6.78V81.92h-6.78Z"/><path class="cls-7" d="M118.73,24.58a4.47,4.47,0,1,1-4.46-4.46A4.46,4.46,0,0,1,118.73,24.58Z"/><path class="cls-7" d="M240.2,24.58a4.47,4.47,0,1,1-4.46-4.46A4.46,4.46,0,0,1,240.2,24.58Z"/></g></g></svg>