<?xml version="1.0" encoding="utf-8"?>
<!-- Generator: Adobe Illustrator 25.0.1, SVG Export Plug-In . SVG Version: 6.00 Build 0)  -->
<svg version="1.1" id="Layer_1" xmlns="http://www.w3.org/2000/svg" xmlns:xlink="http://www.w3.org/1999/xlink" x="0px" y="0px"
	 viewBox="0 0 53.3 58.2" style="enable-background:new 0 0 53.3 58.2;" xml:space="preserve">
<style type="text/css">
	.st0{fill:#E046BF;}
	.st1{fill:#474748;}
	.st2{fill:#FFFFFF;}
	.st3{fill:#FFFFFF;stroke:#474748;stroke-width:0.5;stroke-linecap:round;stroke-linejoin:round;}
</style>
<path class="st0" d="M26.2,55.5L26.2,55.5c-13.3,0-24-10.8-24-24v0c0-13.3,10.8-24,24-24h19.4c2.6,0,4.6,2.1,4.6,4.6v19.4
	C50.2,44.7,39.5,55.5,26.2,55.5z"/>
<g>
	
		<image style="overflow:visible;opacity:0.49;" width="74" height="50" xlink:href="E7B6C1A3.png"  transform="matrix(1 0 0 1 -10.9002 12.4912)">
	</image>
	<g>
		<g>
			<path class="st1" d="M8.6,27.4h36.2c0.4,0,0.7,0.3,0.7,0.6v0c0,0.4-0.3,0.6-0.7,0.6H8.6c-0.4,0-0.7-0.3-0.7-0.6v0
				C7.9,27.7,8.2,27.4,8.6,27.4z"/>
			<path class="st1" d="M21.1,21.2h11.1c0.4,0,0.7,0.3,0.7,0.7v0.5c0,0.4-0.3,0.7-0.7,0.7H21.1c-0.4,0-0.7-0.3-0.7-0.7V22
				C20.4,21.5,20.7,21.2,21.1,21.2z"/>
			<rect x="8.3" y="28.4" class="st2" width="36.9" height="11.4"/>
			<path class="st1" d="M45.1,40H8.3c-0.1,0-0.1-0.1-0.1-0.1V28.4c0-0.1,0.1-0.1,0.1-0.1h36.9c0.1,0,0.1,0.1,0.1,0.1v11.4
				C45.3,39.9,45.2,40,45.1,40L45.1,40z M8.4,39.7H45V28.6H8.4V39.7z"/>
			<path class="st1" d="M45.1,33.9H8.3c-0.1,0-0.1-0.1-0.1-0.2c0-0.1,0.1-0.1,0.1-0.1h36.9c0.1,0,0.1,0,0.2,0.1
				C45.3,33.9,45.3,33.9,45.1,33.9C45.2,34,45.2,34,45.1,33.9z"/>
			<rect x="21" y="23.1" class="st2" width="11.4" height="16.8"/>
			<path class="st1" d="M32.4,40H21c-0.1,0-0.1-0.1-0.1-0.1V23.1c0-0.1,0.1-0.1,0.1-0.1h11.4c0.1,0,0.1,0.1,0.1,0.1v16.8
				C32.6,39.9,32.5,40,32.4,40z M21.1,39.7h11.2V23.2H21.1V39.7z"/>
			<path class="st1" d="M23.3,33.8h7c0.4,0,0.7,0.3,0.7,0.7v5.4h-8.4v-5.4C22.6,34.1,22.9,33.8,23.3,33.8z"/>
			<path class="st2" d="M26,34.5h1.5c1.2,0,2.1,1,2.1,2.1v3.2l0,0h-5.8l0,0v-3.2C23.8,35.4,24.8,34.5,26,34.5z"/>
			<path class="st1" d="M29.6,40h-5.8c-0.1,0-0.1-0.1-0.1-0.1v-2.5c-0.1-1.7,1.2-3.1,2.9-3.1c1.7-0.1,3.1,1.2,3.1,2.9
				c0,0.1,0,0.1,0,0.2v2.5C29.7,39.9,29.7,40,29.6,40L29.6,40z M24,39.7h5.5v-2.3c0.1-1.5-1.1-2.8-2.6-2.9c-1.5-0.1-2.8,1.1-2.9,2.6
				c0,0.1,0,0.1,0,0.2V39.7z"/>
			<path class="st1" d="M23.2,23.5h7.2c0.3,0,0.6,0.3,0.6,0.6v3.4c0,0.3-0.3,0.6-0.6,0.6h-7.2c-0.3,0-0.6-0.3-0.6-0.6v-3.4
				C22.6,23.8,22.8,23.5,23.2,23.5z"/>
			<path class="st1" d="M23.2,28.9h7.2c0.3,0,0.6,0.3,0.6,0.6v3.4c0,0.3-0.3,0.6-0.6,0.6h-7.2c-0.3,0-0.6-0.3-0.6-0.6v-3.4
				C22.6,29.1,22.8,28.9,23.2,28.9z"/>
			<path class="st2" d="M26,29.1h1.5c1.2,0,2.1,1,2.1,2.1v1.9l0,0h-5.8l0,0v-1.9C23.8,30.1,24.8,29.1,26,29.1
				C26,29.1,26,29.1,26,29.1z"/>
			<path class="st1" d="M29.6,33.3h-5.8c-0.1,0-0.1-0.1-0.1-0.1V32c-0.1-1.7,1.2-3.1,2.9-3.1c1.7-0.1,3.1,1.2,3.1,2.9
				c0,0.1,0,0.1,0,0.2v1.1C29.7,33.2,29.7,33.3,29.6,33.3z M24,33h5.5v-1c0.1-1.5-1.1-2.8-2.6-2.9c-1.5-0.1-2.8,1.1-2.9,2.6
				c0,0.1,0,0.1,0,0.2L24,33z"/>
			<path class="st2" d="M26,23.7h1.5c1.2,0,2.1,1,2.1,2.1v1.9l0,0h-5.8l0,0v-1.9C23.8,24.7,24.8,23.7,26,23.7z"/>
			<path class="st1" d="M29.6,27.9h-5.8c-0.1,0-0.1-0.1-0.1-0.1l0,0v-1.1c0.1-1.7,1.5-3,3.1-2.9c1.6,0.1,2.8,1.3,2.9,2.9v1.1
				C29.7,27.8,29.7,27.9,29.6,27.9z M24,27.6h5.5v-1c-0.1-1.5-1.3-2.7-2.9-2.6C25.2,24,24,25.2,24,26.6L24,27.6z"/>
			<path class="st2" d="M11,35.2h0.9c0.7,0,1.3,0.6,1.3,1.3v3.4l0,0H9.7l0,0v-3.4C9.7,35.8,10.3,35.2,11,35.2z"/>
			<path class="st1" d="M13.2,40H9.7c-0.1,0-0.1-0.1-0.1-0.1v-2.9c0-1,0.8-1.9,1.8-2s1.9,0.8,2,1.8c0,0.1,0,0.1,0,0.2v2.9
				C13.3,39.9,13.3,40,13.2,40z M9.9,39.7h3.2v-2.8c0-0.9-0.8-1.6-1.7-1.5c-0.8,0-1.5,0.7-1.5,1.5V39.7z"/>
			<path class="st2" d="M16.4,35.2h0.9c0.7,0,1.3,0.6,1.3,1.3v3.4l0,0h-3.5l0,0v-3.4C15.2,35.8,15.7,35.2,16.4,35.2z"/>
			<path class="st1" d="M18.6,40h-3.5c-0.1,0-0.1-0.1-0.1-0.1v-2.9c0-1,0.8-1.9,1.8-2s1.9,0.8,2,1.8c0,0.1,0,0.1,0,0.2v2.9
				C18.8,39.9,18.7,40,18.6,40L18.6,40z M15.3,39.7h3.2v-2.8c0-0.9-0.8-1.6-1.7-1.5c-0.8,0-1.5,0.7-1.5,1.5V39.7z"/>
			<path class="st2" d="M35.4,35.2h0.9c0.7,0,1.3,0.6,1.3,1.3v3.4l0,0h-3.5l0,0v-3.4C34.1,35.8,34.7,35.2,35.4,35.2L35.4,35.2z"/>
			<path class="st1" d="M37.6,40h-3.5C34,40,34,39.9,34,39.9v-2.9c0-1,0.8-1.9,1.8-2s1.9,0.8,2,1.8c0,0.1,0,0.1,0,0.2v2.9
				C37.7,39.9,37.7,40,37.6,40L37.6,40z M34.2,39.7h3.2v-2.8c0-0.9-0.8-1.6-1.7-1.5c-0.8,0-1.5,0.7-1.5,1.5L34.2,39.7z"/>
			<path class="st2" d="M40.8,35.2h0.9c0.7,0,1.3,0.6,1.3,1.3v3.4l0,0h-3.5l0,0v-3.4C39.5,35.8,40.1,35.2,40.8,35.2z"/>
			<path class="st1" d="M43,40h-3.5c-0.1,0-0.1-0.1-0.1-0.1v-2.9c0-1,0.8-1.9,1.9-1.9s1.9,0.8,1.9,1.9l0,0v2.9
				C43.1,39.9,43.1,40,43,40C43,40,43,40,43,40z M39.7,39.7h3.2v-2.8c0-0.9-0.8-1.6-1.7-1.5c-0.8,0-1.5,0.7-1.5,1.5V39.7z"/>
			<path class="st2" d="M11,29.9h0.9c0.7,0,1.3,0.6,1.3,1.3V33l0,0H9.7l0,0v-1.8C9.7,30.4,10.3,29.9,11,29.9z"/>
			<path class="st1" d="M13.2,33.1H9.7c-0.1,0-0.1-0.1-0.1-0.1v-1.4c0-1,0.8-1.9,1.8-2s1.9,0.8,2,1.8c0,0.1,0,0.1,0,0.2V33
				C13.3,33.1,13.3,33.1,13.2,33.1z M9.9,32.9h3.2v-1.3c0-0.9-0.6-1.6-1.5-1.7s-1.6,0.6-1.7,1.5c0,0.1,0,0.1,0,0.2V32.9z"/>
			<path class="st2" d="M16.4,29.9h0.9c0.7,0,1.3,0.6,1.3,1.3V33l0,0h-3.5l0,0v-1.8C15.2,30.4,15.7,29.9,16.4,29.9z"/>
			<path class="st1" d="M18.6,33.1h-3.5c-0.1,0-0.1-0.1-0.1-0.1v-1.4c0-1,0.8-1.9,1.8-2s1.9,0.8,2,1.8c0,0.1,0,0.1,0,0.2V33
				C18.8,33.1,18.7,33.1,18.6,33.1z M15.3,32.9h3.2v-1.3c0-0.9-0.6-1.6-1.5-1.7s-1.6,0.6-1.7,1.5c0,0.1,0,0.1,0,0.2V32.9z"/>
			<path class="st2" d="M35.4,29.9h0.9c0.7,0,1.3,0.6,1.3,1.3c0,0,0,0,0,0V33l0,0h-3.5l0,0v-1.8C34.1,30.4,34.7,29.9,35.4,29.9
				L35.4,29.9z"/>
			<path class="st1" d="M37.6,33.1h-3.5C34,33.1,34,33.1,34,33v-1.4c0-1,0.8-1.9,1.8-2s1.9,0.8,2,1.8c0,0.1,0,0.1,0,0.2V33
				C37.7,33.1,37.7,33.1,37.6,33.1z M34.2,32.9h3.2v-1.3c0-0.9-0.6-1.6-1.5-1.7c-0.9,0-1.6,0.6-1.7,1.5c0,0.1,0,0.1,0,0.2L34.2,32.9
				z"/>
			<path class="st2" d="M40.8,29.9h0.9c0.7,0,1.3,0.6,1.3,1.3V33l0,0h-3.5l0,0v-1.8C39.5,30.4,40.1,29.9,40.8,29.9z"/>
			<path class="st1" d="M43,33.1h-3.5c-0.1,0-0.1-0.1-0.1-0.1v-1.4c0-1,0.8-1.9,1.9-1.9s1.9,0.8,1.9,1.9l0,0V33
				C43.1,33.1,43.1,33.1,43,33.1C43,33.1,43,33.1,43,33.1z M39.7,32.9h3.2v-1.3c0-0.9-0.6-1.6-1.5-1.7c-0.9,0-1.6,0.6-1.7,1.5
				c0,0.1,0,0.1,0,0.2V32.9z"/>
			<path class="st1" d="M13.2,32.5H9.7c-0.1,0-0.1-0.1-0.1-0.1c0-0.1,0.1-0.1,0.1-0.1h3.5c0.1,0,0.1,0.1,0.1,0.1
				C13.3,32.4,13.3,32.5,13.2,32.5z"/>
			<path class="st1" d="M18.6,32.5h-3.5c-0.1,0-0.1-0.1-0.1-0.1c0-0.1,0.1-0.1,0.1-0.1h3.5c0.1,0,0.1,0.1,0.1,0.1
				C18.8,32.4,18.7,32.5,18.6,32.5z"/>
			<path class="st1" d="M37.6,32.5h-3.5c-0.1,0-0.1-0.1-0.1-0.1c0-0.1,0.1-0.1,0.1-0.1h3.5c0.1,0,0.1,0.1,0.1,0.1
				C37.7,32.4,37.7,32.5,37.6,32.5z"/>
			<path class="st1" d="M43,32.5h-3.5c-0.1,0-0.1-0.1-0.1-0.1c0-0.1,0.1-0.1,0.1-0.1H43c0.1,0,0.1,0.1,0.1,0.1
				C43.1,32.4,43.1,32.5,43,32.5C43,32.5,43,32.5,43,32.5z"/>
			<path class="st3" d="M10.4,38.7c0-0.2-0.1-0.4-0.2-0.5c0.2-0.3,0.2-0.7-0.1-1c-0.1,0-0.1-0.1-0.2-0.1c0-0.1,0-0.1,0-0.2
				c0-0.4-0.3-0.7-0.7-0.7c0,0,0,0,0,0H9.1c-0.1-0.4-0.5-0.6-0.9-0.5c-0.2,0.1-0.3,0.2-0.4,0.4c-0.3-0.2-0.7-0.1-0.9,0.3
				c0,0,0,0,0,0c-0.1-0.1-0.3-0.2-0.4-0.2c-0.4,0-0.7,0.3-0.7,0.7v0c-0.4,0-0.7,0.4-0.7,0.7c0,0.2,0.1,0.4,0.3,0.5l0,0
				c-0.3,0.2-0.4,0.6-0.2,0.9c0.1,0.2,0.3,0.3,0.5,0.3C5.8,39.8,6.1,40,6.4,40h2.8c0.3,0,0.5-0.2,0.5-0.5l0,0c0-0.1,0-0.1,0-0.1h0
				C10.1,39.3,10.4,39,10.4,38.7z"/>
			<path class="st3" d="M47.2,38.7c0-0.2-0.1-0.4-0.2-0.5c0.1-0.1,0.1-0.3,0.1-0.4c0-0.3-0.2-0.6-0.5-0.7c0-0.1,0-0.1,0-0.2
				c0-0.4-0.3-0.7-0.7-0.7c0,0,0,0,0,0h-0.1c-0.1-0.4-0.5-0.6-0.8-0.5c-0.2,0.1-0.4,0.2-0.5,0.4c-0.3-0.2-0.7-0.1-0.9,0.3
				c-0.1-0.1-0.3-0.2-0.4-0.2c-0.4,0-0.7,0.3-0.7,0.7c0,0,0,0,0,0v0c-0.4,0-0.7,0.3-0.7,0.7c0,0.2,0.1,0.4,0.3,0.6l0,0
				c-0.3,0.2-0.4,0.6-0.2,0.9c0.1,0.2,0.3,0.3,0.5,0.3c0.1,0.3,0.3,0.5,0.6,0.5H46c0.3,0,0.5-0.2,0.5-0.5c0,0,0,0,0,0
				c0-0.1,0-0.1,0-0.1h0C46.9,39.3,47.2,39,47.2,38.7C47.2,38.7,47.2,38.7,47.2,38.7z"/>
			<g>
				<path class="st2" d="M23.5,21.6v1.2c0,0.1-0.1,0.1-0.1,0.1c-0.1,0-0.1,0-0.1-0.1v-0.8L23,22.3c0,0-0.1,0-0.1,0h0h0
					c0,0-0.1,0-0.1,0l-0.3-0.4v0.8c0,0.1,0,0.1-0.1,0.1c-0.1,0-0.1,0-0.1-0.1v-1.2c0-0.1,0-0.1,0.1-0.1c0,0,0,0,0,0c0,0,0.1,0,0.1,0
					l0.4,0.5l0.4-0.5c0,0,0.1,0,0.1,0c0,0,0,0,0,0C23.5,21.5,23.5,21.5,23.5,21.6z"/>
				<path class="st2" d="M24.6,22.5h-0.5L24,22.8c0,0-0.1,0.1-0.1,0.1c0,0,0,0,0,0c-0.1,0-0.1-0.1-0.1-0.1l0.4-1.1
					c0,0,0.1-0.1,0.1-0.1c0,0,0.1,0,0.1,0.1l0.4,1.1c0,0.1,0,0.1-0.1,0.1c0,0,0,0,0,0c0,0-0.1,0-0.1-0.1L24.6,22.5z M24.5,22.3
					l-0.2-0.4l-0.2,0.4H24.5z"/>
				<path class="st2" d="M25.1,22.8v-1.2c0-0.1,0-0.1,0.1-0.1h0.2c0.4,0,0.7,0.3,0.7,0.7c0,0.4-0.3,0.7-0.7,0.7h-0.2
					C25.2,22.9,25.1,22.8,25.1,22.8z M25.3,22.6h0.1c0.3,0,0.5-0.2,0.5-0.5c0-0.3-0.2-0.5-0.5-0.5h-0.1V22.6z"/>
				<path class="st2" d="M27.4,22.7c0,0.1,0,0.1-0.1,0.1c0,0,0,0,0,0c0,0,0,0,0,0c0,0,0,0-0.1,0c0,0,0,0-0.1-0.1c0-0.1,0-0.1,0-0.2
					c0,0,0-0.1,0-0.1c0,0,0,0-0.1-0.1c0,0-0.1,0-0.1,0h-0.2v0.4c0,0.1,0,0.1-0.1,0.1c-0.1,0-0.1,0-0.1-0.1v-1.2c0-0.1,0-0.1,0.1-0.1
					c0,0,0,0,0,0h0.3c0.2,0,0.4,0.2,0.4,0.4c0,0.1-0.1,0.2-0.2,0.3c0,0,0,0,0.1,0.1c0,0.1,0.1,0.1,0.1,0.2
					C27.3,22.6,27.3,22.6,27.4,22.7C27.3,22.6,27.4,22.7,27.4,22.7z M27.1,21.9c0-0.1-0.1-0.2-0.2-0.2h-0.2v0.4h0.2
					C27,22.1,27.1,22,27.1,21.9z"/>
				<path class="st2" d="M28.4,22.5h-0.5l-0.1,0.3c0,0-0.1,0.1-0.1,0.1c0,0,0,0,0,0c-0.1,0-0.1-0.1-0.1-0.1l0.4-1.1
					c0,0,0.1-0.1,0.1-0.1c0,0,0.1,0,0.1,0.1l0.4,1.1c0,0.1,0,0.1-0.1,0.1c0,0,0,0,0,0c0,0-0.1,0-0.1-0.1L28.4,22.5z M28.3,22.3
					l-0.2-0.4L28,22.3H28.3z"/>
				<path class="st2" d="M28.9,22.5c0,0,0.1,0,0.1,0c0.1,0.1,0.2,0.2,0.4,0.2c0.1,0,0.2,0,0.2-0.1c0.1,0,0.1-0.1,0.1-0.1
					c0,0,0,0,0-0.1c0,0,0,0-0.1-0.1c-0.1,0-0.2-0.1-0.3-0.1h0c-0.1,0-0.2,0-0.3-0.1c-0.1,0-0.1-0.1-0.2-0.2c0,0,0-0.1,0-0.2
					c0-0.1,0.1-0.2,0.2-0.3c0.1-0.1,0.2-0.1,0.3-0.1c0.2,0,0.3,0.1,0.4,0.2c0,0,0.1,0.1,0,0.1c0,0-0.1,0.1-0.1,0
					c-0.1-0.1-0.2-0.1-0.3-0.1c-0.1,0-0.2,0-0.2,0.1c-0.1,0-0.1,0.1-0.1,0.1c0,0,0,0,0,0.1c0,0,0,0,0.1,0.1c0.1,0,0.1,0.1,0.2,0.1h0
					c0.1,0,0.2,0,0.3,0.1c0.1,0,0.2,0.1,0.2,0.2c0,0,0,0.1,0,0.2c0,0.1-0.1,0.2-0.2,0.3c-0.1,0.1-0.2,0.1-0.4,0.1
					c-0.2,0-0.4-0.1-0.5-0.2C28.9,22.6,28.8,22.6,28.9,22.5z"/>
				<path class="st2" d="M30.9,22.5h-0.5l-0.1,0.3c0,0-0.1,0.1-0.1,0.1c0,0,0,0,0,0c-0.1,0-0.1-0.1-0.1-0.1l0.4-1.1
					c0,0,0.1-0.1,0.1-0.1c0,0,0.1,0,0.1,0.1l0.4,1.1c0,0.1,0,0.1-0.1,0.1c0,0,0,0,0,0c0,0-0.1,0-0.1-0.1L30.9,22.5z M30.8,22.3
					l-0.2-0.4l-0.2,0.4H30.8z"/>
			</g>
		</g>
	</g>
</g>
</svg>
