<svg xmlns="http://www.w3.org/2000/svg" viewBox="0 0 142.48 141.87"><defs><style>.cls-1{opacity:0.1;}.cls-2{fill:#f79a23;}.cls-3{fill:#dd7f19;}.cls-4{fill:#474748;}.cls-5,.cls-7{fill:#fff;}.cls-6{fill:#f2f2f2;}.cls-7{stroke:#474748;stroke-linecap:round;stroke-linejoin:round;stroke-width:0.5px;}</style></defs><title>Asset 11</title><g id="Layer_2" data-name="Layer 2"><g id="Layer_1-2" data-name="Layer 1"><rect class="cls-1" x="4.23" y="3.62" width="138.25" height="138.25" rx="5.97" ry="5.97"/><rect class="cls-2" width="138.25" height="138.25" rx="5.97" ry="5.97"/><path class="cls-3" d="M80.3,44.34,94.89,60.22h16.72l26.64,38.05v34.08a5.91,5.91,0,0,1-5.9,5.9H47.94L10.45,92.58l9.83-12.39-3.08-17-.34-3L52.34,62.9l-4.4-18.56Z"/><rect class="cls-4" x="16.86" y="60.22" width="94.52" height="3.33"/><rect class="cls-4" x="47.94" y="44.34" width="32.36" height="5.2"/><rect class="cls-5" x="16.86" y="62.9" width="94.52" height="29.24"/><path class="cls-4" d="M111.38,92.47H16.86a.34.34,0,0,1-.33-.34V62.9a.34.34,0,0,1,.33-.34h94.52a.34.34,0,0,1,.34.34V92.13A.34.34,0,0,1,111.38,92.47ZM17.2,91.8h93.85V63.23H17.2Z"/><path class="cls-4" d="M111.38,77H16.86a.34.34,0,0,1,0-.67h94.52a.34.34,0,1,1,0,.67Z"/><rect class="cls-5" x="49.45" y="49.12" width="29.34" height="43.01"/><path class="cls-4" d="M78.79,92.47H49.45a.34.34,0,0,1-.33-.34v-43a.34.34,0,0,1,.33-.34H78.79a.34.34,0,0,1,.34.34v43A.34.34,0,0,1,78.79,92.47Zm-29-.67H78.46V49.45H49.79Z"/><rect class="cls-4" x="53.54" y="76.68" width="21.42" height="15.45"/><path class="cls-5" d="M62.23,78.36H66a5.5,5.5,0,0,1,5.5,5.5v8.27a0,0,0,0,1,0,0H56.73a0,0,0,0,1,0,0V83.86A5.5,5.5,0,0,1,62.23,78.36Z"/><path class="cls-4" d="M71.51,92.47H56.73a.34.34,0,0,1-.33-.34V85.75a7.73,7.73,0,1,1,15.45,0v6.38A.34.34,0,0,1,71.51,92.47ZM57.07,91.8H71.18v-6a7.06,7.06,0,1,0-14.11,0Z"/><rect class="cls-4" x="53.54" y="50.22" width="21.42" height="11.66"/><rect class="cls-4" x="53.54" y="63.99" width="21.42" height="11.66"/><path class="cls-5" d="M62.23,64.67H66a5.5,5.5,0,0,1,5.5,5.5V75a0,0,0,0,1,0,0H56.73a0,0,0,0,1,0,0v-4.8A5.5,5.5,0,0,1,62.23,64.67Z"/><path class="cls-4" d="M71.51,75.31H56.73A.34.34,0,0,1,56.4,75V72.06a7.73,7.73,0,1,1,15.45,0V75A.34.34,0,0,1,71.51,75.31Zm-14.44-.68H71.18V72.06a7.06,7.06,0,1,0-14.11,0Z"/><path class="cls-5" d="M62.23,50.75H66a5.5,5.5,0,0,1,5.5,5.5v4.8a0,0,0,0,1,0,0H56.73a0,0,0,0,1,0,0v-4.8A5.5,5.5,0,0,1,62.23,50.75Z"/><path class="cls-4" d="M71.51,61.39H56.73a.33.33,0,0,1-.33-.33V58.14a7.73,7.73,0,0,1,15.45,0v2.92A.34.34,0,0,1,71.51,61.39Zm-14.44-.67H71.18V58.14a7.06,7.06,0,0,0-14.11,0Z"/><path class="cls-5" d="M23.93,80.19h2.28a3.31,3.31,0,0,1,3.31,3.31v8.63a0,0,0,0,1,0,0h-8.9a0,0,0,0,1,0,0V83.5A3.31,3.31,0,0,1,23.93,80.19Z"/><path class="cls-4" d="M29.52,92.47H20.61a.34.34,0,0,1-.33-.34V84.64a4.79,4.79,0,1,1,9.57,0v7.49A.34.34,0,0,1,29.52,92.47ZM21,91.8h8.23V84.64a4.12,4.12,0,0,0-8.23,0Z"/><path class="cls-5" d="M37.81,80.19h2.28A3.31,3.31,0,0,1,43.4,83.5v8.63a0,0,0,0,1,0,0H34.5a0,0,0,0,1,0,0V83.5a3.31,3.31,0,0,1,3.31-3.31Z"/><path class="cls-4" d="M43.4,92.47H34.5a.34.34,0,0,1-.33-.34V84.64a4.79,4.79,0,1,1,9.57,0v7.49A.34.34,0,0,1,43.4,92.47Zm-8.56-.67h8.23V84.64a4.12,4.12,0,0,0-8.23,0Z"/><path class="cls-5" d="M86.42,80.19h2.28A3.31,3.31,0,0,1,92,83.5v8.63a0,0,0,0,1,0,0H83.1a0,0,0,0,1,0,0V83.5a3.31,3.31,0,0,1,3.31-3.31Z"/><path class="cls-4" d="M92,92.47H83.1a.34.34,0,0,1-.33-.34V84.64a4.79,4.79,0,1,1,9.57,0v7.49A.34.34,0,0,1,92,92.47Zm-8.57-.67h8.23V84.64a4.12,4.12,0,0,0-8.23,0Z"/><path class="cls-5" d="M100.3,80.19h2.28a3.31,3.31,0,0,1,3.31,3.31v8.63a0,0,0,0,1,0,0H97a0,0,0,0,1,0,0V83.5A3.31,3.31,0,0,1,100.3,80.19Z"/><path class="cls-4" d="M105.89,92.47H97a.34.34,0,0,1-.34-.34V84.64a4.79,4.79,0,1,1,9.58,0v7.49A.34.34,0,0,1,105.89,92.47Zm-8.56-.67h8.23V84.64a4.12,4.12,0,0,0-8.23,0Z"/><path class="cls-5" d="M23.93,66.53h2.28a3.31,3.31,0,0,1,3.31,3.31v4.7a0,0,0,0,1,0,0h-8.9a0,0,0,0,1,0,0v-4.7A3.31,3.31,0,0,1,23.93,66.53Z"/><path class="cls-4" d="M29.52,74.89H20.61a.34.34,0,0,1-.33-.34V71a4.79,4.79,0,1,1,9.57,0v3.56A.34.34,0,0,1,29.52,74.89ZM21,74.21h8.23V71A4.12,4.12,0,1,0,21,71Z"/><path class="cls-5" d="M37.81,66.53h2.28a3.31,3.31,0,0,1,3.31,3.31v4.7a0,0,0,0,1,0,0H34.5a0,0,0,0,1,0,0v-4.7A3.31,3.31,0,0,1,37.81,66.53Z"/><path class="cls-4" d="M43.4,74.89H34.5a.34.34,0,0,1-.33-.34V71a4.79,4.79,0,1,1,9.57,0v3.56A.34.34,0,0,1,43.4,74.89Zm-8.56-.68h8.23V71a4.12,4.12,0,1,0-8.23,0Z"/><path class="cls-5" d="M86.42,66.53h2.28A3.31,3.31,0,0,1,92,69.85v4.7a0,0,0,0,1,0,0H83.1a0,0,0,0,1,0,0v-4.7a3.31,3.31,0,0,1,3.31-3.31Z"/><path class="cls-4" d="M92,74.89H83.1a.34.34,0,0,1-.33-.34V71a4.79,4.79,0,1,1,9.57,0v3.56A.34.34,0,0,1,92,74.89Zm-8.57-.68h8.23V71a4.12,4.12,0,1,0-8.23,0Z"/><path class="cls-5" d="M100.3,66.53h2.28a3.31,3.31,0,0,1,3.31,3.31v4.7a0,0,0,0,1,0,0H97a0,0,0,0,1,0,0v-4.7A3.31,3.31,0,0,1,100.3,66.53Z"/><path class="cls-4" d="M105.89,74.89H97a.34.34,0,0,1-.34-.34V71a4.79,4.79,0,0,1,9.58,0v3.56A.34.34,0,0,1,105.89,74.89Zm-8.56-.68h8.23V71a4.12,4.12,0,1,0-8.23,0Z"/><line class="cls-5" x1="20.61" y1="72.9" x2="29.52" y2="72.9"/><path class="cls-4" d="M29.52,73.24H20.61a.34.34,0,0,1-.33-.34.34.34,0,0,1,.33-.34h8.91a.34.34,0,0,1,.33.34A.34.34,0,0,1,29.52,73.24Z"/><line class="cls-5" x1="34.5" y1="72.9" x2="43.4" y2="72.9"/><path class="cls-4" d="M43.4,73.24H34.5a.34.34,0,0,1-.33-.34.34.34,0,0,1,.33-.34h8.9a.34.34,0,0,1,.34.34A.34.34,0,0,1,43.4,73.24Z"/><line class="cls-5" x1="83.1" y1="72.9" x2="92.01" y2="72.9"/><path class="cls-4" d="M92,73.24H83.1a.34.34,0,0,1-.33-.34.34.34,0,0,1,.33-.34H92a.34.34,0,0,1,.33.34A.34.34,0,0,1,92,73.24Z"/><line class="cls-5" x1="96.99" y1="72.9" x2="105.89" y2="72.9"/><path class="cls-4" d="M105.89,73.24H97a.35.35,0,0,1-.34-.34.34.34,0,0,1,.34-.34h8.9a.34.34,0,0,1,.34.34A.34.34,0,0,1,105.89,73.24Z"/><path class="cls-6" d="M54.85,48.51v-2l-.81,2h-.27l-.81-2v2h-.62V45.62h.86l.7,1.74.7-1.74h.87v2.89Z"/><path class="cls-6" d="M58,48.51,57.85,48H56.61l-.18.49h-.7l1.12-2.89h.77l1.11,2.89Zm-.8-2.28-.45,1.25h.9Z"/><path class="cls-6" d="M59,48.51V45.62h1.14a1.45,1.45,0,1,1,0,2.89Zm2-1.45a.85.85,0,0,0-.91-.9h-.52V48h.52A.88.88,0,0,0,61,47.06Z"/><path class="cls-6" d="M63.73,48.51l-.57-1h-.45v1H62.1V45.62h1.35a.9.9,0,0,1,1,.93.84.84,0,0,1-.63.86l.65,1.1Zm.06-2a.39.39,0,0,0-.43-.39h-.65v.78h.65A.39.39,0,0,0,63.79,46.55Z"/><path class="cls-6" d="M66.87,48.51,66.69,48H65.45l-.18.49h-.7l1.12-2.89h.77l1.11,2.89Zm-.8-2.28-.45,1.25h.9Z"/><path class="cls-6" d="M67.61,48.1l.34-.47a1.25,1.25,0,0,0,.91.39c.34,0,.5-.15.5-.32,0-.51-1.66-.16-1.66-1.24,0-.48.42-.88,1.1-.88a1.6,1.6,0,0,1,1.12.4l-.34.45a1.21,1.21,0,0,0-.84-.32c-.26,0-.41.12-.41.29,0,.46,1.66.15,1.66,1.23,0,.53-.38.93-1.16.93A1.66,1.66,0,0,1,67.61,48.1Z"/><path class="cls-6" d="M72.35,48.51,72.17,48H70.93l-.18.49h-.7l1.12-2.89h.77l1.11,2.89Zm-.8-2.28-.45,1.25H72Z"/><path class="cls-6" d="M75.29,48.51V47.29H73.93v1.22h-.61V45.62h.61v1.13h1.36V45.62h.62v2.89Z"/><path class="cls-7" d="M22.37,89.07a1.68,1.68,0,0,0-.58-1.28,1.75,1.75,0,0,0-.88-2.74,1.55,1.55,0,0,0,.09-.53,1.75,1.75,0,0,0-1.76-1.75H19a1.76,1.76,0,0,0-3.27-.28,1.75,1.75,0,0,0-2.38.68,1.72,1.72,0,0,0-1.13-.41,1.75,1.75,0,0,0-1.75,1.75v.09a1.8,1.8,0,0,0-.84,3.32v0a1.75,1.75,0,0,0,.67,3.2A1.75,1.75,0,0,0,12,92.58h7.27a1.4,1.4,0,0,0,1.4-1.4,1.58,1.58,0,0,0-.05-.38h.05A1.72,1.72,0,0,0,22.37,89.07Z"/><path class="cls-7" d="M116.66,89.07a1.71,1.71,0,0,0-.57-1.28,1.8,1.8,0,0,0,.35-1.06,1.76,1.76,0,0,0-1.23-1.68,1.84,1.84,0,0,0,.08-.53,1.75,1.75,0,0,0-1.76-1.75h-.23A1.75,1.75,0,0,0,110,82.5a1.76,1.76,0,0,0-2.39.68,1.7,1.7,0,0,0-1.12-.41,1.75,1.75,0,0,0-1.76,1.75v.09a1.79,1.79,0,0,0-.83,3.32v0a1.75,1.75,0,0,0,.67,3.2,1.76,1.76,0,0,0,1.66,1.41h7.27a1.39,1.39,0,0,0,1.4-1.4,1.2,1.2,0,0,0-.05-.38h.05A1.72,1.72,0,0,0,116.66,89.07Z"/></g></g></svg>