<svg xmlns="http://www.w3.org/2000/svg" width="25.795" height="25.794" viewBox="0 0 25.795 25.794">
  <path id="Icon_awesome-paint-brush" data-name="Icon awesome-paint-brush" d="M8.414,15.585a5.1,5.1,0,0,0-4.9,3.642.769.769,0,0,1-.735.5C2.223,19.73.493,18.336,0,18c0,4.149,1.911,7.8,6.449,7.8,3.822,0,6.449-2.205,6.449-6.055a4.365,4.365,0,0,0-.049-.46L8.414,15.585ZM23.068,0a3.077,3.077,0,0,0-2.026.829c-10.3,9.2-11.37,9.416-11.37,12.123a4.664,4.664,0,0,0,.44,1.95l3.215,2.679a4.636,4.636,0,0,0,1.128.153c3.129,0,4.943-2.291,10.638-12.92a5.184,5.184,0,0,0,.7-2.317A2.623,2.623,0,0,0,23.068,0Z" transform="translate(0.001)" fill="#927ad5"/>
</svg>
