<svg xmlns="http://www.w3.org/2000/svg" viewBox="0 0 238.97 209.11"><defs><style>.cls-1{fill:#e0e0e0;}.cls-2,.cls-3{fill:#fff;}.cls-2{stroke:#1b75bb;stroke-miterlimit:10;stroke-width:2px;}.cls-4{fill:#bce8f1;}.cls-5{fill:#f9f9f9;}.cls-6{fill:#73cfe0;}.cls-7{fill:#d6e9c6;}.cls-8{fill:#3a3a3a;}.cls-9{fill:#ddd;}.cls-10{fill:#606060;}.cls-11{fill:#999;}.cls-12{fill:#b2b2b2;}.cls-13{fill:#2877af;}.cls-14{fill:#e2e2e2;}.cls-15{fill:#b7b7b7;}.cls-16{fill:#aaa;}.cls-17{fill:#565656;}.cls-18{fill:#888;}.cls-19{fill:#565a5c;}.cls-20{fill:#d8d8d8;}.cls-21{fill:#9e9e9e;}.cls-22{fill:#7d7b80;}.cls-23{fill:#7acef0;}</style></defs><title>pathology-radiology</title><g id="Layer_2" data-name="Layer 2"><g id="Layer_1-2" data-name="Layer 1"><rect class="cls-1" x="107.23" y="5.15" width="127.46" height="163.07" transform="matrix(1, 0.05, -0.05, 1, 4.9, -9.04)"/><rect class="cls-2" x="106.23" y="5.15" width="127.46" height="163.07" transform="translate(2.45 -4.64) rotate(1.58)"/><rect class="cls-3" x="109.07" y="8.12" width="121.77" height="157.36" transform="translate(2.45 -4.64) rotate(1.58)"/><path class="cls-4" d="M228.73,167.21l-121.89-3.36L111.18,6.39,233.07,9.74ZM107,163.69,228.57,167,232.89,9.9,111.34,6.56Z"/><rect class="cls-5" x="115.62" y="29.38" width="6.12" height="4.56" transform="translate(0.92 -3.25) rotate(1.58)"/><rect class="cls-5" x="115.37" y="38.38" width="6.12" height="4.56" transform="translate(1.16 -3.24) rotate(1.58)"/><rect class="cls-5" x="115.12" y="47.37" width="6.12" height="4.56" transform="translate(1.41 -3.23) rotate(1.58)"/><rect class="cls-5" x="114.87" y="56.37" width="6.12" height="4.56" transform="translate(1.66 -3.22) rotate(1.58)"/><rect class="cls-5" x="114.63" y="65.37" width="6.12" height="4.56" transform="translate(1.91 -3.21) rotate(1.58)"/><rect class="cls-5" x="114.38" y="74.37" width="6.12" height="4.56" transform="translate(2.15 -3.2) rotate(1.58)"/><rect class="cls-5" x="114.13" y="83.36" width="6.12" height="4.56" transform="translate(2.4 -3.19) rotate(1.58)"/><rect class="cls-5" x="113.88" y="92.36" width="6.12" height="4.56" transform="translate(2.65 -3.18) rotate(1.58)"/><rect class="cls-5" x="113.64" y="101.36" width="6.12" height="4.56" transform="translate(2.89 -3.17) rotate(1.58)"/><rect class="cls-5" x="113.39" y="110.36" width="6.12" height="4.56" transform="translate(3.14 -3.16) rotate(1.58)"/><rect class="cls-5" x="113.14" y="119.36" width="6.12" height="4.56" transform="translate(3.39 -3.15) rotate(1.58)"/><rect class="cls-5" x="112.89" y="128.35" width="6.12" height="4.56" transform="translate(3.64 -3.14) rotate(1.58)"/><rect class="cls-5" x="112.65" y="137.35" width="6.12" height="4.56" transform="translate(3.88 -3.13) rotate(1.58)"/><rect class="cls-6" x="111.11" y="8.15" width="121.81" height="5.83" transform="translate(0.37 -4.73) rotate(1.58)"/><rect class="cls-7" x="113.3" y="23.73" width="116.65" height="0.5" transform="translate(0.72 -4.71) rotate(1.58)"/><rect class="cls-3" x="115.96" y="8.92" width="15.88" height="1.55" transform="translate(0.31 -3.4) rotate(1.58)"/><rect class="cls-8" x="129.3" y="5.6" width="1.7" height="28.51" transform="translate(106.73 149.41) rotate(-88.42)"/><path class="cls-9" d="M224.12,144.93l-111.7-3.07,3.22-117,111.7,3.08Zm-111.47-3.29L223.9,144.7l3.21-116.58L115.86,25.06Z"/><rect class="cls-9" x="171.26" y="-24.96" width="0.23" height="111.52" transform="translate(135.87 201.26) rotate(-88.42)"/><rect class="cls-9" x="171.13" y="-20.37" width="0.23" height="111.52" transform="translate(131.16 205.6) rotate(-88.42)"/><rect class="cls-9" x="171.01" y="-15.88" width="0.23" height="111.52" transform="translate(126.55 209.84) rotate(-88.42)"/><rect class="cls-9" x="170.88" y="-11.34" width="0.23" height="111.52" transform="translate(121.89 214.13) rotate(-88.42)"/><rect class="cls-9" x="170.76" y="-6.94" width="0.23" height="111.52" transform="translate(117.37 218.29) rotate(-88.42)"/><rect class="cls-9" x="170.63" y="-2.29" width="0.23" height="111.52" transform="translate(112.6 222.68) rotate(-88.42)"/><rect class="cls-9" x="170.51" y="2.13" width="0.23" height="111.52" transform="translate(108.06 226.86) rotate(-88.42)"/><rect class="cls-9" x="170.39" y="6.72" width="0.23" height="111.52" transform="translate(103.35 231.2) rotate(-88.42)"/><rect class="cls-9" x="170.26" y="11.09" width="0.23" height="111.52" transform="translate(98.87 235.32) rotate(-88.42)"/><rect class="cls-9" x="170.14" y="15.68" width="0.23" height="111.52" transform="translate(94.16 239.66) rotate(-88.42)"/><rect class="cls-9" x="170.02" y="20.04" width="0.23" height="111.52" transform="translate(89.68 243.78) rotate(-88.42)"/><rect class="cls-9" x="169.89" y="24.63" width="0.23" height="111.52" transform="translate(84.97 248.12) rotate(-88.42)"/><rect class="cls-9" x="169.77" y="29.22" width="0.23" height="111.52" transform="translate(80.26 252.46) rotate(-88.42)"/><rect class="cls-9" x="169.65" y="33.59" width="0.23" height="111.52" transform="translate(75.78 256.59) rotate(-88.42)"/><rect class="cls-9" x="169.52" y="38.18" width="0.23" height="111.52" transform="translate(71.06 260.92) rotate(-88.42)"/><rect class="cls-9" x="169.4" y="42.54" width="0.23" height="111.52" transform="translate(66.58 265.05) rotate(-88.42)"/><rect class="cls-9" x="169.27" y="47.14" width="0.23" height="111.52" transform="translate(61.87 269.39) rotate(-88.42)"/><rect class="cls-9" x="169.15" y="51.5" width="0.23" height="111.52" transform="translate(57.39 273.51) rotate(-88.42)"/><rect class="cls-9" x="169.03" y="56.09" width="0.23" height="111.52" transform="translate(52.68 277.85) rotate(-88.42)"/><rect class="cls-9" x="168.9" y="60.68" width="0.23" height="111.52" transform="translate(47.97 282.19) rotate(-88.42)"/><rect class="cls-9" x="168.78" y="65.05" width="0.23" height="111.52" transform="translate(43.49 286.31) rotate(-88.42)"/><rect class="cls-9" x="168.65" y="69.64" width="0.23" height="111.52" transform="translate(38.78 290.65) rotate(-88.42)"/><rect class="cls-9" x="168.53" y="74" width="0.23" height="111.52" transform="translate(34.3 294.77) rotate(-88.42)"/><rect class="cls-9" x="168.41" y="78.59" width="0.23" height="111.52" transform="translate(29.59 299.11) rotate(-88.42)"/><rect class="cls-9" x="168.29" y="82.96" width="0.23" height="111.52" transform="translate(25.11 303.24) rotate(-88.42)"/><rect class="cls-9" x="61.88" y="83.4" width="116.85" height="0.23" transform="translate(33.52 201.48) rotate(-88.42)"/><rect class="cls-9" x="86.07" y="84.07" width="116.85" height="0.23" transform="translate(56.38 226.31) rotate(-88.42)"/><rect class="cls-9" x="119.93" y="85" width="116.85" height="0.23" transform="translate(88.37 261.06) rotate(-88.42)"/><rect class="cls-9" x="129.83" y="85.27" width="116.85" height="0.23" transform="translate(97.72 271.22) rotate(-88.42)"/><rect class="cls-9" x="146.23" y="85.72" width="116.85" height="0.23" transform="translate(113.22 288.05) rotate(-88.42)"/><rect class="cls-8" x="117.53" y="26.08" width="1.47" height="2.27" transform="translate(87.81 144.68) rotate(-88.42)"/><rect class="cls-8" x="125.34" y="24.67" width="1.47" height="5.51" transform="translate(95.2 152.7) rotate(-88.42)"/><rect class="cls-8" x="150.71" y="24" width="1.47" height="8.25" transform="translate(119.16 178.74) rotate(-88.42)"/><rect class="cls-8" x="184" y="26.46" width="1.47" height="5.17" transform="translate(150.63 212.91) rotate(-88.42)"/><rect class="cls-8" x="197.21" y="26.87" width="1.47" height="5.06" transform="translate(163.11 226.47) rotate(-88.42)"/><rect class="cls-8" x="215.91" y="25.23" width="1.47" height="9.37" transform="translate(180.78 245.66) rotate(-88.42)"/><rect class="cls-10" x="118.31" y="30.64" width="0.97" height="1.63" transform="translate(0.91 -3.26) rotate(1.58)"/><rect class="cls-10" x="118.18" y="35.35" width="0.97" height="1.63" transform="translate(1.04 -3.25) rotate(1.58)"/><rect class="cls-10" x="118.05" y="39.89" width="0.97" height="1.63" transform="translate(1.16 -3.24) rotate(1.58)"/><rect class="cls-10" x="117.93" y="44.23" width="0.97" height="1.63" transform="translate(1.28 -3.24) rotate(1.58)"/><rect class="cls-10" x="117.81" y="48.58" width="0.97" height="1.63" transform="translate(1.4 -3.24) rotate(1.58)"/><rect class="cls-10" x="117.69" y="53.15" width="0.97" height="1.63" transform="translate(1.53 -3.23) rotate(1.58)"/><rect class="cls-10" x="117.56" y="57.93" width="0.97" height="1.63" transform="matrix(1, 0.03, -0.03, 1, 1.66, -3.22)"/><rect class="cls-10" x="117.43" y="62.48" width="0.97" height="1.63" transform="translate(1.79 -3.22) rotate(1.58)"/><rect class="cls-10" x="117.31" y="67.03" width="0.97" height="1.63" transform="translate(1.91 -3.21) rotate(1.58)"/><rect class="cls-10" x="116.86" y="71.35" width="1.63" height="1.63" transform="translate(2.03 -3.21) rotate(1.58)"/><rect class="cls-10" x="116.73" y="75.84" width="1.63" height="1.63" transform="translate(2.15 -3.2) rotate(1.58)"/><rect class="cls-10" x="116.61" y="80.45" width="1.63" height="1.63" transform="translate(2.28 -3.2) rotate(1.58)"/><rect class="cls-10" x="116.48" y="84.84" width="1.63" height="1.63" transform="translate(2.4 -3.19) rotate(1.58)"/><rect class="cls-10" x="116.36" y="89.34" width="1.63" height="1.63" transform="translate(2.52 -3.19) rotate(1.58)"/><rect class="cls-10" x="116.24" y="93.84" width="1.63" height="1.63" transform="translate(2.65 -3.18) rotate(1.58)"/><rect class="cls-10" x="116.12" y="98.26" width="1.63" height="1.63" transform="translate(2.77 -3.18) rotate(1.58)"/><rect class="cls-10" x="115.99" y="102.83" width="1.63" height="1.63" transform="translate(2.89 -3.17) rotate(1.58)"/><rect class="cls-10" x="115.87" y="107.33" width="1.63" height="1.63" transform="translate(3.02 -3.17) rotate(1.58)"/><rect class="cls-10" x="115.74" y="111.89" width="1.63" height="1.63" transform="translate(3.14 -3.16) rotate(1.58)"/><rect class="cls-10" x="115.61" y="116.44" width="1.63" height="1.63" transform="translate(3.27 -3.16) rotate(1.58)"/><rect class="cls-10" x="115.49" y="121" width="1.63" height="1.63" transform="translate(3.39 -3.15) rotate(1.58)"/><rect class="cls-10" x="115.36" y="125.55" width="1.63" height="1.63" transform="translate(3.52 -3.15) rotate(1.58)"/><rect class="cls-10" x="115.25" y="129.88" width="1.63" height="1.63" transform="translate(3.64 -3.14) rotate(1.58)"/><rect class="cls-10" x="115.12" y="134.44" width="1.63" height="1.63" transform="translate(3.76 -3.14) rotate(1.58)"/><rect class="cls-10" x="114.99" y="138.99" width="1.63" height="1.63" transform="translate(3.89 -3.13) rotate(1.58)"/><rect class="cls-10" x="182.97" y="32.45" width="3.53" height="1.63" transform="translate(0.98 -5.07) rotate(1.58)"/><rect class="cls-10" x="182.84" y="37.16" width="3.53" height="1.63" transform="translate(1.11 -5.06) rotate(1.58)"/><rect class="cls-10" x="182.77" y="41.7" width="3.42" height="1.63" transform="translate(1.24 -5.06) rotate(1.58)"/><rect class="cls-10" x="182.65" y="46.05" width="3.42" height="1.63" transform="translate(1.36 -5.05) rotate(1.58)"/><rect class="cls-10" x="182.53" y="50.39" width="3.42" height="1.63" transform="translate(1.48 -5.05) rotate(1.58)"/><rect class="cls-10" x="182.4" y="54.97" width="3.42" height="1.63" transform="translate(1.6 -5.04) rotate(1.58)"/><rect class="cls-10" x="182.27" y="59.74" width="3.42" height="1.63" transform="translate(1.74 -5.04) rotate(1.58)"/><rect class="cls-10" x="182.15" y="64.29" width="3.42" height="1.63" transform="translate(1.86 -5.03) rotate(1.58)"/><rect class="cls-10" x="182.02" y="68.85" width="3.42" height="1.63" transform="translate(1.99 -5.03) rotate(1.58)"/><rect class="cls-10" x="181.96" y="73.17" width="3.31" height="1.63" transform="translate(2.1 -5.02) rotate(1.58)"/><rect class="cls-10" x="181.84" y="77.65" width="3.31" height="1.63" transform="translate(2.23 -5.02) rotate(1.58)"/><rect class="cls-10" x="181.71" y="82.26" width="3.31" height="1.63" transform="translate(2.35 -5.01) rotate(1.58)"/><rect class="cls-10" x="181.59" y="86.65" width="3.31" height="1.63" transform="translate(2.48 -5.01) rotate(1.58)"/><rect class="cls-10" x="181.47" y="91.15" width="3.31" height="1.63" transform="translate(2.6 -5) rotate(1.58)"/><rect class="cls-10" x="181.67" y="95.65" width="2.65" height="1.63" transform="translate(2.72 -5) rotate(1.58)"/><rect class="cls-10" x="181.55" y="100.07" width="2.65" height="1.63" transform="translate(2.84 -4.99) rotate(1.58)"/><rect class="cls-10" x="181.42" y="104.65" width="2.65" height="1.63" transform="translate(2.97 -4.99) rotate(1.58)"/><rect class="cls-10" x="181.3" y="109.15" width="2.65" height="1.63" transform="translate(3.09 -4.98) rotate(1.58)"/><rect class="cls-10" x="181.18" y="113.7" width="2.65" height="1.63" transform="translate(3.22 -4.98) rotate(1.58)"/><rect class="cls-10" x="181.05" y="118.26" width="2.65" height="1.63" transform="translate(3.34 -4.97) rotate(1.58)"/><rect class="cls-10" x="180.92" y="122.81" width="2.65" height="1.63" transform="translate(3.47 -4.97) rotate(1.58)"/><rect class="cls-10" x="180.8" y="127.37" width="2.65" height="1.63" transform="translate(3.59 -4.96) rotate(1.58)"/><rect class="cls-10" x="180.68" y="131.7" width="2.65" height="1.63" transform="translate(3.71 -4.96) rotate(1.58)"/><rect class="cls-10" x="180.56" y="136.25" width="2.65" height="1.63" transform="translate(3.84 -4.95) rotate(1.58)"/><rect class="cls-10" x="180.43" y="140.81" width="2.65" height="1.63" transform="translate(3.96 -4.95) rotate(1.58)"/><rect class="cls-10" x="122.94" y="30.99" width="17.4" height="1.63" transform="translate(0.92 -3.61) rotate(1.58)"/><rect class="cls-10" x="122.81" y="35.7" width="17.4" height="1.63" transform="translate(1.05 -3.6) rotate(1.58)"/><rect class="cls-10" x="122.69" y="40.23" width="16.21" height="1.63" transform="translate(1.18 -3.58) rotate(1.58)"/><rect class="cls-10" x="122.57" y="44.54" width="13.71" height="1.63" transform="translate(1.3 -3.54) rotate(1.58)"/><rect class="cls-10" x="122.45" y="48.88" width="13.71" height="1.63" transform="translate(1.42 -3.54) rotate(1.58)"/><rect class="cls-10" x="122.32" y="53.45" width="13.71" height="1.63" transform="translate(1.54 -3.53) rotate(1.58)"/><rect class="cls-10" x="122.19" y="58.23" width="13.71" height="1.63" transform="translate(1.67 -3.53) rotate(1.58)"/><rect class="cls-10" x="122.07" y="62.78" width="13.71" height="1.63" transform="translate(1.8 -3.52) rotate(1.58)"/><rect class="cls-10" x="121.94" y="67.37" width="16.21" height="1.63" transform="translate(1.92 -3.55) rotate(1.58)"/><rect class="cls-10" x="121.82" y="71.7" width="16.55" height="1.63" transform="translate(2.04 -3.55) rotate(1.58)"/><rect class="cls-10" x="121.7" y="76.18" width="16.55" height="1.63" transform="translate(2.17 -3.55) rotate(1.58)"/><rect class="cls-10" x="121.57" y="80.79" width="16.55" height="1.63" transform="translate(2.29 -3.54) rotate(1.58)"/><rect class="cls-10" x="121.45" y="85.18" width="16.55" height="1.63" transform="matrix(1, 0.03, -0.03, 1, 2.41, -3.54)"/><rect class="cls-10" x="121.33" y="89.68" width="16.55" height="1.63" transform="translate(2.54 -3.53) rotate(1.58)"/><rect class="cls-10" x="121.2" y="94.18" width="16.55" height="1.63" transform="translate(2.66 -3.53) rotate(1.58)"/><rect class="cls-10" x="121.08" y="98.6" width="16.55" height="1.63" transform="translate(2.78 -3.52) rotate(1.58)"/><rect class="cls-10" x="120.96" y="103.17" width="16.55" height="1.63" transform="translate(2.91 -3.52) rotate(1.58)"/><rect class="cls-10" x="120.83" y="107.67" width="16.55" height="1.63" transform="translate(3.03 -3.51) rotate(1.58)"/><rect class="cls-10" x="120.71" y="112.23" width="16.55" height="1.63" transform="translate(3.16 -3.5) rotate(1.58)"/><rect class="cls-10" x="120.58" y="116.78" width="16.55" height="1.63" transform="translate(3.28 -3.5) rotate(1.58)"/><rect class="cls-10" x="120.46" y="121.34" width="16.55" height="1.63" transform="translate(3.41 -3.49) rotate(1.58)"/><rect class="cls-10" x="120.33" y="125.9" width="16.55" height="1.63" transform="translate(3.53 -3.49) rotate(1.58)"/><rect class="cls-10" x="120.21" y="130.22" width="16.55" height="1.63" transform="translate(3.65 -3.48) rotate(1.58)"/><rect class="cls-10" x="120.09" y="134.78" width="16.55" height="1.63" transform="translate(3.78 -3.48) rotate(1.58)"/><rect class="cls-10" x="119.96" y="139.34" width="16.55" height="1.63" transform="translate(3.9 -3.47) rotate(1.58)"/><rect class="cls-10" x="112.62" y="144.96" width="23.73" height="1.63" transform="translate(4.06 -3.37) rotate(1.58)"/><rect class="cls-10" x="147.07" y="154.05" width="9.02" height="1.63" transform="translate(4.32 -4.11) rotate(1.58)"/><rect class="cls-10" x="200.9" y="147.16" width="7.31" height="1.63" transform="translate(4.15 -5.57) rotate(1.58)"/><rect class="cls-10" x="218.09" y="147.58" width="3.66" height="1.63" transform="translate(4.16 -5.99) rotate(1.58)"/><rect class="cls-8" x="193.68" y="32.82" width="8.67" height="1.63" transform="translate(1 -5.43) rotate(1.58)"/><rect class="cls-8" x="193.55" y="37.53" width="8.67" height="1.63" transform="translate(1.13 -5.43) rotate(1.58)"/><rect class="cls-8" x="193.42" y="42.06" width="8.07" height="1.63" transform="translate(1.25 -5.41) rotate(1.58)"/><rect class="cls-8" x="193.3" y="46.41" width="8.07" height="1.63" transform="translate(1.37 -5.41) rotate(1.58)"/><rect class="cls-8" x="193.18" y="50.75" width="8.07" height="1.63" transform="translate(1.49 -5.41) rotate(1.58)"/><rect class="cls-8" x="193.06" y="55.32" width="8.07" height="1.63" transform="matrix(1, 0.03, -0.03, 1, 1.62, -5.4)"/><rect class="cls-8" x="192.93" y="60.1" width="8.07" height="1.63" transform="translate(1.75 -5.39) rotate(1.58)"/><rect class="cls-8" x="192.8" y="64.65" width="8.07" height="1.63" transform="translate(1.88 -5.39) rotate(1.58)"/><rect class="cls-8" x="192.68" y="69.2" width="8.07" height="1.63" transform="translate(2 -5.38) rotate(1.58)"/><rect class="cls-8" x="192.56" y="73.53" width="8.24" height="1.63" transform="translate(2.12 -5.38) rotate(1.58)"/><rect class="cls-8" x="192.43" y="78.01" width="8.24" height="1.63" transform="translate(2.24 -5.38) rotate(1.58)"/><rect class="cls-8" x="192.31" y="82.62" width="8.24" height="1.63" transform="translate(2.37 -5.37) rotate(1.58)"/><rect class="cls-8" x="192.19" y="87.01" width="8.24" height="1.63" transform="translate(2.49 -5.37) rotate(1.58)"/><rect class="cls-8" x="192.06" y="91.51" width="8.24" height="1.63" transform="translate(2.61 -5.36) rotate(1.58)"/><rect class="cls-8" x="191.94" y="96.01" width="8.24" height="1.63" transform="translate(2.74 -5.36) rotate(1.58)"/><rect class="cls-8" x="191.82" y="100.43" width="8.24" height="1.63" transform="translate(2.86 -5.35) rotate(1.58)"/><rect class="cls-8" x="191.69" y="105.01" width="8.24" height="1.63" transform="translate(2.98 -5.35) rotate(1.58)"/><rect class="cls-8" x="191.57" y="109.51" width="8.24" height="1.63" transform="translate(3.11 -5.34) rotate(1.58)"/><rect class="cls-8" x="191.44" y="114.06" width="8.24" height="1.63" transform="translate(3.23 -5.34) rotate(1.58)"/><rect class="cls-8" x="191.32" y="118.62" width="8.24" height="1.63" transform="translate(3.36 -5.33) rotate(1.58)"/><rect class="cls-8" x="191.19" y="123.17" width="8.24" height="1.63" transform="translate(3.48 -5.33) rotate(1.58)"/><rect class="cls-8" x="191.07" y="127.73" width="8.24" height="1.63" transform="translate(3.61 -5.32) rotate(1.58)"/><rect class="cls-8" x="190.95" y="132.06" width="8.24" height="1.63" transform="translate(3.73 -5.32) rotate(1.58)"/><rect class="cls-8" x="190.82" y="136.61" width="8.24" height="1.63" transform="translate(3.85 -5.31) rotate(1.58)"/><rect class="cls-8" x="190.7" y="141.17" width="8.24" height="1.63" transform="translate(3.98 -5.3) rotate(1.58)"/><rect class="cls-10" x="208.49" y="33.34" width="17.25" height="1.63" transform="translate(1.02 -5.96) rotate(1.58)"/><rect class="cls-10" x="208.36" y="38.05" width="17.25" height="1.63" transform="matrix(1, 0.03, -0.03, 1, 1.15, -5.95)"/><rect class="cls-10" x="208.23" y="42.58" width="16.07" height="1.63" transform="translate(1.28 -5.93) rotate(1.58)"/><rect class="cls-10" x="208.12" y="46.92" width="16.07" height="1.63" transform="translate(1.39 -5.93) rotate(1.58)"/><rect class="cls-10" x="208" y="51.27" width="16.07" height="1.63" transform="translate(1.51 -5.92) rotate(1.58)"/><rect class="cls-10" x="207.87" y="55.84" width="16.07" height="1.63" transform="translate(1.64 -5.92) rotate(1.58)"/><rect class="cls-10" x="207.74" y="60.62" width="16.07" height="1.63" transform="translate(1.77 -5.91) rotate(1.58)"/><rect class="cls-10" x="207.61" y="65.17" width="16.07" height="1.63" transform="translate(1.9 -5.91) rotate(1.58)"/><rect class="cls-10" x="207.49" y="69.72" width="16.07" height="1.63" transform="translate(2.02 -5.9) rotate(1.58)"/><rect class="cls-10" x="207.37" y="74.05" width="16.4" height="1.63" transform="translate(2.14 -5.9) rotate(1.58)"/><rect class="cls-10" x="207.25" y="78.53" width="16.4" height="1.63" transform="translate(2.26 -5.9) rotate(1.58)"/><rect class="cls-10" x="207.12" y="83.14" width="16.4" height="1.63" transform="translate(2.39 -5.89) rotate(1.58)"/><rect class="cls-10" x="207" y="87.53" width="16.4" height="1.63" transform="translate(2.51 -5.89) rotate(1.58)"/><rect class="cls-10" x="206.87" y="92.03" width="16.4" height="1.63" transform="translate(2.63 -5.88) rotate(1.58)"/><rect class="cls-10" x="206.75" y="96.53" width="16.4" height="1.63" transform="translate(2.76 -5.88) rotate(1.58)"/><rect class="cls-10" x="206.63" y="100.95" width="16.4" height="1.63" transform="translate(2.88 -5.87) rotate(1.58)"/><rect class="cls-10" x="206.5" y="105.53" width="16.4" height="1.63" transform="translate(3.01 -5.87) rotate(1.58)"/><rect class="cls-10" x="206.38" y="110.03" width="16.4" height="1.63" transform="translate(3.13 -5.86) rotate(1.58)"/><rect class="cls-10" x="206.25" y="114.58" width="16.4" height="1.63" transform="translate(3.26 -5.85) rotate(1.58)"/><rect class="cls-10" x="206.13" y="119.14" width="16.4" height="1.63" transform="translate(3.38 -5.85) rotate(1.58)"/><rect class="cls-10" x="206" y="123.69" width="16.4" height="1.63" transform="translate(3.51 -5.84) rotate(1.58)"/><rect class="cls-10" x="205.88" y="128.25" width="16.4" height="1.63" transform="translate(3.63 -5.84) rotate(1.58)"/><rect class="cls-10" x="205.76" y="132.58" width="16.4" height="1.63" transform="translate(3.75 -5.83) rotate(1.58)"/><rect class="cls-10" x="205.63" y="137.13" width="16.4" height="1.63" transform="translate(3.88 -5.83) rotate(1.58)"/><rect class="cls-10" x="205.51" y="141.69" width="16.4" height="1.63" transform="translate(4 -5.82) rotate(1.58)"/><rect class="cls-10" x="147.01" y="31.81" width="29.08" height="1.63" transform="translate(0.96 -4.43) rotate(1.58)"/><rect class="cls-10" x="146.88" y="36.29" width="11.91" height="1.63" transform="translate(1.08 -4.19) rotate(1.58)"/><rect class="cls-10" x="146.76" y="40.72" width="3.86" height="1.63" transform="translate(1.2 -4.07) rotate(1.58)"/><rect class="cls-10" x="146.64" y="45.11" width="7.3" height="1.63" transform="translate(1.32 -4.12) rotate(1.58)"/><rect class="cls-10" x="146.52" y="49.48" width="9.08" height="1.63" transform="matrix(1, 0.03, -0.03, 1, 1.44, -4.14)"/><rect class="cls-10" x="146.4" y="54.05" width="8.74" height="1.63" transform="translate(1.57 -4.13) rotate(1.58)"/><rect class="cls-10" x="146.27" y="58.76" width="3.71" height="1.63" transform="translate(1.69 -4.05) rotate(1.58)"/><rect class="cls-10" x="146.14" y="63.31" width="3.94" height="1.63" transform="translate(1.82 -4.05) rotate(1.58)"/><rect class="cls-10" x="146.01" y="68.05" width="17.62" height="1.63" transform="translate(1.95 -4.23) rotate(1.58)"/><rect class="cls-10" x="145.9" y="72.18" width="3.71" height="1.63" transform="translate(2.06 -4.04) rotate(1.58)"/><rect class="cls-10" x="145.77" y="76.67" width="3.71" height="1.63" transform="translate(2.19 -4.03) rotate(1.58)"/><rect class="cls-10" x="145.64" y="81.35" width="8.81" height="1.63" transform="translate(2.32 -4.1) rotate(1.58)"/><rect class="cls-10" x="145.52" y="85.66" width="3.71" height="1.63" transform="translate(2.43 -4.02) rotate(1.58)"/><rect class="cls-10" x="145.4" y="90.16" width="3.71" height="1.63" transform="matrix(1, 0.03, -0.03, 1, 2.56, -4.02)"/><rect class="cls-10" x="145.28" y="94.77" width="11.46" height="1.63" transform="translate(2.69 -4.12) rotate(1.58)"/><rect class="cls-10" x="145.15" y="99.43" width="29.09" height="1.63" transform="translate(2.82 -4.35) rotate(1.58)"/><rect class="cls-10" x="145.03" y="103.73" width="8.81" height="1.63" transform="translate(2.93 -4.07) rotate(1.58)"/><rect class="cls-10" x="144.91" y="108.21" width="7.43" height="1.63" transform="translate(3.05 -4.05) rotate(1.58)"/><rect class="cls-10" x="144.78" y="112.71" width="3.72" height="1.63" transform="translate(3.18 -3.99) rotate(1.58)"/><rect class="cls-10" x="144.66" y="117.27" width="3.72" height="1.63" transform="translate(3.3 -3.99) rotate(1.58)"/><rect class="cls-10" x="144.53" y="122" width="16.22" height="1.63" transform="translate(3.44 -4.15) rotate(1.58)"/><rect class="cls-10" x="144.4" y="126.45" width="8.81" height="1.63" transform="translate(3.56 -4.04) rotate(1.58)"/><rect class="cls-10" x="144.28" y="130.87" width="15.03" height="1.63" transform="translate(3.68 -4.13) rotate(1.58)"/><rect class="cls-10" x="144.16" y="135.37" width="11.63" height="1.63" transform="translate(3.8 -4.07) rotate(1.58)"/><rect class="cls-10" x="144.03" y="139.87" width="7.52" height="1.63" transform="translate(3.93 -4.01) rotate(1.58)"/><rect class="cls-4" x="112.19" y="151.4" width="5.1" height="4.9" transform="translate(4.27 -3.1) rotate(1.58)"/><rect class="cls-9" x="117.44" y="151.54" width="5.1" height="4.9" transform="translate(4.28 -3.24) rotate(1.58)"/><rect class="cls-9" x="122.69" y="151.69" width="5.1" height="4.9" transform="translate(4.29 -3.39) rotate(1.58)"/><rect class="cls-9" x="127.95" y="151.88" width="8.84" height="4.9" transform="translate(4.29 -3.58) rotate(1.58)"/><rect class="cls-9" x="137.07" y="152.14" width="9.27" height="4.9" transform="translate(4.31 -3.84) rotate(1.58)"/><rect class="cls-10" x="138.98" y="153.78" width="5.89" height="1.63" transform="translate(4.31 -3.85) rotate(1.58)"/><rect class="cls-10" x="129.42" y="153.52" width="5.89" height="1.63" transform="translate(4.29 -3.58) rotate(1.58)"/><rect class="cls-10" x="124.12" y="153.32" width="1.85" height="1.63" transform="translate(4.29 -3.38) rotate(1.58)"/><rect class="cls-10" x="119.28" y="153.18" width="1.85" height="1.63" transform="translate(4.28 -3.25) rotate(1.58)"/><rect class="cls-10" x="113.88" y="153.04" width="1.85" height="1.63" transform="translate(4.28 -3.1) rotate(1.58)"/><path d="M115.12,10.06a.19.19,0,0,1,0,.16.18.18,0,0,1-.15.06l-1.18,0a.15.15,0,0,1-.14-.07.17.17,0,0,1,0-.16l.53-.79V8.82h-.06l-.05,0s0,0,0-.05,0,0,0,0,0,0,0,0h.53l0,0s0,0,0,0a.05.05,0,0,1,0,0s0,0,0,0h-.06v.41Zm-.78-.76-.29.43.73,0-.27-.44,0,0v0l0-.4h-.13l0,.41v0Z"/><rect class="cls-1" x="4.47" y="1.67" width="113.28" height="166.65" transform="translate(-0.65 0.47) rotate(-0.44)"/><rect class="cls-2" x="3.47" y="2.67" width="113.28" height="166.65" transform="translate(-2.52 1.82) rotate(-1.7)"/><rect class="cls-3" x="5.97" y="5.54" width="108.28" height="160.9" transform="translate(-2.52 1.82) rotate(-1.7)"/><path class="cls-4" d="M116.69,164.88,8.3,168.09,3.53,7.11,111.92,3.9ZM8.44,167.94l108.09-3.2L111.78,4.05,3.69,7.25Z"/><rect class="cls-6" x="3.64" y="5.58" width="108.32" height="5.97" transform="translate(-0.23 1.71) rotate(-1.7)"/><rect class="cls-3" x="7.95" y="8.99" width="14.12" height="1.58" transform="translate(-0.28 0.45) rotate(-1.7)"/><path d="M7.23,10.64a.16.16,0,0,1,0,.16s-.06.06-.13.07l-1,0c-.07,0-.11,0-.13-.07s0-.09,0-.16l.43-.84V9.41H6.33l0,0s0,0,0-.05,0,0,0,0a.05.05,0,0,1,0,0h.46a.06.06,0,0,1,0,0s0,0,0,0a0,0,0,0,1,0,.05l0,0H6.74v.42ZM6.5,9.9l-.23.45h.65l-.26-.45,0,0v0l0-.41H6.51v.46Z"/><rect class="cls-7" x="6.31" y="24.45" width="103.73" height="0.45" transform="translate(-0.7 1.73) rotate(-1.7)"/><rect class="cls-8" x="8.47" y="22.41" width="21.86" height="1.51" transform="translate(-0.68 0.58) rotate(-1.7)"/><rect class="cls-8" x="8.3" y="16.6" width="8.17" height="1.51" transform="translate(-0.51 0.37) rotate(-1.7)"/><rect class="cls-11" x="61.57" y="14.89" width="16.91" height="1.51" transform="translate(-0.43 2.08) rotate(-1.7)"/><rect class="cls-8" x="10.07" y="30.32" width="2.02" height="1.31" transform="translate(-0.91 0.34) rotate(-1.7)"/><rect class="cls-8" x="10.75" y="40.71" width="1.28" height="1.31" transform="translate(-1.22 0.36) rotate(-1.7)"/><rect class="cls-8" x="10.87" y="44.77" width="1.28" height="1.31" transform="translate(-1.34 0.36) rotate(-1.7)"/><rect class="cls-8" x="11.1" y="52.56" width="1.28" height="1.31" transform="translate(-1.57 0.37) rotate(-1.7)"/><rect class="cls-8" x="11.22" y="56.67" width="1.28" height="1.31" transform="translate(-1.69 0.38) rotate(-1.7)"/><rect class="cls-8" x="11.45" y="64.51" width="1.28" height="1.31" transform="translate(-1.92 0.39) rotate(-1.7)"/><rect class="cls-8" x="11.57" y="68.62" width="1.28" height="1.31" transform="translate(-2.04 0.39) rotate(-1.7)"/><rect class="cls-8" x="11.69" y="72.37" width="1.28" height="1.31" transform="translate(-2.16 0.4) rotate(-1.7)"/><rect class="cls-8" x="11.81" y="76.48" width="1.28" height="1.31" transform="translate(-2.28 0.4) rotate(-1.7)"/><rect class="cls-8" x="11.92" y="80.44" width="1.28" height="1.31" transform="translate(-2.39 0.41) rotate(-1.7)"/><rect class="cls-8" x="12.04" y="84.34" width="1.28" height="1.31" transform="translate(-2.51 0.41) rotate(-1.7)"/><rect class="cls-8" x="12.16" y="88.3" width="1.28" height="1.31" transform="translate(-2.63 0.42) rotate(-1.7)"/><rect class="cls-8" x="12.28" y="92.41" width="1.28" height="1.31" transform="translate(-2.75 0.42) rotate(-1.7)"/><rect class="cls-8" x="12.4" y="96.36" width="1.28" height="1.31" transform="translate(-2.87 0.43) rotate(-1.7)"/><rect class="cls-8" x="12.52" y="100.47" width="1.28" height="1.31" transform="translate(-2.99 0.43) rotate(-1.7)"/><rect class="cls-8" x="12.63" y="104.43" width="1.28" height="1.31" transform="translate(-3.1 0.44) rotate(-1.7)"/><rect class="cls-8" x="12.75" y="108.33" width="1.28" height="1.31" transform="translate(-3.22 0.44) rotate(-1.7)"/><rect class="cls-8" x="12.87" y="112.49" width="1.28" height="1.31" transform="translate(-3.34 0.45) rotate(-1.7)"/><rect class="cls-8" x="12.99" y="116.4" width="1.28" height="1.31" transform="translate(-3.46 0.45) rotate(-1.7)"/><rect class="cls-8" x="13.11" y="120.55" width="1.28" height="1.31" transform="translate(-3.58 0.46) rotate(-1.7)"/><rect class="cls-8" x="13.23" y="124.46" width="1.28" height="1.31" transform="translate(-3.7 0.47) rotate(-1.7)"/><rect class="cls-8" x="13.36" y="129.02" width="1.28" height="1.31" transform="translate(-3.83 0.47) rotate(-1.7)"/><rect class="cls-8" x="13.65" y="138.68" width="1.28" height="1.31" transform="translate(-4.12 0.48) rotate(-1.7)"/><rect class="cls-8" x="13.95" y="148.94" width="1.28" height="1.31" transform="translate(-4.42 0.5) rotate(-1.7)"/><rect class="cls-8" x="14.21" y="157.71" width="1.28" height="1.31" transform="translate(-4.68 0.51) rotate(-1.7)"/><rect class="cls-8" x="14.4" y="30" width="14.86" height="1.31" transform="translate(-0.9 0.66) rotate(-1.7)"/><rect class="cls-10" x="14.71" y="40.42" width="12.82" height="1.31" transform="translate(-1.21 0.64) rotate(-1.7)"/><polygon class="cls-8" points="25.42 35.86 14.32 36.19 14.84 34.86 25.94 34.53 25.42 35.86"/><rect class="cls-10" x="15.06" y="52.33" width="8.87" height="1.31" transform="translate(-1.56 0.6) rotate(-1.7)"/><rect class="cls-10" x="15.19" y="56.44" width="8.87" height="1.31" transform="translate(-1.68 0.61) rotate(-1.7)"/><rect class="cls-10" x="15.42" y="64.37" width="2.99" height="1.31" transform="translate(-1.92 0.53) rotate(-1.7)"/><rect class="cls-10" x="15.54" y="68.4" width="7.8" height="1.31" transform="translate(-2.04 0.61) rotate(-1.7)"/><rect class="cls-10" x="15.65" y="72.23" width="2.99" height="1.31" transform="translate(-2.15 0.54) rotate(-1.7)"/><rect class="cls-10" x="15.77" y="76.34" width="2.99" height="1.31" transform="translate(-2.27 0.54) rotate(-1.7)"/><rect class="cls-10" x="15.89" y="80.29" width="2.99" height="1.31" transform="translate(-2.39 0.55) rotate(-1.7)"/><rect class="cls-10" x="16.01" y="84.4" width="2.99" height="1.31" transform="translate(-2.51 0.56) rotate(-1.7)"/><rect class="cls-10" x="16.13" y="88.36" width="2.99" height="1.31" transform="translate(-2.63 0.56) rotate(-1.7)"/><rect class="cls-10" x="16.25" y="92.43" width="5.01" height="1.31" transform="translate(-2.75 0.6) rotate(-1.7)"/><rect class="cls-10" x="16.37" y="96.42" width="2.99" height="1.31" transform="translate(-2.87 0.57) rotate(-1.7)"/><rect class="cls-10" x="16.49" y="100.53" width="2.99" height="1.31" transform="translate(-2.99 0.58) rotate(-1.7)"/><rect class="cls-10" x="16.61" y="104.48" width="2.99" height="1.31" transform="translate(-3.1 0.58) rotate(-1.7)"/><rect class="cls-10" x="16.72" y="108.33" width="7.4" height="1.31" transform="translate(-3.22 0.65) rotate(-1.7)"/><rect class="cls-10" x="16.84" y="112.47" width="8.61" height="1.31" transform="translate(-3.34 0.68) rotate(-1.7)"/><rect class="cls-10" x="16.96" y="116.39" width="7.13" height="1.31" transform="translate(-3.46 0.66) rotate(-1.7)"/><rect class="cls-10" x="17.08" y="120.34" width="7.66" height="1.31" transform="translate(-3.57 0.67) rotate(-1.7)"/><rect class="cls-10" x="17.2" y="124.48" width="5.51" height="1.31" transform="translate(-3.69 0.65) rotate(-1.7)"/><rect class="cls-10" x="17.92" y="148.65" width="13.18" height="1.31" transform="translate(-4.41 0.79) rotate(-1.7)"/><rect class="cls-10" x="18.18" y="157.55" width="4.05" height="1.31" transform="translate(-4.67 0.67) rotate(-1.7)"/><rect class="cls-10" x="61.52" y="156.27" width="4.05" height="1.31" transform="translate(-4.62 1.95) rotate(-1.7)"/><rect class="cls-10" x="60.76" y="147.73" width="5.06" height="1.31" transform="translate(-4.36 1.94) rotate(-1.7)"/><rect class="cls-10" x="61.71" y="137.25" width="1.97" height="1.31" transform="translate(-4.05 1.92) rotate(-1.7)"/><rect class="cls-10" x="61.43" y="128.05" width="1.97" height="1.31" transform="translate(-3.78 1.9) rotate(-1.7)"/><rect class="cls-10" x="61.28" y="122.99" width="1.97" height="1.31" transform="translate(-3.63 1.9) rotate(-1.7)"/><rect class="cls-10" x="61.16" y="118.91" width="1.97" height="1.31" transform="translate(-3.51 1.89) rotate(-1.7)"/><rect class="cls-10" x="61.05" y="114.99" width="1.97" height="1.31" transform="translate(-3.4 1.89) rotate(-1.7)"/><rect class="cls-10" x="60.93" y="111.09" width="1.97" height="1.31" transform="translate(-3.28 1.88) rotate(-1.7)"/><rect class="cls-10" x="60.81" y="107.06" width="1.97" height="1.31" transform="translate(-3.16 1.88) rotate(-1.7)"/><rect class="cls-10" x="60.85" y="99" width="1.41" height="1.31" transform="translate(-2.92 1.87) rotate(-1.7)"/><rect class="cls-10" x="60.5" y="87.1" width="1.41" height="1.31" transform="translate(-2.57 1.85) rotate(-1.7)"/><rect class="cls-10" x="60.27" y="79.33" width="1.41" height="1.31" transform="translate(-2.34 1.84) rotate(-1.7)"/><rect class="cls-10" x="60.02" y="70.94" width="1.41" height="1.31" transform="translate(-2.09 1.83) rotate(-1.7)"/><rect class="cls-10" x="60.03" y="95.12" width="2.82" height="1.31" transform="translate(-2.81 1.86) rotate(-1.7)"/><rect class="cls-10" x="59.67" y="83.07" width="2.82" height="1.31" transform="translate(-2.45 1.84) rotate(-1.7)"/><rect class="cls-10" x="59.43" y="75.01" width="2.82" height="1.31" transform="translate(-2.21 1.83) rotate(-1.7)"/><rect class="cls-10" x="59.2" y="67.05" width="2.82" height="1.31" transform="translate(-1.98 1.82) rotate(-1.7)"/><rect class="cls-10" x="57.86" y="91.04" width="6.92" height="1.31" transform="translate(-2.69 1.85) rotate(-1.7)"/><rect class="cls-10" x="57.03" y="63.11" width="6.92" height="1.31" transform="translate(-1.86 1.82) rotate(-1.7)"/><rect class="cls-10" x="81.67" y="62.33" width="10.43" height="1.31" transform="translate(-1.83 2.6) rotate(-1.7)"/><rect class="cls-10" x="95.14" y="61.9" width="12.45" height="1.31" transform="translate(-1.81 3.03) rotate(-1.7)"/><rect class="cls-10" x="81.78" y="66.26" width="10.43" height="1.31" transform="translate(-1.94 2.6) rotate(-1.7)"/><rect class="cls-10" x="95.26" y="65.84" width="12.45" height="1.31" transform="translate(-1.92 3.03) rotate(-1.7)"/><rect class="cls-10" x="81.91" y="70.4" width="10.43" height="1.31" transform="translate(-2.06 2.61) rotate(-1.7)"/><rect class="cls-10" x="95.38" y="69.97" width="12.45" height="1.31" transform="translate(-2.05 3.04) rotate(-1.7)"/><rect class="cls-10" x="58.21" y="103.03" width="6.92" height="1.31" transform="translate(-3.04 1.87) rotate(-1.7)"/><rect class="cls-10" x="73.61" y="122.62" width="1.97" height="1.31" transform="translate(-3.62 2.26) rotate(-1.7)"/><rect class="cls-10" x="73.49" y="118.55" width="1.97" height="1.31" transform="translate(-3.5 2.26) rotate(-1.7)"/><rect class="cls-10" x="72.98" y="114.63" width="2.74" height="1.31" transform="translate(-3.38 2.25) rotate(-1.7)"/><rect class="cls-10" x="72.5" y="110.73" width="3.48" height="1.31" transform="matrix(1, -0.03, 0.03, 1, -3.26, 2.25)"/><rect class="cls-10" x="72.38" y="106.7" width="3.48" height="1.31" transform="translate(-3.14 2.24) rotate(-1.7)"/><rect class="cls-10" x="70.9" y="98.63" width="5.97" height="1.31" transform="translate(-2.91 2.23) rotate(-1.7)"/><rect class="cls-10" x="70.54" y="86.74" width="5.97" height="1.31" transform="translate(-2.55 2.21) rotate(-1.7)"/><rect class="cls-10" x="70.31" y="78.97" width="5.97" height="1.31" transform="translate(-2.32 2.2) rotate(-1.7)"/><rect class="cls-10" x="71.15" y="94.75" width="5.23" height="1.31" transform="translate(-2.79 2.22) rotate(-1.7)"/><rect class="cls-10" x="70.29" y="82.71" width="6.24" height="1.31" transform="translate(-2.44 2.21) rotate(-1.7)"/><rect class="cls-10" x="69.88" y="74.64" width="6.57" height="1.31" transform="translate(-2.2 2.2) rotate(-1.7)"/><rect class="cls-10" x="70.18" y="90.67" width="6.92" height="1.31" transform="translate(-2.67 2.22) rotate(-1.7)"/><rect class="cls-10" x="70.07" y="102.67" width="7.85" height="1.31" transform="translate(-3.03 2.24) rotate(-1.7)"/><rect class="cls-10" x="73" y="147.37" width="4.64" height="1.31" transform="translate(-4.35 2.29) rotate(-1.7)"/><rect class="cls-10" x="84.65" y="155.5" width="9.6" height="1.31" transform="translate(-4.58 2.72) rotate(-1.7)"/><rect class="cls-10" x="41.89" y="155.96" width="14.69" height="1.31" transform="translate(-4.61 1.53) rotate(-1.7)"/><rect class="cls-10" x="45.01" y="157.52" width="8.54" height="1.31" transform="translate(-4.66 1.53) rotate(-1.7)"/><rect class="cls-10" x="97.96" y="135.26" width="11.23" height="1.31" transform="translate(-3.98 3.12) rotate(-1.7)"/><rect class="cls-10" x="100.36" y="136.82" width="6.53" height="1.31" transform="translate(-4.02 3.13) rotate(-1.7)"/><rect class="cls-10" x="98.53" y="154.46" width="11.23" height="1.31" transform="translate(-4.55 3.15) rotate(-1.7)"/><rect class="cls-10" x="100.92" y="156.02" width="6.53" height="1.31" transform="translate(-4.59 3.15) rotate(-1.7)"/><rect class="cls-10" x="83.84" y="135.69" width="10.05" height="1.31" transform="translate(-4 2.69) rotate(-1.7)"/><rect class="cls-10" x="85.99" y="137.26" width="5.84" height="1.31" transform="translate(-4.04 2.69) rotate(-1.7)"/><rect class="cls-10" x="97.01" y="125.84" width="12.3" height="1.31" transform="translate(-3.7 3.11) rotate(-1.7)"/><rect class="cls-10" x="99.63" y="127.4" width="7.15" height="1.31" transform="translate(-3.74 3.11) rotate(-1.7)"/><rect class="cls-10" x="83.56" y="126.27" width="10.05" height="1.31" transform="translate(-3.72 2.68) rotate(-1.7)"/><rect class="cls-10" x="85.71" y="127.83" width="5.84" height="1.31" transform="translate(-3.76 2.68) rotate(-1.7)"/><rect class="cls-10" x="17.33" y="128.88" width="2.99" height="1.31" transform="translate(-3.83 0.61) rotate(-1.7)"/><rect class="cls-10" x="17.62" y="138.54" width="2.99" height="1.31" transform="translate(-4.11 0.63) rotate(-1.7)"/><rect class="cls-10" x="44.14" y="51.54" width="4.05" height="1.31" transform="translate(-1.52 1.39) rotate(-1.7)"/><rect class="cls-10" x="44.27" y="55.65" width="4.05" height="1.31" transform="translate(-1.65 1.39) rotate(-1.7)"/><rect class="cls-10" x="44.5" y="63.49" width="4.05" height="1.31" transform="translate(-1.88 1.4) rotate(-1.7)"/><rect class="cls-10" x="44.61" y="67.3" width="4.05" height="1.31" transform="translate(-1.99 1.41) rotate(-1.7)"/><rect class="cls-10" x="44.73" y="71.39" width="4.05" height="1.31" transform="translate(-2.11 1.42) rotate(-1.7)"/><rect class="cls-10" x="44.85" y="75.47" width="4.05" height="1.31" transform="translate(-2.23 1.42) rotate(-1.7)"/><rect class="cls-10" x="44.97" y="79.27" width="4.05" height="1.31" transform="translate(-2.34 1.43) rotate(-1.7)"/><rect class="cls-10" x="45.09" y="83.37" width="4.05" height="1.31" transform="translate(-2.47 1.43) rotate(-1.7)"/><rect class="cls-10" x="45.21" y="87.46" width="4.05" height="1.31" transform="translate(-2.59 1.44) rotate(-1.7)"/><rect class="cls-10" x="45.32" y="91.26" width="4.05" height="1.31" transform="translate(-2.7 1.44) rotate(-1.7)"/><rect class="cls-10" x="45.44" y="95.36" width="4.05" height="1.31" transform="translate(-2.82 1.45) rotate(-1.7)"/><rect class="cls-10" x="45.56" y="99.43" width="4.05" height="1.31" transform="translate(-2.94 1.45) rotate(-1.7)"/><rect class="cls-10" x="45.68" y="103.24" width="4.05" height="1.31" transform="translate(-3.05 1.46) rotate(-1.7)"/><rect class="cls-10" x="45.8" y="107.33" width="4.05" height="1.31" transform="translate(-3.18 1.46) rotate(-1.7)"/><rect class="cls-10" x="45.92" y="111.5" width="4.05" height="1.31" transform="translate(-3.3 1.47) rotate(-1.7)"/><rect class="cls-10" x="46.04" y="115.59" width="4.05" height="1.31" transform="translate(-3.42 1.47) rotate(-1.7)"/><rect class="cls-10" x="46.16" y="119.67" width="4.05" height="1.31" transform="translate(-3.54 1.48) rotate(-1.7)"/><rect class="cls-10" x="46.27" y="123.47" width="4.05" height="1.31" transform="translate(-3.65 1.48) rotate(-1.7)"/><rect class="cls-10" x="46.41" y="127.97" width="4.05" height="1.31" transform="translate(-3.79 1.49) rotate(-1.7)"/><rect class="cls-10" x="58.11" y="51.13" width="4.05" height="1.31" transform="translate(-1.51 1.8) rotate(-1.7)"/><rect class="cls-10" x="58.23" y="55.24" width="4.05" height="1.31" transform="translate(-1.63 1.81) rotate(-1.7)"/><rect class="cls-10" x="70.45" y="50.76" width="4.05" height="1.31" transform="translate(-1.49 2.17) rotate(-1.7)"/><rect class="cls-10" x="70.57" y="54.87" width="4.05" height="1.31" transform="translate(-1.61 2.17) rotate(-1.7)"/><rect class="cls-10" x="41.68" y="39.69" width="8.18" height="1.31" transform="translate(-1.17 1.37) rotate(-1.7)"/><rect class="cls-10" x="41.8" y="43.76" width="8.18" height="1.31" transform="translate(-1.29 1.38) rotate(-1.7)"/><polygon class="cls-8" points="23.57 37.87 14.38 38.14 14.89 36.81 24.08 36.54 23.57 37.87"/><polygon class="cls-8" points="28.7 49.43 14.72 49.84 15.24 48.51 29.22 48.1 28.7 49.43"/><polygon class="cls-8" points="27.95 61.35 15.08 61.73 15.55 60.41 28.43 60.03 27.95 61.35"/><polygon class="cls-8" points="31.62 144.22 17.53 144.64 18.05 143.31 32.14 142.9 31.62 144.22"/><polygon class="cls-8" points="30.48 135.01 17.26 135.4 17.75 134.08 30.97 133.68 30.48 135.01"/><polygon class="cls-8" points="28.09 146.19 17.59 146.51 17.96 145.18 28.47 144.87 28.09 146.19"/><polygon class="cls-8" points="30.47 153.79 17.81 154.17 18.28 152.84 30.94 152.47 30.47 153.79"/><polygon class="cls-8" points="30.76 163.42 18.1 163.79 18.56 162.47 31.22 162.09 30.76 163.42"/><rect class="cls-8" x="43.13" y="29.3" width="4.4" height="1.31" transform="matrix(1, -0.03, 0.03, 1, -0.87, 1.35)"/><rect class="cls-8" x="58.12" y="28.88" width="2.89" height="1.31" transform="translate(-0.85 1.78) rotate(-1.7)"/><rect class="cls-8" x="68.83" y="28.52" width="5.92" height="1.31" transform="translate(-0.83 2.14) rotate(-1.7)"/><rect class="cls-8" x="82.67" y="28.11" width="6.16" height="1.31" transform="translate(-0.81 2.55) rotate(-1.7)"/><rect class="cls-8" x="97.56" y="27.68" width="5.45" height="1.31" transform="translate(-0.79 2.98) rotate(-1.7)"/><path class="cls-9" d="M28.29,19.83l-21.67.64A.56.56,0,0,1,6,19.93L5.9,15a.55.55,0,0,1,.54-.57l21.67-.64a.56.56,0,0,1,.57.54l.15,5A.56.56,0,0,1,28.29,19.83ZM6.44,14.59A.35.35,0,0,0,6.1,15l.15,5a.34.34,0,0,0,.36.34l21.67-.64a.35.35,0,0,0,.34-.37l-.14-5a.36.36,0,0,0-.37-.34Z"/><polygon class="cls-8" points="27.1 17.28 27.58 16.38 26.56 16.41 27.1 17.28"/><path class="cls-9" d="M55.46,19l-21.67.64a.56.56,0,0,1-.57-.54l-.15-5a.56.56,0,0,1,.54-.58l21.67-.64a.56.56,0,0,1,.57.54l.15,5A.56.56,0,0,1,55.46,19ZM33.61,13.79a.35.35,0,0,0-.34.36l.15,5a.36.36,0,0,0,.36.35l21.67-.65a.36.36,0,0,0,.35-.36l-.15-5a.36.36,0,0,0-.36-.35Z"/><path class="cls-9" d="M82.5,18.22l-21.67.65a.56.56,0,0,1-.57-.54l-.15-5a.56.56,0,0,1,.54-.58l21.67-.64a.55.55,0,0,1,.57.54l.15,5A.54.54,0,0,1,82.5,18.22ZM60.65,13a.35.35,0,0,0-.34.36l.15,5a.34.34,0,0,0,.36.34L82.49,18a.36.36,0,0,0,.35-.36l-.15-5a.36.36,0,0,0-.36-.35Z"/><polygon class="cls-8" points="54.27 16.47 54.75 15.58 53.74 15.61 54.27 16.47"/><path class="cls-12" d="M112.09,162.22l-99.43,2.94L8.6,28.26,108,25.32ZM12.85,165l99-2.93-4-136.5-99,2.93Z"/><rect class="cls-12" x="8.85" y="32.42" width="99.27" height="0.2" transform="translate(-0.94 1.75) rotate(-1.7)"/><rect class="cls-12" x="9.01" y="37.8" width="99.27" height="0.2" transform="translate(-1.1 1.75) rotate(-1.7)"/><rect class="cls-12" x="9.13" y="41.93" width="99.07" height="0.2" transform="translate(-1.22 1.75) rotate(-1.7)"/><rect class="cls-12" x="9.25" y="45.76" width="99.07" height="0.2" transform="translate(-1.33 1.76) rotate(-1.7)"/><rect class="cls-12" x="9.37" y="49.79" width="99.07" height="0.2" transform="translate(-1.45 1.77) rotate(-1.7)"/><rect class="cls-12" x="9.49" y="53.83" width="99.07" height="0.2" transform="translate(-1.57 1.77) rotate(-1.7)"/><rect class="cls-12" x="9.6" y="57.66" width="99.07" height="0.2" transform="translate(-1.68 1.78) rotate(-1.7)"/><rect class="cls-12" x="9.72" y="61.69" width="99.07" height="0.2" transform="translate(-1.8 1.78) rotate(-1.7)"/><rect class="cls-12" x="9.84" y="65.72" width="99.07" height="0.2" transform="translate(-1.92 1.79) rotate(-1.7)"/><rect class="cls-12" x="9.95" y="69.55" width="99.07" height="0.2" transform="translate(-2.04 1.79) rotate(-1.7)"/><rect class="cls-12" x="10.07" y="73.58" width="99.07" height="0.2" transform="translate(-2.15 1.8) rotate(-1.7)"/><rect class="cls-12" x="10.19" y="77.61" width="99.07" height="0.2" transform="translate(-2.27 1.8) rotate(-1.7)"/><rect class="cls-12" x="10.31" y="81.65" width="99.07" height="0.2" transform="translate(-2.39 1.81) rotate(-1.7)"/><rect class="cls-12" x="10.43" y="85.68" width="99.07" height="0.2" transform="translate(-2.51 1.81) rotate(-1.7)"/><rect class="cls-12" x="10.55" y="89.71" width="99.07" height="0.2" transform="translate(-2.63 1.82) rotate(-1.7)"/><rect class="cls-12" x="10.66" y="93.54" width="99.07" height="0.2" transform="translate(-2.74 1.82) rotate(-1.7)"/><rect class="cls-12" x="10.78" y="97.57" width="99.07" height="0.2" transform="translate(-2.86 1.83) rotate(-1.7)"/><rect class="cls-12" x="10.9" y="101.6" width="99.07" height="0.2" transform="translate(-2.98 1.83) rotate(-1.7)"/><rect class="cls-12" x="11.02" y="105.64" width="99.07" height="0.2" transform="translate(-3.1 1.84) rotate(-1.7)"/><rect class="cls-12" x="11.14" y="109.67" width="99.07" height="0.2" transform="translate(-3.22 1.84) rotate(-1.7)"/><rect class="cls-12" x="11.26" y="113.7" width="99.07" height="0.2" transform="translate(-3.34 1.85) rotate(-1.7)"/><rect class="cls-12" x="11.38" y="117.73" width="99.07" height="0.2" transform="translate(-3.46 1.85) rotate(-1.7)"/><rect class="cls-12" x="11.49" y="121.56" width="99.07" height="0.2" transform="translate(-3.57 1.86) rotate(-1.7)"/><rect class="cls-12" x="11.61" y="125.59" width="99.07" height="0.2" transform="translate(-3.69 1.86) rotate(-1.7)"/><rect class="cls-12" x="11.78" y="131.24" width="99.07" height="0.2" transform="translate(-3.86 1.87) rotate(-1.7)"/><rect class="cls-12" x="12.24" y="135.06" width="99.07" height="0.2" transform="translate(-3.97 1.89) rotate(-1.7)"/><rect class="cls-12" x="12.06" y="140.61" width="99.07" height="0.2" transform="translate(-4.14 1.88) rotate(-1.7)"/><rect class="cls-12" x="12.22" y="146.11" width="99.07" height="0.2" transform="translate(-4.3 1.89) rotate(-1.7)"/><rect class="cls-12" x="12.34" y="150.09" width="99.07" height="0.2" transform="translate(-4.42 1.9) rotate(-1.7)"/><rect class="cls-12" x="12.46" y="154.12" width="99.07" height="0.2" transform="translate(-4.54 1.9) rotate(-1.7)"/><rect class="cls-12" x="12.62" y="159.61" width="99.07" height="0.2" transform="translate(-4.7 1.91) rotate(-1.7)"/><rect class="cls-12" x="94.34" y="25.85" width="0.2" height="136.76" transform="translate(-2.75 2.84) rotate(-1.7)"/><rect class="cls-12" x="80.83" y="26.25" width="0.2" height="136.76" transform="translate(-2.77 2.44) rotate(-1.7)"/><rect class="cls-12" x="66.11" y="26.69" width="0.2" height="136.76" transform="translate(-2.78 2) rotate(-1.7)"/><rect class="cls-12" x="56.56" y="26.97" width="0.2" height="136.76" transform="translate(-2.8 1.72) rotate(-1.7)"/><rect class="cls-12" x="38.19" y="27.52" width="0.2" height="136.76" transform="translate(-2.82 1.18) rotate(-1.7)"/><rect class="cls-12" x="14.63" y="28.36" width="0.2" height="136.61" transform="translate(-2.85 0.48) rotate(-1.7)"/><rect class="cls-1" x="31.19" y="98.91" width="173.48" height="105.84"/><rect class="cls-2" x="29.19" y="100.91" width="173.48" height="105.84" transform="translate(-2.4 1.84) rotate(-0.9)"/><rect class="cls-3" x="32.37" y="104.31" width="167.12" height="99.03" transform="translate(-2.4 1.84) rotate(-0.9)"/><path class="cls-13" d="M200.31,202.08,33.11,204.7l-1.56-99.12L198.76,103ZM33.21,204.6l167-2.62-1.55-98.92-167,2.62Z"/><rect class="cls-14" x="102.76" y="112.57" width="95" height="25.73" rx="0.41" ry="0.41" transform="matrix(1, -0.02, 0.02, 1, -1.95, 2.37)"/><rect class="cls-14" x="103.23" y="142.41" width="95" height="25.73" rx="0.41" ry="0.41" transform="translate(-2.42 2.38) rotate(-0.9)"/><rect class="cls-14" x="103.67" y="172.15" width="95" height="22.29" rx="0.41" ry="0.41" transform="translate(-2.86 2.39) rotate(-0.9)"/><rect class="cls-13" x="31.63" y="104.32" width="167.12" height="4.67" transform="translate(-1.66 1.82) rotate(-0.9)"/><rect class="cls-3" x="33.21" y="107.35" width="15.37" height="1.32" transform="translate(-1.69 0.65) rotate(-0.9)"/><rect class="cls-15" x="33.33" y="113.89" width="66.16" height="4" rx="0.41" ry="0.41" transform="translate(-1.81 1.06) rotate(-0.9)"/><rect class="cls-14" x="33.33" y="113.68" width="66.16" height="4" rx="0.41" ry="0.41" transform="matrix(1, -0.02, 0.02, 1, -1.81, 1.06)"/><path class="cls-16" d="M99.23,125.44l-65.32,1a.46.46,0,0,1-.47-.46l0-3.17a.47.47,0,0,1,.45-.47l65.32-1a.47.47,0,0,1,.48.46l0,3.16A.45.45,0,0,1,99.23,125.44Zm-65.38-3a.37.37,0,0,0-.36.37l0,3.17a.37.37,0,0,0,.37.36l65.32-1a.35.35,0,0,0,.35-.37l0-3.16a.37.37,0,0,0-.37-.36Z"/><rect class="cls-3" x="102.76" y="112.37" width="95" height="25.73" rx="0.41" ry="0.41" transform="translate(-1.94 2.37) rotate(-0.9)"/><path class="cls-16" d="M197.54,137.41l-94.16,1.48a.47.47,0,0,1-.47-.46l-.39-24.9a.47.47,0,0,1,.46-.47l94.16-1.48a.47.47,0,0,1,.47.46l.39,24.9A.45.45,0,0,1,197.54,137.41ZM103,113.16a.37.37,0,0,0-.36.37l.39,24.9a.37.37,0,0,0,.37.36l94.16-1.48a.37.37,0,0,0,.36-.37l-.39-24.9a.37.37,0,0,0-.37-.36Z"/><rect class="cls-15" x="34.55" y="115.45" width="11.48" height="1.32" transform="translate(-1.82 0.65) rotate(-0.9)"/><rect class="cls-15" x="103.41" y="114.44" width="2.49" height="1.32" transform="matrix(1, -0.02, 0.02, 1, -1.79, 1.65)"/><rect class="cls-15" x="34.68" y="123.71" width="23.53" height="1.32" transform="translate(-1.94 0.74) rotate(-0.9)"/><path class="cls-16" d="M99.35,133.47l-65.32,1a.47.47,0,0,1-.47-.46l-.05-3.16a.48.48,0,0,1,.46-.48l65.32-1a.47.47,0,0,1,.47.46l0,3.16A.48.48,0,0,1,99.35,133.47ZM34,130.5a.36.36,0,0,0-.36.37l0,3.16a.37.37,0,0,0,.37.36l65.32-1a.36.36,0,0,0,.36-.36l0-3.17a.37.37,0,0,0-.37-.36Z"/><rect class="cls-15" x="34.81" y="131.78" width="18.32" height="1.32" transform="matrix(1, -0.02, 0.02, 1, -2.07, 0.71)"/><path class="cls-16" d="M99.48,141.68l-65.32,1a.47.47,0,0,1-.47-.46l0-3.16a.48.48,0,0,1,.46-.48l65.32-1a.47.47,0,0,1,.47.46l0,3.16A.48.48,0,0,1,99.48,141.68Zm-65.38-3a.36.36,0,0,0-.36.36l0,3.17a.37.37,0,0,0,.37.36l65.32-1a.37.37,0,0,0,.36-.37l0-3.16a.37.37,0,0,0-.37-.36Z"/><rect class="cls-15" x="34.94" y="140" width="16.86" height="1.32" transform="translate(-2.2 0.7) rotate(-0.9)"/><path class="cls-16" d="M99.61,149.68l-65.32,1a.47.47,0,0,1-.47-.46l0-3.17a.46.46,0,0,1,.45-.47l65.32-1a.47.47,0,0,1,.48.45l0,3.17A.45.45,0,0,1,99.61,149.68Zm-65.38-3a.36.36,0,0,0-.36.37l.05,3.17a.35.35,0,0,0,.37.35l65.32-1a.35.35,0,0,0,.35-.37l0-3.16a.35.35,0,0,0-.37-.36Z"/><rect class="cls-15" x="35.06" y="147.92" width="27.93" height="1.32" transform="translate(-2.32 0.79) rotate(-0.9)"/><path class="cls-16" d="M99.73,157.84l-65.31,1a.48.48,0,0,1-.48-.46l0-3.17a.47.47,0,0,1,.46-.47l65.32-1a.45.45,0,0,1,.47.45l0,3.17A.45.45,0,0,1,99.73,157.84Zm-65.38-3a.35.35,0,0,0-.35.37l0,3.17a.34.34,0,0,0,.36.35l65.32-1a.37.37,0,0,0,.36-.37l0-3.16a.36.36,0,0,0-.37-.36Z"/><rect class="cls-15" x="35.19" y="156.13" width="21.38" height="1.32" transform="translate(-2.45 0.74) rotate(-0.9)"/><path class="cls-16" d="M99.86,165.93l-65.32,1a.47.47,0,0,1-.47-.46l0-3.16a.48.48,0,0,1,.46-.48l65.32-1a.47.47,0,0,1,.47.46l0,3.16A.48.48,0,0,1,99.86,165.93Zm-65.38-3a.36.36,0,0,0-.36.36l.05,3.17a.37.37,0,0,0,.37.36l65.32-1a.37.37,0,0,0,.36-.37l0-3.16a.37.37,0,0,0-.37-.36Z"/><rect class="cls-15" x="35.32" y="164.32" width="8.43" height="1.32" transform="translate(-2.58 0.64) rotate(-0.9)"/><rect class="cls-17" x="33.28" y="112.18" width="9.79" height="1.32" transform="translate(-1.76 0.61) rotate(-0.9)"/><rect class="cls-17" x="102.54" y="110.86" width="39.21" height="1.32" transform="translate(-1.73 1.93) rotate(-0.9)"/><rect class="cls-17" x="33.4" y="120.07" width="14.12" height="1.32" transform="translate(-1.89 0.65) rotate(-0.9)"/><rect class="cls-17" x="33.53" y="128.4" width="6.96" height="1.32" transform="translate(-2.02 0.6) rotate(-0.9)"/><rect class="cls-17" x="33.66" y="136.44" width="5.23" height="1.32" transform="translate(-2.14 0.59) rotate(-0.9)"/><rect class="cls-17" x="33.79" y="144.39" width="14.63" height="1.32" transform="translate(-2.27 0.66) rotate(-0.9)"/><rect class="cls-17" x="33.91" y="152.46" width="8.48" height="1.32" transform="translate(-2.4 0.62) rotate(-0.9)"/><rect class="cls-17" x="34.04" y="160.77" width="10.82" height="1.32" transform="matrix(1, -0.02, 0.02, 1, -2.53, 0.64)"/><rect class="cls-17" x="34.17" y="168.72" width="13.1" height="1.32" transform="translate(-2.65 0.66) rotate(-0.9)"/><rect class="cls-17" x="35.66" y="171.51" width="2.12" height="1.32" transform="translate(-2.69 0.6) rotate(-0.9)"/><rect class="cls-17" x="39.62" y="171.45" width="1.71" height="1.32" transform="translate(-2.69 0.66) rotate(-0.9)"/><polygon class="cls-18" points="98.06 114.97 98.41 114.32 97.68 114.33 98.06 114.97"/><polygon class="cls-15" points="106.59 115.07 106.95 114.73 106.22 114.74 106.59 115.07"/><rect class="cls-15" x="108.84" y="114.35" width="2.49" height="1.32" transform="translate(-1.79 1.74) rotate(-0.9)"/><polygon class="cls-15" points="112.02 114.98 112.39 114.64 111.65 114.65 112.02 114.98"/><rect class="cls-15" x="114.15" y="114.27" width="2.97" height="1.32" transform="translate(-1.79 1.83) rotate(-0.9)"/><polygon class="cls-15" points="117.81 114.89 118.17 114.55 117.44 114.56 117.81 114.89"/><rect class="cls-15" x="110.55" y="117.84" width="5.3" height="1.32" transform="translate(-1.84 1.79) rotate(-0.9)"/><polygon class="cls-15" points="116.55 118.45 116.91 118.11 116.17 118.12 116.55 118.45"/><rect class="cls-15" x="120.14" y="114.16" width="4.55" height="1.32" transform="translate(-1.79 1.93) rotate(-0.9)"/><rect class="cls-15" x="183.06" y="135.48" width="13.03" height="1.32" transform="translate(-2.11 2.99) rotate(-0.9)"/><polygon class="cls-19" points="139.28 117.96 139.62 118.32 139.61 117.58 139.28 117.96"/><circle class="cls-20" cx="38.81" cy="172.14" r="0.54"/><path class="cls-21" d="M38.82,172.73a.6.6,0,1,1,.59-.6A.6.6,0,0,1,38.82,172.73Zm0-1.08a.49.49,0,0,0-.49.49.5.5,0,1,0,1,0A.49.49,0,0,0,38.81,171.65Z"/><circle class="cls-20" cx="34.75" cy="172.2" r="0.54"/><path class="cls-21" d="M34.76,172.79a.59.59,0,1,1,0-1.18.59.59,0,0,1,0,1.18Zm0-1.08a.49.49,0,0,0,0,1,.48.48,0,0,0,.48-.5A.48.48,0,0,0,34.74,171.71Z"/><circle class="cls-21" cx="34.75" cy="172.2" r="0.23"/><rect class="cls-16" x="102.62" y="116.01" width="95" height="0.1" transform="translate(-1.8 2.37) rotate(-0.9)"/><rect class="cls-16" x="102.67" y="119.57" width="95" height="0.1" transform="translate(-1.86 2.37) rotate(-0.9)"/><rect class="cls-16" x="102.92" y="135.27" width="95" height="0.1" transform="translate(-2.1 2.37) rotate(-0.9)"/><rect class="cls-14" x="109.45" y="116.7" width="0.1" height="3.55" transform="translate(-1.84 1.73) rotate(-0.9)"/><rect class="cls-14" x="117.93" y="116.57" width="0.1" height="3.55" transform="translate(-1.84 1.86) rotate(-0.9)"/><rect class="cls-14" x="124.84" y="116.46" width="0.1" height="3.55" transform="translate(-1.84 1.97) rotate(-0.9)"/><rect class="cls-14" x="138.19" y="116.25" width="0.1" height="3.55" transform="translate(-1.83 2.18) rotate(-0.9)"/><path class="cls-15" d="M104.34,118.11v-.31l-.54.56.56.54v-.32a1,1,0,0,1,.87.39,1,1,0,0,0-.88-.86Z"/><path class="cls-15" d="M107.83,118.06a1,1,0,0,0-.86.88,1,1,0,0,1,.86-.42v.33l.54-.56-.56-.55v.32Z"/><path class="cls-19" d="M119.78,117.59c.25,0,.39.08.39.32a.28.28,0,0,1-.13.27.26.26,0,0,1,.16.28c0,.24-.15.35-.39.36h-.49l0-1.22Zm-.23.22v.29h.22c.1,0,.14,0,.14-.15s0-.14-.15-.14Zm0,.5v.3h.23c.1,0,.16,0,.16-.15a.14.14,0,0,0-.16-.15Z"/><path class="cls-19" d="M122.88,117.52H123l-.27,1.25h-.14Z"/><rect class="cls-19" x="125.76" y="117.43" width="1.68" height="0.2" transform="translate(-1.83 2) rotate(-0.9)"/><rect class="cls-19" x="125.76" y="117.76" width="1.04" height="0.2" transform="translate(-1.83 1.99) rotate(-0.9)"/><rect class="cls-19" x="125.77" y="118.05" width="1.75" height="0.2" transform="matrix(1, -0.02, 0.02, 1, -1.84, 2)"/><rect class="cls-19" x="125.77" y="118.36" width="1.15" height="0.2" transform="translate(-1.84 2) rotate(-0.9)"/><rect class="cls-19" x="125.78" y="118.67" width="1.75" height="0.2" transform="translate(-1.85 2) rotate(-0.9)"/><rect class="cls-19" x="129.13" y="117.38" width="1.68" height="0.2" transform="translate(-1.83 2.05) rotate(-0.9)"/><rect class="cls-19" x="129.45" y="117.71" width="1.04" height="0.2" transform="matrix(1, -0.02, 0.02, 1, -1.83, 2.05)"/><rect class="cls-19" x="129.1" y="118" width="1.75" height="0.2" transform="matrix(1, -0.02, 0.02, 1, -1.84, 2.05)"/><rect class="cls-19" x="129.41" y="118.31" width="1.15" height="0.2" transform="translate(-1.84 2.05) rotate(-0.9)"/><rect class="cls-19" x="129.11" y="118.61" width="1.75" height="0.2" transform="translate(-1.85 2.05) rotate(-0.9)"/><rect class="cls-19" x="132.44" y="117.32" width="1.68" height="0.2" transform="translate(-1.82 2.1) rotate(-0.9)"/><rect class="cls-19" x="133.08" y="117.65" width="1.04" height="0.2" transform="translate(-1.83 2.11) rotate(-0.9)"/><rect class="cls-19" x="132.37" y="117.95" width="1.75" height="0.2" transform="translate(-1.83 2.1) rotate(-0.9)"/><rect class="cls-19" x="132.99" y="118.25" width="1.15" height="0.2" transform="translate(-1.84 2.11) rotate(-0.9)"/><rect class="cls-19" x="132.38" y="118.56" width="1.75" height="0.2" transform="translate(-1.84 2.1) rotate(-0.9)"/><rect class="cls-19" x="135.67" y="117.27" width="1.68" height="0.2" transform="translate(-1.82 2.15) rotate(-0.9)"/><rect class="cls-19" x="135.67" y="117.6" width="1.68" height="0.2" transform="translate(-1.83 2.15) rotate(-0.9)"/><rect class="cls-19" x="135.68" y="117.9" width="1.68" height="0.2" transform="translate(-1.83 2.15) rotate(-0.9)"/><rect class="cls-19" x="135.68" y="118.2" width="1.68" height="0.2" transform="translate(-1.84 2.15) rotate(-0.9)"/><rect class="cls-19" x="135.69" y="118.51" width="1.68" height="0.2" transform="translate(-1.84 2.16) rotate(-0.9)"/><rect class="cls-19" x="139.23" y="117.22" width="1.68" height="0.2" transform="translate(-1.82 2.21) rotate(-0.9)"/><rect class="cls-19" x="139.83" y="117.54" width="1.08" height="0.2" transform="translate(-1.83 2.22) rotate(-0.9)"/><rect class="cls-19" x="139.84" y="117.84" width="1.08" height="0.2" transform="translate(-1.83 2.22) rotate(-0.9)"/><rect class="cls-19" x="139.84" y="118.14" width="1.08" height="0.2" transform="translate(-1.84 2.22) rotate(-0.9)"/><rect class="cls-19" x="139.25" y="118.46" width="1.68" height="0.2" transform="translate(-1.84 2.21) rotate(-0.9)"/><polygon class="cls-19" points="142.87 117.9 142.53 117.54 142.54 118.27 142.87 117.9"/><rect class="cls-19" x="142.53" y="117.17" width="1.68" height="0.2" transform="translate(-1.82 2.26) rotate(-0.9)"/><rect class="cls-19" x="143.13" y="117.49" width="1.08" height="0.2" transform="translate(-1.83 2.27) rotate(-0.9)"/><rect class="cls-19" x="143.13" y="117.79" width="1.08" height="0.2" transform="translate(-1.83 2.27) rotate(-0.9)"/><rect class="cls-19" x="143.14" y="118.09" width="1.08" height="0.2" transform="translate(-1.84 2.27) rotate(-0.9)"/><rect class="cls-19" x="142.54" y="118.4" width="1.68" height="0.2" transform="translate(-1.84 2.26) rotate(-0.9)"/><rect class="cls-22" x="197.54" y="136.95" width="0.11" height="0.11" transform="translate(-2.12 3.11) rotate(-0.9)"/><rect class="cls-22" x="197.54" y="136.74" width="0.11" height="0.11" transform="translate(-2.12 3.11) rotate(-0.9)"/><rect class="cls-22" x="197.53" y="136.54" width="0.11" height="0.11" transform="translate(-2.12 3.11) rotate(-0.9)"/><rect class="cls-22" x="197.53" y="136.34" width="0.11" height="0.11" transform="translate(-2.11 3.11) rotate(-0.9)"/><rect class="cls-22" x="197.53" y="136.13" width="0.11" height="0.11" transform="matrix(1, -0.02, 0.02, 1, -2.11, 3.11)"/><rect class="cls-22" x="197.35" y="136.95" width="0.11" height="0.11" transform="translate(-2.12 3.11) rotate(-0.9)"/><rect class="cls-22" x="197.34" y="136.75" width="0.11" height="0.11" transform="translate(-2.12 3.11) rotate(-0.9)"/><rect class="cls-22" x="197.34" y="136.54" width="0.11" height="0.11" transform="translate(-2.12 3.11) rotate(-0.9)"/><rect class="cls-22" x="197.34" y="136.34" width="0.11" height="0.11" transform="translate(-2.11 3.11) rotate(-0.9)"/><rect class="cls-22" x="197.15" y="136.95" width="0.11" height="0.11" transform="translate(-2.12 3.11) rotate(-0.9)"/><rect class="cls-22" x="197.15" y="136.75" width="0.11" height="0.11" transform="translate(-2.12 3.11) rotate(-0.9)"/><rect class="cls-22" x="197.15" y="136.55" width="0.11" height="0.11" transform="translate(-2.12 3.11) rotate(-0.9)"/><rect class="cls-22" x="196.96" y="136.95" width="0.11" height="0.11" transform="translate(-2.12 3.11) rotate(-0.9)"/><rect class="cls-22" x="196.95" y="136.75" width="0.11" height="0.11" transform="translate(-2.12 3.11) rotate(-0.9)"/><rect class="cls-22" x="196.76" y="136.96" width="0.11" height="0.11" transform="translate(-2.12 3.1) rotate(-0.9)"/><rect class="cls-3" x="103.23" y="142.21" width="95" height="25.73" rx="0.41" ry="0.41" transform="translate(-2.41 2.38) rotate(-0.9)"/><path class="cls-16" d="M198,167.25l-94.16,1.48a.47.47,0,0,1-.47-.46l-.39-24.9a.45.45,0,0,1,.46-.47l94.16-1.48a.47.47,0,0,1,.47.46l.39,24.9A.47.47,0,0,1,198,167.25ZM103.45,143a.37.37,0,0,0-.36.37l.39,24.9a.35.35,0,0,0,.37.35L198,167.15a.37.37,0,0,0,.36-.37l-.39-24.9a.37.37,0,0,0-.37-.36Z"/><rect class="cls-15" x="103.88" y="144.27" width="2.49" height="1.32" transform="translate(-2.26 1.67) rotate(-0.9)"/><rect class="cls-17" x="103.01" y="140.89" width="14.52" height="1.32" transform="translate(-2.21 1.75) rotate(-0.9)"/><polygon class="cls-15" points="107.06 144.91 107.42 144.56 106.69 144.57 107.06 144.91"/><rect class="cls-15" x="109.31" y="144.19" width="2.49" height="1.32" transform="translate(-2.26 1.75) rotate(-0.9)"/><polygon class="cls-15" points="112.49 144.82 112.85 144.48 112.12 144.49 112.49 144.82"/><rect class="cls-15" x="114.61" y="144.1" width="2.97" height="1.32" transform="matrix(1, -0.02, 0.02, 1, -2.26, 1.84)"/><polygon class="cls-15" points="118.28 144.73 118.64 144.39 117.91 144.4 118.28 144.73"/><rect class="cls-15" x="111.02" y="147.68" width="5.3" height="1.32" transform="translate(-2.31 1.8) rotate(-0.9)"/><polygon class="cls-15" points="117.02 148.29 117.38 147.95 116.64 147.96 117.02 148.29"/><rect class="cls-15" x="120.61" y="144" width="4.55" height="1.32" transform="translate(-2.25 1.94) rotate(-0.9)"/><rect class="cls-15" x="183.53" y="165.32" width="13.03" height="1.32" transform="translate(-2.58 3) rotate(-0.9)"/><polygon class="cls-19" points="139.75 147.79 140.09 148.16 140.08 147.42 139.75 147.79"/><rect class="cls-16" x="103.08" y="145.85" width="95" height="0.1" transform="translate(-2.27 2.38) rotate(-0.9)"/><rect class="cls-16" x="103.14" y="149.4" width="95" height="0.1" transform="translate(-2.32 2.38) rotate(-0.9)"/><rect class="cls-16" x="103.39" y="165.11" width="95" height="0.1" transform="translate(-2.57 2.39) rotate(-0.9)"/><rect class="cls-14" x="109.92" y="146.54" width="0.1" height="3.55" transform="matrix(1, -0.02, 0.02, 1, -2.31, 1.74)"/><rect class="cls-14" x="118.4" y="146.4" width="0.1" height="3.55" transform="translate(-2.31 1.88) rotate(-0.9)"/><rect class="cls-14" x="125.31" y="146.29" width="0.1" height="3.55" transform="translate(-2.31 1.98) rotate(-0.9)"/><rect class="cls-14" x="138.66" y="146.08" width="0.1" height="3.55" transform="translate(-2.3 2.19) rotate(-0.9)"/><path class="cls-15" d="M104.81,148v-.32l-.54.56.56.55v-.33a1,1,0,0,1,.88.39,1,1,0,0,0-.88-.85Z"/><path class="cls-15" d="M108.29,147.89a1,1,0,0,0-.85.89,1,1,0,0,1,.86-.42v.32l.54-.56-.56-.54v.31Z"/><path class="cls-19" d="M120.25,147.43c.25,0,.38.08.39.31a.31.31,0,0,1-.13.28.26.26,0,0,1,.16.27c0,.25-.15.36-.39.36h-.49l0-1.23Zm-.23.21v.29h.23c.09,0,.14-.05.13-.15a.12.12,0,0,0-.14-.14Zm0,.5v.3h.23c.1,0,.16,0,.16-.15a.15.15,0,0,0-.17-.15Z"/><path class="cls-19" d="M123.35,147.36h.14l-.27,1.26h-.14Z"/><rect class="cls-19" x="126.23" y="147.27" width="1.68" height="0.2" transform="translate(-2.29 2.01) rotate(-0.9)"/><rect class="cls-19" x="126.23" y="147.6" width="1.04" height="0.2" transform="translate(-2.3 2.01) rotate(-0.9)"/><rect class="cls-19" x="126.24" y="147.89" width="1.75" height="0.2" transform="translate(-2.3 2.01) rotate(-0.9)"/><rect class="cls-19" x="126.24" y="148.2" width="1.15" height="0.2" transform="translate(-2.31 2.01) rotate(-0.9)"/><rect class="cls-19" x="126.25" y="148.5" width="1.75" height="0.2" transform="matrix(1, -0.02, 0.02, 1, -2.31, 2.01)"/><rect class="cls-19" x="129.6" y="147.21" width="1.68" height="0.2" transform="translate(-2.29 2.06) rotate(-0.9)"/><rect class="cls-19" x="129.92" y="147.54" width="1.04" height="0.2" transform="translate(-2.3 2.06) rotate(-0.9)"/><rect class="cls-19" x="129.57" y="147.84" width="1.75" height="0.2" transform="translate(-2.3 2.06) rotate(-0.9)"/><rect class="cls-19" x="129.88" y="148.14" width="1.15" height="0.2" transform="translate(-2.31 2.06) rotate(-0.9)"/><rect class="cls-19" x="129.58" y="148.45" width="1.75" height="0.2" transform="matrix(1, -0.02, 0.02, 1, -2.31, 2.06)"/><rect class="cls-19" x="132.91" y="147.16" width="1.68" height="0.2" transform="translate(-2.29 2.12) rotate(-0.9)"/><rect class="cls-19" x="133.55" y="147.49" width="1.04" height="0.2" transform="translate(-2.3 2.12) rotate(-0.9)"/><rect class="cls-19" x="132.84" y="147.79" width="1.75" height="0.2" transform="translate(-2.3 2.11) rotate(-0.9)"/><rect class="cls-19" x="133.45" y="148.09" width="1.15" height="0.2" transform="translate(-2.31 2.12) rotate(-0.9)"/><rect class="cls-19" x="132.85" y="148.4" width="1.75" height="0.2" transform="translate(-2.31 2.11) rotate(-0.9)"/><rect class="cls-19" x="136.14" y="147.11" width="1.68" height="0.2" transform="translate(-2.29 2.17) rotate(-0.9)"/><rect class="cls-19" x="136.14" y="147.44" width="1.68" height="0.2" transform="translate(-2.3 2.17) rotate(-0.9)"/><rect class="cls-19" x="136.15" y="147.73" width="1.68" height="0.2" transform="translate(-2.3 2.17) rotate(-0.9)"/><rect class="cls-19" x="136.15" y="148.04" width="1.68" height="0.2" transform="translate(-2.31 2.17) rotate(-0.9)"/><rect class="cls-19" x="136.16" y="148.35" width="1.68" height="0.2" transform="translate(-2.31 2.17) rotate(-0.9)"/><rect class="cls-19" x="139.7" y="147.05" width="1.68" height="0.2" transform="translate(-2.29 2.22) rotate(-0.9)"/><rect class="cls-19" x="140.3" y="147.38" width="1.08" height="0.2" transform="translate(-2.29 2.23) rotate(-0.9)"/><rect class="cls-19" x="140.31" y="147.67" width="1.08" height="0.2" transform="translate(-2.3 2.23) rotate(-0.9)"/><rect class="cls-19" x="140.31" y="147.98" width="1.08" height="0.2" transform="translate(-2.3 2.23) rotate(-0.9)"/><rect class="cls-19" x="139.72" y="148.29" width="1.68" height="0.2" transform="translate(-2.31 2.22) rotate(-0.9)"/><polygon class="cls-19" points="143.34 147.74 143 147.38 143.01 148.11 143.34 147.74"/><rect class="cls-19" x="142.99" y="147" width="1.68" height="0.2" transform="translate(-2.29 2.27) rotate(-0.9)"/><rect class="cls-19" x="143.59" y="147.33" width="1.08" height="0.2" transform="translate(-2.29 2.28) rotate(-0.9)"/><rect class="cls-19" x="143.6" y="147.62" width="1.08" height="0.2" transform="translate(-2.3 2.28) rotate(-0.9)"/><rect class="cls-19" x="143.6" y="147.93" width="1.08" height="0.2" transform="translate(-2.3 2.28) rotate(-0.9)"/><rect class="cls-19" x="143.01" y="148.24" width="1.68" height="0.2" transform="translate(-2.31 2.27) rotate(-0.9)"/><rect class="cls-22" x="198.01" y="166.78" width="0.11" height="0.11" transform="translate(-2.59 3.13) rotate(-0.9)"/><rect class="cls-22" x="198" y="166.58" width="0.11" height="0.11" transform="translate(-2.59 3.13) rotate(-0.9)"/><rect class="cls-22" x="198" y="166.38" width="0.11" height="0.11" transform="translate(-2.58 3.13) rotate(-0.9)"/><rect class="cls-22" x="198" y="166.17" width="0.11" height="0.11" transform="translate(-2.58 3.13) rotate(-0.9)"/><rect class="cls-22" x="197.99" y="165.97" width="0.11" height="0.11" transform="translate(-2.58 3.13) rotate(-0.9)"/><rect class="cls-22" x="197.81" y="166.79" width="0.11" height="0.11" transform="translate(-2.59 3.12) rotate(-0.9)"/><rect class="cls-22" x="197.81" y="166.58" width="0.11" height="0.11" transform="translate(-2.59 3.12) rotate(-0.9)"/><rect class="cls-22" x="197.81" y="166.38" width="0.11" height="0.11" transform="translate(-2.59 3.12) rotate(-0.9)"/><rect class="cls-22" x="197.8" y="166.18" width="0.11" height="0.11" transform="translate(-2.58 3.12) rotate(-0.9)"/><rect class="cls-22" x="197.62" y="166.79" width="0.11" height="0.11" transform="translate(-2.59 3.12) rotate(-0.9)"/><rect class="cls-22" x="197.62" y="166.59" width="0.11" height="0.11" transform="translate(-2.59 3.12) rotate(-0.9)"/><rect class="cls-22" x="197.61" y="166.38" width="0.11" height="0.11" transform="translate(-2.59 3.12) rotate(-0.9)"/><rect class="cls-22" x="197.43" y="166.79" width="0.11" height="0.11" transform="translate(-2.59 3.12) rotate(-0.9)"/><rect class="cls-22" x="197.42" y="166.59" width="0.11" height="0.11" transform="translate(-2.59 3.12) rotate(-0.9)"/><rect class="cls-22" x="197.23" y="166.79" width="0.11" height="0.11" transform="translate(-2.59 3.11) rotate(-0.9)"/><rect class="cls-3" x="103.67" y="171.94" width="95" height="22.29" rx="0.41" ry="0.41" transform="translate(-2.85 2.39) rotate(-0.9)"/><path class="cls-16" d="M198.42,193.54,104.26,195a.47.47,0,0,1-.47-.46l-.34-21.46a.47.47,0,0,1,.46-.47l94.16-1.48a.47.47,0,0,1,.47.46l.34,21.46A.46.46,0,0,1,198.42,193.54Zm-94.51-20.81a.37.37,0,0,0-.36.37l.34,21.46a.35.35,0,0,0,.37.35l94.16-1.47a.37.37,0,0,0,.36-.37l-.34-21.46a.35.35,0,0,0-.37-.35Z"/><rect class="cls-15" x="104.34" y="174.01" width="2.49" height="1.32" transform="translate(-2.73 1.68) rotate(-0.9)"/><rect class="cls-17" x="103.48" y="170.7" width="5.03" height="1.32" transform="translate(-2.67 1.68) rotate(-0.9)"/><polygon class="cls-15" points="107.52 174.64 107.89 174.3 107.15 174.31 107.52 174.64"/><rect class="cls-15" x="109.77" y="173.92" width="2.49" height="1.32" transform="translate(-2.72 1.76) rotate(-0.9)"/><polygon class="cls-15" points="112.96 174.56 113.32 174.21 112.58 174.22 112.96 174.56"/><rect class="cls-15" x="115.08" y="173.84" width="2.97" height="1.32" transform="translate(-2.72 1.85) rotate(-0.9)"/><polygon class="cls-15" points="118.75 174.46 119.11 174.12 118.37 174.13 118.75 174.46"/><rect class="cls-15" x="111.49" y="177.41" width="5.3" height="1.32" transform="translate(-2.78 1.81) rotate(-0.9)"/><polygon class="cls-15" points="117.48 178.02 117.84 177.68 117.11 177.69 117.48 178.02"/><rect class="cls-15" x="121.07" y="173.73" width="4.55" height="1.32" transform="translate(-2.72 1.96) rotate(-0.9)"/><rect class="cls-15" x="183.94" y="191.4" width="13.03" height="1.32" transform="translate(-2.99 3.01) rotate(-0.9)"/><polygon class="cls-19" points="140.22 177.53 140.56 177.89 140.54 177.16 140.22 177.53"/><rect class="cls-16" x="103.55" y="175.58" width="95" height="0.1" transform="translate(-2.74 2.39) rotate(-0.9)"/><rect class="cls-16" x="103.61" y="179.14" width="95" height="0.1" transform="translate(-2.79 2.39) rotate(-0.9)"/><rect class="cls-16" x="103.79" y="190.89" width="95" height="0.1" transform="translate(-2.98 2.4) rotate(-0.9)"/><rect class="cls-14" x="110.39" y="176.27" width="0.1" height="3.55" transform="matrix(1, -0.02, 0.02, 1, -2.78, 1.75)"/><rect class="cls-14" x="118.87" y="176.14" width="0.1" height="3.55" transform="translate(-2.77 1.89) rotate(-0.9)"/><rect class="cls-14" x="125.77" y="176.03" width="0.1" height="3.55" transform="translate(-2.77 1.99) rotate(-0.9)"/><rect class="cls-14" x="139.13" y="175.82" width="0.1" height="3.55" transform="translate(-2.77 2.2) rotate(-0.9)"/><path class="cls-15" d="M105.27,177.68v-.31l-.55.56.56.54v-.32a1,1,0,0,1,.87.39,1,1,0,0,0-.88-.86Z"/><path class="cls-15" d="M108.76,177.63a1,1,0,0,0-.85.88,1,1,0,0,1,.86-.42v.33l.55-.56-.56-.55v.32Z"/><path class="cls-19" d="M120.72,177.16c.24,0,.38.09.38.32a.25.25,0,0,1-.13.27.26.26,0,0,1,.16.28c0,.24-.14.35-.39.36h-.49l0-1.22Zm-.23.22v.29h.22a.13.13,0,0,0,.14-.15c0-.11,0-.15-.14-.15Zm0,.5v.3h.23c.1,0,.15,0,.15-.15a.13.13,0,0,0-.16-.14Z"/><path class="cls-19" d="M123.82,177.09H124l-.26,1.25h-.14Z"/><rect class="cls-19" x="126.69" y="177" width="1.68" height="0.2" transform="translate(-2.76 2.02) rotate(-0.9)"/><rect class="cls-19" x="126.7" y="177.34" width="1.04" height="0.2" transform="translate(-2.77 2.02) rotate(-0.9)"/><rect class="cls-19" x="126.7" y="177.62" width="1.75" height="0.2" transform="translate(-2.77 2.02) rotate(-0.9)"/><rect class="cls-19" x="126.71" y="177.94" width="1.15" height="0.2" transform="translate(-2.78 2.02) rotate(-0.9)"/><rect class="cls-19" x="126.71" y="178.24" width="1.75" height="0.2" transform="translate(-2.78 2.02) rotate(-0.9)"/><rect class="cls-19" x="130.06" y="176.95" width="1.68" height="0.2" transform="translate(-2.76 2.07) rotate(-0.9)"/><rect class="cls-19" x="130.38" y="177.28" width="1.04" height="0.2" transform="translate(-2.76 2.07) rotate(-0.9)"/><rect class="cls-19" x="130.03" y="177.57" width="1.75" height="0.2" transform="translate(-2.77 2.07) rotate(-0.9)"/><rect class="cls-19" x="130.34" y="177.88" width="1.15" height="0.2" transform="translate(-2.77 2.07) rotate(-0.9)"/><rect class="cls-19" x="130.04" y="178.19" width="1.75" height="0.2" transform="matrix(1, -0.02, 0.02, 1, -2.78, 2.07)"/><rect class="cls-19" x="133.38" y="176.9" width="1.68" height="0.2" transform="translate(-2.76 2.13) rotate(-0.9)"/><rect class="cls-19" x="134.02" y="177.22" width="1.04" height="0.2" transform="translate(-2.76 2.13) rotate(-0.9)"/><rect class="cls-19" x="133.31" y="177.52" width="1.75" height="0.2" transform="translate(-2.77 2.13) rotate(-0.9)"/><rect class="cls-19" x="133.92" y="177.82" width="1.15" height="0.2" transform="translate(-2.77 2.13) rotate(-0.9)"/><rect class="cls-19" x="133.32" y="178.13" width="1.75" height="0.2" transform="translate(-2.78 2.13) rotate(-0.9)"/><rect class="cls-19" x="136.6" y="176.85" width="1.68" height="0.2" transform="translate(-2.76 2.18) rotate(-0.9)"/><rect class="cls-19" x="136.61" y="177.18" width="1.68" height="0.2" transform="translate(-2.76 2.18) rotate(-0.9)"/><rect class="cls-19" x="136.61" y="177.47" width="1.68" height="0.2" transform="translate(-2.77 2.18) rotate(-0.9)"/><rect class="cls-19" x="136.62" y="177.78" width="1.68" height="0.2" transform="translate(-2.77 2.18) rotate(-0.9)"/><rect class="cls-19" x="136.62" y="178.08" width="1.68" height="0.2" transform="translate(-2.78 2.18) rotate(-0.9)"/><rect class="cls-19" x="140.16" y="176.79" width="1.68" height="0.2" transform="translate(-2.76 2.23) rotate(-0.9)"/><rect class="cls-19" x="140.77" y="177.12" width="1.08" height="0.2" transform="translate(-2.76 2.24) rotate(-0.9)"/><rect class="cls-19" x="140.77" y="177.41" width="1.08" height="0.2" transform="translate(-2.77 2.24) rotate(-0.9)"/><rect class="cls-19" x="140.78" y="177.72" width="1.08" height="0.2" transform="translate(-2.77 2.24) rotate(-0.9)"/><rect class="cls-19" x="140.18" y="178.03" width="1.68" height="0.2" transform="translate(-2.78 2.23) rotate(-0.9)"/><polygon class="cls-19" points="143.8 177.47 143.46 177.11 143.47 177.84 143.8 177.47"/><rect class="cls-19" x="143.46" y="176.74" width="1.68" height="0.2" transform="translate(-2.75 2.28) rotate(-0.9)"/><rect class="cls-19" x="144.06" y="177.06" width="1.08" height="0.2" transform="translate(-2.76 2.29) rotate(-0.9)"/><rect class="cls-19" x="144.07" y="177.36" width="1.08" height="0.2" transform="translate(-2.76 2.29) rotate(-0.9)"/><rect class="cls-19" x="144.07" y="177.66" width="1.08" height="0.2" transform="translate(-2.77 2.29) rotate(-0.9)"/><rect class="cls-19" x="143.48" y="177.98" width="1.68" height="0.2" transform="translate(-2.77 2.28) rotate(-0.9)"/><rect class="cls-22" x="198.42" y="192.86" width="0.11" height="0.11" transform="translate(-3 3.14) rotate(-0.9)"/><rect class="cls-22" x="198.41" y="192.66" width="0.11" height="0.11" transform="translate(-3 3.14) rotate(-0.9)"/><rect class="cls-22" x="198.41" y="192.46" width="0.11" height="0.11" transform="translate(-2.99 3.14) rotate(-0.9)"/><rect class="cls-22" x="198.41" y="192.25" width="0.11" height="0.11" transform="translate(-2.99 3.14) rotate(-0.9)"/><rect class="cls-22" x="198.4" y="192.05" width="0.11" height="0.11" transform="translate(-2.99 3.14) rotate(-0.9)"/><rect class="cls-22" x="198.22" y="192.86" width="0.11" height="0.11" transform="translate(-3 3.13) rotate(-0.9)"/><rect class="cls-22" x="198.22" y="192.66" width="0.11" height="0.11" transform="translate(-3 3.13) rotate(-0.9)"/><rect class="cls-22" x="198.22" y="192.46" width="0.11" height="0.11" transform="translate(-2.99 3.13) rotate(-0.9)"/><rect class="cls-22" x="198.21" y="192.26" width="0.11" height="0.11" transform="translate(-2.99 3.13) rotate(-0.9)"/><rect class="cls-22" x="198.03" y="192.87" width="0.11" height="0.11" transform="translate(-3 3.13) rotate(-0.9)"/><rect class="cls-22" x="198.03" y="192.66" width="0.11" height="0.11" transform="translate(-3 3.13) rotate(-0.9)"/><rect class="cls-22" x="198.02" y="192.46" width="0.11" height="0.11" transform="matrix(1, -0.02, 0.02, 1, -2.99, 3.13)"/><rect class="cls-22" x="197.83" y="192.87" width="0.11" height="0.11" transform="translate(-3 3.13) rotate(-0.9)"/><rect class="cls-22" x="197.83" y="192.67" width="0.11" height="0.11" transform="translate(-3 3.13) rotate(-0.9)"/><rect class="cls-22" x="197.64" y="192.87" width="0.11" height="0.11" transform="translate(-3 3.12) rotate(-0.9)"/><rect class="cls-23" x="112.02" y="196.23" width="8.4" height="3.71" rx="1.85" ry="1.85" transform="translate(-3.09 1.85) rotate(-0.9)"/><rect class="cls-3" x="113.32" y="197.58" width="5.71" height="1.02" transform="translate(-3.09 1.85) rotate(-0.9)"/></g></g></svg>