<svg height="464pt" viewBox="-8 0 464 464" width="464pt" xmlns="http://www.w3.org/2000/svg"><path d="m88 0h272v128h-272zm0 0" fill="#00ccb3"/><g fill="#ffdaaa"><path d="m368 288-8 8h-8v24c0 17.671875 14.328125 32 32 32s32-14.328125 32-32v-24h-32zm0 0"/><path d="m48 288-8 8h-8v24c0 17.671875 14.328125 32 32 32s32-14.328125 32-32v-24h-32zm0 0"/><path d="m224 352c17.671875 0 32-14.328125 32-32v-24h-32l-16-8-8 8h-8v24c0 17.671875 14.328125 32 32 32zm0 0"/><path d="m247.679688 368.640625c-2.539063-.417969-5.105469-.632813-7.679688-.640625h-32c-2.574219.007812-5.140625.222656-7.679688.640625l23.679688 55.359375zm0 0"/></g><path d="m160 416v40c0 4.417969 3.582031 8 8 8h56v-40l-23.679688-55.359375c-23.234374 3.765625-40.308593 23.824219-40.320312 47.359375zm0 0" fill="#3d9ae2"/><path d="m208 288 16 8h40v-8c0-17.671875-14.328125-32-32-32h-16c-17.671875 0-32 14.328125-32 32v8h16zm0 0" fill="#787680"/><path d="m407.679688 368.640625c-2.539063-.417969-5.105469-.632813-7.679688-.640625h-32c-2.574219.007812-5.140625.222656-7.679688.640625l23.679688 55.359375zm0 0" fill="#ffdaaa"/><path d="m360.320312 368.640625c-23.234374 3.765625-40.308593 23.824219-40.320312 47.359375v40c0 4.417969 3.582031 8 8 8h56v-40zm0 0" fill="#3d9ae2"/><path d="m392 256h-16c-17.671875 0-32 14.328125-32 32v8h16l8-8 16 8h40v-8c0-17.671875-14.328125-32-32-32zm0 0" fill="#787680"/><path d="m247.679688 368.640625-23.679688 55.359375v40h56c4.417969 0 8-3.582031 8-8v-40c-.011719-23.535156-17.085938-43.59375-40.320312-47.359375zm0 0" fill="#5aaae7"/><path d="m407.679688 368.640625-23.679688 55.359375v40h56c4.417969 0 8-3.582031 8-8v-40c-.011719-23.535156-17.085938-43.59375-40.320312-47.359375zm0 0" fill="#5aaae7"/><path d="m87.679688 368.640625-23.679688 55.359375v40h56c4.417969 0 8-3.582031 8-8v-40c-.011719-23.535156-17.085938-43.59375-40.320312-47.359375zm0 0" fill="#5aaae7"/><path d="m87.679688 368.640625c-2.539063-.417969-5.105469-.632813-7.679688-.640625h-32c-2.574219.007812-5.140625.222656-7.679688.640625l23.679688 55.359375zm0 0" fill="#ffdaaa"/><path d="m0 416v40c0 4.417969 3.582031 8 8 8h56v-40l-23.679688-55.359375c-23.234374 3.765625-40.3085932 23.824219-40.320312 47.359375zm0 0" fill="#3d9ae2"/><path d="m24 288v8h16l8-8 16 8h40v-8c0-17.671875-14.328125-32-32-32h-16c-17.671875 0-32 14.328125-32 32zm0 0" fill="#787680"/><path d="m360 128h-272v32h272zm0 0" fill="#00a691"/><path d="m256 64c0 17.671875-14.328125 32-32 32s-32-14.328125-32-32 14.328125-32 32-32 32 14.328125 32 32zm0 0" fill="#ffd422"/><path d="m360 48v-48h-48c0 26.507812 21.492188 48 48 48zm0 0" fill="#00b8a1"/><path d="m312 128h48v-48c-26.507812 0-48 21.492188-48 48zm0 0" fill="#00b8a1"/><path d="m136 0h-48v48c26.507812 0 48-21.492188 48-48zm0 0" fill="#00b8a1"/><path d="m88 80v48h48c0-26.507812-21.492188-48-48-48zm0 0" fill="#00b8a1"/><path d="m248 408h16v16h-16zm0 0" fill="#1e81ce"/><path d="m408 408h16v16h-16zm0 0" fill="#1e81ce"/><path d="m88 408h16v16h-16zm0 0" fill="#1e81ce"/><path d="m376 200h-144v-16h-16v16h-144c-8.835938 0-16 7.164062-16 16v16h16v-16h144v16h16v-16h144v16h16v-16c0-8.835938-7.164062-16-16-16zm0 0" fill="#ff6243"/></svg>