<svg height="464pt" viewBox="0 0 464 464" width="464pt" xmlns="http://www.w3.org/2000/svg"><path d="m0 208h464v256h-464zm0 0" fill="#35729e"/><path d="m384 464h-304v-439.679688l24-24 32 24 32-24 32 24 31.929688-24.320312 32.070312 24.320312 32-24 32 24 32-24 24 24zm0 0" fill="#fdd780"/><path d="m200 56h128v16h-128zm0 0" fill="#35729e"/><path d="m200 88h64v16h-64zm0 0" fill="#35729e"/><path d="m280 88h32v16h-32zm0 0" fill="#35729e"/><path d="m328 88h16v16h-16zm0 0" fill="#35729e"/><g fill="#80caca"><path d="m320 136h32v16h-32zm0 0"/><path d="m184 136h64v16h-64zm0 0"/><path d="m184 168h80v16h-80zm0 0"/><path d="m320 168h32v16h-32zm0 0"/><path d="m184 200h32v16h-32zm0 0"/><path d="m320 200h32v16h-32zm0 0"/><path d="m184 200h16v16h-16zm0 0"/><path d="m184 232h48v16h-48zm0 0"/><path d="m320 232h32v16h-32zm0 0"/></g><path d="m160 160h-56v-16h48v-16h-40c-4.417969 0-8-3.582031-8-8v-32c0-4.417969 3.582031-8 8-8h56v16h-48v16h40c4.417969 0 8 3.582031 8 8v32c0 4.417969-3.582031 8-8 8zm0 0" fill="#e27f45"/><path d="m128 64h16v24h-16zm0 0" fill="#e27f45"/><path d="m128 152h16v24h-16zm0 0" fill="#e27f45"/><path d="m0 464 232-160 232 160zm0 0" fill="#35729e"/><path d="m0 208 208.449219 112.238281-208.449219 143.761719zm0 0" fill="#d1f4ce"/><path d="m464 208-208.449219 112.238281 208.449219 143.761719zm0 0" fill="#d1f4ce"/></svg>