<svg height="464pt" viewBox="0 0 464 464" width="464pt" xmlns="http://www.w3.org/2000/svg"><path d="m432 0h-80v432h80c17.671875 0 32-14.328125 32-32v-368c0-17.671875-14.328125-32-32-32zm0 0" fill="#348fd9"/><path d="m352 0h-208c-17.671875 0-32 14.328125-32 32v368c0 17.671875 14.328125 32 32 32h256c17.671875 0 32-14.328125 32-32v-320zm0 0" fill="#60d1e0"/><path d="m184 432h216c17.671875 0 32-14.328125 32-32v-216zm0 0" fill="#5ac6d4"/><path d="m400 96h32v-16l-64-64v48c0 17.671875 14.328125 32 32 32zm0 0" fill="#5ac6d4"/><path d="m432 80h-48c-17.671875 0-32-14.328125-32-32v-48zm0 0" fill="#9fe4ed"/><g fill="#3fb7c7"><path d="m184 80h-16c-4.417969 0-8-3.582031-8-8s3.582031-8 8-8h32v-16h-16v-16h-16v16c-13.253906 0-24 10.746094-24 24s10.746094 24 24 24h16c4.417969 0 8 3.582031 8 8s-3.582031 8-8 8h-32v16h16v16h16v-16c13.253906 0 24-10.746094 24-24s-10.746094-24-24-24zm0 0"/><path d="m232 48h96v16h-96zm0 0"/><path d="m232 80h48v16h-48zm0 0"/><path d="m296 80h32v16h-32zm0 0"/><path d="m232 112h96v16h-96zm0 0"/><path d="m400 176v-16h-256v16h168v24h-168v16h168v24h-80v16h80v24h-32v16h32v24h-32v16h32v24h-48v16h136v-16h-72v-24h72v-16h-72v-24h72v-16h-72v-24h72v-16h-72v-24h72v-16h-72v-24zm0 0"/><path d="m264 392h136v16h-136zm0 0"/></g><path d="m0 432h256v32h-256zm0 0" fill="#ffb531"/><path d="m16 320h32v112h-32zm0 0" fill="#ffb531"/><path d="m80 320h32v112h-32zm0 0" fill="#ffb531"/><path d="m144 320h32v112h-32zm0 0" fill="#ffb531"/><path d="m208 320h32v112h-32zm0 0" fill="#ffb531"/><path d="m256 280-128-40-128 40v40h256zm0 0" fill="#ffb531"/><path d="m144 280c0 8.835938-7.164062 16-16 16s-16-7.164062-16-16 7.164062-16 16-16 16 7.164062 16 16zm0 0" fill="#b0564c"/><path d="m16 320h32v16h-32zm0 0" fill="#f7a116"/><path d="m80 320h32v16h-32zm0 0" fill="#f7a116"/><path d="m144 320h32v16h-32zm0 0" fill="#f7a116"/><path d="m208 320h32v16h-32zm0 0" fill="#f7a116"/></svg>