<svg height="464pt" viewBox="0 0 464 464" width="464pt" xmlns="http://www.w3.org/2000/svg"><path d="m104 464h360v-400l-64-64h-296zm0 0" fill="#e3f9de"/><path d="m408 112h-144v160h176v-160zm16 16v16h-16v-16zm-32 0v16h-16v-16zm-32 0v16h-16v-16zm-32 0v16h-16v-16zm-48 0h16v16h-16zm0 128v-96h16v96zm32 0v-96h16v96zm32 0v-96h16v96zm32 0v-96h16v96zm48 0h-16v-96h16zm0 0" fill="#78af69"/><path d="m400 64h64l-64-64zm0 0" fill="#a9d39f"/><path d="m16 112h208c8.835938 0 16 7.164062 16 16v320c0 8.835938-7.164062 16-16 16h-208c-8.835938 0-16-7.164062-16-16v-320c0-8.835938 7.164062-16 16-16zm0 0" fill="#f98c96"/><g fill="#fcf05a"><path d="m104 272h32v32h-32zm0 0"/><path d="m40 272h32v32h-32zm0 0"/><path d="m168 272h32v32h-32zm0 0"/><path d="m104 336h32v32h-32zm0 0"/><path d="m40 336h32v32h-32zm0 0"/><path d="m168 336h32v32h-32zm0 0"/><path d="m104 400h32v32h-32zm0 0"/><path d="m40 400h32v32h-32zm0 0"/><path d="m168 400h32v32h-32zm0 0"/></g><path d="m32 144h176v96h-176zm0 0" fill="#cfdfe8"/><path d="m154.34375 210.34375 24-24 11.3125 11.3125-24 24.003906zm0 0" fill="#f4f4e6"/><path d="m114.347656 210.339844 24-24 11.3125 11.3125-24 24.003906zm0 0" fill="#f4f4e6"/><path d="m384 424h80v16h-80zm0 0" fill="#a9d39f"/><path d="m352 424h16v16h-16zm0 0" fill="#a9d39f"/><path d="m136 32h16v16h-16zm0 0" fill="#5a6470"/><path d="m168 32h120v16h-120zm0 0" fill="#5a6470"/><path d="m136 64h128v16h-128zm0 0" fill="#5a6470"/><path d="m440 320v-16h-32v-16h-16v16h-24c-4.417969 0-8 3.582031-8 8v32c0 4.417969 3.582031 8 8 8h24v16h-32v16h32v16h16v-16h24c4.417969 0 8-3.582031 8-8v-32c0-4.417969-3.582031-8-8-8h-24v-16zm-16 32v16h-16v-16zm-32-16h-16v-16h16zm0 0" fill="#78af69"/><path d="m264 304h64v16h-64zm0 0" fill="#5a6470"/><path d="m264 336h16v16h-16zm0 0" fill="#5a6470"/><path d="m296 336h32v16h-32zm0 0" fill="#5a6470"/><path d="m264 368h80v16h-80zm0 0" fill="#5a6470"/></svg>