<?xml version="1.0" encoding="iso-8859-1"?>
<!-- Generator: Adobe Illustrator 19.0.0, SVG Export Plug-In . SVG Version: 6.00 Build 0)  -->
<svg version="1.1" id="Capa_1" xmlns="http://www.w3.org/2000/svg" xmlns:xlink="http://www.w3.org/1999/xlink" x="0px" y="0px"
	 viewBox="0 0 512 512" style="enable-background:new 0 0 512 512;" xml:space="preserve">
<circle style="fill:#4A7AFF;" cx="256" cy="256" r="256"/>
<path style="fill:#2864F0;" d="M303.698,507.545c103.69-19.542,185.3-101.593,204.168-205.52L381.438,175.597l-3.814,3.536
	L273.551,75.06l-60.592-14.999l22.754,22.754l-104.045,40.876L70.716,256.065l47.118,47.118l-12.992,5.507L303.698,507.545z"/>
<path style="fill:#FFEB50;" d="M252.79,372.54c-0.71-7.7,4.96-14.52,12.66-15.23l0,0c7.689-0.7,14.51,4.97,15.22,12.66l0,0
	c0.71,7.71-4.96,14.52-12.66,15.23l0,0c-0.44,0.04-0.87,0.06-1.3,0.06l0,0C259.56,385.26,253.46,379.8,252.79,372.54z
	 M220.59,380.85c-7.44-2.11-11.76-9.85-9.65-17.29l0,0c2.101-7.44,9.841-11.76,17.28-9.65l0,0c7.44,2.11,11.76,9.85,9.65,17.29l0,0
	c-1.74,6.16-7.36,10.18-13.46,10.18l0,0C223.149,381.38,221.859,381.21,220.59,380.85z M295.08,365.88
	c-3.46-6.92-0.65-15.33,6.27-18.78l0,0c6.92-3.45,15.32-0.64,18.78,6.27l0,0c3.45,6.92,0.64,15.33-6.271,18.78l0,0
	c-2.01,1.01-4.14,1.48-6.25,1.48l0,0C302.479,373.63,297.53,370.79,295.08,365.88z M177.91,359.61
	c-6.17-4.66-7.391-13.44-2.73-19.61l0,0c4.66-6.17,13.44-7.39,19.61-2.73l0,0c6.17,4.65,7.39,13.43,2.729,19.6l0,0
	c-2.75,3.65-6.939,5.57-11.18,5.57l0,0C183.399,362.44,180.439,361.52,177.91,359.61z M332.069,344.33
	c-5.71-5.21-6.119-14.07-0.909-19.78l0,0c5.21-5.71,14.06-6.12,19.779-0.91l0,0c5.71,5.21,6.12,14.06,0.91,19.78l0,0l0,0l0,0
	c-2.76,3.03-6.55,4.57-10.35,4.57l0,0C338.13,347.99,334.75,346.78,332.069,344.33z M145.79,324.44L145.79,324.44L145.79,324.44
	c-4.08-6.56-2.07-15.2,4.5-19.28l0,0c6.569-4.08,15.2-2.06,19.279,4.5l0,0c4.08,6.57,2.07,15.2-4.5,19.28l0,0
	c-2.3,1.43-4.85,2.12-7.38,2.12l0,0C153.02,331.06,148.439,328.71,145.79,324.44z M358.84,310.91c-7.21-2.79-10.79-10.9-7.99-18.11
	l0,0c2.79-7.21,10.9-10.79,18.11-8l0,0c7.21,2.8,10.79,10.91,8,18.12l0,0c-2.15,5.54-7.45,8.94-13.061,8.94l0,0
	C362.21,311.86,360.5,311.56,358.84,310.91z M128.53,280.01c-1.421-7.6,3.59-14.91,11.189-16.33l0,0
	c7.6-1.42,14.91,3.59,16.33,11.19l0,0c1.42,7.6-3.59,14.91-11.19,16.33l0,0c-0.869,0.16-1.729,0.24-2.59,0.24l0,0
	C135.66,291.44,129.78,286.74,128.53,280.01z M357.68,256.07c0-0.07,0-0.15,0-0.22l0,0c-0.02-7.73,6.24-14.02,13.97-14.03l0,0
	c7.73-0.02,14.011,6.24,14.03,13.97l0,0c0,0.05,0,0.11,0,0.17l0,0c0,0.03,0,0.07,0,0.1l0,0c0,7.74-6.27,14.01-14,14.01l0,0
	C363.95,270.07,357.689,263.8,357.68,256.07z M139.7,248.7c-7.601-1.4-12.631-8.7-11.221-16.31l0,0c1.4-7.6,8.7-12.63,16.301-11.22
	l0,0c7.609,1.4,12.63,8.7,11.229,16.31l0,0c-1.24,6.74-7.13,11.46-13.75,11.46l0,0C141.42,248.94,140.56,248.86,139.7,248.7z
	 M350.77,219.14c-2.81-7.21,0.75-15.32,7.96-18.13l0,0c7.2-2.81,15.32,0.75,18.13,7.95l0,0c2.811,7.21-0.75,15.32-7.96,18.13l0,0
	c-1.67,0.66-3.39,0.96-5.08,0.96l0,0C358.22,228.05,352.93,224.67,350.77,219.14z M150.189,207.19c-6.58-4.07-8.609-12.7-4.54-19.27
	l0,0c4.07-6.58,12.7-8.61,19.271-4.54l0,0c6.57,4.06,8.61,12.69,4.54,19.27l0,0c-2.65,4.28-7.23,6.63-11.92,6.63l0,0
	C155.03,209.28,152.479,208.61,150.189,207.19z M331.02,187.43c-5.22-5.7-4.83-14.56,0.87-19.78l0,0
	c5.71-5.22,14.561-4.83,19.79,0.87l0,0c5.22,5.7,4.82,14.56-0.88,19.78l0,0c-2.69,2.46-6.07,3.68-9.45,3.68l0,0
	C337.56,191.98,333.78,190.45,331.02,187.43z M175,172.3c-4.67-6.16-3.46-14.95,2.7-19.62l0,0c6.159-4.67,14.939-3.46,19.609,2.7
	l0,0c4.681,6.16,3.471,14.94-2.689,19.61l0,0c-2.53,1.92-5.5,2.85-8.45,2.85l0,0C181.939,177.84,177.76,175.93,175,172.3z
	 M301.17,164.94c-6.93-3.44-9.75-11.85-6.311-18.77l0,0c3.44-6.93,11.841-9.75,18.761-6.31l0,0l0,0l0,0
	c6.93,3.44,9.75,11.84,6.31,18.77l0,0c-2.439,4.92-7.399,7.77-12.55,7.77l0,0C305.29,166.4,303.17,165.93,301.17,164.94z
	 M210.71,148.66c-2.13-7.43,2.18-15.18,9.609-17.3l0,0c0,0,0,0,0.011,0l0,0c7.43-2.13,15.18,2.18,17.3,9.61l0,0
	c2.12,7.44-2.18,15.18-9.62,17.31h0.01c-1.29,0.37-2.58,0.54-3.859,0.54l0,0C218.069,158.82,212.46,154.81,210.71,148.66z
	 M265.229,154.8c-7.699-0.7-13.38-7.5-12.689-15.2l0,0c0.689-7.7,7.5-13.39,15.2-12.69l0,0c7.699,0.69,13.38,7.49,12.689,15.19l0,0
	c-0.66,7.28-6.76,12.75-13.93,12.75l0,0C266.08,154.85,265.66,154.83,265.229,154.8z"/>
<rect x="131.67" y="203.44" style="fill:#009954;" width="276.6" height="133.09"/>
<rect x="269.26" y="203.44" style="fill:#038C4B;" width="139" height="133.09"/>
<rect x="144.31" y="218" style="fill:#D4F7BC;" width="251.31" height="103.97"/>
<rect x="269.26" y="218" style="fill:#C8F5AA;" width="126.36" height="103.97"/>
<ellipse style="fill:#009954;" cx="270.71" cy="269.99" rx="33.21" ry="46.47"/>
<path style="fill:#038C4B;" d="M270.709,223.515c-0.485,0-0.967,0.022-1.448,0.051v92.839c0.48,0.029,0.962,0.051,1.448,0.051
	c18.342,0,33.211-20.806,33.211-46.471S289.052,223.515,270.709,223.515z"/>
<g>
	<circle style="fill:#009954;" cx="197.47" cy="269.99" r="17.473"/>
	<circle style="fill:#009954;" cx="344.2" cy="269.99" r="17.473"/>
</g>
<rect x="104.84" y="175.6" style="fill:#00CC71;" width="276.6" height="133.09"/>
<rect x="243.67" y="175.6" style="fill:#009954;" width="137.77" height="133.09"/>
<rect x="117.48" y="190.16" style="fill:#D4F7BC;" width="251.31" height="103.97"/>
<rect x="243.67" y="190.16" style="fill:#C8F5AA;" width="125.13" height="103.97"/>
<ellipse style="fill:#00CC71;" cx="243.88" cy="242.14" rx="33.21" ry="46.47"/>
<path style="fill:#009954;" d="M243.884,195.673c-0.073,0-0.145,0.007-0.217,0.008v92.927c0.073,0.001,0.144,0.008,0.217,0.008
	c18.342,0,33.211-20.806,33.211-46.471C277.095,216.479,262.226,195.673,243.884,195.673z"/>
<circle style="fill:#00CC71;" cx="170.65" cy="242.14" r="17.473"/>
<circle style="fill:#009954;" cx="317.37" cy="242.14" r="17.473"/>
<g>
	<path style="fill:#FFFFFF;" d="M225.434,41.939l-12.475,18.122l18.034,12.413C140.612,84.723,70.716,162.379,70.716,256.065h22
		c0-82.43,61.401-150.778,140.866-161.738l-11.626,16.892l18.121,12.474l33.475-48.632L225.434,41.939z"/>
	<path style="fill:#FFFFFF;" d="M441.284,256.065h-22c0,84.095-63.905,153.536-145.701,162.334l13.978-16.354l-16.725-14.294
		l-38.358,44.88l44.405,37.954l14.295-16.724l-15.821-13.522C368.46,430.63,441.284,351.694,441.284,256.065z"/>
</g>
<g>
</g>
<g>
</g>
<g>
</g>
<g>
</g>
<g>
</g>
<g>
</g>
<g>
</g>
<g>
</g>
<g>
</g>
<g>
</g>
<g>
</g>
<g>
</g>
<g>
</g>
<g>
</g>
<g>
</g>
</svg>
