<svg xmlns="http://www.w3.org/2000/svg" xmlns:xlink="http://www.w3.org/1999/xlink" viewBox="0 0 105.33 85.08"><defs><style>.a{fill:url(#a);}.b{opacity:0.5;}.c{fill:#0c5e91;}.d{fill:#f7f8f9;}.e{fill:none;}.f{fill:#1b75ba;}.g{fill:#f16328;}.h{fill:#e5e5e5;}.i{fill:#0b4868;}.j{fill:#4bc3d0;}.k{fill:#d6af94;}.l{fill:#f2c7a4;}.m{fill:#d0d3db;}.n{fill:#3f98d3;}.o{fill:#e2b899;}.p{fill:#fff;}.q{fill:#333237;}.r{fill:#b3b2b3;}.s{fill:#da4643;}</style><linearGradient id="a" x1="42.46" y1="66.15" x2="121.42" y2="-4.89" gradientTransform="matrix(1, 0, 0, -1, -30.09, 69.64)" gradientUnits="userSpaceOnUse"><stop offset="0" stop-color="#fff"/><stop offset="1" stop-color="#00ea6f"/></linearGradient></defs><path class="a" d="M112.9,78.25a14.74,14.74,0,0,1-13.67,9.23H34.87c-21,0-27.46-14.32-21.44-31.83a19.56,19.56,0,0,1,1.91-3.93L17.72,48c.29-.46.56-1,.82-1.47,3.75-7.27,6.46-13.81,7-21.45a14.52,14.52,0,0,1,9-11.86,18.29,18.29,0,0,1,6.56-1.49L95.79,9c21.83,0,24.56,50.72,17,69.28Z" transform="translate(-11.28 -2.39)"/><g class="b"><path class="c" d="M97.7,39.62a1,1,0,0,0-1.09-.84,1.09,1.09,0,0,1-1.09-1.08.86.86,0,1,0-1.67-.41.94.94,0,0,0,0,.41,1.09,1.09,0,0,1-1.09,1.08.87.87,0,1,0-.45,1.68.86.86,0,0,0,.45,0,1.09,1.09,0,0,1,1.09,1.08.86.86,0,0,0,1.67.41.94.94,0,0,0,0-.41,1.09,1.09,0,0,1,1.09-1.08A1,1,0,0,0,97.7,39.62Z" transform="translate(-11.28 -2.39)"/></g><path class="c" d="M43.3,16.35,44.17,18a.2.2,0,0,0,.27.09h0a.2.2,0,0,0,.08-.27l-.87-1.67a1,1,0,0,1-.17.1Z" transform="translate(-11.28 -2.39)"/><path class="c" d="M41.78,12.59l-.87-1.67a.2.2,0,0,0-.27-.09h0a.2.2,0,0,0-.09.25v0l.87,1.67.17-.1Z" transform="translate(-11.28 -2.39)"/><path class="c" d="M40.66,15.23,39,16.1a.2.2,0,0,0-.09.27h0a.2.2,0,0,0,.25.09h0l1.67-.87a1,1,0,0,1-.1-.17Z" transform="translate(-11.28 -2.39)"/><path class="c" d="M45.91,12.49l-1.67.87.1.17a1.42,1.42,0,0,1,.08.18l1.67-.87a.2.2,0,0,0-.18-.35Z" transform="translate(-11.28 -2.39)"/><path class="c" d="M41.74,16.34l-.56,1.79a.21.21,0,0,0,.13.25.19.19,0,0,0,.15,0,.17.17,0,0,0,.1-.12l.56-1.79A2.43,2.43,0,0,1,41.74,16.34Z" transform="translate(-11.28 -2.39)"/><path class="c" d="M43.33,12.6l.57-1.79a.21.21,0,0,0-.13-.25.18.18,0,0,0-.24.11v0L43,12.48Z" transform="translate(-11.28 -2.39)"/><path class="c" d="M44.41,15.27l1.79.56a.19.19,0,0,0,.15,0,.17.17,0,0,0,.1-.12.18.18,0,0,0-.11-.24h0l-1.79-.56A2.29,2.29,0,0,1,44.41,15.27Z" transform="translate(-11.28 -2.39)"/><path class="c" d="M40.67,13.68l-1.8-.57a.21.21,0,0,0-.25.13.2.2,0,0,0,.13.25h0l1.79.57A2.4,2.4,0,0,1,40.67,13.68Z" transform="translate(-11.28 -2.39)"/><path class="d" d="M86.75,62.85c-.25-4.33-.35-8.5-.36-12.23h0l3-11c-.72-.73-3-.69-3-.69H81.85A8,8,0,0,1,78.68,38h0l.46.28L81,46.05l-2.59.64,1.73,3.24-8.8,17.4-.75,2.15v.18l.52,1-.52,8.59c6.68,0,9.1.66,16.08-.52V62.42Z" transform="translate(-11.28 -2.39)"/><path class="d" d="M21.75,51.16,23.19,63.5a4,4,0,0,0,1.57,2.72c.69.52,1.69-.32,2.54-.32a4,4,0,0,0,.69-.06l2.82-.75a41.19,41.19,0,0,1-9.08-14.17C21.74,51,21.74,51.08,21.75,51.16Z" transform="translate(-11.28 -2.39)"/><path class="d" d="M70.64,79.28V69.8L69,66.4l-1.35-2L60.37,50.08l1.73-3.24-2.59-.65,1.89-7.75.46-.28h0a8,8,0,0,1-3.17.83H54.61A4.7,4.7,0,0,0,50,44.83l-5.9,11.35-11.43,2-2,.36-.77-6.64c-.42-1.2-.79-2.41-1.11-3.65A4,4,0,0,0,26,46.88a4.33,4.33,0,0,0-.72,0A4,4,0,0,0,21.78,51a41.19,41.19,0,0,0,9.08,14.17l3.61-1,2.32-.42,10.62-.2a4,4,0,0,0,2.83-2.07l4.36-8.39c0,.56-.05,1.1-.08,1.59v.47l-.34,11.3L54.1,79.08a43.35,43.35,0,0,0,6.24.33A90.77,90.77,0,0,0,70.64,79.28Z" transform="translate(-11.28 -2.39)"/><path class="d" d="M70.65,79.11l.47-8.42-.52-1v9.48Z" transform="translate(-11.28 -2.39)"/><polygon class="e" points="58.86 68.93 58.86 68.93 58.85 68.93 58.86 68.93"/><path class="f" d="M80,38.41c-1.85-2.53-5-3.82-9.4-3.82-5,0-8.48,1.33-10.42,3.93h0a10.07,10.07,0,0,0,2-.84c1.88-1.47,4.69-2.21,8.37-2.21,3.21,0,5.7.71,7.43,2.12.61.31,1.51.68,2,.88Z" transform="translate(-11.28 -2.39)"/><path class="e" d="M32.62,58.05a41.07,41.07,0,0,1-2.81-6.28l.77,6.64Z" transform="translate(-11.28 -2.39)"/><polygon class="g" points="58.85 68.93 58.86 68.93 58.86 68.93 58.85 68.93"/><path class="d" d="M29.63,50.24a4,4,0,0,0-.93-2.12c.32,1.24.69,2.45,1.11,3.65Z" transform="translate(-11.28 -2.39)"/><polygon class="e" points="58.85 68.93 58.86 68.93 58.86 68.93 58.85 68.93"/><polygon class="h" points="59.33 67.09 59.33 66.98 58.97 66.98 58.97 67.14 59.16 67.59 59.33 67.09"/><path class="h" d="M70.44,70l-.19-.44v.27h.36V69.5Z" transform="translate(-11.28 -2.39)"/><path class="e" d="M86.39,50.59Z" transform="translate(-11.28 -2.39)"/><polygon class="e" points="58.86 68.93 58.86 68.93 58.85 68.93 58.86 68.93"/><path class="i" d="M86.39,50.62Z" transform="translate(-11.28 -2.39)"/><polygon class="j" points="58.86 68.93 58.86 68.93 58.85 68.93 58.86 68.93"/><path class="k" d="M75.29,33.45h0V31.86H65.56v2.3h0a8,8,0,0,1-1.69,2.41C71.44,37.3,75.29,33.45,75.29,33.45Z" transform="translate(-11.28 -2.39)"/><path class="l" d="M75.3,34.94V33.45h0s-3.85,3.85-11.45,3.12a8.3,8.3,0,0,1-2,1.43,10.19,10.19,0,0,0,3.7,3.23v2.14h0v.15H74.8v-.15h.47V41a10.35,10.35,0,0,0,3.38-3A8,8,0,0,1,75.3,34.94Z" transform="translate(-11.28 -2.39)"/><path class="m" d="M77.12,39.62a10.18,10.18,0,0,1-13.47.4l6.78,30Z" transform="translate(-11.28 -2.39)"/><polygon class="n" points="60.89 62.68 62.42 58.93 60.6 41.89 59.16 41.47 59.16 41.45 59.13 41.46 59.1 41.45 59.1 41.47 57.66 41.89 55.71 60.06 58.03 64.45 59.14 67.56 59.5 66.91 60.41 64.35 60.89 62.68"/><polygon class="n" points="61.33 39.09 59.08 38.78 56.82 39.09 56.39 40.34 57.45 42.03 59.08 42.09 60.71 42.03 61.77 40.34 61.33 39.09"/><polygon class="f" points="51.75 34.89 58.97 38.78 53.85 43.91 50.04 35.91 51.75 34.89"/><polygon class="f" points="66.22 34.89 58.99 38.78 64.12 43.91 67.84 35.99 66.22 34.89"/><path class="l" d="M82.82,16.48C82.82,7.71,77.54,5,70.69,5h-.26V35.1C77.27,35,82.82,25.24,82.82,16.48Z" transform="translate(-11.28 -2.39)"/><path class="o" d="M70.12,5C63.52,5.17,58,8,58,16.48S63.4,34.85,70.12,35h.31V5Z" transform="translate(-11.28 -2.39)"/><path class="f" d="M83.64,15.37a17.94,17.94,0,0,0-1.89-6.76c1.07-4.77-3.4-6.1-8.1-6.21a37.9,37.9,0,0,0-9.49,1,7.81,7.81,0,0,1-2.25.33H60.76a6,6,0,0,0,.23.59l.22.47a1.71,1.71,0,0,1-.63-.15,25.81,25.81,0,0,1-2.49-1.19,6.22,6.22,0,0,0,.49,3.24A6.15,6.15,0,0,0,59.31,8a3.2,3.2,0,0,1-1.06-.28A8.67,8.67,0,0,0,58.7,9.3c-1.32,1-1.88,4.21-2.08,6.9a3.42,3.42,0,0,0,1.52,3.07l1.34.89,1-2.41h.06c.7-2.53,1.29-6.35,1.29-6.35a14.64,14.64,0,0,0,15.57.23l.34-.4a14.3,14.3,0,0,0,3.68,8.07c.1-.56,2.51-1.88,2.25-3.76h0Z" transform="translate(-11.28 -2.39)"/><path class="e" d="M70.23,69.58l1.13-2.25c-.84-.89-2.62,1-2.62,1v.44l1-.17Z" transform="translate(-11.28 -2.39)"/><polygon class="h" points="59.15 67.6 52.37 37.63 51.75 34.89 50.5 35.63 50.04 35.91 48.15 43.66 50.74 44.3 49.01 47.55 59.15 67.6"/><polygon class="h" points="69.95 43.66 68.06 35.91 68.04 35.89 66.31 34.96 65.84 37.23 59.15 67.6 69.09 47.55 67.36 44.3 69.95 43.66"/><rect class="n" x="19.44" y="24.02" width="31.87" height="40.37" transform="translate(-19.33 5.48) rotate(-11.41)"/><rect class="p" x="21.12" y="26.14" width="28.52" height="36.12" transform="translate(-19.33 5.48) rotate(-11.41)"/><rect class="f" x="22.23" y="37.77" width="2.13" height="2.12" transform="translate(-18.5 2.98) rotate(-11.41)"/><rect class="f" x="26.24" y="35.39" width="17.64" height="2.12" transform="translate(-17.8 5.26) rotate(-11.41)"/><rect class="f" x="23.02" y="41.72" width="2.12" height="2.12" transform="translate(-19.28 3.22) rotate(-11.42)"/><rect class="f" x="27.06" y="39.57" width="15.42" height="2.12" transform="translate(-18.63 5.29) rotate(-11.41)"/><rect class="f" x="23.83" y="45.68" width="2.13" height="2.12" transform="translate(-20.04 3.46) rotate(-11.42)"/><rect class="f" x="27.87" y="43.67" width="13.95" height="2.12" transform="translate(-19.44 5.39) rotate(-11.41)"/><rect class="f" x="24.73" y="49.58" width="2.13" height="2.12" transform="translate(-20.89 3.79) rotate(-11.53)"/><rect class="f" x="28.63" y="47.22" width="18.1" height="2.12" transform="translate(-20.09 6.02) rotate(-11.41)"/><rect class="f" x="25.43" y="53.59" width="2.13" height="2.12" transform="translate(-21.57 3.93) rotate(-11.41)"/><rect class="f" x="29.42" y="51.18" width="18.1" height="2.12" transform="translate(-20.85 6.25) rotate(-11.41)"/><path class="o" d="M16.87,45.94h.23l4.56-.65A1.66,1.66,0,0,0,21.2,42l-4.56.65a1.64,1.64,0,0,0,.23,3.27Z" transform="translate(-11.28 -2.39)"/><path class="o" d="M16.64,49.51,21.1,49a1.64,1.64,0,0,0-.41-3.26l-4.46.56a1.64,1.64,0,0,0,.2,3.27Z" transform="translate(-11.28 -2.39)"/><path class="o" d="M22.05,52.2a1.64,1.64,0,0,0-.6-3.23h0L17,49.81a1.64,1.64,0,0,0,.11,3.28,1.86,1.86,0,0,0,.48-.09Z" transform="translate(-11.28 -2.39)"/><path class="o" d="M24.21,53.51a1.47,1.47,0,0,0-1.69-1.21h0l-4,.66a1.48,1.48,0,0,0,.24,2.93H19l4-.67a1.47,1.47,0,0,0,1.21-1.69Z" transform="translate(-11.28 -2.39)"/><path class="d" d="M91.4,41.78c1.11,2.37.43,5-1.54,6s-4.47-.24-5.58-2.61-.43-5,1.53-6S90.28,39.41,91.4,41.78Z" transform="translate(-11.28 -2.39)"/><path class="q" d="M70.23,62.63a.55.55,0,1,1-.55-.55h0a.54.54,0,0,1,.54.54Z" transform="translate(-11.28 -2.39)"/><path class="q" d="M71.9,62.79a.55.55,0,1,1-.55-.55.55.55,0,0,1,.55.55Z" transform="translate(-11.28 -2.39)"/><path class="h" d="M86.53,63.52c-2.35-1.64-7.19-2.47-11.57-2.7l-2.13,4.35,13.85.65Z" transform="translate(-11.28 -2.39)"/><path class="f" d="M58.54,44.25A12.69,12.69,0,0,0,59,47.18l.85-.26S58.51,42.35,61,39.05a6.9,6.9,0,0,1,1.34-1.36,10.07,10.07,0,0,1-2,.84A9.17,9.17,0,0,0,58.54,44.25Z" transform="translate(-11.28 -2.39)"/><polygon points="68.95 47.5 69.37 47.64 68.95 47.5 68.95 47.5"/><path class="f" d="M80.06,38.48c-.5-.2-1.4-.57-2-.88a7.5,7.5,0,0,1,1.25,1.33,10.92,10.92,0,0,1,1.63,7,18.11,18.11,0,0,1-.7,3.93l.42.14.42.13A19.34,19.34,0,0,0,81.81,46,11.58,11.58,0,0,0,80.06,38.48Z" transform="translate(-11.28 -2.39)"/><path class="h" d="M83.42,50a2.69,2.69,0,1,1-2.7-2.68h0A2.7,2.7,0,0,1,83.42,50Z" transform="translate(-11.28 -2.39)"/><path class="f" d="M80.73,52.9A2.88,2.88,0,1,1,83.61,50a2.88,2.88,0,0,1-2.88,2.9Zm0-5.37A2.5,2.5,0,1,0,83.22,50v0A2.49,2.49,0,0,0,80.73,47.53Z" transform="translate(-11.28 -2.39)"/><circle class="r" cx="69.45" cy="47.63" r="1.94"/><path class="r" d="M59.53,64.55c-2.14-.11-2.39-1.49-2.4-1.55l-1.44-8.6.65-.11,1.44,8.6s.2.92,1.79,1Z" transform="translate(-11.28 -2.39)"/><path class="r" d="M64.49,63.3c2-.8,1.78-2.19,1.77-2.24l-1.43-8.61-.66.11,1.44,8.61s.11.92-1.37,1.52Z" transform="translate(-11.28 -2.39)"/><path class="n" d="M60.09,63.5c.63.12,1.08.55,1,1s-.66.63-1.29.51-1.07-.56-1-1S59.46,63.37,60.09,63.5Z" transform="translate(-11.28 -2.39)"/><path class="n" d="M63.61,62.91c-.55.32-.83.87-.62,1.23s.83.39,1.38.07.83-.88.63-1.24S64.17,62.58,63.61,62.91Z" transform="translate(-11.28 -2.39)"/><path class="n" d="M55.51,54.64a14.37,14.37,0,0,1-.07-3.82C55.77,48.11,57,46.5,59,46.17c4.71-.79,6,6.51,6,6.82l-1,.17c0-.07-1.16-6.63-4.89-6-1.54.26-2.45,1.53-2.74,3.79a13.46,13.46,0,0,0,.07,3.53Z" transform="translate(-11.28 -2.39)"/><path class="s" d="M31.75,29a3.15,3.15,0,1,0,3.68,2.52A3.15,3.15,0,0,0,31.75,29Zm2.75,3.34-1.43.27L33.34,34l-1.25.24-.27-1.44-1.44.27-.23-1.25,1.43-.27-.26-1.43,1.24-.24.27,1.44L34.27,31Z" transform="translate(-11.28 -2.39)"/><path class="f" d="M36.92,22.2l-5.7,1.33-5.76,1a6.59,6.59,0,0,1,.07,3.76L31.7,27l.45-.09,6.26-1.26A7.32,7.32,0,0,1,36.92,22.2Z" transform="translate(-11.28 -2.39)"/><path class="f" d="M38.48,25.53a.69.69,0,0,1-.53.81L26.1,28.73a.68.68,0,0,1-.8-.53h0a.68.68,0,0,1,.52-.81h0L37.68,25A.68.68,0,0,1,38.48,25.53Z" transform="translate(-11.28 -2.39)"/><path class="f" d="M37.15,22.22a.62.62,0,0,1-.48.73L26,25.11a.62.62,0,0,1-.73-.48h0a.62.62,0,0,1,.48-.73l10.7-2.16a.62.62,0,0,1,.73.48Z" transform="translate(-11.28 -2.39)"/><path class="f" d="M34.42,21.87a3.51,3.51,0,0,0-6.9,1.27.5.5,0,0,0,0,.12l.2,1,6.89-1.39ZM31,22.78a1.36,1.36,0,1,1,1.06-1.61h0A1.38,1.38,0,0,1,31,22.78Z" transform="translate(-11.28 -2.39)"/><path class="o" d="M64.64,54.7a4,4,0,0,0,1.83.92L66.07,63a4.42,4.42,0,0,0-2.41.29Z" transform="translate(-11.28 -2.39)"/><path class="p" d="M69.18,54.61l-2.85-.14a.72.72,0,0,0-.75.68L65.4,58.9l-.18,3.74a.71.71,0,0,0,.67.75h0l2.85.14a.71.71,0,0,0,.74-.68h0l.19-3.74.18-3.75A.72.72,0,0,0,69.18,54.61Z" transform="translate(-11.28 -2.39)"/><path class="o" d="M55.24,62a1.16,1.16,0,0,1,1.14-1.08H55.31a1.15,1.15,0,0,1,.11-2.3l-1.15-.06a1.16,1.16,0,0,1,.11-2.31L49.76,56a1.15,1.15,0,1,1,.11-2.3h.74l6.18.3h.83a.35.35,0,0,0,.33-.39.37.37,0,0,0-.12-.24c-1.07-.9-2.16-.9-2.1-2.12A.83.83,0,0,1,57,50.58l7.6,4a.57.57,0,0,1,.27.52c0,1-.22,4.57-.33,6.74a1.72,1.72,0,0,1-1.8,1.64h0l-6.34-.31A1.16,1.16,0,0,1,55.24,62Z" transform="translate(-11.28 -2.39)"/><path class="d" d="M93.62,65.37h-.21L66.56,64.25l.42-10,20.41,1.61L83,45.46l8.58-3.27,6.49,15.89a5,5,0,0,1-4.45,7.29Z" transform="translate(-11.28 -2.39)"/><polygon class="d" points="75.39 76.07 42.88 76.07 42.84 85.08 75.48 85.08 75.39 76.07"/></svg>