<svg xmlns="http://www.w3.org/2000/svg" viewBox="0 0 125.89 79.77"><defs><style>.cls-1{fill:#c1e1f6;}.cls-2{opacity:0.5;}.cls-3{fill:#0c5e91;}.cls-4{fill:#f7f8f9;}.cls-5{fill:none;}.cls-6{fill:#1b75ba;}.cls-7{fill:#f16328;}.cls-8{fill:#e5e5e5;}.cls-9{fill:#0b4868;}.cls-10{fill:#4bc3d0;}.cls-11{fill:#d6af94;}.cls-12{fill:#f2c7a4;}.cls-13{fill:#d0d3db;}.cls-14{fill:#3f98d3;}.cls-15{fill:#e2b899;}.cls-16{fill:#fff;}.cls-17{fill:#333237;}.cls-18{fill:#b3b2b3;}.cls-19{fill:#da4643;}</style></defs><title>Asset 20</title><g id="Layer_2" data-name="Layer 2"><g id="Layer_1-2" data-name="Layer 1"><path class="cls-1" d="M111.22,70.39a15,15,0,0,1-13.9,9.38H32C9.81,79.77-5.63,59.83,2,41L14.67,9.39A15,15,0,0,1,28.57,0H93.9c22.18,0,37.62,19.94,30,38.79Z"/><g class="cls-2"><path class="cls-3" d="M97.7,39.62a1,1,0,0,0-1.09-.84,1.09,1.09,0,0,1-1.09-1.08.86.86,0,1,0-1.67,0,1.09,1.09,0,0,1-1.09,1.08.87.87,0,1,0,0,1.68,1.09,1.09,0,0,1,1.09,1.08.86.86,0,1,0,1.67,0,1.09,1.09,0,0,1,1.09-1.08A1,1,0,0,0,97.7,39.62Z"/></g><path class="cls-3" d="M43.3,16.35,44.17,18a.2.2,0,0,0,.27.09.2.2,0,0,0,.08-.27l-.87-1.67a1,1,0,0,1-.17.1Z"/><path class="cls-3" d="M41.78,12.59l-.87-1.67a.2.2,0,0,0-.27-.09.19.19,0,0,0-.08.27l.87,1.67.17-.1Z"/><path class="cls-3" d="M40.66,15.23,39,16.1a.2.2,0,0,0-.09.27.19.19,0,0,0,.27.08l1.67-.87a1,1,0,0,1-.1-.17A1.42,1.42,0,0,1,40.66,15.23Z"/><path class="cls-3" d="M45.91,12.49l-1.67.87.1.17a1.42,1.42,0,0,1,.08.18l1.67-.87a.2.2,0,0,0-.18-.35Z"/><path class="cls-3" d="M41.74,16.34l-.56,1.79a.2.2,0,0,0,.13.25.19.19,0,0,0,.15,0,.18.18,0,0,0,.1-.12l.56-1.79A2.78,2.78,0,0,1,41.74,16.34Z"/><path class="cls-3" d="M43.33,12.6l.57-1.79a.2.2,0,0,0-.13-.25.19.19,0,0,0-.25.13L43,12.48A2.4,2.4,0,0,1,43.33,12.6Z"/><path class="cls-3" d="M44.41,15.27l1.79.56a.19.19,0,0,0,.15,0,.19.19,0,0,0,.1-.12.19.19,0,0,0-.13-.25l-1.79-.56A2.78,2.78,0,0,1,44.41,15.27Z"/><path class="cls-3" d="M40.67,13.68l-1.8-.57a.21.21,0,0,0-.25.13.2.2,0,0,0,.14.25l1.79.57A2.4,2.4,0,0,1,40.67,13.68Z"/><path class="cls-4" d="M86.75,62.85c-.25-4.33-.35-8.5-.36-12.23h0v0h0l3-11c-.72-.73-3-.69-3-.69H81.85A8,8,0,0,1,78.68,38v0l.46.28L81,46.05l-2.59.64,1.73,3.24-8.8,17.4-.75,2.15v.18l.52,1-.52,8.59c6.68,0,9.1.66,16.08-.52l0-16.31Z"/><path class="cls-4" d="M21.75,51.16,23.19,63.5a4,4,0,0,0,1.57,2.72c.69.52,1.69-.32,2.54-.32a4,4,0,0,0,.69-.06l2.82-.75a41.08,41.08,0,0,1-9.08-14.17C21.74,51,21.74,51.08,21.75,51.16Z"/><path class="cls-4" d="M70.64,79.28l0-9.48L69,66.4l-1.35-2L60.37,50.08l1.73-3.24-2.59-.65,1.89-7.75.46-.28v0a8,8,0,0,1-3.17.83h-4v0h-.08a4.73,4.73,0,0,0-4.72,4.72,4.58,4.58,0,0,0,.14,1.12L44.13,56.18l-11.43,2-2,.36-.77-6.64c-.42-1.2-.79-2.41-1.11-3.65A4,4,0,0,0,26,46.88a4.33,4.33,0,0,0-.72,0,4,4,0,0,0-3.5,4.16,41.08,41.08,0,0,0,9.08,14.17l3.61-1,2.32-.42,10.62-.2a4,4,0,0,0,2.83-2.07l4.36-8.39c0,.56-.05,1.1-.08,1.59v.47l-.34,11.3-.08,12.59a44.35,44.35,0,0,0,6.24.33C63.91,79.47,67.07,79.61,70.64,79.28Z"/><path class="cls-4" d="M70.65,79.11l.47-8.42-.52-1,0,9.48Z"/><polygon class="cls-5" points="70.14 71.32 70.14 71.32 70.13 71.32 70.14 71.32"/><path class="cls-6" d="M80,38.41c-1.85-2.53-5-3.82-9.4-3.82-5,0-8.48,1.33-10.42,3.93h0a10,10,0,0,0,2-.84c1.88-1.47,4.69-2.21,8.37-2.21,3.21,0,5.7.71,7.43,2.12.61.31,1.51.68,2,.88Z"/><path class="cls-5" d="M32.62,58.05a42.17,42.17,0,0,1-2.81-6.28l.77,6.64Z"/><polygon class="cls-7" points="70.13 71.32 70.14 71.32 70.14 71.32 70.13 71.32"/><path class="cls-4" d="M29.63,50.24a4,4,0,0,0-.93-2.12c.32,1.24.69,2.45,1.11,3.65Z"/><polygon class="cls-5" points="70.13 71.32 70.14 71.32 70.14 71.32 70.13 71.32"/><polygon class="cls-8" points="70.61 69.48 70.61 69.37 70.25 69.37 70.25 69.53 70.44 69.98 70.61 69.48"/><path class="cls-8" d="M70.44,70l-.19-.44v.27h.36v-.33Z"/><path class="cls-5" d="M86.39,50.59v0h0Z"/><polygon class="cls-5" points="70.14 71.32 70.14 71.32 70.13 71.32 70.14 71.32"/><path class="cls-9" d="M86.39,50.62v0Z"/><polygon class="cls-10" points="70.14 71.32 70.14 71.32 70.13 71.32 70.14 71.32"/><path class="cls-11" d="M75.29,33.45h0V31.86H65.56v2.3h0a7.83,7.83,0,0,1-1.69,2.41C71.44,37.3,75.29,33.45,75.29,33.45Z"/><path class="cls-12" d="M75.3,34.94V33.45h0s-3.85,3.85-11.45,3.12a8.27,8.27,0,0,1-2,1.43,10.29,10.29,0,0,0,3.7,3.23v2.14h0v.15h9.25v-.15h.47V41A10.34,10.34,0,0,0,78.65,38,8,8,0,0,1,75.3,34.94Z"/><path class="cls-13" d="M77.12,39.62a10.19,10.19,0,0,1-13.47.4l6.78,30Z"/><polygon class="cls-14" points="72.17 65.07 73.7 61.32 71.88 44.28 70.44 43.86 70.44 43.84 70.41 43.85 70.38 43.84 70.38 43.86 68.94 44.28 66.99 62.45 69.31 66.84 70.42 69.95 70.78 69.3 71.69 66.74 72.17 65.07"/><polygon class="cls-14" points="72.61 41.48 70.36 41.17 68.1 41.48 67.67 42.73 68.73 44.42 70.36 44.48 71.99 44.42 73.05 42.73 72.61 41.48"/><polygon class="cls-6" points="63.03 37.28 70.25 41.17 65.13 46.3 61.32 38.3 63.03 37.28"/><polygon class="cls-6" points="77.5 37.28 70.27 41.17 75.4 46.3 79.12 38.38 77.5 37.28"/><path class="cls-12" d="M82.82,16.48C82.82,7.71,77.54,5,70.69,5h-.26v30.1C77.27,35,82.82,25.24,82.82,16.48Z"/><path class="cls-15" d="M70.12,5C63.52,5.17,58,8,58,16.48S63.4,34.85,70.12,35h.31V5Z"/><path class="cls-6" d="M83.64,15.37a18,18,0,0,0-1.89-6.76c1.07-4.77-3.4-6.1-8.1-6.21a37.79,37.79,0,0,0-9.49,1,8,8,0,0,1-2.25.33c-.65,0-1.15,0-1.15,0a6,6,0,0,0,.23.59l.22.47a1.82,1.82,0,0,1-.63-.15,25,25,0,0,1-2.49-1.19,6.21,6.21,0,0,0,.49,3.24,6.13,6.13,0,0,0,.73,1.33,3.26,3.26,0,0,1-1.06-.28,9.08,9.08,0,0,0,.45,1.56c-1.32,1-1.88,4.21-2.08,6.9a3.42,3.42,0,0,0,1.52,3.07l1.34.89,1-2.41h.06c.7-2.53,1.29-6.35,1.29-6.35a14.63,14.63,0,0,0,15.57.23l.34-.4a14.28,14.28,0,0,0,3.68,8.07c.1-.56,2.51-1.88,2.25-3.76h0A1.52,1.52,0,0,0,83.64,15.37Z"/><path class="cls-5" d="M70.23,69.58l1.13-2.25c-.84-.89-2.62,1-2.62,1v.44l1-.17Z"/><polygon class="cls-8" points="70.43 69.99 63.65 40.02 63.03 37.28 61.78 38.02 61.32 38.3 59.43 46.05 62.02 46.69 60.29 49.94 70.43 69.99"/><polygon class="cls-8" points="81.23 46.05 79.34 38.3 79.32 38.28 77.59 37.35 77.12 39.62 70.43 69.99 80.37 49.94 78.64 46.69 81.23 46.05"/><rect class="cls-14" x="19.45" y="24.01" width="31.87" height="40.37" transform="translate(-8.05 7.88) rotate(-11.41)"/><rect class="cls-16" x="21.13" y="26.13" width="28.52" height="36.12" transform="translate(-8.05 7.88) rotate(-11.41)"/><rect class="cls-6" x="22.23" y="37.77" width="2.13" height="2.12" transform="translate(-7.22 5.38) rotate(-11.41)"/><rect class="cls-6" x="26.24" y="35.39" width="17.64" height="2.12" transform="translate(-6.52 7.66) rotate(-11.41)"/><rect class="cls-6" x="23.03" y="41.72" width="2.12" height="2.12" transform="translate(-8 5.62) rotate(-11.42)"/><rect class="cls-6" x="27.06" y="39.57" width="15.42" height="2.12" transform="translate(-7.35 7.68) rotate(-11.41)"/><rect class="cls-6" x="23.83" y="45.68" width="2.13" height="2.12" transform="translate(-8.76 5.85) rotate(-11.42)"/><rect class="cls-6" x="27.87" y="43.67" width="13.95" height="2.12" transform="translate(-8.16 7.78) rotate(-11.41)"/><rect class="cls-6" x="24.63" y="49.64" width="2.13" height="2.12" transform="matrix(0.98, -0.2, 0.2, 0.98, -9.53, 6.09)"/><rect class="cls-6" x="28.63" y="47.22" width="18.1" height="2.12" transform="translate(-8.81 8.41) rotate(-11.41)"/><rect class="cls-6" x="25.43" y="53.59" width="2.13" height="2.12" transform="translate(-10.29 6.32) rotate(-11.41)"/><rect class="cls-6" x="29.43" y="51.17" width="18.1" height="2.12" transform="translate(-9.58 8.65) rotate(-11.41)"/><path class="cls-15" d="M16.87,45.94h.23l4.56-.65A1.65,1.65,0,0,0,21.2,42l-4.56.65a1.64,1.64,0,0,0,.23,3.27Z"/><path class="cls-15" d="M16.64,49.51,21.1,49a1.64,1.64,0,1,0-.41-3.26l-4.46.56a1.64,1.64,0,0,0,.2,3.27Z"/><path class="cls-15" d="M22.05,52.2a1.64,1.64,0,1,0-.6-3.23L17,49.81A1.64,1.64,0,1,0,17.59,53Z"/><path class="cls-15" d="M24.21,53.51a1.47,1.47,0,0,0-1.7-1.21l-4,.66a1.48,1.48,0,0,0,.24,2.93l.25,0,4-.67A1.47,1.47,0,0,0,24.21,53.51Z"/><path class="cls-4" d="M91.4,41.78c1.11,2.37.43,5-1.54,6s-4.47-.24-5.58-2.61-.43-5,1.53-6S90.28,39.41,91.4,41.78Z"/><path class="cls-17" d="M70.23,62.63a.55.55,0,1,1-.54-.55A.54.54,0,0,1,70.23,62.63Z"/><path class="cls-17" d="M71.9,62.79a.55.55,0,1,1-.55-.55A.55.55,0,0,1,71.9,62.79Z"/><path class="cls-8" d="M86.53,63.52c-2.35-1.64-7.19-2.47-11.57-2.7l-2.13,4.35,13.85.65Z"/><path class="cls-6" d="M58.54,44.25A12.54,12.54,0,0,0,59,47.18l.85-.26s-1.34-4.57,1.11-7.87a6.9,6.9,0,0,1,1.34-1.36,10,10,0,0,1-2,.84A9.2,9.2,0,0,0,58.54,44.25Z"/><polygon points="80.23 49.89 80.65 50.03 80.23 49.89 80.23 49.89"/><path class="cls-6" d="M80.06,38.48c-.5-.2-1.4-.57-2-.88a7.17,7.17,0,0,1,1.25,1.33,10.89,10.89,0,0,1,1.63,7,18,18,0,0,1-.7,3.93l.42.14.42.13A19.08,19.08,0,0,0,81.81,46,11.59,11.59,0,0,0,80.06,38.48Z"/><path class="cls-8" d="M83.42,50a2.69,2.69,0,1,1-2.69-2.68A2.69,2.69,0,0,1,83.42,50Z"/><path class="cls-6" d="M80.73,52.9A2.88,2.88,0,1,1,83.61,50,2.88,2.88,0,0,1,80.73,52.9Zm0-5.37A2.5,2.5,0,1,0,83.22,50,2.49,2.49,0,0,0,80.73,47.53Z"/><circle class="cls-18" cx="80.73" cy="50.02" r="1.94"/><path class="cls-18" d="M59.53,64.55c-2.14-.11-2.39-1.49-2.4-1.55l-1.44-8.6.65-.11,1.44,8.6s.2.92,1.79,1Z"/><path class="cls-18" d="M64.49,63.3c2-.8,1.78-2.19,1.77-2.24l-1.43-8.61-.66.11,1.44,8.61s.11.92-1.37,1.52Z"/><path class="cls-14" d="M60.09,63.5c.63.12,1.08.55,1,1s-.66.63-1.29.51-1.07-.56-1-1S59.46,63.37,60.09,63.5Z"/><path class="cls-14" d="M63.61,62.91c-.55.32-.83.87-.62,1.23s.83.39,1.38.07.83-.88.63-1.24S64.17,62.58,63.61,62.91Z"/><path class="cls-14" d="M55.51,54.64a14.46,14.46,0,0,1-.07-3.82C55.77,48.11,57,46.5,59,46.17c4.71-.79,6,6.51,6,6.82l-1,.17c0-.07-1.16-6.63-4.89-6-1.54.26-2.45,1.53-2.74,3.79a13.5,13.5,0,0,0,.07,3.53Z"/><path class="cls-19" d="M31.75,29a3.15,3.15,0,1,0,3.68,2.52A3.16,3.16,0,0,0,31.75,29Zm2.75,3.34-1.43.27L33.34,34l-1.25.24-.27-1.44-1.44.27-.23-1.25,1.43-.27-.26-1.43,1.24-.24.27,1.44L34.27,31Z"/><path class="cls-6" d="M36.92,22.2l-5.7,1.33-5.76,1a6.57,6.57,0,0,1,.07,3.76L31.7,27l.45-.09,6.26-1.26A7.26,7.26,0,0,1,36.92,22.2Z"/><path class="cls-6" d="M38.48,25.53a.69.69,0,0,1-.53.81L26.1,28.73a.68.68,0,0,1-.8-.53h0a.68.68,0,0,1,.53-.81L37.68,25a.68.68,0,0,1,.8.53Z"/><path class="cls-6" d="M37.15,22.22a.62.62,0,0,1-.48.73L26,25.11a.62.62,0,0,1-.73-.48h0a.62.62,0,0,1,.48-.73l10.7-2.16a.62.62,0,0,1,.73.48Z"/><path class="cls-6" d="M34.42,21.87a3.51,3.51,0,1,0-6.88,1.39l.2,1,6.89-1.39ZM31,22.78a1.36,1.36,0,1,1,1.06-1.6A1.37,1.37,0,0,1,31,22.78Z"/><path class="cls-15" d="M64.64,54.7a4,4,0,0,0,1.83.92L66.07,63a4.45,4.45,0,0,0-2.41.29Z"/><path class="cls-16" d="M69.18,54.61l-2.85-.14a.72.72,0,0,0-.75.68L65.4,58.9l-.18,3.74a.71.71,0,0,0,.68.75l2.85.14a.71.71,0,0,0,.74-.68l.19-3.74.18-3.75A.72.72,0,0,0,69.18,54.61Z"/><path class="cls-15" d="M55.24,62a1.16,1.16,0,0,1,1.14-1.08v0l-1.07,0a1.15,1.15,0,1,1,.11-2.3l-1.15-.06a1.16,1.16,0,0,1,.11-2.31L49.76,56a1.15,1.15,0,1,1,.11-2.3l.74,0,6.18.3.83,0a.36.36,0,0,0,.21-.63c-1.07-.9-2.16-.9-2.1-2.12a.79.79,0,0,1,.43-.67.8.8,0,0,1,.79,0l7.6,4a.57.57,0,0,1,.27.52c0,1-.22,4.57-.33,6.74a1.72,1.72,0,0,1-1.81,1.64l-6.34-.31A1.16,1.16,0,0,1,55.24,62Z"/><path class="cls-4" d="M93.62,65.37h-.21L66.56,64.25l.42-10,20.41,1.61L83,45.46l8.58-3.27,6.49,15.89a5,5,0,0,1-4.45,7.29Z"/><polygon class="cls-4" points="86.67 74.74 54.16 74.74 54.12 79.77 86.76 79.77 86.67 74.74"/></g></g></svg>