<svg xmlns="http://www.w3.org/2000/svg" viewBox="0 0 142.48 141.87"><defs><style>.cls-1{opacity:0.1;}.cls-2{fill:#f79a23;}.cls-3{fill:#dd7f19;}.cls-4,.cls-6{fill:#fff;}.cls-4{stroke:#474748;stroke-linecap:round;stroke-linejoin:round;stroke-width:0.5px;}.cls-5{fill:#474748;}.cls-7{font-size:6.6px;fill:#f2f2f2;font-family:Lato-Black, Lato;}.cls-8{letter-spacing:-0.1em;}.cls-9{letter-spacing:-0.01em;}</style></defs><title>Asset 12</title><g id="Layer_2" data-name="Layer 2"><g id="Layer_1-2" data-name="Layer 1"><rect class="cls-1" x="4.23" y="3.62" width="138.25" height="138.25" rx="5.97" ry="5.97"/><rect class="cls-2" width="138.25" height="138.25" rx="5.97" ry="5.97"/><path class="cls-3" d="M138.25,79.32l-19.4-33.26-2.22,8.52-96.9-8.12.53,6.73,1.53,30.27-4.15,8.71,26.47,46.08h88.24a5.91,5.91,0,0,0,5.9-5.9Z"/><rect class="cls-4" x="20.61" y="54.58" width="98.99" height="37.59"/><polygon class="cls-4" points="89.99 92.17 50.18 92.17 50.18 50.71 70.11 47.82 89.99 50.71 89.99 92.17"/><rect class="cls-5" x="62.4" y="91.05" width="14.96" height="2.71"/><rect class="cls-4" x="64" y="76.02" width="11.76" height="15.03"/><rect class="cls-5" x="69.33" y="76.02" width="1.1" height="15.03"/><rect class="cls-5" x="24.34" y="74.17" width="9.18" height="10.3"/><rect class="cls-6" x="25.09" y="75.02" width="3.51" height="3.96"/><rect class="cls-6" x="29.27" y="75.02" width="3.5" height="3.96"/><rect class="cls-6" x="25.09" y="79.67" width="3.51" height="3.96"/><rect class="cls-6" x="29.27" y="79.67" width="3.5" height="3.96"/><rect class="cls-5" x="36.83" y="74.17" width="9.18" height="10.3"/><rect class="cls-6" x="37.57" y="75.02" width="3.51" height="3.96"/><rect class="cls-6" x="41.76" y="75.02" width="3.5" height="3.96"/><rect class="cls-6" x="37.57" y="79.67" width="3.51" height="3.96"/><rect class="cls-6" x="41.76" y="79.67" width="3.5" height="3.96"/><rect class="cls-5" x="24.34" y="58.9" width="9.18" height="10.3"/><rect class="cls-6" x="25.09" y="59.74" width="3.51" height="3.96"/><rect class="cls-6" x="29.27" y="59.74" width="3.5" height="3.96"/><rect class="cls-6" x="25.09" y="64.4" width="3.51" height="3.96"/><rect class="cls-6" x="29.27" y="64.4" width="3.5" height="3.96"/><rect class="cls-5" x="36.83" y="58.9" width="9.18" height="10.3"/><rect class="cls-6" x="37.57" y="59.74" width="3.51" height="3.96"/><rect class="cls-6" x="41.76" y="59.74" width="3.5" height="3.96"/><rect class="cls-6" x="37.57" y="64.4" width="3.51" height="3.96"/><rect class="cls-6" x="41.76" y="64.4" width="3.5" height="3.96"/><rect class="cls-5" x="93.61" y="74.17" width="9.18" height="10.3"/><rect class="cls-6" x="94.36" y="75.02" width="3.5" height="3.96"/><rect class="cls-6" x="98.55" y="75.02" width="3.5" height="3.96"/><rect class="cls-6" x="94.36" y="79.67" width="3.5" height="3.96"/><rect class="cls-6" x="98.55" y="79.67" width="3.5" height="3.96"/><rect class="cls-5" x="106.1" y="74.17" width="9.18" height="10.3"/><rect class="cls-6" x="106.85" y="75.02" width="3.5" height="3.96"/><rect class="cls-6" x="111.03" y="75.02" width="3.5" height="3.96"/><rect class="cls-6" x="106.85" y="79.67" width="3.5" height="3.96"/><rect class="cls-6" x="111.03" y="79.67" width="3.5" height="3.96"/><rect class="cls-5" x="93.61" y="58.9" width="9.18" height="10.3"/><rect class="cls-6" x="94.36" y="59.74" width="3.5" height="3.96"/><rect class="cls-6" x="98.55" y="59.74" width="3.5" height="3.96"/><rect class="cls-6" x="94.36" y="64.4" width="3.5" height="3.96"/><rect class="cls-6" x="98.55" y="64.4" width="3.5" height="3.96"/><rect class="cls-5" x="53.99" y="60.69" width="9.18" height="10.3"/><rect class="cls-6" x="54.74" y="61.53" width="3.5" height="3.96"/><rect class="cls-6" x="58.93" y="61.53" width="3.5" height="3.96"/><rect class="cls-6" x="54.74" y="66.19" width="3.5" height="3.96"/><rect class="cls-6" x="58.93" y="66.19" width="3.5" height="3.96"/><rect class="cls-5" x="54.92" y="76.31" width="5.33" height="10.3"/><rect class="cls-6" x="55.83" y="77.16" width="3.51" height="3.96"/><rect class="cls-6" x="55.83" y="81.82" width="3.51" height="3.96"/><rect class="cls-5" x="80.17" y="76.31" width="5.33" height="10.3"/><rect class="cls-6" x="81.08" y="77.16" width="3.51" height="3.96"/><rect class="cls-6" x="81.08" y="81.82" width="3.51" height="3.96"/><rect class="cls-5" x="65.95" y="60.69" width="9.18" height="10.3"/><rect class="cls-6" x="66.69" y="61.53" width="3.5" height="3.96"/><rect class="cls-6" x="70.88" y="61.53" width="3.5" height="3.96"/><rect class="cls-6" x="66.69" y="66.19" width="3.5" height="3.96"/><rect class="cls-6" x="70.88" y="66.19" width="3.5" height="3.96"/><rect class="cls-5" x="77.9" y="60.69" width="9.18" height="10.3"/><rect class="cls-6" x="78.64" y="61.53" width="3.5" height="3.96"/><rect class="cls-6" x="82.83" y="61.53" width="3.5" height="3.96"/><rect class="cls-6" x="78.64" y="66.19" width="3.5" height="3.96"/><rect class="cls-6" x="82.83" y="66.19" width="3.5" height="3.96"/><rect class="cls-5" x="106.1" y="58.9" width="9.18" height="10.3"/><rect class="cls-6" x="106.85" y="59.74" width="3.5" height="3.96"/><rect class="cls-6" x="111.03" y="59.74" width="3.5" height="3.96"/><rect class="cls-6" x="106.85" y="64.4" width="3.5" height="3.96"/><rect class="cls-6" x="111.03" y="64.4" width="3.5" height="3.96"/><polygon class="cls-5" points="122.88 54.58 16.9 54.58 17.95 46.06 121.82 46.06 122.88 54.58"/><text class="cls-7" transform="translate(47.01 52.75)">PO<tspan class="cls-8" x="9.57" y="0">L</tspan><tspan x="12.4" y="0">YT</tspan><tspan class="cls-9" x="20.84" y="0">E</tspan><tspan x="24.52" y="0">CHNIC</tspan></text></g></g></svg>