<?xml version="1.0" encoding="utf-8"?>
<!-- Generator: Adobe Illustrator 25.0.1, SVG Export Plug-In . SVG Version: 6.00 Build 0)  -->
<svg version="1.1" id="Layer_1" xmlns="http://www.w3.org/2000/svg" xmlns:xlink="http://www.w3.org/1999/xlink" x="0px" y="0px"
	 viewBox="0 0 53.3 58.2" style="enable-background:new 0 0 53.3 58.2;" xml:space="preserve">
<style type="text/css">
	.st0{fill:#E046BF;}
	.st1{fill:#FFFFFF;stroke:#474748;stroke-width:0.5;stroke-linecap:round;stroke-linejoin:round;}
	.st2{fill:#474748;}
	.st3{fill:#FFFFFF;}
	.st4{enable-background:new    ;}
	.st5{fill:#F2F2F2;}
</style>
<path class="st0" d="M2.3,31.2V11.8c0-2.6,2.1-4.6,4.6-4.6h19.4c13.3,0,24,10.8,24,24v0c0,13.3-10.8,24-24,24h0
	C13.1,55.2,2.3,44.5,2.3,31.2z"/>
<g>
	
		<image style="overflow:visible;opacity:0.49;" width="70" height="48" xlink:href="A05074F6.png"  transform="matrix(1 0 0 1 -8.5158 14.87)">
	</image>
	<g>
		<g>
			<rect x="8.1" y="26.1" class="st1" width="37" height="14.1"/>
			<polygon class="st1" points="34.1,40.2 19.2,40.2 19.2,24.7 26.6,23.6 34.1,24.7 			"/>
			<path class="st2" d="M24.3,39.8h4.6c0.3,0,0.5,0.2,0.5,0.5v0c0,0.3-0.2,0.5-0.5,0.5h-4.6c-0.3,0-0.5-0.2-0.5-0.5v0
				C23.8,40,24,39.8,24.3,39.8z"/>
			<path class="st1" d="M24.7,34.2h3.7c0.2,0,0.3,0.2,0.3,0.3v5.3h-4.4v-5.3C24.4,34.3,24.5,34.2,24.7,34.2z"/>
			<rect x="26.4" y="34.2" class="st2" width="0.4" height="5.6"/>
			<path class="st2" d="M9.8,33.5h2.8c0.2,0,0.3,0.1,0.3,0.3V37c0,0.2-0.1,0.3-0.3,0.3H9.8c-0.2,0-0.3-0.1-0.3-0.3v-3.2
				C9.5,33.6,9.7,33.5,9.8,33.5z"/>
			<path class="st3" d="M10.1,33.8h0.8c0.1,0,0.3,0.1,0.3,0.3v1c0,0.1-0.1,0.3-0.3,0.3h-0.8c-0.1,0-0.3-0.1-0.3-0.3v-1
				C9.8,33.9,9.9,33.8,10.1,33.8z"/>
			<path class="st3" d="M11.6,33.8h0.8c0.1,0,0.3,0.1,0.3,0.3v1c0,0.1-0.1,0.3-0.3,0.3h-0.8c-0.1,0-0.3-0.1-0.3-0.3v-1
				C11.4,33.9,11.5,33.8,11.6,33.8z"/>
			<path class="st3" d="M10.1,35.5h0.8c0.1,0,0.3,0.1,0.3,0.3v1c0,0.1-0.1,0.3-0.3,0.3h-0.8c-0.1,0-0.3-0.1-0.3-0.3v-1
				C9.8,35.6,9.9,35.5,10.1,35.5z"/>
			<path class="st3" d="M11.6,35.5h0.8c0.1,0,0.3,0.1,0.3,0.3v1c0,0.1-0.1,0.3-0.3,0.3h-0.8c-0.1,0-0.3-0.1-0.3-0.3v-1
				C11.4,35.6,11.5,35.5,11.6,35.5z"/>
			<path class="st2" d="M14.5,33.5h2.8c0.2,0,0.3,0.1,0.3,0.3V37c0,0.2-0.1,0.3-0.3,0.3h-2.8c-0.2,0-0.3-0.1-0.3-0.3v-3.2
				C14.2,33.6,14.3,33.5,14.5,33.5z"/>
			<path class="st3" d="M14.7,33.8h0.8c0.1,0,0.2,0.1,0.2,0.2v1c0,0.1-0.1,0.2-0.2,0.2h-0.8c-0.1,0-0.2-0.1-0.2-0.2v-1
				C14.5,33.9,14.6,33.8,14.7,33.8z"/>
			<path class="st3" d="M16.3,33.8h0.8c0.1,0,0.2,0.1,0.2,0.2v1c0,0.1-0.1,0.2-0.2,0.2h-0.8c-0.1,0-0.2-0.1-0.2-0.2v-1
				C16,33.9,16.1,33.8,16.3,33.8z"/>
			<path class="st3" d="M14.7,35.5h0.8c0.1,0,0.2,0.1,0.2,0.2v1c0,0.1-0.1,0.2-0.2,0.2h-0.8c-0.1,0-0.2-0.1-0.2-0.2v-1
				C14.5,35.6,14.6,35.5,14.7,35.5z"/>
			<path class="st3" d="M16.3,35.5h0.8c0.1,0,0.2,0.1,0.2,0.2v1c0,0.1-0.1,0.2-0.2,0.2h-0.8c-0.1,0-0.2-0.1-0.2-0.2v-1
				C16,35.6,16.1,35.5,16.3,35.5z"/>
			<path class="st2" d="M9.8,27.8h2.8c0.2,0,0.3,0.1,0.3,0.3v3.2c0,0.2-0.1,0.3-0.3,0.3H9.8c-0.2,0-0.3-0.1-0.3-0.3v-3.2
				C9.5,27.9,9.7,27.8,9.8,27.8z"/>
			<path class="st3" d="M10.1,28.1h0.8c0.1,0,0.3,0.1,0.3,0.3v1c0,0.1-0.1,0.3-0.3,0.3h-0.8c-0.1,0-0.3-0.1-0.3-0.3v-1
				C9.8,28.2,9.9,28.1,10.1,28.1z"/>
			<path class="st3" d="M11.6,28.1h0.8c0.1,0,0.3,0.1,0.3,0.3v1c0,0.1-0.1,0.3-0.3,0.3h-0.8c-0.1,0-0.3-0.1-0.3-0.3v-1
				C11.4,28.2,11.5,28.1,11.6,28.1z"/>
			<path class="st3" d="M10.1,29.8h0.8c0.1,0,0.3,0.1,0.3,0.3v1c0,0.1-0.1,0.3-0.3,0.3h-0.8c-0.1,0-0.3-0.1-0.3-0.3v-1
				C9.8,29.9,9.9,29.8,10.1,29.8z"/>
			<path class="st3" d="M11.6,29.8h0.8c0.1,0,0.3,0.1,0.3,0.3v1c0,0.1-0.1,0.3-0.3,0.3h-0.8c-0.1,0-0.3-0.1-0.3-0.3v-1
				C11.4,29.9,11.5,29.8,11.6,29.8z"/>
			<path class="st2" d="M14.5,27.8h2.8c0.2,0,0.3,0.1,0.3,0.3v3.2c0,0.2-0.1,0.3-0.3,0.3h-2.8c-0.2,0-0.3-0.1-0.3-0.3v-3.2
				C14.2,27.9,14.3,27.8,14.5,27.8z"/>
			<path class="st3" d="M14.7,28.1h0.8c0.1,0,0.3,0.1,0.3,0.3v1c0,0.1-0.1,0.3-0.3,0.3h-0.8c-0.1,0-0.3-0.1-0.3-0.3v-1
				C14.5,28.2,14.6,28.1,14.7,28.1z"/>
			<path class="st3" d="M16.3,28.1h0.8c0.1,0,0.3,0.1,0.3,0.3v1c0,0.1-0.1,0.3-0.3,0.3h-0.8c-0.1,0-0.3-0.1-0.3-0.3v-1
				C16,28.2,16.2,28.1,16.3,28.1z"/>
			<path class="st3" d="M14.7,29.8h0.8c0.1,0,0.3,0.1,0.3,0.3v1c0,0.1-0.1,0.3-0.3,0.3h-0.8c-0.1,0-0.3-0.1-0.3-0.3v-1
				C14.5,29.9,14.6,29.8,14.7,29.8z"/>
			<path class="st3" d="M16.3,29.8h0.8c0.1,0,0.3,0.1,0.3,0.3v1c0,0.1-0.1,0.3-0.3,0.3h-0.8c-0.1,0-0.3-0.1-0.3-0.3v-1
				C16,29.9,16.2,29.8,16.3,29.8z"/>
			<path class="st2" d="M35.8,33.5h2.8c0.2,0,0.3,0.1,0.3,0.3V37c0,0.2-0.1,0.3-0.3,0.3h-2.8c-0.2,0-0.3-0.1-0.3-0.3v-3.2
				C35.4,33.6,35.6,33.5,35.8,33.5z"/>
			<path class="st3" d="M35.9,33.8h1c0.1,0,0.2,0.1,0.2,0.2v1.1c0,0.1-0.1,0.2-0.2,0.2h-1c-0.1,0-0.2-0.1-0.2-0.2V34
				C35.7,33.9,35.8,33.8,35.9,33.8z"/>
			<path class="st3" d="M37.5,33.8h1c0.1,0,0.2,0.1,0.2,0.2v1.1c0,0.1-0.1,0.2-0.2,0.2h-1c-0.1,0-0.2-0.1-0.2-0.2V34
				C37.3,33.9,37.4,33.8,37.5,33.8z"/>
			<path class="st3" d="M35.9,35.5h1c0.1,0,0.2,0.1,0.2,0.2v1.1c0,0.1-0.1,0.2-0.2,0.2h-1c-0.1,0-0.2-0.1-0.2-0.2v-1.1
				C35.7,35.6,35.8,35.5,35.9,35.5z"/>
			<path class="st3" d="M37.5,35.5h1c0.1,0,0.2,0.1,0.2,0.2v1.1c0,0.1-0.1,0.2-0.2,0.2h-1c-0.1,0-0.2-0.1-0.2-0.2v-1.1
				C37.3,35.6,37.4,35.5,37.5,35.5z"/>
			<path class="st2" d="M40.4,33.5h2.8c0.2,0,0.3,0.1,0.3,0.3V37c0,0.2-0.1,0.3-0.3,0.3h-2.8c-0.2,0-0.3-0.1-0.3-0.3v-3.2
				C40.1,33.6,40.3,33.5,40.4,33.5z"/>
			<path class="st3" d="M40.6,33.8h0.8c0.1,0,0.2,0.1,0.2,0.2v1c0,0.1-0.1,0.2-0.2,0.2h-0.8c-0.1,0-0.2-0.1-0.2-0.2v-1
				C40.4,33.9,40.5,33.8,40.6,33.8z"/>
			<path class="st3" d="M42.1,33.8h1c0.1,0,0.2,0.1,0.2,0.2v1.1c0,0.1-0.1,0.2-0.2,0.2h-1c-0.1,0-0.2-0.1-0.2-0.2V34
				C42,33.9,42,33.8,42.1,33.8z"/>
			<path class="st3" d="M40.6,35.5h1c0.1,0,0.2,0.1,0.2,0.2v1.1c0,0.1-0.1,0.2-0.2,0.2h-1c-0.1,0-0.2-0.1-0.2-0.2v-1.1
				C40.4,35.6,40.5,35.5,40.6,35.5z"/>
			<path class="st3" d="M42.1,35.5h1c0.1,0,0.2,0.1,0.2,0.2v1.1c0,0.1-0.1,0.2-0.2,0.2h-1C42,37,42,36.9,42,36.8v-1.1
				C42,35.6,42,35.5,42.1,35.5z"/>
			<path class="st2" d="M35.8,27.8h2.8c0.2,0,0.3,0.1,0.3,0.3v3.2c0,0.2-0.1,0.3-0.3,0.3h-2.8c-0.2,0-0.3-0.1-0.3-0.3v-3.2
				C35.4,27.9,35.6,27.8,35.8,27.8z"/>
			<path class="st3" d="M35.9,28.1h1c0.1,0,0.2,0.1,0.2,0.2v1.1c0,0.1-0.1,0.2-0.2,0.2h-1c-0.1,0-0.2-0.1-0.2-0.2v-1.1
				C35.7,28.1,35.8,28.1,35.9,28.1z"/>
			<path class="st3" d="M37.5,28.1h1c0.1,0,0.2,0.1,0.2,0.2v1.1c0,0.1-0.1,0.2-0.2,0.2h-1c-0.1,0-0.2-0.1-0.2-0.2v-1.1
				C37.3,28.1,37.4,28.1,37.5,28.1z"/>
			<path class="st3" d="M35.9,29.8h1c0.1,0,0.2,0.1,0.2,0.2v1.1c0,0.1-0.1,0.2-0.2,0.2h-1c-0.1,0-0.2-0.1-0.2-0.2V30
				C35.7,29.9,35.8,29.8,35.9,29.8z"/>
			<path class="st3" d="M37.5,29.8h1c0.1,0,0.2,0.1,0.2,0.2v1.1c0,0.1-0.1,0.2-0.2,0.2h-1c-0.1,0-0.2-0.1-0.2-0.2V30
				C37.3,29.9,37.4,29.8,37.5,29.8z"/>
			<path class="st2" d="M20.9,28.4h3c0.1,0,0.2,0.1,0.2,0.2V32c0,0.1-0.1,0.2-0.2,0.2h-3c-0.1,0-0.2-0.1-0.2-0.2v-3.4
				C20.6,28.5,20.7,28.4,20.9,28.4z"/>
			<path class="st3" d="M21.1,28.7H22c0.1,0,0.2,0.1,0.2,0.2V30c0,0.1-0.1,0.2-0.2,0.2h-0.9c-0.1,0-0.2-0.1-0.2-0.2v-1.1
				C20.9,28.8,21,28.7,21.1,28.7z"/>
			<path class="st3" d="M22.7,28.7h0.9c0.1,0,0.2,0.1,0.2,0.2V30c0,0.1-0.1,0.2-0.2,0.2h-0.9c-0.1,0-0.2-0.1-0.2-0.2V29
				C22.5,28.8,22.6,28.7,22.7,28.7z"/>
			<path class="st3" d="M21.1,30.5H22c0.1,0,0.2,0.1,0.2,0.2v1.1c0,0.1-0.1,0.2-0.2,0.2h-0.9c-0.1,0-0.2-0.1-0.2-0.2v-1.1
				C20.9,30.6,21,30.5,21.1,30.5z"/>
			<path class="st3" d="M22.7,30.5h0.9c0.1,0,0.2,0.1,0.2,0.2v1.1c0,0.1-0.1,0.2-0.2,0.2h-0.9c-0.1,0-0.2-0.1-0.2-0.2v-1.1
				C22.5,30.6,22.6,30.5,22.7,30.5z"/>
			<path class="st2" d="M21.3,34.3h1.3c0.2,0,0.3,0.1,0.3,0.3v3.2c0,0.2-0.1,0.3-0.3,0.3h-1.3c-0.2,0-0.3-0.1-0.3-0.3v-3.2
				C21,34.4,21.1,34.3,21.3,34.3z"/>
			<path class="st3" d="M21.5,34.6h0.8c0.1,0,0.2,0.1,0.2,0.2v1c0,0.1-0.1,0.2-0.2,0.2h-0.8c-0.1,0-0.2-0.1-0.2-0.2v-1
				C21.3,34.7,21.4,34.6,21.5,34.6z"/>
			<path class="st3" d="M21.5,36.3h0.8c0.1,0,0.2,0.1,0.2,0.2v1c0,0.1-0.1,0.2-0.2,0.2h-0.8c-0.1,0-0.2-0.1-0.2-0.2v-1
				C21.3,36.4,21.4,36.3,21.5,36.3z"/>
			<path class="st2" d="M30.7,34.3h1.3c0.2,0,0.3,0.1,0.3,0.3v3.2c0,0.2-0.1,0.3-0.3,0.3h-1.3c-0.2,0-0.3-0.1-0.3-0.3v-3.2
				C30.4,34.4,30.6,34.3,30.7,34.3z"/>
			<path class="st3" d="M31,34.6h0.8c0.1,0,0.2,0.1,0.2,0.2v1c0,0.1-0.1,0.2-0.2,0.2H31c-0.1,0-0.2-0.1-0.2-0.2v-1
				C30.7,34.7,30.9,34.6,31,34.6z"/>
			<path class="st3" d="M31,36.3h0.8c0.1,0,0.2,0.1,0.2,0.2v1c0,0.1-0.1,0.2-0.2,0.2H31c-0.1,0-0.2-0.1-0.2-0.2v-1
				C30.7,36.4,30.9,36.3,31,36.3z"/>
			<path class="st2" d="M25.3,28.4h2.9c0.1,0,0.3,0.1,0.3,0.3V32c0,0.1-0.1,0.3-0.3,0.3h-2.9c-0.1,0-0.3-0.1-0.3-0.3v-3.4
				C25.1,28.5,25.2,28.4,25.3,28.4z"/>
			<path class="st3" d="M25.6,28.7h0.9c0.1,0,0.2,0.1,0.2,0.2V30c0,0.1-0.1,0.2-0.2,0.2h-0.9c-0.1,0-0.2-0.1-0.2-0.2v-1.1
				C25.4,28.8,25.5,28.7,25.6,28.7z"/>
			<path class="st3" d="M27.2,28.7H28c0.1,0,0.2,0.1,0.2,0.2v1c0,0.1-0.1,0.2-0.2,0.2h-0.8c-0.1,0-0.2-0.1-0.2-0.2v-1
				C26.9,28.8,27,28.7,27.2,28.7z"/>
			<path class="st3" d="M25.6,30.5h0.8c0.1,0,0.2,0.1,0.2,0.2v1c0,0.1-0.1,0.2-0.2,0.2h-0.8c-0.1,0-0.2-0.1-0.2-0.2v-1
				C25.4,30.6,25.5,30.5,25.6,30.5z"/>
			<path class="st3" d="M27.2,30.5H28c0.1,0,0.2,0.1,0.2,0.2v1c0,0.1-0.1,0.2-0.2,0.2h-0.8c-0.1,0-0.2-0.1-0.2-0.2v-1
				C26.9,30.6,27,30.5,27.2,30.5z"/>
			<path class="st2" d="M29.9,28.4h2.8c0.2,0,0.3,0.1,0.3,0.3V32c0,0.2-0.1,0.3-0.3,0.3h-2.8c-0.2,0-0.3-0.1-0.3-0.3v-3.2
				C29.6,28.6,29.7,28.4,29.9,28.4z"/>
			<path class="st3" d="M30,28.7h1c0.1,0,0.2,0.1,0.2,0.2V30c0,0.1-0.1,0.2-0.2,0.2h-1c-0.1,0-0.2-0.1-0.2-0.2v-1.1
				C29.8,28.8,29.9,28.7,30,28.7z"/>
			<path class="st3" d="M31.6,28.7h1c0.1,0,0.2,0.1,0.2,0.2V30c0,0.1-0.1,0.2-0.2,0.2h-1c-0.1,0-0.2-0.1-0.2-0.2v-1.1
				C31.4,28.8,31.5,28.7,31.6,28.7z"/>
			<path class="st3" d="M30,30.5h1c0.1,0,0.2,0.1,0.2,0.2v1.1c0,0.1-0.1,0.2-0.2,0.2h-1c-0.1,0-0.2-0.1-0.2-0.2v-1.1
				C29.8,30.6,29.9,30.5,30,30.5z"/>
			<path class="st3" d="M31.6,30.5h1c0.1,0,0.2,0.1,0.2,0.2v1.1c0,0.1-0.1,0.2-0.2,0.2h-1c-0.1,0-0.2-0.1-0.2-0.2v-1.1
				C31.4,30.6,31.5,30.5,31.6,30.5z"/>
			<path class="st2" d="M40.4,27.8h2.8c0.2,0,0.3,0.1,0.3,0.3v3.2c0,0.2-0.1,0.3-0.3,0.3h-2.8c-0.2,0-0.3-0.1-0.3-0.3v-3.2
				C40.1,27.9,40.3,27.8,40.4,27.8z"/>
			<path class="st3" d="M40.6,28.1h0.8c0.1,0,0.2,0.1,0.2,0.2v1c0,0.1-0.1,0.2-0.2,0.2h-0.8c-0.1,0-0.2-0.1-0.2-0.2v-1
				C40.4,28.2,40.5,28.1,40.6,28.1z"/>
			<path class="st3" d="M42.2,28.1H43c0.1,0,0.2,0.1,0.2,0.2v1c0,0.1-0.1,0.2-0.2,0.2h-0.8c-0.1,0-0.2-0.1-0.2-0.2v-1
				C42,28.2,42.1,28.1,42.2,28.1z"/>
			<path class="st3" d="M40.6,29.8h0.8c0.1,0,0.2,0.1,0.2,0.2v1c0,0.1-0.1,0.2-0.2,0.2h-0.8c-0.1,0-0.2-0.1-0.2-0.2v-1
				C40.4,29.9,40.5,29.8,40.6,29.8z"/>
			<path class="st3" d="M42.2,29.8H43c0.1,0,0.2,0.1,0.2,0.2v1c0,0.1-0.1,0.2-0.2,0.2h-0.8c-0.1,0-0.2-0.1-0.2-0.2v-1
				C42,29.9,42.1,29.8,42.2,29.8z"/>
			<polygon class="st2" points="46.4,26.1 6.7,26.1 7.1,23 46,23 			"/>
			<g class="st4">
				<path class="st5" d="M18.8,24.8h-0.3v0.5c0,0.1-0.1,0.1-0.1,0.1c-0.1,0-0.1-0.1-0.1-0.1v-1.5c0-0.1,0.1-0.1,0.1-0.1h0h0.4
					c0.3,0,0.5,0.2,0.5,0.5C19.4,24.5,19.1,24.8,18.8,24.8z M18.5,24.5h0.3c0.1,0,0.3-0.1,0.3-0.3c0-0.1-0.1-0.3-0.3-0.3h-0.3V24.5z
					"/>
				<path class="st5" d="M21.1,23.9c0.2,0.2,0.2,0.4,0.2,0.6c0,0.2-0.1,0.5-0.2,0.6c-0.1,0.2-0.4,0.3-0.6,0.3
					c-0.2,0-0.5-0.1-0.6-0.3c-0.2-0.2-0.2-0.4-0.2-0.6c0-0.2,0.1-0.5,0.2-0.6c0.2-0.2,0.4-0.3,0.6-0.3
					C20.7,23.7,20.9,23.8,21.1,23.9z M21,24.6c0-0.2-0.1-0.3-0.2-0.4C20.8,24,20.6,24,20.5,24c-0.2,0-0.3,0.1-0.4,0.2
					c-0.1,0.1-0.2,0.3-0.2,0.4c0,0.2,0.1,0.3,0.2,0.4c0.1,0.1,0.2,0.2,0.4,0.2c0.1,0,0.3-0.1,0.4-0.2C21,24.9,21,24.7,21,24.6z"/>
			</g>
			<g class="st4">
				<path class="st5" d="M21.8,25.3v-1.5c0-0.1,0.1-0.1,0.1-0.1c0.1,0,0.1,0.1,0.1,0.1v1.3h0.7c0.1,0,0.1,0.1,0.1,0.1
					c0,0.1-0.1,0.1-0.1,0.1H22c0,0,0,0,0,0c0,0,0,0,0,0C21.9,25.5,21.8,25.4,21.8,25.3z"/>
			</g>
			<g class="st4">
				<path class="st5" d="M24.1,24l-0.5,0.7v0.7c0,0.1-0.1,0.1-0.1,0.1c-0.1,0-0.1-0.1-0.1-0.1v-0.7L22.8,24c0-0.1,0-0.1,0-0.2
					c0.1,0,0.1,0,0.2,0l0.4,0.6l0.4-0.6c0-0.1,0.1-0.1,0.2,0C24.1,23.8,24.1,23.9,24.1,24z"/>
				<path class="st5" d="M25.4,24h-0.4v1.3c0,0.1-0.1,0.1-0.1,0.1c-0.1,0-0.1-0.1-0.1-0.1V24h-0.4c-0.1,0-0.1-0.1-0.1-0.1
					c0-0.1,0.1-0.1,0.1-0.1h1.1c0.1,0,0.1,0.1,0.1,0.1C25.6,23.9,25.5,24,25.4,24z"/>
			</g>
			<g class="st4">
				<path class="st5" d="M26.1,25.3v-1.5c0-0.1,0.1-0.1,0.1-0.1h0c0,0,0,0,0,0H27c0.1,0,0.1,0.1,0.1,0.1c0,0.1-0.1,0.1-0.1,0.1h-0.7
					v0.5h0.6c0.1,0,0.1,0.1,0.1,0.1c0,0.1-0.1,0.1-0.1,0.1h-0.6v0.5H27c0.1,0,0.1,0.1,0.1,0.1c0,0.1-0.1,0.1-0.1,0.1h-0.8
					c0,0,0,0,0,0l0,0C26.1,25.5,26.1,25.4,26.1,25.3z"/>
			</g>
			<g class="st4">
				<path class="st5" d="M27.4,24.6c0-0.5,0.4-0.9,0.9-0.9c0.2,0,0.4,0.1,0.6,0.2c0.1,0,0.1,0.1,0,0.2c0,0.1-0.1,0.1-0.2,0
					C28.6,24,28.4,24,28.3,24c-0.2,0-0.3,0.1-0.4,0.2c-0.1,0.1-0.2,0.3-0.2,0.4c0,0.2,0.1,0.3,0.2,0.4c0.1,0.1,0.3,0.2,0.4,0.2
					c0.2,0,0.3,0,0.4-0.1c0.1,0,0.1,0,0.2,0c0,0.1,0,0.2,0,0.2c-0.2,0.1-0.4,0.2-0.6,0.2C27.8,25.5,27.4,25.1,27.4,24.6z"/>
				<path class="st5" d="M29.3,25.3v-1.5c0-0.1,0.1-0.1,0.1-0.1c0.1,0,0.1,0.1,0.1,0.1v0.6h0.6v-0.6c0-0.1,0.1-0.1,0.1-0.1
					c0.1,0,0.1,0.1,0.1,0.1v1.5c0,0.1-0.1,0.1-0.1,0.1c-0.1,0-0.1-0.1-0.1-0.1v-0.6h-0.6v0.6c0,0.1-0.1,0.1-0.1,0.1
					C29.4,25.5,29.3,25.4,29.3,25.3z"/>
				<path class="st5" d="M31.4,25.3c0,0.1-0.1,0.1-0.1,0.1c-0.1,0-0.1-0.1-0.1-0.1v-1.4c0,0,0,0,0,0c0,0,0-0.1,0.1-0.1
					c0.1,0,0.1,0,0.2,0l0.8,1.1v-1c0-0.1,0.1-0.1,0.1-0.1c0.1,0,0.1,0.1,0.1,0.1v1.4c0,0.1-0.1,0.1-0.1,0.1c0,0-0.1,0-0.1,0
					c0,0,0,0,0,0l-0.8-1.1V25.3z"/>
				<path class="st5" d="M32.9,23.9c0-0.1,0.1-0.1,0.1-0.1c0.1,0,0.1,0.1,0.1,0.1v1.5c0,0.1-0.1,0.1-0.1,0.1c-0.1,0-0.1-0.1-0.1-0.1
					V23.9z"/>
				<path class="st5" d="M33.6,24.6c0-0.5,0.4-0.9,0.9-0.9c0.2,0,0.4,0.1,0.6,0.2c0.1,0,0.1,0.1,0,0.2c0,0.1-0.1,0.1-0.2,0
					C34.8,24,34.6,24,34.5,24c-0.2,0-0.3,0.1-0.4,0.2c-0.1,0.1-0.2,0.3-0.2,0.4c0,0.2,0.1,0.3,0.2,0.4c0.1,0.1,0.3,0.2,0.4,0.2
					c0.2,0,0.3,0,0.4-0.1c0.1,0,0.1,0,0.2,0c0,0.1,0,0.2,0,0.2c-0.2,0.1-0.4,0.2-0.6,0.2C34,25.5,33.6,25.1,33.6,24.6z"/>
			</g>
		</g>
	</g>
</g>
</svg>
