<?xml version="1.0" encoding="utf-8"?>
<!-- Generator: Adobe Illustrator 16.0.3, SVG Export Plug-In . SVG Version: 6.00 Build 0)  -->
<!DOCTYPE svg PUBLIC "-//W3C//DTD SVG 1.1//EN" "http://www.w3.org/Graphics/SVG/1.1/DTD/svg11.dtd">
<svg version="1.1" id="Layer_1" xmlns="http://www.w3.org/2000/svg" xmlns:xlink="http://www.w3.org/1999/xlink" x="0px" y="0px"
	 width="250px" height="250px" viewBox="0 0 250 250" fill="#ffffff" enable-background="new 0 0 250 250" xml:space="preserve">
<g>
	<path fill="#ffffff" d="M201.813,57.796h-8.027V42.378c0-18.011-14.652-32.663-32.662-32.663H88.345
		c-18.01,0-32.663,14.652-32.663,32.663v15.418h-7.494c-18.01,0-32.663,14.653-32.663,32.663v55.908
		c0,18.01,14.653,32.662,32.663,32.662h7.445v45.947c0,8.441,6.866,15.309,15.307,15.309h107.489
		c8.439,0,15.307-6.867,15.307-15.309v-45.947h8.078c18.01,0,32.662-14.652,32.662-32.662V90.459
		C234.476,72.45,219.823,57.796,201.813,57.796z M64.76,42.378c0-12.979,10.559-23.537,23.537-23.537h72.728
		c12.979,0,23.537,10.559,23.537,23.537v15.418H64.76V42.378z M184.608,225.074c0,3.408-2.771,6.182-6.18,6.182H70.94
		c-3.408,0-6.181-2.773-6.181-6.182V150.59H184.61L184.608,225.074z M225.351,146.416c0,12.979-10.559,23.537-23.537,23.537h-8.027
		V150.59h10.652c2.559,0,4.563-2.006,4.563-4.564s-2.005-4.563-4.563-4.563H44.008c-2.559,0-4.563,2.004-4.563,4.563
		s2.005,4.564,4.563,4.564h11.675v19.363h-7.494c-12.979,0-23.537-10.559-23.537-23.537V90.507
		c0-12.978,10.559-23.536,23.537-23.536h153.625c12.979,0,23.537,10.559,23.537,23.536V146.416z"/>
	<path fill="#ffffff" d="M82.656,182.871h83.569c2.559,0,4.563-2.006,4.563-4.564s-2.005-4.563-4.563-4.563H82.656
		c-2.559,0-4.563,2.004-4.563,4.563C78.094,180.824,80.141,182.871,82.656,182.871z"/>
	<path fill="#ffffff" d="M166.763,200.58H83.144c-2.559,0-4.563,2.004-4.563,4.563s2.004,4.563,4.563,4.563h83.569
		c2.559,0,4.563-2.004,4.563-4.563C171.276,202.627,169.251,200.58,166.763,200.58z"/>
	<path fill="#ffffff" d="M201.667,83.563h-13.318c-2.56,0-4.564,2.004-4.564,4.563s2.005,4.563,4.564,4.563h13.318
		c2.559,0,4.563-2.004,4.563-4.563S204.226,83.563,201.667,83.563z"/>
</g>
</svg>
