<svg height="471pt" viewBox="-3 0 471 471.74795" width="471pt" xmlns="http://www.w3.org/2000/svg"><path d="m464.375 471.746094v-288c0-8.835938-7.164062-16-16-16h-345.371094c-4.246094 0-8.316406 1.683594-11.316406 4.683594l-86.625 86.628906c-3 3-4.6875 7.070312-4.6875 11.3125v201.375zm0 0" fill="#efefef"/><path d="m80.375 263.746094c8.835938 0 16-7.164063 16-16v-78.511719c-1.742188.777344-3.328125 1.859375-4.6875 3.195313l-86.625 86.628906c-1.339844 1.359375-2.421875 2.945312-3.199219 4.6875zm0 0" fill="#d6d6d6"/><path d="m416.375 367.746094h-32c-8.835938 0-16-7.164063-16-16v-32c0-8.835938 7.164062-16 16-16h32c8.835938 0 16 7.164062 16 16v32c0 8.835937-7.164062 16-16 16zm0 0" fill="#73c97c"/><path d="m248.375 447.746094h-16c-8.835938 0-16-7.164063-16-16v-16c0-8.835938 7.164062-16 16-16h16c8.835938 0 16 7.164062 16 16v16c0 8.835937-7.164062 16-16 16zm0 0" fill="#75c1ff"/><path d="m40.375 319.746094c.003906-4.417969 3.582031-7.996094 8-8h16v-16h-16c-13.25.011718-23.984375 10.75-24 24v16h16zm0 0" fill="#bcbcbc"/><path d="m40.375 431.746094v-16h-16v16c.015625 13.246094 10.75 23.984375 24 24h16v-16h-16c-4.417969-.003906-7.996094-3.582032-8-8zm0 0" fill="#bcbcbc"/><path d="m168.375 431.746094c-.003906 4.417968-3.582031 7.996094-8 8h-16v16h16c13.25-.015625 23.984375-10.753906 24-24v-16h-16zm0 0" fill="#bcbcbc"/><path d="m160.375 295.746094h-16v16h16c4.417969.003906 7.996094 3.582031 8 8v16h16v-16c-.015625-13.25-10.75-23.988282-24-24zm0 0" fill="#bcbcbc"/><path d="m144.375 383.746094c-.011719-8.832032-7.167969-15.988282-16-16h-16v-24h16v8h16v-8c-.011719-8.832032-7.167969-15.988282-16-16h-16v-16h-16v16h-16c-8.832031.011718-15.988281 7.167968-16 16v24c.011719 8.832031 7.167969 15.988281 16 16h16v24h-16v-8h-16v8c.011719 8.832031 7.167969 15.988281 16 16h16v16h16v-16h16c8.832031-.011719 15.988281-7.167969 16-16zm-64-16v-24h16v24zm48 40h-16v-24h16zm0 0" fill="#ff675b"/><g fill="#bcbcbc"><path d="m328.375 295.746094h16v16h-16zm0 0"/><path d="m240.375 295.746094h72v16h-72zm0 0"/><path d="m208.375 295.746094h16v16h-16zm0 0"/><path d="m328.375 327.746094h16v16h-16zm0 0"/><path d="m240.375 327.746094h72v16h-72zm0 0"/><path d="m208.375 327.746094h16v16h-16zm0 0"/><path d="m328.375 359.746094h16v16h-16zm0 0"/><path d="m240.375 359.746094h72v16h-72zm0 0"/><path d="m208.375 359.746094h16v16h-16zm0 0"/><path d="m424.375 399.746094h16v16h-16zm0 0"/><path d="m320.375 399.746094h88v16h-88zm0 0"/><path d="m288.375 399.746094h16v16h-16zm0 0"/><path d="m424.375 431.746094h16v16h-16zm0 0"/><path d="m320.375 431.746094h88v16h-88zm0 0"/><path d="m288.375 431.746094h16v16h-16zm0 0"/></g><path d="m400.113281 136c-4.421875 68.410156-61.953125 121.195312-130.492187 119.71875-68.535156-1.472656-123.746094-56.683594-125.21875-125.21875-1.476563-68.539062 51.304687-126.070312 119.714844-130.4921875 2.171874-.09375 4.289062.7109375 5.847656 2.2226565 1.5625 1.511719 2.433594 3.601562 2.410156 5.773437v111.742188c0 4.417968 3.582031 8 8 8h111.738281c2.175781-.023438 4.261719.847656 5.773438 2.40625 1.515625 1.5625 2.320312 3.675781 2.226562 5.847656zm0 0" fill="#ffd04a"/><path d="m399.976562 86.921875c-4.257812-46.046875-40.730468-82.519531-86.78125-86.777344-2.253906-.2109372-4.496093.539063-6.171874 2.0625-1.679688 1.523438-2.640626 3.679688-2.648438 5.945313v79.59375c0 4.417968 3.582031 8 8 8h79.59375c2.265625-.011719 4.421875-.96875 5.945312-2.648438 1.523438-1.675781 2.269532-3.917968 2.0625-6.175781zm0 0" fill="#ff675b"/></svg>