<svg height="416pt" viewBox="-12 0 416 416" width="416pt" xmlns="http://www.w3.org/2000/svg"><path d="m0 0h320v416h-320zm0 0" fill="#ebebeb"/><path d="m96 384h128v32h-128zm0 0" fill="#fbb540"/><path d="m88 352h128v32h-128zm0 0" fill="#ea9d2d"/><path d="m96 320h128v32h-128zm0 0" fill="#fbb540"/><path d="m96 344h128v8h-128zm0 0" fill="#eeac3d"/><path d="m88 376h128v8h-128zm0 0" fill="#e0962b"/><path d="m96 408h128v8h-128zm0 0" fill="#eeac3d"/><path d="m288 24h-40v16h20.527344l-68.527344 67.777344-42.398438-41.496094c-2.976562-2.910156-7.6875-3.054688-10.832031-.328125l-120 104 10.476563 12.09375 114.402344-99.199219 42.75 41.871094c3.113281 3.050781 8.089843 3.050781 11.203124 0l74.398438-73.519531v20.800781h16v-40c0-4.417969-3.582031-8-8-8zm0 0" fill="#f55648"/><path d="m144 112h16v48h-16zm0 0" fill="#6cbae5"/><path d="m192 144h16v32h-16zm0 0" fill="#ffb1b5"/><path d="m96 144h16v40h-16zm0 0" fill="#aae5c8"/><path d="m48 184h16v40h-16zm0 0" fill="#95bdc1"/><path d="m56 392h-24c-4.417969 0-8-3.582031-8-8v-24h16v16h16zm0 0" fill="#cbcbcb"/><path d="m24 40h16v16h-16zm0 0" fill="#aae5c8"/><path d="m56 40h16v16h-16zm0 0" fill="#6cbae5"/><path d="m88 40h16v16h-16zm0 0" fill="#ffb1b5"/><g fill="#cbcbcb"><path d="m32 240h72v16h-72zm0 0"/><path d="m280 104h16v72h-16zm0 0"/><path d="m32 272h72v16h-72zm0 0"/><path d="m32 304h40v16h-40zm0 0"/></g><path d="m224 256c0 35.347656-28.652344 64-64 64s-64-28.652344-64-64 28.652344-64 64-64 64 28.652344 64 64zm0 0" fill="#fbb540"/><path d="m173.121094 254.59375-17.921875-10.875c-.59375-.292969-.996094-.875-1.0625-1.535156 0-.800782.800781-1.550782 1.894531-1.894532 1.808594-.546874 3.761719-.316406 5.394531.632813l8.335938 5.0625c3.773437 2.292969 8.695312 1.09375 10.992187-2.679687 2.292969-3.777344 1.09375-8.699219-2.683594-10.992188l-8.34375-5.074219c-.542968-.328125-1.140624-.511719-1.703124-.796875v-10.441406h-16.023438v8.855469c-.214844.066406-.433594.066406-.648438.128906-7.738281 2.164063-13.128906 9.164063-13.238281 17.199219.050781 6.261718 3.394531 12.035156 8.796875 15.199218l17.890625 10.898438c.59375.292969.996094.875 1.0625 1.535156 0 .800782-.800781 1.550782-1.894531 1.894532-1.808594.554687-3.761719.324218-5.394531-.632813l-8.335938-5.0625c-3.773437-2.292969-8.695312-1.09375-10.992187 2.679687-2.292969 3.777344-1.09375 8.699219 2.683594 10.992188l8.34375 5.074219c.535156.316406 1.140624.453125 1.703124.726562v10.511719h16v-8.800781c.214844-.054688.429688-.078125.648438-.144531 7.738281-2.160157 13.128906-9.164063 13.238281-17.199219-.019531-6.273438-3.339843-12.074219-8.742187-15.261719zm0 0" fill="#ea9d2d"/><path d="m377.167969 416h-194.335938c-8.191406 0-14.832031-6.640625-14.832031-14.832031 0-5.617188 3.175781-10.753907 8.199219-13.265625l7.800781-3.902344v-80c0-53.019531 42.980469-96 96-96s96 42.980469 96 96v80l7.800781 3.902344c5.023438 2.511718 8.199219 7.648437 8.199219 13.265625 0 8.191406-6.640625 14.832031-14.832031 14.832031zm0 0" fill="#aae5c8"/><path d="m296 216h-32l-16-48c21.007812 5.257812 42.992188 5.257812 64 0zm0 0" fill="#aae5c8"/><path d="m280 216c-11.761719-.015625-23.359375-2.753906-33.886719-8l-25.6875-12.800781c-3.957031-1.972657-5.5625-6.78125-3.585937-10.734375 1.976562-3.957032 6.78125-5.558594 10.734375-3.585938l25.691406 12.847656c16.867187 8.261719 36.601563 8.261719 53.46875 0l33.691406-16.847656c3.953125-1.972656 8.757813-.371094 10.734375 3.585938 1.976563 3.953125.371094 8.761718-3.585937 10.734375l-33.6875 16.800781c-10.527344 5.246094-22.125 7.984375-33.886719 8zm0 0" fill="#8dc79d"/><path d="m299.929688 315.671875-30.976563-20.65625c-3.53125-2.351563-5.414063-6.511719-4.851563-10.714844s3.46875-7.722656 7.492188-9.070312c4.566406-1.542969 9.59375-.871094 13.597656 1.816406l14.402344 9.601563c3.675781 2.453124 8.640625 1.460937 11.09375-2.214844 2.453125-3.675782 1.460938-8.644532-2.214844-11.097656l-14.402344-9.601563c-1.902343-1.25-3.941406-2.285156-6.070312-3.09375v-12.640625h-16v10.902344c-1.851562.226562-3.679688.609375-5.464844 1.152344-9.824218 3.273437-16.925781 11.855468-18.300781 22.121093-1.375 10.261719 3.21875 20.410157 11.835937 26.152344l30.976563 20.65625c3.53125 2.351563 5.414063 6.511719 4.851563 10.714844s-3.46875 7.722656-7.492188 9.070312c-4.566406 1.535157-9.59375.867188-13.597656-1.816406l-14.402344-9.601563c-3.675781-2.453124-8.640625-1.460937-11.09375 2.214844-2.453125 3.675782-1.460938 8.644532 2.214844 11.097656l14.402344 9.601563c1.894531 1.230469 3.914062 2.253906 6.023437 3.0625v12.671875h16v-10.785156c1.855469-.261719 3.683594-.6875 5.460937-1.269532 9.828126-3.273437 16.929688-11.855468 18.300782-22.121093 1.375-10.261719-3.21875-20.410157-11.835938-26.152344zm0 0" fill="#8dc79d"/><path d="m344 392h-24v-16h16v-16h16v24c0 4.417969-3.582031 8-8 8zm0 0" fill="#8dc79d"/></svg>