<svg height="472pt" viewBox="0 -3 472 471" width="472pt" xmlns="http://www.w3.org/2000/svg"><path d="m64 64.5h368v400h-368zm0 0" fill="#d6d6d4"/><path d="m64 64.5h304v96h-304zm0 0" fill="#e94f4f"/><path d="m368 64.5h64v96h-64zm0 0" fill="#e04646"/><path d="m392 160.5h16v304h-16zm0 0" fill="#c7c7c5"/><path d="m64 160.5h304v224c0 17.671875-14.328125 32-32 32h-272zm0 0" fill="#e0e0de"/><path d="m336 416.5h-304c-17.671875 0-32-14.328125-32-32v-16h304v16c0 17.671875 14.328125 32 32 32zm0 0" fill="#ebebe9"/><path d="m392 64.5h16v96h-16zm0 0" fill="#cf3a3a"/><path d="m180.121094 160.5h135.757812c22.335938-27.046875 26.425782-64.796875 10.402344-96h-156.601562c-16.023438 31.203125-11.933594 68.953125 10.398437 96zm0 0" fill="#e04646"/><path d="m248 192.5c26.273438.027344 51.179688-11.714844 67.878906-32h-135.757812c16.699218 20.285156 41.605468 32.027344 67.878906 32zm0 0" fill="#d6d6d4"/><path d="m432 256.5c-7.433594-5.382812-15.492188-9.847656-24-13.296875v117.296875h24zm0 0" fill="#c7c7c5"/><path d="m368 232.925781v127.574219h24v-122.871094c-7.832031-2.335937-15.867188-3.910156-24-4.703125zm0 0" fill="#c7c7c5"/><path d="m392 237.628906v122.871094h16v-117.296875c-5.222656-2.160156-10.566406-4.023437-16-5.574219zm0 0" fill="#b0b0ae"/><path d="m360 232.5c-16.53125.679688-32.632812 5.464844-46.855469 13.921875l-3.808593 2.078125h-61.335938c-13.253906 0-24 10.746094-24 24s10.746094 24 24 24h-16l-88.296875-39.824219c-5.5625-2.539062-11.921875-2.695312-17.605469-.429687-5.679687 2.265625-10.1875 6.757812-12.472656 12.429687-4.144531 10.316407-.175781 22.113281 9.359375 27.824219l97.601563 57.160156c7.460937 4.480469 16.003906 6.84375 24.710937 6.839844h122.703125v-127.574219c-2.71875-.242187-5.40625-.425781-8-.425781zm0 0" fill="#d6d6d4"/><path d="m320 88.5c0 48.601562-39.398438 88-88 88s-88-39.398438-88-88 39.398438-88 88-88 88 39.398438 88 88zm0 0" fill="#ffb531"/><path d="m240 80.5h-16c-4.417969 0-8-3.582031-8-8s3.582031-8 8-8h32v-16h-16v-16h-16v16c-13.253906 0-24 10.746094-24 24s10.746094 24 24 24h16c4.417969 0 8 3.582031 8 8s-3.582031 8-8 8h-32v16h16v16h16v-16c13.253906 0 24-10.746094 24-24s-10.746094-24-24-24zm0 0" fill="#f98500"/><path d="m344 208.5c-16.53125.679688-32.632812 5.464844-46.855469 13.921875l-3.808593 2.078125h-61.335938c-13.253906 0-24 10.746094-24 24s10.746094 24 24 24h-16l-88.296875-39.824219c-5.5625-2.539062-11.921875-2.695312-17.605469-.429687-5.679687 2.265625-10.1875 6.757812-12.472656 12.429687-4.144531 10.316407-.175781 22.113281 9.359375 27.824219l97.601563 57.160156c7.460937 4.480469 16.003906 6.84375 24.710937 6.839844h170.703125v-104c-17.511719-13.136719-32-24-56-24zm0 0" fill="#fec9a3"/><path d="m312 280.5h-80c-4.417969 0-8-3.582031-8-8s3.582031-8 8-8h80c4.417969 0 8 3.582031 8 8s-3.582031 8-8 8zm0 0" fill="#feb784"/><path d="m400 216.5h72v120h-72zm0 0" fill="#348fd9"/><path d="m400 296.5h72v40h-72zm0 0" fill="#3086cd"/><path d="m424 296.5h16v16h-16zm0 0" fill="#2a71ad"/></svg>