<svg xmlns="http://www.w3.org/2000/svg" viewBox="0 0 192 115.21"><defs><style>.cls-1{isolation:isolate;}.cls-2{fill:#85d5ef;}.cls-13,.cls-2,.cls-20,.cls-3,.cls-41,.cls-55,.cls-6{opacity:0.2;}.cls-3{fill:#c4c4c4;}.cls-20,.cls-4{fill:#f2b594;}.cls-5,.cls-6{fill:#c5e1ea;}.cls-13,.cls-16,.cls-20,.cls-21,.cls-34,.cls-36,.cls-38,.cls-41,.cls-42,.cls-49,.cls-50,.cls-52,.cls-55,.cls-58,.cls-6,.cls-62,.cls-8{mix-blend-mode:multiply;}.cls-7,.cls-8{fill:#4d3d3d;}.cls-8{opacity:0.11;}.cls-9{fill:#20282b;}.cls-10{fill:#303940;}.cls-11{fill:#331f19;}.cls-12,.cls-13{fill:#dfecf3;}.cls-14{fill:#2a4454;}.cls-15,.cls-16,.cls-21{fill:#ffbe96;}.cls-16,.cls-49{opacity:0.23;}.cls-17{fill:#addbd7;}.cls-18{fill:#eaf5f9;}.cls-19{fill:#c5ede8;}.cls-21{opacity:0.1;}.cls-22{fill:#154051;}.cls-23{fill:#c1dae0;opacity:0.6;}.cls-24{fill:#492e28;}.cls-25{fill:#51332e;}.cls-26{fill:#c7ecff;}.cls-27{fill:#636363;}.cls-28{fill:#898989;}.cls-29{fill:#c8c2c3;}.cls-30{fill:#ddd9da;}.cls-31{fill:#b2def9;}.cls-32,.cls-36{fill:#f1f2e2;}.cls-33,.cls-34{fill:#9ad0b8;}.cls-34,.cls-38{opacity:0.15;}.cls-35{fill:#f7ccb0;}.cls-36{opacity:0.5;}.cls-37,.cls-38{fill:#64bcad;}.cls-39{fill:#cfc3bb;}.cls-40,.cls-41,.cls-42{fill:#dbd2cc;}.cls-42{opacity:0.21;}.cls-43{fill:#5d5d5d;}.cls-44{fill:#e2e2e2;}.cls-45{fill:#c3c3c3;}.cls-46{fill:#f0f0f0;}.cls-47,.cls-50{fill:#2e9099;}.cls-48,.cls-49{fill:#ffd8bb;}.cls-50{opacity:0.06;}.cls-51,.cls-52{fill:#ebe4de;}.cls-52{opacity:0.3;}.cls-53{fill:#c6b7ac;opacity:0.34;}.cls-54,.cls-55{fill:#fc5166;}.cls-56{fill:#fff;}.cls-57,.cls-58{fill:#ef8446;}.cls-58{opacity:0.13;}.cls-59{fill:#499e61;}.cls-60{fill:#bcbcbc;}.cls-61,.cls-62{fill:#a8ddc4;}.cls-62{opacity:0.18;}.cls-63{fill:#fcfaeb;}.cls-64{fill:#fffef5;}</style></defs><title>Asset 9</title><g class="cls-1"><g id="Layer_2" data-name="Layer 2"><g id="Layer_1-2" data-name="Layer 1"><path class="cls-2" d="M18.4,64.77c2.31,33.7,150.79,61.65,155.89-1.92S170.39-2,104.74,17.78,16.9,43,18.4,64.77Z"/><path class="cls-3" d="M192,109.2c0,3.32-43,6-96,6s-96-2.69-96-6,43-6,96-6S192,105.87,192,109.2Z"/><path class="cls-4" d="M130.76,55.18s2.32-.65,2.5.42.19,4.75-2.65,4C128.07,58.87,129.62,55.11,130.76,55.18Z"/><path class="cls-5" d="M109.07,39.36c3.76,0,5.84,11.63,12.54,13.08,6.08,1.31,9.52,2.3,9.52,2.3s.51,4.56-.34,5-10.12.16-15.51-3.21C109.47,52.92,99.76,39.37,109.07,39.36Z"/><path class="cls-6" d="M122.52,57.13A28.79,28.79,0,0,1,116,50a11.11,11.11,0,0,1-1.86-4.79c-1.8-3-3.25-5.89-5.11-5.89-9.31,0,.4,13.56,6.21,17.18,3,1.9,7.47,2.62,10.89,2.8A18.9,18.9,0,0,1,122.52,57.13Z"/><path class="cls-7" d="M97.56,105.7c-.44.15-.88,3-.2,3s8.52,1.08,9-.38-2.8-2.55-4.89-2.69A22.7,22.7,0,0,0,97.56,105.7Z"/><path class="cls-8" d="M103.32,105.94a10.77,10.77,0,0,0-1.9-.32,22.7,22.7,0,0,0-3.86.08c-.44.15-.88,3-.2,3,.52,0,5.26.64,7.63.27A5.1,5.1,0,0,1,103.32,105.94Z"/><path class="cls-9" d="M94.54,76.91c.4-.26,11.93,1.44,12,2.52.56,15.56-4.22,24.85-3.58,26.61.32.91-5.74,1.29-5.8.61C96.35,97.21,96.89,92.31,94.54,76.91Z"/><path class="cls-10" d="M87.3,74.74c-.67.53-.15,31.88.94,32.08s4.57.1,4.81-.34,5.67-18.54,7-30.75C100.17,74.85,88.57,73.75,87.3,74.74Z"/><path class="cls-11" d="M114.43,16.48c-.22.12.19,5.24-1.31,7.33s-.89-4.78-.47-6.39A1.21,1.21,0,0,1,114.43,16.48Z"/><path class="cls-12" d="M110.59,55.72c-.18,3.46-2.38,27-2.81,26.93s-21.54-.37-22.64-.85S86.43,73.55,89,59.57,93.57,35,100.19,36.89l6,1.26a3.86,3.86,0,0,1,3.36,2.21C110.77,42.73,111,47.62,110.59,55.72Z"/><path class="cls-13" d="M99.48,63.06a41.32,41.32,0,0,1-1.81-14.28,29.85,29.85,0,0,1,2.72-11.85l-.2,0C93.57,35,91.61,45.6,89,59.57S84,81.33,85.14,81.8s22.22.8,22.64.85c.15,0,.2-.89.66-5C104.13,74,101.16,68.45,99.48,63.06Z"/><polygon class="cls-14" points="80.91 55.05 99.34 58.27 96.87 71.97 77.76 68.67 80.91 55.05"/><path class="cls-5" d="M99.62,81.24l-.52-.1c2.1-10.25,4.31-31.21,4.33-31.42l.52.06C103.93,50,101.72,71,99.62,81.24Z"/><path class="cls-15" d="M85.09,66.9s-1.36,3,.41,3.79c2,.86,1.55-.07,2.13-.45s1.27-.1,1.57-2.08C89.44,66.62,85.89,65.72,85.09,66.9Z"/><path class="cls-16" d="M89,69.11a5.64,5.64,0,0,0,.22-1c.24-1.54-3.31-2.44-4.11-1.26a11.91,11.91,0,0,0-.47,2.62A7.88,7.88,0,0,1,89,69.11Z"/><path class="cls-17" d="M104.81,49.38c-.57,1.08-1.45,1.73-2.61.62-.38-.37-.77-.74-1.14-1.12-3-3.14-3-12.3-2.13-12.15,0,0,6.2.47,7,.69C106.83,43,105.46,48.15,104.81,49.38Z"/><path class="cls-14" d="M103.59,41.82a12.17,12.17,0,0,1,1.53,2.91,52.65,52.65,0,0,1-.58,5.52l-1,.62c-.66-.35-2.62-1.76-2.49-2.55.25-1.49.35-3.22.44-3.74A19.45,19.45,0,0,1,103,41.72Z"/><path class="cls-18" d="M105.61,37.31s1.94,8.14-2.11,13.56c0,0,3.58-1.37,4.21-2.61.46-.89-.12-3.43-.12-3.43s1.68-2,1.56-3.37S107.13,37.63,105.61,37.31Z"/><path class="cls-18" d="M98.27,36.53s-.28,9.6,5.23,14.34c0,0-4.55-1.39-5-2.09s-.26-3.29-.26-3.29-3.42-1.81-3.84-3.3C93.83,40.38,96.42,36.84,98.27,36.53Z"/><path class="cls-19" d="M98.27,36.48s-.72,3.24,3.16,4.57c.39.14,1.54-1.86,1.54-1.86s1,1.88,1.45,1.82,2.26-2.7,1.19-3.7S98.27,36.48,98.27,36.48Z"/><path class="cls-4" d="M104.84,33.35l.78,3.92s-2.86,3.61-7.35-.79l2.06-3.82Z"/><path class="cls-20" d="M98.74,35.62l1.59-3,4.51.69.77,3.89A13.89,13.89,0,0,1,98.74,35.62Z"/><path class="cls-15" d="M94.19,22.61S95.35,10.9,104.88,12c7.61.85,8.32,4.72,8.32,4.72,1.21,7.23-.78,14.59-3.25,16.89-1.81,1.69-5.58,2.55-9.08,1-2.86-1.3-4.5-2.82-6.07-7.13"/><path class="cls-21" d="M94.19,22.61s.69-6.95,5.37-9.65a15.54,15.54,0,0,0,.11,12.26,16.2,16.2,0,0,0,6.85,7.94A13.6,13.6,0,0,0,109,34.29a9.08,9.08,0,0,1-8.1.25c-2.86-1.3-4.5-2.82-6.07-7.13"/><path class="cls-22" d="M103,39.19c.35,0,1.55,1.46,1.45,1.82s-.58,1.45-.94,1.44-2.22-1.08-2.22-1.46S103,39.19,103,39.19Z"/><path class="cls-7" d="M87.23,108.76c.1.35,6.36.59,6.53-.13a2.59,2.59,0,0,0-2.9-3C88.24,105.89,86.84,107.33,87.23,108.76Z"/><path class="cls-8" d="M91.69,105.7a5.27,5.27,0,0,1-4.38,1.9,1.78,1.78,0,0,0-.08,1.16c.1.35,6.36.59,6.53-.13A2.62,2.62,0,0,0,91.69,105.7Z"/><path class="cls-23" d="M105.26,67.28c-.42.48-.9,8.51-.26,8.68s3.54.56,3.54.56l.9-8.53Z"/><path class="cls-15" d="M132.5,54.84c-.9.08-1.81,2.49-1.3,3.81s1.92,1.75,2.37.39S134.58,54.63,132.5,54.84Z"/><path class="cls-16" d="M132.54,54.83h0c-.9.08-1.81,2.49-1.3,3.81s1.79,1.71,2.3.57A4.7,4.7,0,0,1,132.54,54.83Z"/><path class="cls-5" d="M94.61,38.15C90.15,37,83.86,66.55,84.19,66.58s5.3,1.83,5.62,1.36S100.14,39.59,94.61,38.15Z"/><path class="cls-6" d="M84.63,64a14.59,14.59,0,0,0-.44,2.63c.32,0,5.3,1.83,5.62,1.36s7.55-20.6,6.32-27.54C95.1,43.15,90.22,57.35,84.63,64Z"/><path class="cls-24" d="M94.4,22.58c.58.11,2-1.88,3-5.43,0,0,1.17,1,3-.5,0,0,2.9,1.35,5.23,0,0,0,3.95.77,5.88-.49,0,0,1.67,2.35,3.69.69s.32-5.6-1.62-4.16a2.93,2.93,0,0,0-4-2.29,3.15,3.15,0,0,0-4.9-.23s-1.84-3-4.81-.27a3,3,0,0,0-3.58,2.88s-3.35.5-2.41,3.56a2.17,2.17,0,0,0-1.08,3S93.19,22.35,94.4,22.58Z"/><path class="cls-25" d="M99.85,9.9l-.13,0A8.29,8.29,0,0,0,100.1,14,8.91,8.91,0,0,0,102,17.13a5.89,5.89,0,0,0,2.4,0,9.9,9.9,0,0,1-2.8-8.26A4.36,4.36,0,0,0,99.85,9.9Z"/><path class="cls-26" d="M133.16,71.48l-.36-.4c1.26-1.13,2.33-24.72,2.74-40.31l.54,0C136,34.78,135,69.83,133.16,71.48Z"/><path class="cls-27" d="M165.66,105.91c0,1,0,1.78,1.77,1.78a1.78,1.78,0,1,0-1.77-1.78Z"/><path class="cls-28" d="M165,105.91a1.78,1.78,0,1,0,1.77-1.77A1.78,1.78,0,0,0,165,105.91Z"/><path class="cls-27" d="M141,105.91c0,1,0,1.78,1.77,1.78a1.78,1.78,0,1,0-1.77-1.78Z"/><path class="cls-28" d="M140.39,105.91a1.78,1.78,0,1,0,1.77-1.77A1.78,1.78,0,0,0,140.39,105.91Z"/><rect class="cls-29" x="154.48" width="1.08" height="103.14"/><rect class="cls-29" x="169.6" width="1.08" height="9.18"/><rect class="cls-29" x="136.12" width="1.08" height="7.56"/><rect class="cls-30" x="139.9" y="102.06" width="30.24" height="2.7"/><rect class="cls-29" x="136.12" width="34.56" height="1.08"/><path class="cls-31" d="M131.26,23.26c0,.63,3,4.28,3.59,4.28h3.45c.62,0,3.76-3.65,3.76-4.28V8.53a.85.85,0,0,0-.93-1h-9.07c-.62,0-.8.34-.8,1Z"/><path class="cls-26" d="M131.26,17.23v6c0,.63,3,4.28,3.59,4.28h3.45c.62,0,3.76-3.65,3.76-4.28V16.85Q136.66,17.12,131.26,17.23Z"/><rect class="cls-31" x="136.66" y="27.54" width="0.54" height="2.7"/><rect class="cls-31" x="135.58" y="27.54" width="0.54" height="3.78"/><path class="cls-32" d="M124.24,77.58s13.83.9,16.3-.54S166.48,53.43,168,54.11,180,58,178.59,58.5,147.34,84.56,144,85.14s-17.52.16-17.52.16Z"/><path class="cls-33" d="M131.49,81.14c2.89-1.62,3.54-4,8.19-12.84s2.57-13.66,2.57-13.66-5.69-1.86-6.78-1.18S123.6,57,114.94,70.78C113.11,73.71,122.09,86.43,131.49,81.14Z"/><path class="cls-34" d="M142.25,54.64l-1-.29a23,23,0,0,1-4.55,5.33,30.92,30.92,0,0,1-8.29,5.72A22.53,22.53,0,0,1,117.59,67c-.9,1.17-1.79,2.43-2.65,3.81-1.83,2.93,7.15,15.65,16.55,10.36,2.89-1.62,3.54-4,8.19-12.84S142.25,54.64,142.25,54.64Z"/><path class="cls-35" d="M129.14,56.52s9.61,1.28,13.19-3.45-6.75-.45-6.75-.45Z"/><path class="cls-36" d="M168.08,54.16c-3.06,6.06-6.42,11.92-11.21,16.77a40.71,40.71,0,0,1-16.16,10c-4.78,1.59-10.07,2.5-15.06,1.59l.79,2.77s14.13.43,17.52-.16S177.16,59,178.59,58.5,169.91,54.94,168.08,54.16Z"/><path class="cls-37" d="M140.79,75.84s-1.6,1.66-.59,2.25,1.91-1,1.91-1S161.49,68.22,162.49,48c0,0,2.08-1.14,1.27-2.84S160.81,47,160.81,47,138,50.4,140.79,75.84Z"/><path class="cls-38" d="M157.75,47.78c-6.12,2-19.1,8.5-17,28.06,0,0-1.6,1.66-.59,2.25s1.91-1,1.91-1,14.81-6.75,19.21-22A10.78,10.78,0,0,1,157.75,47.78Z"/><rect class="cls-39" x="165.28" y="67.5" width="1.62" height="23.76"/><path class="cls-40" d="M180.71,53.49l-1.46,1.25a15,15,0,0,0-14.7-.13l-.06,0A17.75,17.75,0,0,0,162.43,56c-8.49,6.32-20,16.53-21,17.42-.59.55-2.11,2,2.26,10.27a6.5,6.5,0,0,1-2.8.59c-2.63.09-10.64,0-10.73,0h0a1.62,1.62,0,0,0,0,3.24c.22,0,3.68,0,6.8,0,1.62,0,3.15,0,4.07,0,4.08-.13,5.78-1.42,15.28-9.18C165,71.24,182.65,56.12,182.81,56a9,9,0,0,0,.76-3.84C183.56,51.21,181.39,52.91,180.71,53.49ZM176.58,57l-4.92,4.18-3.78-4.55A11.54,11.54,0,0,1,176.58,57Zm-12.21,1.54c.18-.14.37-.27.56-.39l4.26,5.13L163,68.53,158.64,63C160.6,61.44,162.55,59.91,164.37,58.56Zm-20.43,17c.61-.56,2-1.8,3.89-3.43l3.93,5.75c-2.31,1.86-4,3.18-5.27,4.11A25.5,25.5,0,0,1,143.94,75.51Zm10.34.27-4-5.83c1.77-1.51,3.77-3.19,5.83-4.88l4.38,5.54C158.2,72.54,156.05,74.33,154.28,75.78Z"/><path class="cls-41" d="M135.81,84.28h-2.89A14.68,14.68,0,0,0,135.81,84.28Z"/><path class="cls-42" d="M180.71,53.49l-1.46,1.25a14.67,14.67,0,0,0-5.37-1.84c-.52,1-1.06,2.06-1.62,3.08a12,12,0,0,1,4.32,1l-4.92,4.18-1.43-1.72c-.59,1-1.2,1.93-1.84,2.86l.8,1-3.88,3.27a60.54,60.54,0,0,1-4.56,5.18,47.09,47.09,0,0,1-15.17,10.66c-.69.29-1.39.55-2.09.79l.23.45a6.5,6.5,0,0,1-2.8.59c-.37,0-.85,0-1.4,0a27.83,27.83,0,0,1-3,.45,12.21,12.21,0,0,1-5.83-.47h-.47a1.62,1.62,0,0,0,0,3.24c.22,0,3.68,0,6.8,0,1.62,0,3.15,0,4.07,0,4.08-.13,5.78-1.42,15.28-9.18C165,71.24,182.65,56.12,182.81,56a9,9,0,0,0,.76-3.84C183.56,51.21,181.39,52.91,180.71,53.49Z"/><path class="cls-43" d="M28.53,104.91a2.74,2.74,0,1,1-2.74-2.73A2.74,2.74,0,0,1,28.53,104.91Z"/><rect class="cls-44" x="24.87" y="96.12" width="2.7" height="7.02"/><path class="cls-45" d="M22.55,104.89a3.22,3.22,0,0,1,6.44,0c0,1.78-2.11-.7-3.58.3C22.44,107.2,22.55,106.67,22.55,104.89Z"/><path class="cls-43" d="M47.38,104.91a2.74,2.74,0,1,1-2.74-2.73A2.74,2.74,0,0,1,47.38,104.91Z"/><rect class="cls-44" x="43.77" y="96.12" width="3.24" height="7.02"/><path class="cls-45" d="M41.4,104.89a3.22,3.22,0,0,1,6.44,0c0,1.78-2.11-.7-3.58.3C41.29,107.2,41.4,106.67,41.4,104.89Z"/><path class="cls-43" d="M126.44,104.91a2.74,2.74,0,1,1-2.73-2.73A2.73,2.73,0,0,1,126.44,104.91Z"/><rect class="cls-44" x="122.62" y="96.12" width="3.24" height="7.02"/><path class="cls-45" d="M120.46,104.89a3.23,3.23,0,0,1,6.45,0c0,1.78-2.12-.7-3.59.3C120.35,107.2,120.46,106.67,120.46,104.89Z"/><path class="cls-43" d="M145.29,104.91a2.74,2.74,0,1,1-2.73-2.73A2.73,2.73,0,0,1,145.29,104.91Z"/><rect class="cls-44" x="141.52" y="96.12" width="3.24" height="7.02"/><path class="cls-45" d="M139.31,104.89a3.23,3.23,0,0,1,6.45,0c0,1.78-2.12-.7-3.59.3C139.2,107.2,139.31,106.67,139.31,104.89Z"/><rect class="cls-46" x="21.63" y="91.8" width="127.99" height="6.48"/><rect class="cls-40" x="13.53" y="90.18" width="138.25" height="1.62"/><path class="cls-47" d="M56.8,93.33c-.08,2.79,15.21.62,32.62.43s43.34,2.09,43.74,1.28.51-6.74-1.45-14.31c-3.06-11.77-1.94-14.14-11.25-10.86-10.53,3.71-19.06-1.66-28.86.24-8.43,1.63-20.2,3.24-28.93.77C55.62,68.88,57.19,79.84,56.8,93.33Z"/><path class="cls-48" d="M113.12,68.19s-5.2.26-5.44,1.67,3.72,1.76,5.22,1.32S113.12,68.19,113.12,68.19Z"/><path class="cls-49" d="M108.44,69.1c-.41.21-.7.46-.76.76-.23,1.41,3.72,1.76,5.22,1.32.73-.21.8-.93.68-1.61A7.27,7.27,0,0,1,108.44,69.1Z"/><path class="cls-50" d="M131.42,79.6a34.13,34.13,0,0,1-9.8,4.86c-8.21,2.67-17.81,3.72-26.28,1.63C89.41,84.64,85.1,80.81,80.56,77a36.38,36.38,0,0,0-6.75-4.82,40.27,40.27,0,0,1-11.14-1.27c-7.05-2-5.48,9-5.87,22.45-.08,2.79,15.21.62,32.62.43s43.34,2.09,43.74,1.28.51-6.74-1.45-14.31C131.61,80.35,131.51,80,131.42,79.6Z"/><path class="cls-51" d="M58.89,68.58a2.16,2.16,0,0,0-2.16-2.16H9.21a2.16,2.16,0,0,0-2.16,2.16V88a2.16,2.16,0,0,0,2.16,2.16H56.73A2.15,2.15,0,0,0,58.89,88ZM20.55,71.92A1.52,1.52,0,0,1,19,73.44h-8.3a1.52,1.52,0,0,1-1.52-1.52v-.2a1.52,1.52,0,0,1,1.52-1.52H19a1.52,1.52,0,0,1,1.52,1.52Z"/><path class="cls-52" d="M56.73,66.42h-4.4a62.93,62.93,0,0,1-14,9.72A82.53,82.53,0,0,1,18.19,83,71.94,71.94,0,0,1,7.05,84.54V88a2.16,2.16,0,0,0,2.16,2.16H56.73A2.15,2.15,0,0,0,58.89,88V68.58A2.16,2.16,0,0,0,56.73,66.42Z"/><rect class="cls-53" x="8.67" y="74.52" width="48.6" height="14.04" rx="2.16" ry="2.16"/><path class="cls-54" d="M39.56,62c-.81-2-1.92-.71-2.66-.42-.74-.29-1.85-1.54-2.66.42a3,3,0,0,0,1.69,3.78c.58.15.67-.29,1-.33s.4.48,1,.33A2.94,2.94,0,0,0,39.56,62Z"/><path class="cls-55" d="M37.16,63.33a4.28,4.28,0,0,1-1.63-2.39c-.45-.07-.9.13-1.29,1.06a3,3,0,0,0,1.69,3.78c.58.15.67-.29,1-.33s.4.48,1,.33a3.11,3.11,0,0,0,1.59-1.45A5.6,5.6,0,0,1,37.16,63.33Z"/><rect class="cls-56" x="26.82" y="55.63" width="6.68" height="0.81" transform="translate(-31.44 71.98) rotate(-76.22)"/><rect class="cls-57" x="27.03" y="55.62" width="5.4" height="9.72" rx="0.54" ry="0.54"/><path class="cls-58" d="M30.83,61.34a8.67,8.67,0,0,1-1.9-5.72H27.57a.54.54,0,0,0-.54.54V64.8a.54.54,0,0,0,.54.54h4.32a.54.54,0,0,0,.54-.54V62.44A4.26,4.26,0,0,1,30.83,61.34Z"/><path class="cls-59" d="M36.9,61.58s-.46-.92.35-1.25C37.25,60.33,37.88,61.23,36.9,61.58Z"/><path class="cls-60" d="M45.93,66a.4.4,0,0,1-.4.4h-24a.4.4,0,0,1-.41-.4v-.27c0-.23,0-.41.05-.41H45.53c.48,0,.4,0,.4.41Z"/><path class="cls-51" d="M171.16,75.47,148.51,85.91c-1.61.72-2.13,1-2.13,2.16v5.76a2.17,2.17,0,0,0,2,2.29h22.68a2.39,2.39,0,0,0,2.29-2.29V77.63A2.22,2.22,0,0,0,171.16,75.47Zm.06,10.69a1.32,1.32,0,0,1-1.32,1.32h-.06a1.32,1.32,0,0,1-1.32-1.32V79.63a1.33,1.33,0,0,1,1.32-1.33h.06a1.33,1.33,0,0,1,1.32,1.33Z"/><path class="cls-53" d="M164,82.26l-12.15,5.58c-.86.39-1.18.52-1.18,1.16v3.08c0,.63.47.8,1.11.8h12.12c.64,0,1.35-.17,1.35-.8V83.42A1.25,1.25,0,0,0,164,82.26Z"/><circle class="cls-29" cx="170.14" cy="9.18" r="0.99"/><circle class="cls-29" cx="136.66" cy="9.72" r="0.99"/><path class="cls-61" d="M136.72,57.35c3.34,1.53-1.21,13.54-10.4,14.62s-13.54.41-13.62-.07-.41-4,.45-4.4c.56-.23,8.91,0,12-1.08C130.28,64.62,132.4,55.37,136.72,57.35Z"/><path class="cls-62" d="M137.06,57.56a41.35,41.35,0,0,1-2.85,4,21.15,21.15,0,0,1-7.34,6.28c-4,1.9-10.31,3.33-14.18.48a13.36,13.36,0,0,0,0,3.53c.08.48,4.43,1.15,13.62.07C135.17,70.93,139.71,59.75,137.06,57.56Z"/><path class="cls-48" d="M135.23,52.52c4.85,3.61,14.1,3.46,19.4-5.19S147.47,28.58,139.1,35,130.47,49,135.23,52.52Z"/><path class="cls-63" d="M147.41,33s7.89,1.84,8.49,8.66C155.9,41.7,150,41.25,147.41,33Z"/><path class="cls-64" d="M151.91,34.79s-1.8,7.24-1.48,7.47,4.68-3.78,4.36-4.1S152.4,34.83,151.91,34.79Z"/><path class="cls-63" d="M141.26,33.35l3.27-.63s8.64,17.28,8.28,17.59-2.43,1.75-2.62,1.88S141.26,33.35,141.26,33.35Z"/><path class="cls-64" d="M138.28,35.15c-.23.22,13.93,15.13,14.32,14.9a29.21,29.21,0,0,0,2.19-2.35c.09-.09-13.16-14.53-13.53-14.35S138.28,35.15,138.28,35.15Z"/><path class="cls-64" d="M144.53,32.72a10.34,10.34,0,0,1,2.51-.18c.33.18,8.52,13.77,8.52,13.77a18.14,18.14,0,0,1-2.48,2.38C152.5,49,144.24,32.84,144.53,32.72Z"/><path class="cls-63" d="M138.27,35.66l3.34-2.06s15,7.67,14.94,8.1-.77,4.12-1.22,4.23S138.27,36.18,138.27,35.66Z"/></g></g></g></svg>