<svg xmlns="http://www.w3.org/2000/svg" viewBox="0 0 161.47 176.63"><defs><style>.cls-1{isolation:isolate;}.cls-2,.cls-20{fill:#fff;}.cls-3{fill:#dcd9c8;}.cls-4{fill:#df4937;}.cls-5{fill:#edefe0;}.cls-6{fill:#485678;}.cls-10,.cls-14,.cls-21,.cls-7{fill:#1d1d1b;}.cls-7{opacity:0.1;}.cls-8{fill:#0593a1;}.cls-18,.cls-9{fill:#06aaba;}.cls-10{opacity:0.15;}.cls-11{fill:#344166;}.cls-12{fill:#9d9d9c;}.cls-13{fill:#f1eedb;}.cls-14{opacity:0.05;}.cls-15{fill:#e0c5b4;}.cls-16{fill:#a18d81;}.cls-17{fill:#28324e;}.cls-18,.cls-19,.cls-20,.cls-45{opacity:0.3;}.cls-21,.cls-29{opacity:0.2;}.cls-22{fill:#f89f26;}.cls-23{fill:#3c3c3b;}.cls-24{fill:#634e42;}.cls-25{fill:#f6f6f6;}.cls-26{fill:#b2b2b2;}.cls-27{fill:#deab7d;}.cls-28{fill:#ffc994;}.cls-30,.cls-37{fill:#dadada;}.cls-30{mix-blend-mode:screen;}.cls-31{fill:#4da9d6;}.cls-32{fill:#54b9eb;}.cls-33{fill:#575756;}.cls-34{fill:#878787;}.cls-35{fill:#4393ba;}.cls-36{fill:#ededed;}.cls-38,.cls-45{fill:#e94e1b;}.cls-39{fill:#fac48e;}.cls-40{fill:#ffcf9f;}.cls-41{fill:#959594;}.cls-42{fill:#706f6f;}.cls-43{fill:#c94317;}.cls-44{fill:#c6c6c6;}.cls-46{fill:#4fe3c6;}.cls-47{fill:#e8e8e8;}.cls-48{fill:#1abb9b;}.cls-49{fill:#e04938;}</style></defs><title>Asset 4</title><g class="cls-1"><g id="Layer_2" data-name="Layer 2"><g id="Layer_1-2" data-name="Layer 1"><path class="cls-2" d="M16.57,98.83a.25.25,0,0,1-.25-.23l0-.5a.25.25,0,0,1,.24-.26.22.22,0,0,1,.26.23l0,.5a.25.25,0,0,1-.23.26Z"/><path class="cls-2" d="M16.45,96.36a.25.25,0,0,1-.25-.24l0-1a.26.26,0,0,1,.25-.26h0a.25.25,0,0,1,.25.25l0,1a.24.24,0,0,1-.24.26Zm-.06-3a.25.25,0,0,1-.25-.25v-1a.25.25,0,0,1,.25-.25.25.25,0,0,1,.25.25v1a.25.25,0,0,1-.25.25Zm0-3h0a.25.25,0,0,1-.24-.25l0-1a.26.26,0,0,1,.25-.24.25.25,0,0,1,.25.25l0,1A.24.24,0,0,1,16.41,90.43Zm.11-3h0a.24.24,0,0,1-.23-.26c0-.33,0-.66.05-1a.25.25,0,0,1,.26-.24.26.26,0,0,1,.24.27l-.06,1A.24.24,0,0,1,16.52,87.47Zm.19-3h0a.25.25,0,0,1-.23-.27c0-.33.05-.66.08-1a.25.25,0,0,1,.5,0c0,.33-.06.65-.08,1A.25.25,0,0,1,16.71,84.51Zm.27-3h0a.24.24,0,0,1-.22-.27c0-.33.07-.66.11-1a.26.26,0,0,1,.28-.22.25.25,0,0,1,.21.28c0,.33-.07.65-.11,1A.24.24,0,0,1,17,81.56Zm.37-2.94h0a.26.26,0,0,1-.21-.29c0-.32.09-.65.14-1a.25.25,0,1,1,.5.08c0,.32-.1.65-.14,1A.26.26,0,0,1,17.35,78.62Zm.45-2.93h0a.26.26,0,0,1-.21-.29c.06-.33.12-.65.17-1a.25.25,0,0,1,.29-.2.25.25,0,0,1,.21.29c-.06.32-.12.65-.17,1A.26.26,0,0,1,17.8,75.69Zm.54-2.92h-.05a.26.26,0,0,1-.2-.3c.07-.32.14-.64.2-1a.27.27,0,0,1,.3-.19.25.25,0,0,1,.19.3c-.06.32-.13.64-.2,1A.24.24,0,0,1,18.34,72.77Z"/><path class="cls-2" d="M19,69.88h-.06a.25.25,0,0,1-.19-.3l.12-.49a.25.25,0,1,1,.48.12l-.11.48A.25.25,0,0,1,19,69.88Z"/><path class="cls-2" d="M20,119.46a.25.25,0,0,1-.24-.18l-.14-.49a.25.25,0,0,1,.49-.13l.13.48a.25.25,0,0,1-.17.31Z"/><path class="cls-2" d="M19.29,116.74a.26.26,0,0,1-.24-.19c-.09-.38-.19-.75-.27-1.13a.25.25,0,1,1,.48-.11l.27,1.12a.24.24,0,0,1-.18.3Zm-.77-3.38a.26.26,0,0,1-.25-.2c-.08-.38-.15-.76-.23-1.14a.24.24,0,0,1,.2-.29.25.25,0,0,1,.29.2c.08.37.15.75.23,1.13a.25.25,0,0,1-.19.29Z"/><path class="cls-2" d="M17.86,110a.25.25,0,0,1-.24-.21l-.09-.49a.25.25,0,0,1,.21-.29.25.25,0,0,1,.29.2l.08.49a.25.25,0,0,1-.2.29Z"/><path class="cls-2" d="M57,167.94a.25.25,0,0,1-.12,0l-.44-.23a.25.25,0,0,1-.11-.34.24.24,0,0,1,.33-.1l.45.22a.26.26,0,0,1,.11.34A.25.25,0,0,1,57,167.94Z"/><path class="cls-2" d="M54.77,166.75a.19.19,0,0,1-.12,0q-.45-.24-.9-.51a.25.25,0,1,1,.25-.43l.9.51a.25.25,0,0,1-.13.47Zm-2.66-1.58a.22.22,0,0,1-.13,0l-.87-.56a.25.25,0,0,1-.08-.34.26.26,0,0,1,.35-.08l.86.56a.25.25,0,0,1-.13.46Zm-2.58-1.71a.24.24,0,0,1-.14-.05l-.84-.6a.25.25,0,0,1-.06-.35.24.24,0,0,1,.35-.05l.84.59a.25.25,0,0,1,.06.35A.26.26,0,0,1,49.53,163.46Zm-2.48-1.84a.3.3,0,0,1-.16-.05l-.81-.64a.26.26,0,0,1,0-.36.25.25,0,0,1,.35,0l.81.63a.24.24,0,0,1,0,.35A.23.23,0,0,1,47.05,161.62Zm-2.4-2a.23.23,0,0,1-.16-.06l-.79-.67a.26.26,0,0,1,0-.36.25.25,0,0,1,.35,0l.78.67a.25.25,0,0,1,0,.36A.27.27,0,0,1,44.65,159.66Zm-2.31-2.06a.23.23,0,0,1-.17-.07l-.75-.71a.25.25,0,0,1,0-.36.25.25,0,0,1,.35,0l.75.71a.25.25,0,0,1,0,.35A.27.27,0,0,1,42.34,157.6Zm-2.2-2.17a.24.24,0,0,1-.18-.07l-.72-.75a.25.25,0,0,1,0-.35.24.24,0,0,1,.35,0l.72.74a.25.25,0,0,1,0,.35A.23.23,0,0,1,40.14,155.43ZM38,153.17a.27.27,0,0,1-.19-.08l-.69-.78a.25.25,0,1,1,.38-.32c.23.25.45.51.68.77a.25.25,0,0,1,0,.35A.27.27,0,0,1,38,153.17Z"/><path class="cls-2" d="M36,150.81a.25.25,0,0,1-.19-.09l-.32-.39a.25.25,0,1,1,.39-.31l.32.38a.25.25,0,0,1,0,.35A.25.25,0,0,1,36,150.81Z"/><path class="cls-2" d="M110.78,161.42a.22.22,0,0,1-.2-.11.24.24,0,0,1,.06-.34l.42-.29a.24.24,0,0,1,.34.06.24.24,0,0,1-.06.35l-.41.29A.28.28,0,0,1,110.78,161.42Z"/><path class="cls-2" d="M105.69,164.53a.26.26,0,0,1-.22-.14.24.24,0,0,1,.11-.33l.86-.48a.25.25,0,0,1,.25.43l-.88.49A.21.21,0,0,1,105.69,164.53Zm2.59-1.49a.25.25,0,0,1-.13-.46l.84-.53a.24.24,0,0,1,.34.08.26.26,0,0,1-.07.35l-.85.52A.22.22,0,0,1,108.28,163Z"/><path class="cls-2" d="M103.48,165.66a.25.25,0,0,1-.11-.48l.45-.22a.24.24,0,0,1,.33.12.25.25,0,0,1-.11.33l-.45.22A.2.2,0,0,1,103.48,165.66Z"/><path class="cls-2" d="M132.32,141.93a.28.28,0,0,1-.13,0,.26.26,0,0,1-.09-.35l.26-.42a.26.26,0,0,1,.35-.09.26.26,0,0,1,.08.34l-.26.43A.25.25,0,0,1,132.32,141.93Z"/><path class="cls-2" d="M125.65,151.26a.25.25,0,0,1-.19-.41l.6-.74a.25.25,0,1,1,.39.32l-.61.74A.28.28,0,0,1,125.65,151.26Zm1.79-2.24a.3.3,0,0,1-.15-.05.24.24,0,0,1,0-.35l.57-.76a.26.26,0,0,1,.35-.05.24.24,0,0,1,.05.35c-.19.25-.38.51-.58.76A.26.26,0,0,1,127.44,149Zm1.72-2.3a.27.27,0,0,1-.15-.05.25.25,0,0,1-.06-.35l.55-.78a.25.25,0,1,1,.41.29l-.55.78A.26.26,0,0,1,129.16,146.72Zm1.62-2.37a.23.23,0,0,1-.14,0,.26.26,0,0,1-.07-.35c.18-.26.35-.53.52-.79a.26.26,0,0,1,.35-.08.26.26,0,0,1,.07.35l-.52.8A.26.26,0,0,1,130.78,144.35Z"/><path class="cls-2" d="M124.07,153.08a.23.23,0,0,1-.16-.06.24.24,0,0,1,0-.35l.33-.38a.25.25,0,0,1,.37.33l-.33.38A.24.24,0,0,1,124.07,153.08Z"/><path class="cls-2" d="M145.14,102.68h0a.26.26,0,0,1-.23-.28l.05-.49a.26.26,0,0,1,.27-.23.25.25,0,0,1,.23.27l-.05.5A.25.25,0,0,1,145.14,102.68Z"/><path class="cls-2" d="M144.25,109.42h0a.26.26,0,0,1-.21-.29l.18-1.12a.25.25,0,1,1,.5.08c-.06.37-.12.75-.19,1.12A.25.25,0,0,1,144.25,109.42Zm.5-3.36h0a.25.25,0,0,1-.22-.28l.15-1.12a.24.24,0,0,1,.28-.22.25.25,0,0,1,.21.28c0,.38-.09.75-.14,1.13A.25.25,0,0,1,144.75,106.06Z"/><path class="cls-2" d="M143.75,112.14h-.05a.25.25,0,0,1-.19-.29l.09-.49a.24.24,0,0,1,.29-.2.24.24,0,0,1,.2.29l-.09.49A.26.26,0,0,1,143.75,112.14Z"/><path class="cls-2" d="M142,65.72a.26.26,0,0,1-.24-.19l-.14-.48a.25.25,0,0,1,.17-.31.25.25,0,0,1,.31.18l.14.48a.26.26,0,0,1-.18.31Z"/><path class="cls-2" d="M144.49,77.39a.25.25,0,0,1-.24-.21c-.05-.33-.1-.66-.16-1a.25.25,0,0,1,.21-.29.26.26,0,0,1,.29.21l.15,1a.25.25,0,0,1-.21.29ZM144,74.45a.25.25,0,0,1-.24-.21c-.06-.33-.12-.65-.19-1a.25.25,0,0,1,.2-.29.25.25,0,0,1,.29.2c.07.33.13.65.19,1a.25.25,0,0,1-.2.29Zm-.58-2.94a.24.24,0,0,1-.24-.19c-.07-.33-.15-.65-.22-1a.25.25,0,0,1,.19-.3.25.25,0,0,1,.3.19l.21,1a.25.25,0,0,1-.19.3Zm-.67-2.91a.24.24,0,0,1-.24-.19c-.08-.32-.16-.64-.25-1a.25.25,0,0,1,.18-.3.25.25,0,0,1,.31.18l.24,1a.26.26,0,0,1-.18.31Z"/><path class="cls-2" d="M144.84,79.86a.24.24,0,0,1-.25-.22l-.06-.49a.24.24,0,0,1,.21-.28.25.25,0,0,1,.28.22l.07.49a.25.25,0,0,1-.22.28Z"/><path class="cls-2" d="M100.25,15.21h-.09L99.75,15l0-.26.09-.23-.09.23.15-.21.41.16a.25.25,0,0,1-.09.48Z"/><path class="cls-2" d="M124.22,32.34a.27.27,0,0,1-.19-.08l-.66-.74a.25.25,0,0,1,0-.35.25.25,0,0,1,.36,0l.66.74a.25.25,0,0,1,0,.35A.27.27,0,0,1,124.22,32.34Zm-2-2.18a.25.25,0,0,1-.18-.08l-.69-.71a.24.24,0,0,1,0-.35.25.25,0,0,1,.35,0l.7.71a.26.26,0,0,1,0,.36A.28.28,0,0,1,122.2,30.16Zm-2.11-2.1a.23.23,0,0,1-.17-.07l-.72-.68a.25.25,0,1,1,.34-.36l.72.68a.24.24,0,0,1,0,.35A.25.25,0,0,1,120.09,28.06Zm-2.19-2a.27.27,0,0,1-.17-.06l-.75-.64a.25.25,0,1,1,.33-.38l.75.65a.25.25,0,0,1,0,.35A.23.23,0,0,1,117.9,26.05Zm-2.29-1.9a.22.22,0,0,1-.15-.06l-.78-.6a.24.24,0,0,1,0-.35.25.25,0,0,1,.35-.05l.78.61a.26.26,0,0,1,0,.36A.25.25,0,0,1,115.61,24.15Zm-2.36-1.8a.2.2,0,0,1-.15-.05l-.8-.57a.25.25,0,0,1-.07-.35.25.25,0,0,1,.35-.06l.81.58a.25.25,0,0,1,.06.35A.25.25,0,0,1,113.25,22.35Zm-2.45-1.68a.33.33,0,0,1-.14,0l-.83-.54a.25.25,0,0,1,.26-.42l.84.54a.25.25,0,0,1-.13.46Zm-2.53-1.57a.28.28,0,0,1-.13,0c-.28-.17-.57-.33-.86-.49a.25.25,0,0,1-.09-.34.25.25,0,0,1,.34-.1l.86.5a.25.25,0,0,1,.09.34A.24.24,0,0,1,108.27,19.1Zm-2.61-1.43a.2.2,0,0,1-.11,0l-.88-.45a.24.24,0,0,1-.12-.33.25.25,0,0,1,.34-.11c.3.14.59.29.89.45a.24.24,0,0,1,.1.33A.24.24,0,0,1,105.66,17.67ZM103,16.37l-.11,0L102,16a.26.26,0,0,1-.13-.33.25.25,0,0,1,.33-.13l.91.4a.26.26,0,0,1,.13.33A.28.28,0,0,1,103,16.37Z"/><path class="cls-2" d="M125.84,34.24a.25.25,0,0,1-.19-.09l-.32-.38a.25.25,0,0,1,0-.35.24.24,0,0,1,.35,0l.33.38a.25.25,0,0,1,0,.35A.23.23,0,0,1,125.84,34.24Z"/><path class="cls-2" d="M63.77,14.48a.25.25,0,0,1-.08-.49l.47-.16a.26.26,0,0,1,.32.16.25.25,0,0,1-.16.31l-.46.16Z"/><path class="cls-2" d="M66.29,13.67a.26.26,0,0,1-.24-.18.26.26,0,0,1,.17-.31l1-.29a.25.25,0,0,1,.31.18.24.24,0,0,1-.18.3l-1,.29Zm3.12-.81a.26.26,0,0,1-.24-.19.25.25,0,0,1,.19-.3l1-.23a.25.25,0,1,1,.1.49l-1,.23Zm3.17-.62a.25.25,0,0,1,0-.49l1.07-.17a.26.26,0,0,1,.28.22.25.25,0,0,1-.21.28l-1.06.16Zm3.19-.42a.24.24,0,0,1-.24-.22.25.25,0,0,1,.22-.28l1.07-.09a.25.25,0,1,1,0,.49l-1.06.1ZM79,11.6a.25.25,0,0,1-.25-.24A.24.24,0,0,1,79,11.1l1.08,0h0a.25.25,0,0,1,.25.24.24.24,0,0,1-.24.26L79,11.6Z"/><path class="cls-2" d="M82.72,11.59h0l-.5,0a.25.25,0,0,1-.25-.25.29.29,0,0,1,.26-.25l.5,0a.24.24,0,0,1,.24.26A.25.25,0,0,1,82.72,11.59Z"/><path class="cls-2" d="M31.57,40.43a.33.33,0,0,1-.14,0,.25.25,0,0,1-.07-.35l.28-.42a.25.25,0,0,1,.35-.06.24.24,0,0,1,.06.34l-.28.42A.24.24,0,0,1,31.57,40.43Z"/><path class="cls-2" d="M33.06,38.28a.23.23,0,0,1-.15-.05.24.24,0,0,1,0-.34c.2-.29.41-.58.62-.86a.25.25,0,0,1,.4.3l-.62.85A.23.23,0,0,1,33.06,38.28ZM35,35.75a.25.25,0,0,1-.16-.06.24.24,0,0,1,0-.35l.66-.83a.25.25,0,0,1,.35,0,.26.26,0,0,1,0,.36l-.66.82A.26.26,0,0,1,35,35.75Zm2-2.46a.23.23,0,0,1-.16-.06.24.24,0,0,1,0-.35l.69-.8a.25.25,0,0,1,.36,0,.25.25,0,0,1,0,.35l-.69.79A.25.25,0,0,1,37,33.29Z"/><path class="cls-2" d="M39.09,30.92a.27.27,0,0,1-.17-.06.26.26,0,0,1,0-.36l.35-.36a.24.24,0,0,1,.35,0,.25.25,0,0,1,0,.35l-.34.37A.26.26,0,0,1,39.09,30.92Z"/><rect class="cls-3" x="125.05" y="39.59" width="1.01" height="1.78"/><rect class="cls-3" x="134.4" y="39.59" width="1.01" height="1.78"/><path class="cls-3" d="M142.32,64.31H118a5.09,5.09,0,0,1-4.93-5.24V46.16A5.08,5.08,0,0,1,118,40.93h24.3a5.09,5.09,0,0,1,4.93,5.23V59.07A5.1,5.1,0,0,1,142.32,64.31Z"/><path class="cls-2" d="M118,62.84a3.63,3.63,0,0,1-3.46-3.77V46.16A3.62,3.62,0,0,1,118,42.4h24.3a3.62,3.62,0,0,1,3.46,3.76V59.07a3.63,3.63,0,0,1-3.46,3.77Z"/><circle class="cls-4" cx="130.17" cy="52.62" r="7.14"/><rect class="cls-5" x="128.78" y="47.91" width="2.78" height="9.42"/><rect class="cls-5" x="125.46" y="51.23" width="9.42" height="2.78"/><path class="cls-6" d="M134.9,40.41a1,1,0,0,1-1-1V37.2a.34.34,0,0,0-.34-.34h-6.73a.34.34,0,0,0-.34.34v2.23a1,1,0,1,1-2,0V37.2a2.31,2.31,0,0,1,2.3-2.3h6.73a2.31,2.31,0,0,1,2.3,2.3v2.23A1,1,0,0,1,134.9,40.41Z"/><path class="cls-7" d="M114.18,62.36a4.82,4.82,0,0,0,3.84,2h24.3a5.1,5.1,0,0,0,4.93-5.24V46.16a5.88,5.88,0,0,0-.15-1.27C141.61,59.74,132.46,63.09,114.18,62.36Z"/><rect class="cls-2" x="132.19" y="117.25" width="14.39" height="2.88"/><rect class="cls-2" x="130.63" y="119.06" width="17.52" height="21.15" rx="2.28" ry="2.28"/><path class="cls-2" d="M145.93,113.36H132.84a1.41,1.41,0,0,0-1.41,1.42v2.77h15.91v-2.77A1.41,1.41,0,0,0,145.93,113.36Z"/><rect class="cls-2" x="130.63" y="123.5" width="17.52" height="10.7"/><circle class="cls-2" cx="133.96" cy="126.52" r="1.51"/><rect class="cls-2" x="137.53" y="125.04" width="8.79" height="0.89"/><rect class="cls-2" x="137.53" y="127.29" width="5.57" height="0.89"/><rect class="cls-2" x="132.46" y="129.55" width="13.86" height="0.89"/><rect class="cls-2" x="132.46" y="131.8" width="13.86" height="0.89"/><path class="cls-2" d="M130.63,137.92a2.29,2.29,0,0,0,2.28,2.29h13a2.29,2.29,0,0,0,2.28-2.29V121.34a2.19,2.19,0,0,0-.12-.73C145.33,129.59,139.89,135.35,130.63,137.92Z"/><rect class="cls-3" x="132.19" y="117.25" width="14.39" height="2.88"/><rect class="cls-2" x="130.63" y="119.06" width="17.52" height="21.15" rx="2.28" ry="2.28"/><path class="cls-2" d="M145.93,113.36H132.84a1.41,1.41,0,0,0-1.41,1.42v2.77h15.91v-2.77A1.41,1.41,0,0,0,145.93,113.36Z"/><rect class="cls-8" x="130.63" y="123.5" width="17.52" height="10.7"/><circle class="cls-5" cx="133.96" cy="126.52" r="1.51"/><rect class="cls-5" x="137.53" y="125.04" width="8.79" height="0.89"/><rect class="cls-5" x="137.53" y="127.29" width="5.57" height="0.89"/><rect class="cls-5" x="132.46" y="129.55" width="13.86" height="0.89"/><rect class="cls-5" x="132.46" y="131.8" width="13.86" height="0.89"/><path class="cls-7" d="M130.63,137.92a2.29,2.29,0,0,0,2.28,2.29h13a2.29,2.29,0,0,0,2.28-2.29V121.34a2.19,2.19,0,0,0-.12-.73C145.33,129.59,139.89,135.35,130.63,137.92Z"/><path class="cls-6" d="M150,86h-.31v-.91H150a1.37,1.37,0,0,0,1.36-1.22L153,69.35a2.47,2.47,0,0,1,2.43-2.16h1.83v.91h-1.84a1.53,1.53,0,0,0-1.52,1.35l-1.71,14.48A2.28,2.28,0,0,1,150,86Z"/><polygon class="cls-6" points="135.1 99.13 134.19 99.13 134.19 85.06 150.11 85.06 150.11 91.78 149.2 91.78 149.2 85.97 135.1 85.97 135.1 99.13"/><path class="cls-9" d="M150.44,70.74l-1.3,11.37a1.2,1.2,0,0,1-1.2,1.07H134.73a2.05,2.05,0,0,0-2.06,2v0h16.92a1.79,1.79,0,0,0,1.78-1.58l1.7-14.44-.61-.08A1.8,1.8,0,0,0,150.44,70.74Z"/><path class="cls-10" d="M152.46,69.15h-.25l-1.6,13.66a1.79,1.79,0,0,1-1.78,1.58h-16a2,2,0,0,0-.2.85v0h16.92a1.79,1.79,0,0,0,1.78-1.58l1.7-14.44Z"/><path class="cls-2" d="M136.39,99.13a3.72,3.72,0,1,1-3.72-3.72A3.72,3.72,0,0,1,136.39,99.13Z"/><path class="cls-11" d="M132.67,96.46A2.67,2.67,0,1,1,130,99.13a2.68,2.68,0,0,1,2.67-2.67Zm0-1a3.72,3.72,0,1,0,3.72,3.72,3.72,3.72,0,0,0-3.72-3.72Z"/><path class="cls-12" d="M133.51,98.29a1.19,1.19,0,0,1-1.67,1.68A1.19,1.19,0,0,1,133.51,98.29Z"/><rect class="cls-2" x="149.29" y="80.82" width="0.69" height="21.2" transform="translate(-22.85 59.83) rotate(-21.04)"/><rect class="cls-2" x="139.03" y="91.07" width="21.2" height="0.69" transform="translate(5.34 191.05) rotate(-66.05)"/><rect class="cls-2" x="139.03" y="91.07" width="21.2" height="0.69" transform="translate(-22.85 59.84) rotate(-21.05)"/><rect class="cls-2" x="149.29" y="80.82" width="0.69" height="21.2" transform="translate(5.33 191.04) rotate(-66.04)"/><path class="cls-13" d="M159.87,96a11.18,11.18,0,1,1-5.68-14.76A11.19,11.19,0,0,1,159.87,96Zm-19-8.46a9.65,9.65,0,1,0,12.73-4.9A9.66,9.66,0,0,0,140.84,87.51Z"/><path class="cls-11" d="M145.93,81.75a10.37,10.37,0,1,1-6,13.4,10.37,10.37,0,0,1,6-13.4Zm-.37-1a11.41,11.41,0,1,0,14.75,6.56,11.42,11.42,0,0,0-14.75-6.56Z"/><path class="cls-2" d="M150.74,89a2.67,2.67,0,1,1-3.53,1.36A2.67,2.67,0,0,1,150.74,89Z"/><path class="cls-12" d="M150.12,90.36a1.18,1.18,0,0,1-1,2.16A1.18,1.18,0,0,1,150.12,90.36Z"/><rect class="cls-9" x="156.21" y="66.92" width="5.27" height="1.52" rx="0.55" ry="0.55"/><path class="cls-14" d="M135.76,97.05A3.86,3.86,0,0,0,134.61,96a3.68,3.68,0,0,1,.55,1.94h0a3.64,3.64,0,0,1-.45,1.77,1.92,1.92,0,0,1-.18.31,3.44,3.44,0,0,1-.46.55,3.7,3.7,0,0,1-2.62,1.09,3.63,3.63,0,0,1-1.94-.55l.08.14c.14.2.39.32.46.55.18.61,1.23,1,2.62,1.09a3.59,3.59,0,0,0,2.63-1.09,4.06,4.06,0,0,0,.46-.55,3.14,3.14,0,0,0,.18-.31,3.64,3.64,0,0,0,.45-1.77h0A3.7,3.7,0,0,0,135.76,97.05Z"/><path class="cls-10" d="M158.34,84,157,85.16a9.51,9.51,0,0,1,1.55,2.47L152,90.14a2.42,2.42,0,0,0-.4-.55c1,3.13-2.11,4.5-4.11,3.39a2.72,2.72,0,0,0,.76.71l-2.83,6.39a9.67,9.67,0,0,1-3.31-2.67l-1.37,1.13A11.41,11.41,0,1,0,158.34,84ZM146,100.36,148.87,94a2.67,2.67,0,0,0,1.4,0l2.5,6.51A9.59,9.59,0,0,1,146,100.36Zm7.38-.06-2.51-6.51a2.66,2.66,0,0,0,1-1l6.38,2.83A9.63,9.63,0,0,1,153.42,100.3ZM158.6,95l-6.38-2.83a2.7,2.7,0,0,0,0-1.41l6.51-2.5A9.61,9.61,0,0,1,158.6,95Z"/><path class="cls-15" d="M100.69,16.35,95.05,22,79.29,7.22a2.17,2.17,0,0,1,.16-3.1L82.83.74a2.17,2.17,0,0,1,3.1-.16Z"/><polygon class="cls-16" points="103.54 22.87 101.58 24.83 95.06 21.98 100.69 16.35 103.54 22.87"/><path class="cls-13" d="M103.54,22.87,113,32.33a1.29,1.29,0,0,1-.12,1.82l0,0a1.29,1.29,0,0,1-1.82.12l-9.46-9.46Z"/><path class="cls-13" d="M94.55,13.87l-2,2a.84.84,0,0,1-1.19.08l-7-7a.85.85,0,0,1,.08-1.2l2-2a.86.86,0,0,1,1.2-.08l7,7A.84.84,0,0,1,94.55,13.87Z"/><path class="cls-15" d="M109.72,29.06,113,32.33a1.29,1.29,0,0,1-.12,1.82l0,0a1.29,1.29,0,0,1-1.82.12L107.76,31Z"/><path class="cls-10" d="M112,33.3,108.75,30l-6.18-6.19h0l-2.86-6.51h0L85,1.55a2.17,2.17,0,0,0-3.1.16l1-1a2.17,2.17,0,0,1,3.1-.16l14.76,15.77h0l2.85,6.52h0l6.18,6.19L113,32.33a1.29,1.29,0,0,1-.12,1.82l0,0a1.43,1.43,0,0,1-.59.37A1.19,1.19,0,0,0,112,33.3Z"/><path class="cls-17" d="M85.93,8.81a.47.47,0,0,0,.33.16.62.62,0,0,0,.37-.21l.06-.06a.46.46,0,0,0,.17-.35A.49.49,0,0,0,86.7,8a.08.08,0,0,1,0-.11.24.24,0,0,1,.06-.11.37.37,0,0,1,.12-.07.12.12,0,0,1,.11,0,.53.53,0,0,0,.12.1.27.27,0,0,0,.3,0,.77.77,0,0,0,.19-.15.47.47,0,0,0,.17-.3.37.37,0,0,0-.12-.28A.66.66,0,0,0,87.46,7l-.14,0a.33.33,0,0,0-.13,0,.25.25,0,0,0-.1.08.18.18,0,0,1-.13.06s-.08,0-.14-.07A.25.25,0,0,1,86.73,7a.33.33,0,0,1,.1-.14A.72.72,0,0,1,87,6.68a.67.67,0,0,1,.25-.08.68.68,0,0,1,.31,0,1,1,0,0,1,.32.22,1.1,1.1,0,0,1,.19.25.61.61,0,0,1,.08.26.74.74,0,0,1-.06.28,1,1,0,0,1-.21.29,1.15,1.15,0,0,1-.39.27.51.51,0,0,1-.34,0,.62.62,0,0,1,0,.36A.86.86,0,0,1,87,9l0,.06a1.45,1.45,0,0,1-.36.26.88.88,0,0,1-.34.08.84.84,0,0,1-.31-.08,1.56,1.56,0,0,1-.27-.2,1,1,0,0,1-.22-.32.87.87,0,0,1,0-.31.53.53,0,0,1,.07-.28A.71.71,0,0,1,85.59,8a.23.23,0,0,1,.14-.08.28.28,0,0,1,.13.07.22.22,0,0,1,.08.15.17.17,0,0,1-.06.12.41.41,0,0,0-.11.26A.45.45,0,0,0,85.93,8.81Z"/><path class="cls-17" d="M88.49,9.23a.94.94,0,0,1,.18.24.55.55,0,0,1,.07.28.61.61,0,0,1-.07.31,1.23,1.23,0,0,1-.26.34l0,0a1.16,1.16,0,0,1-.36.27.75.75,0,0,1-.34.09.68.68,0,0,1-.31-.08,1,1,0,0,1-.27-.19,1.31,1.31,0,0,1-.2-.28.67.67,0,0,1-.07-.31.84.84,0,0,1,.08-.33,1.64,1.64,0,0,1,.27-.37l.89-.88a1.06,1.06,0,0,1,.36-.27A.73.73,0,0,1,88.75,8a.67.67,0,0,1,.31.07,1.37,1.37,0,0,1,.28.21.86.86,0,0,1,.27.62.89.89,0,0,1-.07.28.73.73,0,0,1-.16.23c0,.05-.1.08-.14.07a.19.19,0,0,1-.13-.07A.25.25,0,0,1,89,9.31a.14.14,0,0,1,0-.15A.42.42,0,0,0,89.18,9a.77.77,0,0,0,0-.15.44.44,0,0,0,0-.15.71.71,0,0,0-.1-.14.45.45,0,0,0-.34-.14.55.55,0,0,0-.38.21L87.94,9a.53.53,0,0,1,.31,0A1,1,0,0,1,88.49,9.23Zm-1.07.32a.63.63,0,0,0-.21.39.41.41,0,0,0,.14.33.45.45,0,0,0,.33.14.66.66,0,0,0,.38-.22l0,0a.59.59,0,0,0,.21-.38.39.39,0,0,0-.14-.32.44.44,0,0,0-.32-.15.48.48,0,0,0-.36.18Z"/><path class="cls-17" d="M88.39,11.12a.18.18,0,0,1,.06.16.27.27,0,0,1-.08.18.37.37,0,0,1-.18.08.21.21,0,0,1-.16-.06.18.18,0,0,1-.06-.17.23.23,0,0,1,.08-.17.32.32,0,0,1,.17-.09A.21.21,0,0,1,88.39,11.12Z"/><path class="cls-17" d="M90.41,11.15a.83.83,0,0,1,.18.25.61.61,0,0,1,.08.27.75.75,0,0,1-.08.31,1.4,1.4,0,0,1-.25.34l-.06.06a1.41,1.41,0,0,1-.36.27.88.88,0,0,1-.34.08.7.7,0,0,1-.31-.07,1.56,1.56,0,0,1-.27-.2,1.31,1.31,0,0,1-.2-.28.63.63,0,0,1-.07-.3.88.88,0,0,1,.08-.34,1.41,1.41,0,0,1,.27-.36l.89-.89a1.61,1.61,0,0,1,.36-.27.88.88,0,0,1,.34-.08A.72.72,0,0,1,91,10a1.26,1.26,0,0,1,.27.2,1.68,1.68,0,0,1,.27.62.68.68,0,0,1-.07.28.76.76,0,0,1-.15.23c-.06.05-.1.08-.14.08a.24.24,0,0,1-.13-.07.31.31,0,0,1-.08-.13c0-.05,0-.09.05-.14A.55.55,0,0,0,91.1,11a.41.41,0,0,0,0-.16.44.44,0,0,0-.05-.15.61.61,0,0,0-.1-.14.43.43,0,0,0-.34-.14.67.67,0,0,0-.38.21l-.38.38a.73.73,0,0,1,.3,0A.81.81,0,0,1,90.41,11.15Zm-1.06.33a.61.61,0,0,0-.22.38.48.48,0,0,0,.47.47.63.63,0,0,0,.38-.22l0,0a.66.66,0,0,0,.22-.38.45.45,0,0,0-.15-.32.43.43,0,0,0-.31-.15.51.51,0,0,0-.37.19Z"/><rect class="cls-13" x="5.68" y="102.41" width="26.64" height="0.96" transform="translate(-66.23 42.2) rotate(-44.08)"/><rect class="cls-16" x="28.06" y="90.09" width="2.5" height="5.65" transform="translate(-56.38 46.55) rotate(-44.08)"/><rect class="cls-16" x="7.74" y="110.05" width="2.3" height="5.26" transform="translate(-75.88 37.92) rotate(-44.08)"/><polygon class="cls-8" points="40.63 81.17 41.41 81.98 38.16 85.98 36.52 84.29 40.63 81.17"/><polygon class="cls-13" points="15.19 102.66 35.09 83.38 39.02 87.44 19.11 106.71 19.73 107.35 40.58 87.16 35.42 81.83 14.57 102.02 15.19 102.66"/><polygon class="cls-16" points="51.03 71.88 41.2 81.76 40.83 81.39 51.03 71.88"/><rect class="cls-13" x="16.01" y="99.96" width="1.33" height="10.38" transform="translate(-68.45 41.21) rotate(-44.08)"/><rect class="cls-13" x="32.19" y="85.76" width="0.82" height="1.95" transform="translate(-51.15 47.1) rotate(-44.08)"/><rect class="cls-13" x="28.59" y="89.24" width="0.82" height="1.95" transform="translate(-54.59 45.58) rotate(-44.08)"/><rect class="cls-13" x="24.99" y="92.72" width="0.82" height="1.95" transform="translate(-58.03 44.06) rotate(-44.08)"/><rect class="cls-13" x="21.4" y="96.2" width="0.82" height="1.95" transform="translate(-61.46 42.54) rotate(-44.08)"/><rect class="cls-13" x="17.8" y="99.69" width="0.82" height="1.95" transform="translate(-64.89 41.01) rotate(-44.07)"/><rect class="cls-18" x="28.86" y="85.91" width="9.53" height="5.65" transform="translate(-52.25 48.38) rotate(-44.08)"/><polygon class="cls-10" points="37.9 84.39 38.74 85.26 41.41 81.98 40.63 81.17 40.36 81.37 37.9 84.39"/><polygon class="cls-14" points="17.35 106.8 19.8 109.34 20.76 108.41 19.73 107.35 40.58 87.16 39.16 85.69 17.35 106.8"/><rect class="cls-10" x="9.15" y="113.53" width="2.3" height="1.21" transform="translate(-76.4 39.2) rotate(-44.01)"/><rect class="cls-2" x="5.68" y="102.41" width="26.64" height="0.96" transform="translate(-66.23 42.2) rotate(-44.08)"/><rect class="cls-16" x="28.06" y="90.09" width="2.5" height="5.65" transform="translate(-56.38 46.55) rotate(-44.08)"/><rect class="cls-16" x="7.74" y="110.05" width="2.3" height="5.26" transform="translate(-75.88 37.92) rotate(-44.08)"/><polygon class="cls-8" points="40.63 81.17 41.41 81.98 38.16 85.98 36.52 84.29 40.63 81.17"/><polygon class="cls-2" points="15.19 102.66 35.09 83.38 39.02 87.44 19.11 106.71 19.73 107.35 40.58 87.16 35.42 81.83 14.57 102.02 15.19 102.66"/><polygon class="cls-2" points="51.03 71.88 41.2 81.76 40.83 81.39 51.03 71.88"/><rect class="cls-2" x="16.01" y="99.96" width="1.33" height="10.38" transform="translate(-68.45 41.21) rotate(-44.08)"/><rect class="cls-13" x="32.19" y="85.76" width="0.82" height="1.95" transform="translate(-51.15 47.1) rotate(-44.08)"/><rect class="cls-13" x="28.59" y="89.24" width="0.82" height="1.95" transform="translate(-54.59 45.58) rotate(-44.08)"/><rect class="cls-2" x="24.99" y="92.72" width="0.82" height="1.95" transform="translate(-58.03 44.06) rotate(-44.08)"/><rect class="cls-2" x="21.4" y="96.2" width="0.82" height="1.95" transform="translate(-61.46 42.54) rotate(-44.08)"/><rect class="cls-2" x="17.8" y="99.69" width="0.82" height="1.95" transform="translate(-64.89 41.01) rotate(-44.07)"/><rect class="cls-18" x="28.86" y="85.91" width="9.53" height="5.65" transform="translate(-52.25 48.38) rotate(-44.08)"/><polygon class="cls-10" points="37.9 84.39 38.74 85.26 41.41 81.98 40.63 81.17 40.36 81.37 37.9 84.39"/><polygon class="cls-14" points="17.35 106.8 19.8 109.34 20.76 108.41 19.73 107.35 40.58 87.16 39.16 85.69 17.35 106.8"/><rect class="cls-10" x="9.15" y="113.53" width="2.3" height="1.21" transform="translate(-76.4 39.2) rotate(-44.01)"/><g class="cls-19"><path class="cls-2" d="M47.8,32.23l0,.05a3.17,3.17,0,0,0,0,4.49l3.73,3.73L56,36,52.3,32.23A3.19,3.19,0,0,0,47.8,32.23Z"/><path class="cls-2" d="M59.67,41a2.21,2.21,0,0,1,0,3.12l0,0a2.23,2.23,0,0,1-3.12,0l-3.68-3.69-.69.69,3.68,3.68a3.17,3.17,0,0,0,4.49,0l0,0a3.17,3.17,0,0,0,0-4.49l-3.68-3.69L56,37.3Z"/></g><g class="cls-19"><path class="cls-2" d="M1,116.23l0,0a3.19,3.19,0,0,0,0,4.5l3.73,3.73L9.2,120l-3.73-3.73A3.17,3.17,0,0,0,1,116.23Z"/><path class="cls-2" d="M12.84,125a2.2,2.2,0,0,1,0,3.11l0,0a2.21,2.21,0,0,1-3.12,0L6,124.45l-.69.69L9,128.83a3.19,3.19,0,0,0,4.5,0l0-.05a3.17,3.17,0,0,0,0-4.49L9.85,120.6l-.69.69Z"/></g><g class="cls-19"><path class="cls-2" d="M96.08,62l0,0a2.18,2.18,0,0,0,0,3.1l2.58,2.58,3.13-3.13L99.18,62A2.18,2.18,0,0,0,96.08,62Z"/><path class="cls-2" d="M104.27,68.06a1.51,1.51,0,0,1,0,2.15l0,0a1.51,1.51,0,0,1-2.15,0L99.55,67.7l-.48.48,2.55,2.54a2.18,2.18,0,0,0,3.1,0l0,0a2.18,2.18,0,0,0,0-3.1L102.21,65l-.48.48Z"/></g><g class="cls-19"><path class="cls-2" d="M14.85,71.45l0,0a2.5,2.5,0,0,0-3.54,0L8.33,74.36l3.58,3.57L14.85,75A2.52,2.52,0,0,0,14.85,71.45Z"/><path class="cls-2" d="M8,80.8a1.74,1.74,0,0,1-2.46,0l0,0a1.74,1.74,0,0,1,0-2.46l2.9-2.9-.55-.54-2.9,2.9a2.52,2.52,0,0,0,0,3.54l0,0a2.5,2.5,0,0,0,3.54,0l2.9-2.9-.54-.54Z"/></g><g class="cls-19"><path class="cls-2" d="M130.42,66.21l0,0a2.37,2.37,0,0,0,0,3.36l2.79,2.79,3.4-3.4-2.79-2.79A2.37,2.37,0,0,0,130.42,66.21Z"/><path class="cls-2" d="M139.29,72.76a1.65,1.65,0,0,1,0,2.33l0,0a1.65,1.65,0,0,1-2.33,0l-2.76-2.75-.51.51,2.75,2.76a2.39,2.39,0,0,0,3.36,0l0,0a2.37,2.37,0,0,0,0-3.36l-2.75-2.75-.52.51Z"/></g><g class="cls-19"><path class="cls-2" d="M77.92,15.35l0,0a2.47,2.47,0,0,0-3.5,0l-2.9,2.9L75,21.76l2.91-2.91A2.49,2.49,0,0,0,77.92,15.35Z"/><path class="cls-2" d="M71.1,24.59a1.71,1.71,0,0,1-2.42,0l0,0a1.72,1.72,0,0,1,0-2.43l2.87-2.87L71,18.73,68.1,21.59a2.49,2.49,0,0,0,0,3.5l0,0a2.47,2.47,0,0,0,3.5,0l2.87-2.87L74,21.72Z"/></g><g class="cls-19"><path class="cls-2" d="M44.4,157.47l0,0a2.47,2.47,0,0,0-3.5,0L38,160.35l3.54,3.53L44.4,161A2.47,2.47,0,0,0,44.4,157.47Z"/><path class="cls-2" d="M37.59,166.72a1.74,1.74,0,0,1-2.43,0l0,0a1.72,1.72,0,0,1,0-2.43L38,161.38l-.53-.53-2.87,2.87a2.47,2.47,0,0,0,0,3.5l0,0a2.47,2.47,0,0,0,3.5,0L41,164.38l-.53-.53Z"/></g><g class="cls-19"><path class="cls-2" d="M139.09,145.83l0,0a2.49,2.49,0,0,0-3.5,0l-2.91,2.91,3.54,3.53,2.9-2.9A2.47,2.47,0,0,0,139.09,145.83Z"/><path class="cls-2" d="M132.28,155.07a1.72,1.72,0,0,1-2.43,0l0,0a1.71,1.71,0,0,1,0-2.42l2.86-2.87-.53-.54-2.87,2.87a2.47,2.47,0,0,0,0,3.5l0,0a2.47,2.47,0,0,0,3.5,0l2.87-2.86-.53-.54Z"/></g><polygon class="cls-20" points="32.06 74.95 30.91 72.95 28.51 74.34 28.51 71.57 26.21 71.57 26.21 74.34 23.81 72.95 22.66 74.95 25.06 76.33 22.66 77.72 23.81 79.71 26.21 78.33 26.21 81.09 28.51 81.09 28.51 78.33 30.91 79.71 32.06 77.72 29.66 76.33 32.06 74.95"/><polygon class="cls-20" points="104.96 147.25 103.66 145.01 100.97 146.57 100.97 143.45 98.38 143.45 98.38 146.57 95.68 145.01 94.38 147.25 97.08 148.81 94.38 150.37 95.68 152.61 98.38 151.05 98.38 154.17 100.97 154.17 100.97 151.05 103.66 152.61 104.96 150.37 102.26 148.81 104.96 147.25"/><polygon class="cls-20" points="31.97 109.82 31 108.15 28.99 109.31 28.99 106.99 27.06 106.99 27.06 109.31 25.05 108.15 24.09 109.82 26.1 110.98 24.09 112.14 25.05 113.82 27.06 112.66 27.06 114.98 28.99 114.98 28.99 112.66 31 113.82 31.97 112.14 29.96 110.98 31.97 109.82"/><polygon class="cls-20" points="56.08 137.96 55.11 136.29 53.1 137.45 53.1 135.13 51.17 135.13 51.17 137.45 49.16 136.29 48.2 137.96 50.21 139.12 48.2 140.28 49.16 141.95 51.17 140.79 51.17 143.11 53.1 143.11 53.1 140.79 55.11 141.95 56.08 140.28 54.07 139.12 56.08 137.96"/><polygon class="cls-20" points="134.81 24.95 133.51 22.7 130.81 24.27 130.81 21.14 128.21 21.14 128.21 24.27 125.5 22.7 124.2 24.95 126.91 26.52 124.2 28.08 125.5 30.33 128.21 28.77 128.21 31.89 130.81 31.89 130.81 28.77 133.51 30.33 134.81 28.08 132.11 26.52 134.81 24.95"/><g class="cls-19"><path class="cls-2" d="M45.83,116.26a7.06,7.06,0,1,1,7-7.16A7.06,7.06,0,0,1,45.83,116.26Zm-.19-12.67a5.62,5.62,0,1,0,5.7,5.53A5.63,5.63,0,0,0,45.64,103.59Z"/><path class="cls-2" d="M45.82,110l-3-2.21a.6.6,0,0,1-.13-.84.61.61,0,0,1,.84-.13l2.08,1.55,2.28-2.69a.6.6,0,0,1,.92.78Z"/><path class="cls-2" d="M46.23,104.82a.57.57,0,0,1-.56.57.57.57,0,0,1-.57-.56.55.55,0,0,1,.55-.57A.57.57,0,0,1,46.23,104.82Z"/><path class="cls-2" d="M46.36,113.58a.57.57,0,0,1-.56.57.57.57,0,0,1,0-1.13A.58.58,0,0,1,46.36,113.58Z"/><path class="cls-2" d="M41.34,108.71a.55.55,0,0,1,.57.55.57.57,0,0,1-1.13,0A.57.57,0,0,1,41.34,108.71Z"/><path class="cls-2" d="M50.1,108.57a.57.57,0,0,1,.57.56.55.55,0,0,1-.55.57.57.57,0,0,1-.58-.55A.58.58,0,0,1,50.1,108.57Z"/></g><g class="cls-19"><path class="cls-2" d="M101.49,57.39A4.36,4.36,0,1,1,105.78,53,4.36,4.36,0,0,1,101.49,57.39Zm-.12-7.82A3.47,3.47,0,1,0,104.89,53,3.46,3.46,0,0,0,101.37,49.57Z"/><path class="cls-2" d="M101.48,53.54l-1.84-1.37a.37.37,0,0,1-.08-.52.38.38,0,0,1,.52-.08l1.28,1,1.41-1.66a.36.36,0,0,1,.52,0,.37.37,0,0,1,0,.52Z"/><path class="cls-2" d="M101.73,50.32a.35.35,0,1,1-.7,0,.35.35,0,0,1,.7,0Z"/><path class="cls-2" d="M101.81,55.73a.35.35,0,1,1-.35-.34A.34.34,0,0,1,101.81,55.73Z"/><path class="cls-2" d="M98.71,52.72a.37.37,0,0,1,.36.35.35.35,0,0,1-.7,0A.36.36,0,0,1,98.71,52.72Z"/><path class="cls-2" d="M104.12,52.64a.35.35,0,0,1,.35.35.34.34,0,0,1-.34.35.35.35,0,0,1,0-.7Z"/></g><g class="cls-19"><path class="cls-2" d="M58,162.74a6,6,0,1,1,5.93-6.12A6,6,0,0,1,58,162.74Zm-.17-10.82a4.8,4.8,0,1,0,4.87,4.72A4.8,4.8,0,0,0,57.82,151.92Z"/><path class="cls-2" d="M58,157.41l-2.55-1.89a.51.51,0,1,1,.61-.82L57.81,156l1.95-2.29a.51.51,0,0,1,.79.66Z"/><path class="cls-2" d="M58.32,153a.47.47,0,0,1-.47.49.47.47,0,0,1-.49-.47.47.47,0,0,1,.47-.49A.48.48,0,0,1,58.32,153Z"/><path class="cls-2" d="M58.43,160.45a.48.48,0,1,1-1,0,.49.49,0,0,1,.47-.49A.48.48,0,0,1,58.43,160.45Z"/><path class="cls-2" d="M54.15,156.29a.48.48,0,1,1-.48.49A.49.49,0,0,1,54.15,156.29Z"/><path class="cls-2" d="M61.63,156.18a.47.47,0,0,1,.49.47.49.49,0,0,1-.48.49.48.48,0,0,1-.48-.48A.47.47,0,0,1,61.63,156.18Z"/></g><g class="cls-19"><path class="cls-2" d="M103.47,12.62a5.29,5.29,0,1,1,5.21-5.37A5.29,5.29,0,0,1,103.47,12.62Zm-.14-9.5a4.21,4.21,0,1,0,4.27,4.15A4.23,4.23,0,0,0,103.33,3.12Z"/><path class="cls-2" d="M103.46,8l-2.24-1.66a.45.45,0,0,1-.09-.63.44.44,0,0,1,.63-.1l1.56,1.16,1.71-2a.45.45,0,0,1,.63,0,.46.46,0,0,1,.06.64Z"/><path class="cls-2" d="M103.76,4a.41.41,0,0,1-.41.43.42.42,0,0,1-.43-.42.42.42,0,0,1,.84,0Z"/><path class="cls-2" d="M103.86,10.61a.41.41,0,0,1-.41.43.42.42,0,0,1-.43-.42.42.42,0,0,1,.84,0Z"/><path class="cls-2" d="M100.1,7a.43.43,0,0,1,.43.42.44.44,0,0,1-.42.43.43.43,0,0,1-.43-.42A.42.42,0,0,1,100.1,7Z"/><path class="cls-2" d="M106.67,6.86a.43.43,0,0,1,.43.42.44.44,0,0,1-.42.43.43.43,0,0,1-.43-.42A.42.42,0,0,1,106.67,6.86Z"/></g><rect class="cls-3" x="44.36" y="127" width="1.33" height="2.97"/><path class="cls-13" d="M47.76,125.26A2.74,2.74,0,1,1,45,122.53,2.74,2.74,0,0,1,47.76,125.26Z"/><path class="cls-3" d="M46.54,125.26A1.52,1.52,0,1,1,45,123.74,1.52,1.52,0,0,1,46.54,125.26Z"/><path class="cls-7" d="M47.67,124.57a3.47,3.47,0,0,1-3.39,2.74,3.33,3.33,0,0,1-1.31-.26,2.71,2.71,0,0,0,1.39.87v2h1.33v-2a2.75,2.75,0,0,0,2.07-2.66A2.61,2.61,0,0,0,47.67,124.57Z"/><path class="cls-13" d="M27.45,140.76h-.17c-4.24,0-7.31-3.69-9.13-11L17.51,126a5.48,5.48,0,0,1,5.39-6.38H23v1H22.9a4.49,4.49,0,0,0-4.42,5.23l.64,3.73c1.68,6.74,4.43,10.17,8.16,10.17h.17c3.74,0,6.48-3.43,8.17-10.2l.63-3.7a4.49,4.49,0,0,0-4.42-5.23h-.06v-1h.06A5.46,5.46,0,0,1,37.22,126l-.63,3.74C34.77,137.07,31.7,140.76,27.45,140.76Z"/><path class="cls-6" d="M24.7,119.16a1,1,0,0,0-.73.33h-1.6v1.32H24a1,1,0,0,0,.72.32,1,1,0,1,0,0-2Z"/><path class="cls-6" d="M30,119.16a1,1,0,0,1,.73.33h1.6v1.32H30.75a1,1,0,1,1-.72-1.65Z"/><path class="cls-16" d="M45.89,128.68H44.16v3h.28l.1,20.08A2.22,2.22,0,0,1,42.32,154h-.4a2.23,2.23,0,0,1-2.23-2.22v-6.82a3.41,3.41,0,0,0-3.41-3.4h-.05a3.41,3.41,0,0,0-3.41,3.4v6.82A2.23,2.23,0,0,1,30.59,154h-.41A2.23,2.23,0,0,1,28,151.75v-4.12a1,1,0,0,0,.37-.58A19.59,19.59,0,0,1,32,139a13.91,13.91,0,0,0,1.93-2.18l-1-.65a13.91,13.91,0,0,1-1.8,2,5.42,5.42,0,0,1-7.5,0,12.88,12.88,0,0,1-1.8-2l-1,.65A13.91,13.91,0,0,0,22.76,139a19.46,19.46,0,0,1,3.64,8.06,1,1,0,0,0,.38.58v4.12a3.4,3.4,0,0,0,3.4,3.4h.41a3.41,3.41,0,0,0,3.41-3.4v-6.82a2.23,2.23,0,0,1,2.23-2.22h.05a2.23,2.23,0,0,1,2.23,2.22v6.82a3.41,3.41,0,0,0,3.41,3.4h.4a3.36,3.36,0,0,0,2.41-1,3.4,3.4,0,0,0,1-2.42l-.11-20.08h.27Zm-20.7,11.81a6.41,6.41,0,0,0,4.35,0A21.77,21.77,0,0,0,27.37,146,21.78,21.78,0,0,0,25.19,140.49Z"/><path class="cls-21" d="M32.82,151.75A2.23,2.23,0,0,1,30.59,154h-.4A2.23,2.23,0,0,1,28,151.75v-1c-.4-.11-.79-.24-1.18-.38v1.34a3.41,3.41,0,0,0,3.41,3.4h.4a3.41,3.41,0,0,0,3.41-3.4v-.57c-.39,0-.78.09-1.18.12Z"/><path class="cls-21" d="M45.68,142.93a15.6,15.6,0,0,1-1.17,1.88l0,6.92a2.2,2.2,0,0,1-.64,1.59,2.25,2.25,0,0,1-1.58.65h-.4a2.23,2.23,0,0,1-2.23-2.22V149.2a13.35,13.35,0,0,1-1.18.63v1.92a3.41,3.41,0,0,0,3.41,3.4h.4a3.36,3.36,0,0,0,2.41-1,3.4,3.4,0,0,0,1-2.42Z"/><rect class="cls-3" x="44.36" y="127" width="1.33" height="2.97"/><path class="cls-13" d="M47.76,125.26A2.74,2.74,0,1,1,45,122.53,2.74,2.74,0,0,1,47.76,125.26Z"/><path class="cls-3" d="M46.54,125.26A1.52,1.52,0,1,1,45,123.74,1.52,1.52,0,0,1,46.54,125.26Z"/><path class="cls-7" d="M47.67,124.57a3.47,3.47,0,0,1-3.39,2.74,3.33,3.33,0,0,1-1.31-.26,2.71,2.71,0,0,0,1.39.87v2h1.33v-2a2.75,2.75,0,0,0,2.07-2.66A2.61,2.61,0,0,0,47.67,124.57Z"/><path class="cls-13" d="M20.32,120.3a5.46,5.46,0,0,1,2.58-.65H23v1H22.9a4.49,4.49,0,0,0-4.42,5.23l.64,3.73c1.68,6.74,4.43,10.17,8.16,10.17h.17c3.74,0,6.48-3.43,8.17-10.2l.63-3.7a4.49,4.49,0,0,0-4.42-5.23h-.06v-1h.06A5.46,5.46,0,0,1,37.22,126l-.63,3.74c-1.82,7.3-4.89,11-9.14,11h-.17c-4.24,0-7.31-3.69-9.13-11L17.51,126a5.48,5.48,0,0,1,2.81-5.73Z"/><path class="cls-6" d="M24.7,119.16a1,1,0,0,0-.73.33h-1.6v1.32H24a1,1,0,0,0,.72.32,1,1,0,1,0,0-2Z"/><path class="cls-6" d="M30,119.16a1,1,0,0,1,.73.33h1.6v1.32H30.75a1,1,0,1,1-.72-1.65Z"/><path class="cls-4" d="M45.89,128.68H44.16v3h.28l.1,20.08A2.22,2.22,0,0,1,42.32,154h-.4a2.23,2.23,0,0,1-2.23-2.22v-6.82a3.41,3.41,0,0,0-3.41-3.4h-.05a3.41,3.41,0,0,0-3.41,3.4v6.82A2.23,2.23,0,0,1,30.59,154h-.41A2.23,2.23,0,0,1,28,151.75v-4.12a1,1,0,0,0,.37-.58A19.59,19.59,0,0,1,32,139a13.91,13.91,0,0,0,1.93-2.18l-1-.65a13.91,13.91,0,0,1-1.8,2,5.42,5.42,0,0,1-7.5,0,12.88,12.88,0,0,1-1.8-2l-1,.65A13.91,13.91,0,0,0,22.76,139a19.46,19.46,0,0,1,3.64,8.06,1,1,0,0,0,.38.58v4.12a3.4,3.4,0,0,0,3.4,3.4h.41a3.41,3.41,0,0,0,3.41-3.4v-6.82a2.23,2.23,0,0,1,2.23-2.22h.05a2.23,2.23,0,0,1,2.23,2.22v6.82a3.41,3.41,0,0,0,3.41,3.4h.4a3.36,3.36,0,0,0,2.41-1,3.4,3.4,0,0,0,1-2.42l-.11-20.08h.27Zm-20.7,11.81a6.41,6.41,0,0,0,4.35,0A21.77,21.77,0,0,0,27.37,146,21.78,21.78,0,0,0,25.19,140.49Z"/><path class="cls-21" d="M32.82,151.75A2.23,2.23,0,0,1,30.59,154h-.4A2.23,2.23,0,0,1,28,151.75v-1c-.4-.11-.79-.24-1.18-.38v1.34a3.41,3.41,0,0,0,3.41,3.4h.4a3.41,3.41,0,0,0,3.41-3.4v-.57c-.39,0-.78.09-1.18.12Z"/><path class="cls-21" d="M45.68,142.93a15.6,15.6,0,0,1-1.17,1.88l0,6.92a2.2,2.2,0,0,1-.64,1.59,2.25,2.25,0,0,1-1.58.65h-.4a2.23,2.23,0,0,1-2.23-2.22V149.2a13.35,13.35,0,0,1-1.18.63v1.92a3.41,3.41,0,0,0,3.41,3.4h.4a3.36,3.36,0,0,0,2.41-1,3.4,3.4,0,0,0,1-2.42Z"/><rect class="cls-9" x="29.13" y="10.08" width="34.64" height="19.45" rx="3.98" ry="3.98"/><path class="cls-13" d="M36.45,17.45a2.83,2.83,0,0,0,.32-.37A2.93,2.93,0,0,0,32.68,13a2.83,2.83,0,0,0-.37.32,2.3,2.3,0,0,0-.32.38,2.92,2.92,0,0,0,4.08,4.08A2.3,2.3,0,0,0,36.45,17.45Z"/><path class="cls-3" d="M36.45,17.45a2.83,2.83,0,0,0,.32-.37L32.68,13a2.83,2.83,0,0,0-.37.32,2.3,2.3,0,0,0-.32.38l4.08,4.08A2.3,2.3,0,0,0,36.45,17.45Z"/><path class="cls-14" d="M32.3,17.46a3.57,3.57,0,0,1-.31-.37,3,3,0,0,0,3.4,0,2.8,2.8,0,0,0,.38-.32,3.57,3.57,0,0,0,.31-.37,2.93,2.93,0,0,0,0-3.4,2.64,2.64,0,0,1,.37.31,2.93,2.93,0,0,1,.32,3.77,2.83,2.83,0,0,1-.32.37,2.3,2.3,0,0,1-.38.32A2.92,2.92,0,0,1,32.3,17.46Z"/><path class="cls-13" d="M36.45,26.3a3.68,3.68,0,0,0,.32-.37,2.93,2.93,0,0,0-4.09-4.09,3.38,3.38,0,0,0-.69.69,2.93,2.93,0,0,0,4.08,4.09A2.3,2.3,0,0,0,36.45,26.3Z"/><path class="cls-3" d="M36.45,26.3a3.68,3.68,0,0,0,.32-.37l-4.09-4.09a3.38,3.38,0,0,0-.69.69l4.08,4.09A2.3,2.3,0,0,0,36.45,26.3Z"/><path class="cls-14" d="M32.3,26.3a2.76,2.76,0,0,1-.31-.37,2.91,2.91,0,0,0,3.4,0,2.43,2.43,0,0,0,.69-.69,2.93,2.93,0,0,0,0-3.4,3.68,3.68,0,0,1,.37.32,2.93,2.93,0,0,1,.32,3.77,3.68,3.68,0,0,1-.32.37,2.3,2.3,0,0,1-.38.32A2.93,2.93,0,0,1,32.3,26.3Z"/><path class="cls-13" d="M44.5,17.45a2.83,2.83,0,0,0,.32-.37A2.93,2.93,0,0,0,40.73,13a2.83,2.83,0,0,0-.37.32,2.3,2.3,0,0,0-.32.38,2.92,2.92,0,0,0,4.08,4.08A2.3,2.3,0,0,0,44.5,17.45Z"/><path class="cls-3" d="M44.5,17.45a2.83,2.83,0,0,0,.32-.37L40.73,13a2.83,2.83,0,0,0-.37.32,2.3,2.3,0,0,0-.32.38l4.08,4.08A2.3,2.3,0,0,0,44.5,17.45Z"/><path class="cls-14" d="M40.35,17.46a3.57,3.57,0,0,1-.31-.37,3,3,0,0,0,3.4,0,2.8,2.8,0,0,0,.38-.32,3.57,3.57,0,0,0,.31-.37,2.93,2.93,0,0,0,0-3.4,2.64,2.64,0,0,1,.37.31,2.92,2.92,0,0,1,.32,3.77,2.83,2.83,0,0,1-.32.37,2.3,2.3,0,0,1-.38.32A2.92,2.92,0,0,1,40.35,17.46Z"/><path class="cls-13" d="M44.5,26.3a3.68,3.68,0,0,0,.32-.37,2.93,2.93,0,0,0-4.09-4.09,3.38,3.38,0,0,0-.69.69,2.93,2.93,0,0,0,4.08,4.09A2.3,2.3,0,0,0,44.5,26.3Z"/><path class="cls-3" d="M44.5,26.3a3.68,3.68,0,0,0,.32-.37l-4.09-4.09a3.38,3.38,0,0,0-.69.69l4.08,4.09A2.3,2.3,0,0,0,44.5,26.3Z"/><path class="cls-14" d="M40.35,26.3a2.76,2.76,0,0,1-.31-.37,2.91,2.91,0,0,0,3.4,0,2.43,2.43,0,0,0,.69-.69,2.93,2.93,0,0,0,0-3.4,3.68,3.68,0,0,1,.37.32,2.92,2.92,0,0,1,.32,3.77,3.68,3.68,0,0,1-.32.37,2.3,2.3,0,0,1-.38.32A2.93,2.93,0,0,1,40.35,26.3Z"/><path class="cls-13" d="M52.55,17.45a2.83,2.83,0,0,0,.32-.37A2.93,2.93,0,0,0,48.78,13a2.83,2.83,0,0,0-.37.32,2.3,2.3,0,0,0-.32.38,2.92,2.92,0,0,0,4.08,4.08A2.3,2.3,0,0,0,52.55,17.45Z"/><path class="cls-3" d="M52.55,17.45a2.83,2.83,0,0,0,.32-.37L48.78,13a2.83,2.83,0,0,0-.37.32,2.3,2.3,0,0,0-.32.38l4.08,4.08A2.3,2.3,0,0,0,52.55,17.45Z"/><path class="cls-14" d="M48.4,17.46a3.57,3.57,0,0,1-.31-.37,3,3,0,0,0,3.4,0,2.8,2.8,0,0,0,.38-.32,3.57,3.57,0,0,0,.31-.37,2.91,2.91,0,0,0,0-3.4,2.64,2.64,0,0,1,.37.31,2.92,2.92,0,0,1,.32,3.77,2.83,2.83,0,0,1-.32.37,2.3,2.3,0,0,1-.38.32A2.92,2.92,0,0,1,48.4,17.46Z"/><path class="cls-13" d="M52.55,26.3a3.68,3.68,0,0,0,.32-.37,2.93,2.93,0,0,0-4.09-4.09,3.38,3.38,0,0,0-.69.69,2.93,2.93,0,0,0,4.08,4.09A2.3,2.3,0,0,0,52.55,26.3Z"/><path class="cls-3" d="M52.55,26.3a3.68,3.68,0,0,0,.32-.37l-4.09-4.09a3.38,3.38,0,0,0-.69.69l4.08,4.09A2.3,2.3,0,0,0,52.55,26.3Z"/><path class="cls-14" d="M48.4,26.3a2.76,2.76,0,0,1-.31-.37,2.91,2.91,0,0,0,3.4,0,2.43,2.43,0,0,0,.69-.69,2.91,2.91,0,0,0,0-3.4,3.68,3.68,0,0,1,.37.32,2.92,2.92,0,0,1,.32,3.77,3.68,3.68,0,0,1-.32.37,2.3,2.3,0,0,1-.38.32A2.93,2.93,0,0,1,48.4,26.3Z"/><path class="cls-13" d="M60.6,17.45a2.83,2.83,0,0,0,.32-.37A2.93,2.93,0,0,0,56.83,13a2.83,2.83,0,0,0-.37.32,2.3,2.3,0,0,0-.32.38,2.93,2.93,0,0,0,4.09,4.08A2.73,2.73,0,0,0,60.6,17.45Z"/><path class="cls-3" d="M60.6,17.45a2.83,2.83,0,0,0,.32-.37L56.83,13a2.83,2.83,0,0,0-.37.32,2.3,2.3,0,0,0-.32.38l4.09,4.08A2.73,2.73,0,0,0,60.6,17.45Z"/><path class="cls-14" d="M56.45,17.46a3.57,3.57,0,0,1-.31-.37,3,3,0,0,0,3.4,0,2.8,2.8,0,0,0,.38-.32,3.57,3.57,0,0,0,.31-.37,2.91,2.91,0,0,0,0-3.4,2.64,2.64,0,0,1,.37.31,2.92,2.92,0,0,1,.32,3.77,2.83,2.83,0,0,1-.32.37,2.73,2.73,0,0,1-.37.32A2.93,2.93,0,0,1,56.45,17.46Z"/><path class="cls-13" d="M60.6,26.3a3.68,3.68,0,0,0,.32-.37,2.93,2.93,0,0,0-4.09-4.09,3.38,3.38,0,0,0-.69.69,2.93,2.93,0,0,0,4.09,4.09A2.73,2.73,0,0,0,60.6,26.3Z"/><path class="cls-3" d="M60.6,26.3a3.68,3.68,0,0,0,.32-.37l-4.09-4.09a3.38,3.38,0,0,0-.69.69l4.09,4.09A2.73,2.73,0,0,0,60.6,26.3Z"/><path class="cls-14" d="M56.45,26.3a2.76,2.76,0,0,1-.31-.37,2.91,2.91,0,0,0,3.4,0,2.43,2.43,0,0,0,.69-.69,2.91,2.91,0,0,0,0-3.4,3.68,3.68,0,0,1,.37.32,2.92,2.92,0,0,1,.32,3.77,3.68,3.68,0,0,1-.32.37,2.73,2.73,0,0,1-.37.32A3,3,0,0,1,56.45,26.3Z"/><path class="cls-8" d="M31.53,19.81a.29.29,0,0,0-.3-.3h-.59a.3.3,0,1,0,0,.59h.59A.29.29,0,0,0,31.53,19.81Z"/><path class="cls-8" d="M59.7,20.1H58.51a.3.3,0,1,1,0-.59H59.7a.3.3,0,0,1,0,.59Zm-3.17,0H55.35a.3.3,0,1,1,0-.59h1.18a.3.3,0,1,1,0,.59Zm-3.16,0H52.18a.3.3,0,0,1,0-.59h1.19a.3.3,0,1,1,0,.59Zm-3.16,0H49a.3.3,0,1,1,0-.59h1.19a.3.3,0,1,1,0,.59Zm-3.16,0H45.86a.3.3,0,1,1,0-.59h1.19a.3.3,0,0,1,0,.59Zm-3.17,0H42.7a.3.3,0,1,1,0-.59h1.18a.3.3,0,1,1,0,.59Zm-3.16,0H39.54a.3.3,0,1,1,0-.59h1.18a.3.3,0,1,1,0,.59Zm-3.16,0H36.37a.3.3,0,0,1,0-.59h1.19a.3.3,0,1,1,0,.59Zm-3.16,0H33.21a.3.3,0,1,1,0-.59H34.4a.3.3,0,0,1,0,.59Z"/><path class="cls-8" d="M62.57,19.81a.3.3,0,0,0-.3-.3h-.6a.3.3,0,1,0,0,.59h.6A.3.3,0,0,0,62.57,19.81Z"/><path class="cls-7" d="M29.9,27.89l29.9.05a2.4,2.4,0,0,0,2.39-2.39l0-14.63a4,4,0,0,1,1.55,3.14V25.55a4,4,0,0,1-4,4H33.11A4,4,0,0,1,29.9,27.89Z"/><rect class="cls-22" x="29.13" y="10.08" width="34.64" height="19.45" rx="3.98" ry="3.98"/><path class="cls-13" d="M36.45,17.45a2.83,2.83,0,0,0,.32-.37A2.93,2.93,0,0,0,32.68,13a2.83,2.83,0,0,0-.37.32,2.3,2.3,0,0,0-.32.38,2.92,2.92,0,0,0,4.08,4.08A2.3,2.3,0,0,0,36.45,17.45Z"/><path class="cls-3" d="M36.45,17.45a2.83,2.83,0,0,0,.32-.37L32.68,13a2.83,2.83,0,0,0-.37.32,2.3,2.3,0,0,0-.32.38l4.08,4.08A2.3,2.3,0,0,0,36.45,17.45Z"/><path class="cls-14" d="M32.3,17.46a3.57,3.57,0,0,1-.31-.37,3,3,0,0,0,3.4,0,2.8,2.8,0,0,0,.38-.32,3.57,3.57,0,0,0,.31-.37,2.93,2.93,0,0,0,0-3.4,2.64,2.64,0,0,1,.37.31,2.93,2.93,0,0,1,.32,3.77,2.83,2.83,0,0,1-.32.37,2.3,2.3,0,0,1-.38.32A2.92,2.92,0,0,1,32.3,17.46Z"/><path class="cls-13" d="M36.45,26.3a3.68,3.68,0,0,0,.32-.37,2.93,2.93,0,0,0-4.09-4.09,3.38,3.38,0,0,0-.69.69,2.93,2.93,0,0,0,4.08,4.09A2.3,2.3,0,0,0,36.45,26.3Z"/><path class="cls-3" d="M36.45,26.3a3.68,3.68,0,0,0,.32-.37l-4.09-4.09a3.38,3.38,0,0,0-.69.69l4.08,4.09A2.3,2.3,0,0,0,36.45,26.3Z"/><path class="cls-14" d="M32.3,26.3a2.76,2.76,0,0,1-.31-.37,2.91,2.91,0,0,0,3.4,0,2.43,2.43,0,0,0,.69-.69,2.93,2.93,0,0,0,0-3.4,3.68,3.68,0,0,1,.37.32,2.93,2.93,0,0,1,.32,3.77,3.68,3.68,0,0,1-.32.37,2.3,2.3,0,0,1-.38.32A2.93,2.93,0,0,1,32.3,26.3Z"/><path class="cls-13" d="M44.5,17.45a2.83,2.83,0,0,0,.32-.37A2.93,2.93,0,0,0,40.73,13a2.83,2.83,0,0,0-.37.32,2.3,2.3,0,0,0-.32.38,2.92,2.92,0,0,0,4.08,4.08A2.3,2.3,0,0,0,44.5,17.45Z"/><path class="cls-3" d="M44.5,17.45a2.83,2.83,0,0,0,.32-.37L40.73,13a2.83,2.83,0,0,0-.37.32,2.3,2.3,0,0,0-.32.38l4.08,4.08A2.3,2.3,0,0,0,44.5,17.45Z"/><path class="cls-14" d="M40.35,17.46a3.57,3.57,0,0,1-.31-.37,3,3,0,0,0,3.4,0,2.8,2.8,0,0,0,.38-.32,3.57,3.57,0,0,0,.31-.37,2.93,2.93,0,0,0,0-3.4,2.64,2.64,0,0,1,.37.31,2.92,2.92,0,0,1,.32,3.77,2.83,2.83,0,0,1-.32.37,2.3,2.3,0,0,1-.38.32A2.92,2.92,0,0,1,40.35,17.46Z"/><path class="cls-13" d="M44.5,26.3a3.68,3.68,0,0,0,.32-.37,2.93,2.93,0,0,0-4.09-4.09,3.38,3.38,0,0,0-.69.69,2.93,2.93,0,0,0,4.08,4.09A2.3,2.3,0,0,0,44.5,26.3Z"/><path class="cls-3" d="M44.5,26.3a3.68,3.68,0,0,0,.32-.37l-4.09-4.09a3.38,3.38,0,0,0-.69.69l4.08,4.09A2.3,2.3,0,0,0,44.5,26.3Z"/><path class="cls-14" d="M40.35,26.3a2.76,2.76,0,0,1-.31-.37,2.91,2.91,0,0,0,3.4,0,2.43,2.43,0,0,0,.69-.69,2.93,2.93,0,0,0,0-3.4,3.68,3.68,0,0,1,.37.32,2.92,2.92,0,0,1,.32,3.77,3.68,3.68,0,0,1-.32.37,2.3,2.3,0,0,1-.38.32A2.93,2.93,0,0,1,40.35,26.3Z"/><path class="cls-13" d="M52.55,17.45a2.83,2.83,0,0,0,.32-.37A2.93,2.93,0,0,0,48.78,13a2.83,2.83,0,0,0-.37.32,2.3,2.3,0,0,0-.32.38,2.92,2.92,0,0,0,4.08,4.08A2.3,2.3,0,0,0,52.55,17.45Z"/><path class="cls-3" d="M52.55,17.45a2.83,2.83,0,0,0,.32-.37L48.78,13a2.83,2.83,0,0,0-.37.32,2.3,2.3,0,0,0-.32.38l4.08,4.08A2.3,2.3,0,0,0,52.55,17.45Z"/><path class="cls-14" d="M48.4,17.46a3.57,3.57,0,0,1-.31-.37,3,3,0,0,0,3.4,0,2.8,2.8,0,0,0,.38-.32,3.57,3.57,0,0,0,.31-.37,2.91,2.91,0,0,0,0-3.4,2.64,2.64,0,0,1,.37.31,2.92,2.92,0,0,1,.32,3.77,2.83,2.83,0,0,1-.32.37,2.3,2.3,0,0,1-.38.32A2.92,2.92,0,0,1,48.4,17.46Z"/><path class="cls-13" d="M52.55,26.3a3.68,3.68,0,0,0,.32-.37,2.93,2.93,0,0,0-4.09-4.09,3.38,3.38,0,0,0-.69.69,2.93,2.93,0,0,0,4.08,4.09A2.3,2.3,0,0,0,52.55,26.3Z"/><path class="cls-3" d="M52.55,26.3a3.68,3.68,0,0,0,.32-.37l-4.09-4.09a3.38,3.38,0,0,0-.69.69l4.08,4.09A2.3,2.3,0,0,0,52.55,26.3Z"/><path class="cls-14" d="M48.4,26.3a2.76,2.76,0,0,1-.31-.37,2.91,2.91,0,0,0,3.4,0,2.43,2.43,0,0,0,.69-.69,2.91,2.91,0,0,0,0-3.4,3.68,3.68,0,0,1,.37.32,2.92,2.92,0,0,1,.32,3.77,3.68,3.68,0,0,1-.32.37,2.3,2.3,0,0,1-.38.32A2.93,2.93,0,0,1,48.4,26.3Z"/><path class="cls-13" d="M60.6,17.45a2.83,2.83,0,0,0,.32-.37A2.93,2.93,0,0,0,56.83,13a2.83,2.83,0,0,0-.37.32,2.3,2.3,0,0,0-.32.38,2.93,2.93,0,0,0,4.09,4.08A2.73,2.73,0,0,0,60.6,17.45Z"/><path class="cls-3" d="M60.6,17.45a2.83,2.83,0,0,0,.32-.37L56.83,13a2.83,2.83,0,0,0-.37.32,2.3,2.3,0,0,0-.32.38l4.09,4.08A2.73,2.73,0,0,0,60.6,17.45Z"/><path class="cls-14" d="M56.45,17.46a3.57,3.57,0,0,1-.31-.37,3,3,0,0,0,3.4,0,2.8,2.8,0,0,0,.38-.32,3.57,3.57,0,0,0,.31-.37,2.91,2.91,0,0,0,0-3.4,2.64,2.64,0,0,1,.37.31,2.92,2.92,0,0,1,.32,3.77,2.83,2.83,0,0,1-.32.37,2.73,2.73,0,0,1-.37.32A2.93,2.93,0,0,1,56.45,17.46Z"/><path class="cls-13" d="M60.6,26.3a3.68,3.68,0,0,0,.32-.37,2.93,2.93,0,0,0-4.09-4.09,3.38,3.38,0,0,0-.69.69,2.93,2.93,0,0,0,4.09,4.09A2.73,2.73,0,0,0,60.6,26.3Z"/><path class="cls-3" d="M60.6,26.3a3.68,3.68,0,0,0,.32-.37l-4.09-4.09a3.38,3.38,0,0,0-.69.69l4.09,4.09A2.73,2.73,0,0,0,60.6,26.3Z"/><path class="cls-14" d="M56.45,26.3a2.76,2.76,0,0,1-.31-.37,2.91,2.91,0,0,0,3.4,0,2.43,2.43,0,0,0,.69-.69,2.91,2.91,0,0,0,0-3.4,3.68,3.68,0,0,1,.37.32,2.92,2.92,0,0,1,.32,3.77,3.68,3.68,0,0,1-.32.37,2.73,2.73,0,0,1-.37.32A3,3,0,0,1,56.45,26.3Z"/><path class="cls-7" d="M31.53,19.81a.29.29,0,0,0-.3-.3h-.59a.3.3,0,1,0,0,.59h.59A.29.29,0,0,0,31.53,19.81Z"/><path class="cls-7" d="M59.7,20.1H58.51a.3.3,0,1,1,0-.59H59.7a.3.3,0,0,1,0,.59Zm-3.17,0H55.35a.3.3,0,1,1,0-.59h1.18a.3.3,0,1,1,0,.59Zm-3.16,0H52.18a.3.3,0,0,1,0-.59h1.19a.3.3,0,1,1,0,.59Zm-3.16,0H49a.3.3,0,1,1,0-.59h1.19a.3.3,0,1,1,0,.59Zm-3.16,0H45.86a.3.3,0,1,1,0-.59h1.19a.3.3,0,0,1,0,.59Zm-3.17,0H42.7a.3.3,0,1,1,0-.59h1.18a.3.3,0,1,1,0,.59Zm-3.16,0H39.54a.3.3,0,1,1,0-.59h1.18a.3.3,0,1,1,0,.59Zm-3.16,0H36.37a.3.3,0,0,1,0-.59h1.19a.3.3,0,1,1,0,.59Zm-3.16,0H33.21a.3.3,0,1,1,0-.59H34.4a.3.3,0,0,1,0,.59Z"/><path class="cls-7" d="M29.9,27.89l29.9.05a2.4,2.4,0,0,0,2.39-2.39V20.1h-.53a.3.3,0,1,1,0-.59h.53l0-8.59a4,4,0,0,1,1.55,3.14V25.55a4,4,0,0,1-4,4H33.11A4,4,0,0,1,29.9,27.89Z"/><polygon class="cls-20" points="63 58.93 59.91 58.93 59.91 55.84 57.15 55.84 57.15 58.93 54.06 58.93 54.06 61.68 57.15 61.68 57.15 64.77 59.91 64.77 59.91 61.68 63 61.68 63 58.93"/><polygon class="cls-20" points="54.82 82.83 51.81 82.83 51.81 79.83 49.14 79.83 49.14 82.83 46.13 82.83 46.13 85.51 49.14 85.51 49.14 88.52 51.81 88.52 51.81 85.51 54.82 85.51 54.82 82.83"/><polygon class="cls-20" points="116.17 122.71 113.16 122.71 113.16 119.7 110.48 119.7 110.48 122.71 107.48 122.71 107.48 125.38 110.48 125.38 110.48 128.39 113.16 128.39 113.16 125.38 116.17 125.38 116.17 122.71"/><polygon class="cls-20" points="28.12 29.16 23.75 29.16 23.75 24.8 19.86 24.8 19.86 29.16 15.49 29.16 15.49 33.05 19.86 33.05 19.86 37.42 23.75 37.42 23.75 33.05 28.12 33.05 28.12 29.16"/><polygon class="cls-20" points="129.92 75 126.83 75 126.83 71.91 124.07 71.91 124.07 75 120.98 75 120.98 77.76 124.07 77.76 124.07 80.85 126.83 80.85 126.83 77.76 129.92 77.76 129.92 75"/><polygon class="cls-20" points="130.11 106.61 125.68 106.61 125.68 102.18 121.74 102.18 121.74 106.61 117.31 106.61 117.31 110.55 121.74 110.55 121.74 114.97 125.68 114.97 125.68 110.55 130.11 110.55 130.11 106.61"/><polygon class="cls-20" points="110.77 38.22 107.68 38.22 107.68 35.12 104.92 35.12 104.92 38.22 101.83 38.22 101.83 40.97 104.92 40.97 104.92 44.06 107.68 44.06 107.68 40.97 110.77 40.97 110.77 38.22"/><polygon class="cls-20" points="32.04 129.26 28.95 129.26 28.95 126.17 26.2 126.17 26.2 129.26 23.11 129.26 23.11 132.01 26.2 132.01 26.2 135.11 28.95 135.11 28.95 132.01 32.04 132.01 32.04 129.26"/><ellipse class="cls-21" cx="79.53" cy="171.4" rx="26.77" ry="5.23"/><path class="cls-23" d="M72.61,172.86a7,7,0,0,0,3.56-.37v-.82l-3.76-.47Z"/><path class="cls-23" d="M76.17,171.67c-6.68,1.78-11.65,2-14.42,1l-.09-1,14.41-1.21Z"/><path class="cls-24" d="M76.1,170.78c-2.11,1.29-13.25,2.06-14.44.81-.06-.72,1.1-1.5,3.2-2.34l.65-.25.5-.18.67-.24h0l.49-.16h0l.71-.23,1.84-.56C75.34,166,76,169.62,76.1,170.78Z"/><path class="cls-23" d="M69.2,169.46a.29.29,0,0,1-.24.12.25.25,0,0,1-.16-.05l-1.63-1.11.71-.23,1.25.86A.29.29,0,0,1,69.2,169.46Z"/><path class="cls-23" d="M68,169.9a.27.27,0,0,1-.23.11.33.33,0,0,1-.19-.06c-.28-.23-.6-.45-.92-.67l-.64-.46.67-.24h0l.31.22c.32.22.65.45,1,.69A.29.29,0,0,1,68,169.9Z"/><path class="cls-23" d="M66.79,170.32a.29.29,0,0,1-.24.11.41.41,0,0,1-.18-.05l-1.51-1.13.65-.25,1.22.9A.31.31,0,0,1,66.79,170.32Z"/><path class="cls-23" d="M87.64,172.86a7,7,0,0,1-3.56-.37v-.82l3.76-.47Z"/><path class="cls-23" d="M84.08,171.67c6.68,1.78,11.65,2,14.42,1l.09-1-14.41-1.21Z"/><path class="cls-24" d="M84.15,170.78c2.11,1.29,13.25,2.06,14.44.81.06-.72-1.1-1.5-3.2-2.34l-.66-.25-.49-.18-.67-.24h0l-.49-.16h0l-.71-.23-1.84-.56C84.91,166,84.25,169.62,84.15,170.78Z"/><path class="cls-23" d="M91.05,169.46a.29.29,0,0,0,.24.12.25.25,0,0,0,.16-.05l1.63-1.11-.71-.23-1.25.86A.29.29,0,0,0,91.05,169.46Z"/><path class="cls-23" d="M92.26,169.9a.27.27,0,0,0,.23.11.28.28,0,0,0,.18-.06c.29-.23.61-.45.93-.67l.64-.46-.67-.24h0l-.31.22c-.32.22-.65.45-1,.69A.29.29,0,0,0,92.26,169.9Z"/><path class="cls-23" d="M93.46,170.32a.29.29,0,0,0,.24.11.41.41,0,0,0,.18-.05l1.51-1.13-.66-.25-1.21.9A.31.31,0,0,0,93.46,170.32Z"/><path class="cls-25" d="M112.75,93.59a3,3,0,0,0-.52-.31,3.53,3.53,0,0,0-4.72,1.65v0l-.2.42c-.13.28-.33.68-.58,1.17s-.58,1.09-1,1.73a18.42,18.42,0,0,1-1.23,1.84,22.49,22.49,0,0,1-1.06-3c-.34-1.21-.64-2.51-.93-3.82s-.55-2.65-.81-4-.52-2.62-.81-4-.6-2.56-.94-3.75l0-.11q-.49-1.73-1-3.21c-.36-1-.73-2-1.1-2.8a22.42,22.42,0,0,0-1.11-2.2c-.2-.32-.36-.59-.57-.87L96,72.21,96,72.12l-.08-.1c-.16-.18-.3-.33-.44-.46l-.31-.27-.12-.1h0l-.09-.06a2.3,2.3,0,0,0-2.81,3.63l.06,0,.1.07.12.1c.08.06,0,0,0,0a.16.16,0,0,1-.08-.06v0l0,0,.06.08c.07.1.17.3.28.49a18.19,18.19,0,0,1,.74,1.73c.27.71.55,1.55.82,2.5s.54,2,.78,3.06.47,2.28.68,3.5.37,2.54.56,3.88c.1.71.2,1.43.31,2.15s.19,1.3.3,2c.22,1.39.47,2.79.78,4.2a24.84,24.84,0,0,0,1.29,4.33,10.41,10.41,0,0,0,.79,1.56,9.62,9.62,0,0,0,.6.85,6.2,6.2,0,0,0,1.47,1.3,5,5,0,0,0,2.41.74,5.49,5.49,0,0,0,2.21-.4,7.32,7.32,0,0,0,1.42-.8,10.87,10.87,0,0,0,1.72-1.55c.44-.49.81-1,1.13-1.38s.63-.87.9-1.27c.51-.78.93-1.45,1.25-2s.58-1,.74-1.29l.25-.46a1.4,1.4,0,0,0,.09-.17A3.53,3.53,0,0,0,112.75,93.59Zm-7.58,7.57a.19.19,0,0,1-.07-.08C105.21,101.17,105.21,101.2,105.17,101.16Z"/><path class="cls-26" d="M99.67,128.77,88.73,110.23H68.43l-8.14,18.54v10c3.27,2.9,27.18,3.42,39.38,0Z"/><rect class="cls-27" x="75.41" y="59.04" width="8.94" height="13.67"/><path class="cls-28" d="M91.26,43.91l-.38-5.76A4.66,4.66,0,0,0,87.39,34a34.27,34.27,0,0,0-7.23-1h-.5a34.36,34.36,0,0,0-7.23,1A4.54,4.54,0,0,0,69,38.15l-.38,5.76-.45,6.8,0,.22a9.49,9.49,0,0,0,2.52,7.35l3.91,4.18a2.9,2.9,0,0,0,2.1.91h6.56a2.88,2.88,0,0,0,2.1-.91l3.91-4.18a9.49,9.49,0,0,0,2.52-7.35l0-.22Z"/><path class="cls-23" d="M92.49,31.33A10.8,10.8,0,0,0,90.61,29a14.93,14.93,0,0,0-7.84-3.63l.16,0c.2,0,.38-.09.56-.11l.25,0,.24,0a3.17,3.17,0,0,1,.42,0,1.57,1.57,0,0,1,.32,0l.29,0a1.79,1.79,0,0,0-.23-.18,1.11,1.11,0,0,0-.29-.18,2.24,2.24,0,0,0-.44-.19l-.26-.08a2.47,2.47,0,0,0-.29-.06,3.32,3.32,0,0,0-.65-.07,5.63,5.63,0,0,0-1.44.16l-.49.13a2.16,2.16,0,0,0-.17-.34A2.8,2.8,0,0,0,80.5,24a2.06,2.06,0,0,0-.64-.59,1.27,1.27,0,0,0-.57-.16l-.21,0,.14.13a1.64,1.64,0,0,1,.26.39,4.54,4.54,0,0,1,.2.62l.06.23a4.06,4.06,0,0,0-.89-.34,3.16,3.16,0,0,0-1.08-.07l-.21,0-.19.06a1.39,1.39,0,0,0-.29.1l-.23.12.25,0a1.8,1.8,0,0,1,.27.07l.17.05.18.07a6.42,6.42,0,0,1,.8.39l0,0a17.14,17.14,0,0,0-5.86,1.36,11.54,11.54,0,0,0-5.21,4.27,10.49,10.49,0,0,0-1.6,6.1l.41,6.17c.69.85,1.62.2,2.28.85L69,38.15A4.54,4.54,0,0,1,72.43,34l.82-.19c3.48.24,6.31,2.7,9.81,3-.67-.36-1.36-.77-2.06-1.19,3.12,1,6.24,1.78,9.37.71a5,5,0,0,1,.51,1.82l.38,5.76c.85.13,2,1,2.27-.85l.41-6.17A10.7,10.7,0,0,0,92.49,31.33Z"/><g class="cls-29"><path class="cls-30" d="M82.88,33.61c1.49.46,3.54.43,4.38-1.11-3.23,1.75-6.46-2.91-9.78-1.12,1.65.14,3,1.17,4.47,1.86-2.26-.9-4.52-1.72-7-1.17,4.72.81,9.94,6,14.73,2.66C87.28,35.25,85.07,34.48,82.88,33.61Z"/><path class="cls-30" d="M84.32,26.52a12.71,12.71,0,0,1,8.93,12.25A10.49,10.49,0,0,0,84.32,26.52Z"/><path class="cls-30" d="M92.5,40.37a10,10,0,0,0-2.1-8.6A37.4,37.4,0,0,1,92.5,40.37Z"/><path class="cls-30" d="M66.68,36.48a14.37,14.37,0,0,1,4.66-8.2A8,8,0,0,0,66.68,36.48Z"/></g><path class="cls-31" d="M80,109.88c-4.1,0-9.31-6-14-6.91-.25-12.77.78-24.87,4.2-35.72L80,68.58l9.83-1.33c2.86,10,4,22.35,4.2,35.72C89.25,103.9,84.05,109.9,80,109.88Z"/><path class="cls-32" d="M80,68.58l-5,4.63-4.83-6,5.3-3.75A5.42,5.42,0,0,0,80,68.58c3.18-.56,4.24-2.6,4.4-5l5.43,3.67-4.82,6Z"/><path class="cls-23" d="M80,122.11a34.54,34.54,0,0,1-5.11-.22,9.2,9.2,0,0,1-7.91-7.27,54,54,0,0,1-1-11.65,58.74,58.74,0,0,0,14,2.41A58.75,58.75,0,0,0,94,103a54,54,0,0,1-1,11.65,9.23,9.23,0,0,1-7.91,7.27A34.66,34.66,0,0,1,80,122.11Z"/><path class="cls-33" d="M80,105.38a58.74,58.74,0,0,1-14-2.41c0,.9,0,1.8,0,2.69a58.48,58.48,0,0,0,14,2.4,58.48,58.48,0,0,0,14-2.4c0-.89,0-1.79,0-2.69A58.75,58.75,0,0,1,80,105.38Z"/><rect class="cls-34" x="78.07" y="105.28" width="3.76" height="2.78"/><polygon class="cls-23" points="69.22 106.67 68.43 106.67 68.43 103.65 69.22 103.84 69.22 106.67"/><polygon class="cls-23" points="90.67 106.67 91.46 106.67 91.46 103.65 90.67 103.84 90.67 106.67"/><polygon class="cls-23" points="73.8 107.67 73.01 107.67 73.01 104.65 73.8 104.76 73.8 107.67"/><polygon class="cls-23" points="86.09 107.67 86.88 107.67 86.88 104.65 86.09 104.76 86.09 107.67"/><path class="cls-35" d="M79.91,92.84c-.5-.41-2.13-1.75-2.64-2.14C78.72,84.83,80,79.47,80,73.35c.48,0,.34-.11.82-.14.66,6.2,2.29,12,1.44,18.22C81.67,91.62,80.53,92.66,79.91,92.84Z"/><path class="cls-33" d="M78.61,92.29c-.51-.41-1.56-1.51-2.07-1.91C78,84.52,79.29,79.16,79.3,73L80.74,73c.66,6.2,1.29,11.72.44,18C80.56,91.14,79.23,92.11,78.61,92.29Z"/><path class="cls-23" d="M77.27,169.14c0-.38-.15-2.73-.14-3.12.46-17.53.81-35,.45-52.54-.08-3.43-5.18-3.89-5.86-.53a42.09,42.09,0,0,0-.34,5.94c-.4,7.76-.91,15.52-1.66,23.26Q68.52,154.58,67.3,167c0,.06,0,.12,0,.18A16,16,0,0,0,77.27,169.14Z"/><path class="cls-23" d="M82.63,168.26c0-.38.15-2.73.14-3.12-.46-17.53-.8-35-.44-52.55.08-3.42,5.18-3.88,5.85-.52a42,42,0,0,1,.34,5.94c.4,7.76.91,15.52,1.66,23.26q1.2,12.42,2.42,24.85a1.09,1.09,0,0,1,0,.18C90.39,167.89,87.13,168.94,82.63,168.26Z"/><polygon class="cls-23" points="79.21 73.27 78.61 70.39 80 68.96 81.39 70.39 80.85 73.21 79.21 73.27"/><path class="cls-2" d="M75.41,63.5c-.1,8.69-.07,17.38-.09,25.76,0,20.4-.26,39-2.88,51.39-5,.3-8.39.5-12.15-1.9,0-7-.26-14.23-.3-21v-2.42c0-14.77.46-28.76,3.53-41.19a11,11,0,0,1,5.28-6.93l3.55-2Z"/><path class="cls-2" d="M99.82,115.67v2.41c0,6.78-.14,13.69-.15,20.67-3.76,2.4-9.88,2.36-14.86,2.06,1.37-13,.71-31.69.11-52.19-.24-8.14-.48-16.57-.57-25l3.08,1.73,3.54,2a11,11,0,0,1,4,3.89,11.29,11.29,0,0,1,1.26,3,100.61,100.61,0,0,1,2,10.45,177.7,177.7,0,0,1,1.48,19.77c0,1,0,2,.07,2.94C99.81,110.11,99.82,112.88,99.82,115.67Z"/><path class="cls-36" d="M90.44,74.3,84.92,88.62c-.24-8.14-.47-16.57-.57-25l3.08,1.73,2.46,7.9-3.31.42Z"/><path class="cls-36" d="M75.41,63.5c-.1,8.69-.07,17.38-.09,25.76L69.43,74l3.86-.67L70,72.88l2.37-7.65Z"/><path class="cls-14" d="M73.17,115.47a0,0,0,0,1,0,0,1,1,0,0,1-1.29.75q-1-.26-2-.57h-.27l-.07.3-.27,1.22.34-.17v1.06H62.32l-.18-.3-.36-.59a2.79,2.79,0,0,1-.24-.53,2.64,2.64,0,0,1-.06-1.57,2.32,2.32,0,0,1,.13-.37h0l-.8-1.32-.11-.18-.19.12-.7-1.27-1.09.64c-.29-.66-.56-1.34-.81-2a38.87,38.87,0,0,1-2.5-13.92,32,32,0,0,1,3.75-14.6,49.4,49.4,0,0,1,3.93-6.22c1-1.34,2.26-3.45,4.12-3.22A1.81,1.81,0,0,1,68.82,75a4,4,0,0,1-.72,1.67,28.71,28.71,0,0,0-4.67,24.05c.66,2.89,2,4.46,4.13,8.11l-2.22,1.57.37.63.07.1h0l.52.87,0,0h0a2.79,2.79,0,0,1,1.25.46,2.83,2.83,0,0,1,.28.2h0a32.25,32.25,0,0,0,4.33,1.43l.17,0A1.07,1.07,0,0,1,73.17,115.47Z"/><path class="cls-36" d="M99.82,115.67v2.41H91.08c0-.8,0-1.61,0-2.41Z"/><polygon class="cls-21" points="95.6 86.76 95.6 86.76 95.44 84.94 92.13 85.23 90.61 85.37 87.84 84.89 87.84 90.99 95.92 90.38 95.6 86.76"/><rect class="cls-37" x="88.07" y="84.52" width="8.17" height="5.6" transform="translate(-7.28 8.39) rotate(-5.02)"/><rect class="cls-38" x="87.9" y="84.52" width="8.17" height="1.82" transform="translate(-7.12 8.37) rotate(-5.02)"/><rect class="cls-33" x="89.76" y="86.91" width="5.03" height="0.38" transform="translate(-7.26 8.4) rotate(-5.02)"/><rect class="cls-33" x="90.57" y="87.85" width="3.59" height="0.38" transform="translate(-7.34 8.41) rotate(-5.01)"/><rect class="cls-33" x="90.25" y="88.68" width="4.36" height="0.38" transform="translate(-7.42 8.42) rotate(-5.02)"/><rect class="cls-34" x="91.13" y="83.03" width="1.52" height="2.6" rx="0.49" ry="0.49" transform="translate(-7.01 8.35) rotate(-5.01)"/><path class="cls-39" d="M69.56,116.09v2H68.39l-.43-.76v0l-.27-.49a1,1,0,0,1,.15-1.14.91.91,0,0,1,.24-.2h0a1,1,0,0,1,1.21.21,1,1,0,0,1,.12.17l.07.13Z"/><path class="cls-39" d="M68.39,118.08H66.11l0-.06,0,0-.12-.23a1,1,0,0,1,.39-1.34h0a1,1,0,0,1,1.33.39l.27.49v0Z"/><path class="cls-39" d="M63.53,111.19v0a1,1,0,0,1,1.47-.4,32.7,32.7,0,0,0,6.45,2.64,1.1,1.1,0,0,1,.76,1.31v0a1,1,0,0,1-1.31.75,34.07,34.07,0,0,1-6.78-2.72A1.25,1.25,0,0,1,63.53,111.19Z"/><path class="cls-39" d="M66.11,118.08h-2a1,1,0,0,1,.49-.69h0a1,1,0,0,1,1.34.39l.12.23,0,0Z"/><path class="cls-28" d="M68.72,114.56l-.25.14-1.75,1-4.38,2.41h-.53l-.05-.1-1-1.76a3.76,3.76,0,0,1-.23-.55,2.92,2.92,0,0,1,.12-2c0-.09.09-.17.13-.26a2.91,2.91,0,0,1,1.12-1.11l1.51-.83h0l.19-.1a2.84,2.84,0,0,1,1.81-.33h0l.22,0a2.83,2.83,0,0,1,1.29.68h0a2.44,2.44,0,0,1,.57.73l0,0,1,1.72Z"/><polygon class="cls-28" points="66.33 112.61 65.13 113.28 61.56 115.24 61.48 115.09 60.68 113.65 60.51 113.33 59.81 112.06 59.02 110.62 63.79 107.99 64.51 109.31 65.44 111 65.45 111.02 65.46 111.02 66.33 112.61"/><path class="cls-40" d="M69.56,116.09v1.38a.82.82,0,0,1-.25.2h0a1,1,0,0,1-1.33-.36,1,1,0,0,1,.06.76H66.11l0-.08,0,0a.14.14,0,0,1,0,.06H61.81l-.05-.1.38-.2L66,115.67,68,114.54l.52-.29.17.31.16.29.45.82.09.17.07.13Z"/><path class="cls-25" d="M69,74.81l-.16.23c-5.15,7.2-8,15-6.82,24.2.63,4.92,1.87,5.42,3.88,9.27l-1.37.8-4.7,2.75-1.09.64-.31.18c-.48-1.15-.94-2.31-1.32-3.51a41.31,41.31,0,0,1-2.16-14.53A34.1,34.1,0,0,1,59,79.78a52.39,52.39,0,0,1,4.08-6.35c1-1.36,2.34-3.53,4.2-3.24A3,3,0,0,1,69,74.81Z"/><path class="cls-36" d="M69.56,115.67v2.41H60.13c0-.81,0-1.61,0-2.41Z"/><path class="cls-14" d="M112.75,93.59l-2.1,9.61c-.32.43-.69.89-1.13,1.38a10.87,10.87,0,0,1-1.72,1.55,7.32,7.32,0,0,1-1.42.8,5.49,5.49,0,0,1-2.21.4,5,5,0,0,1-2.41-.74,6.2,6.2,0,0,1-1.47-1.3,9.62,9.62,0,0,1-.6-.85c0,1,0,2,.07,2.94L94.08,107c-.4,0-.64-.44-.54-.92l3-13.7,1.68-7.72.53-2.4a1,1,0,0,1,.91-.81l.31,0,0,.11c.34,1.19.65,2.45.94,3.75s.54,2.63.81,4,.53,2.66.81,4,.59,2.61.93,3.82a22.49,22.49,0,0,0,1.06,3,18.42,18.42,0,0,0,1.23-1.84c.37-.64.69-1.23,1-1.73s.45-.89.58-1.17l.2-.42v0a3.53,3.53,0,0,1,4.72-1.65A3,3,0,0,1,112.75,93.59Z"/><path class="cls-8" d="M96.94,103.8l14.8,1a1,1,0,0,0,.91-.81l5.2-23.82c.1-.48-.14-.89-.54-.91l-14.8-1a1,1,0,0,0-.91.82l-5.19,23.82C96.31,103.37,96.55,103.78,96.94,103.8Z"/><path class="cls-41" d="M108.87,78.2a.53.53,0,0,0,.46-.29c.44-.76.64-1.55.9-2.08a.4.4,0,0,1,.35-.24h.13a.27.27,0,0,1,.24.29,21.1,21.1,0,0,0,0,2.13.35.35,0,0,0,.32.34l1,.07c.52,0,.83.57.7,1.19l-.12.55a.31.31,0,0,1-.29.26L106.71,80a.21.21,0,0,1-.17-.28l.12-.56a1.27,1.27,0,0,1,1.18-1.06Z"/><path class="cls-25" d="M111.88,79.49a.29.29,0,0,0,.22.37.39.39,0,0,0,.36-.33c.05-.2,0-.36-.21-.37A.4.4,0,0,0,111.88,79.49Z"/><path class="cls-25" d="M107.15,79.17c0,.2.06.36.22.37a.39.39,0,0,0,.36-.33.28.28,0,0,0-.21-.37A.4.4,0,0,0,107.15,79.17Z"/><path class="cls-25" d="M108.34,79.79,111,80a.2.2,0,0,0,.18-.17c0-.1,0-.19-.11-.19l-2.68-.18a.19.19,0,0,0-.19.17A.15.15,0,0,0,108.34,79.79Z"/><path class="cls-25" d="M108.44,79.31l2.69.18a.2.2,0,0,0,.19-.17.15.15,0,0,0-.11-.19L108.52,79a.21.21,0,0,0-.19.17C108.31,79.22,108.36,79.31,108.44,79.31Z"/><path class="cls-25" d="M108.55,78.84l2.68.17a.19.19,0,0,0,.19-.16c0-.1,0-.19-.11-.19l-2.68-.18a.19.19,0,0,0-.19.17A.14.14,0,0,0,108.55,78.84Z"/><path class="cls-28" d="M113,92v0a1.26,1.26,0,0,1,1.18-1.06l2,.14c.52,0,.83.56.7,1.18v0a1.26,1.26,0,0,1-1.18,1.06l-2-.14C113.21,93.11,112.9,92.58,113,92Z"/><path class="cls-28" d="M112.54,94.23v0a1.27,1.27,0,0,1,1.18-1.06l2.47.16a.89.89,0,0,1,.7,1.18v0a1.25,1.25,0,0,1-1.18,1.06l-2.47-.16C112.71,95.38,112.4,94.85,112.54,94.23Z"/><path class="cls-28" d="M112,96.49v0a1.24,1.24,0,0,1,1.18-1l2.38.15c.51,0,.82.56.69,1.18v0a1.25,1.25,0,0,1-1.18,1l-2.38-.15C112.22,97.64,111.91,97.11,112,96.49Z"/><path class="cls-28" d="M111.79,98.65v0a1.12,1.12,0,0,1,1-.94l1.82.12c.46,0,.73.5.61,1v0a1.12,1.12,0,0,1-1,.94l-1.82-.12A.79.79,0,0,1,111.79,98.65Z"/><path class="cls-14" d="M98.44,93.58l-2,9.31c-.1.48.14.89.53.91l14.8,1a1,1,0,0,0,.91-.81l.68-3.12A21.33,21.33,0,0,1,98.44,93.58Z"/><path class="cls-34" d="M69.73,96.56a1.84,1.84,0,0,1-1.51-.7,6.75,6.75,0,0,1-1.13-2.41l-2.35-7.36a10.38,10.38,0,0,1-.7-4.26,3.41,3.41,0,0,1,1.09-2.19,1.52,1.52,0,0,1,1.44-.36l-.07.5a1.21,1.21,0,0,0-1.13.29,2.94,2.94,0,0,0-.93,1.86,9.84,9.84,0,0,0,.68,4l2.35,7.36a6.4,6.4,0,0,0,1,2.21A1.29,1.29,0,0,0,70,96l.06,0,.07,0a1.26,1.26,0,0,0,1.35-.77A6.26,6.26,0,0,0,72,92.79l.69-7.7a9.68,9.68,0,0,0-.2-4,3,3,0,0,0-1.31-1.62,1.23,1.23,0,0,0-1.16,0l-.18-.47a1.51,1.51,0,0,1,1.48,0,3.51,3.51,0,0,1,1.55,1.9,10.46,10.46,0,0,1,.23,4.32l-.69,7.69a6.79,6.79,0,0,1-.58,2.59,1.66,1.66,0,0,1-1.71,1A1.21,1.21,0,0,1,69.73,96.56Z"/><path class="cls-42" d="M67.37,79.9l-1,0a.26.26,0,0,1-.24-.26l0-.4a.26.26,0,0,1,.18-.31l1-.18c.12,0,.25.09.26.25l.07.56A.27.27,0,0,1,67.37,79.9Z"/><path class="cls-42" d="M69.17,79.7l1-.19a.25.25,0,0,0,.18-.3l0-.4a.25.25,0,0,0-.24-.26l-1,0c-.13,0-.22.14-.21.31l.07.55A.25.25,0,0,0,69.17,79.7Z"/><path class="cls-42" d="M70.11,98.44a.37.37,0,0,1-.35-.27L69.08,96a.4.4,0,0,1,.25-.54l.65-.09.66,0c.2,0,.38.21.36.47l-.2,2.24a.33.33,0,0,1-.28.34Z"/><path class="cls-38" d="M71.58,94.26A2.56,2.56,0,0,1,71,92c0-.2,0-.39,0-.59,0-.51,0-1,0-1.51s0-.88,0-1.33A4,4,0,0,0,70,85.8a1.68,1.68,0,0,0-1.38-.2,1.4,1.4,0,0,0-1,.66,3.14,3.14,0,0,0-.18,1.59L68,92l-.59.06-.43-4.18A3.65,3.65,0,0,1,67.15,86a1.93,1.93,0,0,1,1.38-1,2.21,2.21,0,0,1,1.89.32c1,.81,1.08,2.66,1.08,3.21s0,.88,0,1.31,0,1,0,1.54c0,.2,0,.41,0,.61,0,.75-.07,1.39.4,1.8Z"/><path class="cls-38" d="M70.18,93c-.08-.59-.1-1.19-.12-1.76s0-1.06-.11-1.59c0-.09,0-.2,0-.31a4.1,4.1,0,0,0-.14-.83c-.07-.21-.31-.41-.5-.35-.66.19-.43,2-.23,3.1l-.58.1c-.55-3,0-3.59.62-3.76a1.06,1.06,0,0,1,1.25.71,4.57,4.57,0,0,1,.17,1,2.58,2.58,0,0,0,0,.29c.06.56.08,1.11.1,1.63a16,16,0,0,0,.12,1.71Z"/><path class="cls-25" d="M65.44,90.19v7.55a2.5,2.5,0,0,0,2.49,2.49h2.83a2.49,2.49,0,0,0,2.49-2.49V90.19Z"/><rect class="cls-37" x="65.44" y="90.19" width="7.81" height="1.9"/><path class="cls-43" d="M67.49,96.79l-.59-.08a8,8,0,0,0-.33-3.5c0-.13-.09-.26-.13-.39a6.13,6.13,0,0,1-.35-1.24,2.94,2.94,0,0,1,.39-2,1.15,1.15,0,0,1,1.32-.31,1,1,0,0,1,.78.92H68c0-.14-.16-.29-.38-.37a.61.61,0,0,0-.67.12,2.42,2.42,0,0,0-.26,1.58A5.54,5.54,0,0,0,67,92.63c.05.13.1.26.14.4A8.55,8.55,0,0,1,67.49,96.79Z"/><rect class="cls-37" x="66.7" y="96.33" width="1.18" height="1.62"/><path class="cls-44" d="M69.64,99.83a2.35,2.35,0,1,1-2.35-2.35A2.36,2.36,0,0,1,69.64,99.83Z"/><path class="cls-42" d="M68.4,99.83a1.11,1.11,0,1,1-1.11-1.11A1.11,1.11,0,0,1,68.4,99.83Z"/><path class="cls-13" d="M123.71,146.48a4.2,4.2,0,0,1-2.38,3.88h0a3.35,3.35,0,0,1-1.51.34,3.57,3.57,0,0,1-1.82-.49,2.8,2.8,0,0,0-2.85,0,3.6,3.6,0,0,1-1.82.49,3.35,3.35,0,0,1-1.51-.34h0a4.19,4.19,0,0,1-2.37-3.88,4.25,4.25,0,0,1,2.18-3.79,2.82,2.82,0,0,0,1.56-2.48v-5.42h6.64v5.33a2.84,2.84,0,0,0,1.62,2.52A4.22,4.22,0,0,1,123.71,146.48Z"/><path class="cls-13" d="M123.71,156.09a4.35,4.35,0,0,1-1.28,3.12,8.34,8.34,0,0,0-2.46,6v3h-6.64v-2.87a8.39,8.39,0,0,0-2.57-6.06,4.37,4.37,0,0,1-1.32-3.17,4,4,0,0,1,2.55-3.66c.43-.21.88-.4,1.34-.57.87-.31,2-1.16,3.24-1.16s2.41.87,3.25,1.16a13.3,13.3,0,0,1,1.33.57A4,4,0,0,1,123.71,156.09Z"/><path class="cls-45" d="M113.33,150.7a3.35,3.35,0,0,1-1.51-.34,4.91,4.91,0,0,1,9.51,0,3.35,3.35,0,0,1-1.51.34,3.57,3.57,0,0,1-1.82-.49,2.8,2.8,0,0,0-2.85,0A3.6,3.6,0,0,1,113.33,150.7Z"/><path class="cls-45" d="M119.82,151.86a13.3,13.3,0,0,1,1.33.57,5,5,0,0,1-9.16,0c.43-.21.88-.4,1.34-.57.87-.31,2-1.16,3.24-1.16S119,151.57,119.82,151.86Z"/><rect class="cls-42" x="13.47" y="63.4" width="31.77" height="2.72"/><rect class="cls-33" x="11.12" y="41.21" width="36.48" height="23.09" rx="1.75" ry="1.75"/><path class="cls-46" d="M44.61,62.89H14.11a1.56,1.56,0,0,1-1.62-1.49V44.67a1.57,1.57,0,0,1,1.62-1.5h30.5a1.57,1.57,0,0,1,1.62,1.5V61.4A1.56,1.56,0,0,1,44.61,62.89Z"/><path class="cls-47" d="M30,42.13a.59.59,0,0,1-.59.59.59.59,0,1,1,.59-.59Z"/><path class="cls-42" d="M29.77,42.13a.41.41,0,1,1-.41-.4A.41.41,0,0,1,29.77,42.13Z"/><path class="cls-33" d="M50.5,65.43v.94a1.86,1.86,0,0,1-.39,1.13,1.82,1.82,0,0,1-1.44.7H10.05a1.83,1.83,0,0,1-1.83-1.83v-.94Z"/><rect class="cls-33" x="8.22" y="65.25" width="42.28" height="1.12"/><path class="cls-2" d="M36.82,58.15a2,2,0,0,1-.56-.08,1.11,1.11,0,0,1-.45-.25,1.2,1.2,0,0,1-.31-.46,2.1,2.1,0,0,1-.11-.72V56.5a2.13,2.13,0,0,1,.12-.76,1.34,1.34,0,0,1,.34-.51,1.28,1.28,0,0,1,.49-.29,2.44,2.44,0,0,1,1.24,0,1.27,1.27,0,0,1,.83.8,2.13,2.13,0,0,1,.12.76v2.16a2.13,2.13,0,0,1-.12.76,1.34,1.34,0,0,1-.34.51,1.28,1.28,0,0,1-.51.29,2.61,2.61,0,0,1-.64.08,2,2,0,0,1-.68-.11,1.33,1.33,0,0,1-.47-.31,1.24,1.24,0,0,1-.28-.42,1.14,1.14,0,0,1-.1-.47.3.3,0,0,1,.09-.26.38.38,0,0,1,.26-.07.6.6,0,0,1,.27.06c.08,0,.12.11.12.23a.64.64,0,0,0,.06.28.72.72,0,0,0,.18.21.79.79,0,0,0,.26.13,1.55,1.55,0,0,0,.31,0,.85.85,0,0,0,.63-.23,1,1,0,0,0,.22-.72v-.94a.91.91,0,0,1-.43.33A1.57,1.57,0,0,1,36.82,58.15Zm1-1.69a1,1,0,0,0-.22-.72.92.92,0,0,0-1.22,0,1,1,0,0,0-.22.72v.13a1,1,0,0,0,.22.72.84.84,0,0,0,.61.21.9.9,0,0,0,.61-.2.84.84,0,0,0,.22-.67Z"/><path class="cls-2" d="M42.17,55.88a.59.59,0,0,1,0,.21,1.45,1.45,0,0,1-.09.22l-1.88,3.85a.25.25,0,0,1-.23.12.53.53,0,0,1-.32-.1.37.37,0,0,1-.14-.28.33.33,0,0,1,0-.15L41.43,56v-.46H39.77v.7a.21.21,0,0,1-.12.18.44.44,0,0,1-.26.07.41.41,0,0,1-.25-.07.2.2,0,0,1-.11-.18V55.11a.21.21,0,0,1,.1-.17.34.34,0,0,1,.23-.08h2.48a.32.32,0,0,1,.22.08.22.22,0,0,1,.11.17Z"/><path class="cls-2" d="M36.82,58.15a2,2,0,0,1-.56-.08,1.11,1.11,0,0,1-.45-.25,1.2,1.2,0,0,1-.31-.46,2.1,2.1,0,0,1-.11-.72V56.5a2.13,2.13,0,0,1,.12-.76,1.34,1.34,0,0,1,.34-.51,1.28,1.28,0,0,1,.49-.29,2.44,2.44,0,0,1,1.24,0,1.27,1.27,0,0,1,.83.8,2.13,2.13,0,0,1,.12.76v2.16a2.13,2.13,0,0,1-.12.76,1.34,1.34,0,0,1-.34.51,1.28,1.28,0,0,1-.51.29,2.61,2.61,0,0,1-.64.08,2,2,0,0,1-.68-.11,1.33,1.33,0,0,1-.47-.31,1.24,1.24,0,0,1-.28-.42,1.14,1.14,0,0,1-.1-.47.3.3,0,0,1,.09-.26.38.38,0,0,1,.26-.07.6.6,0,0,1,.27.06c.08,0,.12.11.12.23a.64.64,0,0,0,.06.28.72.72,0,0,0,.18.21.79.79,0,0,0,.26.13,1.55,1.55,0,0,0,.31,0,.85.85,0,0,0,.63-.23,1,1,0,0,0,.22-.72v-.94a.91.91,0,0,1-.43.33A1.57,1.57,0,0,1,36.82,58.15Zm1-1.69a1,1,0,0,0-.22-.72.92.92,0,0,0-1.22,0,1,1,0,0,0-.22.72v.13a1,1,0,0,0,.22.72.84.84,0,0,0,.61.21.9.9,0,0,0,.61-.2.84.84,0,0,0,.22-.67Z"/><path class="cls-2" d="M42.17,55.88a.59.59,0,0,1,0,.21,1.45,1.45,0,0,1-.09.22l-1.88,3.85a.25.25,0,0,1-.23.12.53.53,0,0,1-.32-.1.37.37,0,0,1-.14-.28.33.33,0,0,1,0-.15L41.43,56v-.46H39.77v.7a.21.21,0,0,1-.12.18.44.44,0,0,1-.26.07.41.41,0,0,1-.25-.07.2.2,0,0,1-.11-.18V55.11a.21.21,0,0,1,.1-.17.34.34,0,0,1,.23-.08h2.48a.32.32,0,0,1,.22.08.22.22,0,0,1,.11.17Z"/><rect class="cls-2" x="28.32" y="52.88" width="2.87" height="7.75" rx="1.42" ry="1.42"/><rect class="cls-48" x="29.25" y="53.87" width="1" height="6.89"/><rect class="cls-48" x="28.79" y="58.9" width="0.58" height="0.27"/><rect class="cls-48" x="28.79" y="57.44" width="0.58" height="0.27"/><rect class="cls-48" x="28.79" y="55.99" width="0.58" height="0.27"/><rect class="cls-48" x="28.79" y="54.53" width="0.58" height="0.27"/><rect class="cls-48" x="30.14" y="58.9" width="0.58" height="0.27"/><rect class="cls-48" x="30.14" y="57.44" width="0.58" height="0.27"/><rect class="cls-48" x="30.14" y="55.99" width="0.58" height="0.27"/><rect class="cls-48" x="30.14" y="54.53" width="0.58" height="0.27"/><path class="cls-49" d="M29.76,61.74h0a.36.36,0,0,1-.32-.39V56.83h.64v4.52A.35.35,0,0,1,29.76,61.74Z"/><path class="cls-49" d="M29.75,51.56a7,7,0,0,1-2.57-2.36c-.89-1.59-.79-3.15.21-3.75a1.75,1.75,0,0,1,2.36.6,1.75,1.75,0,0,1,2.36-.6c1,.6,1.1,2.16.21,3.75A6.94,6.94,0,0,1,29.75,51.56Z"/><path class="cls-2" d="M37.05,45.43a2.73,2.73,0,0,1,.59.07,1.22,1.22,0,0,1,.47.23,1,1,0,0,1,.32.4,1.5,1.5,0,0,1,.11.6,1.3,1.3,0,0,1-.19.75,1,1,0,0,1-.5.4,1.24,1.24,0,0,1,.61.47,1.5,1.5,0,0,1,.24.9v.09a1.78,1.78,0,0,1-.13.7,1.41,1.41,0,0,1-.35.47,1.47,1.47,0,0,1-.53.27,2.61,2.61,0,0,1-.64.08,2.69,2.69,0,0,1-.65-.08,1.56,1.56,0,0,1-.53-.27,1.19,1.19,0,0,1-.35-.47,1.62,1.62,0,0,1-.13-.7v-.09a1.58,1.58,0,0,1,.23-.9,1.26,1.26,0,0,1,.62-.47,1,1,0,0,1-.5-.4,1.3,1.3,0,0,1-.19-.75,1.34,1.34,0,0,1,.12-.6,1,1,0,0,1,.31-.4,1.22,1.22,0,0,1,.47-.23A2.74,2.74,0,0,1,37.05,45.43Zm.87,3.7a1,1,0,0,0-.23-.7.89.89,0,0,0-.64-.22.9.9,0,0,0-.65.22,1,1,0,0,0-.23.7v.13a1,1,0,0,0,.24.72.88.88,0,0,0,.64.23.86.86,0,0,0,.64-.23,1,1,0,0,0,.23-.72Zm-.87-3.05a.82.82,0,0,0-.55.17.71.71,0,0,0-.19.57.74.74,0,0,0,.19.57.82.82,0,0,0,.55.17.81.81,0,0,0,.54-.17.74.74,0,0,0,.19-.57.71.71,0,0,0-.19-.57A.81.81,0,0,0,37.05,46.08Z"/><path class="cls-2" d="M42.52,46.31a1.36,1.36,0,0,0-.35-.51,1.42,1.42,0,0,0-.53-.28,2.39,2.39,0,0,0-1.3,0,1.42,1.42,0,0,0-.53.28,1.34,1.34,0,0,0-.34.51,2.11,2.11,0,0,0-.13.76v2.15a2.11,2.11,0,0,0,.13.76,1.34,1.34,0,0,0,.34.51,1.42,1.42,0,0,0,.53.28,2.39,2.39,0,0,0,1.3,0,1.42,1.42,0,0,0,.53-.28,1.36,1.36,0,0,0,.35-.51,1.92,1.92,0,0,0,.13-.76V47.07A1.92,1.92,0,0,0,42.52,46.31Zm-.65,2.91a1,1,0,0,1-.23.71.87.87,0,0,1-.65.24.83.83,0,0,1-.64-.24,1,1,0,0,1-.23-.71V47.07a1,1,0,0,1,.23-.71.83.83,0,0,1,.64-.24.87.87,0,0,1,.65.24,1,1,0,0,1,.23.71Z"/><path class="cls-8" d="M20.16,47.13a1.2,1.2,0,1,0-1.2-1.2A1.2,1.2,0,0,0,20.16,47.13Z"/><path class="cls-8" d="M23.69,51.53c-.12-2.38-1.63-4.18-3.5-4.19h-.06c-1.87,0-3.38,1.81-3.5,4.19a6.1,6.1,0,0,0,.51,2.78.52.52,0,0,0,.49.33.43.43,0,0,0,.19,0,.51.51,0,0,0,.3-.68,5.2,5.2,0,0,1-.43-2.34,4,4,0,0,1,.81-2.31V60.79a.69.69,0,0,0,.69.69h0a.69.69,0,0,0,.69-.69V54.55h.52v6.24a.69.69,0,0,0,.69.69h0a.69.69,0,0,0,.69-.69V49.27a4,4,0,0,1,.81,2.31,5.2,5.2,0,0,1-.43,2.34.52.52,0,0,0,.29.68.51.51,0,0,0,.2,0,.52.52,0,0,0,.49-.33A6.24,6.24,0,0,0,23.69,51.53Z"/></g></g></g></svg>