<svg xmlns="http://www.w3.org/2000/svg" viewBox="0 0 144 144"><defs><style>.cls-1{fill:#fff8f8;}.cls-2{fill:#dbe8e8;}.cls-3{fill:#f48e7d;}.cls-4{fill:#f27558;}.cls-5{fill:#f05829;}.cls-6{fill:#c5d3d2;}.cls-7{fill:#facbcb;}.cls-8{fill:#f7b0af;}.cls-9{fill:#f27a6f;}.cls-10{fill:#f59996;}.cls-11{fill:#d7eeee;}.cls-12{fill:#bde4e7;}.cls-13{fill:#fdf064;}.cls-14{fill:#fddd52;}.cls-15{fill:#fff;}</style></defs><title>Asset 1</title><g id="Layer_2" data-name="Layer 2"><g id="Layer_1-2" data-name="Layer 1"><rect class="cls-1" width="144" height="144" rx="42.5" ry="42.5"/><path class="cls-2" d="M87.23,96.92a3.82,3.82,0,0,1,2.82,3.71v8.44H53.95v-8.44a3.82,3.82,0,0,1,2.82-3.71,61.6,61.6,0,0,1,15.23-2A61.6,61.6,0,0,1,87.23,96.92Z"/><path class="cls-3" d="M53.95,119.32V100.64a3.82,3.82,0,0,1,2.82-3.71,63.71,63.71,0,0,1,10.71-1.85L72,99.67l4.52-4.6a63.73,63.73,0,0,1,10.71,1.85,3.82,3.82,0,0,1,2.82,3.71v18.68Z"/><path class="cls-4" d="M90.05,100.64v18.68H82.18V95.82c2,.36,3.73.76,5.05,1.11A3.82,3.82,0,0,1,90.05,100.64Zm-36.1,0v18.68h7.49V95.88c-1.85.34-3.44.72-4.67,1A3.82,3.82,0,0,0,53.95,100.64Z"/><path class="cls-5" d="M90.05,100.64v18.68H86.9V96.84l.34.09A3.82,3.82,0,0,1,90.05,100.64ZM58.29,119.32h3.16V95.88c-1.16.21-2.22.44-3.16.66Z"/><path class="cls-3" d="M78.6,81.45A6.6,6.6,0,1,1,72,74.74,6.66,6.66,0,0,1,78.6,81.45Z"/><path class="cls-4" d="M78.6,81.45A6.66,6.66,0,0,1,72,88.17,6.5,6.5,0,0,1,70.49,88a6.74,6.74,0,0,0,0-13.07A6.51,6.51,0,0,1,72,74.74,6.66,6.66,0,0,1,78.6,81.45Z"/><path class="cls-6" d="M104.89,59.4v5.75a1.44,1.44,0,0,1-1.44,1.44h-30V69a1.44,1.44,0,1,1-2.88,0v-2.4H38.24a1.44,1.44,0,0,1-1.44-1.44V59.4a1.44,1.44,0,1,1,2.88,0v4.32H70.56V59.4a1.44,1.44,0,1,1,2.88,0v4.32H102V59.4a1.44,1.44,0,0,1,2.88,0Z"/><path class="cls-7" d="M121.1,39.07a14.38,14.38,0,1,1-14.38-14.38A14.38,14.38,0,0,1,121.1,39.07Z"/><path class="cls-8" d="M121.1,39.07A14.38,14.38,0,0,1,104.61,53.3a14.38,14.38,0,0,0,0-28.46A14.38,14.38,0,0,1,121.1,39.07Z"/><path class="cls-9" d="M113.5,33.52h0a3.84,3.84,0,0,1,0,5.42l-6.78,6.78L104,43h0l-4.07-4.07a3.84,3.84,0,1,1,5.42-5.42l1.36,1.36,1.36-1.36A3.84,3.84,0,0,1,113.5,33.52Z"/><path class="cls-10" d="M108.87,39.63l-4.13,4.13L104,43l-4.07-4.07a3.84,3.84,0,0,1,5.42-5.42l1.36,1.36,1.36-1.36a3.82,3.82,0,0,1,2.85-1.12A7.7,7.7,0,0,1,108.87,39.63Z"/><path class="cls-11" d="M86.38,39.07A14.38,14.38,0,1,1,72,24.68,14.38,14.38,0,0,1,86.38,39.07Z"/><path class="cls-12" d="M86.38,39.07A14.38,14.38,0,0,1,69.89,53.3a14.38,14.38,0,0,0,0-28.46A14.38,14.38,0,0,1,86.38,39.07Z"/><path class="cls-13" d="M51.67,39.07A14.38,14.38,0,1,1,37.28,24.68,14.38,14.38,0,0,1,51.67,39.07Z"/><path class="cls-14" d="M51.67,39.07A14.38,14.38,0,0,1,35.17,53.3a14.38,14.38,0,0,0,0-28.46A14.38,14.38,0,0,1,51.67,39.07Z"/><path class="cls-15" d="M43.93,40a6.71,6.71,0,0,1-13.29,0Z"/><path class="cls-6" d="M77.41,44a3.13,3.13,0,0,0,.71-6.17,5.73,5.73,0,0,0-10.74-2.71A2.44,2.44,0,0,0,64,37a3.52,3.52,0,0,0,.69,7Z"/></g></g></svg>