<svg xmlns="http://www.w3.org/2000/svg" viewBox="0 0 144 144"><defs><style>.cls-1{fill:#fff8f8;}.cls-2{fill:#ffe8ba;}.cls-3{fill:#425b6b;}.cls-4{fill:#344a5e;}.cls-5{fill:#ffd05c;}.cls-6{fill:#f26f5a;}.cls-7{fill:#72c06d;}.cls-8{fill:#56806e;}.cls-9{fill:#67c5b8;}.cls-10{fill:#f16848;}.cls-11{fill:#2d9f48;}.cls-12{fill:#424a60;}.cls-13{fill:#5e3219;}.cls-14{fill:#77442c;}.cls-15{fill:#e9e9d5;}.cls-16{fill:#bebca2;}.cls-17{fill:#90553e;}.cls-18{fill:#6d3d26;}.cls-19{fill:#e3bf5c;}</style></defs><title>Asset 2</title><g id="Layer_2" data-name="Layer 2"><g id="Layer_1-2" data-name="Layer 1"><rect class="cls-1" width="144" height="144" rx="42.5" ry="42.5"/><path class="cls-2" d="M82.39,72.93A16.37,16.37,0,0,1,86,77.62H102.9a14.85,14.85,0,0,1,3.58-4.69,18,18,0,0,0,6.05-16.43A18.38,18.38,0,0,0,76,59.21,18.79,18.79,0,0,0,82.39,72.93Z"/><path class="cls-3" d="M89.56,88.62a5.82,5.82,0,0,0,4.94,2.72,6,6,0,0,0,4.94-2.72Z"/><path class="cls-4" d="M103,86.64V80.71H86v5.93a2.61,2.61,0,0,0,2.59,2.59h12A2.67,2.67,0,0,0,103,86.64Z"/><path class="cls-3" d="M103.52,77.25h-18A1.69,1.69,0,0,0,83.75,79h0a1.69,1.69,0,0,0,1.73,1.73h18A1.69,1.69,0,0,0,105.25,79h0A1.77,1.77,0,0,0,103.52,77.25Z"/><path class="cls-3" d="M103.52,82.56h-18a1.69,1.69,0,0,0-1.73,1.73h0A1.69,1.69,0,0,0,85.48,86h18a1.69,1.69,0,0,0,1.73-1.73h0A1.86,1.86,0,0,0,103.52,82.56Z"/><path class="cls-5" d="M83.26,62.18a5,5,0,0,1-3-3A4.39,4.39,0,0,1,80,58c0-1.36.49-5.31,1.73-6.92a17.08,17.08,0,0,1,8.28-5.19c3.58-.86,7-1.24,11.86,1.61s6.55,9.14,7,10.75-.62,5.68-3,6.55a6.17,6.17,0,0,1-5.56,3.71s0,1.36-.62,1.11a6.45,6.45,0,0,1-1.61-1.48s-1.24.25-1.85-1.85A11,11,0,0,0,95,66.5s-2.35,1.85-4.69,1.11-3.83-3-3.83-3.58A3.88,3.88,0,0,1,87,62.55,7.23,7.23,0,0,1,83.26,62.18Z"/><path class="cls-6" d="M91.54,66.38a1.52,1.52,0,0,1-1.24-.25,2.85,2.85,0,0,1-.86-.86V65h0v-.25a5.93,5.93,0,0,1,0-1.48,2.58,2.58,0,0,1,.86-1.61c.12-.12.12-.25,0-.25s-.12-.12-.25,0a3.4,3.4,0,0,0-1,1.85v1.24c-.12-.12-.12-.25-.25-.25H88a.27.27,0,0,0-.25.25.43.43,0,0,0,.12.25h.86a1.78,1.78,0,0,0,.25.37.38.38,0,0,1,.12.25,2.77,2.77,0,0,0,1.11,1.24,1.84,1.84,0,0,0,1.11.25h.49c.12,0,.12-.12.12-.25A1.53,1.53,0,0,1,91.54,66.38Z"/><path class="cls-6" d="M105.25,61.93a4.89,4.89,0,0,1-2.47.49,3.14,3.14,0,0,1-.25-.86c.25,0,.37-.12.62-.25s.12-.25,0-.25-.12-.12-.25,0-.37.12-.62.25a11.94,11.94,0,0,1-3-.12c0-.25.12-.49.12-.74h0l.12-.12c.25-.25.37-.49.62-.74.25-.49.37-.86.62-1.36a3.56,3.56,0,0,0,2.1,1.24,3.7,3.7,0,0,1-.49,1.24c-.49-.25-.49-.12-.49,0l.12.12h.12c.49-.37.62-1.24.74-1.61.25-.12.37-.25.62-.37s.25-.37.37-.49c.12.25.12.49.25.74V60.2a1.57,1.57,0,0,1-.12.74,1.71,1.71,0,0,1-.37.49c-.12,0-.12.12-.12.25a.12.12,0,0,0,.12.12h.12a1.27,1.27,0,0,0,.62-.74,2.1,2.1,0,0,0,.12-.86V59a2,2,0,0,0-.37-1.11,4,4,0,0,0,.49-1.61c0-.12-.12-.25-.25-.12s-.12.12-.12.25a3.11,3.11,0,0,1-.49,1.36h0l-.12.12a2.58,2.58,0,0,1-.49.74.88.88,0,0,1-.74.37h0c-.86,0-1.73-1-2-1.24a18.13,18.13,0,0,0,.25-3.46,5.82,5.82,0,0,0,1.85-.74c.12,0,.12-.12,0-.25s-.12-.12-.25,0a4.57,4.57,0,0,1-2.59.74,2.49,2.49,0,0,1-1.36-.37,2.53,2.53,0,0,1-1-1c0-.12-.12-.12-.25-.12s-.12.12-.12.25a5.37,5.37,0,0,0,.74.86h0a7.6,7.6,0,0,1-.12,1.61,5.29,5.29,0,0,1-.62,2c-.37.49-1,.86-1.48.62l-.12-.12a.94.94,0,0,0-.49-.25h-.12a.12.12,0,0,1-.12-.12A.45.45,0,0,1,94.5,57a3.65,3.65,0,0,1-.25-1.24.27.27,0,0,0-.25-.25c-.12,0-.12.12-.12.25a5.25,5.25,0,0,0,.25,1.36c.12.12.12.37.25.49h0a5.84,5.84,0,0,0-1.48.86,2.17,2.17,0,0,0-.49.62,2.89,2.89,0,0,1-.86.86,2.14,2.14,0,0,1-1.24.12h-.12c-.25,0-.49-.12-.62,0A1.83,1.83,0,0,0,88,61.68c0,.12,0,.25.12.25h0a.12.12,0,0,0,.12-.12,1.59,1.59,0,0,1,1.24-1.24h.74a1.75,1.75,0,0,0,1.36-.12,3.76,3.76,0,0,0,1-1,2.17,2.17,0,0,1,.49-.62A5.84,5.84,0,0,1,94.5,58a.43.43,0,0,0,.25-.12h0c.12,0,.25.12.37.12s.12.12.25.12a1.66,1.66,0,0,0,2-.74,4.16,4.16,0,0,0,.62-2.1,6,6,0,0,0,.12-1.48h0a3.29,3.29,0,0,0,1.48.37h.62a11.23,11.23,0,0,1-.86,5.07c-.12.25-.37.49-.49.74a2.58,2.58,0,0,1-.74.49,8.83,8.83,0,0,1-4.2.74,1.57,1.57,0,0,1-.74-.12c-.12,0-.25-.12-.37-.25s-.25-.12-.25-.25a1.36,1.36,0,0,0-1.85.25,2.29,2.29,0,0,0-.25.86,3,3,0,0,0,.49,1.48l.12.12.25.25c0,.12,0,.37-.12.37s-.25.25-.37.25h-.12a3.1,3.1,0,0,0-.86.49c-.12.12-.12.25,0,.25l.12.12h.12c.25-.12.49-.37.74-.49h.12c.12-.12.37-.12.49-.37a.76.76,0,0,0,.25-.86.64.64,0,0,0-.25-.49v-.12a2.19,2.19,0,0,1-.49-1.24.93.93,0,0,1,.12-.62,1,1,0,0,1,1.36-.25c.12,0,.12.12.25.12s.25.25.37.25a1.34,1.34,0,0,0,.62.12.94.94,0,0,0,.25.49.94.94,0,0,1,.25.49v2.22h-.25a.94.94,0,0,0-.49.25l-.12.49a2,2,0,0,1-1.11.37h-.62a1.23,1.23,0,0,0-.62.49c0,.12,0,.25.12.25h.12c.12,0,.12,0,.12-.12s.25-.25.37-.25h.62a2.19,2.19,0,0,0,1.24-.49l.12-.12A.45.45,0,0,1,94,65h1.73a3.07,3.07,0,0,0,1-.12c.12,0,.12-.12.25-.12a.38.38,0,0,1,.25-.12,1.11,1.11,0,0,1,.62.12c.12,0,.12.12.25.12a2.41,2.41,0,0,0,1,.12c.12,0,.12-.12.12-.25s-.12-.12-.25-.12h-.74c-.12,0-.12,0-.25-.12a1,1,0,0,0-.86-.12c-.12,0-.25.12-.37.25s-.12.12-.25.12a.79.79,0,0,1-.74,0H94.5v-2.1a6,6,0,0,0,.86.37l.86.37a1.76,1.76,0,0,0,.74.25h1.36c.12,0,.25-.12.37-.12h0a9.64,9.64,0,0,1,2.72-.49c.12,0,.12-.12.12-.25a.27.27,0,0,0-.25-.25,9.64,9.64,0,0,0-2.72.49h0c-.12,0-.25.12-.37.12H97a1.76,1.76,0,0,1-.74-.25l-.86-.37-1.11-.37c0-.12-.12-.25-.12-.37s-.12-.12-.12-.25a7.56,7.56,0,0,0,4.2-.74c.12-.12.25-.12.37-.25a1.72,1.72,0,0,1-.37,1.11,1.07,1.07,0,0,1-.74.37H95.74a.27.27,0,0,0-.25.25.43.43,0,0,0,.12.25h1.85a2,2,0,0,0,.86-.49.64.64,0,0,0,.25-.49h0a12,12,0,0,0,2.1.12h.86a2.1,2.1,0,0,1,.25,1.73,2.38,2.38,0,0,1-.86.86c-.12,0-.12.12-.12.25a.12.12,0,0,0,.12.12H101a2.71,2.71,0,0,0,1.11-1,.82.82,0,0,0,.12-.74A6.09,6.09,0,0,0,105,62.3c.12-.12.12-.25,0-.25C105.37,61.81,105.25,61.81,105.25,61.93Z"/><path class="cls-6" d="M108,61.31a4.43,4.43,0,0,0-1.36-.49,1.44,1.44,0,0,0-1.24,0c-.12,0-.12.12-.12.25s.12.12.25.12a1.35,1.35,0,0,1,1,0,3.7,3.7,0,0,1,1.24.49h.12c.12,0,.12,0,.12-.12S108.09,61.44,108,61.31Z"/><path class="cls-6" d="M102.16,54.77c-.12,0-.25,0-.25.12s-.37.86.12,1.36a1.12,1.12,0,0,0,.86.37c.37,0,.62-.37.86-.74a2.09,2.09,0,0,0,.25-.62,1.35,1.35,0,0,1,.25-.49h.25c.12,0,.12.12.25.25a1.34,1.34,0,0,0,.12.62,5,5,0,0,0,.25,1.24l.12.12h.12c.12-.12.12-.25,0-.25s-.12-.74-.25-1.11A.93.93,0,0,0,105,55a1.05,1.05,0,0,0-.37-.62.56.56,0,0,0-.62,0,1.13,1.13,0,0,0-.49.74c-.12.12-.12.37-.25.62a1,1,0,0,1-.62.62.49.49,0,0,1-.49-.25,1,1,0,0,1-.12-1C102.28,55,102.28,54.89,102.16,54.77Z"/><path class="cls-6" d="M92,54.27a2.89,2.89,0,0,1,.86-.86A2.38,2.38,0,0,1,94.13,53c.12,0,.12-.12.12-.25s-.12-.12-.25-.12a6,6,0,0,0-1.36.49,2.92,2.92,0,0,0-1.11,1,3.93,3.93,0,0,0-.37,1.11,4,4,0,0,0,0,2.1c0,.12.12.25.12.37s.12.25.12.37.12.49,0,.74,0,.25.12.25h.12c.12,0,.12,0,.12-.12a1.35,1.35,0,0,0,0-1c0-.12-.12-.25-.12-.37s-.12-.25-.12-.37a3.58,3.58,0,0,1,0-2A2.48,2.48,0,0,0,92,54.27Z"/><path class="cls-6" d="M85.85,50.81a3.7,3.7,0,0,1,1.61-1.48A5.67,5.67,0,0,1,91,48.71c.12,0,.74.25.74.62a1.26,1.26,0,0,1-.62,1c-.12.12-.12.12,0,.25s.12.12.25.12a2.07,2.07,0,0,1,2.35.49l.12.12h0a.12.12,0,0,0,.12-.12c.12-.49.74-.86,1.24-1.11h.12A3,3,0,0,0,96.73,49a.45.45,0,0,0,.12-.37c0-.12.12-.12.12-.25s.12-.25.25-.37a5.49,5.49,0,0,1,1.36,1,2.16,2.16,0,0,1,.49,1.48,3.14,3.14,0,0,0-.86.25c-.37.12-.49.25-.74.25s-.37.12-.62.25a10.15,10.15,0,0,0-2,3.09h0A2.76,2.76,0,0,0,92.65,54c-.12,0-.12.12-.12.25s.12.12.25.12a2.33,2.33,0,0,1,2.1.37c0,.74.12,1.61.86,1.85h0c.12,0,.12,0,.12-.12s0-.25-.12-.25c-.86-.25-.62-1.73-.62-1.85a9.19,9.19,0,0,1,1.73-2.84c.25-.12.37-.12.49-.25a4.86,4.86,0,0,0,.74-.25,3.19,3.19,0,0,1,1.73-.25,9.44,9.44,0,0,1,2,1.36c.12.25.25.37.25.49a.45.45,0,0,0,.12.37c.12.12.37.12.62.25a6.27,6.27,0,0,1,1.11.25c.74.25.86.62.86.62s.12.12.25.12.12-.12.12-.25-.12-.49-1.11-.86a2.44,2.44,0,0,0-1.24-.25c-.12,0-.37,0-.37-.12v-.12a1,1,0,0,0-.37-.74,8.74,8.74,0,0,0-2.22-1.48h-.86A2.37,2.37,0,0,0,98.45,49a.84.84,0,0,1,1-.49c.12,0,.25.12.37.12s.12,0,.25.12a2.11,2.11,0,0,0,1.24,0c.12,0,.12-.12.12-.25s-.12-.12-.25-.12a1.71,1.71,0,0,1-1.11,0c.62-.25.62-.25.49-.25s-.37-.12-.49-.12a1.25,1.25,0,0,0-1.24.62,3.76,3.76,0,0,0-1.24-.86,2.58,2.58,0,0,1,.74-.49c.12,0,.12-.12.12-.25s-.12-.12-.25-.12a3.14,3.14,0,0,0-1.48,1.36c0,.12-.12.12-.12.25s-.12.25-.12.37a2.47,2.47,0,0,1-1.24,1h-.12a2.7,2.7,0,0,0-1.24,1.11,2.69,2.69,0,0,0-1-.62v-.12a1.72,1.72,0,0,1,.25-1.36l.12-.12a2.7,2.7,0,0,0,.37-.62h0s0-.12.37-.25a.93.93,0,0,0,.49-.12h.12c.25,0,.49,0,.62-.25a.68.68,0,0,0,.37-.62,1.34,1.34,0,0,0,.12-.62c0-.12,0-.25-.12-.25s-.25,0-.25.12a1.11,1.11,0,0,1-.12.62c0,.12-.12.25-.25.37s-.25.12-.49.12h-.12a.74.74,0,0,0-.49.12c-.12,0-.25.12-.37.12a.68.68,0,0,0-.37-.62,3.1,3.1,0,0,0-.86-.49c-.12,0-.25,0-.25.12s0,.25.12.25.62.25.74.49.37.49.25.74-.12.25-.25.37l-.12.12a2,2,0,0,0-.37,1.61h-.62a1.79,1.79,0,0,0,.25-.86,1.34,1.34,0,0,0-1-1,5,5,0,0,0-3.83.62c-.62.37-1.48.74-1.73,1.61,0,.12,0,.25.12.25C85.73,50.94,85.85,50.94,85.85,50.81Z"/><path class="cls-6" d="M88.2,59.83a.94.94,0,0,0,.25-.62l.37-1.61c0-.12,0-.25-.12-.25s-.25,0-.25.12l-.37,1.73a1.24,1.24,0,0,1-.12.37.93.93,0,0,1-.62.12.43.43,0,0,1-.25-.12c-.12-.12-.37-.12-.62-.25s-.25,0-.25.12,0,.25.12.25.37.12.49.12.25.12.37.12.25.12.37.12S88.08,60.08,88.2,59.83Z"/><path class="cls-6" d="M86.35,61.19a6,6,0,0,1-1.48-.12,1.57,1.57,0,0,1-1-1V60h0c0-.12.12-.25.25-.37s.12-.12.25-.12.25-.25.37-.25a1.71,1.71,0,0,0,.37-.49,4.18,4.18,0,0,1,2.35-1.85h.25c.25-.12.62-.12.86-.25a1.65,1.65,0,0,0,.86-1V54.52a2.09,2.09,0,0,1,.37-1.24,2.22,2.22,0,0,1,.86-.62h.25c.12,0,.12-.12.12-.25s-.12-.12-.25-.12h-.12a.66.66,0,0,1-.49-.37,2.41,2.41,0,0,1-.12-1V49.08a.27.27,0,0,0-.25-.25h0c-.12,0-.12.12-.12.25v1.85A3.42,3.42,0,0,0,89.81,52c.12.12.12.25.25.37a2.69,2.69,0,0,0-.62.49.38.38,0,0,0-.12.25,2.25,2.25,0,0,1-1.24-1.36,3.58,3.58,0,0,1,0-2c0-.12,0-.25-.12-.25a.43.43,0,0,0-.25.12,4.54,4.54,0,0,0,.12,2.22,3.42,3.42,0,0,0,1.36,1.61,1.83,1.83,0,0,0-.12.86v.37c0,.25.12.49,0,.62a2,2,0,0,1-.62.74c-.25.12-.49.12-.74.25h-.25a3.84,3.84,0,0,0-2.47,2l-.37.37c-.12.12-.12.12-.25.12s-.12.12-.25.12l-.25.25a.88.88,0,0,0-.74-.37h0a2.56,2.56,0,0,1-1.24-.74c-.12-.12-.25-.12-.25,0a.17.17,0,0,0,0,.25,2.82,2.82,0,0,0,1.48.74h0a.64.64,0,0,1,.49.25v.37a2,2,0,0,0,1.24,1.36,3.81,3.81,0,0,0,1.24.12h.49c.12,0,.12-.12.12-.25C86.59,61.31,86.47,61.19,86.35,61.19Z"/><path class="cls-6" d="M83.26,56,82,56.87c-.12.12-.25.12-.37.25a.94.94,0,0,0-.25.49.12.12,0,0,0,.12.12h0c.12,0,.12-.12.12-.25s0-.12.12-.25L82,57l1.24-.86c.12,0,.12-.12.12-.25C83.51,56,83.38,56,83.26,56Z"/><path class="cls-6" d="M82.15,55.38a1.13,1.13,0,0,1,.49-.74.76.76,0,0,1,.74-.12c.12,0,.12.12.25.25l.12.12a.68.68,0,0,0,.62.25.94.94,0,0,0,.49-.25l.12-.12a.12.12,0,0,1,.12-.12.93.93,0,0,1,1-.12,3.7,3.7,0,0,1,1,.49c.12,0,.25,0,.25-.12s0-.25-.12-.25a4.39,4.39,0,0,0-1.11-.49,1.35,1.35,0,0,0-1.24.25l-.25.25-.12.12a.38.38,0,0,1-.25.12.45.45,0,0,1-.37-.12l-.12-.12c-.12-.12-.25-.25-.37-.25a1.2,1.2,0,0,0-1.11.12,3.75,3.75,0,0,0-.62.86c-.12.12-.12.37-.25.37s-.37,0-.49-.12-.12-.12-.25-.12-.12.12,0,.25a.68.68,0,0,0,.62.37.45.45,0,0,0,.37-.12C81.9,55.75,82,55.51,82.15,55.38Z"/><path class="cls-6" d="M81,54.77c.12,0,.12,0,.12-.12.12-.37.49-.49.86-.62l.12-.12a3.7,3.7,0,0,0,1-.49l.12-.12.12-.12h.12a.91.91,0,0,0,1.11,0c.25-.12.25-.37.37-.62s.12-.25.12-.37a1.13,1.13,0,0,1,.74-.49,2.41,2.41,0,0,1,1-.12c.12,0,.12-.12.12-.25a.27.27,0,0,0-.25-.25h0a2.41,2.41,0,0,0-1,.12,3.1,3.1,0,0,0-1,.62,2.65,2.65,0,0,0-.12.74c-.12.12-.12.37-.25.49s-.37.12-.74-.12c-.12-.12-.37,0-.49.12s-.12.12-.25.12l-.12.12a2,2,0,0,1-.86.49l-.12.12a1.65,1.65,0,0,0-1,.86c0-.12,0,0,.25,0Z"/><path class="cls-6" d="M81.53,53.28h.12a1.48,1.48,0,0,0,1-.49l.25-.25c.12-.25.37-.37.49-.49s.12-.12.25-.12a1.23,1.23,0,0,0,.62-.49,1.34,1.34,0,0,0,.12-.62v-.12A2.71,2.71,0,0,1,85,49.21.17.17,0,0,0,85,49c-.12-.12-.25-.12-.25,0A4.33,4.33,0,0,0,84,50.69v.12a.74.74,0,0,1-.12.49.64.64,0,0,1-.49.25.43.43,0,0,0-.25.12c-.25.12-.37.37-.62.49l-.25.25a1.07,1.07,0,0,1-.74.37c-.12,0-.25,0-.25.12S81.41,53.28,81.53,53.28Z"/><path class="cls-6" d="M106.73,61.31h0c-.12-.12-.25-.25-.12-.25a7.79,7.79,0,0,0,.62-2.72,4.3,4.3,0,0,0-.74-2.59.17.17,0,0,1,.25-.25,4.33,4.33,0,0,1,.86,2.84,8.43,8.43,0,0,1-.62,2.84C106.86,61.31,106.86,61.31,106.73,61.31Z"/><path class="cls-7" d="M95.86,33.39v3.09a1.37,1.37,0,0,1-1.36,1.36A1.48,1.48,0,0,1,93,36.48V33.39A1.58,1.58,0,0,1,94.5,32,1.37,1.37,0,0,1,95.86,33.39Z"/><path class="cls-8" d="M82.64,36.23,84.12,39a1.58,1.58,0,0,1-.49,2,1.51,1.51,0,0,1-2-.49l-1.48-2.72a1.44,1.44,0,0,1,2.47-1.48Z"/><path class="cls-7" d="M72.51,45.25l2.72,1.61a1.51,1.51,0,0,1,.49,2,1.4,1.4,0,0,1-2,.49L71,47.85a1.5,1.5,0,0,1,1.48-2.59Z"/><path class="cls-8" d="M68.31,58.22H71.4a1.37,1.37,0,0,1,1.36,1.36,1.48,1.48,0,0,1-1.36,1.48H68.31A1.4,1.4,0,0,1,67,59.58,1.37,1.37,0,0,1,68.31,58.22Z"/><path class="cls-9" d="M71.15,71.44,73.87,70a1.58,1.58,0,0,1,2,.49,1.51,1.51,0,0,1-.49,2l-2.72,1.48a1.51,1.51,0,0,1-2-.49A1.32,1.32,0,0,1,71.15,71.44Z"/><path class="cls-7" d="M116.49,73.91l-2.72-1.48a1.51,1.51,0,0,1-.49-2,1.4,1.4,0,0,1,2-.49L118,71.44a1.51,1.51,0,0,1,.49,2A1.58,1.58,0,0,1,116.49,73.91Z"/><path class="cls-8" d="M120.69,61.07H117.6a1.37,1.37,0,0,1-1.36-1.36,1.48,1.48,0,0,1,1.36-1.48h3.09a1.4,1.4,0,0,1,1.36,1.48A1.37,1.37,0,0,1,120.69,61.07Z"/><path class="cls-8" d="M117.85,47.72l-2.59,1.61a1.58,1.58,0,0,1-2-.49,1.51,1.51,0,0,1,.49-2l2.72-1.48a1.58,1.58,0,0,1,2,.49A1.33,1.33,0,0,1,117.85,47.72Z"/><path class="cls-8" d="M108.83,37.72l-1.48,2.72a1.51,1.51,0,0,1-2,.49,1.4,1.4,0,0,1-.49-2l1.48-2.72a1.44,1.44,0,0,1,2.47,1.48Z"/><path class="cls-7" d="M74.51,71.44A26.28,26.28,0,1,1,48.23,45.16,26.28,26.28,0,0,1,74.51,71.44Zm0,0"/><path class="cls-10" d="M21.95,71.44c0,.27,0,.53,0,.8H48.23V45.16A26.28,26.28,0,0,0,21.95,71.44Zm0,0"/><path class="cls-11" d="M48.23,51.4a.91.91,0,0,0-.91.91V73.15H33.73a.91.91,0,0,0,0,1.81h14.5a.91.91,0,0,0,.91-.91V52.3a.91.91,0,0,0-.91-.91Zm0,0"/><path class="cls-12" d="M48.23,49.69a.91.91,0,0,0-.91.91V71.44H33.73a.91.91,0,0,0,0,1.81h14.5a.91.91,0,0,0,.91-.91V50.6a.91.91,0,0,0-.91-.91Zm0,0"/><path class="cls-13" d="M87,70.58,97.68,81.3l-.42.42h2.81V70.58Zm0,0"/><path class="cls-13" d="M73.15,70.58H59.49a5.57,5.57,0,0,0,0,11.15h3.36l-.42-.42Zm0,0"/><path class="cls-14" d="M67.08,72.56c-.51,0-1,.06-1.56.08a.8.8,0,0,0,0,1.59h0c.55,0,1.09,0,1.62-.08a.79.79,0,0,0-.12-1.59Zm0,0"/><path class="cls-14" d="M62.34,72.72c-.55,0-1.1,0-1.62.07a.8.8,0,0,0,0,1.59h0l1.57-.07a.79.79,0,0,0,.77-.82.83.83,0,0,0-.82-.78Zm0,0"/><path class="cls-14" d="M57.38,73.32a4.16,4.16,0,0,0-1.69,1,.79.79,0,0,0,0,1.13.78.78,0,0,0,.56.23.79.79,0,0,0,.56-.23,2.66,2.66,0,0,1,1.06-.58.8.8,0,1,0-.49-1.51Zm0,0"/><path class="cls-14" d="M93.7,73H92.11a.79.79,0,0,0,0,1.59H93.7a.79.79,0,1,0,0-1.59Zm0,0"/><path class="cls-14" d="M98.48,73H96.89a.79.79,0,1,0,0,1.59h1.59a.79.79,0,1,0,0-1.59Zm0,0"/><path class="cls-15" d="M98.13,81.73,82.41,66a.11.11,0,0,0-.16,0L66.53,81.73Zm0,0"/><path class="cls-16" d="M66.55,81.73,80.06,68.22,77.87,66a.11.11,0,0,0-.16,0L62,81.73Zm0,0"/><path class="cls-11" d="M91.58,82.22l.25-.25-9.46-9.44a.07.07,0,0,0-.09,0L72.83,82l.24.25Zm0,0"/><path class="cls-14" d="M53.91,76.15v30.91a4.9,4.9,0,0,0,4.9,4.9h41.26V81.73H59.49a5.57,5.57,0,0,1-5.57-5.57Zm0,0"/><path class="cls-17" d="M95.3,85.71H93.7a.8.8,0,0,1,0-1.59H95.3a.8.8,0,0,1,0,1.59Zm-4.78,0H88.93a.8.8,0,1,1,0-1.59h1.59a.8.8,0,0,1,0,1.59Zm-4.78,0H84.15a.8.8,0,0,1,0-1.59h1.59a.8.8,0,0,1,0,1.59Zm-4.78,0H79.38a.8.8,0,0,1,0-1.59H81a.8.8,0,0,1,0,1.59Zm-4.78,0H74.61a.8.8,0,0,1,0-1.59H76.2a.8.8,0,0,1,0,1.59Zm-4.77,0H69.83a.8.8,0,0,1,0-1.59h1.59a.8.8,0,0,1,0,1.59Zm-4.78,0H65.06a.8.8,0,0,1,0-1.59h1.59a.8.8,0,0,1,0,1.59Zm-4.78,0H60.28a.8.8,0,0,1,0-1.59h1.59a.8.8,0,0,1,0,1.59Zm-4.7-.5a.76.76,0,0,1-.33-.07,6.38,6.38,0,0,1-1.52-1,.8.8,0,1,1,1-1.2,4.72,4.72,0,0,0,1.14.73.8.8,0,0,1-.33,1.52Zm0,0"/><path class="cls-17" d="M95.3,109.58H93.7a.8.8,0,1,1,0-1.59H95.3a.8.8,0,0,1,0,1.59Zm-4.78,0H88.93a.8.8,0,1,1,0-1.59h1.59a.8.8,0,1,1,0,1.59Zm-4.78,0H84.15a.8.8,0,0,1,0-1.59h1.59a.8.8,0,0,1,0,1.59Zm-4.78,0H79.38a.8.8,0,1,1,0-1.59H81a.8.8,0,1,1,0,1.59Zm-4.78,0H74.61a.8.8,0,0,1,0-1.59H76.2a.8.8,0,1,1,0,1.59Zm-4.77,0H69.83a.8.8,0,0,1,0-1.59h1.59a.8.8,0,0,1,0,1.59Zm-4.78,0H65.06a.8.8,0,1,1,0-1.59h1.59a.8.8,0,1,1,0,1.59Zm-4.78,0H60.28a.8.8,0,0,1,0-1.59h1.59a.8.8,0,0,1,0,1.59Zm-4.7-.5a.76.76,0,0,1-.33-.07,6.38,6.38,0,0,1-1.52-1,.8.8,0,1,1,1-1.2,4.72,4.72,0,0,0,1.14.73.8.8,0,0,1-.33,1.52Zm0,0"/><path class="cls-18" d="M100.07,101.75H90.52a4.78,4.78,0,1,1,0-9.55h9.55Zm0,0"/><path class="cls-13" d="M100.07,100.83H90.52a4.78,4.78,0,1,1,0-9.55h9.55Zm0,0"/><path class="cls-19" d="M93.7,96a2.39,2.39,0,1,1-2.39-2.39A2.39,2.39,0,0,1,93.7,96Zm0,0"/></g></g></svg>