<svg xmlns="http://www.w3.org/2000/svg" viewBox="0 0 218.14 218.77"><defs><style>.cls-1{fill:#eae360;}.cls-2{fill:#fff57d;}.cls-3{fill:#ddda54;}.cls-4{fill:#e63950;}.cls-5{fill:#cc2e43;}.cls-6{fill:#ff9f00;}.cls-7{fill:#ff7816;}.cls-8{fill:#ffd400;}.cls-9{fill:#fdbf00;}</style></defs><title>quickFeatures3</title><g id="Layer_2" data-name="Layer 2"><g id="Layer_1-2" data-name="Layer 1"><path class="cls-1" d="M191.16,137.53l25.1-8.41,1.88-25.46L196,92.83A83.62,83.62,0,0,0,188.42,69l11.07-21.85L182.88,28l-23.31,8.08a85.75,85.75,0,0,0-22.1-10.61L129.75,1.65,104.39,0,93,23.17a89.91,89.91,0,0,0-22.15,7.59L47.9,19.24,28.64,36.08l8.07,24c-.55.79-1.08,1.59-1.61,2.4l-.12.19a87.13,87.13,0,0,0-9.2,18.94l-23.9,8L0,115.1l22.65,11.08a.29.29,0,0,0,0,.09c.16.84.35,1.67.54,2.5.05.24.11.48.17.72.18.77.37,1.53.58,2.29,0,.08,0,.17.07.26a83.54,83.54,0,0,0,6.38,16.35L18.65,171.6l16.61,19.17,26.12-9.05a86,86,0,0,0,18.28,8.47l8.73,26.93,25.37,1.65,13-26.31a90,90,0,0,0,17.72-5.91l25.8,13,19.27-16.84-8.73-26A88.06,88.06,0,0,0,191.16,137.53Z"/><path class="cls-2" d="M196,92.83A83.62,83.62,0,0,0,188.42,69l11.07-21.85L182.88,28l-23.31,8.08a85.75,85.75,0,0,0-22.1-10.61L129.75,1.65,104.39,0,93,23.17a89.91,89.91,0,0,0-22.15,7.59L47.9,19.24,28.64,36.08l.25.77q2.66-.69,5.37-1.27L49.7,22.08,70.2,32.39l3,.12a86.62,86.62,0,0,1,19.93-6.64l11-22.34,24.45,1.59,7.44,23A83,83,0,0,1,157.36,38.3l22.47-7.78,16,18.48L185.18,70.06a80.9,80.9,0,0,1,7.3,23l21.34,10.44L212,128s-4.14,3.07-4,3.85l8.22-2.75,1.88-25.46Z"/><path class="cls-3" d="M158.82,159.54C97.68,159.54,45.13,128,22,82.9L1.88,89.64,0,115.1l22.65,11.08a.29.29,0,0,0,0,.09c.16.84.35,1.67.54,2.5.05.24.11.48.17.72.18.77.37,1.53.58,2.29,0,.08,0,.17.07.26a83.54,83.54,0,0,0,6.38,16.35L18.65,171.6l16.61,19.17,26.12-9.05a86,86,0,0,0,18.28,8.47l8.73,26.93,25.37,1.65,13-26.31a90,90,0,0,0,17.72-5.91l25.8,13,19.27-16.84-8.26-24.59A174.26,174.26,0,0,1,158.82,159.54Z"/><path class="cls-4" d="M153.23,143.38V139.6a24.09,24.09,0,0,0-48.18,0v41.67h48.18Z"/><path class="cls-5" d="M153.23,143.38V139.6a24.16,24.16,0,0,0-24.09-24.09v65.76h24.09Z"/><path class="cls-4" d="M89,83.4a16.06,16.06,0,1,0,16,16.06A16.1,16.1,0,0,0,89,83.4Z"/><path class="cls-4" d="M129.14,83.4A16.06,16.06,0,1,0,145.2,99.46,16.1,16.1,0,0,0,129.14,83.4Z"/><path class="cls-4" d="M113.08,139.6v35.65H64.91V139.6a24.09,24.09,0,1,1,48.17,0Z"/><path class="cls-5" d="M105.05,99.46a16.09,16.09,0,0,1-16,16.05V83.4a16.1,16.1,0,0,1,16,16.06Z"/><path class="cls-5" d="M113.08,139.6v35.65H89V115.51a24.16,24.16,0,0,1,24.08,24.09Z"/><path class="cls-5" d="M145.2,99.46a16.1,16.1,0,0,1-16.06,16.05V83.4A16.1,16.1,0,0,1,145.2,99.46Z"/><path class="cls-6" d="M68.92,155.66a24.16,24.16,0,0,0-24.09,24.09v4a4,4,0,0,0,4,4H89a4,4,0,0,0,4-4v-4a24.16,24.16,0,0,0-24.09-24.09Z"/><path class="cls-6" d="M149.21,155.66a24.16,24.16,0,0,0-24.08,24.09v4a4,4,0,0,0,4,4h40.15a4,4,0,0,0,4-4v-4a24.16,24.16,0,0,0-24.09-24.09Z"/><path class="cls-6" d="M68.92,123.54A16.06,16.06,0,1,0,85,139.6a16.11,16.11,0,0,0-16.06-16.06Z"/><path class="cls-6" d="M149.21,123.54a16.06,16.06,0,1,0,16.06,16.06,16.1,16.1,0,0,0-16.06-16.06Z"/><path class="cls-4" d="M119.91,65.6a3.89,3.89,0,0,1-5.62,0l-1.21-1.12V79.12a4,4,0,0,1-8,0V64.48l-1.2,1.12A4,4,0,1,1,98.23,60l8-8a3.89,3.89,0,0,1,5.62,0l8,8a3.89,3.89,0,0,1,0,5.62Z"/><path class="cls-4" d="M160.05,65.6a3.89,3.89,0,0,1-5.62,0l-1.2-1.12V79.12a4,4,0,0,1-8,0V64.48L144,65.6A4,4,0,0,1,138.37,60l8-8A3.89,3.89,0,0,1,152,52l8,8a3.87,3.87,0,0,1,0,5.62Z"/><path class="cls-4" d="M79.76,65.6a3.89,3.89,0,0,1-5.62,0l-1.2-1.12V79.12a4,4,0,0,1-8,0V64.48L63.7,65.6A4,4,0,0,1,58.08,60l8-8a3.89,3.89,0,0,1,5.62,0l8,8a3.87,3.87,0,0,1,0,5.62Z"/><path class="cls-5" d="M119.91,65.6a3.89,3.89,0,0,1-5.62,0l-1.21-1.12V79.12a4,4,0,0,1-4,4V50.75a3.77,3.77,0,0,1,2.81,1.2l8,8a3.89,3.89,0,0,1,0,5.62Z"/><path class="cls-7" d="M165.27,139.6a16.1,16.1,0,0,1-16.06,16.06V123.54a16.1,16.1,0,0,1,16.06,16.06Z"/><path class="cls-7" d="M173.3,179.75v4a4,4,0,0,1-4,4H149.21V155.66a24.16,24.16,0,0,1,24.09,24.09Z"/><path class="cls-5" d="M160.05,65.6a3.89,3.89,0,0,1-5.62,0l-1.2-1.12V79.12a4,4,0,0,1-4,4V50.75A3.76,3.76,0,0,1,152,52l8,8a3.87,3.87,0,0,1,0,5.62Z"/><path class="cls-7" d="M93,179.75v4a4,4,0,0,1-4,4H68.92V155.66A24.16,24.16,0,0,1,93,179.75Z"/><path class="cls-7" d="M85,139.6a16.11,16.11,0,0,1-16.06,16.06V123.54A16.11,16.11,0,0,1,85,139.6Z"/><path class="cls-5" d="M79.76,65.6a3.89,3.89,0,0,1-5.62,0l-1.2-1.12V79.12a4,4,0,0,1-4,4V50.75A3.76,3.76,0,0,1,71.73,52l8,8a3.87,3.87,0,0,1,0,5.62Z"/><path class="cls-8" d="M109.07,155.66A24.16,24.16,0,0,0,85,179.75v4a4,4,0,0,0,4,4h40.14a4,4,0,0,0,4-4v-4a24.16,24.16,0,0,0-24.09-24.09Z"/><path class="cls-8" d="M109.07,123.54a16.06,16.06,0,1,0,16.06,16.06,16.11,16.11,0,0,0-16.06-16.06Z"/><path class="cls-9" d="M125.13,139.6a16.11,16.11,0,0,1-16.06,16.06V123.54a16.11,16.11,0,0,1,16.06,16.06Z"/><path class="cls-9" d="M133.16,179.75v4a4,4,0,0,1-4,4H109.07V155.66a24.16,24.16,0,0,1,24.09,24.09Z"/></g></g></svg>