<svg xmlns="http://www.w3.org/2000/svg" xmlns:xlink="http://www.w3.org/1999/xlink" viewBox="0 0 218.48 216.35"><defs><style>.cls-1{fill:none;}.cls-2{fill:#fcc351;}.cls-3{fill:#ffe861;}.cls-4{fill:#f9b24b;}.cls-5{clip-path:url(#clip-path);}.cls-6{fill:#955ba5;}.cls-7{fill:#3d324c;}.cls-8{fill:#f0c419;}.cls-9{fill:#aeadb3;}.cls-10{fill:#8b8892;}.cls-11{fill:#00ddc1;}.cls-12{fill:#00c7ce;}.cls-13{fill:#5a5a5a;}.cls-14{fill:#444;}.cls-15{fill:#d9d9d9;}.cls-16{fill:#c8c6cd;}</style><clipPath id="clip-path"><rect class="cls-1" x="44.09" y="24.99" width="130.05" height="130.05"/></clipPath></defs><title>quickFeatures2_1</title><g id="Layer_2" data-name="Layer 2"><g id="Layer_1-2" data-name="Layer 1"><path class="cls-2" d="M197.48,127.29c0-.07,0-.15.05-.22a90.75,90.75,0,0,0,1.7-9.23.22.22,0,0,1,0-.08,88.82,88.82,0,0,0,.61-16l18.63-15.73-8.11-24.42-3.79-.28v0L186.78,60a87.65,87.65,0,0,0-12-15.24c-1-1-2-1.95-3-2.88l-.41-.38c-.84-.77-1.7-1.51-2.56-2.24l1.87-23.23L147.5,4.49,129.15,20.3c-2-.39-4-.7-6.08-.95l-.51-.06c-1-.12-2-.22-3-.3h-.15a88.21,88.21,0,0,0-12.8-.12h-.08c-1.06.07-2.12.14-3.18.25L86.91,0,62.22,8.06l-1.9,27.35c-.34.24-.67.5-1,.75-.77.57-1.54,1.15-2.29,1.75l-.94.76c-.86.7-1.71,1.42-2.56,2.16l-.56.49c-1.06,1-2.11,1.93-3.14,2.94S48,46.08,47.18,47s-1.56,1.73-2.32,2.6L16.19,47.34l-11.7,23L24.48,93a87.89,87.89,0,0,0-1.15,17.59L0,130.31l8.12,24.42,30.26,2.07c.7,1,1.41,2,2.15,3l.55.72c.6.79,1.2,1.57,1.83,2.34.45.56.93,1.11,1.41,1.67s.81,1,1.24,1.44c.94,1.06,1.91,2.11,2.92,3.13.56.56,1.12,1.09,1.68,1.62l-2.37,29.57L67,209.9h0l4,2,21.58-18.6a88.8,88.8,0,0,0,20.81,1.91l16.11,18.71h0l2.11,2.44,24.67-8,1.85-26.56,0,0c1.21-.76,2.4-1.55,3.58-2.37l.56-.38c1-.72,2-1.47,3-2.23l.95-.72c.85-.68,1.69-1.39,2.53-2.11.39-.34.8-.66,1.19-1,1.17-1.05,2.33-2.12,3.47-3.24.88-.89,1.76-1.8,2.62-2.7L202.3,169l11.69-23Z"/><path class="cls-3" d="M197.53,127.07a90.75,90.75,0,0,0,1.7-9.23.22.22,0,0,1,0-.08,88.82,88.82,0,0,0,.61-16l18.63-15.73-8.11-24.42-3.79-.28v0L186.78,60a87.65,87.65,0,0,0-12-15.24c-1-1-2-1.95-3-2.88l-.41-.38c-.84-.77-1.7-1.51-2.56-2.24l1.87-23.23L147.5,4.49,129.15,20.3c-2-.39-4-.7-6.08-.95l-.51-.06c-1-.12-2-.22-3-.3h-.15a88.21,88.21,0,0,0-12.8-.12h-.08c-1.06.07-2.12.14-3.18.25L86.91,0,62.22,8.06l-.15,2.17L85.25,2.67l16.2,18.82c1-.1,2.09-.18,3.13-.25h.08a88.31,88.31,0,0,1,12.6.11l.15,0c1,.08,2,.18,2.94.29l.51.06c2,.25,4,.55,6,.94L144.91,7.08l22.84,11.4-1.84,22.87c.85.72,1.7,1.45,2.53,2.21l.39.37c1,.92,2,1.86,2.95,2.84a86.22,86.22,0,0,1,11.8,15l19.51,1.33v0l3.73.28,8,24-18.34,15.48a87.93,87.93,0,0,1-.61,15.72s0,.06,0,.08a88.49,88.49,0,0,1-1.67,9.09c0,.07,0,.14,0,.22l16.25,18.48L199,168.77l3.27.25,11.69-23-16.51-18.78C197.5,127.22,197.51,127.14,197.53,127.07Z"/><path class="cls-4" d="M156.78,159.35A132.39,132.39,0,0,1,26.11,48.12l-9.92-.78-11.7,23L24.48,93a87.89,87.89,0,0,0-1.15,17.59L0,130.31l8.12,24.42,30.26,2.07c.7,1,1.41,2,2.15,3l.55.72c.6.79,1.2,1.57,1.83,2.34.45.56.93,1.11,1.41,1.67s.81,1,1.24,1.44c.94,1.06,1.91,2.11,2.92,3.13.56.56,1.12,1.09,1.68,1.62l-2.37,29.57L67,209.9h0l4,2,21.58-18.6a88.8,88.8,0,0,0,20.81,1.91l16.11,18.71h0l2.11,2.44,24.67-8,1.85-26.56,0,0c1.21-.76,2.4-1.55,3.58-2.37l.56-.38c1-.72,2-1.47,3-2.23l.95-.72c.85-.68,1.69-1.39,2.53-2.11.39-.34.8-.66,1.19-1,1.17-1.05,2.33-2.12,3.47-3.24.88-.89,1.76-1.8,2.62-2.7L202.3,169l11.48-22.55A131.83,131.83,0,0,1,156.78,159.35Z"/><g class="cls-5"><path class="cls-6" d="M151.82,51.93c-9,0-13.45,9-13.45,2.25A28.64,28.64,0,0,0,119.81,26.9,29.34,29.34,0,0,0,85.18,37.75a2.21,2.21,0,0,1-3.09.59,11.12,11.12,0,0,0-8.62-1.9,11.26,11.26,0,0,0-8.73,8.26,11.11,11.11,0,0,0-.07,5.16,1.94,1.94,0,0,1-.24,1.52,1.92,1.92,0,0,1-1.29.85,22.39,22.39,0,0,0-18.83,24,22.87,22.87,0,0,0,23,20.49h83.69a22.92,22.92,0,0,0,23.13-20.92,22.42,22.42,0,0,0-22.36-23.91Z"/></g><path class="cls-7" d="M109.23,148.31a2.24,2.24,0,0,1-2.24-2.24V131.31a4.44,4.44,0,0,1,1.31-3.17l7.65-7.65v-34l-7.65-7.65A4.44,4.44,0,0,1,107,75.66V63.14a2.24,2.24,0,1,1,4.48,0V75.66l7.65,7.65a4.45,4.45,0,0,1,1.32,3.17v34a4.45,4.45,0,0,1-1.32,3.17l-7.65,7.65v14.76a2.24,2.24,0,0,1-2.24,2.24Z"/><path class="cls-7" d="M91.3,148.31a2.24,2.24,0,0,1-2.24-2.24V122.34a4.4,4.4,0,0,1,1.31-3.16L98,111.52V97.69l-9.89-9.9a4.43,4.43,0,0,1-1.32-3.17V74.35a2.25,2.25,0,1,1,4.49,0V84.62l9.89,9.9a4.44,4.44,0,0,1,1.31,3.17v13.83a4.44,4.44,0,0,1-1.31,3.17l-7.65,7.65v23.73a2.24,2.24,0,0,1-2.24,2.24Z"/><path class="cls-7" d="M73.37,148.31a2.24,2.24,0,0,1-2.25-2.24V117.86a4.45,4.45,0,0,1,1.32-3.17l7.68-7.41-9.78-8.15a4.54,4.54,0,0,1-1.46-3.3V85.55a2.25,2.25,0,0,1,4.49,0V95.83L83.12,104a4.54,4.54,0,0,1,1.45,3.3,4.44,4.44,0,0,1-1.31,3.17l-7.68,7.41,0,28.18a2.24,2.24,0,0,1-2.24,2.24Z"/><path class="cls-7" d="M127.16,148.31a2.24,2.24,0,0,1-2.24-2.24V131.31a4.44,4.44,0,0,1,1.31-3.17l5.41-5.41V86.48l-3.17-3.17a4.48,4.48,0,0,1-1.31-3.17V74.35a2.24,2.24,0,1,1,4.48,0v5.79l3.17,3.17a4.45,4.45,0,0,1,1.32,3.17v36.25a4.45,4.45,0,0,1-1.32,3.17l-5.41,5.41v14.76a2.24,2.24,0,0,1-2.24,2.24Z"/><path class="cls-7" d="M145.09,148.31a2.24,2.24,0,0,1-2.24-2.24V133.43a4.47,4.47,0,0,1,1-2.86l10.16-12-7.45-5.91-.2-.17a4.48,4.48,0,0,1-1.31-3.17V85.55a2.24,2.24,0,1,1,4.48,0v23.71l7.46,5.92.2.17a4.46,4.46,0,0,1,.27,6l-10.18,12v12.63a2.24,2.24,0,0,1-2.24,2.24Z"/><path class="cls-8" d="M107,54.17h4.48a2.24,2.24,0,0,1,2.24,2.24V60.9a2.24,2.24,0,0,1-2.24,2.24H107a2.24,2.24,0,0,1-2.24-2.24V56.41A2.24,2.24,0,0,1,107,54.17Z"/><path class="cls-8" d="M86.81,65.38H91.3a2.24,2.24,0,0,1,2.24,2.24V72.1a2.25,2.25,0,0,1-2.24,2.25H86.81a2.25,2.25,0,0,1-2.24-2.25V67.62a2.24,2.24,0,0,1,2.24-2.24Z"/><path class="cls-8" d="M68.88,76.59h4.49a2.24,2.24,0,0,1,2.24,2.24v4.48a2.24,2.24,0,0,1-2.24,2.24H68.88a2.24,2.24,0,0,1-2.24-2.24V78.83a2.24,2.24,0,0,1,2.24-2.24Z"/><path class="cls-8" d="M131.64,74.35h-4.48a2.24,2.24,0,0,1-2.24-2.25V67.62a2.24,2.24,0,0,1,2.24-2.24h4.48a2.24,2.24,0,0,1,2.24,2.24V72.1a2.24,2.24,0,0,1-2.24,2.25Z"/><path class="cls-8" d="M149.57,85.55h-4.48a2.24,2.24,0,0,1-2.24-2.24V78.83a2.24,2.24,0,0,1,2.24-2.24h4.48a2.24,2.24,0,0,1,2.25,2.24v4.48a2.24,2.24,0,0,1-2.25,2.24Z"/><path class="cls-8" d="M107,146.07h4.48a2.24,2.24,0,0,1,2.24,2.24v4.49a2.24,2.24,0,0,1-2.24,2.24H107a2.24,2.24,0,0,1-2.24-2.24v-4.49a2.24,2.24,0,0,1,2.24-2.24Z"/><path class="cls-8" d="M89.06,146.07h4.48a2.24,2.24,0,0,1,2.24,2.24v4.49A2.24,2.24,0,0,1,93.54,155H89.06a2.25,2.25,0,0,1-2.25-2.24v-4.49a2.24,2.24,0,0,1,2.25-2.24Z"/><path class="cls-8" d="M71.12,146.07h4.49a2.24,2.24,0,0,1,2.24,2.24v4.49A2.25,2.25,0,0,1,75.61,155H71.12a2.25,2.25,0,0,1-2.24-2.24v-4.49a2.24,2.24,0,0,1,2.24-2.24Z"/><path class="cls-8" d="M129.4,155h-4.48a2.24,2.24,0,0,1-2.24-2.24v-4.49a2.24,2.24,0,0,1,2.24-2.24h4.48a2.24,2.24,0,0,1,2.24,2.24v4.49A2.24,2.24,0,0,1,129.4,155Z"/><path class="cls-8" d="M147.33,155h-4.48a2.24,2.24,0,0,1-2.24-2.24v-4.49a2.24,2.24,0,0,1,2.24-2.24h4.48a2.24,2.24,0,0,1,2.24,2.24v4.49a2.24,2.24,0,0,1-2.24,2.24Z"/><path class="cls-9" d="M117.44,176.75l-4.75-9.51a2.44,2.44,0,0,0-2.14-1.33H96a2.44,2.44,0,0,0-2.14,1.33l-4.75,9.51a2.38,2.38,0,0,0,2.14,3.42H115.3A2.38,2.38,0,0,0,117.44,176.75Z"/><path class="cls-10" d="M117.44,176.75a2.38,2.38,0,0,1-2.14,3.42h-12V165.91h7.29a2.44,2.44,0,0,1,2.14,1.33Z"/><path class="cls-11" d="M136.69,120.43v43.1H69.83v-43.1a4.77,4.77,0,0,1,4.75-4.75h57.36A4.77,4.77,0,0,1,136.69,120.43Z"/><path class="cls-12" d="M136.69,120.43v43.1H103.26V115.68h28.68A4.77,4.77,0,0,1,136.69,120.43Z"/><path class="cls-13" d="M139.07,120.43a7.12,7.12,0,0,0-7.13-7.13H74.58a7.13,7.13,0,0,0-7.13,7.13v40.73l7.32,4.75h56.5l7.8-4.75V120.43Zm-4.75,40.73H72.21V120.43a2.34,2.34,0,0,1,2.37-2.37h57.36a2.35,2.35,0,0,1,2.38,2.37Z"/><path class="cls-14" d="M131.94,113.3a7.12,7.12,0,0,1,7.13,7.13v40.73l-7.8,4.75h-28v-4.75h31.06V120.43a2.35,2.35,0,0,0-2.38-2.37H103.26V113.3Z"/><path class="cls-15" d="M67.45,161.16v2.37a7.12,7.12,0,0,0,7.13,7.13h55a9.54,9.54,0,0,0,9.51-9.5H67.45Z"/><path class="cls-16" d="M139.07,161.16h0a9.54,9.54,0,0,1-9.51,9.5h-26.3v-9.5Z"/><path class="cls-13" d="M148.58,149.27a7.13,7.13,0,0,0-7.13-7.13h-19a7.13,7.13,0,0,0-7.13,7.13v2.38h33.28Z"/><rect class="cls-11" x="117.68" y="149.27" width="28.52" height="38.03"/><path class="cls-13" d="M143.92,146.89H120.2l-4.9,4.76v33.27l6.52,4.76h21.67l5.09-4.76V151.65Zm-.1,38H120.06V151.65h23.76Z"/><path class="cls-14" d="M141.45,142.14a7.13,7.13,0,0,1,7.13,7.13v2.38H131.94v-9.51Z"/><path class="cls-13" d="M115.3,184.92v2.38a7.13,7.13,0,0,0,7.13,7.13h19a7.13,7.13,0,0,0,7.13-7.13v-2.38Z"/><rect class="cls-12" x="131.94" y="149.27" width="14.26" height="38.03"/><polygon class="cls-14" points="148.58 151.65 148.58 184.92 143.49 189.68 131.94 189.68 131.94 184.92 143.82 184.92 143.82 151.65 131.94 151.65 131.94 146.9 143.92 146.9 148.58 151.65"/><path class="cls-14" d="M131.94,184.92h16.64v2.38a7.13,7.13,0,0,1-7.13,7.13h-9.51Z"/></g></g></svg>