<svg xmlns="http://www.w3.org/2000/svg" xmlns:xlink="http://www.w3.org/1999/xlink" viewBox="0 0 144 144"><defs><style>.cls-1{fill:none;}.cls-2{fill:#fff8f8;}.cls-3{fill:#a76a3e;}.cls-4{clip-path:url(#clip-path);}.cls-5{fill:url(#linear-gradient);}.cls-6{fill:#b35892;}.cls-7{fill:#f6faf5;}.cls-8{fill:#56806e;}.cls-9{fill:#e42127;}.cls-10,.cls-13{fill:#fff;stroke:#56806e;stroke-miterlimit:10;}.cls-10{stroke-width:0.5px;}.cls-11{fill:url(#linear-gradient-2);}.cls-12{fill:#ef4b59;}.cls-13{stroke-width:0.1px;}.cls-14{fill:#c37e4c;}.cls-15{fill:#edc55d;}.cls-16{fill:#d7b353;}.cls-17{fill:#b17245;}.cls-18{fill:#c9895e;}.cls-19{fill:#f08636;}.cls-20{fill:#ed7123;}.cls-21{fill:#cbc2a7;}.cls-22{fill:#e96429;}.cls-23{fill:#db4f26;}.cls-24{fill:#49ae78;}.cls-25{fill:#fcb72d;}.cls-26{fill:#c9b584;}.cls-27{fill:#269856;}.cls-28{fill:#ee9921;}.cls-29{fill:#7c7a75;}.cls-30{fill:#f8d09a;}.cls-31{fill:#f8a369;}.cls-32{fill:#67c08b;}.cls-33{fill:#605e5a;}.cls-34{fill:url(#linear-gradient-3);}.cls-35{fill:url(#linear-gradient-4);}.cls-36{fill:#fad362;}.cls-37{fill:#2d9f48;}.cls-38{fill:#237d3e;}</style><clipPath id="clip-path"><polygon class="cls-1" points="37.63 40.03 78 40.09 77.65 77.58 37.29 77.52 37.63 40.03"/></clipPath><linearGradient id="linear-gradient" x1="-118.26" y1="-271.83" x2="-93.15" y2="-271.83" gradientTransform="translate(104.43 340.26) rotate(11.63)" gradientUnits="userSpaceOnUse"><stop offset="0" stop-color="#e5c1db"/><stop offset="0.11" stop-color="#e7b4ca"/><stop offset="0.24" stop-color="#e8acbe"/><stop offset="0.37" stop-color="#e8a9ba"/><stop offset="1" stop-color="#ebd8c9"/></linearGradient><linearGradient id="linear-gradient-2" x1="-117.3" y1="-271.49" x2="-90.42" y2="-271.49" gradientTransform="translate(-25.48 332.01) rotate(37.51)" xlink:href="#linear-gradient"/><linearGradient id="linear-gradient-3" x1="-626.79" y1="1965.85" x2="-598.2" y2="1965.85" gradientTransform="translate(-1607.91 -1108.74) rotate(-72.41)" gradientUnits="userSpaceOnUse"><stop offset="0" stop-color="#cdc1ab"/><stop offset="0.09" stop-color="#c5cdb0"/><stop offset="0.24" stop-color="#bdd9b4"/><stop offset="0.38" stop-color="#baddb6"/><stop offset="0.5" stop-color="#cedbbe"/><stop offset="0.64" stop-color="#ded9c4"/><stop offset="0.8" stop-color="#e8d8c8"/><stop offset="1" stop-color="#ebd8c9"/></linearGradient><linearGradient id="linear-gradient-4" x1="-352.98" y1="1732.53" x2="-324.4" y2="1732.53" gradientTransform="translate(421.7 -1664.18)" xlink:href="#linear-gradient-3"/></defs><title>Asset 4</title><g id="Layer_2" data-name="Layer 2"><g id="Layer_1-2" data-name="Layer 1"><rect class="cls-2" width="144" height="144" rx="42.5" ry="42.5"/><path class="cls-3" d="M40.49,45.94,72,46a3.16,3.16,0,0,1,3.14,3.15v3.78A3.16,3.16,0,0,1,72,56.06L40.47,56a3.16,3.16,0,0,1-3.14-3.15V49.08a3.16,3.16,0,0,1,3.15-3.14Zm0,0"/><g class="cls-4"><polygon class="cls-5" points="42.29 55.57 60.18 40.32 68.95 50.61 50.22 64.88 42.29 55.57"/><path class="cls-6" d="M43.48,55.65l7.32,8.79,17-13.91-7.69-9Zm22.29-6.14a1.26,1.26,0,0,0-.17,1.78L52.26,62.66a1.26,1.26,0,0,0-1.78-.11l-5-5.88a1.26,1.26,0,0,0,.17-1.78L59,43.52a1.26,1.26,0,0,0,1.78.11Z"/><ellipse class="cls-7" cx="51.4" cy="56.69" rx="3.43" ry="4.19" transform="translate(-24.49 46.89) rotate(-40.45)"/><path class="cls-8" d="M53.19,58.87a1.7,1.7,0,0,1-.66.33,1.31,1.31,0,0,1-.71,0,2.11,2.11,0,0,1-.71-.65L50.61,58a.28.28,0,0,0-.39,0l-.33.29a.28.28,0,0,1-.39,0l-.13-.15a.28.28,0,0,1,0-.39l.33-.29a.28.28,0,0,0,0-.39l-.13-.15a7,7,0,0,0-.49-.52.28.28,0,0,0-.11-.07.75.75,0,0,0-.38,0,.27.27,0,0,1-.32-.23l0-.14a.28.28,0,0,1,.21-.31,1.42,1.42,0,0,1,.69,0,1.55,1.55,0,0,1,.76.56l.35.41a.28.28,0,0,0,.39,0l.16-.13a.28.28,0,0,1,.39,0l.13.15a.28.28,0,0,1,0,.39l-.16.13a.28.28,0,0,0,0,.39l.75.88a.27.27,0,0,0,.23.1.89.89,0,0,0,.49-.16,1.17,1.17,0,0,0,.41-.87,1.27,1.27,0,0,0-.3-.93.71.71,0,0,0-.6-.26.27.27,0,0,1-.28-.33l0-.22a.28.28,0,0,1,.3-.22,1.59,1.59,0,0,1,1.11.56,2,2,0,0,1,.47,1.45A1.8,1.8,0,0,1,53.19,58.87Z"/><circle class="cls-9" cx="59.77" cy="50.43" r="1.82" transform="translate(-18.43 50.83) rotate(-40.45)"/><path class="cls-10" d="M60.15,48.82,62,51s0,0,0,0l-.18.15s0,0,0,0v0l-2.46-2.89c-.11-.13-.2-.26-.3-.4l-.29-.39L58.38,47s0,0-.06,0l-.85.76s0,0,0,0l.73.67.36.34,0,0,2.46,2.89s0,0,0,.05l-.18.16s0,0,0,0v0l-2.34-2.75c-.11-.13-.23-.25-.35-.37l-.35-.36L57.31,48s0,0,0,0l-.76.67s0,0,0,0l.61.52.51.44,0,0,2.44,2.87s0,0,0,.05l-.17.14s0,0,0,0l-.44-.52L57.54,50a3.44,3.44,0,0,0-.31-.3l-.42-.38-.45-.41-.2-.18s0,0,0,0l1-.92,1.11-1,.08-.07s0,0,0,0l.35.45.43.55C59.51,48.09,59.85,48.46,60.15,48.82Z"/><path class="cls-10" d="M58.16,51.91l1.13,1.33s0,0,0,0l-.11.1s0,0,0,0v0L57,50.85s0,0-.05,0l-.27.23s0,0,0,0l2.06,2.41.1.12s0,0,0,0l-.14.12s0,0,0,0h0l-2.26-2.65s0,0,0-.05l.59-.51s0,0,0,0Z"/><path class="cls-10" d="M61.4,49.14l-1.13-1.33s0,0,0,0l.6-.51s0,0,0,0l2.27,2.67s0,0,0,0l-.13.11s0,0,0,0l0,0-2.14-2.51s0,0-.05,0l-.27.23s0,0,0,0l.79.92,1.37,1.6s0,0,0,.05l-.11.09s0,0,0,0l0,0Z"/><path class="cls-10" d="M57.57,53l.81.95s0,0,0,0l-.12.1s0,0,0,0h0l-1.49-1.75s0,0-.05,0l-.25.21s0,0,0,0l1.5,1.76s0,0,0,.05l-.12.1s0,0,0,0l-.35-.41-1.27-1.49s0,0,0,0l.57-.49s0,0,0,0Z"/><path class="cls-10" d="M62.6,48.74l-.81-.95s0,0,0,0l.58-.49s0,0,0,0L64,49.16s0,0,0,0l-.13.11s0,0,0,0v0l-1.49-1.75s0,0-.05,0l-.25.21s0,0,0,0l1.5,1.76s0,0,0,.05l-.1.09s0,0,0,0Z"/><rect class="cls-10" x="56.75" y="51.77" width="8.55" height="0.51" transform="translate(-19.17 52.02) rotate(-40.45)"/><rect class="cls-11" x="45.68" y="46.65" width="23.51" height="13.52" transform="translate(-17.55 30.42) rotate(-25.88)"/><path class="cls-6" d="M45,52.83,50.22,63.5,69.84,54,64.66,43.32Zm23.12-.33a1.26,1.26,0,0,0-.61,1.68L51.78,61.83a1.26,1.26,0,0,0-1.7-.56l-3.37-6.95a1.26,1.26,0,0,0,.61-1.68L63.1,45a1.26,1.26,0,0,0,1.7.56Z"/><ellipse class="cls-7" cx="52.45" cy="55.83" rx="3.43" ry="4.19" transform="translate(-19.11 28.49) rotate(-25.88)"/><path class="cls-8" d="M53.63,58.39a1.7,1.7,0,0,1-.72.16,1.31,1.31,0,0,1-.7-.16,2.11,2.11,0,0,1-.52-.81l-.33-.68a.28.28,0,0,0-.37-.13l-.4.19a.28.28,0,0,1-.37-.13l-.09-.18a.28.28,0,0,1,.13-.37l.4-.19a.28.28,0,0,0,.13-.37l-.09-.18a7,7,0,0,0-.34-.62.28.28,0,0,0-.09-.09.75.75,0,0,0-.36-.11.27.27,0,0,1-.25-.3l0-.14A.28.28,0,0,1,50,54a1.42,1.42,0,0,1,.68.15,1.55,1.55,0,0,1,.59.73l.23.48a.28.28,0,0,0,.37.13l.18-.09a.28.28,0,0,1,.37.13l.09.18a.28.28,0,0,1-.13.37l-.18.09a.28.28,0,0,0-.13.37l.5,1a.27.27,0,0,0,.2.15.89.89,0,0,0,.51,0,1.17,1.17,0,0,0,.62-.74,1.27,1.27,0,0,0-.06-1,.71.71,0,0,0-.51-.41.27.27,0,0,1-.19-.39l.1-.2a.28.28,0,0,1,.35-.14,1.59,1.59,0,0,1,.94.82,2,2,0,0,1,.09,1.52A1.8,1.8,0,0,1,53.63,58.39Z"/><circle class="cls-9" cx="62.12" cy="51.88" r="1.82" transform="translate(-16.41 32.31) rotate(-25.88)"/><path class="cls-12" d="M62.9,50.42l1.23,2.53s0,0,0,0l-.21.1s0,0,0,0v0l-1.66-3.41c-.07-.15-.13-.31-.19-.46l-.18-.45-.2-.5s0,0-.05,0l-1,.52s0,0,0,0l.54.83.27.42,0,0L63,53.47s0,0,0,0l-.22.11s0,0,0,0v0l-1.58-3.25c-.07-.15-.16-.3-.24-.45l-.25-.44-.33-.58s0,0,0,0l-.91.45s0,0,0,0l.46.66.38.55,0,0L61.91,54s0,0,0,0l-.2.1s0,0,0,0l-.3-.61-1.29-2.66a3.44,3.44,0,0,0-.22-.37L59.55,50l-.33-.51-.15-.23s0,0,0,0l1.24-.63L61.64,48l.09,0s0,0,0,0l.23.52.28.64C62.47,49.55,62.7,50,62.9,50.42Z"/><path class="cls-12" d="M60.19,52.9,61,54.47s0,0,0,0l-.13.06s0,0,0,0v0l-1.44-3s0,0,0,0l-.32.15s0,0,0,0l1.38,2.85.07.14s0,0,0,0l-.16.08s0,0,0,0h0L58.66,51.7s0,0,0-.05l.7-.34s0,0,0,0Z"/><path class="cls-12" d="M64,51l-.76-1.57s0,0,0,0l.7-.34s0,0,0,0l1.53,3.15s0,0,0,0l-.16.08s0,0,0,0v0l-1.44-3s0,0-.05,0l-.32.15s0,0,0,0L64,50.63,65,52.52s0,0,0,.05l-.13.06s0,0,0,0l0,0Z"/><path class="cls-6" d="M59.34,53.84,59.88,55s0,0,0,0l-.14.07s0,0,0,0v0l-1-2.07s0,0,0,0l-.29.14s0,0,0,0l1,2.08s0,0,0,0l-.14.07s0,0,0,0l-.24-.49-.85-1.76s0,0,0,0l.68-.33s0,0,0,0Z"/><path class="cls-12" d="M65.29,51l-.55-1.12s0,0,0,0l.68-.33s0,0,0,0l1.09,2.25s0,0,0,0l-.15.07s0,0,0,0v0l-1-2.07s0,0,0,0l-.3.14s0,0,0,0L66,52s0,0,0,0l-.12.06s0,0,0,0Z"/><rect class="cls-13" x="58.66" y="53.48" width="8.55" height="0.51" transform="translate(-17.14 32.86) rotate(-25.88)"/></g><path class="cls-14" d="M73.18,77.47l-32.74,0a3.16,3.16,0,0,1-3.14-3.15l0-22.67,35.89.05a3.16,3.16,0,0,1,3.14,3.15l0,19.52a3.16,3.16,0,0,1-3.15,3.14ZM39.85,51.61H37.33V49.08a2.53,2.53,0,0,0,2.52,2.52Zm0,0"/><path class="cls-3" d="M76.34,69.61h-5a4.41,4.41,0,0,1,0-8.82h5a1.26,1.26,0,0,1,1.26,1.26v6.3a1.26,1.26,0,0,1-1.26,1.26Zm0,0"/><path class="cls-15" d="M71.32,62.67a2.52,2.52,0,1,1-2.52,2.51,2.53,2.53,0,0,1,2.52-2.51Zm0,0"/><path class="cls-16" d="M71.94,67.08a2.54,2.54,0,0,1-2.07-4,2.45,2.45,0,0,0-1.07,2.08,2.53,2.53,0,0,0,2.51,2.52,2.62,2.62,0,0,0,2.08-1.07,2.54,2.54,0,0,1-1.45.44Zm0,0"/><path class="cls-17" d="M73.18,76.21l-32.74,0A3.16,3.16,0,0,1,37.3,73v1.26a3.16,3.16,0,0,0,3.14,3.15l32.74,0a3.16,3.16,0,0,0,3.15-3.14V73.07a3.16,3.16,0,0,1-3.15,3.14Zm0,0"/><path class="cls-18" d="M73.22,51.66l-33.37,0a2.53,2.53,0,0,1-2.52-2.52v1.26a2.53,2.53,0,0,0,2.52,2.52l33.37,0a3.16,3.16,0,0,1,3.14,3.15V54.81a3.16,3.16,0,0,0-3.14-3.15Zm0,0"/><path class="cls-19" d="M97.51,38.8h16a.72.72,0,0,1,.72.72v9.75a.72.72,0,0,1-.72.72h-16a.72.72,0,0,1-.72-.72V39.53A.72.72,0,0,1,97.51,38.8Z"/><path class="cls-20" d="M111.65,49.27V39.53a.72.72,0,0,0-.72-.72h2.54a.72.72,0,0,1,.72.72v9.75a.72.72,0,0,1-.72.72h-2.54A.72.72,0,0,0,111.65,49.27Z"/><path class="cls-21" d="M75.94,60.17H95.68a1.11,1.11,0,0,1,1.11,1.11V96.2a1.11,1.11,0,0,1-1.11,1.11H75.94a1.11,1.11,0,0,1-1.11-1.11V61.28A1.11,1.11,0,0,1,75.94,60.17Z"/><path class="cls-19" d="M67.21,86.11h16a.72.72,0,0,1,.72.72v9.75a.72.72,0,0,1-.72.72h-16a.72.72,0,0,1-.72-.72V86.83A.72.72,0,0,1,67.21,86.11Z"/><path class="cls-22" d="M97.51,38.8h16a.72.72,0,0,1,.72.72v3.21H96.79V39.53A.72.72,0,0,1,97.51,38.8Z"/><path class="cls-23" d="M111.65,39.53a.72.72,0,0,0-.72-.72h2.54a.72.72,0,0,1,.72.72v3.21h-2.54Z"/><path class="cls-24" d="M100.91,97.3h-2.6a1.53,1.53,0,0,1-1.53-1.53V75.17a1.53,1.53,0,0,1,1.53-1.53h25.15A1.53,1.53,0,0,1,125,75.17v20.6a1.53,1.53,0,0,1-1.53,1.53H104.17"/><path class="cls-25" d="M96.79,51.52A1.53,1.53,0,0,1,98.31,50h25.15A1.53,1.53,0,0,1,125,51.52v20.6a1.53,1.53,0,0,1-1.53,1.53H98.31a1.53,1.53,0,0,1-1.53-1.53Z"/><path class="cls-26" d="M94.24,96.2V61.28a1.11,1.11,0,0,0-1.11-1.11h2.54a1.11,1.11,0,0,1,1.11,1.11V96.2a1.11,1.11,0,0,1-1.11,1.11H93.14A1.11,1.11,0,0,0,94.24,96.2Z"/><path class="cls-20" d="M81.35,96.58V86.83a.72.72,0,0,0-.72-.72h2.54a.72.72,0,0,1,.72.72v9.75a.72.72,0,0,1-.72.72H80.63A.72.72,0,0,0,81.35,96.58Z"/><path class="cls-27" d="M122.44,95.78V75.17a1.53,1.53,0,0,0-1.53-1.53h2.54A1.53,1.53,0,0,1,125,75.17v20.6a1.53,1.53,0,0,1-1.53,1.53h-2.54A1.53,1.53,0,0,0,122.44,95.78Z"/><path class="cls-28" d="M122.44,72.12V51.52A1.53,1.53,0,0,0,120.92,50h2.54A1.53,1.53,0,0,1,125,51.52v20.6a1.53,1.53,0,0,1-1.53,1.53h-2.54A1.53,1.53,0,0,0,122.44,72.12Z"/><path class="cls-29" d="M114.83,50V61.82a.64.64,0,0,1-1,.5L110.89,60,108,62.32a.64.64,0,0,1-1-.5V50Z"/><path class="cls-29" d="M114.83,73.65V85.48a.64.64,0,0,1-1,.5l-2.91-2.3L108,86a.64.64,0,0,1-1-.5V73.65Z"/><path class="cls-29" d="M82.9,72.5a.64.64,0,0,1-1-.5V60.17h7.88V72a.64.64,0,0,1-1,.5l-2.91-2.3Z"/><path class="cls-30" d="M100.78,67.41h5.47a1,1,0,1,0,0-1.91h-5.47a1,1,0,1,0,0,1.91Z"/><path class="cls-31" d="M72.15,94.5h5.47a1,1,0,0,0,0-1.91H72.15a1,1,0,0,0,0,1.91Z"/><path class="cls-31" d="M102.54,47.19H108a1,1,0,0,0,0-1.91h-5.47a1,1,0,1,0,0,1.91Z"/><path class="cls-30" d="M100.78,70.59h5.47a1,1,0,1,0,0-1.91h-5.47a1,1,0,1,0,0,1.91Z"/><path class="cls-32" d="M100.78,90.81h5.47a1,1,0,1,0,0-1.91h-5.47a1,1,0,1,0,0,1.91Z"/><path class="cls-32" d="M100.78,94h5.47a1,1,0,1,0,0-1.91h-5.47a1,1,0,1,0,0,1.91Z"/><path class="cls-22" d="M67.21,86.11h16a.72.72,0,0,1,.72.72V90H66.49V86.83A.72.72,0,0,1,67.21,86.11Z"/><path class="cls-23" d="M81.35,86.83a.72.72,0,0,0-.72-.72h2.54a.72.72,0,0,1,.72.72V90H81.35Z"/><path class="cls-33" d="M114.83,73.65V85.48a.64.64,0,0,1-1,.5l-2.91-2.3v-10Z"/><path class="cls-33" d="M114.83,50V61.82a.64.64,0,0,1-1,.5L110.89,60V50Z"/><path class="cls-33" d="M85.81,60.17h3.94V72a.64.64,0,0,1-1,.5l-2.91-2.3h0v-10Z"/><polygon class="cls-34" points="68.78 80.34 77.42 53.09 93.08 58.06 82.95 84.83 68.78 80.34"/><path class="cls-8" d="M70.05,79.65,83.26,84l8.55-25.27L78.06,54.39ZM89.1,59a1.53,1.53,0,0,0,1,1.94L83.62,81.23a1.53,1.53,0,0,0-1.91,1l-9-2.84a1.53,1.53,0,0,0-1-1.94l6.44-20.31a1.53,1.53,0,0,0,1.91-1Z"/><ellipse class="cls-7" cx="78.89" cy="75.63" rx="4.17" ry="5.09" transform="translate(-17.04 127.98) rotate(-72.41)"/><path class="cls-8" d="M82.14,76.73a2.07,2.07,0,0,1-.47.77A1.59,1.59,0,0,1,81,78a2.56,2.56,0,0,1-1.15-.22l-.88-.28a.33.33,0,0,0-.42.22l-.16.51a.33.33,0,0,1-.42.22l-.23-.07a.33.33,0,0,1-.22-.42l.16-.51a.33.33,0,0,0-.22-.42l-.23-.07a8.52,8.52,0,0,0-.84-.22.34.34,0,0,0-.16,0,.91.91,0,0,0-.4.23.33.33,0,0,1-.47,0l-.11-.13a.34.34,0,0,1,0-.46,1.73,1.73,0,0,1,.7-.47,1.89,1.89,0,0,1,1.14.09l.62.2a.33.33,0,0,0,.42-.22l.08-.24a.33.33,0,0,1,.42-.22l.23.07a.33.33,0,0,1,.22.42L79,76.2a.33.33,0,0,0,.22.42l1.34.42a.33.33,0,0,0,.3,0,1.08,1.08,0,0,0,.4-.48,1.42,1.42,0,0,0-.13-1.16,1.55,1.55,0,0,0-.91-.76.87.87,0,0,0-.79.11.33.33,0,0,1-.5-.16l-.09-.25a.34.34,0,0,1,.17-.42,1.93,1.93,0,0,1,1.51-.14,2.45,2.45,0,0,1,1.42,1.2A2.19,2.19,0,0,1,82.14,76.73Z"/><circle class="cls-9" cx="83.5" cy="63.79" r="2.21" transform="translate(-2.54 124.11) rotate(-72.41)"/><path class="cls-10" d="M82.86,61.88l3.25,1s0,0,0,.05l-.08.27s0,0,0,0h0l-4.4-1.39c-.19-.06-.38-.14-.57-.22l-.55-.22-.61-.24s0,0-.06,0l-.39,1.33s0,0,0,0l1.19.22.59.11h0l4.4,1.39s0,0,0,.06l-.09.28s0,0,0,0h0l-4.18-1.33c-.2-.06-.4-.11-.6-.16L80.17,63l-.78-.19s0,0-.05,0L79,64.05s0,0,0,0l1,.15.81.12h.06l4.37,1.38s0,0,0,.05l-.08.26s0,0,0,0l-.79-.25L80.9,64.75a4.18,4.18,0,0,0-.51-.12l-.68-.13L79,64.37l-.32-.06s0,0,0,0l.48-1.61.51-1.73,0-.12s0,0,0,0l.65.24.79.29C81.73,61.53,82.31,61.7,82.86,61.88Z"/><path class="cls-10" d="M82.78,66.34l2,.64s0,0,0,.05l-.05.17s0,0,0,0h0L80.89,66s0,0-.06,0l-.13.41s0,0,0,0l3.68,1.16.19.06s0,0,0,0l-.07.21s0,0,0,0h0l-4-1.28s0,0,0-.06l.29-.9s0,0,.05,0Z"/><path class="cls-10" d="M84.35,61.41l-2-.64s0,0,0-.05l.29-.91s0,0,0,0l4.06,1.29s0,0,0,0l-.06.2s0,0,0,0h0l-3.83-1.21s0,0-.06,0l-.13.41s0,0,0,0L84,61l2.44.77s0,0,0,.06l-.05.17s0,0,0,0h0Z"/><path class="cls-10" d="M82.9,67.88l1.44.46s0,0,0,0l-.06.18s0,0,0,0h0l-2.67-.85s0,0-.05,0l-.12.38s0,0,0,.05l2.68.85s0,0,0,.05,0,.12-.06.18,0,0,0,0l-.63-.2-2.26-.72s0,0,0-.05l.28-.87s0,0,0,0Z"/><path class="cls-10" d="M85.32,60.22l-1.45-.46s0,0,0,0l.28-.88s0,0,0,0l2.89.92s0,0,0,0L87,60s0,0,0,0h0l-2.67-.85s0,0-.06,0l-.12.38s0,0,0,0l2.68.85s0,0,0,.06a1.32,1.32,0,0,0-.05.16s0,0,0,0Z"/><rect class="cls-10" x="80.62" y="64.31" width="10.39" height="0.62" transform="translate(-1.72 126.9) rotate(-72.41)"/><rect class="cls-35" x="68.72" y="60.14" width="28.58" height="16.43" transform="translate(-19.04 102.25) rotate(-57.84)"/><path class="cls-8" d="M69.85,75.74l12.21,7.67L96.17,61,84,53.3ZM93.49,60.52a1.53,1.53,0,0,0,.45,2.12l-11.34,18a1.53,1.53,0,0,0-2.11.52l-7.95-5a1.53,1.53,0,0,0-.45-2.12L83.43,56a1.53,1.53,0,0,0,2.11-.52Z"/><ellipse class="cls-7" cx="79.42" cy="74.07" rx="4.17" ry="5.09" transform="translate(-25.55 101.88) rotate(-57.84)"/><path class="cls-8" d="M82.29,75.95a2.07,2.07,0,0,1-.65.63,1.59,1.59,0,0,1-.82.28,2.56,2.56,0,0,1-1.06-.5L79,75.87a.33.33,0,0,0-.46.11l-.28.45a.33.33,0,0,1-.46.11l-.2-.13a.33.33,0,0,1-.11-.46l.28-.45a.33.33,0,0,0-.11-.46l-.21-.13a8.52,8.52,0,0,0-.75-.42.34.34,0,0,0-.15,0,.91.91,0,0,0-.45.12.33.33,0,0,1-.45-.15l-.08-.16a.34.34,0,0,1,.13-.44,1.73,1.73,0,0,1,.8-.28,1.89,1.89,0,0,1,1.08.37l.55.35a.33.33,0,0,0,.46-.11l.13-.21a.33.33,0,0,1,.46-.11l.2.13a.33.33,0,0,1,.11.46l-.13.21a.33.33,0,0,0,.11.46l1.19.75a.33.33,0,0,0,.3,0,1.08,1.08,0,0,0,.51-.36,1.42,1.42,0,0,0,.16-1.16,1.55,1.55,0,0,0-.69-1,.87.87,0,0,0-.79-.09.33.33,0,0,1-.45-.28l0-.27a.34.34,0,0,1,.27-.36,1.93,1.93,0,0,1,1.49.24,2.45,2.45,0,0,1,1.07,1.52A2.19,2.19,0,0,1,82.29,75.95Z"/><circle class="cls-9" cx="86.86" cy="63.77" r="2.21" transform="translate(-13.36 103.36) rotate(-57.84)"/><path class="cls-13" d="M86.72,61.76l2.89,1.82s0,0,0,.06l-.15.24s0,0,0,0h0l-3.91-2.46c-.17-.11-.33-.23-.49-.35l-.48-.35L84,60.32s0,0-.07,0l-.71,1.19s0,0,0,0l1.09.51.54.26,0,0,3.91,2.45s0,0,0,.06l-.16.25s0,0,0,0h0L84.9,62.79c-.17-.11-.36-.2-.54-.3l-.54-.29-.71-.38s0,0-.06,0l-.64,1.05s0,0,0,0l.9.39.75.32.05,0L88,66.1s0,0,0,.06l-.14.23s0,0,0,0l-.7-.44L84.1,64a4.18,4.18,0,0,0-.46-.24L83,63.51l-.68-.32-.3-.14s0,0,0,0l.87-1.44L83.83,60l.06-.11s0,0,0,0l.57.39.7.48C85.71,61.13,86.24,61.45,86.72,61.76Z"/><path class="cls-13" d="M85.52,66.06l1.8,1.13s0,0,0,.06l-.1.15s0,0,0,0h0l-3.4-2.14s0,0-.06,0l-.23.36s0,0,0,.05l3.26,2.05.17.1s0,0,0,0l-.12.19s0,0,0,0h0l-3.59-2.26s0,0,0-.06l.5-.8s0,0,.06,0Z"/><path class="cls-13" d="M88.28,61.68l-1.8-1.13s0,0,0-.06l.51-.81s0,0,.05,0l3.61,2.27s0,0,0,0l-.11.18s0,0,0,0l0,0L87.07,60s0,0-.06,0l-.23.36s0,0,0,.05l1.25.78L90.2,62.6s0,0,0,.06l-.09.15s0,0,0,0l0,0Z"/><path class="cls-13" d="M85.25,67.58l1.28.81s0,0,0,.05l-.1.16s0,0,0,0h0L84,67.1s0,0-.06,0l-.21.34s0,0,0,.06L86.14,69s0,0,0,.06l-.1.16s0,0,0,0l-.56-.35-2-1.26s0,0,0-.06l.49-.77s0,0,.05,0Z"/><path class="cls-13" d="M89.52,60.77,88.24,60s0,0,0-.05l.49-.78s0,0,.05,0l2.57,1.62s0,0,0,.05l-.11.17s0,0,0,0h0l-2.37-1.49s0,0-.06,0l-.21.34s0,0,0,.05l2.38,1.5s0,0,0,.06l-.09.14s0,0-.05,0Z"/><rect class="cls-13" x="83.69" y="64.85" width="10.39" height="0.62" transform="translate(-13.59 105.73) rotate(-57.84)"/><path class="cls-36" d="M86.34,79.2h0a3.48,3.48,0,0,0-3.44-3.52h-.23a38.75,38.75,0,0,0-7.71,0H74.5v.05a18,18,0,0,0-2.56.47l-.18-5.3-2.41.51a6.92,6.92,0,0,0-3.58,2.06l-5.26,5.71a6.92,6.92,0,0,1-5.09,2.23h-.67l-2.6,18.89,6.59.06c9.36,3.7,20.64,2.4,20.64,2.4h1a3.48,3.48,0,0,0,3.44-3.52h0a3.52,3.52,0,0,0-2-3.19H82a3.48,3.48,0,0,0,3.44-3.52h0a3.52,3.52,0,0,0-2-3.17,3.49,3.49,0,0,0,2.83-3.46h0a3.51,3.51,0,0,0-2.41-3.36A3.51,3.51,0,0,0,86.34,79.2Z"/><rect class="cls-37" x="45.1" y="78.4" width="11.04" height="26.8"/><circle class="cls-38" cx="50.62" cy="100.97" r="1.94"/><rect class="cls-37" x="34.91" y="79.61" width="9.26" height="4.81" rx="1" ry="1"/><rect class="cls-37" x="24.62" y="79.61" width="9.26" height="4.81" rx="1" ry="1"/><rect class="cls-37" x="19.01" y="89.44" width="25.16" height="4.81" rx="1" ry="1"/><rect class="cls-37" x="25.65" y="99.18" width="18.53" height="4.81" rx="1" ry="1"/></g></g></svg>