<svg height="480pt" viewBox="-56 0 480 480" width="480pt" xmlns="http://www.w3.org/2000/svg"><path d="m296 472h-256c-17.671875 0-32-14.328125-32-32v-368c0-17.671875 14.328125-32 32-32h288v400c0 17.671875-14.328125 32-32 32zm0 0" fill="#428dc5"/><path d="m328 40h-240l-48 48v336c0 4.417969 3.582031 8 8 8h280zm0 0" fill="#3775a4"/><path d="m352 416h-288c-4.417969 0-8-3.582031-8-8v-336l64-64h224c8.835938 0 16 7.164062 16 16v384c0 4.417969-3.582031 8-8 8zm0 0" fill="#f0f0f0"/><g fill="#d9d9d9"><path d="m88 360h48v16h-48zm0 0"/><path d="m168 48h80v16h-80zm0 0"/><path d="m184 80h48v16h-48zm0 0"/></g><path d="m112 72h-56l64-64v56c0 4.417969-3.582031 8-8 8zm0 0" fill="#eaeae8"/><path d="m328 112h-240c-4.417969 0-8 3.582031-8 8v208c0 4.417969 3.582031 8 8 8h168v24c0 4.417969 3.582031 8 8 8h64c4.417969 0 8-3.582031 8-8v-240c0-4.417969-3.582031-8-8-8zm-8 208h-48v-16h48zm-224-144h32v16h-32zm160 0v16h-112v-16zm64 16h-48v-16h48zm0 32h-48v-16h48zm0 32h-48v-16h48zm-224-16h32v16h-32zm0-32h32v16h-32zm48 0h112v16h-112zm0 32h112v16h-112zm-48 32h32v16h-32zm48 0h112v16h-112zm128 0h48v16h-48zm48-144v32h-224v-32zm-224 192v-16h32v16zm48 0v-16h112v16zm128 32v-16h48v16zm0 0" fill="#d9d9d9"/><path d="m344 0h-224c-.152344 0-.296875.078125-.449219.0898438-.734375.0351562-1.457031.1835942-2.152343.4296872-.234376.070313-.46875.152344-.695313.25-.890625.382813-1.703125.925781-2.398437 1.597657l-29.617188 29.632812h-44.6875c-22.082031.027344-39.9726562 17.917969-40 40v368c.0273438 22.082031 17.917969 39.972656 40 40h256c22.082031-.027344 39.972656-17.917969 40-40v-16h16c8.835938 0 16-7.164062 16-16v-384c0-13.253906-10.746094-24-24-24zm-250.34375 45.65625 18.34375-18.34375v36.6875h-36.6875zm226.34375 394.34375c0 13.253906-10.746094 24-24 24h-256c-13.253906 0-24-10.746094-24-24v-368c0-13.253906 10.746094-24 24-24h28.6875l-18.34375 18.34375c-.671875.679688-1.210938 1.472656-1.601562 2.34375-.109376.25-.175782.496094-.261719.753906-.230469.660156-.367188 1.355469-.410157 2.054688 0 .175781-.101562.328125-.101562.503906v336c0 8.835938 7.164062 16 16 16h256.03125zm-256-32v-328h48c8.835938 0 16-7.164062 16-16v-48h216c4.417969 0 8 3.582031 8 8v384zm0 0"/><path d="m88 360h48v16h-48zm0 0"/><path d="m168 48h80v16h-80zm0 0"/><path d="m184 80h48v16h-48zm0 0"/><path d="m328 112h-240c-4.417969 0-8 3.582031-8 8v208c0 4.417969 3.582031 8 8 8h168v24c0 4.417969 3.582031 8 8 8h64c4.417969 0 8-3.582031 8-8v-240c0-4.417969-3.582031-8-8-8zm-8 208h-48v-16h48zm-64-144v16h-112v-16zm64 16h-48v-16h48zm0 32h-48v-16h48zm0 32h-48v-16h48zm-224-16h32v16h-32zm0-32h32v16h-32zm48 0h112v16h-112zm0 32h112v16h-112zm-16-48h-32v-16h32zm-32 80h32v16h-32zm48 0h112v16h-112zm128 0h48v16h-48zm-176-144h224v32h-224zm0 192v-16h32v16zm48 0v-16h112v16zm128 16h48v16h-48zm0 0"/></svg>