<svg height="464pt" viewBox="0 0 464 464" width="464pt" xmlns="http://www.w3.org/2000/svg"><path d="m232 0-232 208v256h464v-256zm0 0" fill="#35729e"/><path d="m400 464h-336v-368l64-64h272zm0 0" fill="#d1f4ce"/><path d="m128 96h-64l64-64zm0 0" fill="#80caca"/><path d="m0 464 232-160 232 160zm0 0" fill="#35729e"/><path d="m0 208 208.449219 112.238281-208.449219 143.761719zm0 0" fill="#80caca"/><path d="m464 208-208.449219 112.238281 208.449219 143.761719zm0 0" fill="#80caca"/><path d="m24 256h16v56h-16zm0 0" fill="#d1f4ce"/><path d="m24 328h16v16h-16zm0 0" fill="#d1f4ce"/><path d="m344 256h-224l112-192zm0 0" fill="#f9bb4b"/><path d="m224 136h16v48h-16zm0 0" fill="#d92546"/><path d="m352 424h16v16h-16zm0 0" fill="#d1f4ce"/><path d="m320 424h16v16h-16zm0 0" fill="#d1f4ce"/><path d="m224 200h16v16h-16zm0 0" fill="#d92546"/></svg>