<svg xmlns="http://www.w3.org/2000/svg" viewBox="0 0 185.31 85.93"><defs><style>.cls-1{fill:#f5d3ab;}.cls-2{fill:#cea06e;}.cls-3{fill:#eab78a;}.cls-4{fill:#33526f;}.cls-5{fill:#253e54;}.cls-6{fill:#c1ded9;}.cls-7{fill:#99cfd7;}.cls-8{fill:#244351;}.cls-9{fill:#5b5b5c;}.cls-10{fill:#3a3a3a;}.cls-11{fill:#fcfdff;}.cls-12{fill:#dbdada;}.cls-13{fill:#2d2d2d;}</style></defs><title>Asset 10</title><g id="Layer_2" data-name="Layer 2"><g id="Layer_1-2" data-name="Layer 1"><path class="cls-1" d="M63.84,69.64h0a3.79,3.79,0,0,1-.32-5.32l4.47-5A3.78,3.78,0,0,1,73.31,59h0a3.78,3.78,0,0,1,.32,5.32l-4.47,5A3.78,3.78,0,0,1,63.84,69.64Z"/><rect class="cls-2" x="92.75" y="38.02" width="17.41" height="15.04" rx="0.59" ry="0.59" transform="translate(-2.62 6.35) rotate(-3.54)"/><path class="cls-1" d="M129.28,56.13l-7.65-20.36-4.56-1L104.44,48.63,86.62,53.55,81.15,63.78l7.17,10.75L96,77.35l18.77-3.93c3.08-1.39,7.21-5.11,8.71-6.42a12.28,12.28,0,0,0,4.09-7.55,6.89,6.89,0,0,0,0-2.21Z"/><path class="cls-3" d="M64.47,36.08l4.26-.55s.09-.1.26-.26A17.27,17.27,0,0,1,80.28,30.5c3.18-.12,7.5.05,10,1.54a7.3,7.3,0,0,1-.71,4.87l2.5,3.94,32.36,20.26a5,5,0,0,1,2.06,2.53,3.68,3.68,0,0,1-.55,3.7s-.61,1.46-3.19,1.58a4.59,4.59,0,0,1-2.62-.69L92.63,51.47l25.64,16.17a4.61,4.61,0,0,1,2,3.78c0,1.54,0,1.54-1.23,3.18a4.51,4.51,0,0,1-5.39.84L89.37,60.31l21.64,14a4,4,0,0,1,1.77,4,3.74,3.74,0,0,1-.72,1.63s-1.38,3.22-5.87,1.15L83.31,67,100.9,78.12a3.61,3.61,0,0,1,1.66,3,3.83,3.83,0,0,1-1.33,3.34s-2.54,3.21-6.5.17L67.3,65.91,62.55,63s-1.84-1-2.16-5.17a5.78,5.78,0,0,1,0-2.3l-2.78,0Z"/><path class="cls-1" d="M113.42,30.76a42.83,42.83,0,0,0-12.56-3.39h0A16.22,16.22,0,0,0,91.62,31c-1.3,1.05-2.8,2.27-4.3,3.47,0,0-5.36,3.47-5.78,5.47A3.08,3.08,0,0,0,81.2,41a4.64,4.64,0,0,0,7,4.59,28.07,28.07,0,0,0,4.28-3.33L98,38.58s-3.85,3.09,8.56,11.4A31.94,31.94,0,0,1,121,58.35l3.11.78,2.13-4.4L120.1,38A12.9,12.9,0,0,0,113.42,30.76Z"/><path class="cls-1" d="M71.51,73.12h0a3.78,3.78,0,0,1-.31-5.32L73.65,65A3.78,3.78,0,0,1,79,64.72h0A3.78,3.78,0,0,1,79.29,70l-2.45,2.77A3.79,3.79,0,0,1,71.51,73.12Z"/><path class="cls-1" d="M77.05,78.24h0a3.84,3.84,0,0,1-.32-5.4L79.22,70a3.85,3.85,0,0,1,5.41-.33h0A3.85,3.85,0,0,1,85,75.11l-2.49,2.81A3.84,3.84,0,0,1,77.05,78.24Z"/><path class="cls-1" d="M82.81,83.31h0a3.87,3.87,0,0,1-.33-5.44L85,75a3.87,3.87,0,0,1,5.44-.32h0a3.86,3.86,0,0,1,.33,5.44L88.25,83A3.87,3.87,0,0,1,82.81,83.31Z"/><polygon class="cls-4" points="53.4 23.92 47.83 38.9 41.43 56.12 41.41 56.18 0 40.77 0 4.08 53.4 23.92"/><polygon class="cls-5" points="47.83 38.9 41.43 56.12 0 40.73 0 21.13 47.83 38.9"/><rect class="cls-6" x="35.33" y="34.18" width="38.56" height="17.1" rx="3.67" ry="3.67" transform="translate(-4.46 79.04) rotate(-69.62)"/><path class="cls-7" d="M63.05,44.56,57.19,60.34a3.67,3.67,0,0,1-4.71,2.16l-9.16-3.4a3.69,3.69,0,0,1-2.16-4.71L47,38.6Z"/><circle class="cls-8" cx="63.12" cy="30.48" r="2.21"/><polygon class="cls-9" points="185.31 0 185.31 37.55 146.08 54.8 146.06 54.74 138.67 37.92 132.25 23.29 185.31 0"/><polygon class="cls-10" points="185.31 17.45 185.31 37.51 146.06 54.74 138.67 37.92 185.31 17.45"/><rect class="cls-11" x="123.58" y="22.86" width="17.1" height="38.56" rx="3.67" ry="3.67" transform="translate(-5.79 56.66) rotate(-23.7)"/><path class="cls-12" d="M123.81,44.45l6.76,15.42a3.67,3.67,0,0,0,4.83,1.88l8.94-3.92a3.68,3.68,0,0,0,2.19-3.27,3.74,3.74,0,0,0-.3-1.56l-6.77-15.43Z"/><circle class="cls-13" cx="122.93" cy="30.4" r="2.21"/></g></g></svg>