<svg xmlns="http://www.w3.org/2000/svg" viewBox="0 0 84.95 113.29"><defs><style>.cls-1{fill:#0d68a0;}.cls-2{fill:#fafbf2;}.cls-3{fill:#1b75b9;}.cls-4{fill:#fff;}</style></defs><title>Asset 12</title><g id="Layer_2" data-name="Layer 2"><g id="Layer_1-2" data-name="Layer 1"><path class="cls-1" d="M25.22,45.6,3.59,103.79l17.53-8,8,17.52,21.63-58.2Z"/><polygon class="cls-2" points="43.24 70.82 28.99 109.17 21.89 93.68 6.4 100.78 20.65 62.42 22.18 62.99 9.3 97.65 22.7 91.52 28.83 104.92 41.71 70.25 43.24 70.82"/><path class="cls-1" d="M32,56.28l28.78,55L66.56,92.9,85,98.65l-28.78-55Z"/><polygon class="cls-2" points="62.82 59.76 81.79 96.01 65.53 90.92 60.43 107.18 41.47 70.93 42.91 70.17 60.05 102.94 64.46 88.88 78.52 93.28 61.37 60.51 62.82 59.76"/><path class="cls-3" d="M2,40a7.37,7.37,0,0,1,.36,5.73c-.24.68-.47,1.38-.68,2.08-.12.4-.24.8-.35,1.2a7.53,7.53,0,0,0,2.47,7.91c.65.52,1.3,1,2,1.45a7.24,7.24,0,0,1,3.1,5.54c0,.3,0,.59.08.89a7.44,7.44,0,0,0,6.68,6.69l.37,0a7.41,7.41,0,0,1,5.77,3.67l.05.08a7.43,7.43,0,0,0,8.82,3.22l.4-.14a7.32,7.32,0,0,1,6.73,1l.3.21A7.44,7.44,0,0,0,47.33,79l.28-.25A7.3,7.3,0,0,1,54.19,77l.42.09A7.43,7.43,0,0,0,63,72.86l0-.1a7.45,7.45,0,0,1,5.32-4.3l.35-.07A7.46,7.46,0,0,0,74.58,61l0-.79a7.42,7.42,0,0,1,2.51-6c.57-.49,1.14-1,1.7-1.57a7.51,7.51,0,0,0,1.55-8.14c-.49-1.21-1-2.4-1.61-3.57a7.51,7.51,0,0,1-.37-5.86c.43-1.23.81-2.47,1.15-3.74a7.49,7.49,0,0,0-2.57-7.88c-.62-.48-1.25-.93-1.88-1.35a7.43,7.43,0,0,1-3.24-5.6c0-.26-.05-.53-.07-.79A7.45,7.45,0,0,0,65,9.09l-.36,0a7.46,7.46,0,0,1-5.82-3.59l-.05-.09a7.42,7.42,0,0,0-8.84-3.13l-.4.15a7.32,7.32,0,0,1-6.74-.88l-.31-.21a7.44,7.44,0,0,0-9.23.63l-.27.25A7.37,7.37,0,0,1,26.37,4L26,3.89a7.42,7.42,0,0,0-8.33,4.3l0,.09a7.46,7.46,0,0,1-5.27,4.37l-.36.08a7.46,7.46,0,0,0-5.79,7.48c0,.3,0,.6,0,.89A7.31,7.31,0,0,1,3.82,27c-.6.53-1.19,1.09-1.76,1.68A7.54,7.54,0,0,0,.6,36.83c.17.38.33.77.5,1.15C1.4,38.65,1.71,39.31,2,40Z"/><path class="cls-4" d="M44.28,14.05a3.85,3.85,0,0,0,1.45-2.82,3.85,3.85,0,0,0-3.07.79,3.9,3.9,0,0,0-1.45,2.82A3.88,3.88,0,0,0,44.28,14.05Z"/><path class="cls-4" d="M42.92,9.76a3.81,3.81,0,0,0,2.81,1.45,3.87,3.87,0,0,0-3.6-4.51A3.82,3.82,0,0,0,42.92,9.76Z"/><path class="cls-4" d="M35.92,72.67a3.9,3.9,0,0,1-.8-3.07,3.87,3.87,0,0,1,3.61,4.52A3.84,3.84,0,0,1,35.92,72.67Z"/><path class="cls-4" d="M38.19,68.8a3.82,3.82,0,0,1-3.06.79A3.87,3.87,0,0,1,39.64,66,3.85,3.85,0,0,1,38.19,68.8Z"/><path class="cls-4" d="M48.79,15.11a3.85,3.85,0,0,0,1.91-2.53,3.87,3.87,0,0,0-5.07,2.77A3.86,3.86,0,0,0,48.79,15.11Z"/><path class="cls-4" d="M48.18,10.65a3.87,3.87,0,0,0,2.53,1.92,3.88,3.88,0,0,0-2.77-5.08A3.86,3.86,0,0,0,48.18,10.65Z"/><path class="cls-4" d="M30.4,71.41a3.86,3.86,0,0,1-.25-3.16,3.86,3.86,0,0,1,2.52,1.91,3.83,3.83,0,0,1,.25,3.16A3.83,3.83,0,0,1,30.4,71.41Z"/><path class="cls-4" d="M33.31,68a3.86,3.86,0,0,1-3.16.24,3.88,3.88,0,0,1,5.08-2.77A3.87,3.87,0,0,1,33.31,68Z"/><path class="cls-4" d="M53,16.94a3.88,3.88,0,0,0,2.33-2.15,3.88,3.88,0,0,0-5.49,1.84A3.86,3.86,0,0,0,53,16.94Z"/><path class="cls-4" d="M53.22,12.45a3.84,3.84,0,0,0,2.15,2.32,3.87,3.87,0,0,0-1.84-5.48A3.86,3.86,0,0,0,53.22,12.45Z"/><path class="cls-4" d="M25.18,69.2A3.86,3.86,0,0,1,25.49,66a3.88,3.88,0,0,1,2.15,2.33,3.83,3.83,0,0,1-.31,3.15A3.84,3.84,0,0,1,25.18,69.2Z"/><path class="cls-4" d="M28.65,66.34A3.9,3.9,0,0,1,25.49,66,3.88,3.88,0,0,1,31,64.18,3.82,3.82,0,0,1,28.65,66.34Z"/><path class="cls-4" d="M56.91,19.49a3.92,3.92,0,0,0,2.67-1.72,3.88,3.88,0,0,0-3.06-.85,3.84,3.84,0,0,0-2.66,1.72A3.86,3.86,0,0,0,56.91,19.49Z"/><path class="cls-4" d="M57.87,15.1a3.86,3.86,0,0,0,1.71,2.66A3.88,3.88,0,0,0,58.72,12,3.88,3.88,0,0,0,57.87,15.1Z"/><path class="cls-4" d="M20.43,66.11a3.82,3.82,0,0,1,.84-3A3.82,3.82,0,0,1,23,65.72a3.86,3.86,0,0,1-.85,3A3.84,3.84,0,0,1,20.43,66.11Z"/><path class="cls-4" d="M24.34,63.89a3.84,3.84,0,0,1-3.06-.84A3.87,3.87,0,0,1,27,62.18,3.86,3.86,0,0,1,24.34,63.89Z"/><path class="cls-4" d="M60.29,22.67a3.84,3.84,0,0,0,2.92-1.22,3.86,3.86,0,0,0-5.78-.14A3.84,3.84,0,0,0,60.29,22.67Z"/><path class="cls-4" d="M62,18.52a3.85,3.85,0,0,0,1.23,2.92,3.86,3.86,0,0,0,.14-5.78A3.88,3.88,0,0,0,62,18.52Z"/><path class="cls-4" d="M16.27,62.24a3.88,3.88,0,0,1,1.37-2.86,3.86,3.86,0,0,1-.14,5.78A3.88,3.88,0,0,1,16.27,62.24Z"/><path class="cls-4" d="M20.51,60.74a3.88,3.88,0,0,1-2.86-1.37,3.86,3.86,0,0,1,5.78.14A3.88,3.88,0,0,1,20.51,60.74Z"/><path class="cls-4" d="M63.06,26.4a3.84,3.84,0,0,0,3.09-.7,3.88,3.88,0,0,0-5.67-1.14A3.86,3.86,0,0,0,63.06,26.4Z"/><path class="cls-4" d="M65.46,22.6a3.92,3.92,0,0,0,.7,3.1A3.88,3.88,0,0,0,67.31,20,3.91,3.91,0,0,0,65.46,22.6Z"/><path class="cls-4" d="M12.85,57.7a3.9,3.9,0,0,1,1.84-2.58,3.86,3.86,0,0,1-1.14,5.67A3.88,3.88,0,0,1,12.85,57.7Z"/><path class="cls-4" d="M17.28,57a3.85,3.85,0,0,1-2.57-1.84,3.86,3.86,0,0,1,5.67,1.14A3.92,3.92,0,0,1,17.28,57Z"/><path class="cls-4" d="M65.15,30.56a3.88,3.88,0,0,0,3.17-.15,3.88,3.88,0,0,0-2.22-2.27,3.92,3.92,0,0,0-3.17.16A3.86,3.86,0,0,0,65.15,30.56Z"/><path class="cls-4" d="M68.18,27.24a3.86,3.86,0,0,0,.15,3.16A3.87,3.87,0,0,0,70.44,25,3.86,3.86,0,0,0,68.18,27.24Z"/><path class="cls-4" d="M10.27,52.64a3.83,3.83,0,0,1,2.26-2.22,3.87,3.87,0,0,1-2.11,5.38A3.86,3.86,0,0,1,10.27,52.64Z"/><path class="cls-4" d="M14.76,52.67a3.86,3.86,0,0,1-2.22-2.26,3.88,3.88,0,0,1,5.39,2.11A3.88,3.88,0,0,1,14.76,52.67Z"/><ellipse class="cls-4" cx="67.17" cy="33.91" rx="1.3" ry="2.89" transform="translate(3.24 73.6) rotate(-58.62)"/><path class="cls-4" d="M70.05,32.27a3.87,3.87,0,0,0-.4,3.15,3.87,3.87,0,0,0,3-4.94A3.88,3.88,0,0,0,70.05,32.27Z"/><path class="cls-4" d="M8.59,47.2a3.85,3.85,0,0,1,2.62-1.8,3.87,3.87,0,0,1-3,4.94A3.85,3.85,0,0,1,8.59,47.2Z"/><path class="cls-4" d="M13,48a3.85,3.85,0,0,1-1.79-2.61,3.85,3.85,0,0,1,3.14.4,3.9,3.9,0,0,1,1.8,2.61A3.87,3.87,0,0,1,13,48Z"/><path class="cls-4" d="M67.05,39.65a3.85,3.85,0,0,0,3,.93,3.88,3.88,0,0,0-4.34-3.82A3.87,3.87,0,0,0,67.05,39.65Z"/><path class="cls-4" d="M71,37.56a3.84,3.84,0,0,0-.94,3,3.87,3.87,0,0,0,3.82-4.34A3.86,3.86,0,0,0,71,37.56Z"/><path class="cls-4" d="M7.88,41.55a3.86,3.86,0,0,1,2.89-1.32A3.87,3.87,0,0,1,7,44.57,3.84,3.84,0,0,1,7.88,41.55Z"/><path class="cls-4" d="M12.09,43.12a3.89,3.89,0,0,1-1.31-2.89,3.87,3.87,0,0,1,4.34,3.83A3.91,3.91,0,0,1,12.09,43.12Z"/><path class="cls-4" d="M66.79,44.26a3.88,3.88,0,0,0,2.82,1.45,3.85,3.85,0,0,0-.79-3.07A3.9,3.9,0,0,0,66,41.19,3.89,3.89,0,0,0,66.79,44.26Z"/><path class="cls-4" d="M71.07,42.9a3.88,3.88,0,0,0-1.45,2.81,3.87,3.87,0,0,0,4.52-3.61A3.9,3.9,0,0,0,71.07,42.9Z"/><path class="cls-4" d="M8.17,35.89a3.87,3.87,0,0,1,3.07-.79,3.88,3.88,0,0,1-1.46,2.82,3.82,3.82,0,0,1-3.06.79A3.85,3.85,0,0,1,8.17,35.89Z"/><path class="cls-4" d="M12,38.17a3.84,3.84,0,0,1-.79-3.07,3.87,3.87,0,0,1,3.61,4.52A3.83,3.83,0,0,1,12,38.17Z"/><path class="cls-4" d="M65.73,48.77a3.85,3.85,0,0,0,2.53,1.91A3.9,3.9,0,0,0,68,47.52a3.86,3.86,0,0,0-2.52-1.91A3.86,3.86,0,0,0,65.73,48.77Z"/><path class="cls-4" d="M70.19,48.16a3.87,3.87,0,0,0-1.92,2.53,3.86,3.86,0,0,0,3.16-.25,3.9,3.9,0,0,0,1.92-2.52A3.86,3.86,0,0,0,70.19,48.16Z"/><path class="cls-4" d="M9.43,30.38a3.86,3.86,0,0,1,3.16-.25A3.88,3.88,0,0,1,7.51,32.9,3.88,3.88,0,0,1,9.43,30.38Z"/><path class="cls-4" d="M12.85,33.29a3.86,3.86,0,0,1-.25-3.16,3.87,3.87,0,0,1,2.77,5.08A3.87,3.87,0,0,1,12.85,33.29Z"/><path class="cls-4" d="M63.9,53a3.84,3.84,0,0,0,2.15,2.32,3.87,3.87,0,0,0-1.84-5.48A3.86,3.86,0,0,0,63.9,53Z"/><path class="cls-4" d="M68.39,53.2a3.88,3.88,0,0,0-2.33,2.15,3.9,3.9,0,0,0,3.16.31,3.85,3.85,0,0,0,2.32-2.16A3.87,3.87,0,0,0,68.39,53.2Z"/><path class="cls-4" d="M11.64,25.16a3.86,3.86,0,0,1,3.16.31,3.88,3.88,0,0,1-5.49,1.84A3.88,3.88,0,0,1,11.64,25.16Z"/><path class="cls-4" d="M14.5,28.63a3.86,3.86,0,0,1,.31-3.16A3.88,3.88,0,0,1,17,27.8,3.83,3.83,0,0,1,16.65,31,3.84,3.84,0,0,1,14.5,28.63Z"/><path class="cls-4" d="M61.35,56.89a3.86,3.86,0,0,0,1.72,2.67,3.87,3.87,0,0,0-.87-5.72A3.86,3.86,0,0,0,61.35,56.89Z"/><path class="cls-4" d="M65.74,57.85a3.86,3.86,0,0,0-2.66,1.71,3.88,3.88,0,0,0,5.72-.86A3.9,3.9,0,0,0,65.74,57.85Z"/><path class="cls-4" d="M14.73,20.4a3.86,3.86,0,0,1,3.05.85A3.84,3.84,0,0,1,15.12,23a3.88,3.88,0,0,1-3.06-.85A3.92,3.92,0,0,1,14.73,20.4Z"/><path class="cls-4" d="M16.94,24.31a3.87,3.87,0,0,1,.85-3A3.87,3.87,0,0,1,18.66,27,3.9,3.9,0,0,1,16.94,24.31Z"/><path class="cls-4" d="M58.16,60.27a3.88,3.88,0,0,0,1.23,2.92,3.86,3.86,0,0,0,.14-5.78A3.88,3.88,0,0,0,58.16,60.27Z"/><path class="cls-4" d="M62.32,62A3.85,3.85,0,0,0,59.4,63.2a3.88,3.88,0,0,0,5.78.14A3.88,3.88,0,0,0,62.32,62Z"/><path class="cls-4" d="M18.6,16.25a3.88,3.88,0,0,1,2.86,1.37,3.86,3.86,0,0,1-5.78-.14A3.88,3.88,0,0,1,18.6,16.25Z"/><path class="cls-4" d="M20.1,20.49a3.88,3.88,0,0,1,1.37-2.86,3.88,3.88,0,0,1-.14,5.78A3.85,3.85,0,0,1,20.1,20.49Z"/><path class="cls-4" d="M54.44,63a3.84,3.84,0,0,0,.7,3.09,3.88,3.88,0,0,0,1.14-5.67A3.84,3.84,0,0,0,54.44,63Z"/><path class="cls-4" d="M58.23,65.44a3.9,3.9,0,0,0-3.09.7,3.86,3.86,0,0,0,5.67,1.14A3.87,3.87,0,0,0,58.23,65.44Z"/><path class="cls-4" d="M23.14,12.83a3.89,3.89,0,0,1,2.58,1.84,3.88,3.88,0,0,1-3.1.7,3.82,3.82,0,0,1-2.57-1.84A3.84,3.84,0,0,1,23.14,12.83Z"/><path class="cls-4" d="M23.88,17.26a3.89,3.89,0,0,1,1.84-2.58,3.88,3.88,0,0,1,.7,3.1,3.82,3.82,0,0,1-1.84,2.57A3.84,3.84,0,0,1,23.88,17.26Z"/><path class="cls-4" d="M50.28,65.13a3.88,3.88,0,0,0,.15,3.17,3.88,3.88,0,0,0,2.11-5.39A3.86,3.86,0,0,0,50.28,65.13Z"/><path class="cls-4" d="M53.6,68.16a3.86,3.86,0,0,0-3.16.15,3.87,3.87,0,0,0,5.38,2.11A3.86,3.86,0,0,0,53.6,68.16Z"/><path class="cls-4" d="M28.2,10.25a3.84,3.84,0,0,1,2.22,2.26A3.87,3.87,0,0,1,25,10.4,3.86,3.86,0,0,1,28.2,10.25Z"/><path class="cls-4" d="M28.17,14.74a3.84,3.84,0,0,1,2.26-2.22,3.87,3.87,0,0,1-2.11,5.38A3.86,3.86,0,0,1,28.17,14.74Z"/><path class="cls-4" d="M45.82,66.48a3.85,3.85,0,0,0-.4,3.14,3.87,3.87,0,0,0,3-4.94A3.84,3.84,0,0,0,45.82,66.48Z"/><path class="cls-4" d="M48.57,70a3.87,3.87,0,0,0-3.15-.4,3.88,3.88,0,0,0,4.94,3A3.88,3.88,0,0,0,48.57,70Z"/><path class="cls-4" d="M33.64,8.57a3.92,3.92,0,0,1,1.8,2.62,3.87,3.87,0,0,1-4.94-3A3.85,3.85,0,0,1,33.64,8.57Z"/><path class="cls-4" d="M32.83,13a3.83,3.83,0,0,1,2.61-1.79,3.85,3.85,0,0,1-.4,3.14,3.9,3.9,0,0,1-2.61,1.8A3.87,3.87,0,0,1,32.83,13Z"/><path class="cls-4" d="M41.19,67a3.9,3.9,0,0,0-.94,3,3.88,3.88,0,0,0,3.83-4.34A3.85,3.85,0,0,0,41.19,67Z"/><path class="cls-4" d="M43.28,71a3.86,3.86,0,0,0-3-.94,3.88,3.88,0,0,0,4.34,3.82A3.85,3.85,0,0,0,43.28,71Z"/><path class="cls-4" d="M39.29,7.86a3.85,3.85,0,0,1,1.31,2.89,3.88,3.88,0,0,1-4.34-3.83A3.9,3.9,0,0,1,39.29,7.86Z"/><path class="cls-4" d="M37.72,12.07a3.88,3.88,0,0,1,2.88-1.31,3.86,3.86,0,0,1-3.82,4.34A3.87,3.87,0,0,1,37.72,12.07Z"/><path class="cls-4" d="M30.68,32.37a16.83,16.83,0,0,0,7.06-5.26h7.17l0,22.81h3.75v5.36l-16.11,0V49.9h4l0-14.95-4,1.89Z"/></g></g></svg>