<svg xmlns="http://www.w3.org/2000/svg" viewBox="0 0 111.55 148.77"><defs><style>.cls-1{fill:#dd7f19;}.cls-2{fill:#fafbf2;}.cls-3{fill:#f79a23;}.cls-4{fill:#fff;}</style></defs><title>Asset 11</title><g id="Layer_2" data-name="Layer 2"><g id="Layer_1-2" data-name="Layer 1"><path class="cls-1" d="M33.11,59.88,4.72,136.29l23-10.52,10.54,23L66.66,72.35Z"/><polygon class="cls-2" points="56.78 92.99 38.07 143.36 28.75 123.02 8.41 132.33 27.12 81.97 29.12 82.72 12.21 128.23 29.8 120.18 37.85 137.77 54.77 92.25 56.78 92.99"/><path class="cls-1" d="M42.05,73.9l37.78,72.23L87.41,122l24.14,7.56L73.76,57.31Z"/><polygon class="cls-2" points="82.5 78.47 107.4 126.08 86.05 119.4 79.36 140.74 54.45 93.14 56.35 92.15 78.86 135.17 84.64 116.71 103.11 122.5 80.59 79.46 82.5 78.47"/><path class="cls-3" d="M2.68,52.47A9.73,9.73,0,0,1,3.15,60c-.31.91-.61,1.82-.89,2.73-.16.53-.31,1.06-.46,1.59A9.91,9.91,0,0,0,5,74.7c.85.68,1.71,1.31,2.57,1.89a9.57,9.57,0,0,1,4.08,7.28c0,.39.06.78.1,1.17a9.78,9.78,0,0,0,8.77,8.79l.48,0a9.8,9.8,0,0,1,7.59,4.82l.07.11A9.73,9.73,0,0,0,40.27,103l.53-.18a9.65,9.65,0,0,1,8.84,1.24l.39.28a9.78,9.78,0,0,0,12.13-.7l.36-.33a9.64,9.64,0,0,1,8.64-2.26l.55.12a9.72,9.72,0,0,0,11-5.53l.06-.12a9.75,9.75,0,0,1,7-5.65l.47-.1a9.76,9.76,0,0,0,7.71-9.74l0-1a9.72,9.72,0,0,1,3.29-7.84c.76-.65,1.5-1.34,2.23-2.07a9.84,9.84,0,0,0,2-10.69q-1-2.38-2.12-4.68a9.91,9.91,0,0,1-.48-7.7c.56-1.61,1.07-3.25,1.51-4.91A9.86,9.86,0,0,0,101,30.79c-.82-.63-1.64-1.22-2.48-1.76a9.76,9.76,0,0,1-4.25-7.37c0-.34-.06-.68-.1-1a9.77,9.77,0,0,0-8.87-8.69l-.48,0a9.77,9.77,0,0,1-7.64-4.72l-.07-.12A9.75,9.75,0,0,0,65.5,3L65,3.15A9.63,9.63,0,0,1,56.12,2l-.41-.28a9.77,9.77,0,0,0-12.11.82l-.36.33a9.6,9.6,0,0,1-8.61,2.35l-.55-.11a9.74,9.74,0,0,0-10.95,5.65l-.05.12a9.79,9.79,0,0,1-6.92,5.73l-.47.11a9.77,9.77,0,0,0-7.6,9.82c0,.39,0,.78.05,1.17A9.55,9.55,0,0,1,5,35.45c-.78.69-1.55,1.42-2.31,2.2A9.89,9.89,0,0,0,.79,48.36c.22.51.43,1,.66,1.52C1.84,50.75,2.25,51.62,2.68,52.47Z"/><path class="cls-4" d="M58.15,18.44a5.08,5.08,0,0,0,1.91-3.7,5.09,5.09,0,0,0-5.94,4.74A5,5,0,0,0,58.15,18.44Z"/><path class="cls-4" d="M56.36,12.82a5.08,5.08,0,0,0,3.7,1.91,5.09,5.09,0,0,0-4.74-5.94A5,5,0,0,0,56.36,12.82Z"/><path class="cls-4" d="M47.16,95.43a5.1,5.1,0,0,1-1-4,5.08,5.08,0,0,1,4.74,5.93A5.07,5.07,0,0,1,47.16,95.43Z"/><path class="cls-4" d="M50.16,90.34a5,5,0,0,1-4,1,5.08,5.08,0,0,1,5.93-4.74A5.11,5.11,0,0,1,50.16,90.34Z"/><path class="cls-4" d="M64.06,19.84a5.08,5.08,0,0,0,2.52-3.32,5.1,5.1,0,0,0-6.67,3.64A5.09,5.09,0,0,0,64.06,19.84Z"/><path class="cls-4" d="M63.27,14a5.11,5.11,0,0,0,3.32,2.52A5.1,5.1,0,0,0,63,9.84,5.09,5.09,0,0,0,63.27,14Z"/><path class="cls-4" d="M39.92,93.77a5.06,5.06,0,0,1-.33-4.15,5.08,5.08,0,0,1,3.64,6.67A5.1,5.1,0,0,1,39.92,93.77Z"/><path class="cls-4" d="M43.75,89.28a5.09,5.09,0,0,1-4.15.32A5.08,5.08,0,0,1,46.27,86,5.1,5.1,0,0,1,43.75,89.28Z"/><path class="cls-4" d="M69.65,22.24a5.08,5.08,0,0,0,3-2.82,5.06,5.06,0,0,0-7.19,2.42A5.08,5.08,0,0,0,69.65,22.24Z"/><path class="cls-4" d="M69.89,16.35a5,5,0,0,0,2.82,3,5.1,5.1,0,0,0-2.42-7.2A5,5,0,0,0,69.89,16.35Z"/><path class="cls-4" d="M33.07,90.87a5.11,5.11,0,0,1,.4-4.15,5.06,5.06,0,0,1,2.82,3.06,5,5,0,0,1-.4,4.14A5.08,5.08,0,0,1,33.07,90.87Z"/><path class="cls-4" d="M37.62,87.11a5.08,5.08,0,0,1-4.14-.4,5.08,5.08,0,0,1,7.19-2.43A5.06,5.06,0,0,1,37.62,87.11Z"/><path class="cls-4" d="M74.73,25.59a5.07,5.07,0,0,0,3.5-2.25,5.08,5.08,0,0,0-7.51,1.13A5,5,0,0,0,74.73,25.59Z"/><path class="cls-4" d="M76,19.82a5.07,5.07,0,0,0,2.25,3.5,5.08,5.08,0,0,0-1.13-7.51A5,5,0,0,0,76,19.82Z"/><path class="cls-4" d="M26.82,86.81a5.08,5.08,0,0,1,1.12-4,5.11,5.11,0,0,1,2.25,3.5,5,5,0,0,1-1.12,4A5.07,5.07,0,0,1,26.82,86.81Z"/><path class="cls-4" d="M32,83.9a5.05,5.05,0,0,1-4-1.11,5.09,5.09,0,0,1,7.51-1.14A5.08,5.08,0,0,1,32,83.9Z"/><path class="cls-4" d="M79.17,29.77A5,5,0,0,0,83,28.16,5.09,5.09,0,0,0,75.41,28,5.05,5.05,0,0,0,79.17,29.77Z"/><path class="cls-4" d="M81.41,24.31A5,5,0,0,0,83,28.15a5.09,5.09,0,0,0,.18-7.59A5,5,0,0,0,81.41,24.31Z"/><path class="cls-4" d="M21.37,81.73A5.12,5.12,0,0,1,23.16,78a5.1,5.1,0,0,1-.18,7.6A5.08,5.08,0,0,1,21.37,81.73Z"/><path class="cls-4" d="M26.93,79.76A5.06,5.06,0,0,1,23.18,78a5.08,5.08,0,0,1,7.59.19A5.11,5.11,0,0,1,26.93,79.76Z"/><path class="cls-4" d="M82.81,34.67a5.07,5.07,0,0,0,4.06-.92,5.09,5.09,0,0,0-7.45-1.5A5.09,5.09,0,0,0,82.81,34.67Z"/><path class="cls-4" d="M86,29.68a5.11,5.11,0,0,0,.92,4.06,5.08,5.08,0,0,0,1.5-7.44A5,5,0,0,0,86,29.68Z"/><path class="cls-4" d="M16.88,75.77a5.09,5.09,0,0,1,2.42-3.39,5.09,5.09,0,0,1-1.5,7.45A5.07,5.07,0,0,1,16.88,75.77Z"/><path class="cls-4" d="M22.7,74.79a5.06,5.06,0,0,1-3.39-2.42,5.09,5.09,0,0,1,7.45,1.5A5.07,5.07,0,0,1,22.7,74.79Z"/><path class="cls-4" d="M85.56,40.13a5.07,5.07,0,0,0,4.15-.2,5.08,5.08,0,0,0-7.07-2.77A5.09,5.09,0,0,0,85.56,40.13Z"/><path class="cls-4" d="M89.53,35.76a5.09,5.09,0,0,0,.2,4.16,5.08,5.08,0,0,0,2.77-7.07A5.1,5.1,0,0,0,89.53,35.76Z"/><path class="cls-4" d="M13.48,69.12a5.09,5.09,0,0,1,3-2.92,5.1,5.1,0,0,1-2.77,7.08A5.1,5.1,0,0,1,13.48,69.12Z"/><path class="cls-4" d="M19.38,69.17a5.07,5.07,0,0,1-2.91-3A5.09,5.09,0,0,1,23.54,69,5.09,5.09,0,0,1,19.38,69.17Z"/><ellipse class="cls-4" cx="88.21" cy="44.53" rx="1.7" ry="3.8" transform="translate(4.25 96.64) rotate(-58.62)"/><path class="cls-4" d="M92,42.38a5.09,5.09,0,0,0-.53,4.13,5.09,5.09,0,0,0,4-6.49A5.05,5.05,0,0,0,92,42.38Z"/><path class="cls-4" d="M11.28,62a5.09,5.09,0,0,1,3.44-2.36,5.09,5.09,0,0,1-.53,4.13,5,5,0,0,1-3.43,2.35A5.06,5.06,0,0,1,11.28,62Z"/><path class="cls-4" d="M17.09,63.05a5.09,5.09,0,0,1-2.36-3.43,5,5,0,0,1,4.13.52,5.1,5.1,0,0,1,2.36,3.43A5.09,5.09,0,0,1,17.09,63.05Z"/><path class="cls-4" d="M88.05,52.06a5,5,0,0,0,4,1.23,5.08,5.08,0,0,0-5.7-5A5.07,5.07,0,0,0,88.05,52.06Z"/><path class="cls-4" d="M93.27,49.32a5,5,0,0,0-1.23,4,5.08,5.08,0,0,0,5-5.7A5.07,5.07,0,0,0,93.27,49.32Z"/><path class="cls-4" d="M10.35,54.56a5.07,5.07,0,0,1,3.79-1.73,5.08,5.08,0,0,1-5,5.7A5,5,0,0,1,10.35,54.56Z"/><path class="cls-4" d="M15.88,56.62a5.09,5.09,0,0,1-1.72-3.79,5.11,5.11,0,0,1,5.7,5A5.06,5.06,0,0,1,15.88,56.62Z"/><path class="cls-4" d="M87.71,58.12A5.08,5.08,0,0,0,91.41,60a5.09,5.09,0,0,0-4.74-5.94A5.1,5.1,0,0,0,87.71,58.12Z"/><path class="cls-4" d="M93.33,56.33a5,5,0,0,0-1.9,3.7,5.08,5.08,0,0,0,5.93-4.74A5.06,5.06,0,0,0,93.33,56.33Z"/><path class="cls-4" d="M10.72,47.14a5,5,0,0,1,4-1,5.08,5.08,0,0,1-5.93,4.74A5.07,5.07,0,0,1,10.72,47.14Z"/><path class="cls-4" d="M15.81,50.13a5.1,5.1,0,0,1-1-4,5,5,0,0,1,3.7,1.9,5.1,5.1,0,0,1,1,4A5,5,0,0,1,15.81,50.13Z"/><path class="cls-4" d="M86.32,64a5,5,0,0,0,3.31,2.51A5.08,5.08,0,0,0,86,59.89,5.06,5.06,0,0,0,86.32,64Z"/><path class="cls-4" d="M92.16,63.25a5,5,0,0,0-2.51,3.31,5.07,5.07,0,0,0,6.66-3.64A5.06,5.06,0,0,0,92.16,63.25Z"/><path class="cls-4" d="M12.38,39.89a5.09,5.09,0,0,1,4.15-.32A5.07,5.07,0,0,1,9.87,43.2,5,5,0,0,1,12.38,39.89Z"/><path class="cls-4" d="M16.87,43.72a5.09,5.09,0,0,1-.32-4.15,5.1,5.1,0,0,1,3.64,6.67A5.08,5.08,0,0,1,16.87,43.72Z"/><path class="cls-4" d="M83.91,69.62a5.08,5.08,0,0,0,2.83,3.06,5.08,5.08,0,0,0-2.43-7.2A5.09,5.09,0,0,0,83.91,69.62Z"/><path class="cls-4" d="M89.81,69.86a5.09,5.09,0,0,0-3.06,2.82,5.05,5.05,0,0,0,4.14.41A5.11,5.11,0,0,0,94,70.26,5.09,5.09,0,0,0,89.81,69.86Z"/><path class="cls-4" d="M15.29,33a5.09,5.09,0,0,1,4.14.4,5.09,5.09,0,0,1-7.2,2.43A5.08,5.08,0,0,1,15.29,33Z"/><path class="cls-4" d="M19,37.59a5.09,5.09,0,0,1,.4-4.14,5.08,5.08,0,0,1,2.43,7.2A5.08,5.08,0,0,1,19,37.59Z"/><path class="cls-4" d="M80.56,74.71a5.09,5.09,0,0,0,2.26,3.5,5.09,5.09,0,0,0-1.14-7.51A5.1,5.1,0,0,0,80.56,74.71Z"/><path class="cls-4" d="M86.33,76a5.07,5.07,0,0,0-3.5,2.26,5.09,5.09,0,0,0,7.51-1.14A5.12,5.12,0,0,0,86.33,76Z"/><path class="cls-4" d="M19.34,26.79a5.12,5.12,0,0,1,4,1.12,5.09,5.09,0,0,1-7.51,1.14A5.09,5.09,0,0,1,19.34,26.79Z"/><path class="cls-4" d="M22.25,31.93a5.08,5.08,0,0,1,1.11-4,5.07,5.07,0,0,1,2.26,3.5,5.12,5.12,0,0,1-1.12,4A5.11,5.11,0,0,1,22.25,31.93Z"/><path class="cls-4" d="M76.38,79.14A5.08,5.08,0,0,0,78,83a5.1,5.1,0,0,0,.18-7.6A5.12,5.12,0,0,0,76.38,79.14Z"/><path class="cls-4" d="M81.84,81.38A5.08,5.08,0,0,0,78,83a5.09,5.09,0,0,0,7.59.18A5,5,0,0,0,81.84,81.38Z"/><path class="cls-4" d="M24.42,21.34a5.1,5.1,0,0,1,3.76,1.8,5.11,5.11,0,0,1-3.84,1.61A5.06,5.06,0,0,1,20.59,23,5.08,5.08,0,0,1,24.42,21.34Z"/><path class="cls-4" d="M26.4,26.9a5,5,0,0,1,1.79-3.75A5.09,5.09,0,0,1,28,30.74,5.06,5.06,0,0,1,26.4,26.9Z"/><path class="cls-4" d="M71.48,82.78a5.07,5.07,0,0,0,.92,4.06,5.08,5.08,0,0,0,1.5-7.44A5,5,0,0,0,71.48,82.78Z"/><path class="cls-4" d="M76.47,85.94a5.07,5.07,0,0,0-4.06.92,5.09,5.09,0,0,0,7.45,1.5A5.06,5.06,0,0,0,76.47,85.94Z"/><path class="cls-4" d="M30.38,16.85a5.09,5.09,0,0,1,3.39,2.42,5.09,5.09,0,0,1-7.45-1.5A5.07,5.07,0,0,1,30.38,16.85Z"/><path class="cls-4" d="M31.36,22.67a5.09,5.09,0,0,1,2.42-3.39,5.09,5.09,0,0,1-1.5,7.45A5.07,5.07,0,0,1,31.36,22.67Z"/><path class="cls-4" d="M66,85.53a5.1,5.1,0,0,0,.2,4.16A5.1,5.1,0,0,0,69,82.61,5.09,5.09,0,0,0,66,85.53Z"/><path class="cls-4" d="M70.39,89.5a5.09,5.09,0,0,0-4.16.2,5.09,5.09,0,0,0,7.07,2.77A5.07,5.07,0,0,0,70.39,89.5Z"/><path class="cls-4" d="M37,13.45a5.09,5.09,0,0,1,2.92,3,5.06,5.06,0,0,1-7.07-2.77A5.07,5.07,0,0,1,37,13.45Z"/><path class="cls-4" d="M37,19.35a5.07,5.07,0,0,1,3-2.91,5.08,5.08,0,0,1-2.77,7.07A5.06,5.06,0,0,1,37,19.35Z"/><path class="cls-4" d="M60.17,87.29a5.09,5.09,0,0,0-.53,4.13,5.09,5.09,0,0,0,4-6.48A5,5,0,0,0,60.17,87.29Z"/><path class="cls-4" d="M63.78,92a5,5,0,0,0-4.13-.52,5.07,5.07,0,0,0,6.48,4A5.08,5.08,0,0,0,63.78,92Z"/><path class="cls-4" d="M44.18,11.26a5,5,0,0,1,2.35,3.43,5.09,5.09,0,0,1-4.13-.53,5,5,0,0,1-2.35-3.43A5.09,5.09,0,0,1,44.18,11.26Z"/><path class="cls-4" d="M43.11,17.06a5.08,5.08,0,0,1,3.43-2.36,5.1,5.1,0,0,1-4,6.49A5.05,5.05,0,0,1,43.11,17.06Z"/><path class="cls-4" d="M54.09,88a5,5,0,0,0-1.23,4,5.08,5.08,0,0,0,5-5.69A5.06,5.06,0,0,0,54.09,88Z"/><path class="cls-4" d="M56.84,93.24a5.11,5.11,0,0,0-4-1.23,5.08,5.08,0,0,0,5.7,5A5.09,5.09,0,0,0,56.84,93.24Z"/><path class="cls-4" d="M51.6,10.33a5.06,5.06,0,0,1,1.72,3.78,5.08,5.08,0,0,1-5.7-5A5.12,5.12,0,0,1,51.6,10.33Z"/><path class="cls-4" d="M49.53,15.85a5.09,5.09,0,0,1,3.79-1.72,5.08,5.08,0,0,1-5,5.7A5.08,5.08,0,0,1,49.53,15.85Z"/><path class="cls-4" d="M40.28,42.51c3-1.48,5.41-2.32,9.28-6.91l9.41,0-.06,29.94h4.92v7l-21.16,0v-7H48l0-19.63-5.29,2.48Z"/></g></g></svg>