<svg xmlns="http://www.w3.org/2000/svg" viewBox="0 0 289.43 205.23"><defs><style>.cls-1{fill:#e0e0e0;}.cls-2,.cls-6{fill:#fff;}.cls-3{fill:#f69924;}.cls-17,.cls-4,.cls-7{fill:#010101;}.cls-5{fill:none;stroke:#010101;}.cls-5,.cls-6{stroke-miterlimit:10;}.cls-6{stroke:#f69924;stroke-width:2px;}.cls-7{font-size:10.07px;}.cls-17,.cls-7{font-family:ProximaNova-Bold, Proxima Nova;}.cls-16,.cls-17,.cls-7{font-weight:700;}.cls-8{letter-spacing:-0.1em;}.cls-9{letter-spacing:0em;}.cls-10{letter-spacing:-0.13em;}.cls-11{letter-spacing:-0.02em;}.cls-12{fill:#85bd41;}.cls-13{fill:#0297a7;}.cls-14{fill:#ef5451;}.cls-15{fill:#57c1ef;}.cls-16{font-size:6.3px;fill:#f2f2f2;font-family:ProximaNova-Semibold, Proxima Nova;}.cls-17{font-size:9.63px;}</style></defs><title>Asset 51</title><g id="Layer_2" data-name="Layer 2"><g id="Layer_1-2" data-name="Layer 1"><rect class="cls-1" x="125.76" y="36.4" width="151.27" height="106.35" transform="translate(35.78 -55.87) rotate(17.31)"/><rect class="cls-2" x="124.67" y="36.4" width="151.27" height="106.35" transform="translate(28.25 -46.6) rotate(14.27)"/><path class="cls-3" d="M261.18,160.88,112.77,123.14,139.44,18.27,287.85,56ZM115,121.8l144.8,36.82L285.59,57.36,140.79,20.53Z"/><path class="cls-4" d="M173.45,48.22l1.3-5,3.52.92-.24.93-2.46-.64-.28,1,2.41.63-.25.93-2.4-.63-.54,2.06Z"/><path class="cls-4" d="M180.81,50.14l-.08-.92-2.13-.56-.54.76-1.2-.31,3.22-4.47,1.32.35.62,5.47Zm-.35-4.27-1.33,1.94,1.55.4Z"/><path class="cls-4" d="M182.48,50.58l1.3-5,1.06.28-1.3,5Z"/><path class="cls-4" d="M184.52,51.11l1.3-5,1.06.28-1.06,4,2.1.55-.24.93Z"/><path class="cls-4" d="M190.17,51.84l.78-.65a2.29,2.29,0,0,0,1.41,1.08c.58.15.93,0,1-.33.22-.87-2.79-1-2.3-2.89a1.71,1.71,0,0,1,2.27-1,2.86,2.86,0,0,1,1.76,1.2l-.79.62a2.18,2.18,0,0,0-1.3-.92c-.46-.12-.76,0-.84.32-.21.78,2.78,1,2.3,2.86-.24.9-1.07,1.42-2.41,1.07A2.93,2.93,0,0,1,190.17,51.84Z"/><path class="cls-4" d="M195.84,54.07l1.06-4-1.46-.38.25-.94,4,1-.24.93L198,50.31l-1.05,4Z"/><path class="cls-4" d="M199.55,52.92l.78-3,1.07.28-.77,3a1.2,1.2,0,1,0,2.33.61l.77-3,1.08.28-.78,3a2.32,2.32,0,0,1-4.48-1.17Z"/><path class="cls-4" d="M204.49,56.33l1.29-5,2,.52a2.57,2.57,0,1,1-1.29,5Zm4.16-1.56a1.5,1.5,0,0,0-1.15-2l-.9-.24-.81,3.11.9.24A1.55,1.55,0,0,0,208.65,54.77Z"/><path class="cls-4" d="M209.83,57.73l1.3-5,3.52.92-.25.93L212,54,211.67,55l2.41.63-.25.93-2.4-.63-.3,1.13,2.46.64-.24.93Z"/><path class="cls-4" d="M217.6,59.76l-1.52-3.86-.85,3.24-1.06-.27,1.3-5,1.09.28,1.49,3.73.81-3.13,1.06.28-1.3,5Z"/><path class="cls-4" d="M220.75,60.59l1.06-4-1.46-.38.25-.93,4,1-.24.94-1.45-.38-1.05,4Z"/><path class="cls-4" d="M225.84,61.92l1.3-5,1.06.28-1,4,2.1.55-.25.93Z"/><path class="cls-4" d="M229.74,62.94l1.3-5,1.06.27-1.3,5Z"/><path class="cls-4" d="M231.63,62.68l.78-.65a2.29,2.29,0,0,0,1.41,1.08c.58.15.93,0,1-.32.23-.88-2.78-1-2.3-2.9a1.73,1.73,0,0,1,2.28-1,2.88,2.88,0,0,1,1.76,1.2l-.79.62a2.25,2.25,0,0,0-1.31-.92c-.45-.12-.76,0-.83.32-.21.78,2.78,1,2.3,2.86-.24.9-1.07,1.42-2.41,1.07A2.93,2.93,0,0,1,231.63,62.68Z"/><path class="cls-4" d="M237.3,64.91l1-4-1.45-.38.25-.94,4,1-.25.93-1.44-.38-1.06,4Z"/><rect class="cls-5" x="129.73" y="65.51" width="137.16" height="63.87" transform="translate(30.13 -45.87) rotate(14.27)"/><line class="cls-5" x1="136.58" y1="61.94" x2="269.5" y2="95.74"/><line class="cls-5" x1="134.51" y1="70.07" x2="267.44" y2="103.88"/><line class="cls-5" x1="132.44" y1="78.21" x2="265.37" y2="112.01"/><line class="cls-5" x1="130.37" y1="86.34" x2="263.3" y2="120.14"/><line class="cls-5" x1="128.3" y1="94.47" x2="261.23" y2="128.28"/><line class="cls-5" x1="126.24" y1="102.61" x2="259.16" y2="136.41"/><line class="cls-5" x1="149.22" y1="52.01" x2="133.48" y2="113.91"/><line class="cls-5" x1="165.72" y1="56.21" x2="149.98" y2="118.11"/><line class="cls-5" x1="199.11" y1="64.7" x2="183.37" y2="126.6"/><line class="cls-5" x1="216.1" y1="69.02" x2="200.36" y2="130.92"/><line class="cls-5" x1="227.62" y1="71.95" x2="211.88" y2="133.85"/><line class="cls-5" x1="242.61" y1="75.76" x2="226.87" y2="137.66"/><line class="cls-5" x1="140.92" y1="56.75" x2="144.76" y2="57.73"/><line class="cls-5" x1="138.29" y1="67.11" x2="142.13" y2="68.08"/><line class="cls-5" x1="136.34" y1="74.79" x2="140.18" y2="75.76"/><line class="cls-5" x1="134.11" y1="83.52" x2="137.96" y2="84.5"/><line class="cls-5" x1="132.33" y1="90.53" x2="136.17" y2="91.5"/><line class="cls-5" x1="130.11" y1="99.26" x2="133.95" y2="100.24"/><line class="cls-5" x1="127.81" y1="108.3" x2="131.65" y2="109.28"/><line class="cls-5" x1="150.52" y1="59.19" x2="161.82" y2="62.07"/><line class="cls-5" x1="173.34" y1="65" x2="184.64" y2="67.87"/><line class="cls-5" x1="200.32" y1="71.86" x2="211.62" y2="74.73"/><line class="cls-5" x1="197.78" y1="81.83" x2="209.08" y2="84.71"/><line class="cls-5" x1="195.72" y1="89.97" x2="207.01" y2="92.84"/><line class="cls-5" x1="193.65" y1="98.1" x2="204.94" y2="100.97"/><line class="cls-5" x1="191.58" y1="106.23" x2="202.88" y2="109.11"/><line class="cls-5" x1="189.51" y1="114.37" x2="200.81" y2="117.24"/><line class="cls-5" x1="187.44" y1="122.5" x2="198.74" y2="125.37"/><line class="cls-5" x1="217.27" y1="76.17" x2="222.91" y2="77.6"/><line class="cls-5" x1="214.73" y1="86.14" x2="220.38" y2="87.58"/><line class="cls-5" x1="212.66" y1="94.28" x2="218.31" y2="95.71"/><line class="cls-5" x1="210.59" y1="102.41" x2="216.24" y2="103.85"/><line class="cls-5" x1="208.52" y1="110.54" x2="214.17" y2="111.98"/><line class="cls-5" x1="206.46" y1="118.68" x2="212.1" y2="120.11"/><line class="cls-5" x1="204.39" y1="126.81" x2="210.04" y2="128.25"/><line class="cls-5" x1="229.12" y1="79.18" x2="238.26" y2="81.5"/><line class="cls-5" x1="226.58" y1="89.16" x2="235.72" y2="91.48"/><line class="cls-5" x1="224.51" y1="97.29" x2="233.65" y2="99.62"/><line class="cls-5" x1="222.45" y1="105.42" x2="231.59" y2="107.75"/><line class="cls-5" x1="220.38" y1="113.56" x2="229.52" y2="115.88"/><line class="cls-5" x1="218.31" y1="121.69" x2="227.45" y2="124.02"/><line class="cls-5" x1="216.24" y1="129.82" x2="225.38" y2="132.15"/><line class="cls-5" x1="167.66" y1="74.58" x2="185.06" y2="79"/><line class="cls-5" x1="168.74" y1="83.11" x2="180.03" y2="85.98"/><line class="cls-5" x1="164.96" y1="90.73" x2="180.32" y2="94.63"/><line class="cls-5" x1="158.95" y1="97.94" x2="181.55" y2="103.68"/><line class="cls-5" x1="161.29" y1="107.19" x2="175.07" y2="110.7"/><line class="cls-5" x1="157.41" y1="114.87" x2="174.81" y2="119.29"/><line class="cls-5" x1="250.27" y1="84.56" x2="261.57" y2="87.43"/><line class="cls-5" x1="244.59" y1="94.14" x2="261.99" y2="98.56"/><line class="cls-5" x1="245.67" y1="102.67" x2="256.96" y2="105.54"/><line class="cls-5" x1="241.89" y1="110.29" x2="257.25" y2="114.19"/><line class="cls-5" x1="235.88" y1="117.5" x2="258.48" y2="123.25"/><line class="cls-5" x1="238.22" y1="126.75" x2="252" y2="130.26"/><line class="cls-5" x1="234.35" y1="134.43" x2="251.74" y2="138.85"/><line class="cls-5" x1="147.99" y1="69.17" x2="159.28" y2="72.04"/><line class="cls-5" x1="145.92" y1="77.3" x2="157.22" y2="80.18"/><line class="cls-5" x1="143.85" y1="85.44" x2="155.15" y2="88.31"/><line class="cls-5" x1="141.78" y1="93.57" x2="153.08" y2="96.44"/><line class="cls-5" x1="139.71" y1="101.71" x2="151.01" y2="104.58"/><line class="cls-5" x1="137.65" y1="109.84" x2="148.94" y2="112.71"/><rect class="cls-1" x="9.34" y="12.28" width="162.86" height="114.49" transform="translate(-5.3 7.53) rotate(-4.62)"/><rect class="cls-2" x="7.16" y="10.11" width="162.86" height="114.49" transform="translate(-7.17 10.65) rotate(-6.61)"/><path class="cls-3" d="M177.19,115.73l-163.77,19L0,19,163.77,0Zm-162,16.76L175,114,162,2.23,2.23,20.75Z"/><path class="cls-4" d="M42,33.88l-.57-4.94-1.78.21L39.52,28l4.85-.56.13,1.14-1.77.2.57,4.94Z"/><path class="cls-4" d="M49.51,33,49,32l-2.61.3-.26,1.07-1.48.17,1.65-6.35L47.94,27,51,32.84Zm-2.23-4.59-.64,2.73,1.89-.22Z"/><path class="cls-4" d="M51.56,32.78l-.71-6.08,3.2-.37A1.57,1.57,0,0,1,56,27.67a1.37,1.37,0,0,1-.89,1.52,1.47,1.47,0,0,1,1.34,1.36,1.6,1.6,0,0,1-1.57,1.84Zm3.13-4.73a.67.67,0,0,0-.79-.58l-1.62.19L52.43,29l1.62-.19A.65.65,0,0,0,54.69,28.05Zm.4,2.47a.71.71,0,0,0-.86-.62l-1.67.19.16,1.42,1.67-.2C54.88,31.25,55.14,31,55.09,30.52Z"/><path class="cls-4" d="M57.32,29.65,56.9,26l1.31-.16.42,3.61a1.43,1.43,0,1,0,2.85-.33l-.42-3.61,1.32-.15L62.81,29c.17,1.51-.6,2.64-2.45,2.86S57.49,31.15,57.32,29.65Z"/><path class="cls-4" d="M64.29,31.3l-.71-6.08,1.3-.15L65.45,30l2.57-.3.13,1.14Z"/><path class="cls-4" d="M73.25,30.26l-.5-1-2.6.31-.27,1.07-1.47.17,1.65-6.35,1.62-.19,3,5.81ZM71,25.67l-.65,2.73,1.9-.22Z"/><path class="cls-4" d="M76.11,29.93,75.54,25l-1.78.2-.13-1.13,4.85-.57.13,1.14-1.77.21.58,4.94Z"/><path class="cls-4" d="M80,29.48l-.71-6.08,1.3-.15.7,6.08Z"/><path class="cls-4" d="M81.87,26.19A3.2,3.2,0,1,1,85.41,29,3.08,3.08,0,0,1,81.87,26.19Zm5-.59A1.86,1.86,0,1,0,83.2,26a1.86,1.86,0,1,0,3.69-.43Z"/><path class="cls-4" d="M93.68,27.89l-3.35-3.63.46,4-1.3.15-.7-6.08,1.33-.16,3.26,3.5-.45-3.82,1.3-.15.7,6.08Z"/><path class="cls-4" d="M98,26.53l.58-1.07a2.67,2.67,0,0,0,2,.6c.71-.08,1-.45,1-.8-.13-1.07-3.54.07-3.81-2.22-.11-1,.67-1.95,2.1-2.12a3.38,3.38,0,0,1,2.46.58l-.61,1a2.61,2.61,0,0,0-1.84-.46c-.56.06-.84.34-.8.71.12,1,3.53-.09,3.79,2.18.13,1.11-.56,2.05-2.2,2.24A3.49,3.49,0,0,1,98,26.53Z"/><path class="cls-4" d="M108.11,26.22l-.3-2.55-2.87.33.3,2.55L104,26.7l-.71-6.08,1.3-.15.27,2.39,2.87-.33-.27-2.39,1.3-.15.7,6.08Z"/><path class="cls-4" d="M110.61,25.93l-.7-6.08,4.3-.5.13,1.14-3,.35.15,1.28,3-.34.13,1.14-3,.34.16,1.38,3-.35.13,1.14Z"/><path class="cls-4" d="M115.93,25.31l-.71-6.08,4.3-.49.14,1.13-3,.35.15,1.29,2.94-.34.13,1.14-2.94.34.16,1.37,3-.34.13,1.13Z"/><path class="cls-4" d="M122.65,24.53l-.58-4.94-1.77.21-.13-1.14L125,18.1l.14,1.14-1.77.2.57,4.94Z"/><path class="cls-4" d="M42.23,47.21l-.38-3.33,1.75-.2a.86.86,0,0,1,1,.73.74.74,0,0,1-.48.83.82.82,0,0,1,.73.75A.88.88,0,0,1,44,47Zm1.71-2.59a.36.36,0,0,0-.43-.32l-.89.11.09.72.89-.1A.35.35,0,0,0,43.94,44.62ZM44.17,46a.4.4,0,0,0-.48-.34l-.91.11.09.77.91-.1A.38.38,0,0,0,44.17,46Z"/><path class="cls-4" d="M47.83,46.56,47.56,46l-1.42.17-.15.58-.81.1.91-3.48.88-.1,1.67,3.18Zm-1.22-2.51-.35,1.49,1-.12Z"/><path class="cls-4" d="M51.24,46.16l-1.83-2,.25,2.17-.71.08-.39-3.33.73-.08,1.79,1.91-.25-2.09.71-.08.39,3.33Z"/><path class="cls-4" d="M52.23,44.37a1.7,1.7,0,0,1,1.57-1.93,1.59,1.59,0,0,1,1.47.58l-.56.39a.92.92,0,0,0-.83-.34,1.1,1.1,0,0,0,.25,2.18,1.12,1.12,0,0,0,.68-.33l-.05-.4-.88.1L53.81,44l1.59-.18.15,1.27a1.87,1.87,0,0,1-1.35.8A1.71,1.71,0,0,1,52.23,44.37Z"/><path class="cls-4" d="M56.17,45.59l-.38-3.33.7-.08.32,2.71,1.41-.17.07.63Z"/><path class="cls-4" d="M61.08,45l-.27-.54-1.43.17-.15.59-.8.09.9-3.48.89-.1,1.66,3.18Zm-1.23-2.51L59.5,44l1-.12Z"/><path class="cls-4" d="M80.37,42.79,80,39.46l2.35-.27.08.62L80.77,40l.08.7,1.61-.18.08.62-1.62.19.09.75,1.65-.19.07.62Z"/><path class="cls-4" d="M85.58,42.18l-1.84-2L84,42.37l-.71.08-.38-3.33.73-.08L85.41,41l-.24-2.09.71-.08.38,3.32Z"/><path class="cls-4" d="M86.56,40.39a1.7,1.7,0,0,1,1.58-1.93A1.58,1.58,0,0,1,89.6,39l-.55.39a1,1,0,0,0-.84-.34,1.1,1.1,0,0,0,.25,2.18,1.09,1.09,0,0,0,.68-.33l0-.4-.87.1L88.14,40l1.59-.18.15,1.27a1.85,1.85,0,0,1-1.34.8A1.72,1.72,0,0,1,86.56,40.39Z"/><path class="cls-4" d="M90.51,41.61l-.39-3.33.71-.08.31,2.71,1.41-.17.07.63Z"/><path class="cls-4" d="M93.11,41.31,92.73,38l.71-.08.38,3.33Z"/><path class="cls-4" d="M94.2,40.71l.32-.58a1.48,1.48,0,0,0,1.11.32c.39,0,.56-.25.54-.43-.07-.59-1.94,0-2.08-1.22-.07-.55.36-1.07,1.14-1.16a1.89,1.89,0,0,1,1.35.31l-.33.57a1.43,1.43,0,0,0-1-.25c-.31,0-.46.19-.44.39.06.53,1.93,0,2.08,1.19.07.61-.31,1.12-1.21,1.22A1.89,1.89,0,0,1,94.2,40.71Z"/><path class="cls-4" d="M99.75,40.54l-.16-1.4L98,39.33l.16,1.39-.71.09-.38-3.33.7-.09L98,38.7l1.57-.18-.15-1.31.71-.08.39,3.33Z"/><path class="cls-4" d="M123.62,37.77l-.27-2.33-.67,2.44-.31,0-1.21-2.22.27,2.33-.71.08-.39-3.33,1-.11,1,1.91.57-2.1,1-.12.39,3.33Z"/><path class="cls-4" d="M127.28,37.35l-.27-.54-1.43.16-.14.59-.81.1.9-3.48.89-.1,1.67,3.18Zm-1.22-2.51-.36,1.49,1-.12Z"/><path class="cls-4" d="M128.84,37.17l-.31-2.71-1,.12-.08-.63,2.66-.31.07.63-1,.11.32,2.71Z"/><path class="cls-4" d="M133.26,36.66l-.16-1.4-1.58.18.17,1.4-.71.08-.39-3.33.71-.08.15,1.31,1.57-.19-.15-1.3.72-.08.38,3.32Z"/><path class="cls-4" d="M137.52,36.16l-.27-2.33-.67,2.44-.31,0-1.21-2.22.27,2.33-.71.08-.39-3.33,1-.12,1,1.92.58-2.1,1-.12.39,3.33Z"/><path class="cls-4" d="M141.18,35.74l-.27-.54-1.43.16-.14.59-.81.1.9-3.48.89-.11L142,35.64ZM140,33.22l-.35,1.5,1-.12Z"/><path class="cls-4" d="M142.74,35.56l-.31-2.71-1,.11-.08-.62L144,32l.07.63-1,.11.32,2.7Z"/><path class="cls-4" d="M144.88,35.31,144.49,32l.71-.08.39,3.33Z"/><path class="cls-4" d="M145.89,33.51a1.71,1.71,0,0,1,1.57-1.93,1.52,1.52,0,0,1,1.49.65l-.57.37a.92.92,0,0,0-.84-.39,1.1,1.1,0,0,0,.25,2.19.92.92,0,0,0,.73-.58l.64.22a1.52,1.52,0,0,1-1.3,1A1.7,1.7,0,0,1,145.89,33.51Z"/><path class="cls-4" d="M149.39,34.31l.32-.58a1.46,1.46,0,0,0,1.11.32c.39,0,.56-.24.54-.43-.07-.59-1.94,0-2.09-1.22-.06-.55.37-1.07,1.15-1.16a1.84,1.84,0,0,1,1.35.32l-.33.56a1.43,1.43,0,0,0-1-.25c-.31,0-.46.19-.44.39.06.53,1.93,0,2.08,1.19.07.61-.31,1.12-1.21,1.23A1.93,1.93,0,0,1,149.39,34.31Z"/><path class="cls-4" d="M16.9,50.15l-1.84-2,.25,2.17-.71.08-.39-3.33.73-.08,1.79,1.91-.24-2.09.7-.08.39,3.33Z"/><path class="cls-4" d="M20.53,49.72l-.27-.54-1.43.17-.14.59-.81.09.9-3.48.89-.1,1.67,3.18Zm-1.22-2.51L19,48.7l1-.12Z"/><path class="cls-4" d="M24.54,49.26l-.27-2.33-.67,2.44-.31,0-1.21-2.22.27,2.33-.7.09-.39-3.33,1-.12,1,1.92L23.87,46l1-.11.38,3.33Z"/><path class="cls-4" d="M25.91,49.1l-.39-3.33,2.36-.27.07.62-1.65.19.09.71L28,46.83l.07.62-1.61.19.09.76,1.64-.2.07.63Z"/><path class="cls-4" d="M167.38,106.37l-146.59,17L11.56,43.77l146.59-17ZM21.67,122.25l144.59-16.77-9-77.59L12.67,44.66Z"/><rect class="cls-4" x="12.64" y="44" width="146.57" height="1" transform="translate(-4.55 10.19) rotate(-6.61)"/><rect class="cls-4" x="13.87" y="54.64" width="146.57" height="1" transform="translate(-5.77 10.4) rotate(-6.61)"/><rect class="cls-4" x="14.99" y="64.28" width="146.57" height="1" transform="translate(-6.87 10.6) rotate(-6.61)"/><rect class="cls-4" x="16.11" y="73.92" width="146.57" height="1" transform="translate(-7.98 10.79) rotate(-6.61)"/><rect class="cls-4" x="17.23" y="83.56" width="146.57" height="1" transform="translate(-9.08 10.98) rotate(-6.61)"/><rect class="cls-4" x="18.34" y="93.2" width="146.57" height="1" transform="translate(-10.18 11.18) rotate(-6.61)"/><rect class="cls-4" x="19.46" y="102.84" width="146.57" height="1" transform="translate(-11.28 11.37) rotate(-6.61)"/><rect class="cls-4" x="35.87" y="50.48" width="1" height="70.33" transform="translate(-9.62 4.76) rotate(-6.61)"/><rect class="cls-4" x="45.71" y="60.09" width="1" height="59.62" transform="translate(-10.04 5.92) rotate(-6.61)"/><rect class="cls-4" x="55.6" y="58.94" width="1" height="59.62" transform="translate(-9.85 7.05) rotate(-6.61)"/><rect class="cls-4" x="65.49" y="57.79" width="1" height="59.62" transform="translate(-9.65 8.18) rotate(-6.61)"/><rect class="cls-4" x="74.76" y="45.97" width="1" height="70.33" transform="translate(-8.84 9.21) rotate(-6.61)"/><rect class="cls-4" x="85.27" y="55.5" width="1" height="59.62" transform="translate(-9.25 10.45) rotate(-6.61)"/><rect class="cls-4" x="95.12" y="53.69" width="1" height="60.29" transform="translate(-9.02 11.57) rotate(-6.61)"/><rect class="cls-4" x="105.01" y="52.54" width="1" height="60.29" transform="translate(-8.82 12.7) rotate(-6.61)"/><rect class="cls-4" x="114.32" y="41.39" width="1" height="70.33" transform="translate(-8.05 13.73) rotate(-6.61)"/><rect class="cls-4" x="124.79" y="50.25" width="1" height="60.29" transform="translate(-8.42 14.96) rotate(-6.61)"/><rect class="cls-4" x="134.68" y="49.1" width="1" height="60.29" transform="translate(-8.23 16.09) rotate(-6.61)"/><rect class="cls-4" x="144.57" y="47.95" width="1" height="60.29" transform="translate(-8.03 17.23) rotate(-6.61)"/><rect class="cls-4" x="154.45" y="46.81" width="1" height="60.29" transform="translate(-7.83 18.36) rotate(-6.61)"/><rect class="cls-4" x="34.75" y="54.59" width="6.9" height="1" transform="translate(-6.09 4.77) rotate(-6.61)"/><rect class="cls-4" x="36.61" y="64.85" width="4.81" height="1" transform="translate(-7.27 4.93) rotate(-6.61)"/><rect class="cls-4" x="46" y="63.76" width="4.81" height="1" transform="translate(-7.08 6) rotate(-6.61)"/><rect class="cls-4" x="55.89" y="62.62" width="4.81" height="1" transform="translate(-6.88 7.13) rotate(-6.61)"/><rect class="cls-4" x="65.77" y="61.47" width="4.81" height="1" transform="translate(-6.68 8.26) rotate(-6.61)"/><rect class="cls-4" x="75.66" y="60.32" width="4.81" height="1" transform="translate(-6.49 9.4) rotate(-6.61)"/><rect class="cls-4" x="85.55" y="59.18" width="4.81" height="1" transform="translate(-6.29 10.53) rotate(-6.61)"/><rect class="cls-4" x="95.44" y="58.03" width="4.81" height="1" transform="translate(-6.09 11.66) rotate(-6.61)"/><rect class="cls-4" x="105.33" y="56.88" width="4.81" height="1" transform="translate(-5.89 12.79) rotate(-6.61)"/><rect class="cls-4" x="115.22" y="55.74" width="4.81" height="1" transform="translate(-5.69 13.92) rotate(-6.61)"/><rect class="cls-4" x="125.11" y="54.59" width="4.81" height="1" transform="translate(-5.5 15.05) rotate(-6.61)"/><rect class="cls-4" x="135" y="53.44" width="4.81" height="1" transform="translate(-5.3 16.18) rotate(-6.61)"/><rect class="cls-4" x="144.89" y="52.3" width="4.81" height="1" transform="translate(-5.1 17.31) rotate(-6.61)"/><rect class="cls-4" x="154.09" y="51.23" width="4.81" height="1" transform="translate(-4.92 18.37) rotate(-6.61)"/><rect class="cls-4" x="37.79" y="75.07" width="4.81" height="1" transform="translate(-8.44 5.13) rotate(-6.61)"/><rect class="cls-4" x="47.18" y="73.98" width="4.81" height="1" transform="translate(-8.25 6.21) rotate(-6.61)"/><rect class="cls-4" x="57.07" y="72.84" width="4.81" height="1" transform="translate(-8.05 7.34) rotate(-6.61)"/><rect class="cls-4" x="66.96" y="71.69" width="4.81" height="1" transform="translate(-7.85 8.47) rotate(-6.61)"/><rect class="cls-4" x="76.85" y="70.54" width="4.81" height="1" transform="translate(-7.65 9.6) rotate(-6.61)"/><rect class="cls-4" x="86.74" y="69.4" width="4.81" height="1" transform="translate(-7.46 10.73) rotate(-6.61)"/><rect class="cls-4" x="96.63" y="68.25" width="4.81" height="1" transform="translate(-7.26 11.86) rotate(-6.61)"/><rect class="cls-4" x="106.52" y="67.1" width="4.81" height="1" transform="translate(-7.06 12.99) rotate(-6.61)"/><rect class="cls-4" x="116.4" y="65.96" width="4.81" height="1" transform="translate(-6.86 14.12) rotate(-6.61)"/><rect class="cls-4" x="126.29" y="64.81" width="4.81" height="1" transform="translate(-6.67 15.26) rotate(-6.61)"/><rect class="cls-4" x="136.18" y="63.67" width="4.81" height="1" transform="translate(-6.47 16.39) rotate(-6.61)"/><rect class="cls-4" x="146.07" y="62.52" width="4.81" height="1" transform="translate(-6.27 17.52) rotate(-6.61)"/><rect class="cls-4" x="155.28" y="61.45" width="4.81" height="1" transform="translate(-6.09 18.57) rotate(-6.61)"/><rect class="cls-4" x="38.89" y="84.57" width="4.81" height="1" transform="translate(-9.52 5.32) rotate(-6.61)"/><rect class="cls-4" x="48.28" y="83.49" width="4.81" height="1" transform="translate(-9.33 6.4) rotate(-6.61)"/><rect class="cls-4" x="58.17" y="82.34" width="4.81" height="1" transform="translate(-9.14 7.53) rotate(-6.61)"/><rect class="cls-4" x="68.06" y="81.19" width="4.81" height="1" transform="translate(-8.94 8.66) rotate(-6.61)"/><rect class="cls-4" x="77.95" y="80.05" width="4.81" height="1" transform="translate(-8.74 9.79) rotate(-6.61)"/><rect class="cls-4" x="87.84" y="78.9" width="4.81" height="1" transform="translate(-8.54 10.92) rotate(-6.61)"/><rect class="cls-4" x="97.73" y="77.75" width="4.81" height="1" transform="translate(-8.35 12.05) rotate(-6.61)"/><rect class="cls-4" x="107.62" y="76.61" width="4.81" height="1" transform="translate(-8.15 13.18) rotate(-6.61)"/><rect class="cls-4" x="117.51" y="75.46" width="4.81" height="1" transform="translate(-7.95 14.31) rotate(-6.61)"/><rect class="cls-4" x="127.4" y="74.31" width="4.81" height="1" transform="translate(-7.75 15.45) rotate(-6.61)"/><rect class="cls-4" x="137.28" y="73.17" width="4.81" height="1" transform="translate(-7.55 16.58) rotate(-6.61)"/><rect class="cls-4" x="147.17" y="72.02" width="4.81" height="1" transform="translate(-7.36 17.71) rotate(-6.61)"/><rect class="cls-4" x="156.38" y="70.95" width="4.81" height="1" transform="translate(-7.17 18.76) rotate(-6.61)"/><rect class="cls-4" x="40.02" y="94.27" width="4.81" height="1" transform="translate(-10.63 5.52) rotate(-6.61)"/><rect class="cls-4" x="49.41" y="93.18" width="4.81" height="1" transform="translate(-10.44 6.59) rotate(-6.61)"/><rect class="cls-4" x="59.3" y="92.03" width="4.81" height="1" transform="translate(-10.25 7.72) rotate(-6.61)"/><rect class="cls-4" x="69.19" y="90.89" width="4.81" height="1" transform="translate(-10.05 8.85) rotate(-6.61)"/><rect class="cls-4" x="79.07" y="89.74" width="4.81" height="1" transform="translate(-9.85 9.98) rotate(-6.61)"/><rect class="cls-4" x="88.96" y="88.59" width="4.81" height="1" transform="translate(-9.65 11.11) rotate(-6.61)"/><rect class="cls-4" x="98.85" y="87.45" width="4.81" height="1" transform="translate(-9.45 12.25) rotate(-6.61)"/><rect class="cls-4" x="108.74" y="86.3" width="4.81" height="1" transform="translate(-9.26 13.38) rotate(-6.61)"/><rect class="cls-4" x="118.63" y="85.15" width="4.81" height="1" transform="translate(-9.06 14.51) rotate(-6.61)"/><rect class="cls-4" x="128.52" y="84.01" width="4.81" height="1" transform="translate(-8.86 15.64) rotate(-6.61)"/><rect class="cls-4" x="138.41" y="82.86" width="4.81" height="1" transform="translate(-8.66 16.77) rotate(-6.61)"/><rect class="cls-4" x="148.3" y="81.71" width="4.81" height="1" transform="translate(-8.47 17.9) rotate(-6.61)"/><rect class="cls-4" x="157.5" y="80.65" width="4.81" height="1" transform="translate(-8.28 18.95) rotate(-6.61)"/><rect class="cls-4" x="41.16" y="104.12" width="4.81" height="1" transform="translate(-11.76 5.71) rotate(-6.61)"/><rect class="cls-4" x="50.55" y="103.03" width="4.81" height="1" transform="translate(-11.57 6.79) rotate(-6.61)"/><rect class="cls-4" x="60.44" y="101.88" width="4.81" height="1" transform="translate(-11.37 7.92) rotate(-6.61)"/><rect class="cls-4" x="70.33" y="100.73" width="4.81" height="1" transform="translate(-11.17 9.05) rotate(-6.61)"/><rect class="cls-4" x="80.22" y="99.59" width="4.81" height="1" transform="translate(-10.98 10.18) rotate(-6.61)"/><rect class="cls-4" x="90.1" y="98.44" width="4.81" height="1" transform="translate(-10.78 11.31) rotate(-6.61)"/><rect class="cls-4" x="99.99" y="97.29" width="4.81" height="1" transform="translate(-10.58 12.44) rotate(-6.61)"/><rect class="cls-4" x="109.88" y="96.15" width="4.81" height="1" transform="translate(-10.38 13.57) rotate(-6.61)"/><rect class="cls-4" x="119.77" y="95" width="4.81" height="1" transform="translate(-10.19 14.71) rotate(-6.61)"/><rect class="cls-4" x="129.66" y="93.86" width="4.81" height="1" transform="translate(-9.99 15.84) rotate(-6.61)"/><rect class="cls-4" x="139.55" y="92.71" width="4.81" height="1" transform="translate(-9.79 16.97) rotate(-6.61)"/><rect class="cls-4" x="149.44" y="91.56" width="4.81" height="1" transform="translate(-9.59 18.1) rotate(-6.61)"/><rect class="cls-4" x="158.64" y="90.5" width="4.81" height="1" transform="translate(-9.41 19.15) rotate(-6.61)"/><rect class="cls-4" x="42.34" y="114.34" width="4.81" height="1" transform="translate(-12.93 5.92) rotate(-6.61)"/><rect class="cls-4" x="51.73" y="113.25" width="4.81" height="1" transform="translate(-12.74 6.99) rotate(-6.61)"/><rect class="cls-4" x="61.62" y="112.1" width="4.81" height="1" transform="translate(-12.54 8.12) rotate(-6.61)"/><rect class="cls-4" x="71.51" y="110.96" width="4.81" height="1" transform="translate(-12.34 9.25) rotate(-6.61)"/><rect class="cls-4" x="81.4" y="109.81" width="4.81" height="1" transform="translate(-12.15 10.39) rotate(-6.61)"/><rect class="cls-4" x="91.29" y="108.66" width="4.81" height="1" transform="translate(-11.95 11.52) rotate(-6.61)"/><rect class="cls-4" x="101.18" y="107.52" width="4.81" height="1" transform="translate(-11.75 12.65) rotate(-6.61)"/><rect class="cls-4" x="111.07" y="106.37" width="4.81" height="1" transform="translate(-11.55 13.78) rotate(-6.61)"/><rect class="cls-4" x="120.96" y="105.22" width="4.81" height="1" transform="translate(-11.35 14.91) rotate(-6.61)"/><rect class="cls-4" x="130.85" y="104.08" width="4.81" height="1" transform="translate(-11.16 16.04) rotate(-6.61)"/><rect class="cls-4" x="140.73" y="102.93" width="4.81" height="1" transform="translate(-10.96 17.17) rotate(-6.61)"/><rect class="cls-4" x="150.62" y="101.78" width="4.81" height="1" transform="translate(-10.76 18.3) rotate(-6.61)"/><rect class="cls-4" x="159.83" y="100.72" width="4.81" height="1" transform="translate(-10.58 19.36) rotate(-6.61)"/><rect class="cls-4" x="42.73" y="53.66" width="6.9" height="1" transform="translate(-5.93 5.68) rotate(-6.61)"/><rect class="cls-4" x="51.27" y="52.67" width="6.9" height="1" transform="translate(-5.76 6.65) rotate(-6.61)"/><rect class="cls-4" x="59.8" y="51.68" width="6.9" height="1" transform="translate(-5.59 7.63) rotate(-6.61)"/><rect class="cls-4" x="74.39" y="49.99" width="6.9" height="1" transform="translate(-5.3 9.3) rotate(-6.61)"/><rect class="cls-4" x="82.37" y="49.07" width="6.9" height="1" transform="translate(-5.14 10.21) rotate(-6.61)"/><rect class="cls-4" x="90.9" y="48.08" width="6.9" height="1" transform="translate(-4.97 11.19) rotate(-6.61)"/><rect class="cls-4" x="99.44" y="47.09" width="6.9" height="1" transform="translate(-4.8 12.17) rotate(-6.61)"/><rect class="cls-4" x="119.18" y="44.8" width="6.9" height="1" transform="translate(-4.4 14.42) rotate(-6.61)"/><rect class="cls-4" x="127.16" y="43.87" width="6.9" height="1" transform="translate(-4.24 15.34) rotate(-6.61)"/><rect class="cls-4" x="135.7" y="42.88" width="6.9" height="1" transform="translate(-4.07 16.31) rotate(-6.61)"/><rect class="cls-4" x="144.24" y="41.89" width="6.9" height="1" transform="translate(-3.9 17.29) rotate(-6.61)"/><rect class="cls-4" x="16.53" y="56.28" width="14.18" height="1" transform="translate(-6.38 3.1) rotate(-6.61)"/><rect class="cls-4" x="17.72" y="66.71" width="10.42" height="1" transform="translate(-7.59 3.09) rotate(-6.61)"/><rect class="cls-4" x="18.9" y="76.72" width="14.18" height="1" transform="translate(-8.72 3.51) rotate(-6.61)"/><rect class="cls-4" x="20.09" y="87.11" width="11.17" height="1" transform="translate(-9.92 3.54) rotate(-6.61)"/><rect class="cls-4" x="21.13" y="96.02" width="12.42" height="1" transform="translate(-10.93 3.79) rotate(-6.61)"/><rect class="cls-4" x="22.28" y="106" width="10.08" height="1" transform="translate(-12.08 3.85) rotate(-6.61)"/><rect class="cls-4" x="24.34" y="116.95" width="10.38" height="1" transform="translate(-13.33 4.18) rotate(-6.61)"/><rect class="cls-1" x="38.5" y="71.69" width="178.65" height="125.59" transform="translate(12.91 -11.19) rotate(5.28)"/><rect class="cls-6" x="37.42" y="71.69" width="178.65" height="125.59" transform="translate(4.75 -4.32) rotate(1.99)"/><text class="cls-7" transform="translate(85.91 94.54) rotate(1.99)">RESU<tspan class="cls-8" x="25.77" y="0">L</tspan><tspan class="cls-9" x="30.03" y="0">T ANA</tspan><tspan class="cls-10" x="59.59" y="0">L</tspan><tspan class="cls-11" x="63.57" y="0">Y</tspan><tspan class="cls-9" x="69.87" y="0">SIS</tspan></text><path class="cls-12" d="M95.81,143.06,80.09,119.77A31.63,31.63,0,0,0,66.35,142Z"/><path class="cls-13" d="M98.6,146.15,66.83,145A31.79,31.79,0,0,0,97.5,177.92a31.66,31.66,0,0,0,18.88-5.42Z"/><path class="cls-14" d="M98.73,107.3a31.66,31.66,0,0,0-18.88,5.42l17.78,26.35Z"/><path class="cls-15" d="M120.36,117a31.67,31.67,0,0,0-18.46-6.72l-1.11,31.77,30.56-8.76A31.77,31.77,0,0,0,120.36,117Z"/><path class="cls-3" d="M129.16,137.38,98.6,146.15l17.78,26.35a31.81,31.81,0,0,0,12.78-35.12Z"/><text class="cls-16" transform="translate(84.91 163.27) rotate(1.99)">40%</text><text class="cls-16" transform="translate(89.58 122.96) rotate(1.99)">5%</text><text class="cls-16" transform="translate(77.21 138.43) rotate(1.99)">10%</text><text class="cls-16" transform="translate(108.28 129) rotate(1.99)">20%</text><text class="cls-16" transform="translate(110.68 154.59) rotate(1.99)">25%</text><text class="cls-17" transform="translate(173.51 123.48) rotate(1.99)">A+ </text><rect class="cls-13" x="155.21" y="115.5" width="13.49" height="8.59" transform="translate(4.26 -5.55) rotate(1.99)"/><text class="cls-17" transform="translate(173.08 135.69) rotate(1.99)">A </text><rect class="cls-3" x="154.78" y="127.71" width="13.49" height="8.59" transform="translate(4.68 -5.53) rotate(1.99)"/><text class="cls-17" transform="translate(172.66 147.9) rotate(1.99)">B </text><rect class="cls-15" x="154.36" y="139.92" width="13.49" height="8.59" transform="translate(5.11 -5.51) rotate(1.99)"/><text class="cls-17" transform="translate(172.23 160.11) rotate(1.99)">C </text><rect class="cls-12" x="153.93" y="152.13" width="13.49" height="8.59" transform="translate(5.53 -5.49) rotate(1.99)"/><text class="cls-17" transform="translate(171.81 172.31) rotate(1.99)">F </text><rect class="cls-14" x="153.51" y="164.34" width="13.49" height="8.59" transform="translate(5.96 -5.47) rotate(1.99)"/></g></g></svg>