<?xml version="1.0" encoding="utf-8"?>
<!-- Generator: Adobe Illustrator 25.0.1, SVG Export Plug-In . SVG Version: 6.00 Build 0)  -->
<svg version="1.1" id="Layer_1" xmlns="http://www.w3.org/2000/svg" xmlns:xlink="http://www.w3.org/1999/xlink" x="0px" y="0px"
	 viewBox="0 0 53.3 58.2" style="enable-background:new 0 0 53.3 58.2;" xml:space="preserve">
<style type="text/css">
	.st0{fill:#E046BF;}
	.st1{fill:#FFFFFF;stroke:#474748;stroke-width:0.5;stroke-linecap:round;stroke-linejoin:round;}
	.st2{fill:#474748;}
	.st3{fill:#FFFFFF;}
	.st4{enable-background:new    ;}
</style>
<path class="st0" d="M49.5,27.5v19.4c0,2.6-2.1,4.6-4.6,4.6H25.4c-13.3,0-24-10.8-24-24v0c0-13.3,10.8-24,24-24h0
	C38.7,3.5,49.5,14.2,49.5,27.5z"/>
<g>
	
		<image style="overflow:visible;opacity:0.56;" width="71" height="51" xlink:href="41B2B924.png"  transform="matrix(1 0 0 1 -8.573 11.0436)">
	</image>
	<g>
		<g>
			<rect x="9.8" y="32" class="st1" width="35.1" height="6.8"/>
			<rect x="9.8" y="21.2" class="st1" width="35.1" height="10"/>
			<rect x="15" y="23.8" class="st2" width="0.8" height="15"/>
			<rect x="22.8" y="23.8" class="st2" width="0.8" height="15"/>
			<rect x="30.1" y="23.8" class="st2" width="0.8" height="15"/>
			<rect x="37.1" y="23.8" class="st2" width="0.8" height="15"/>
			<rect x="25.1" y="34.4" class="st2" width="3.6" height="4.4"/>
			<rect x="25.1" y="34.4" class="st2" width="3.6" height="4.4"/>
			<rect x="25.4" y="35" class="st1" width="2.9" height="3.7"/>
			<rect x="39.6" y="34.8" class="st2" width="3.3" height="2.8"/>
			<rect x="39.8" y="35" class="st3" width="2.8" height="2.3"/>
			<rect x="39.6" y="35.9" class="st2" width="3.3" height="0.5"/>
			<rect x="41" y="34.9" class="st2" width="0.5" height="2.6"/>
			<rect x="32.3" y="34.8" class="st2" width="3.3" height="2.8"/>
			<rect x="32.6" y="35" class="st3" width="2.8" height="2.3"/>
			<rect x="32.3" y="35.9" class="st2" width="3.3" height="0.5"/>
			<rect x="33.7" y="34.9" class="st2" width="0.5" height="2.6"/>
			<rect x="17.8" y="34.8" class="st2" width="3.3" height="2.8"/>
			<rect x="18.1" y="35" class="st3" width="2.8" height="2.3"/>
			<rect x="17.8" y="35.9" class="st2" width="3.3" height="0.5"/>
			<rect x="19.2" y="34.9" class="st2" width="0.5" height="2.6"/>
			<rect x="10.9" y="34.8" class="st2" width="3.3" height="2.8"/>
			<rect x="11.1" y="35" class="st3" width="2.8" height="2.3"/>
			<rect x="10.9" y="35.9" class="st2" width="3.3" height="0.5"/>
			<rect x="12.3" y="34.9" class="st2" width="0.5" height="2.6"/>
			<rect x="39.6" y="25.3" class="st2" width="3.3" height="2.8"/>
			<rect x="39.8" y="25.5" class="st3" width="2.8" height="2.3"/>
			<rect x="39.6" y="26.4" class="st2" width="3.3" height="0.5"/>
			<rect x="41" y="25.3" class="st2" width="0.5" height="2.6"/>
			<rect x="32.3" y="25.3" class="st2" width="3.3" height="2.8"/>
			<rect x="32.6" y="25.5" class="st3" width="2.8" height="2.3"/>
			<rect x="32.3" y="26.4" class="st2" width="3.3" height="0.5"/>
			<rect x="33.7" y="25.3" class="st2" width="0.5" height="2.6"/>
			<rect x="25.3" y="25.3" class="st2" width="3.3" height="2.8"/>
			<rect x="25.5" y="25.5" class="st3" width="2.8" height="2.3"/>
			<rect x="25.3" y="26.4" class="st2" width="3.3" height="0.5"/>
			<rect x="26.6" y="25.3" class="st2" width="0.5" height="2.6"/>
			<rect x="17.8" y="25.3" class="st2" width="3.3" height="2.8"/>
			<rect x="18.1" y="25.5" class="st3" width="2.8" height="2.3"/>
			<rect x="17.8" y="26.4" class="st2" width="3.3" height="0.5"/>
			<rect x="19.2" y="25.3" class="st2" width="0.5" height="2.6"/>
			<rect x="10.9" y="25.3" class="st2" width="3.3" height="2.8"/>
			<rect x="11.1" y="25.5" class="st3" width="2.8" height="2.3"/>
			<rect x="10.9" y="26.4" class="st2" width="3.3" height="0.5"/>
			<rect x="12.3" y="25.3" class="st2" width="0.5" height="2.6"/>
			<rect x="9.8" y="29.3" class="st1" width="35.1" height="4.7"/>
			<rect x="9.8" y="23.8" class="st2" width="35.1" height="0.3"/>
			<rect x="9.6" y="38.8" class="st2" width="35.4" height="1"/>
			<rect x="19.3" y="30.2" class="st1" width="16" height="3"/>
			<g class="st4">
				<path class="st2" d="M21.8,32c0-0.1,0.1-0.1,0.2,0c0.1,0.1,0.3,0.2,0.5,0.2c0.1,0,0.3,0,0.3-0.1c0.1-0.1,0.1-0.1,0.1-0.2
					c0,0,0-0.1,0-0.1c0,0,0-0.1-0.1-0.1c-0.1-0.1-0.2-0.1-0.4-0.1h0c-0.1,0-0.2-0.1-0.3-0.1c-0.1,0-0.2-0.1-0.3-0.2
					c0-0.1-0.1-0.1-0.1-0.2c0-0.2,0.1-0.3,0.2-0.4c0.1-0.1,0.3-0.1,0.5-0.1c0.3,0,0.5,0.1,0.6,0.2c0.1,0,0.1,0.1,0,0.2
					c0,0.1-0.1,0.1-0.2,0c-0.1-0.1-0.3-0.2-0.4-0.2c-0.1,0-0.2,0-0.3,0.1c-0.1,0.1-0.1,0.1-0.1,0.2c0,0,0,0.1,0,0.1c0,0,0,0,0.1,0.1
					c0.1,0,0.2,0.1,0.3,0.1h0c0.1,0,0.3,0.1,0.4,0.1c0.1,0.1,0.2,0.1,0.3,0.2c0,0.1,0.1,0.1,0.1,0.2c0,0.2-0.1,0.3-0.2,0.4
					c-0.1,0.1-0.3,0.2-0.5,0.2c-0.3,0-0.5-0.1-0.7-0.3C21.7,32.2,21.7,32.1,21.8,32z"/>
				<path class="st2" d="M23.5,31.5c0-0.5,0.5-1,1-1c0.2,0,0.5,0.1,0.6,0.2c0.1,0.1,0.1,0.1,0,0.2c-0.1,0.1-0.2,0.1-0.2,0
					c-0.1-0.1-0.3-0.1-0.4-0.1c-0.2,0-0.4,0.1-0.5,0.2c-0.1,0.1-0.2,0.3-0.2,0.5s0.1,0.4,0.2,0.5c0.1,0.1,0.3,0.2,0.5,0.2
					c0.2,0,0.3-0.1,0.4-0.1c0.1,0,0.2,0,0.2,0c0,0.1,0,0.2,0,0.2c-0.2,0.1-0.4,0.2-0.6,0.2C24,32.5,23.5,32.1,23.5,31.5z"/>
				<path class="st2" d="M25.7,32.4v-1.6c0-0.1,0.1-0.1,0.1-0.1c0.1,0,0.2,0.1,0.2,0.1v0.6h0.7v-0.6c0-0.1,0.1-0.1,0.1-0.1
					c0.1,0,0.2,0.1,0.2,0.1v1.6c0,0.1-0.1,0.1-0.2,0.1c-0.1,0-0.1-0.1-0.1-0.1v-0.6H26v0.6c0,0.1-0.1,0.1-0.2,0.1
					C25.8,32.5,25.7,32.4,25.7,32.4z"/>
				<path class="st2" d="M29,30.9c0.2,0.2,0.3,0.4,0.3,0.7c0,0.3-0.1,0.5-0.3,0.7c-0.2,0.2-0.4,0.3-0.6,0.3c-0.3,0-0.5-0.1-0.7-0.3
					c-0.2-0.2-0.3-0.4-0.3-0.7c0-0.3,0.1-0.5,0.3-0.7c0.2-0.2,0.4-0.3,0.7-0.3C28.6,30.6,28.9,30.7,29,30.9z M29,31.5
					c0-0.2-0.1-0.4-0.2-0.5c-0.1-0.1-0.3-0.2-0.4-0.2c-0.2,0-0.3,0.1-0.4,0.2c-0.1,0.1-0.2,0.3-0.2,0.5s0.1,0.4,0.2,0.5
					c0.1,0.1,0.3,0.2,0.4,0.2c0.2,0,0.3-0.1,0.4-0.2C28.9,31.9,29,31.7,29,31.5z"/>
				<path class="st2" d="M31.3,30.9c0.2,0.2,0.3,0.4,0.3,0.7c0,0.3-0.1,0.5-0.3,0.7c-0.2,0.2-0.4,0.3-0.6,0.3
					c-0.3,0-0.5-0.1-0.7-0.3c-0.2-0.2-0.3-0.4-0.3-0.7c0-0.3,0.1-0.5,0.3-0.7c0.2-0.2,0.4-0.3,0.7-0.3
					C30.9,30.6,31.1,30.7,31.3,30.9z M31.3,31.5c0-0.2-0.1-0.4-0.2-0.5c-0.1-0.1-0.3-0.2-0.4-0.2c-0.2,0-0.3,0.1-0.4,0.2
					c-0.1,0.1-0.2,0.3-0.2,0.5s0.1,0.4,0.2,0.5c0.1,0.1,0.3,0.2,0.4,0.2c0.2,0,0.3-0.1,0.4-0.2C31.2,31.9,31.3,31.7,31.3,31.5z"/>
			</g>
			<g class="st4">
				<path class="st2" d="M31.9,32.4v-1.6c0-0.1,0.1-0.1,0.1-0.1c0.1,0,0.2,0.1,0.2,0.1v1.4H33c0.1,0,0.1,0.1,0.1,0.2
					c0,0.1-0.1,0.1-0.1,0.1h-0.9c0,0,0,0,0,0c0,0,0,0,0,0C32,32.5,31.9,32.4,31.9,32.4z"/>
			</g>
			<rect x="26.7" y="35" class="st2" width="0.5" height="3.7"/>
			<path class="st2" d="M9.9,19.5h35.3c0.6,0,1.2,0.5,1.2,1.2v0c0,0.6-0.5,1.2-1.2,1.2H9.9c-0.6,0-1.2-0.5-1.2-1.2v0
				C8.7,20,9.2,19.5,9.9,19.5z"/>
			<path class="st1" d="M46.6,38.4c0-0.2-0.1-0.3-0.2-0.5c0.2-0.3,0.1-0.7-0.1-0.9c-0.1,0-0.1-0.1-0.2-0.1c0.1-0.3-0.1-0.7-0.4-0.8
				c-0.1,0-0.1,0-0.2,0h-0.1c-0.1-0.3-0.3-0.5-0.6-0.5c-0.2,0-0.5,0.1-0.6,0.4C44.2,36,44,36,43.9,36c-0.2,0-0.4,0.1-0.5,0.3
				c-0.3-0.2-0.7-0.2-0.9,0.1c-0.1,0.1-0.1,0.3-0.1,0.4v0c-0.4,0-0.6,0.3-0.6,0.7c0,0.2,0.1,0.4,0.3,0.5l0,0
				c-0.3,0.2-0.4,0.6-0.2,0.9c0.1,0.1,0.2,0.2,0.4,0.3c0.1,0.3,0.3,0.5,0.6,0.5h2.6c0.3,0,0.5-0.2,0.5-0.5l0,0c0,0,0-0.1,0-0.1l0,0
				C46.3,39,46.6,38.7,46.6,38.4z"/>
			<path class="st1" d="M11.8,38.4c0-0.2-0.1-0.3-0.2-0.5c0.2-0.3,0.1-0.7-0.1-0.9c-0.1,0-0.1-0.1-0.2-0.1c0.1-0.3-0.1-0.7-0.4-0.8
				c-0.1,0-0.1,0-0.2,0h-0.1c-0.1-0.3-0.4-0.5-0.8-0.4c-0.2,0-0.3,0.2-0.4,0.3C9.3,36,9.2,36,9.1,36c-0.2,0-0.4,0.1-0.5,0.3
				c-0.3-0.2-0.7-0.2-0.9,0.1c-0.1,0.1-0.2,0.3-0.2,0.4v0c-0.4,0-0.6,0.3-0.6,0.7c0,0.2,0.1,0.4,0.3,0.5l0,0
				c-0.3,0.2-0.4,0.6-0.2,0.9c0.1,0.1,0.2,0.2,0.4,0.3c0.1,0.3,0.3,0.5,0.6,0.5h2.6c0.3,0,0.5-0.2,0.5-0.5l0,0c0,0,0-0.1,0-0.1h0
				C11.5,39,11.8,38.7,11.8,38.4z"/>
		</g>
	</g>
</g>
</svg>
