<svg xmlns="http://www.w3.org/2000/svg" viewBox="0 0 142.48 141.87"><defs><style>.cls-1{opacity:0.1;}.cls-2{fill:#f79a23;}.cls-3{fill:#dd7f19;}.cls-4,.cls-6{fill:#fff;}.cls-4{stroke:#474748;stroke-linecap:round;stroke-linejoin:round;stroke-width:0.5px;}.cls-5,.cls-7{fill:#474748;}.cls-7{font-size:7.59px;font-family:Lato-Black, Lato;}.cls-8{letter-spacing:-0.03em;}</style></defs><title>Asset 1</title><g id="Layer_2" data-name="Layer 2"><g id="Layer_1-2" data-name="Layer 1"><rect class="cls-1" x="4.23" y="3.62" width="138.25" height="138.25" rx="5.97" ry="5.97"/><rect class="cls-2" width="138.25" height="138.25" rx="5.97" ry="5.97"/><path class="cls-3" d="M123,41.45l15.29,33.07v57.83a5.91,5.91,0,0,1-5.9,5.9H46.8L14.33,98.44l6.53-11.39.42-34.55-4-4.47L27.3,44.74Z"/><rect class="cls-4" x="20.27" y="76.61" width="98.72" height="19.13"/><rect class="cls-4" x="20.27" y="46.19" width="98.72" height="28.1"/><rect class="cls-5" x="34.95" y="53.72" width="2.32" height="42.02"/><rect class="cls-5" x="56.78" y="53.72" width="2.32" height="42.02"/><rect class="cls-5" x="77.46" y="53.72" width="2.32" height="42.02"/><rect class="cls-5" x="97.16" y="53.72" width="2.32" height="42.02"/><rect class="cls-5" x="63.27" y="83.31" width="10.09" height="12.42"/><rect class="cls-5" x="63.27" y="83.31" width="10.09" height="12.42"/><rect class="cls-4" x="64.22" y="85.21" width="8.18" height="10.53"/><rect class="cls-5" x="104.04" y="84.59" width="9.22" height="7.74"/><rect class="cls-6" x="104.78" y="85.21" width="7.74" height="6.5"/><rect class="cls-5" x="104.04" y="87.74" width="9.22" height="1.37"/><rect class="cls-5" x="107.97" y="84.82" width="1.37" height="7.29"/><rect class="cls-5" x="83.71" y="84.59" width="9.22" height="7.74"/><rect class="cls-6" x="84.45" y="85.21" width="7.74" height="6.5"/><rect class="cls-5" x="83.71" y="87.74" width="9.22" height="1.37"/><rect class="cls-5" x="87.64" y="84.82" width="1.37" height="7.29"/><rect class="cls-5" x="42.88" y="84.59" width="9.22" height="7.74"/><rect class="cls-6" x="43.62" y="85.21" width="7.74" height="6.5"/><rect class="cls-5" x="42.88" y="87.74" width="9.22" height="1.37"/><rect class="cls-5" x="46.8" y="84.82" width="1.37" height="7.29"/><rect class="cls-5" x="23.37" y="84.59" width="9.22" height="7.74"/><rect class="cls-6" x="24.11" y="85.21" width="7.74" height="6.5"/><rect class="cls-5" x="23.37" y="87.74" width="9.22" height="1.37"/><rect class="cls-5" x="27.3" y="84.82" width="1.37" height="7.29"/><rect class="cls-5" x="104.04" y="57.71" width="9.22" height="7.74"/><rect class="cls-6" x="104.78" y="58.33" width="7.74" height="6.5"/><rect class="cls-5" x="104.04" y="60.86" width="9.22" height="1.37"/><rect class="cls-5" x="107.97" y="57.94" width="1.37" height="7.29"/><rect class="cls-5" x="83.71" y="57.71" width="9.22" height="7.74"/><rect class="cls-6" x="84.45" y="58.33" width="7.74" height="6.5"/><rect class="cls-5" x="83.71" y="60.86" width="9.22" height="1.37"/><rect class="cls-5" x="87.64" y="57.94" width="1.37" height="7.29"/><rect class="cls-5" x="63.78" y="57.71" width="9.22" height="7.74"/><rect class="cls-6" x="64.52" y="58.33" width="7.74" height="6.5"/><rect class="cls-5" x="63.78" y="60.86" width="9.22" height="1.37"/><rect class="cls-5" x="67.71" y="57.94" width="1.37" height="7.29"/><rect class="cls-5" x="42.88" y="57.71" width="9.22" height="7.74"/><rect class="cls-6" x="43.62" y="58.33" width="7.74" height="6.5"/><rect class="cls-5" x="42.88" y="60.86" width="9.22" height="1.37"/><rect class="cls-5" x="46.8" y="57.94" width="1.37" height="7.29"/><rect class="cls-5" x="23.37" y="57.71" width="9.22" height="7.74"/><rect class="cls-6" x="24.11" y="58.33" width="7.74" height="6.5"/><rect class="cls-5" x="23.37" y="60.86" width="9.22" height="1.37"/><rect class="cls-5" x="27.3" y="57.94" width="1.37" height="7.29"/><rect class="cls-4" x="20.27" y="69.12" width="98.72" height="13.24"/><rect class="cls-5" x="20.27" y="53.72" width="98.72" height="0.97"/><rect class="cls-5" x="19.88" y="95.74" width="99.49" height="2.7"/><rect class="cls-4" x="46.93" y="71.48" width="45.01" height="8.53"/><text class="cls-7" transform="translate(53.34 78.08)">SCHOO<tspan class="cls-8" x="27.43" y="0">L</tspan></text><rect class="cls-5" x="67.75" y="85.21" width="1.29" height="10.53"/><rect class="cls-5" x="17.25" y="41.45" width="105.72" height="6.58"/><path class="cls-4" d="M123.78,94.61a1.74,1.74,0,0,0-.57-1.29,1.77,1.77,0,0,0-.88-2.74,1.76,1.76,0,0,0-1.68-2.28l-.23,0a1.76,1.76,0,0,0-1.69-1.27,1.73,1.73,0,0,0-1.57,1,1.7,1.7,0,0,0-.86-.23,1.77,1.77,0,0,0-1.53.9,1.75,1.75,0,0,0-2.88,1.35v.08a1.8,1.8,0,0,0-.83,3.33v0a1.76,1.76,0,0,0,.67,3.21,1.77,1.77,0,0,0,1.66,1.41h7.27a1.4,1.4,0,0,0,1.4-1.4,1.52,1.52,0,0,0,0-.38h0A1.73,1.73,0,0,0,123.78,94.61Z"/><path class="cls-4" d="M25.9,94.61a1.74,1.74,0,0,0-.57-1.29,1.77,1.77,0,0,0-.88-2.74,1.76,1.76,0,0,0-1.67-2.28l-.24,0A1.75,1.75,0,0,0,19.28,88a1.64,1.64,0,0,0-.85-.23,1.79,1.79,0,0,0-1.54.9A1.75,1.75,0,0,0,14,90.06v.08a1.8,1.8,0,0,0-.83,3.33v0a1.76,1.76,0,0,0,.67,3.21,1.77,1.77,0,0,0,1.66,1.41h7.28a1.4,1.4,0,0,0,1.4-1.4,1.16,1.16,0,0,0-.06-.38h.06A1.73,1.73,0,0,0,25.9,94.61Z"/></g></g></svg>