<svg xmlns="http://www.w3.org/2000/svg" xmlns:xlink="http://www.w3.org/1999/xlink" viewBox="0 0 99.38 85.37"><defs><style>.cls-1,.cls-18{fill:none;}.cls-2{fill:#e6e1e2;}.cls-3{fill:#d4d3d4;}.cls-4{fill:#ffcf5e;}.cls-5{fill:#e8b033;opacity:0.26;}.cls-11,.cls-6{fill:#5d5c71;}.cls-7{fill:#56bde9;}.cls-8{fill:#fff;}.cls-9{fill:#44a9d2;}.cls-10{fill:#89d4f6;}.cls-11{opacity:0.33;}.cls-12{fill:#f06064;}.cls-13{fill:#d73a46;}.cls-14{fill:#aeb5bb;}.cls-15{fill:#e6ebeb;}.cls-16{fill:#4b9fd7;}.cls-17{clip-path:url(#clip-path);}.cls-18{stroke:#fff;stroke-miterlimit:10;stroke-width:1.6px;}.cls-19{fill:#283238;}.cls-20{fill:#d2a96d;}.cls-21{fill:#6d797a;}.cls-22{clip-path:url(#clip-path-2);}.cls-23{fill:#3b91ca;}</style><clipPath id="clip-path"><rect class="cls-1" x="76.88" y="64.01" width="10.85" height="8.07"/></clipPath><clipPath id="clip-path-2"><rect class="cls-1" x="88.62" y="72.96" width="10.85" height="8.07"/></clipPath></defs><title>Asset 13</title><g id="Layer_2" data-name="Layer 2"><g id="Layer_1-2" data-name="Layer 1"><path class="cls-2" d="M87.56.28H70.7V18.17a2.68,2.68,0,0,0,2.69,2.69H89.24l-1.68-1.67Z"/><rect class="cls-3" x="72.02" y="1.65" width="13.73" height="0.87"/><rect class="cls-3" x="72.02" y="3.7" width="5.55" height="0.87"/><rect class="cls-3" x="72.02" y="5.87" width="9.4" height="0.87"/><rect class="cls-3" x="82.57" y="5.87" width="2.73" height="0.87"/><rect class="cls-3" x="72.02" y="8.1" width="9.63" height="0.87"/><rect class="cls-3" x="72.02" y="10.33" width="8.21" height="0.87"/><rect class="cls-3" x="72.02" y="12.56" width="8.21" height="0.87"/><rect class="cls-3" x="72.02" y="14.79" width="8.21" height="0.87"/><path class="cls-3" d="M90.74,9.67H87.45v9.55a1.65,1.65,0,0,0,1.65,1.64h0a1.64,1.64,0,0,0,1.64-1.64Z"/><path class="cls-4" d="M86,14.1v9.66a2,2,0,0,1-2,2H68.31a2,2,0,0,1-1.84-1.26,2,2,0,0,1-.12-.7V11.23a2,2,0,0,1,2-2h3.45A1.73,1.73,0,0,1,73.5,11a1,1,0,0,0,1,1h9.37A2.13,2.13,0,0,1,86,14.1Z"/><path class="cls-5" d="M86,14.1v9.66a2,2,0,0,1-2,2H68.31a2,2,0,0,1-1.84-1.26c12.66.15,15-8,15.25-12.5h2.1A2.13,2.13,0,0,1,86,14.1Z"/><path id="_Path_" data-name="&lt;Path&gt;" class="cls-3" d="M73,54.65a2.26,2.26,0,0,0-2.29-2.23H28.64a2.26,2.26,0,0,0-2.29,2.23v28.5a2.25,2.25,0,0,0,2.29,2.22H70.72A2.26,2.26,0,0,0,73,83.15Z"/><rect class="cls-6" x="26.35" y="19.07" width="46.65" height="32.44" rx="2.61" ry="2.61"/><rect class="cls-7" x="35.83" y="14.34" width="27.69" height="41.9" transform="translate(84.97 -14.39) rotate(90)"/><path id="_Path_2" data-name="&lt;Path&gt;" class="cls-2" d="M73,53.71a2.26,2.26,0,0,0-2.29-2.22H28.64a2.26,2.26,0,0,0-2.29,2.22V82.22a2.26,2.26,0,0,0,2.29,2.22H70.72A2.26,2.26,0,0,0,73,82.22Z"/><rect id="_Path_3" data-name="&lt;Path&gt;" class="cls-3" x="28.81" y="54.57" width="41.75" height="16.7" rx="1.27" ry="1.27"/><path id="_Path_4" data-name="&lt;Path&gt;" class="cls-6" d="M32.52,51.49v1.35a.52.52,0,0,0,.52.53H66.31a.53.53,0,0,0,.53-.53V51.49Z"/><rect class="cls-6" x="30.14" y="55.69" width="2.52" height="1.55" rx="0.68" ry="0.68"/><path class="cls-6" d="M35.78,55.69H33.67a.21.21,0,0,0-.21.22V57a.21.21,0,0,0,.21.22h2.11A.21.21,0,0,0,36,57V55.91A.21.21,0,0,0,35.78,55.69Z"/><path class="cls-6" d="M39.1,55.69H37a.22.22,0,0,0-.21.22V57a.22.22,0,0,0,.21.22H39.1a.21.21,0,0,0,.21-.22V55.91A.21.21,0,0,0,39.1,55.69Z"/><path class="cls-6" d="M42.42,55.69h-2.1a.21.21,0,0,0-.21.22V57a.21.21,0,0,0,.21.22h2.1a.21.21,0,0,0,.21-.22V55.91A.21.21,0,0,0,42.42,55.69Z"/><path class="cls-6" d="M45.75,55.69H43.64a.21.21,0,0,0-.21.22V57a.21.21,0,0,0,.21.22h2.11A.21.21,0,0,0,46,57V55.91A.21.21,0,0,0,45.75,55.69Z"/><path class="cls-6" d="M49.07,55.69H47a.22.22,0,0,0-.21.22V57a.22.22,0,0,0,.21.22h2.11a.21.21,0,0,0,.21-.22V55.91A.21.21,0,0,0,49.07,55.69Z"/><path class="cls-6" d="M52.39,55.69h-2.1a.21.21,0,0,0-.21.22V57a.21.21,0,0,0,.21.22h2.1A.21.21,0,0,0,52.6,57V55.91A.21.21,0,0,0,52.39,55.69Z"/><path class="cls-6" d="M55.72,55.69H53.61a.21.21,0,0,0-.21.22V57a.21.21,0,0,0,.21.22h2.11a.21.21,0,0,0,.2-.22V55.91A.21.21,0,0,0,55.72,55.69Z"/><path class="cls-6" d="M59,55.69H56.93a.22.22,0,0,0-.21.22V57a.22.22,0,0,0,.21.22H59a.21.21,0,0,0,.21-.22V55.91A.21.21,0,0,0,59,55.69Z"/><path class="cls-6" d="M62.36,55.69h-2.1a.21.21,0,0,0-.21.22V57a.21.21,0,0,0,.21.22h2.1a.21.21,0,0,0,.21-.22V55.91A.21.21,0,0,0,62.36,55.69Z"/><path class="cls-6" d="M65.69,55.69H63.58a.21.21,0,0,0-.21.22V57a.21.21,0,0,0,.21.22h2.11a.21.21,0,0,0,.2-.22V55.91A.21.21,0,0,0,65.69,55.69Z"/><rect class="cls-6" x="66.69" y="55.69" width="2.52" height="1.55" rx="0.68" ry="0.68"/><rect class="cls-6" x="30.14" y="58.09" width="2.52" height="2.27" rx="0.88" ry="0.88"/><path class="cls-6" d="M35.78,58.09H33.67a.21.21,0,0,0-.21.22v1.83a.21.21,0,0,0,.21.22h2.11a.21.21,0,0,0,.2-.22V58.31A.21.21,0,0,0,35.78,58.09Z"/><path class="cls-6" d="M39.1,58.09H37a.22.22,0,0,0-.21.22v1.83a.22.22,0,0,0,.21.22H39.1a.21.21,0,0,0,.21-.22V58.31A.21.21,0,0,0,39.1,58.09Z"/><path class="cls-6" d="M42.42,58.09h-2.1a.21.21,0,0,0-.21.22v1.83a.21.21,0,0,0,.21.22h2.1a.21.21,0,0,0,.21-.22V58.31A.21.21,0,0,0,42.42,58.09Z"/><path class="cls-6" d="M45.75,58.09H43.64a.21.21,0,0,0-.21.22v1.83a.21.21,0,0,0,.21.22h2.11a.21.21,0,0,0,.2-.22V58.31A.21.21,0,0,0,45.75,58.09Z"/><path class="cls-6" d="M49.07,58.09H47a.22.22,0,0,0-.21.22v1.83a.22.22,0,0,0,.21.22h2.11a.21.21,0,0,0,.21-.22V58.31A.21.21,0,0,0,49.07,58.09Z"/><path class="cls-6" d="M52.39,58.09h-2.1a.21.21,0,0,0-.21.22v1.83a.21.21,0,0,0,.21.22h2.1a.21.21,0,0,0,.21-.22V58.31A.21.21,0,0,0,52.39,58.09Z"/><path class="cls-6" d="M55.72,58.09H53.61a.21.21,0,0,0-.21.22v1.83a.21.21,0,0,0,.21.22h2.11a.21.21,0,0,0,.2-.22V58.31A.21.21,0,0,0,55.72,58.09Z"/><path class="cls-6" d="M59,58.09H56.93a.22.22,0,0,0-.21.22v1.83a.22.22,0,0,0,.21.22H59a.21.21,0,0,0,.21-.22V58.31A.21.21,0,0,0,59,58.09Z"/><path class="cls-6" d="M62.36,58.09h-2.1a.21.21,0,0,0-.21.22v1.83a.21.21,0,0,0,.21.22h2.1a.21.21,0,0,0,.21-.22V58.31A.21.21,0,0,0,62.36,58.09Z"/><path class="cls-6" d="M65.69,58.09H63.58a.21.21,0,0,0-.21.22v1.83a.21.21,0,0,0,.21.22h2.11a.21.21,0,0,0,.2-.22V58.31A.21.21,0,0,0,65.69,58.09Z"/><rect class="cls-6" x="66.69" y="58.09" width="2.52" height="2.27" rx="0.88" ry="0.88"/><path class="cls-6" d="M35.78,61.23H30.35a.21.21,0,0,0-.21.21v1.84a.21.21,0,0,0,.21.22h5.43a.21.21,0,0,0,.2-.22V61.44A.21.21,0,0,0,35.78,61.23Z"/><path class="cls-6" d="M39.1,61.23H37a.22.22,0,0,0-.21.21v1.84a.22.22,0,0,0,.21.22H39.1a.21.21,0,0,0,.21-.22V61.44A.21.21,0,0,0,39.1,61.23Z"/><path class="cls-6" d="M42.42,61.23h-2.1a.21.21,0,0,0-.21.21v1.84a.21.21,0,0,0,.21.22h2.1a.21.21,0,0,0,.21-.22V61.44A.21.21,0,0,0,42.42,61.23Z"/><path class="cls-6" d="M45.75,61.23H43.64a.21.21,0,0,0-.21.21v1.84a.21.21,0,0,0,.21.22h2.11a.21.21,0,0,0,.2-.22V61.44A.21.21,0,0,0,45.75,61.23Z"/><path class="cls-6" d="M49.07,61.23H47a.22.22,0,0,0-.21.21v1.84a.22.22,0,0,0,.21.22h2.11a.21.21,0,0,0,.21-.22V61.44A.21.21,0,0,0,49.07,61.23Z"/><path class="cls-6" d="M52.39,61.23h-2.1a.21.21,0,0,0-.21.21v1.84a.21.21,0,0,0,.21.22h2.1a.21.21,0,0,0,.21-.22V61.44A.21.21,0,0,0,52.39,61.23Z"/><path class="cls-6" d="M55.72,61.23H53.61a.21.21,0,0,0-.21.21v1.84a.21.21,0,0,0,.21.22h2.11a.21.21,0,0,0,.2-.22V61.44A.21.21,0,0,0,55.72,61.23Z"/><path class="cls-6" d="M59,61.23H56.93a.22.22,0,0,0-.21.21v1.84a.22.22,0,0,0,.21.22H59a.21.21,0,0,0,.21-.22V61.44A.21.21,0,0,0,59,61.23Z"/><path class="cls-6" d="M62.36,61.23h-2.1a.21.21,0,0,0-.21.21v1.84a.21.21,0,0,0,.21.22h2.1a.21.21,0,0,0,.21-.22V61.44A.21.21,0,0,0,62.36,61.23Z"/><path class="cls-6" d="M69,61.23H63.58a.21.21,0,0,0-.21.21v1.84a.21.21,0,0,0,.21.22H69a.21.21,0,0,0,.21-.22V61.44A.21.21,0,0,0,69,61.23Z"/><path class="cls-6" d="M40.74,64.34H38.63a.21.21,0,0,0-.2.21v1.84a.21.21,0,0,0,.2.22h2.11a.21.21,0,0,0,.21-.22V64.55A.21.21,0,0,0,40.74,64.34Z"/><path class="cls-6" d="M44.07,64.34H42a.21.21,0,0,0-.21.21v1.84a.21.21,0,0,0,.21.22h2.11a.21.21,0,0,0,.2-.22V64.55A.21.21,0,0,0,44.07,64.34Z"/><path class="cls-6" d="M47.39,64.34H45.28a.22.22,0,0,0-.21.21v1.84a.22.22,0,0,0,.21.22h2.11a.22.22,0,0,0,.21-.22V64.55A.22.22,0,0,0,47.39,64.34Z"/><path class="cls-6" d="M50.71,64.34H48.6a.21.21,0,0,0-.2.21v1.84a.21.21,0,0,0,.2.22h2.11a.21.21,0,0,0,.21-.22V64.55A.21.21,0,0,0,50.71,64.34Z"/><path class="cls-6" d="M54,64.34H51.93a.21.21,0,0,0-.21.21v1.84a.21.21,0,0,0,.21.22H54a.21.21,0,0,0,.2-.22V64.55A.21.21,0,0,0,54,64.34Z"/><path class="cls-6" d="M57.36,64.34H55.25a.22.22,0,0,0-.21.21v1.84a.22.22,0,0,0,.21.22h2.11a.22.22,0,0,0,.21-.22V64.55A.22.22,0,0,0,57.36,64.34Z"/><path class="cls-6" d="M60.69,64.34H58.58a.22.22,0,0,0-.21.21v1.84a.22.22,0,0,0,.21.22h2.11a.22.22,0,0,0,.21-.22V64.55A.22.22,0,0,0,60.69,64.34Z"/><path class="cls-6" d="M69,64.34h-7a.18.18,0,0,0-.18.18v1.91a.19.19,0,0,0,.18.18h7a.21.21,0,0,0,.21-.22V64.55A.21.21,0,0,0,69,64.34Z"/><path class="cls-6" d="M37.27,64.34h-7a.18.18,0,0,0-.17.18v1.91a.18.18,0,0,0,.17.18h7a.21.21,0,0,0,.21-.22V64.55A.21.21,0,0,0,37.27,64.34Z"/><path class="cls-6" d="M32.45,67.46h-2.1a.21.21,0,0,0-.21.22v2.26a.21.21,0,0,0,.21.22h2.1a.21.21,0,0,0,.21-.22V67.68A.21.21,0,0,0,32.45,67.46Z"/><path class="cls-6" d="M35.78,67.46H33.67a.21.21,0,0,0-.21.22v2.26a.21.21,0,0,0,.21.22h2.11a.21.21,0,0,0,.2-.22V67.68A.21.21,0,0,0,35.78,67.46Z"/><path class="cls-6" d="M39.1,67.46H37a.22.22,0,0,0-.21.22v2.26a.22.22,0,0,0,.21.22H39.1a.21.21,0,0,0,.21-.22V67.68A.21.21,0,0,0,39.1,67.46Z"/><path class="cls-6" d="M42.42,67.46h-2.1a.21.21,0,0,0-.21.22v2.26a.21.21,0,0,0,.21.22h2.1a.21.21,0,0,0,.21-.22V67.68A.21.21,0,0,0,42.42,67.46Z"/><path class="cls-6" d="M55.72,67.46H43.64a.21.21,0,0,0-.21.22v2.26a.21.21,0,0,0,.21.22H55.72a.21.21,0,0,0,.2-.22V67.68A.21.21,0,0,0,55.72,67.46Z"/><path class="cls-6" d="M59,67.46H56.93a.22.22,0,0,0-.21.22v2.26a.22.22,0,0,0,.21.22H59a.21.21,0,0,0,.21-.22V67.68A.21.21,0,0,0,59,67.46Z"/><path class="cls-6" d="M62.36,67.46h-2.1a.21.21,0,0,0-.21.22v2.26a.21.21,0,0,0,.21.22h2.1a.21.21,0,0,0,.21-.22V67.68A.21.21,0,0,0,62.36,67.46Z"/><path class="cls-6" d="M65.69,67.46H63.58a.21.21,0,0,0-.21.22v2.26a.21.21,0,0,0,.21.22h2.11a.21.21,0,0,0,.2-.22V67.68A.21.21,0,0,0,65.69,67.46Z"/><path class="cls-6" d="M69,67.46H66.9a.22.22,0,0,0-.21.22v2.26a.22.22,0,0,0,.21.22H69a.21.21,0,0,0,.21-.22V67.68A.21.21,0,0,0,69,67.46Z"/><path class="cls-8" d="M48.64,31.35v-.91a.32.32,0,0,1,.32-.32H50.4a.31.31,0,0,1,.31.32v.91h.57v-.91a.88.88,0,0,0-.88-.89H49a.89.89,0,0,0-.89.89v.91Z"/><path class="cls-8" d="M47.43,31.63v3a.78.78,0,0,0,.78.78h2.94a.78.78,0,0,0,.78-.78v-3Zm2.64,2.79h-.79l.12-1.09a.52.52,0,0,1,.28-.95.51.51,0,0,1,.51.52.5.5,0,0,1-.24.43Z"/><rect class="cls-9" x="40.77" y="37.11" width="17.81" height="3.32" rx="0.42" ry="0.42"/><path class="cls-10" d="M42.77,38.85a.46.46,0,0,1-.46.46.47.47,0,0,1-.46-.46.46.46,0,0,1,.46-.46A.45.45,0,0,1,42.77,38.85Z"/><circle class="cls-10" cx="43.85" cy="38.85" r="0.46"/><path class="cls-10" d="M45.85,38.85a.46.46,0,0,1-.92,0,.46.46,0,0,1,.92,0Z"/><circle class="cls-10" cx="46.93" cy="38.85" r="0.46"/><path class="cls-10" d="M48.93,38.85a.47.47,0,0,1-.46.46.46.46,0,0,1-.46-.46.45.45,0,0,1,.46-.46A.46.46,0,0,1,48.93,38.85Z"/><circle class="cls-10" cx="50" cy="38.85" r="0.46"/><path class="cls-10" d="M52,38.85a.46.46,0,0,1-.46.46.47.47,0,0,1-.46-.46.46.46,0,0,1,.46-.46A.45.45,0,0,1,52,38.85Z"/><circle class="cls-10" cx="53.08" cy="38.85" r="0.46"/><path class="cls-10" d="M55.08,38.85a.47.47,0,0,1-.46.46.46.46,0,0,1-.46-.46.45.45,0,0,1,.46-.46A.46.46,0,0,1,55.08,38.85Z"/><rect class="cls-3" x="41.47" y="72.46" width="16.41" height="10.88" rx="4.18" ry="4.18"/><polygon class="cls-2" points="20.32 0 6.48 0 6.48 21.72 24.19 21.72 24.19 3.87 20.32 0"/><polygon class="cls-3" points="20.32 3.87 24.19 3.87 20.32 0 20.32 3.87"/><rect class="cls-3" x="8.6" y="18.47" width="5.95" height="0.68"/><rect class="cls-3" x="15.48" y="18.47" width="2.31" height="0.68"/><path class="cls-11" d="M15.27,5.43a3.41,3.41,0,0,1-.11.85A3.53,3.53,0,0,1,11.74,9H11.6a3.53,3.53,0,1,1,3.67-3.52Z"/><rect class="cls-3" x="16.23" y="2.7" width="5.19" height="0.68"/><rect class="cls-3" x="8.6" y="10.89" width="9.39" height="0.68"/><rect class="cls-3" x="15.03" y="13.57" width="1.9" height="0.68"/><rect class="cls-3" x="8.6" y="13.57" width="5.27" height="0.68"/><rect class="cls-3" x="13.51" y="15.93" width="2.88" height="0.68"/><rect class="cls-3" x="17.21" y="15.93" width="1.47" height="0.68"/><rect class="cls-3" x="8.6" y="15.93" width="3.7" height="0.68"/><rect class="cls-3" x="16.23" y="4.27" width="2.92" height="0.68"/><path class="cls-11" d="M15.16,6.28A3.53,3.53,0,0,1,11.74,9H11.6L9.82,7.18l1.53-1.53V4l1-.52Z"/><path class="cls-8" d="M12.57,4.19a.92.92,0,1,1-.91-.94A.93.93,0,0,1,12.57,4.19Z"/><path class="cls-8" d="M13.49,7.18a1.84,1.84,0,0,0-3.67,0Z"/><path class="cls-7" d="M20.08,55.45H9.4a3,3,0,0,0-3.05,3v6.18a3,3,0,0,0,3.05,3h6.76l4.41,2.32-.86-2.32h.37a3,3,0,0,0,3.05-3V58.5A3,3,0,0,0,20.08,55.45Z"/><rect class="cls-8" x="8.41" y="58.15" width="7.37" height="0.75"/><rect class="cls-8" x="17.16" y="58.15" width="3.82" height="0.75"/><rect class="cls-8" x="8.41" y="60.97" width="5.27" height="0.75"/><rect class="cls-8" x="15.17" y="60.97" width="5.8" height="0.75"/><rect class="cls-8" x="8.41" y="63.65" width="9.21" height="0.75"/><path class="cls-7" d="M2.51,68.2H11.3a2.5,2.5,0,0,1,2.5,2.51V75.8a2.5,2.5,0,0,1-2.5,2.5H5.73L2.11,80.21l.71-1.91H2.51A2.5,2.5,0,0,1,0,75.8V70.71A2.51,2.51,0,0,1,2.51,68.2Z"/><rect class="cls-8" x="1.54" y="70.47" width="11" height="0.79"/><rect class="cls-8" x="10.49" y="75.09" width="1.14" height="0.79"/><rect class="cls-8" x="1.54" y="75.09" width="8.13" height="0.79"/><rect class="cls-8" x="6.71" y="72.96" width="1.91" height="0.79"/><path class="cls-12" d="M13,66.87A4.66,4.66,0,0,1,8.59,71.5H8.31A4.64,4.64,0,1,1,13,66.87Z"/><path class="cls-13" d="M12.87,67.71A4.64,4.64,0,0,1,8.59,71.5L6.48,69.4l3-5.06Z"/><path class="cls-8" d="M9.79,66.09V65A.82.82,0,0,0,9,64.16H7.64a.82.82,0,0,0-.82.82v1.11h-.6v2.78a.73.73,0,0,0,.72.72H9.67a.72.72,0,0,0,.72-.72V66.09ZM7.35,65a.29.29,0,0,1,.29-.29H9a.29.29,0,0,1,.3.29v1.11H7.35Zm1.32,3.69H7.94l.11-1a.48.48,0,0,1,.26-.88.48.48,0,0,1,.47.48.48.48,0,0,1-.22.4Z"/><path class="cls-14" d="M87.25,71.86h-10a.4.4,0,0,1-.39-.39v-7a.39.39,0,0,1,.39-.39h10a.38.38,0,0,1,.39.39v7a.39.39,0,0,1-.39.39Z"/><path class="cls-15" d="M77.81,71.12a.18.18,0,0,1-.18.18.18.18,0,0,1-.19-.18.18.18,0,0,1,.19-.19.18.18,0,0,1,.18.19Z"/><path class="cls-15" d="M87.09,64.81a.19.19,0,1,1-.19-.19.2.2,0,0,1,.19.19Z"/><path class="cls-15" d="M87.09,71.12a.19.19,0,1,1-.19-.19.19.19,0,0,1,.19.19Z"/><path class="cls-16" d="M84.93,68.93c.19.45-.22,1-.92,1.36s-1.42.2-1.61-.25.21-1.05.91-1.36,1.42-.19,1.62.25Z"/><g class="cls-17"><path class="cls-18" d="M84.93,68.93c.19.45-.22,1-.92,1.36s-1.42.2-1.61-.25.21-1.05.91-1.36,1.42-.19,1.62.25Z"/></g><path class="cls-15" d="M78.37,68.52H76.88V64.46a.39.39,0,0,1,.39-.39h5.55a4.45,4.45,0,0,1-4.45,4.45Z"/><path class="cls-19" d="M87.64,70.37H86.9l-.37-.55v-3.9h1.11Z"/><rect class="cls-20" x="86.9" y="66.29" width="0.74" height="0.37"/><rect class="cls-20" x="86.9" y="66.85" width="0.74" height="0.37"/><rect class="cls-20" x="86.9" y="67.41" width="0.74" height="0.37"/><rect class="cls-20" x="86.9" y="67.96" width="0.74" height="0.37"/><rect class="cls-20" x="87.09" y="69.63" width="0.56" height="0.37"/><rect class="cls-20" x="86.9" y="69.08" width="0.74" height="0.37"/><rect class="cls-21" x="77.44" y="67.22" width="0.37" height="0.37"/><rect class="cls-21" x="77.44" y="66.67" width="0.37" height="0.37"/><rect class="cls-21" x="77.44" y="66.11" width="0.37" height="0.37"/><rect class="cls-21" x="77.44" y="65.55" width="0.37" height="0.37"/><rect class="cls-21" x="77.44" y="65" width="0.37" height="0.37"/><rect class="cls-21" x="78.55" y="65" width="2.41" height="0.37"/><rect class="cls-21" x="78.55" y="65.55" width="1.85" height="0.37"/><rect class="cls-21" x="78.55" y="66.11" width="2.04" height="0.37"/><rect class="cls-21" x="78.55" y="66.67" width="0.74" height="0.37"/><path class="cls-14" d="M99,80.81H89a.39.39,0,0,1-.39-.39v-7A.38.38,0,0,1,89,73H99a.39.39,0,0,1,.39.39v7a.4.4,0,0,1-.39.39Z"/><path class="cls-15" d="M89.55,80.07a.19.19,0,0,1-.19.18.18.18,0,0,1-.18-.18.18.18,0,0,1,.18-.19.19.19,0,0,1,.19.19Z"/><path class="cls-15" d="M98.82,73.76a.19.19,0,1,1-.19-.19.19.19,0,0,1,.19.19Z"/><path class="cls-15" d="M98.82,80.07a.18.18,0,0,1-.19.18.18.18,0,0,1-.18-.18.18.18,0,0,1,.18-.19.18.18,0,0,1,.19.19Z"/><path class="cls-16" d="M96.66,77.88c.2.45-.21,1.05-.91,1.36s-1.42.2-1.62-.25.21-1,.91-1.36,1.43-.19,1.62.25Z"/><g class="cls-22"><path class="cls-18" d="M96.66,77.88c.2.45-.21,1.05-.91,1.36s-1.42.2-1.62-.25.21-1,.91-1.36,1.43-.19,1.62.25Z"/></g><path class="cls-15" d="M90.1,77.47H88.62V73.41A.38.38,0,0,1,89,73h5.54a4.45,4.45,0,0,1-4.45,4.45Z"/><path class="cls-19" d="M99.38,79.32h-.75l-.37-.55v-3.9h1.12Z"/><rect class="cls-20" x="98.63" y="75.24" width="0.74" height="0.37"/><rect class="cls-20" x="98.63" y="75.8" width="0.74" height="0.37"/><rect class="cls-20" x="98.63" y="76.36" width="0.74" height="0.37"/><rect class="cls-20" x="98.63" y="76.91" width="0.74" height="0.37"/><rect class="cls-20" x="98.82" y="78.58" width="0.56" height="0.37"/><rect class="cls-20" x="98.63" y="78.03" width="0.74" height="0.37"/><rect class="cls-21" x="89.18" y="76.17" width="0.37" height="0.37"/><rect class="cls-21" x="89.18" y="75.62" width="0.37" height="0.37"/><rect class="cls-21" x="89.18" y="75.06" width="0.37" height="0.37"/><rect class="cls-21" x="89.18" y="74.5" width="0.37" height="0.37"/><rect class="cls-21" x="89.18" y="73.95" width="0.37" height="0.37"/><rect class="cls-21" x="90.29" y="73.95" width="2.41" height="0.37"/><rect class="cls-21" x="90.29" y="74.5" width="1.85" height="0.37"/><rect class="cls-21" x="90.29" y="75.06" width="2.04" height="0.37"/><rect class="cls-21" x="90.29" y="75.62" width="0.74" height="0.37"/><path class="cls-23" d="M91,66.23a.53.53,0,0,0,.74,0,.51.51,0,0,0,0-.74L90.62,64.4h3.63a4,4,0,0,1,4,4V70.7a.52.52,0,0,0,1,0V68.35a5,5,0,0,0-5-5H90.62l1.09-1.09a.5.5,0,0,0,0-.73.51.51,0,0,0-.74,0l-2,2a.52.52,0,0,0,0,.73Z"/><path class="cls-23" d="M85.33,78.09a.51.51,0,0,0-.37-.15.51.51,0,0,0-.36.15.51.51,0,0,0,0,.74l1.09,1.09H82.06a4,4,0,0,1-4-4V73.63a.52.52,0,1,0-1,0V76a5,5,0,0,0,5,5h3.63L84.6,82.06a.51.51,0,0,0,0,.74.52.52,0,0,0,.73,0l2-2a.5.5,0,0,0,0-.73Z"/></g></g></svg>