<svg xmlns="http://www.w3.org/2000/svg" xmlns:xlink="http://www.w3.org/1999/xlink" viewBox="0 0 174.21 149.66"><defs><style>.cls-1,.cls-54{fill:none;}.cls-2{isolation:isolate;}.cls-3{opacity:0.45;mix-blend-mode:multiply;}.cls-10,.cls-11,.cls-12,.cls-13,.cls-14,.cls-15,.cls-16,.cls-17,.cls-18,.cls-19,.cls-20,.cls-21,.cls-22,.cls-23,.cls-24,.cls-25,.cls-26,.cls-27,.cls-28,.cls-29,.cls-30,.cls-31,.cls-32,.cls-33,.cls-34,.cls-35,.cls-4,.cls-5,.cls-6,.cls-7,.cls-8,.cls-9{fill:#c6ac85;}.cls-4{opacity:0;}.cls-5{opacity:0.03;}.cls-6{opacity:0.06;}.cls-7{opacity:0.1;}.cls-8{opacity:0.13;}.cls-9{opacity:0.16;}.cls-10{opacity:0.19;}.cls-11{opacity:0.23;}.cls-12{opacity:0.26;}.cls-13{opacity:0.29;}.cls-14{opacity:0.32;}.cls-15{opacity:0.35;}.cls-16{opacity:0.39;}.cls-17{opacity:0.42;}.cls-18{opacity:0.45;}.cls-19{opacity:0.48;}.cls-20{opacity:0.52;}.cls-21{opacity:0.55;}.cls-22{opacity:0.58;}.cls-23{opacity:0.61;}.cls-24{opacity:0.65;}.cls-25{opacity:0.68;}.cls-26{opacity:0.71;}.cls-27{opacity:0.74;}.cls-28{opacity:0.77;}.cls-29{opacity:0.81;}.cls-30{opacity:0.84;}.cls-31{opacity:0.87;}.cls-32{opacity:0.9;}.cls-33{opacity:0.94;}.cls-34{opacity:0.97;}.cls-36{fill:#e6e1e2;}.cls-37{fill:#d4d3d4;}.cls-38{fill:#ffcf5e;}.cls-39{fill:#e8b033;opacity:0.26;}.cls-40,.cls-45{fill:#5d5c71;}.cls-41{fill:#56bde9;}.cls-42{fill:#fff;}.cls-43{fill:#44a9d2;}.cls-44{fill:#89d4f6;}.cls-45{opacity:0.33;}.cls-46{fill:#f06064;}.cls-47{fill:#d73a46;}.cls-48{fill:#b62b3c;opacity:0.49;}.cls-49{fill:#ede0c2;}.cls-50{fill:#aeb5bb;}.cls-51{fill:#e6ebeb;}.cls-52{fill:#4b9fd7;}.cls-53{clip-path:url(#clip-path);}.cls-54{stroke:#fff;stroke-miterlimit:10;stroke-width:1.6px;}.cls-55{fill:#283238;}.cls-56{fill:#d2a96d;}.cls-57{fill:#6d797a;}.cls-58{clip-path:url(#clip-path-2);}.cls-59{fill:#3b91ca;}</style><clipPath id="clip-path"><rect class="cls-1" x="134.78" y="112.22" width="19.02" height="14.14"/></clipPath><clipPath id="clip-path-2"><rect class="cls-1" x="155.36" y="127.91" width="19.02" height="14.14"/></clipPath></defs><title>Asset 12</title><g class="cls-2"><g id="Layer_2" data-name="Layer 2"><g id="Layer_1-2" data-name="Layer 1"><g class="cls-3"><path class="cls-4" d="M55.4,29.39,41.2,33.93V49.45c0,7.93,14.2,14.48,14.2,14.48h0a44,44,0,0,0,6-3.42c3.89-2.66,8.25-6.63,8.25-11.06V33.93Z"/><path class="cls-5" d="M55.19,29.21,41,33.76V49.27c0,7.93,14.21,14.48,14.21,14.48h0a42.38,42.38,0,0,0,5.94-3.42c3.9-2.65,8.26-6.62,8.26-11.06V33.76Z"/><path class="cls-6" d="M55,29,40.77,33.59V49.1C40.77,57,55,63.58,55,63.58h0a43.6,43.6,0,0,0,5.94-3.42c3.89-2.66,8.25-6.63,8.25-11.06V33.59Z"/><path class="cls-7" d="M54.76,28.87l-14.2,4.54V48.93c0,7.93,14.2,14.48,14.2,14.48h0a45.35,45.35,0,0,0,6-3.42C64.6,57.33,69,53.36,69,48.93V33.41Z"/><path class="cls-8" d="M54.55,28.69,40.34,33.24V48.75c0,7.93,14.2,14.48,14.2,14.48h0a42.38,42.38,0,0,0,5.94-3.42c3.89-2.65,8.26-6.62,8.26-11.06V33.24Z"/><path class="cls-9" d="M54.33,28.52l-14.2,4.55V48.58c0,7.93,14.2,14.48,14.2,14.48h0a44,44,0,0,0,6-3.42C64.17,57,68.53,53,68.53,48.58V33.07Z"/><path class="cls-10" d="M54.12,28.35l-14.2,4.54V48.4c0,7.94,14.2,14.49,14.2,14.49h0a44.89,44.89,0,0,0,5.94-3.42c3.9-2.66,8.26-6.63,8.26-11.07V32.89Z"/><path class="cls-11" d="M53.91,28.17,39.7,32.72V48.23c0,7.93,14.2,14.48,14.2,14.48h0a43.6,43.6,0,0,0,5.94-3.42c3.89-2.66,8.25-6.63,8.25-11.06V32.72Z"/><path class="cls-12" d="M53.69,28l-14.2,4.54V48.06c0,7.93,14.2,14.48,14.2,14.48h0a44,44,0,0,0,6-3.42c3.89-2.66,8.25-6.63,8.25-11.06V32.54Z"/><path class="cls-13" d="M53.48,27.82,39.27,32.37V47.88c0,7.93,14.21,14.48,14.21,14.48h0a42.38,42.38,0,0,0,5.94-3.42c3.9-2.65,8.26-6.62,8.26-11.06V32.37Z"/><path class="cls-14" d="M53.27,27.65,39.06,32.2V47.71c0,7.93,14.2,14.48,14.2,14.48h0a43.6,43.6,0,0,0,5.94-3.42c3.89-2.66,8.25-6.63,8.25-11.06V32.2Z"/><path class="cls-15" d="M53.05,27.48,38.85,32V47.54c0,7.93,14.2,14.48,14.2,14.48h0a45.35,45.35,0,0,0,6-3.42c3.89-2.66,8.25-6.63,8.25-11.06V32Z"/><path class="cls-16" d="M52.84,27.3,38.63,31.85V47.36c0,7.93,14.2,14.48,14.2,14.48h0a42.38,42.38,0,0,0,5.94-3.42C62.67,55.77,67,51.8,67,47.36V31.85Z"/><path class="cls-17" d="M52.62,27.13l-14.2,4.55V47.19c0,7.93,14.2,14.48,14.2,14.48h0a44,44,0,0,0,6-3.42c3.89-2.66,8.25-6.63,8.25-11.06V31.68Z"/><path class="cls-18" d="M52.41,27,38.21,31.5V47c0,7.94,14.2,14.49,14.2,14.49h0a44.89,44.89,0,0,0,5.94-3.42c3.9-2.66,8.26-6.63,8.26-11.07V31.5Z"/><path class="cls-19" d="M52.2,26.78,38,31.33V46.84c0,7.93,14.2,14.48,14.2,14.48h0a43.6,43.6,0,0,0,5.94-3.42c3.89-2.66,8.25-6.62,8.25-11.06V31.33Z"/><path class="cls-20" d="M52,26.61l-14.2,4.54V46.67C37.78,54.6,52,61.15,52,61.15h0a44,44,0,0,0,6-3.42c3.89-2.66,8.25-6.63,8.25-11.06V31.15Z"/><path class="cls-21" d="M51.77,26.43,37.56,31V46.49C37.56,54.42,51.77,61,51.77,61h0a42.89,42.89,0,0,0,5.94-3.41C61.61,54.9,66,50.93,66,46.49V31Z"/><path class="cls-22" d="M51.56,26.26,37.35,30.81V46.32c0,7.93,14.2,14.48,14.2,14.48h0a43.6,43.6,0,0,0,5.94-3.42c3.89-2.66,8.25-6.63,8.25-11.06V30.81Z"/><path class="cls-23" d="M51.34,26.09l-14.2,4.54V46.15c0,7.93,14.2,14.48,14.2,14.48h0a45.35,45.35,0,0,0,5.95-3.42c3.89-2.66,8.25-6.63,8.25-11.06V30.63Z"/><path class="cls-24" d="M51.13,25.91,36.92,30.46V46c0,7.93,14.2,14.48,14.2,14.48h0A42.38,42.38,0,0,0,57.07,57C61,54.38,65.33,50.41,65.33,46V30.46Z"/><path class="cls-25" d="M50.91,25.74l-14.2,4.55V45.8c0,7.93,14.2,14.48,14.2,14.48h0a44,44,0,0,0,6-3.42c3.89-2.66,8.25-6.63,8.25-11.06V30.29Z"/><path class="cls-26" d="M50.7,25.57,36.5,30.11V45.62c0,7.94,14.2,14.49,14.2,14.49h0a44.89,44.89,0,0,0,5.94-3.42c3.9-2.66,8.26-6.63,8.26-11.07V30.11Z"/><path class="cls-27" d="M50.49,25.39,36.28,29.94V45.45c0,7.93,14.2,14.48,14.2,14.48h0a43.6,43.6,0,0,0,5.94-3.42c3.89-2.66,8.25-6.62,8.25-11.06V29.94Z"/><path class="cls-28" d="M50.27,25.22l-14.2,4.54V45.28c0,7.93,14.2,14.48,14.2,14.48h0a44,44,0,0,0,5.95-3.42c3.89-2.66,8.25-6.63,8.25-11.06V29.76Z"/><path class="cls-29" d="M50.06,25,35.85,29.59V45.1c0,7.93,14.21,14.48,14.21,14.48h0A42.89,42.89,0,0,0,56,56.17c3.9-2.66,8.26-6.63,8.26-11.07V29.59Z"/><path class="cls-30" d="M49.85,24.87,35.64,29.42V44.93c0,7.93,14.2,14.48,14.2,14.48h0A43.6,43.6,0,0,0,55.79,56C59.68,53.33,64,49.36,64,44.93V29.42Z"/><path class="cls-31" d="M49.63,24.7l-14.2,4.54V44.76c0,7.93,14.2,14.48,14.2,14.48h0a45.35,45.35,0,0,0,5.95-3.42c3.89-2.66,8.25-6.63,8.25-11.06V29.24Z"/><path class="cls-32" d="M49.42,24.52,35.21,29.07V44.58c0,7.93,14.2,14.48,14.2,14.48h0a42.38,42.38,0,0,0,5.94-3.42C59.25,53,63.62,49,63.62,44.58V29.07Z"/><path class="cls-33" d="M49.2,24.35,35,28.9V44.41c0,7.93,14.2,14.48,14.2,14.48h0a44,44,0,0,0,5.95-3.42C59,52.81,63.4,48.84,63.4,44.41V28.9Z"/><path class="cls-34" d="M49,24.18l-14.2,4.54V44.23c0,7.94,14.2,14.49,14.2,14.49h0a44.89,44.89,0,0,0,5.94-3.42c3.9-2.66,8.26-6.63,8.26-11.07V28.72Z"/><path class="cls-35" d="M48.78,24,34.57,28.55V44.06c0,7.93,14.2,14.48,14.2,14.48h0a43.6,43.6,0,0,0,5.94-3.42C58.61,52.46,63,48.5,63,44.06V28.55Z"/></g><path class="cls-36" d="M153.49.49H123.94V31.85a4.72,4.72,0,0,0,4.72,4.72h27.79l-3-2.93Z"/><rect class="cls-37" x="126.25" y="2.9" width="24.06" height="1.52"/><rect class="cls-37" x="126.25" y="6.49" width="9.74" height="1.52"/><rect class="cls-37" x="126.25" y="10.3" width="16.48" height="1.52"/><rect class="cls-37" x="144.75" y="10.3" width="4.78" height="1.52"/><rect class="cls-37" x="126.25" y="14.21" width="16.89" height="1.52"/><rect class="cls-37" x="126.25" y="18.12" width="14.39" height="1.52"/><rect class="cls-37" x="126.25" y="22.03" width="14.39" height="1.52"/><rect class="cls-37" x="126.25" y="25.94" width="14.39" height="1.52"/><path class="cls-37" d="M159.08,17h-5.77V33.69a2.88,2.88,0,0,0,2.88,2.88h0a2.88,2.88,0,0,0,2.89-2.88Z"/><path class="cls-38" d="M150.68,24.71V41.66a3.43,3.43,0,0,1-3.43,3.43h-27.5a3.44,3.44,0,0,1-3.22-2.22,3.25,3.25,0,0,1-.22-1.21v-22a3.45,3.45,0,0,1,3.44-3.45h6a3,3,0,0,1,3,3.05A1.68,1.68,0,0,0,130.52,21h16.42A3.74,3.74,0,0,1,150.68,24.71Z"/><path class="cls-39" d="M150.68,24.71V41.66a3.43,3.43,0,0,1-3.43,3.43h-27.5a3.44,3.44,0,0,1-3.22-2.22c22.18.27,26.21-13.94,26.73-21.91h3.68A3.74,3.74,0,0,1,150.68,24.71Z"/><path id="_Path_" data-name="&lt;Path&gt;" class="cls-37" d="M128,95.8a4,4,0,0,0-4-3.9H50.2a4,4,0,0,0-4,3.9v50a4,4,0,0,0,4,3.9H124a4,4,0,0,0,4-3.9Z"/><rect class="cls-40" x="46.2" y="33.43" width="81.79" height="56.87" rx="7.17" ry="7.17"/><rect class="cls-41" x="62.82" y="25.13" width="48.54" height="73.46" transform="translate(148.95 -25.23) rotate(90)"/><path id="_Path_2" data-name="&lt;Path&gt;" class="cls-36" d="M128,94.16a3.94,3.94,0,0,0-4-3.89H50.2a3.94,3.94,0,0,0-4,3.89v50a3.94,3.94,0,0,0,4,3.89H124a3.94,3.94,0,0,0,4-3.89Z"/><rect id="_Path_3" data-name="&lt;Path&gt;" class="cls-37" x="50.5" y="95.67" width="73.18" height="29.28" rx="2.22" ry="2.22"/><path id="_Path_4" data-name="&lt;Path&gt;" class="cls-40" d="M57,90.27v2.36a.93.93,0,0,0,.93.92h58.32a.92.92,0,0,0,.92-.92V90.27Z"/><rect class="cls-40" x="52.83" y="97.63" width="4.42" height="2.72" rx="0.68" ry="0.68"/><path class="cls-40" d="M62.72,97.63H59a.37.37,0,0,0-.36.38v2a.37.37,0,0,0,.36.38h3.7a.37.37,0,0,0,.36-.38V98A.37.37,0,0,0,62.72,97.63Z"/><path class="cls-40" d="M68.55,97.63h-3.7a.37.37,0,0,0-.36.38v2a.37.37,0,0,0,.36.38h3.7a.37.37,0,0,0,.36-.38V98A.37.37,0,0,0,68.55,97.63Z"/><path class="cls-40" d="M74.37,97.63H70.68a.37.37,0,0,0-.37.38v2a.37.37,0,0,0,.37.38h3.69a.38.38,0,0,0,.37-.38V98A.38.38,0,0,0,74.37,97.63Z"/><path class="cls-40" d="M80.2,97.63H76.5a.37.37,0,0,0-.36.38v2a.37.37,0,0,0,.36.38h3.7a.37.37,0,0,0,.36-.38V98A.37.37,0,0,0,80.2,97.63Z"/><path class="cls-40" d="M86,97.63H82.33A.38.38,0,0,0,82,98v2a.38.38,0,0,0,.37.38H86a.38.38,0,0,0,.37-.38V98A.38.38,0,0,0,86,97.63Z"/><path class="cls-40" d="M91.85,97.63h-3.7a.37.37,0,0,0-.36.38v2a.37.37,0,0,0,.36.38h3.7a.37.37,0,0,0,.36-.38V98A.37.37,0,0,0,91.85,97.63Z"/><path class="cls-40" d="M97.68,97.63H94a.37.37,0,0,0-.36.38v2a.37.37,0,0,0,.36.38h3.7A.37.37,0,0,0,98,100V98A.37.37,0,0,0,97.68,97.63Z"/><path class="cls-40" d="M103.5,97.63H99.81a.37.37,0,0,0-.37.38v2a.37.37,0,0,0,.37.38h3.69a.38.38,0,0,0,.37-.38V98A.38.38,0,0,0,103.5,97.63Z"/><path class="cls-40" d="M109.33,97.63h-3.7a.37.37,0,0,0-.36.38v2a.37.37,0,0,0,.36.38h3.7a.37.37,0,0,0,.36-.38V98A.37.37,0,0,0,109.33,97.63Z"/><path class="cls-40" d="M115.15,97.63h-3.69a.38.38,0,0,0-.37.38v2a.38.38,0,0,0,.37.38h3.69a.38.38,0,0,0,.37-.38V98A.38.38,0,0,0,115.15,97.63Z"/><rect class="cls-40" x="116.92" y="97.63" width="4.42" height="2.72" rx="0.68" ry="0.68"/><rect class="cls-40" x="52.83" y="101.84" width="4.42" height="3.97" rx="0.88" ry="0.88"/><path class="cls-40" d="M62.72,101.84H59a.37.37,0,0,0-.36.38v3.21a.37.37,0,0,0,.36.38h3.7a.37.37,0,0,0,.36-.38v-3.21A.37.37,0,0,0,62.72,101.84Z"/><path class="cls-40" d="M68.55,101.84h-3.7a.37.37,0,0,0-.36.38v3.21a.37.37,0,0,0,.36.38h3.7a.37.37,0,0,0,.36-.38v-3.21A.37.37,0,0,0,68.55,101.84Z"/><path class="cls-40" d="M74.37,101.84H70.68a.37.37,0,0,0-.37.38v3.21a.37.37,0,0,0,.37.38h3.69a.38.38,0,0,0,.37-.38v-3.21A.38.38,0,0,0,74.37,101.84Z"/><path class="cls-40" d="M80.2,101.84H76.5a.37.37,0,0,0-.36.38v3.21a.37.37,0,0,0,.36.38h3.7a.37.37,0,0,0,.36-.38v-3.21A.37.37,0,0,0,80.2,101.84Z"/><path class="cls-40" d="M86,101.84H82.33a.38.38,0,0,0-.37.38v3.21a.38.38,0,0,0,.37.38H86a.38.38,0,0,0,.37-.38v-3.21A.38.38,0,0,0,86,101.84Z"/><path class="cls-40" d="M91.85,101.84h-3.7a.37.37,0,0,0-.36.38v3.21a.37.37,0,0,0,.36.38h3.7a.37.37,0,0,0,.36-.38v-3.21A.37.37,0,0,0,91.85,101.84Z"/><path class="cls-40" d="M97.68,101.84H94a.37.37,0,0,0-.36.38v3.21a.37.37,0,0,0,.36.38h3.7a.37.37,0,0,0,.36-.38v-3.21A.37.37,0,0,0,97.68,101.84Z"/><path class="cls-40" d="M103.5,101.84H99.81a.37.37,0,0,0-.37.38v3.21a.37.37,0,0,0,.37.38h3.69a.38.38,0,0,0,.37-.38v-3.21A.38.38,0,0,0,103.5,101.84Z"/><path class="cls-40" d="M109.33,101.84h-3.7a.37.37,0,0,0-.36.38v3.21a.37.37,0,0,0,.36.38h3.7a.37.37,0,0,0,.36-.38v-3.21A.37.37,0,0,0,109.33,101.84Z"/><path class="cls-40" d="M115.15,101.84h-3.69a.38.38,0,0,0-.37.38v3.21a.38.38,0,0,0,.37.38h3.69a.38.38,0,0,0,.37-.38v-3.21A.38.38,0,0,0,115.15,101.84Z"/><rect class="cls-40" x="116.92" y="101.84" width="4.42" height="3.97" rx="0.88" ry="0.88"/><path class="cls-40" d="M62.72,107.34H53.2a.38.38,0,0,0-.37.38v3.21a.38.38,0,0,0,.37.38h9.52a.37.37,0,0,0,.36-.38v-3.21A.37.37,0,0,0,62.72,107.34Z"/><path class="cls-40" d="M68.55,107.34h-3.7a.37.37,0,0,0-.36.38v3.21a.37.37,0,0,0,.36.38h3.7a.37.37,0,0,0,.36-.38v-3.21A.37.37,0,0,0,68.55,107.34Z"/><path class="cls-40" d="M74.37,107.34H70.68a.37.37,0,0,0-.37.38v3.21a.37.37,0,0,0,.37.38h3.69a.38.38,0,0,0,.37-.38v-3.21A.38.38,0,0,0,74.37,107.34Z"/><path class="cls-40" d="M80.2,107.34H76.5a.37.37,0,0,0-.36.38v3.21a.37.37,0,0,0,.36.38h3.7a.37.37,0,0,0,.36-.38v-3.21A.37.37,0,0,0,80.2,107.34Z"/><path class="cls-40" d="M86,107.34H82.33a.38.38,0,0,0-.37.38v3.21a.38.38,0,0,0,.37.38H86a.38.38,0,0,0,.37-.38v-3.21A.38.38,0,0,0,86,107.34Z"/><path class="cls-40" d="M91.85,107.34h-3.7a.37.37,0,0,0-.36.38v3.21a.37.37,0,0,0,.36.38h3.7a.37.37,0,0,0,.36-.38v-3.21A.37.37,0,0,0,91.85,107.34Z"/><path class="cls-40" d="M97.68,107.34H94a.37.37,0,0,0-.36.38v3.21a.37.37,0,0,0,.36.38h3.7a.37.37,0,0,0,.36-.38v-3.21A.37.37,0,0,0,97.68,107.34Z"/><path class="cls-40" d="M103.5,107.34H99.81a.37.37,0,0,0-.37.38v3.21a.37.37,0,0,0,.37.38h3.69a.38.38,0,0,0,.37-.38v-3.21A.38.38,0,0,0,103.5,107.34Z"/><path class="cls-40" d="M109.33,107.34h-3.7a.37.37,0,0,0-.36.38v3.21a.37.37,0,0,0,.36.38h3.7a.37.37,0,0,0,.36-.38v-3.21A.37.37,0,0,0,109.33,107.34Z"/><path class="cls-40" d="M121,107.34h-9.52a.38.38,0,0,0-.37.38v3.21a.38.38,0,0,0,.37.38H121a.37.37,0,0,0,.36-.38v-3.21A.37.37,0,0,0,121,107.34Z"/><path class="cls-40" d="M71.42,112.79H67.73a.38.38,0,0,0-.37.38v3.21a.38.38,0,0,0,.37.38h3.69a.38.38,0,0,0,.37-.38v-3.21A.38.38,0,0,0,71.42,112.79Z"/><path class="cls-40" d="M77.25,112.79h-3.7a.37.37,0,0,0-.36.38v3.21a.37.37,0,0,0,.36.38h3.7a.37.37,0,0,0,.36-.38v-3.21A.37.37,0,0,0,77.25,112.79Z"/><path class="cls-40" d="M83.07,112.79H79.38a.38.38,0,0,0-.37.38v3.21a.38.38,0,0,0,.37.38h3.69a.37.37,0,0,0,.37-.38v-3.21A.37.37,0,0,0,83.07,112.79Z"/><path class="cls-40" d="M88.9,112.79H85.2a.37.37,0,0,0-.36.38v3.21a.37.37,0,0,0,.36.38h3.7a.37.37,0,0,0,.36-.38v-3.21A.37.37,0,0,0,88.9,112.79Z"/><path class="cls-40" d="M94.73,112.79H91a.37.37,0,0,0-.36.38v3.21a.37.37,0,0,0,.36.38h3.7a.37.37,0,0,0,.36-.38v-3.21A.37.37,0,0,0,94.73,112.79Z"/><path class="cls-40" d="M100.55,112.79H96.86a.38.38,0,0,0-.37.38v3.21a.38.38,0,0,0,.37.38h3.69a.38.38,0,0,0,.37-.38v-3.21A.38.38,0,0,0,100.55,112.79Z"/><path class="cls-40" d="M106.39,112.79H102.7a.38.38,0,0,0-.37.38v3.21a.38.38,0,0,0,.37.38h3.69a.38.38,0,0,0,.37-.38v-3.21A.38.38,0,0,0,106.39,112.79Z"/><path class="cls-40" d="M121,112.79H108.77a.3.3,0,0,0-.3.31v3.35a.3.3,0,0,0,.3.31H121a.37.37,0,0,0,.36-.38v-3.21A.37.37,0,0,0,121,112.79Z"/><path class="cls-40" d="M65.34,112.79H53.14a.31.31,0,0,0-.31.31v3.35a.31.31,0,0,0,.31.31h12.2a.37.37,0,0,0,.37-.38v-3.21A.37.37,0,0,0,65.34,112.79Z"/><path class="cls-40" d="M56.89,118.26H53.2a.38.38,0,0,0-.37.38v4a.38.38,0,0,0,.37.38h3.69a.38.38,0,0,0,.37-.38v-4A.38.38,0,0,0,56.89,118.26Z"/><path class="cls-40" d="M62.72,118.26H59a.37.37,0,0,0-.36.38v4A.37.37,0,0,0,59,123h3.7a.37.37,0,0,0,.36-.38v-4A.37.37,0,0,0,62.72,118.26Z"/><path class="cls-40" d="M68.55,118.26h-3.7a.37.37,0,0,0-.36.38v4a.37.37,0,0,0,.36.38h3.7a.37.37,0,0,0,.36-.38v-4A.37.37,0,0,0,68.55,118.26Z"/><path class="cls-40" d="M74.37,118.26H70.68a.37.37,0,0,0-.37.38v4a.37.37,0,0,0,.37.38h3.69a.38.38,0,0,0,.37-.38v-4A.38.38,0,0,0,74.37,118.26Z"/><path class="cls-40" d="M97.68,118.26H76.5a.37.37,0,0,0-.36.38v4a.37.37,0,0,0,.36.38H97.68a.37.37,0,0,0,.36-.38v-4A.37.37,0,0,0,97.68,118.26Z"/><path class="cls-40" d="M103.5,118.26H99.81a.37.37,0,0,0-.37.38v4a.37.37,0,0,0,.37.38h3.69a.38.38,0,0,0,.37-.38v-4A.38.38,0,0,0,103.5,118.26Z"/><path class="cls-40" d="M109.33,118.26h-3.7a.37.37,0,0,0-.36.38v4a.37.37,0,0,0,.36.38h3.7a.37.37,0,0,0,.36-.38v-4A.37.37,0,0,0,109.33,118.26Z"/><path class="cls-40" d="M115.15,118.26h-3.69a.38.38,0,0,0-.37.38v4a.38.38,0,0,0,.37.38h3.69a.38.38,0,0,0,.37-.38v-4A.38.38,0,0,0,115.15,118.26Z"/><path class="cls-40" d="M121,118.26h-3.7a.37.37,0,0,0-.36.38v4a.37.37,0,0,0,.36.38H121a.37.37,0,0,0,.36-.38v-4A.37.37,0,0,0,121,118.26Z"/><path class="cls-42" d="M85.27,55v-1.6a.56.56,0,0,1,.56-.55h2.52a.55.55,0,0,1,.55.55V55h1v-1.6a1.54,1.54,0,0,0-1.55-1.55H85.83a1.55,1.55,0,0,0-1.56,1.55V55Z"/><path class="cls-42" d="M83.15,55.46v5.25a1.36,1.36,0,0,0,1.36,1.36h5.16A1.36,1.36,0,0,0,91,60.71V55.46Zm4.63,4.88H86.4l.21-1.91a.9.9,0,1,1,1,0Z"/><rect class="cls-43" x="71.48" y="65.06" width="31.22" height="5.82" rx="0.42" ry="0.42"/><path class="cls-44" d="M75,68.1a.81.81,0,1,1-.8-.81A.81.81,0,0,1,75,68.1Z"/><circle class="cls-44" cx="76.87" cy="68.1" r="0.81"/><path class="cls-44" d="M80.38,68.1a.81.81,0,1,1-.81-.81A.81.81,0,0,1,80.38,68.1Z"/><circle class="cls-44" cx="82.27" cy="68.1" r="0.81"/><path class="cls-44" d="M85.77,68.1a.81.81,0,1,1-1.61,0,.81.81,0,1,1,1.61,0Z"/><circle class="cls-44" cx="87.66" cy="68.1" r="0.81"/><path class="cls-44" d="M91.16,68.1a.81.81,0,1,1-.8-.81A.81.81,0,0,1,91.16,68.1Z"/><circle class="cls-44" cx="93.05" cy="68.1" r="0.81"/><path class="cls-44" d="M96.55,68.1a.81.81,0,1,1-.8-.81A.81.81,0,0,1,96.55,68.1Z"/><rect class="cls-37" x="72.7" y="127.03" width="28.77" height="19.07" rx="4.18" ry="4.18"/><polygon class="cls-36" points="35.63 0 11.36 0 11.36 38.07 42.4 38.07 42.4 6.78 35.63 0"/><polygon class="cls-37" points="35.63 6.78 42.4 6.78 35.63 0 35.63 6.78"/><rect class="cls-37" x="15.08" y="32.38" width="10.44" height="1.19"/><rect class="cls-37" x="27.14" y="32.38" width="4.05" height="1.19"/><path class="cls-45" d="M26.76,9.52a6.17,6.17,0,0,1-6.18,6.18h-.25a6.18,6.18,0,1,1,6.43-6.17Z"/><rect class="cls-37" x="28.46" y="4.73" width="9.09" height="1.19"/><rect class="cls-37" x="15.08" y="19.09" width="16.45" height="1.19"/><rect class="cls-37" x="26.35" y="23.78" width="3.33" height="1.19"/><rect class="cls-37" x="15.08" y="23.78" width="9.23" height="1.19"/><rect class="cls-37" x="23.68" y="27.93" width="5.05" height="1.19"/><rect class="cls-37" x="30.18" y="27.93" width="2.58" height="1.19"/><rect class="cls-37" x="15.08" y="27.93" width="6.48" height="1.19"/><rect class="cls-37" x="28.46" y="7.49" width="5.12" height="1.19"/><path class="cls-45" d="M26.58,11a6.18,6.18,0,0,1-6,4.69h-.25l-3.11-3.11L19.9,9.9V7l1.78-.91Z"/><path class="cls-42" d="M22,7.34a1.6,1.6,0,1,1-1.6-1.65A1.63,1.63,0,0,1,22,7.34Z"/><path class="cls-42" d="M23.66,12.58a3.23,3.23,0,0,0-6.44,0Z"/><path class="cls-41" d="M35.21,97.2H16.48a5.35,5.35,0,0,0-5.35,5.35v10.84a5.36,5.36,0,0,0,5.35,5.35H28.33l7.72,4.06-1.5-4.06h.66a5.35,5.35,0,0,0,5.34-5.35V102.55A5.34,5.34,0,0,0,35.21,97.2Z"/><rect class="cls-42" x="14.75" y="101.94" width="12.92" height="1.31"/><rect class="cls-42" x="30.08" y="101.94" width="6.69" height="1.31"/><rect class="cls-42" x="14.75" y="106.89" width="9.24" height="1.31"/><rect class="cls-42" x="26.6" y="106.89" width="10.17" height="1.31"/><rect class="cls-42" x="14.75" y="111.58" width="16.15" height="1.31"/><path class="cls-41" d="M4.4,119.56H19.8A4.4,4.4,0,0,1,24.2,124v8.93a4.4,4.4,0,0,1-4.4,4.39H10.05L3.7,140.61l1.24-3.34H4.4A4.4,4.4,0,0,1,0,132.88V124A4.4,4.4,0,0,1,4.4,119.56Z"/><rect class="cls-42" x="2.7" y="123.53" width="19.29" height="1.38"/><rect class="cls-42" x="18.39" y="131.63" width="2" height="1.38"/><rect class="cls-42" x="2.7" y="131.63" width="14.25" height="1.38"/><rect class="cls-42" x="11.76" y="127.9" width="3.35" height="1.38"/><path class="cls-46" d="M22.7,117.23a7.8,7.8,0,0,1-.14,1.47,8.12,8.12,0,0,1-7.5,6.65l-.5,0a8.14,8.14,0,1,1,8.14-8.14Z"/><path class="cls-47" d="M22.56,118.7a8.12,8.12,0,0,1-7.5,6.65l-3.7-3.7,5.28-8.86Z"/><path class="cls-42" d="M17.17,115.86v-1.94a1.43,1.43,0,0,0-1.44-1.44H13.39A1.44,1.44,0,0,0,12,113.92v1.94h-1v4.87A1.27,1.27,0,0,0,12.17,122H17a1.26,1.26,0,0,0,1.26-1.26v-4.87Zm-4.29-1.94a.51.51,0,0,1,.51-.51h2.34a.51.51,0,0,1,.51.51v1.94H12.88Zm2.32,6.46H13.92l.2-1.77a.83.83,0,0,1,.44-1.53.84.84,0,0,1,.84.83.85.85,0,0,1-.39.7Z"/><path class="cls-46" d="M63,28.55V44.06c0,4.44-4.36,8.4-8.25,11.06a43.6,43.6,0,0,1-5.94,3.42h0S34.57,52,34.57,44.06V28.55L48.78,24Z"/><path class="cls-47" d="M48.78,24h0V58.54h0C49,58.44,63,52,63,44.06V28.55Z"/><path class="cls-48" d="M63,39.62v4.44c0,4.44-4.36,8.4-8.25,11.06l-14.64-15,9.3,3.36,9.77-7.68Z"/><polygon class="cls-42" points="40.08 40.11 47.31 47.5 59.15 35.79 56.07 32.97 47.43 41.68 42.76 37.58 40.08 40.11"/><line class="cls-49" x1="171.21" y1="123.53" x2="173.16" y2="123.53"/><path class="cls-50" d="M153,126h-17.5a.68.68,0,0,1-.68-.68V113a.68.68,0,0,1,.68-.68H153a.67.67,0,0,1,.68.68v12.29a.67.67,0,0,1-.68.68Z"/><path class="cls-51" d="M136.41,124.67a.33.33,0,0,1-.33.33.32.32,0,0,1-.32-.33.32.32,0,0,1,.32-.32.32.32,0,0,1,.33.32Z"/><path class="cls-51" d="M152.67,113.62a.33.33,0,0,1-.66,0,.33.33,0,0,1,.66,0Z"/><path class="cls-51" d="M152.67,124.67a.33.33,0,0,1-.66,0,.33.33,0,0,1,.66,0Z"/><path class="cls-52" d="M148.88,120.84c.34.78-.37,1.85-1.6,2.38s-2.49.35-2.83-.43.37-1.85,1.59-2.39,2.5-.34,2.84.44Z"/><g class="cls-53"><path class="cls-54" d="M148.88,120.84c.34.78-.37,1.85-1.6,2.38s-2.49.35-2.83-.43.37-1.85,1.59-2.39,2.5-.34,2.84.44Z"/></g><path class="cls-51" d="M137.38,120.12h-2.6V113a.68.68,0,0,1,.68-.68h9.73a7.81,7.81,0,0,1-7.81,7.8Z"/><path class="cls-55" d="M153.64,123.37h-1.3l-.65-1v-6.83h1.95Z"/><rect class="cls-56" x="152.34" y="116.22" width="1.3" height="0.65"/><rect class="cls-56" x="152.34" y="117.19" width="1.3" height="0.65"/><rect class="cls-56" x="152.34" y="118.17" width="1.3" height="0.65"/><rect class="cls-56" x="152.34" y="119.14" width="1.3" height="0.65"/><rect class="cls-56" x="152.67" y="122.07" width="0.97" height="0.65"/><rect class="cls-56" x="152.34" y="121.1" width="1.3" height="0.65"/><rect class="cls-57" x="135.76" y="117.84" width="0.65" height="0.65"/><rect class="cls-57" x="135.76" y="116.87" width="0.65" height="0.65"/><rect class="cls-57" x="135.76" y="115.89" width="0.65" height="0.65"/><rect class="cls-57" x="135.76" y="114.92" width="0.65" height="0.65"/><rect class="cls-57" x="135.76" y="113.94" width="0.65" height="0.65"/><rect class="cls-57" x="137.71" y="113.94" width="4.23" height="0.65"/><rect class="cls-57" x="137.71" y="114.92" width="3.25" height="0.65"/><rect class="cls-57" x="137.71" y="115.89" width="3.58" height="0.65"/><rect class="cls-57" x="137.71" y="116.87" width="1.3" height="0.65"/><path class="cls-50" d="M173.53,141.66H156a.67.67,0,0,1-.67-.68V128.69A.67.67,0,0,1,156,128h17.5a.67.67,0,0,1,.68.68V141a.67.67,0,0,1-.68.68Z"/><path class="cls-51" d="M157,140.36a.32.32,0,0,1-.32.33.33.33,0,0,1-.33-.33.32.32,0,0,1,.33-.32.32.32,0,0,1,.32.32Z"/><path class="cls-51" d="M173.24,129.31a.32.32,0,0,1-.33.32.32.32,0,0,1-.32-.32.32.32,0,0,1,.32-.33.33.33,0,0,1,.33.33Z"/><path class="cls-51" d="M173.24,140.36a.33.33,0,0,1-.33.33.32.32,0,0,1-.32-.33.32.32,0,0,1,.32-.32.32.32,0,0,1,.33.32Z"/><path class="cls-52" d="M169.45,136.53c.34.78-.37,1.85-1.6,2.38s-2.49.35-2.83-.43.37-1.85,1.6-2.39,2.49-.34,2.83.44Z"/><g class="cls-58"><path class="cls-54" d="M169.45,136.53c.34.78-.37,1.85-1.6,2.38s-2.49.35-2.83-.43.37-1.85,1.6-2.39,2.49-.34,2.83.44Z"/></g><path class="cls-51" d="M158,135.81h-2.6v-7.12A.67.67,0,0,1,156,128h9.73a7.8,7.8,0,0,1-7.8,7.8Z"/><path class="cls-55" d="M174.21,139.06h-1.3l-.65-1v-6.83h2Z"/><rect class="cls-56" x="172.91" y="131.91" width="1.3" height="0.65"/><rect class="cls-56" x="172.91" y="132.88" width="1.3" height="0.65"/><rect class="cls-56" x="172.91" y="133.86" width="1.3" height="0.65"/><rect class="cls-56" x="172.91" y="134.83" width="1.3" height="0.65"/><rect class="cls-56" x="173.24" y="137.76" width="0.97" height="0.65"/><rect class="cls-56" x="172.91" y="136.79" width="1.3" height="0.65"/><rect class="cls-57" x="156.33" y="133.53" width="0.65" height="0.65"/><rect class="cls-57" x="156.33" y="132.56" width="0.65" height="0.65"/><rect class="cls-57" x="156.33" y="131.58" width="0.65" height="0.65"/><rect class="cls-57" x="156.33" y="130.61" width="0.65" height="0.65"/><rect class="cls-57" x="156.33" y="129.63" width="0.65" height="0.65"/><rect class="cls-57" x="158.28" y="129.63" width="4.23" height="0.65"/><rect class="cls-57" x="158.28" y="130.61" width="3.25" height="0.65"/><rect class="cls-57" x="158.28" y="131.58" width="3.58" height="0.65"/><rect class="cls-57" x="158.28" y="132.56" width="1.3" height="0.65"/><path class="cls-59" d="M159.48,116.1a.92.92,0,0,0,1.3,0,.91.91,0,0,0,0-1.29l-1.91-1.91h6.36a6.94,6.94,0,0,1,6.93,6.93v4.1a.92.92,0,1,0,1.83,0v-4.11a8.78,8.78,0,0,0-8.76-8.76h-6.36l1.91-1.91a.91.91,0,0,0,0-1.29.92.92,0,0,0-1.3,0L156,111.33a.91.91,0,0,0,0,1.29Z"/><path class="cls-59" d="M149.59,136.9a.89.89,0,0,0-.64-.27.92.92,0,0,0-.65.27.91.91,0,0,0,0,1.29l1.91,1.91h-6.36a6.94,6.94,0,0,1-6.93-6.93v-4.1a.92.92,0,0,0-1.83,0v4.11a8.77,8.77,0,0,0,8.76,8.76h6.36l-1.91,1.91a.92.92,0,0,0,0,1.3.91.91,0,0,0,1.29,0l3.48-3.48a.91.91,0,0,0,0-1.29Z"/></g></g></g></svg>