<svg xmlns="http://www.w3.org/2000/svg" viewBox="0 0 116.61 97.53"><defs><style>.cls-1{opacity:0.53;}.cls-2{fill:#baf4ee;}.cls-3{fill:#7fd6cb;opacity:0.73;}.cls-4{fill:#ffb031;}.cls-5{fill:#ff9433;}.cls-6{fill:#f73;}.cls-7{fill:#00c8b7;}.cls-8{fill:#7a4c08;}.cls-9{fill:#fff;}.cls-10{fill:#e6e8e8;}.cls-11{fill:#82ebe3;}.cls-12{fill:#d9dbdb;}.cls-13{fill:#08b29d;}</style></defs><title>Asset 11</title><g id="Layer_2" data-name="Layer 2"><g id="Layer_1-2" data-name="Layer 1"><g class="cls-1"><circle class="cls-2" cx="60.87" cy="54.21" r="42.26" transform="translate(-11.96 90.81) rotate(-68.37)"/><path class="cls-3" d="M95.38,64.37V78.58a43,43,0,0,1-5.25,6.1V64.37h0v-.05c0-.1-2.58-2.22-4.54-3.82v-.89L88,59a4.57,4.57,0,0,1,2.92.22c.41.18.84.35,1.26.49v1.85c2,1.61,3.21,2.66,3.23,2.76v.05Z"/></g><polygon class="cls-4" points="0.73 0 13.13 29.09 22.19 22.89 27.44 30.53 28.39 17.65 39.36 10.97 0.73 0"/><polygon class="cls-5" points="24.2 21.52 13.13 29.09 22.19 22.89 27.44 30.53 28.39 17.65 10.91 7.24 24.2 21.52"/><polygon class="cls-6" points="28.16 20.81 10.91 7.24 28.39 17.65 28.16 20.81"/><path class="cls-7" d="M27.66,34.15c-.09-.56-.22-1.13-.36-1.68l.85-.22c.15.57.28,1.16.38,1.75Z"/><path class="cls-7" d="M17.4,53.92a7.42,7.42,0,0,1-3.54-1.18l.49-.74a6.47,6.47,0,0,0,3.1,1Zm3.65-.72-.39-.79a8.76,8.76,0,0,0,2.64-2.08l.65.59A9.62,9.62,0,0,1,21.05,53.2Zm-9.64-3.27a7.27,7.27,0,0,1-.76-3.2,2.44,2.44,0,0,1,0-.27v-.19l.88.06v.16c0,.08,0,.16,0,.24a6.38,6.38,0,0,0,.67,2.81Zm34.06-.21v-.88c1.15,0,2.33-.05,3.51-.13l.06.87C47.83,49.67,46.63,49.72,45.47,49.72Zm-3.57-.11-.57,0c-1.08-.09-2.06-.22-3-.38l.15-.86c.91.15,1.86.27,2.92.36l.55,0Zm10.68-.4-.12-.87c1.13-.16,2.3-.35,3.47-.58l.17.87C54.91,48.86,53.73,49.05,52.58,49.21Zm-17.74-.89A16.75,16.75,0,0,1,32,47l-.41-.24.45-.75.39.22a16.59,16.59,0,0,0,2.73,1.22ZM26.06,48l-.77-.44a19.46,19.46,0,0,0,1.45-3.14l.83.3A21.21,21.21,0,0,1,26.06,48Zm33.52-.1L59.37,47c1.1-.27,2.24-.57,3.4-.91L63,47C61.85,47.3,60.69,47.6,59.58,47.87Zm6.83-1.95-.27-.84c1.12-.36,2.24-.74,3.34-1.13l.3.83C68.66,45.17,67.54,45.56,66.41,45.92Zm-37.8-1.16A23.71,23.71,0,0,0,26,43l-.3-.16.41-.78.31.17a25.61,25.61,0,0,1,2.72,1.78ZM12.78,43.44l-.62-.63a7.56,7.56,0,0,1,3.24-1.74l.3.83A6.86,6.86,0,0,0,12.78,43.44Zm9.7-1.72a14.26,14.26,0,0,0-3.05-.34h-.36l0-.88a14.73,14.73,0,0,1,3.62.35Zm6-.52-.86-.15A21.07,21.07,0,0,0,28,37.6h.88A21.79,21.79,0,0,1,28.5,41.2Z"/><path class="cls-7" d="M73.15,43.54l-.32-.83c.55-.2,1.1-.42,1.64-.63l.32.82Z"/><path class="cls-7" d="M100.86,65a.88.88,0,0,1-.09-1.76,20.85,20.85,0,0,0,13.78-7.15.88.88,0,0,1,1.24-.08.87.87,0,0,1,.09,1.24A22.65,22.65,0,0,1,100.94,65Z"/><path class="cls-8" d="M90.13,64.37,59.46,82.46,28.8,64.37v-.05c0-.11,1.72-1.53,4.3-3.62l.07-.06c8.47-6.88,26.29-21,26.29-21s17.83,14.08,26.3,21c2.62,2.12,4.34,3.56,4.36,3.68A.11.11,0,0,1,90.13,64.37Z"/><path class="cls-9" d="M72.08,24.71H39a5.14,5.14,0,0,0-5.14,5.14v50A5.14,5.14,0,0,0,39,85H80.45a5.14,5.14,0,0,0,5.14-5.14V38.22Z"/><path class="cls-10" d="M72.08,33.08a5.14,5.14,0,0,0,5.13,5.14h8.38L72.08,24.71Z"/><rect class="cls-11" x="41.68" y="33.16" width="15.08" height="15.08" rx="2.7" ry="2.7"/><path class="cls-12" d="M70.56,52.43H43.17A1.47,1.47,0,0,0,41.7,53.9h0a1.47,1.47,0,0,0,1.47,1.48H70.56A1.47,1.47,0,0,0,72,53.9h0A1.47,1.47,0,0,0,70.56,52.43Z"/><path class="cls-12" d="M70.56,59.77H43.17a1.47,1.47,0,0,0-1.47,1.48h0a1.47,1.47,0,0,0,1.47,1.47H70.56A1.47,1.47,0,0,0,72,61.25h0A1.47,1.47,0,0,0,70.56,59.77Z"/><path class="cls-12" d="M58.12,66.9H43.17a1.47,1.47,0,0,0-1.47,1.48h0a1.47,1.47,0,0,0,1.47,1.47H58.12a1.47,1.47,0,0,0,1.48-1.47h0A1.48,1.48,0,0,0,58.12,66.9Z"/><path class="cls-4" d="M90.13,64.37V93.79a3.75,3.75,0,0,1-3.73,3.74H32.53a3.74,3.74,0,0,1-3.73-3.74V64.37L59.47,82.45Z"/><path class="cls-5" d="M89.1,96.36,69.36,76.62l-9.89,5.83-9.9-5.83L29.83,96.35a3.72,3.72,0,0,0,2.7,1.18H86.4A3.76,3.76,0,0,0,89.1,96.36Z"/><path class="cls-7" d="M96.33,24A18.51,18.51,0,0,0,79.81,41a18.31,18.31,0,0,0,3.24,11.8A4.48,4.48,0,0,1,83.47,57L82,60.54,88,59a4.48,4.48,0,0,1,2.91.22A18.3,18.3,0,0,0,100,60.65,18.42,18.42,0,1,0,96.33,24Z"/><path class="cls-9" d="M98.64,51.63l1-1s-.81-1.89,2.56-5.09c2-1.9,2.46-3.74,2.3-5.25a5.26,5.26,0,0,0-4.62-4.61c-1.5-.17-3.35.28-5.25,2.29-3.19,3.37-5.09,2.57-5.09,2.57l-1,1Z"/><path class="cls-9" d="M90.83,45.44a2.79,2.79,0,0,0,3.9,3.9Z"/><path class="cls-9" d="M105.22,36.89l-.63.63a6.09,6.09,0,0,0-1.94-1.94l.64-.63a1.37,1.37,0,1,1,1.93,1.94Z"/><path class="cls-13" d="M97.69,23.91a15.91,15.91,0,1,1-16.26,26,18.3,18.3,0,0,0,1.62,2.86A4.48,4.48,0,0,1,83.47,57L82,60.54,88,59a4.48,4.48,0,0,1,2.91.22A18.3,18.3,0,0,0,100,60.65a18.42,18.42,0,0,0-2.32-36.74Z"/><path class="cls-4" d="M1.78,8.63l4,9.23a.93.93,0,0,1-.48,1.22l-.15.06A.93.93,0,0,1,4,18.65L.07,9.36A.93.93,0,0,1,.61,8.13h0A.93.93,0,0,1,1.78,8.63Z"/></g></g></svg>