<svg xmlns="http://www.w3.org/2000/svg" xmlns:xlink="http://www.w3.org/1999/xlink" viewBox="0 0 144 144"><defs><style>.cls-1{fill:none;}.cls-2{fill:#fff8f8;}.cls-3{fill:#72c06d;}.cls-4{clip-path:url(#clip-path);}.cls-5{fill:#f16848;}</style><clipPath id="clip-path"><rect class="cls-1" x="42.59" y="33.05" width="58.82" height="77.9"/></clipPath></defs><title>Asset 13</title><g id="Layer_2" data-name="Layer 2"><g id="Layer_1-2" data-name="Layer 1"><rect class="cls-2" width="144" height="144" rx="42.5" ry="42.5"/><path class="cls-3" d="M79.28,98.23a4.45,4.45,0,1,0,4.45,4.45,4.46,4.46,0,0,0-4.45-4.45Z"/><path class="cls-3" d="M85,81.7a5.09,5.09,0,1,0-5.09-5.09A5.1,5.1,0,0,0,85,81.7Zm0-7.63"/><g class="cls-4"><path class="cls-3" d="M54.48,49.9a1.29,1.29,0,0,0,.9-.37L57.93,47a1.27,1.27,0,0,0-1.8-1.8l-2.54,2.55a1.27,1.27,0,0,0,.89,2.17Zm0,0"/><path class="cls-5" d="M100.27,72.47a4.18,4.18,0,0,0-1.22-3l-.72-.71a5.71,5.71,0,0,0-3.79-10,6.07,6.07,0,0,0-.68,0,6.07,6.07,0,0,0,0-.68,5.73,5.73,0,0,0-5.72-5.72,6.07,6.07,0,0,0-.68,0,6.07,6.07,0,0,0,0-.68,5.73,5.73,0,0,0-5.72-5.72,6.07,6.07,0,0,0-.68,0,6.07,6.07,0,0,0,0-.68,5.71,5.71,0,0,0-10-3.79l-1-1L65.4,35.86a4.2,4.2,0,0,0-5.93,0L43.81,51.52a4.19,4.19,0,0,0,0,5.93l11,11a5.69,5.69,0,0,0-.34,9.72,1.89,1.89,0,0,0,.29.31L68.47,92.13v2.29H65.93v16.53H99V94.42H96.46V90.56a10.77,10.77,0,0,0,1.86-14.4l.73-.73a4.16,4.16,0,0,0,1.22-3Zm-2.54-7.94A3.18,3.18,0,0,1,96.54,67l-4.47-4.47a3.18,3.18,0,0,1,5.66,2Zm-6.36-6.36a3.18,3.18,0,0,1-1.19,2.47l-4.47-4.47a3.18,3.18,0,0,1,5.66,2ZM85,51.81a3.18,3.18,0,0,1-1.19,2.47l-4.47-4.47a3.18,3.18,0,0,1,5.66,2Zm-9.54-9.54a3.17,3.17,0,0,1,2,5.65L73,43.46a3.17,3.17,0,0,1,2.48-1.19ZM45.61,55.65a1.64,1.64,0,0,1,0-2.33L61.27,37.66a1.8,1.8,0,0,1,.54-.36,2.52,2.52,0,0,1,.29-.06,1.79,1.79,0,0,1,.68,0,2.59,2.59,0,0,1,.29.06,1.8,1.8,0,0,1,.54.36l3,3-18,18Zm22.77-13.2L97.24,71.31a1.65,1.65,0,0,1,0,2.33l-.56.55-15.1,15.1a1.64,1.64,0,0,1-2.33,0L69.11,79.15h1.27a5.72,5.72,0,1,0,0-11.45H57.67l-7.27-7.27ZM57,70.33l.53-.06.15,0H70.38a3.18,3.18,0,0,1,0,6.36H57.66A3.18,3.18,0,0,1,57,70.33ZM68.47,108.4V97H79.19a7.1,7.1,0,0,1,7.09,7.09v4.35Zm28,0H88.82v-4.35A9.59,9.59,0,0,0,85.69,97H96.46Zm0-30.41a8.22,8.22,0,0,1-2.07,10.94l-.51.38v5.1H71V91l-.45-.38-.23-.18L59,79.15h6.47L77.46,91.1a4.2,4.2,0,0,0,5.92,0Zm0,0"/></g></g></g></svg>