<svg xmlns="http://www.w3.org/2000/svg" viewBox="0 0 144 144"><defs><style>.cls-1{fill:#fff8f8;}.cls-2{fill:#f16848;}.cls-3{fill:#72c06d;}</style></defs><title>Asset 14</title><g id="Layer_2" data-name="Layer 2"><g id="Layer_1-2" data-name="Layer 1"><rect class="cls-1" width="144" height="144" rx="42.5" ry="42.5"/><path class="cls-2" d="M108.16,50H73.51l-4.57-8.59a1.59,1.59,0,0,0-1.4-.84H35.84a1.59,1.59,0,0,0-1.59,1.59v59.74a1.59,1.59,0,0,0,1.59,1.59h72.31a1.59,1.59,0,0,0,1.59-1.59V51.56A1.59,1.59,0,0,0,108.16,50Zm-1.59,50.31H37.43V43.72H66.59l4.57,8.59a1.59,1.59,0,0,0,1.4.84h34v47.13Z"/><path class="cls-2" d="M58.34,50h0a1.59,1.59,0,1,0,0-3.18h0a1.59,1.59,0,1,0,0,3.18Z"/><path class="cls-2" d="M53.82,46.83H42.13a1.59,1.59,0,0,0,0,3.18H53.82a1.59,1.59,0,0,0,0-3.18Z"/><path class="cls-3" d="M71.19,58a57.62,57.62,0,0,1-14.26,6,1.59,1.59,0,0,0-1.17,1.53v7.77a23.15,23.15,0,0,0,7,16.91c3.69,3.62,7.67,5.31,9.2,5.31s5.51-1.69,9.2-5.31a23.15,23.15,0,0,0,7-16.91V65.62a1.59,1.59,0,0,0-1.17-1.53,60.1,60.1,0,0,1-14.26-6A1.59,1.59,0,0,0,71.19,58Z"/><path class="cls-1" d="M68.26,83a1.59,1.59,0,0,0,2.25,0l10.4-10.4a1.59,1.59,0,1,0-2.25-2.25l-9.27,9.27-4-4a1.59,1.59,0,0,0-2.25,2.25Z"/><path class="cls-2" d="M90.34,97.17h0a1.59,1.59,0,0,0,0-3.18h0a1.59,1.59,0,1,0,0,3.18Z"/><path class="cls-2" d="M94.89,97.17h7a1.59,1.59,0,0,0,0-3.18h-7a1.59,1.59,0,0,0,0,3.18Z"/></g></g></svg>