<svg xmlns="http://www.w3.org/2000/svg" viewBox="0 0 144 144"><defs><style>.cls-1{fill:#fff8f8;}.cls-2{fill:#f16848;}.cls-3{fill:#72c06d;}</style></defs><title>Asset 15</title><g id="Layer_2" data-name="Layer 2"><g id="Layer_1-2" data-name="Layer 1"><rect class="cls-1" width="144" height="144" rx="42.5" ry="42.5"/><path class="cls-2" d="M44.62,43.52a1.1,1.1,0,1,1-1.1-1.1,1.1,1.1,0,0,1,1.1,1.1Zm0,0"/><path class="cls-2" d="M49,43.52a1.1,1.1,0,1,1-1.1-1.1,1.1,1.1,0,0,1,1.1,1.1Zm0,0"/><path class="cls-2" d="M53.38,43.52a1.1,1.1,0,1,1-1.1-1.1,1.1,1.1,0,0,1,1.1,1.1Zm0,0"/><rect class="cls-3" x="43.52" y="52.28" width="35.05" height="19.72"/><path class="cls-2" d="M101.58,53.49V38H38V88.43H83v6a11.5,11.5,0,1,0,23,0V58.86a5.49,5.49,0,0,0-4.38-5.37Zm-2.19-6.68H92.81V40.23h6.57Zm-8.76-6.57v6.57H40.23V40.23ZM83,58.86V86.24H40.23V49H99.38v4.38h-11A5.48,5.48,0,0,0,83,58.86Zm20.81,35.6a9.31,9.31,0,1,1-18.62,0V58.86a3.29,3.29,0,0,1,3.29-3.29h12a3.29,3.29,0,0,1,3.29,3.29Zm0,0"/><path class="cls-2" d="M89.53,58.86a1.1,1.1,0,1,1-1.1-1.1,1.1,1.1,0,0,1,1.1,1.1Zm0,0"/><rect class="cls-2" x="87.34" y="62.14" width="3.29" height="2.19"/><rect class="cls-2" x="92.81" y="62.14" width="3.29" height="2.19"/><rect class="cls-2" x="98.29" y="62.14" width="3.29" height="2.19"/><rect class="cls-2" x="87.34" y="66.52" width="3.29" height="2.19"/><rect class="cls-2" x="92.81" y="66.52" width="3.29" height="2.19"/><rect class="cls-2" x="98.29" y="66.52" width="3.29" height="2.19"/><rect class="cls-2" x="87.34" y="70.9" width="3.29" height="2.19"/><rect class="cls-2" x="92.81" y="70.9" width="3.29" height="2.19"/><rect class="cls-2" x="98.29" y="70.9" width="3.29" height="2.19"/><rect class="cls-2" x="87.34" y="75.29" width="3.29" height="2.19"/><rect class="cls-2" x="92.81" y="75.29" width="3.29" height="2.19"/><rect class="cls-2" x="98.29" y="75.29" width="3.29" height="2.19"/><rect class="cls-1" x="47.9" y="56.66" width="26.29" height="2.19"/></g></g></svg>