<svg xmlns="http://www.w3.org/2000/svg" viewBox="0 0 138.03 128.77"><defs><style>.cls-1{fill:#1b75bb;}.cls-2{fill:#25a9e0;}.cls-3{fill:#231f20;}.cls-4{fill:#006838;}.cls-5{fill:#d6de23;}.cls-12,.cls-5,.cls-6,.cls-9{fill-rule:evenodd;}.cls-6{fill:#c1c117;}.cls-7{fill:#ee3e29;}.cls-8{fill:#a41724;}.cls-10,.cls-9{fill:#fff;}.cls-11{fill:#fff100;}.cls-12{fill:#004221;}.cls-13{fill:#ffde00;}.cls-14{fill:#1498c1;}</style></defs><title>Asset 14</title><g id="Layer_2" data-name="Layer 2"><g id="Layer_1-2" data-name="Layer 1"><path class="cls-1" d="M84,45.26A15.38,15.38,0,1,1,68.65,29.89,15.37,15.37,0,0,1,84,45.26Z"/><path class="cls-2" d="M69.26,29.9V60.63a15.38,15.38,0,0,0,0-30.73Z"/><path class="cls-3" d="M84.56,46.46H83.48c0-6.87-1.36-11.4-4.27-14.27-2.42-2.38-6-3.54-10.55-3.47-5.9.1-9.91,2-12.27,5.78-1.76,2.82-2.57,6.62-2.57,12H52.73c0-8,1.65-18.59,15.91-18.82,4.89-.08,8.7,1.19,11.32,3.77C84.09,35.47,84.56,41.94,84.56,46.46Z"/><path class="cls-3" d="M55,50.63a2.3,2.3,0,0,1-2.31,2.31h0a2.3,2.3,0,0,1-2.31-2.31V41a2.3,2.3,0,0,1,2.31-2.31h0A2.3,2.3,0,0,1,55,41Z"/><path class="cls-3" d="M71.87,57.52a8.1,8.1,0,0,1-1.49-.13l.19-1.06C76.61,57.45,84,50,84,49.87l.78.75a32.31,32.31,0,0,1-4.66,3.83C77.1,56.49,74.32,57.52,71.87,57.52Z"/><path class="cls-3" d="M72,56.85a1.41,1.41,0,0,1-2.72-.5,1.41,1.41,0,0,1,2.72.5Z"/><path class="cls-3" d="M82.26,50.63a2.3,2.3,0,0,0,2.31,2.31h0a2.31,2.31,0,0,0,2.31-2.31V41a2.31,2.31,0,0,0-2.31-2.31h0A2.3,2.3,0,0,0,82.26,41Z"/><path class="cls-1" d="M68.65,62.08a31.2,31.2,0,0,0-31.2,31.2c0,1,0,1.9.13,2.83a120.66,120.66,0,0,0,32.76,4.41A121.86,121.86,0,0,0,99.62,97a31.17,31.17,0,0,0-31-34.95Z"/><path class="cls-2" d="M69.46,62.09v38.42h.88A121.86,121.86,0,0,0,99.62,97,31.17,31.17,0,0,0,69.46,62.09Z"/><path class="cls-4" d="M69.71,121.94a.59.59,0,0,1,.58-.59h0a.6.6,0,0,1,.59.58h0a.6.6,0,0,1-.58.59h0A.59.59,0,0,1,69.71,121.94Zm-1.76.55h0a.58.58,0,0,1-.56-.6h0a.57.57,0,0,1,.6-.56h0a.58.58,0,0,1,.56.6h0a.58.58,0,0,1-.58.56h0Zm4.09-.6a.58.58,0,0,1,.55-.61h0a.57.57,0,0,1,.61.55h0a.57.57,0,0,1-.55.61h0A.57.57,0,0,1,72,121.89Zm-6.44.48h0a.58.58,0,0,1-.54-.62h0a.6.6,0,0,1,.63-.54h0a.58.58,0,0,1,.54.62h0a.59.59,0,0,1-.58.54H65.6Zm8.76-.62a.59.59,0,0,1,.53-.64h0a.58.58,0,0,1,.63.53h0a.58.58,0,0,1-.53.63h0A.58.58,0,0,1,74.36,121.75Zm-11.1.4h0a.57.57,0,0,1-.51-.64h0a.6.6,0,0,1,.65-.52h0a.59.59,0,0,1,.51.65h0a.59.59,0,0,1-.58.52h-.07Zm13.41-.65a.58.58,0,0,1,.5-.65h0a.58.58,0,0,1,.66.5h0a.58.58,0,0,1-.5.65h-.08A.58.58,0,0,1,76.67,121.5Zm-15.74.34h0a.59.59,0,0,1-.48-.67h0a.59.59,0,0,1,.67-.49h0a.59.59,0,0,1,.48.67h0a.58.58,0,0,1-.58.49h-.09ZM79,121.16a.57.57,0,0,1,.47-.67h0a.57.57,0,0,1,.67.47h0a.57.57,0,0,1-.47.67h-.1A.57.57,0,0,1,79,121.16Zm-20.36.26a.58.58,0,0,1-.46-.69h0a.58.58,0,0,1,.69-.45h0a.58.58,0,0,1,.46.68h0a.59.59,0,0,1-.58.47h-.11Zm22.64-.69a.59.59,0,0,1,.44-.7h0a.59.59,0,0,1,.7.44h0a.59.59,0,0,1-.44.7h-.13A.58.58,0,0,1,81.26,120.73Zm-24.94.18a.59.59,0,0,1-.42-.71h0a.58.58,0,0,1,.7-.43h0a.58.58,0,0,1,.43.71h0a.58.58,0,0,1-.57.44h-.14Zm27.2-.72a.58.58,0,0,1,.42-.71h0a.58.58,0,0,1,.71.41h0a.6.6,0,0,1-.41.72h0l-.15,0h0A.6.6,0,0,1,83.52,120.19Zm-29.47.11a.59.59,0,0,1-.39-.73h0a.58.58,0,0,1,.72-.39h0a.58.58,0,0,1,.4.72h0a.6.6,0,0,1-.56.42h0Zm31.72-.73a.59.59,0,0,1,.38-.74h0a.6.6,0,0,1,.73.38h0a.6.6,0,0,1-.38.74h0l-.18,0h0A.57.57,0,0,1,85.77,119.57Zm-34,0h0a.58.58,0,0,1-.36-.74h0a.58.58,0,0,1,.74-.36h0a.58.58,0,0,1,.36.73h0a.58.58,0,0,1-.55.4h0A.63.63,0,0,1,51.81,119.59ZM88,118.84a.58.58,0,0,1,.34-.75h0a.59.59,0,0,1,.75.35h0a.58.58,0,0,1-.35.75h0a.65.65,0,0,1-.2,0h0A.58.58,0,0,1,88,118.84Zm-38.39,0a.6.6,0,0,1-.33-.76h0a.59.59,0,0,1,.76-.33h0a.58.58,0,0,1,.33.75h0a.59.59,0,0,1-.55.38h0A.86.86,0,0,1,49.59,118.79ZM90.15,118a.59.59,0,0,1,.32-.76h0a.58.58,0,0,1,.76.32h0a.58.58,0,0,1-.31.76h0a.64.64,0,0,1-.23,0h0A.59.59,0,0,1,90.15,118Zm-42.73-.13a.59.59,0,0,1-.31-.77h0a.59.59,0,0,1,.77-.3h0a.58.58,0,0,1,.3.77h0a.57.57,0,0,1-.53.35h0A.59.59,0,0,1,47.42,117.89Zm44.87-.77a.59.59,0,0,1,.29-.78h0a.59.59,0,0,1,.77.29h0a.58.58,0,0,1-.29.77h0a.5.5,0,0,1-.24.06h0A.59.59,0,0,1,92.29,117.12Zm-47-.22h0a.58.58,0,0,1-.27-.78h0a.58.58,0,0,1,.78-.27h0a.59.59,0,0,1,.27.78h0a.58.58,0,0,1-.53.33h0A.57.57,0,0,1,45.28,116.9Zm49.11-.78a.57.57,0,0,1,.25-.78h0a.58.58,0,0,1,.79.25h0a.58.58,0,0,1-.26.78h0a.48.48,0,0,1-.26.07h0A.59.59,0,0,1,94.39,116.12Zm-51.21-.29A.58.58,0,0,1,43,115h0a.58.58,0,0,1,.79-.24h0a.58.58,0,0,1,.23.79h0a.56.56,0,0,1-.51.31h0A.72.72,0,0,1,43.18,115.83ZM96.44,115a.59.59,0,0,1,.22-.8h0a.59.59,0,0,1,.8.22h0a.6.6,0,0,1-.22.8h0a.59.59,0,0,1-.29.07h0A.59.59,0,0,1,96.44,115Zm-55.3-.38a.57.57,0,0,1-.2-.8h0a.59.59,0,0,1,.8-.2h0a.59.59,0,0,1,.2.8h0a.59.59,0,0,1-.5.28h0A.52.52,0,0,1,41.14,114.66Zm57.31-.79a.6.6,0,0,1,.18-.81h0a.59.59,0,0,1,.81.19h0a.58.58,0,0,1-.19.8h0a.56.56,0,0,1-.31.09h0A.59.59,0,0,1,98.45,113.87Zm-59.31-.46a.59.59,0,0,1-.17-.81h0a.59.59,0,0,1,.81-.16h0a.57.57,0,0,1,.17.8h0a.59.59,0,0,1-.49.27h0A.55.55,0,0,1,39.14,113.41Zm61.27-.8a.57.57,0,0,1,.15-.81h0a.59.59,0,0,1,.81.15h0a.6.6,0,0,1-.15.82h0a.67.67,0,0,1-.33.1h0A.56.56,0,0,1,100.41,112.61Zm-63.21-.53a.58.58,0,0,1-.13-.81h0a.57.57,0,0,1,.81-.14h0A.6.6,0,0,1,38,112h0a.63.63,0,0,1-.48.24h0A.62.62,0,0,1,37.2,112.08Zm65.11-.8a.6.6,0,0,1,.11-.82h0a.59.59,0,0,1,.82.12h0a.59.59,0,0,1-.12.82h0a.6.6,0,0,1-.34.11h0A.58.58,0,0,1,102.31,111.28Zm-67-.61h0a.59.59,0,0,1-.1-.82h0a.58.58,0,0,1,.82-.1h0a.59.59,0,0,1,.1.82h0a.61.61,0,0,1-.46.22h0A.6.6,0,0,1,35.32,110.67Zm68.83-.81a.59.59,0,0,1,.09-.82h0a.59.59,0,0,1,.82.09h0a.59.59,0,0,1-.09.82h0a.59.59,0,0,1-.36.13h0A.58.58,0,0,1,104.15,109.86Zm-70.65-.68a.58.58,0,0,1-.06-.82h0a.57.57,0,0,1,.82-.07h0a.58.58,0,0,1,.06.82h0a.56.56,0,0,1-.44.21h0A.62.62,0,0,1,33.5,109.18Zm72.44-.81a.57.57,0,0,1,0-.82h0a.58.58,0,0,1,.82,0h0a.58.58,0,0,1,0,.82h0a.58.58,0,0,1-.39.15h0A.57.57,0,0,1,105.94,108.37Zm-74.2-.76a.59.59,0,0,1,0-.82h0a.59.59,0,0,1,.83,0h0a.58.58,0,0,1,0,.82h0a.57.57,0,0,1-.43.19h0A.58.58,0,0,1,31.74,107.61Zm75.92-.8a.59.59,0,0,1,0-.83h0a.6.6,0,0,1,.83,0h0a.57.57,0,0,1,0,.82h0a.56.56,0,0,1-.4.17h0A.58.58,0,0,1,107.66,106.81ZM30.06,106a.59.59,0,0,1,0-.83h0a.59.59,0,0,1,.83,0h0a.58.58,0,0,1,0,.82h0a.58.58,0,0,1-.41.17h0A.58.58,0,0,1,30.06,106Zm79.25-.81a.58.58,0,0,1,0-.82h0a.59.59,0,0,1,.83,0h0a.58.58,0,0,1,0,.82h0a.59.59,0,0,1-.42.18h0A.59.59,0,0,1,109.31,105.17Zm-80.87-.9a.57.57,0,0,1,0-.82h0a.57.57,0,0,1,.82,0h0a.57.57,0,0,1,0,.82h0a.58.58,0,0,1-.39.15h0A.56.56,0,0,1,28.44,104.27Zm82.46-.8a.58.58,0,0,1-.06-.82h0a.59.59,0,0,1,.83-.06h0a.58.58,0,0,1,0,.82h0a.54.54,0,0,1-.44.2h0A.56.56,0,0,1,110.9,103.47Zm-84-1a.59.59,0,0,1,.08-.82h0a.59.59,0,0,1,.82.07h0a.58.58,0,0,1-.08.82h0a.52.52,0,0,1-.37.14h0A.58.58,0,0,1,26.89,102.5Zm85.52-.8a.59.59,0,0,1-.09-.82h0a.59.59,0,0,1,.82-.09h0a.59.59,0,0,1,.09.82h0a.58.58,0,0,1-.45.22h0A.58.58,0,0,1,112.41,101.7Zm-87-1a.59.59,0,0,1,.1-.82h0a.58.58,0,0,1,.82.11h0a.57.57,0,0,1-.11.81h0a.52.52,0,0,1-.35.12h0A.55.55,0,0,1,25.43,100.67Zm88.42-.8a.59.59,0,0,1-.13-.82h0a.59.59,0,0,1,.82-.12h0a.58.58,0,0,1,.12.81h0a.57.57,0,0,1-.47.24h0A.6.6,0,0,1,113.85,99.87ZM24,98.77h0a.58.58,0,0,1,.15-.81h0a.59.59,0,0,1,.81.14h0a.6.6,0,0,1-.14.82h0a.59.59,0,0,1-.34.1h0A.58.58,0,0,1,24,98.77ZM115.21,98a.58.58,0,0,1-.16-.81h0a.58.58,0,0,1,.81-.16h0a.58.58,0,0,1,.16.81h0a.59.59,0,0,1-.49.26h0A.63.63,0,0,1,115.21,98ZM22.73,96.82h0a.57.57,0,0,1,.17-.8h0a.58.58,0,0,1,.81.17h0a.59.59,0,0,1-.18.81h0a.61.61,0,0,1-.31.09h0A.56.56,0,0,1,22.73,96.82ZM116.49,96a.59.59,0,0,1-.2-.8h0a.58.58,0,0,1,.81-.19h0a.58.58,0,0,1,.19.8h0a.58.58,0,0,1-.5.28h0A.55.55,0,0,1,116.49,96Zm-95-1.21h0a.59.59,0,0,1,.21-.8h0a.6.6,0,0,1,.8.21h0a.59.59,0,0,1-.21.8h0a.56.56,0,0,1-.3.08h0A.57.57,0,0,1,21.5,94.82ZM117.68,94a.58.58,0,0,1-.22-.79h0a.59.59,0,0,1,.79-.23h0a.59.59,0,0,1,.23.79h0a.58.58,0,0,1-.52.3h0A.58.58,0,0,1,117.68,94ZM20.36,92.77h0A.59.59,0,0,1,20.6,92h0a.58.58,0,0,1,.79.25h0a.59.59,0,0,1-.24.79h0a.54.54,0,0,1-.27.07h0A.58.58,0,0,1,20.36,92.77ZM118.79,92a.58.58,0,0,1-.26-.78h0a.59.59,0,0,1,.79-.26h0a.59.59,0,0,1,.26.78h0a.58.58,0,0,1-.53.32h0A.65.65,0,0,1,118.79,92ZM19.31,90.67a.57.57,0,0,1,.27-.77h0a.58.58,0,0,1,.78.27h0a.58.58,0,0,1-.28.78h0a.54.54,0,0,1-.25.06h0A.59.59,0,0,1,19.31,90.67Zm100.51-.78a.58.58,0,0,1-.3-.77h0a.58.58,0,0,1,.77-.3h0a.59.59,0,0,1,.3.77h0a.59.59,0,0,1-.54.35h0A.59.59,0,0,1,119.82,89.89ZM18.35,88.53a.58.58,0,0,1,.3-.76h0a.58.58,0,0,1,.77.31h0a.58.58,0,0,1-.31.76h0a.59.59,0,0,1-.23,0h0A.57.57,0,0,1,18.35,88.53Zm102.4-.78a.59.59,0,0,1-.33-.76h0a.58.58,0,0,1,.76-.32h0a.59.59,0,0,1,.33.76h0a.59.59,0,0,1-.55.36h0A.52.52,0,0,1,120.75,87.75ZM17.47,86.36h0a.58.58,0,0,1,.35-.75h0a.57.57,0,0,1,.75.34h0a.59.59,0,0,1-.34.75h0a.76.76,0,0,1-.21,0h0A.58.58,0,0,1,17.47,86.36Zm104.12-.78a.6.6,0,0,1-.36-.75h0a.59.59,0,0,1,.75-.35h0a.57.57,0,0,1,.35.74h0a.58.58,0,0,1-.55.39h0A.63.63,0,0,1,121.59,85.58ZM16.7,84.14a.57.57,0,0,1,.37-.74h0a.58.58,0,0,1,.73.37h0a.58.58,0,0,1-.37.74h0a.57.57,0,0,1-.18,0h0A.58.58,0,0,1,16.7,84.14Zm105.64-.77a.59.59,0,0,1-.39-.73h0a.59.59,0,0,1,.73-.39h0a.59.59,0,0,1,.39.73h0a.59.59,0,0,1-.56.41h0ZM16,81.89a.58.58,0,0,1,.4-.72h0a.58.58,0,0,1,.72.4h0a.58.58,0,0,1-.4.72h0a.44.44,0,0,1-.16,0h0A.58.58,0,0,1,16,81.89Zm107-.76a.59.59,0,0,1-.42-.71h0a.59.59,0,0,1,.71-.42h0a.59.59,0,0,1,.42.71h0a.57.57,0,0,1-.56.44h0A.39.39,0,0,1,123,81.13ZM15.42,79.61a.58.58,0,0,1,.44-.7h0a.59.59,0,0,1,.7.43h0a.59.59,0,0,1-.44.71H16A.59.59,0,0,1,15.42,79.61Zm108.13-.74a.57.57,0,0,1-.45-.69h0a.6.6,0,0,1,.69-.45h0a.58.58,0,0,1,.45.69h0a.59.59,0,0,1-.57.47h0ZM14.93,77.31a.59.59,0,0,1,.46-.68h0a.59.59,0,0,1,.69.46h0a.59.59,0,0,1-.47.69H15.5A.59.59,0,0,1,14.93,77.31ZM124,76.59a.58.58,0,0,1-.48-.67h0a.59.59,0,0,1,.67-.48h0a.6.6,0,0,1,.48.68h0a.58.58,0,0,1-.57.48H124ZM14.54,75a.59.59,0,0,1,.49-.67h0a.59.59,0,0,1,.66.49h0a.59.59,0,0,1-.49.67h-.09A.58.58,0,0,1,14.54,75Zm109.83-.7a.59.59,0,0,1-.5-.66h0a.58.58,0,0,1,.65-.5h0a.58.58,0,0,1,.5.65h0a.58.58,0,0,1-.58.51h-.07ZM14.24,72.66h0a.59.59,0,0,1,.52-.64h0a.58.58,0,0,1,.64.52h0a.58.58,0,0,1-.52.64h-.06A.59.59,0,0,1,14.24,72.66ZM124.64,72a.57.57,0,0,1-.53-.63h0a.57.57,0,0,1,.62-.53h0a.59.59,0,0,1,.54.63h0a.59.59,0,0,1-.58.54h0ZM14,70.32h0a.59.59,0,0,1,.55-.62h0a.59.59,0,0,1,.62.55h0a.59.59,0,0,1-.55.62h0A.59.59,0,0,1,14,70.32Zm110.77-.66a.58.58,0,0,1-.56-.6h0a.58.58,0,0,1,.61-.56h0a.57.57,0,0,1,.55.61h0a.57.57,0,0,1-.58.55h0ZM14,68h0a.57.57,0,0,1,.57-.59h0a.58.58,0,0,1,.59.57h0a.57.57,0,0,1-.57.59h0A.57.57,0,0,1,14,68ZM124.3,66.76v-.05h0v0h0a.58.58,0,0,1,.58-.58h0a.58.58,0,0,1,.58.58h0v0h0v.05h0a.58.58,0,0,1-.58.58h0A.58.58,0,0,1,124.3,66.76ZM14.52,66.22a.6.6,0,0,1-.58-.6h0a.59.59,0,0,1,.6-.57h0a.58.58,0,0,1,.57.59h0a.59.59,0,0,1-.58.58h0Zm109.73-1.85a.57.57,0,0,1,.55-.6h0a.57.57,0,0,1,.61.55h0a.59.59,0,0,1-.56.61h0A.58.58,0,0,1,124.25,64.37ZM14.59,63.89a.58.58,0,0,1-.55-.62h0a.58.58,0,0,1,.62-.54h0a.57.57,0,0,1,.54.61h0a.58.58,0,0,1-.58.55h0ZM124.1,62.08a.58.58,0,0,1,.53-.63h0a.58.58,0,0,1,.63.53h0a.58.58,0,0,1-.53.63h0A.58.58,0,0,1,124.1,62.08ZM14.75,61.57a.58.58,0,0,1-.52-.64h0a.59.59,0,0,1,.64-.52h0a.58.58,0,0,1,.52.64h0a.58.58,0,0,1-.58.52h-.06Zm109.11-1.78h0a.59.59,0,0,1,.5-.66h0a.58.58,0,0,1,.65.51h0a.58.58,0,0,1-.5.65h-.08A.57.57,0,0,1,123.86,59.79ZM15,59.26a.58.58,0,0,1-.49-.66h0a.57.57,0,0,1,.66-.49h0a.58.58,0,0,1,.49.66h0a.57.57,0,0,1-.58.49H15Zm108.5-1.75h0a.57.57,0,0,1,.47-.67h0a.59.59,0,0,1,.68.47h0a.6.6,0,0,1-.48.68h-.1A.59.59,0,0,1,123.52,57.51ZM15.38,57a.57.57,0,0,1-.46-.68h0a.59.59,0,0,1,.68-.47h0a.6.6,0,0,1,.46.69h0a.58.58,0,0,1-.57.47h-.11Zm107.7-1.71a.59.59,0,0,1,.45-.69h0a.58.58,0,0,1,.69.45h0a.58.58,0,0,1-.45.69h-.12A.59.59,0,0,1,123.08,55.25ZM15.84,54.68a.58.58,0,0,1-.44-.7h0a.6.6,0,0,1,.7-.44h0a.59.59,0,0,1,.44.71h0a.59.59,0,0,1-.57.45h0ZM122.55,53a.59.59,0,0,1,.42-.71h0a.59.59,0,0,1,.71.42h0a.59.59,0,0,1-.42.71h0l-.14,0h0A.6.6,0,0,1,122.55,53ZM16.39,52.42a.58.58,0,0,1-.4-.72h0a.58.58,0,0,1,.72-.4h0a.58.58,0,0,1,.4.72h0a.59.59,0,0,1-.56.42h0ZM121.93,50.8a.58.58,0,0,1,.38-.73h0a.58.58,0,0,1,.73.39h0a.57.57,0,0,1-.38.72h0a.57.57,0,0,1-.18,0h0A.57.57,0,0,1,121.93,50.8ZM17,50.19a.59.59,0,0,1-.37-.74h0a.58.58,0,0,1,.73-.37h0a.58.58,0,0,1,.38.73h0a.59.59,0,0,1-.56.41h0A.57.57,0,0,1,17,50.19Zm104.17-1.58h0a.58.58,0,0,1,.35-.74h0a.59.59,0,0,1,.75.35h0A.58.58,0,0,1,122,49h0a.63.63,0,0,1-.19,0h0A.58.58,0,0,1,121.21,48.61ZM17.79,48a.58.58,0,0,1-.34-.75h0a.58.58,0,0,1,.75-.35h0a.59.59,0,0,1,.34.75h0A.58.58,0,0,1,18,48h0ZM120.4,46.45a.57.57,0,0,1,.32-.75h0a.58.58,0,0,1,.76.32h0a.59.59,0,0,1-.32.76h0a.6.6,0,0,1-.22,0h0A.58.58,0,0,1,120.4,46.45ZM18.63,45.8a.57.57,0,0,1-.31-.76h0a.58.58,0,0,1,.76-.31h0a.57.57,0,0,1,.31.76h0a.58.58,0,0,1-.53.36h0A.59.59,0,0,1,18.63,45.8ZM119.5,44.34a.59.59,0,0,1,.29-.77h0a.59.59,0,0,1,.77.29h0a.58.58,0,0,1-.29.77h0a.53.53,0,0,1-.24.06h0A.59.59,0,0,1,119.5,44.34Zm-99.94-.68a.58.58,0,0,1-.28-.77h0a.59.59,0,0,1,.78-.28h0a.59.59,0,0,1,.28.78h0a.58.58,0,0,1-.53.33h0A.57.57,0,0,1,19.56,43.66Zm99-1.39a.58.58,0,0,1,.26-.78h0a.58.58,0,0,1,.78.25h0a.59.59,0,0,1-.26.79h0a.58.58,0,0,1-.26.06h0A.59.59,0,0,1,118.51,42.27Zm-97.93-.7a.59.59,0,0,1-.24-.79h0a.59.59,0,0,1,.79-.24h0a.58.58,0,0,1,.24.78h0a.59.59,0,0,1-.52.32h0A.68.68,0,0,1,20.58,41.57Zm96.86-1.33h0a.57.57,0,0,1,.22-.79h0a.57.57,0,0,1,.79.22h0a.57.57,0,0,1-.22.79h0a.6.6,0,0,1-.28.08h0A.57.57,0,0,1,117.44,40.24Zm-95.75-.72a.59.59,0,0,1-.21-.8h0a.59.59,0,0,1,.8-.21h0a.59.59,0,0,1,.21.8h0a.61.61,0,0,1-.51.29h0A.6.6,0,0,1,21.69,39.52Zm94.59-1.27h0a.58.58,0,0,1,.19-.8h0a.58.58,0,0,1,.8.19h0a.59.59,0,0,1-.19.81h0a.68.68,0,0,1-.31.08h0A.58.58,0,0,1,116.28,38.25Zm-93.4-.73a.58.58,0,0,1-.17-.81h0a.57.57,0,0,1,.8-.17h0a.58.58,0,0,1,.18.8h0a.57.57,0,0,1-.49.27h0A.62.62,0,0,1,22.88,37.52ZM115,36.32h0a.58.58,0,0,1,.16-.81h0a.58.58,0,0,1,.81.16h0a.58.58,0,0,1-.16.81h0a.55.55,0,0,1-.32.1h0A.59.59,0,0,1,115,36.32Zm-90.87-.75a.58.58,0,0,1-.14-.81h0a.58.58,0,0,1,.81-.14h0a.58.58,0,0,1,.14.81h0a.57.57,0,0,1-.47.25h0A.6.6,0,0,1,24.16,35.57Zm89.55-1.13h0a.59.59,0,0,1,.12-.82h0a.59.59,0,0,1,.82.13h0a.59.59,0,0,1-.12.81h0a.59.59,0,0,1-.35.12h0A.59.59,0,0,1,113.71,34.44Zm-88.19-.76a.58.58,0,0,1-.11-.82h0a.6.6,0,0,1,.82-.11h0a.6.6,0,0,1,.11.82h0a.6.6,0,0,1-.47.23h0A.59.59,0,0,1,25.52,33.68Zm86.79-1.07a.59.59,0,0,1,.09-.82h0a.59.59,0,0,1,.82.09h0a.6.6,0,0,1-.09.83h0a.63.63,0,0,1-.37.12h0A.55.55,0,0,1,112.31,32.61ZM27,31.85a.59.59,0,0,1-.07-.82h0A.59.59,0,0,1,27.7,31h0a.59.59,0,0,1,.08.82h0a.6.6,0,0,1-.45.21h0A.6.6,0,0,1,27,31.85Zm83.88-1h0a.58.58,0,0,1,.06-.82h0a.58.58,0,0,1,.82,0h0a.59.59,0,0,1-.06.83h0a.59.59,0,0,1-.38.14h0A.6.6,0,0,1,110.83,30.85Zm-82.37-.77a.59.59,0,0,1,0-.83h0a.58.58,0,0,1,.82,0h0a.59.59,0,0,1,0,.83h0a.61.61,0,0,1-.43.19h0A.62.62,0,0,1,28.46,30.08Zm80.82-.93a.58.58,0,0,1,0-.82h0a.58.58,0,0,1,.83,0h0a.57.57,0,0,1,0,.82h0a.55.55,0,0,1-.4.16h0A.59.59,0,0,1,109.28,29.15Zm-79.23-.78a.58.58,0,0,1,0-.82h0a.59.59,0,0,1,.83,0h0a.59.59,0,0,1,0,.83h0a.58.58,0,0,1-.41.17h0A.58.58,0,0,1,30.05,28.37Zm77.61-.86a.57.57,0,0,1,0-.82h0a.57.57,0,0,1,.82,0h0a.57.57,0,0,1,0,.82h0a.55.55,0,0,1-.41.18h0A.58.58,0,0,1,107.66,27.51Zm-76-.78a.58.58,0,0,1,0-.82h0a.59.59,0,0,1,.83,0h0a.59.59,0,0,1,0,.82h0a.58.58,0,0,1-.4.16h0A.57.57,0,0,1,31.7,26.73ZM106,26h0a.58.58,0,0,1,0-.82h0a.58.58,0,0,1,.83-.05h0a.58.58,0,0,1,0,.82h0a.6.6,0,0,1-.44.2h0A.58.58,0,0,1,106,26Zm-72.55-.78a.58.58,0,0,1,.07-.82h0a.58.58,0,0,1,.82.06h0a.58.58,0,0,1-.07.82h0a.54.54,0,0,1-.38.14h0A.6.6,0,0,1,33.42,25.17Zm70.8-.72h0a.58.58,0,0,1-.08-.82h0a.58.58,0,0,1,.82-.08h0a.58.58,0,0,1,.08.82h0a.58.58,0,0,1-.45.22h0A.59.59,0,0,1,104.22,24.45Zm-69-.77a.6.6,0,0,1,.1-.82h0a.58.58,0,0,1,.82.1h0a.57.57,0,0,1-.1.81h0a.53.53,0,0,1-.36.13h0A.61.61,0,0,1,35.2,23.68ZM102.41,23h0a.58.58,0,0,1-.12-.81h0a.59.59,0,0,1,.82-.12h0a.59.59,0,0,1,.11.82h0a.58.58,0,0,1-.46.23h0A.55.55,0,0,1,102.41,23Zm-65.36-.77a.58.58,0,0,1,.13-.81h0a.59.59,0,0,1,.82.13h0a.59.59,0,0,1-.14.81h0a.53.53,0,0,1-.34.11h0A.57.57,0,0,1,37.05,22.26Zm63.48-.57a.59.59,0,0,1-.15-.81h0a.59.59,0,0,1,.81-.15h0a.58.58,0,0,1,.16.81h0a.58.58,0,0,1-.49.25h0A.6.6,0,0,1,100.53,21.69ZM39,20.92a.57.57,0,0,1,.17-.8h0a.57.57,0,0,1,.8.16h0a.58.58,0,0,1-.16.81h0a.55.55,0,0,1-.32.1h0A.59.59,0,0,1,39,20.92Zm59.66-.49h0a.58.58,0,0,1-.19-.8h0a.58.58,0,0,1,.81-.19h0a.58.58,0,0,1,.18.8h0a.58.58,0,0,1-.5.28h0A.55.55,0,0,1,98.61,20.43ZM40.9,19.67a.59.59,0,0,1,.21-.8h0a.58.58,0,0,1,.8.2h0a.59.59,0,0,1-.21.8h0a.51.51,0,0,1-.29.08h0A.6.6,0,0,1,40.9,19.67Zm55.73-.42a.59.59,0,0,1-.22-.8h0a.59.59,0,0,1,.79-.22h0a.59.59,0,0,1,.22.8h0a.58.58,0,0,1-.51.3h0A.6.6,0,0,1,96.63,19.25ZM42.91,18.5a.58.58,0,0,1,.23-.79h0a.59.59,0,0,1,.8.23h0a.59.59,0,0,1-.24.79h0a.55.55,0,0,1-.28.07h0A.6.6,0,0,1,42.91,18.5Zm51.69-.35a.57.57,0,0,1-.25-.78h0a.58.58,0,0,1,.78-.26h0a.58.58,0,0,1,.25.79h0a.58.58,0,0,1-.52.32h0A.51.51,0,0,1,94.6,18.15ZM45,17.41a.58.58,0,0,1,.27-.78h0a.58.58,0,0,1,.78.27h0a.58.58,0,0,1-.27.78h0a.57.57,0,0,1-.25.06h0A.58.58,0,0,1,45,17.41Zm47.57-.27a.58.58,0,0,1-.29-.77h0a.59.59,0,0,1,.77-.29h0a.59.59,0,0,1,.29.78h0a.59.59,0,0,1-.53.34h0A.5.5,0,0,1,92.53,17.14Zm-45.47-.73a.58.58,0,0,1,.3-.77h0a.6.6,0,0,1,.77.3h0a.59.59,0,0,1-.3.77h0a.52.52,0,0,1-.24.05h0A.59.59,0,0,1,47.06,16.41Zm43.35-.19a.58.58,0,0,1-.32-.76h0a.59.59,0,0,1,.76-.32h0a.59.59,0,0,1,.32.76h0a.58.58,0,0,1-.54.37h0A.59.59,0,0,1,90.41,16.22ZM49.19,15.5a.59.59,0,0,1,.34-.75h0a.57.57,0,0,1,.75.33h0a.59.59,0,0,1-.33.76h0a.78.78,0,0,1-.21,0h0A.58.58,0,0,1,49.19,15.5Zm39.07-.11a.58.58,0,0,1-.35-.74h0a.57.57,0,0,1,.74-.35h0A.57.57,0,0,1,89,15h0a.57.57,0,0,1-.54.39h0A.45.45,0,0,1,88.26,15.39Zm-36.89-.7a.58.58,0,0,1,.37-.74h0a.58.58,0,0,1,.74.36h0a.58.58,0,0,1-.37.74h0a.58.58,0,0,1-.19,0h0A.59.59,0,0,1,51.37,14.69Zm34.7,0a.57.57,0,0,1-.38-.73h0a.58.58,0,0,1,.73-.38h0a.58.58,0,0,1,.38.73h0a.59.59,0,0,1-.55.41h0ZM53.58,14a.58.58,0,0,1,.4-.72h0a.58.58,0,0,1,.72.39h0a.59.59,0,0,1-.39.73h0l-.17,0h0A.6.6,0,0,1,53.58,14Zm30.28,0a.58.58,0,0,1-.41-.71h0a.57.57,0,0,1,.71-.41h0a.59.59,0,0,1,.42.71h0A.59.59,0,0,1,84,14h0Zm-28-.68a.59.59,0,0,1,.43-.71h0a.58.58,0,0,1,.7.43h0a.59.59,0,0,1-.42.71h-.14A.6.6,0,0,1,55.82,13.33Zm25.81.13a.58.58,0,0,1-.45-.69h0a.57.57,0,0,1,.7-.44h0a.58.58,0,0,1,.44.69h0a.59.59,0,0,1-.57.46h0Zm-23.54-.67a.57.57,0,0,1,.45-.68h0a.58.58,0,0,1,.69.45h0a.58.58,0,0,1-.46.69h-.11A.57.57,0,0,1,58.09,12.79ZM79.37,13a.58.58,0,0,1-.47-.68h0a.59.59,0,0,1,.67-.47h0a.6.6,0,0,1,.48.68h0a.59.59,0,0,1-.58.48h-.1Zm-19-.66a.58.58,0,0,1,.48-.66h0a.58.58,0,0,1,.67.48h0a.58.58,0,0,1-.48.67H61A.59.59,0,0,1,60.37,12.35Zm16.73.3h0a.57.57,0,0,1-.5-.65h0a.57.57,0,0,1,.65-.5h0a.58.58,0,0,1,.5.65h0a.58.58,0,0,1-.58.51H77.1ZM62.67,12a.57.57,0,0,1,.51-.64h0a.58.58,0,0,1,.65.51h0a.58.58,0,0,1-.51.65h-.07A.59.59,0,0,1,62.67,12Zm12.14.38a.58.58,0,0,1-.53-.63h0a.59.59,0,0,1,.64-.53h0a.58.58,0,0,1,.52.64h0a.59.59,0,0,1-.58.53h0ZM65,11.77a.58.58,0,0,1,.53-.63h0a.6.6,0,0,1,.63.54h0a.6.6,0,0,1-.54.63h0A.57.57,0,0,1,65,11.77Zm7.52.46a.58.58,0,0,1-.55-.61h0a.59.59,0,0,1,.61-.56h0a.58.58,0,0,1,.55.61h0a.58.58,0,0,1-.58.56h0Zm-5.2-.61a.58.58,0,0,1,.56-.6h0a.58.58,0,0,1,.6.56h0a.59.59,0,0,1-.56.61h0A.58.58,0,0,1,67.31,11.62Zm2.9.54a.59.59,0,0,1-.58-.59h0a.6.6,0,0,1,.59-.58h0a.6.6,0,0,1,.58.59h0a.58.58,0,0,1-.58.58h0Z"/><path class="cls-5" d="M123.45,32.8a14.11,14.11,0,0,1-1,5.18,14,14,0,0,1-4.24,5.7l0,0a14,14,0,0,1-8.67,3,14.65,14.65,0,0,1-2.21-.17A13.95,13.95,0,1,1,123.45,32.8Z"/><path class="cls-6" d="M116.32,26.56l-1.08,1.22L115,30.43l-1.4,1.63-3.34,1.25-1.94-.51-.16,2.33-2,3.23-5.71-1.44,8.17,9.8c.72.11.13.1.88.1a14,14,0,0,0,8.67-3l0-.05,0,0,0,0a13.81,13.81,0,0,0,5.08-8.84Z"/><path class="cls-1" d="M109.87,35.75l-.69-.16a2.75,2.75,0,0,0,0-.41,4.22,4.22,0,0,0-.41-1.81l.51-.41a.24.24,0,0,0,0-.35l-.81-1a.26.26,0,0,0-.35,0l-.52.42a4.07,4.07,0,0,0-1.67-.81v-.57a.25.25,0,0,0-.25-.25h-1.3a.25.25,0,0,0-.25.25v.57a4.22,4.22,0,0,0-1.7.83l-.47-.38a.25.25,0,0,0-.35,0l-.81,1a.25.25,0,0,0,0,.35l.48.38a4.08,4.08,0,0,0-.41,1.78v0l-.62.14a.25.25,0,0,0-.19.29l.29,1.28a.25.25,0,0,0,.3.18l.63-.14a4.06,4.06,0,0,0,1.13,1.43l-.28.6a.25.25,0,0,0,.11.33l1.18.56a.25.25,0,0,0,.33-.11l.28-.59a3.83,3.83,0,0,0,1,.12,4.14,4.14,0,0,0,.87-.1l.28.59a.25.25,0,0,0,.33.11l1.18-.56a.25.25,0,0,0,.12-.33l-.27-.57a4,4,0,0,0,1-1.13h0l.85.2a.25.25,0,0,0,.29-.19l.3-1.27A.26.26,0,0,0,109.87,35.75Zm-6.73-.57a2,2,0,1,1,2,2A1.95,1.95,0,0,1,103.14,35.18Z"/><path class="cls-2" d="M117.12,30l-.69-.16a2.75,2.75,0,0,0,0-.41,4.22,4.22,0,0,0-.41-1.81l.51-.41a.24.24,0,0,0,0-.35l-.81-1a.26.26,0,0,0-.35,0l-.52.42a4.07,4.07,0,0,0-1.67-.81v-.57a.25.25,0,0,0-.25-.25h-1.31a.25.25,0,0,0-.24.25v.57a4.16,4.16,0,0,0-1.7.83l-.47-.38a.25.25,0,0,0-.35,0l-.81,1a.24.24,0,0,0,0,.35l.47.38a4.22,4.22,0,0,0-.4,1.78v0l-.62.14a.25.25,0,0,0-.19.3l.29,1.27a.24.24,0,0,0,.3.18l.62-.14a4.09,4.09,0,0,0,1.14,1.43l-.28.6a.25.25,0,0,0,.11.33l1.18.56a.25.25,0,0,0,.33-.11l.28-.59a3.83,3.83,0,0,0,1,.12,4.14,4.14,0,0,0,.87-.1l.28.59a.25.25,0,0,0,.33.11l1.18-.56a.26.26,0,0,0,.12-.33l-.28-.57a4.08,4.08,0,0,0,1-1.13h0l.85.2a.24.24,0,0,0,.29-.19l.29-1.27A.24.24,0,0,0,117.12,30Zm-6.74-.57a2,2,0,1,1,2,1.95A2,2,0,0,1,110.38,29.46Z"/><polygon class="cls-7" points="20.15 26.37 24.76 26.37 24.76 34.61 29.05 26.37 38.94 26.37 38.94 13.51 20.15 13.51 20.15 26.37"/><polygon class="cls-8" points="48.14 23.91 42.54 23.91 42.54 33.9 37.34 23.91 25.35 23.91 25.35 8.32 48.14 8.32 48.14 23.91"/><path class="cls-9" d="M33.16,16a1.31,1.31,0,1,1-1.31-1.31A1.3,1.3,0,0,1,33.16,16Z"/><path class="cls-9" d="M39,16a1.31,1.31,0,1,1-1.31-1.31A1.31,1.31,0,0,1,39,16Z"/><path class="cls-9" d="M44.76,16a1.31,1.31,0,1,1-1.31-1.31A1.31,1.31,0,0,1,44.76,16Z"/><circle class="cls-1" cx="57.41" cy="116.9" r="11.87" transform="translate(-5.19 2.69) rotate(-2.57)"/><path class="cls-3" d="M55.53,124.09v.71h0a.16.16,0,0,0,0,.13,2.36,2.36,0,0,0,3.52,0,.16.16,0,0,0,0-.13h0v-1.41a10.39,10.39,0,0,1,.27-2.38h0a3.16,3.16,0,0,1,.82-1.17,5.69,5.69,0,0,0,1-1.29,4.7,4.7,0,0,0,.47-2.2h0a3.76,3.76,0,0,0-.38-1.67,3.87,3.87,0,0,0-1-1.26,4.57,4.57,0,0,0-1.38-.78,4.73,4.73,0,0,0-1.58-.27,4.34,4.34,0,0,0-1.55.28,4.25,4.25,0,0,0-1.35.79,4.22,4.22,0,0,0-1.43,2.9h0a4.83,4.83,0,0,0,.47,2.2,5.71,5.71,0,0,0,1,1.29,3.16,3.16,0,0,1,.82,1.17h0a9.23,9.23,0,0,1,.27,2.32v.76Z"/><path class="cls-10" d="M58.39,117.8s0-.06,0-.09h-.08a.31.31,0,0,0,0,.1Z"/><path class="cls-11" d="M58.27,118.19c0,.33-.05.66-.07,1l-.07,1c0,.33-.05.66-.07,1l0,.49c0,.17,0,.33,0,.5l0,.49v.25a.57.57,0,0,0,0,.13v-.37c0-.17,0-.33,0-.5l0-.49,0-.5.08-1,.08-1,.08-1c0-.13,0-.27,0-.4h-.08C58.29,117.93,58.28,118.06,58.27,118.19Z"/><path class="cls-11" d="M56.39,118.19a3,3,0,0,1,.07.32l.06.32c0,.11,0,.22,0,.33l0,.33,0,.33,0,.33c0,.11,0,.22,0,.33l0,.67c0,.22,0,.44,0,.66s0,.44,0,.67,0,.22,0,.33v.33c0-.22,0-.44,0-.66v-.67c0-.22,0-.44,0-.66s0-.45,0-.67,0-.22,0-.33,0-.22,0-.33l0-.34c0-.11,0-.22,0-.33s0-.22,0-.33,0-.22-.05-.33,0-.22-.08-.32a.84.84,0,0,0-.05-.17h-.08Z"/><path class="cls-11" d="M58.45,117.47a1,1,0,0,1,.08-.23.47.47,0,0,1,0-.1l0,0v0l0,0a.13.13,0,0,1,.09,0h.15l.05,0,.09.07a.35.35,0,0,1,.1.19v0a.13.13,0,0,1,0,.06v0l0,0v0a.32.32,0,0,1-.18.12l-.11,0h-.4s0,.06,0,.09h.3l.13,0,.12,0a.27.27,0,0,0,.12-.06.29.29,0,0,0,.1-.09s0,0,0,0a.05.05,0,0,0,0,0,0,0,0,0,0,0,0,0,0,0,0,0,0,0,.2.2,0,0,0,0-.07v-.07a.41.41,0,0,0-.13-.24A.28.28,0,0,0,59,117l-.06,0h-.21l-.07,0-.06,0,0,0,0,0,0,0,0,.06,0,.06a1.13,1.13,0,0,0-.08.24,1.84,1.84,0,0,0,0,.25h.08A2,2,0,0,1,58.45,117.47Z"/><path class="cls-10" d="M57.39,117.48l0,0,0,0,0,0,0,0h0l-.06,0,.06,0Z"/><path class="cls-11" d="M57.38,117.36l-.06,0-.18-.16A.8.8,0,0,1,57,117a.49.49,0,0,1,0-.11.34.34,0,0,1,0-.1,0,0,0,0,1,0,0,0,0,0,0,1,0,0,0,0,0,0,1,0,0h0l0,0,.05,0,.1,0h.35l.11,0a.19.19,0,0,1,.09,0s0,0,0,0v0h0v0h0v0h0a.21.21,0,0,1,0,.1.27.27,0,0,1-.06.1.9.9,0,0,1-.15.19l-.08.08-.07.07,0,0,0,0a.12.12,0,0,1,.05,0l.09-.09.16-.2.07-.11a.65.65,0,0,0,0-.13h0v0s0,0,0,0v0a.26.26,0,0,0-.08-.13.47.47,0,0,0-.12-.07l-.13,0H57.3l-.13,0-.13,0-.06,0a.12.12,0,0,0,0,0h0v0s0,0,0,0a.06.06,0,0,1,0,0s0,0,0,0v.08h0v.06a.61.61,0,0,0,.05.12,1.07,1.07,0,0,0,.15.22l.09.09.1.08,0,0,.06,0Z"/><polygon class="cls-10" points="56.35 117.86 56.35 117.85 56.35 117.85 56.35 117.86"/><path class="cls-11" d="M57.39,117.48l.08,0a1.8,1.8,0,0,0,.47.2l.37.07a.31.31,0,0,1,0-.1l-.12,0h-.12l-.06,0H58a1.85,1.85,0,0,1-.44-.18l-.05,0,0,0Z"/><path class="cls-11" d="M56.75,117.78l-.22.09h-.16a1,1,0,0,1,0,.1h.15a1.57,1.57,0,0,0,.23-.09l.23-.12a3.18,3.18,0,0,0,.37-.27h0l-.06,0a3.43,3.43,0,0,1-.33.24Z"/><path class="cls-11" d="M56.06,117.92l-.24,0-.2-.1a.32.32,0,0,1-.14-.17.18.18,0,0,1,0-.1.13.13,0,0,1,0-.06.17.17,0,0,1,0,0,.55.55,0,0,1,.14-.17h0l0,0,0,0,.05,0h.1l0,0,0,0,0,0,.07.09.06.11a2,2,0,0,1,.08.22l0,.12s0,.08,0,.12h0l0,0h.08s0,0,0-.05h0s0-.08,0-.12l0-.12a1.17,1.17,0,0,0-.09-.24.37.37,0,0,0-.05-.11,1,1,0,0,0-.08-.11L56,117.1l-.06,0-.07,0h-.14l-.06,0-.06,0,0,0h0l-.1.09,0,0h0v0s0,0,0,0,0,0,0,0a.28.28,0,0,0,0,.13.32.32,0,0,0,0,.14l0,.06,0,.06,0,0,.05,0a.9.9,0,0,0,.24.12l.25,0h.28l0-.1A.91.91,0,0,1,56.06,117.92Z"/><path class="cls-10" d="M56.3,117.91h0l0,.1h.08a1,1,0,0,0,0-.1Z"/><path class="cls-11" d="M55.47,124.24V125h0a.19.19,0,0,0,.05.13,2.41,2.41,0,0,0,3.62,0,.19.19,0,0,0,0-.13h0v-1.45a11.28,11.28,0,0,1,.28-2.46h0a3.47,3.47,0,0,1,.85-1.21,6,6,0,0,0,1-1.32,4.86,4.86,0,0,0,.49-2.28h0a4,4,0,0,0-.4-1.72,3.94,3.94,0,0,0-1-1.29,4.58,4.58,0,0,0-1.43-.81,5,5,0,0,0-1.62-.28,4.66,4.66,0,0,0-1.6.29,4.52,4.52,0,0,0-1.39.82,4,4,0,0,0-1,1.29,4.25,4.25,0,0,0-.46,1.69h0a4.86,4.86,0,0,0,.49,2.28,5.68,5.68,0,0,0,1,1.32,3.32,3.32,0,0,1,.84,1.21h0a9.39,9.39,0,0,1,.28,2.39v.78Zm1.86,1.28a3,3,0,0,1-1.3-.41l2.76-.3A1.81,1.81,0,0,1,57.33,125.52Zm-1.45-.71v-.36l2.89-.33v.39Zm2.89-1-2.89.33v-.39l2.91-.35Zm-4.12-4.22a4.23,4.23,0,0,1-1.37-3.31,4,4,0,0,1,4-3.7,3.88,3.88,0,0,1,4.06,3.7A4.2,4.2,0,0,1,60,119.57a3.92,3.92,0,0,0-.93,1.37,8.62,8.62,0,0,0-.29,2.1l-2.91.35a10,10,0,0,0-.3-2.46A3.71,3.71,0,0,0,54.65,119.57Z"/><path class="cls-10" d="M49.24,114.51a2.83,2.83,0,0,0,.72.36c.29.09,1.17.32,1.2.33h.07a.26.26,0,0,0,.25-.19.25.25,0,0,0-.18-.32l-1.19-.33a2.13,2.13,0,0,1-.58-.3.42.42,0,0,0-.15,0,.25.25,0,0,0-.22.12.27.27,0,0,0,0,.19A.3.3,0,0,0,49.24,114.51Z"/><path class="cls-10" d="M53.14,112a.27.27,0,0,0,.37,0,.26.26,0,0,0,0-.37s-.61-.71-.79-.94a2.59,2.59,0,0,1-.32-.57.25.25,0,0,0-.24-.17l-.1,0a.27.27,0,0,0-.15.34,3.33,3.33,0,0,0,.4.71C52.53,111.33,53.12,112,53.14,112Z"/><path class="cls-10" d="M57.19,111h0a.26.26,0,0,0,.26-.22c0-.09.12-.9.12-1.22s0-.78,0-.8a.26.26,0,0,0-.26-.24h0a.25.25,0,0,0-.24.28s0,.48,0,.77-.12,1.13-.12,1.13A.26.26,0,0,0,57.19,111Z"/><path class="cls-10" d="M61.12,112c.08-.08.82-.75,1-1a5.56,5.56,0,0,0,.36-.5.25.25,0,0,0-.09-.36.33.33,0,0,0-.13,0,.26.26,0,0,0-.23.13,3.43,3.43,0,0,1-.31.43c-.15.17-.71.69-1,.94a.28.28,0,0,0,0,.37.31.31,0,0,0,.2.09A.31.31,0,0,0,61.12,112Z"/><path class="cls-10" d="M63.65,115.37h.07a9.14,9.14,0,0,0,1.29-.43,3.07,3.07,0,0,0,.61-.45.25.25,0,0,0,.08-.18.27.27,0,0,0-.08-.19.25.25,0,0,0-.18-.08.32.32,0,0,0-.19.07,2.09,2.09,0,0,1-.48.37,11.38,11.38,0,0,1-1.19.38.26.26,0,0,0,.07.52Z"/><path class="cls-11" d="M49.24,114.51a2.83,2.83,0,0,0,.72.36c.29.09,1.17.32,1.2.33h.07a.26.26,0,0,0,.25-.19.25.25,0,0,0-.18-.32l-1.19-.33a2.13,2.13,0,0,1-.58-.3.42.42,0,0,0-.15,0,.25.25,0,0,0-.22.12.27.27,0,0,0,0,.19A.3.3,0,0,0,49.24,114.51Z"/><path class="cls-11" d="M53.14,112a.27.27,0,0,0,.37,0,.26.26,0,0,0,0-.37s-.61-.71-.79-.94a2.59,2.59,0,0,1-.32-.57.25.25,0,0,0-.24-.17l-.1,0a.27.27,0,0,0-.15.34,3.33,3.33,0,0,0,.4.71C52.53,111.33,53.12,112,53.14,112Z"/><path class="cls-11" d="M57.19,111h0a.26.26,0,0,0,.26-.22c0-.09.12-.9.12-1.22s0-.78,0-.8a.26.26,0,0,0-.26-.24h0a.25.25,0,0,0-.24.28s0,.48,0,.77-.12,1.13-.12,1.13A.26.26,0,0,0,57.19,111Z"/><path class="cls-11" d="M61.12,112c.08-.08.82-.75,1-1a5.56,5.56,0,0,0,.36-.5.25.25,0,0,0-.09-.36.33.33,0,0,0-.13,0,.26.26,0,0,0-.23.13,3.43,3.43,0,0,1-.31.43c-.15.17-.71.69-1,.94a.28.28,0,0,0,0,.37.31.31,0,0,0,.2.09A.31.31,0,0,0,61.12,112Z"/><path class="cls-11" d="M63.65,115.37h.07a9.14,9.14,0,0,0,1.29-.43,3.07,3.07,0,0,0,.61-.45.25.25,0,0,0,.08-.18.27.27,0,0,0-.08-.19.25.25,0,0,0-.18-.08.32.32,0,0,0-.19.07,2.09,2.09,0,0,1-.48.37,11.38,11.38,0,0,1-1.19.38.26.26,0,0,0,.07.52Z"/><rect class="cls-4" y="57.89" width="29.46" height="28.86" rx="4.82" ry="4.82"/><path class="cls-12" d="M29.46,73.3v8.63a4.82,4.82,0,0,1-4.82,4.82H15.32L6.77,78,12,75.43,12.76,74,21,64.62l5.36,5.56Z"/><circle class="cls-13" cx="14.74" cy="72.25" r="9.89" transform="translate(-58.56 64.25) rotate(-72.25)"/><path class="cls-3" d="M14.74,80.8a8.54,8.54,0,1,1,6-2.5A8.52,8.52,0,0,1,14.74,80.8Zm0-16.34a7.79,7.79,0,1,0,7.79,7.79A7.79,7.79,0,0,0,14.74,64.46Z"/><path class="cls-3" d="M14.45,69.59a1.26,1.26,0,0,0,.89-.37,1.23,1.23,0,0,0,.37-.88,1.2,1.2,0,0,0-.37-.9,1.25,1.25,0,0,0-.89-.36,1.22,1.22,0,0,0-.88.37,1.24,1.24,0,0,0-.37.89,1.22,1.22,0,0,0,.37.88A1.23,1.23,0,0,0,14.45,69.59Z"/><path class="cls-3" d="M17.13,75.58H16.3s-.4,0-.42-.37-.07-.9-.07-1L15.76,73c0-.08,0-.17,0-.29v-.62a1.15,1.15,0,0,1,0-.19l0-.51v-1.2a12.15,12.15,0,0,1-3.14,1.07l-.19.85a2.81,2.81,0,0,0,.49,0,1.59,1.59,0,0,0,.62-.12l0,1.71c0,.42,0,1,0,1.49a.33.33,0,0,1-.34.34h-.9v1.83h4.78Z"/><path class="cls-2" d="M130.68,88.76a11.17,11.17,0,0,1-.66,3.81,11.35,11.35,0,0,1-6.57,6.77,11.22,11.22,0,0,1-4.12.77,11.35,11.35,0,1,1,11.35-11.35Z"/><path class="cls-14" d="M130,92.57a11.35,11.35,0,0,1-6.57,6.77l-7.75-7.78,4.11-1.68,2-.31.69-4.33Z"/><path class="cls-10" d="M127.49,89.41l-.77-.08a7.38,7.38,0,0,0-13.9-4.2l-.69-.36a8.16,8.16,0,0,1,15.36,4.64Z"/><polygon class="cls-10" points="125.31 88.29 126.3 92.04 129.05 89.31 125.31 88.29"/><path class="cls-10" d="M119.27,97.16a8.15,8.15,0,0,1-8.09-9.07l.77.09a7.38,7.38,0,0,0,13.9,4.2l.69.35A8.17,8.17,0,0,1,119.27,97.16Z"/><polygon class="cls-10" points="113.36 89.21 112.37 85.46 109.62 88.19 113.36 89.21"/><path class="cls-3" d="M119.11,89.82a.07.07,0,0,1,.07.08v1.65s0,.07-.09.07h-3.31s-.08,0-.08-.06V89.82a.51.51,0,0,1,.09-.26c.64-1,1.81-1.62,1.81-2.36,0-.12,0-.2-.12-.2s-.23.26-.23.52a.07.07,0,0,1-.07.07l-1.35-.06c-.1,0-.1,0-.1-.4a1.76,1.76,0,0,1,1.71-2,1.81,1.81,0,0,1,1.8,1.94c0,1.31-.72,1.89-1.76,2.61a.15.15,0,0,0,0,.06s0,0,.06,0Z"/><path class="cls-3" d="M120.8,90.41a0,0,0,0,0,0,0h-1.57a.06.06,0,0,1-.06-.06v-1.4a.3.3,0,0,1,0-.1l1.95-3.57a.13.13,0,0,1,.09-.07h1.29a.08.08,0,0,1,.07.07v3.48c0,.07,0,.14.16.14s.25,0,.25.1V90.3c0,.06-.11.07-.21.07s-.2,0-.2.11v1.08s0,.06-.07.06h-1.62a.06.06,0,0,1-.06-.06Zm-.39-1.59s0,0,.34,0c0,0,0,0,0,0v-.61s0,0,0,0,0,0-.06,0Z"/><rect class="cls-10" x="127.07" y="57.56" width="7.22" height="0.39"/><rect class="cls-10" x="130.49" y="54.14" width="0.39" height="7.22"/><rect class="cls-3" x="53.69" y="2.83" width="7.22" height="1.55"/><rect class="cls-3" x="56.52" width="1.55" height="7.22"/><rect class="cls-3" x="89.2" y="108.75" width="7.22" height="0.39"/><rect class="cls-3" x="92.62" y="105.34" width="0.39" height="7.22"/><path class="cls-10" d="M19.93,102.83a5.86,5.86,0,0,1-.4,2.17c-.35.86-.87,1.3-1.55,1.3a1.47,1.47,0,0,1-1-.33,3.44,3.44,0,0,1-.66-.8,2.36,2.36,0,0,1-1.67.62,1.89,1.89,0,0,1-1.67-.88,3.32,3.32,0,0,1-.49-1.89,2.75,2.75,0,0,1,.67-1.89,2.31,2.31,0,0,1,1.81-.8,2.51,2.51,0,0,1,1.34.4v-.48h.95v4.33a1.13,1.13,0,0,0,.17.62.6.6,0,0,0,.54.3c.4,0,.69-.36.89-1.09a6,6,0,0,0,.2-1.55,4.76,4.76,0,0,0-1-3.1,3.59,3.59,0,0,0-2.93-1.27,3.8,3.8,0,0,0-2.94,1.33,4.55,4.55,0,0,0-1.16,3.11,4.64,4.64,0,0,0,1.06,3.15,3.75,3.75,0,0,0,3,1.3,6.94,6.94,0,0,0,2-.28V108a9.29,9.29,0,0,1-2.05.21,4.62,4.62,0,0,1-3.6-1.53,5.36,5.36,0,0,1-1.32-3.72,5.25,5.25,0,0,1,1.38-3.67,4.64,4.64,0,0,1,3.57-1.57,4.38,4.38,0,0,1,3.51,1.48A5.38,5.38,0,0,1,19.93,102.83Zm-3.59,1.53v-2.82a2.7,2.7,0,0,0-1.21-.32c-1.05,0-1.57.59-1.57,1.78s.45,1.85,1.37,1.85A2.11,2.11,0,0,0,16.34,104.36Z"/><path class="cls-3" d="M92.81,9.41a3.22,3.22,0,0,1-.21,1.18c-.19.47-.47.7-.84.7a.78.78,0,0,1-.52-.18,1.68,1.68,0,0,1-.36-.43A1.3,1.3,0,0,1,90,11a1,1,0,0,1-.9-.48,1.81,1.81,0,0,1-.27-1,1.51,1.51,0,0,1,.36-1,1.27,1.27,0,0,1,1-.43,1.42,1.42,0,0,1,.72.21V8h.52v2.35a.62.62,0,0,0,.09.34.33.33,0,0,0,.29.16c.22,0,.38-.2.48-.59a2.94,2.94,0,0,0,.11-.84,2.59,2.59,0,0,0-.51-1.68,2,2,0,0,0-1.59-.69,2.09,2.09,0,0,0-1.6.72A2.44,2.44,0,0,0,88,9.47a2.56,2.56,0,0,0,.57,1.71,2,2,0,0,0,1.63.7,3.92,3.92,0,0,0,1.11-.15v.46a4.78,4.78,0,0,1-1.11.12,2.49,2.49,0,0,1-1.95-.83,2.91,2.91,0,0,1-.72-2,2.85,2.85,0,0,1,.75-2,2.5,2.5,0,0,1,1.93-.85,2.4,2.4,0,0,1,1.91.8A3,3,0,0,1,92.81,9.41Zm-2,.83V8.71a1.47,1.47,0,0,0-.65-.17c-.57,0-.85.32-.85,1s.24,1,.74,1A1.1,1.1,0,0,0,90.86,10.24Z"/><path class="cls-3" d="M127.37,47.55a.38.38,0,0,1-.38-.33l0-.33s0,0,0,0h0l-.93-.24h0l-.21.28a.4.4,0,0,1-.31.15.38.38,0,0,1-.23-.08l-.57-.44a.39.39,0,0,1-.08-.54l.21-.26h0v0l-.55-.95h0l-.34,0a.38.38,0,0,1-.43-.33l-.09-.72a.35.35,0,0,1,.07-.28.46.46,0,0,1,.26-.15l.33,0h0v0l.23-.92a0,0,0,0,0,0,0l-.27-.21a.41.41,0,0,1-.15-.25.41.41,0,0,1,.08-.29l.44-.57a.36.36,0,0,1,.3-.15.41.41,0,0,1,.24.08l.25.19h0l1-.57v0l0-.31a.39.39,0,0,1,.34-.43l.71-.1a.39.39,0,0,1,.43.33l0,.32h0l.93.24h0l.2-.25a.36.36,0,0,1,.3-.15.4.4,0,0,1,.24.07l.57.44a.36.36,0,0,1,.14.26.35.35,0,0,1-.07.28l-.18.24v0h0l.56.95h0l.31,0a.38.38,0,0,1,.43.33l.09.71a.37.37,0,0,1-.07.29.46.46,0,0,1-.26.15l-.31,0h0v0l-.25.94v0l.26.2a.37.37,0,0,1,.15.26.36.36,0,0,1-.08.28l-.44.57a.36.36,0,0,1-.3.15h0a.36.36,0,0,1-.23-.08l-.25-.19h0l-.94.55a0,0,0,0,0,0,0l0,.32a.38.38,0,0,1-.33.43l-.71.1Zm-.36-1.1a.48.48,0,0,1,.36.38l0,.29L128,47l0-.28a.46.46,0,0,1,.24-.46l.9-.53a.47.47,0,0,1,.52,0l.21.17.39-.51-.23-.17a.45.45,0,0,1-.15-.5l.23-.9a.46.46,0,0,1,.37-.36l.27,0-.08-.63-.27,0a.44.44,0,0,1-.45-.24l-.54-.91a.44.44,0,0,1,0-.52l.15-.2-.5-.39-.17.22a.45.45,0,0,1-.36.18l-.14,0-.88-.23a.45.45,0,0,1-.36-.37l0-.28-.63.08,0,.28a.46.46,0,0,1-.24.45l-.92.55a.47.47,0,0,1-.52,0l-.22-.17-.38.51.24.18a.49.49,0,0,1,.15.5l-.22.87a.46.46,0,0,1-.38.36l-.29,0,.08.63.29,0a.46.46,0,0,1,.46.25l.53.9a.45.45,0,0,1,0,.52l-.18.23.5.38.19-.24a.45.45,0,0,1,.36-.17.34.34,0,0,1,.14,0Zm.24-1.41a1.42,1.42,0,0,1-1.41-1.24,1.41,1.41,0,0,1,.28-1,1.43,1.43,0,0,1,.95-.55h.18a1.42,1.42,0,0,1,1.41,1.24,1.41,1.41,0,0,1-.28,1,1.37,1.37,0,0,1-.94.55Zm0-2.42h-.13a1,1,0,0,0-.66.38,1,1,0,0,0-.2.74,1,1,0,0,0,1,.86h.13a1,1,0,0,0,.66-.39.93.93,0,0,0,.2-.73A1,1,0,0,0,127.25,42.62Z"/><path class="cls-3" d="M134.33,54a.44.44,0,0,1-.41-.29l-.15-.4s0,0-.07,0h0l-1.23,0h0a.11.11,0,0,0-.09,0l-.19.41a.43.43,0,0,1-.39.25.58.58,0,0,1-.18,0l-.84-.39a.44.44,0,0,1-.21-.57l.18-.39a.11.11,0,0,0,0-.08l0,0-.95-1a.11.11,0,0,0-.07,0h0l-.41.15-.14,0a.43.43,0,0,1-.41-.28l-.32-.87a.42.42,0,0,1,0-.33.4.4,0,0,1,.24-.22l.41-.15a.11.11,0,0,0,.05-.08h0l0-1.21a.1.1,0,0,0,0-.09l-.41-.19a.4.4,0,0,1-.22-.24.42.42,0,0,1,0-.33l.39-.84a.45.45,0,0,1,.4-.25.58.58,0,0,1,.18,0l.37.18h0l.06,0,0,0,1-1s0-.07,0-.09l-.14-.39a.42.42,0,0,1,0-.33.47.47,0,0,1,.24-.22l.87-.32a.4.4,0,0,1,.15,0,.43.43,0,0,1,.4.29l.14.38a.11.11,0,0,0,.08,0h0L134,45h0A.11.11,0,0,0,134,45l.18-.37a.42.42,0,0,1,.39-.26.37.37,0,0,1,.18,0l.84.38a.45.45,0,0,1,.22.25.42.42,0,0,1,0,.33l-.16.34s0,.08,0,.09v0l1,1a.08.08,0,0,0,.07,0h0l.37-.14.15,0a.44.44,0,0,1,.41.28l.31.87a.42.42,0,0,1,0,.33.47.47,0,0,1-.24.22l-.38.14a.09.09,0,0,0-.05.07h0l0,1.26s0,.07.05.08l.38.18a.43.43,0,0,1,.22.24.42.42,0,0,1,0,.33l-.39.84a.44.44,0,0,1-.39.25h0a.34.34,0,0,1-.18,0l-.37-.17h0a.08.08,0,0,0-.06,0l0,0-1,.94s0,.07,0,.09l.15.4a.43.43,0,0,1-.26.55l-.87.32A.32.32,0,0,1,134.33,54Zm-.63-1.17a.52.52,0,0,1,.47.33l.16.41h0l.86-.32-.14-.4a.55.55,0,0,1,.16-.58l1-.91a.51.51,0,0,1,.38-.16.45.45,0,0,1,.2,0l.37.17.39-.84-.39-.18a.53.53,0,0,1-.29-.52l0-1.2a.51.51,0,0,1,.33-.49l.38-.14-.32-.87-.38.13a.41.41,0,0,1-.16,0,.52.52,0,0,1-.41-.19l-.93-1a.52.52,0,0,1-.12-.59l.16-.34-.84-.4h0l-.17.37a.52.52,0,0,1-.52.29l-1.17,0h0a.52.52,0,0,1-.48-.33l-.14-.39-.87.32.14.39a.53.53,0,0,1-.16.57l-1,.94a.5.5,0,0,1-.38.17.65.65,0,0,1-.2,0l-.37-.18-.4.84.41.19a.53.53,0,0,1,.29.52l0,1.16a.52.52,0,0,1-.33.5l-.41.15.31.87.42-.15.16,0a.53.53,0,0,1,.41.19l.92,1a.51.51,0,0,1,.12.58l-.18.39.84.39L132,53a.53.53,0,0,1,.52-.29l1.18,0Zm-.51-1.9a1.78,1.78,0,0,1-1.66-1.16,1.75,1.75,0,0,1,.06-1.35,1.77,1.77,0,1,1,2.21,2.4A1.83,1.83,0,0,1,133.19,50.88Zm0-3.11a1.48,1.48,0,0,0-.46.08,1.35,1.35,0,0,0-.75.7,1.29,1.29,0,0,0,0,1,1.33,1.33,0,0,0,1.25.88,1.44,1.44,0,0,0,.46-.08,1.34,1.34,0,0,0-.46-2.6Z"/><path class="cls-3" d="M115.7,111.33l-3.79-4.94h2.34v-3.94h2.9v3.94h2.34Zm-2.84-4.47,2.84,3.7,2.84-3.7h-1.85v-3.94h-2v3.94Z"/><path class="cls-3" d="M37.16,107.51l-4.93-3.79,4.93-3.8v2.34h4v2.91h-4ZM33,103.72l3.69,2.84V104.7h4v-2h-4v-1.85Z"/><path class="cls-10" d="M14.32,40.48V38.14H10.38v-2.9h3.94V32.9l4.93,3.79Zm-3.48-2.8h3.95v1.85l3.69-2.84-3.69-2.84v1.86H10.84Z"/></g></g></svg>