<svg xmlns="http://www.w3.org/2000/svg" xmlns:xlink="http://www.w3.org/1999/xlink" viewBox="0 0 174.17 148.8"><defs><style>.cls-1,.cls-17,.cls-19,.cls-20,.cls-7{fill:none;}.cls-2{isolation:isolate;}.cls-3{fill:#a15625;}.cls-4{fill:#6b3916;}.cls-5{clip-path:url(#clip-path);}.cls-12,.cls-15,.cls-6{fill:#f3a560;}.cls-22,.cls-6{opacity:0.4;}.cls-15,.cls-6,.cls-8{mix-blend-mode:multiply;}.cls-17,.cls-7{stroke:#fff;mix-blend-mode:overlay;}.cls-17,.cls-19,.cls-20,.cls-7{stroke-miterlimit:10;}.cls-7{stroke-width:0.48px;}.cls-17,.cls-18,.cls-7{opacity:0.6;}.cls-8{fill:#e1b05f;}.cls-9{clip-path:url(#clip-path-3);}.cls-10{clip-path:url(#clip-path-5);}.cls-11{clip-path:url(#clip-path-7);}.cls-13{fill:#be6928;}.cls-14{clip-path:url(#clip-path-9);}.cls-15{opacity:0.3;}.cls-16{fill:#e9924b;}.cls-17,.cls-20{stroke-width:0.5px;}.cls-19{stroke:#a15625;stroke-width:1.1px;}.cls-20{stroke:#c07633;}.cls-21{opacity:0.5;}.cls-23{clip-path:url(#clip-path-12);}.cls-24{clip-path:url(#clip-path-13);}.cls-25{fill:#3e4a67;}.cls-26{fill:#fff;}.cls-27{fill:#2b3451;}.cls-28{fill:#cc2029;}.cls-29{fill:#71bd46;}.cls-30{opacity:0.1;}.cls-31{fill:#aac0cd;}.cls-32{fill:#f59822;}.cls-33{fill:#9894a6;}.cls-34{fill:#c8d2d5;}.cls-35{fill:#e6ebeb;}.cls-36{fill:#7482bd;}.cls-37{fill:#face9c;}.cls-38{fill:#f6b461;}.cls-39{clip-path:url(#clip-path-14);}.cls-40{fill:#424a60;}</style><clipPath id="clip-path" transform="translate(0 -0.82)"><polygon class="cls-1" points="100.82 53.62 100.82 81.65 96.5 81.65 96.5 53.53 100.82 53.62"/></clipPath><clipPath id="clip-path-3" transform="translate(0 -0.82)"><rect class="cls-1" x="102.72" y="53.62" width="4.95" height="45.24"/></clipPath><clipPath id="clip-path-5" transform="translate(0 -0.82)"><polygon class="cls-1" points="23.48 53.62 23.48 81.65 27.8 81.65 27.8 53.53 23.48 53.62"/></clipPath><clipPath id="clip-path-7" transform="translate(0 -0.82)"><rect class="cls-1" x="16.63" y="53.62" width="4.95" height="45.24"/></clipPath><clipPath id="clip-path-9" transform="translate(0 -0.82)"><polygon class="cls-1" points="102.3 35.94 62.15 35.94 22 35.94 15.36 48.42 62.15 48.42 108.94 48.42 102.3 35.94"/></clipPath><clipPath id="clip-path-12" transform="translate(0 -0.82)"><polygon class="cls-1" points="62.36 48.42 62.3 48.42 16.05 48.42 16.05 55.21 62.3 55.21 62.36 55.21 108.25 55.21 108.25 48.42 62.36 48.42"/></clipPath><clipPath id="clip-path-13" transform="translate(0 -0.82)"><path class="cls-1" d="M62.58,52.13a.82.82,0,1,1-.82-.82A.82.82,0,0,1,62.58,52.13Z"/></clipPath><clipPath id="clip-path-14" transform="translate(0 -0.82)"><rect class="cls-1" x="102.77" width="71.64" height="98.32"/></clipPath></defs><title>Asset 8</title><g class="cls-2"><g id="Layer_2" data-name="Layer 2"><g id="Layer_1-2" data-name="Layer 1"><polygon class="cls-3" points="100.82 52.8 100.82 80.83 96.5 80.83 96.5 52.7 100.82 52.8"/><polygon class="cls-4" points="96.5 80.83 96.5 52.7 95.9 52.26 95.9 79.22 96.5 80.83"/><g class="cls-5"><polygon class="cls-6" points="100.91 57.47 94.94 55.08 95.44 52.75 101.08 52.8 100.91 57.47"/></g><line class="cls-7" x1="96.47" y1="54.38" x2="96.47" y2="80.83"/><g class="cls-5"><path class="cls-8" d="M104.82,50.81c-.33,5.67.43,11.16.43,16.65-.29,17.54-.54,35-.53,52.48v2.27c0,7.52.1,15.28.21,22.85-.11-7.95-.22-16.08-.39-24.1l0-2.18c-.17-13.12-.24-26.22.09-39.39.22-9.47-.55-18.93-.77-28.39,0,4.54.22,9.08.22,13.62q0,18.18,0,36.26c0,.76,0,1.51,0,2.27-.28,14.47,0,28.66-.06,43-1-31,0-61.89-1.09-92.93.33,30.66-.22,61.13.11,91.79-.66-31.23.33-62.65-.33-93.88.22,31.23-.55,62.65,0,93.88-.22-6.62-.44-13.43-.33-20.06.11-24,.11-48.07-.44-72.11.77,30.47-.54,61.13.11,91.61-.11-4.36-.22-8.52-.22-12.87,0-26.5.55-53-.11-79.5.66,31.23-.32,62.65.22,93.88-.22-8.33-.54-16.66-.43-25,.43-22.53.43-45.24,0-67.76.87,30.47-.66,60.75.21,91.23-.32-7.95-.76-15.71-.54-23.66.65-23.28,0-46.37,0-69.66-.11,23.66.43,47.32-.33,71-.22,8.14.66,16.09.33,24-.22-6.25-.55-12.3-.55-18.55V60.84c-.22,20.63.11,41.26-.44,61.89-.22,7.76.44,15.33.44,23.09-.22-9.27-.77-18.36-.66-27.63.33-21.2.11-42.4-.22-63.6.55,24-.32,47.89-.32,71.93,0,6.24.32,12.49.43,18.73-.21-9.84-1.09-19.68-.43-29.52-.77,10,.54,20.25.22,30.28-.22-12.87-.77-25.55-.11-38.42-.66,12.68-.22,25.36.11,38-.77-13.44-.55-26.87-.44-40.31-.33,13.62-.22,27.25.11,40.88-1.21-29-.22-58.11-.55-87.26,0,21.58-.11,43-.33,64.55-.11,7,.33,14,.33,21-.33-6.44-.44-13.06-.66-19.5-.11-3.59.11-7.38.22-11,.11-5.3-.22-10.41-.22-15.71,0-15.71,0-31.23-.43-46.94.65,31.61-.44,63,.11,94.64,0-11-.44-21.77-.44-32.74-.11-21,.44-41.83-.55-62.84.11,3.4.33,6.62.22,10q-.16,42.58,0,85.17c-.44-28.77-.22-57.73-.33-86.5,0-3.4-.22-6.62-.33-10,.44,32.18,0,64.54.22,96.72C96,114,96.17,82.23,95.41,50.43q.16,46.85.14,93.62c0,.55,0,1,0,1.29s0,.51,0,.62v0h0v0s0,0,0,0,0-.26,0-.64,0-.92,0-1.61c-.27-30.5-.38-60.79-.82-91.26.11,28,0,55.83.15,83.77v2c0,5.72,0,8.43-.05,8.48h0s0,0-.06-2c0-1.22,0-3,0-5.4,0-2.1,0-4.7,0-7.75,0-.62,0-1.25,0-1.89,0-21.41-.25-42.79-.14-64.18-.11,19.87-.11,39.56-.06,59.51,0,.49,0,1,0,1.46v19.08s0,0,0,0,0,0,0,0h0v-.06c0-.13,0-.4,0-1s0-1.7,0-3c0-2.43-.07-6-.11-10.62,0-1.94,0-4.08-.07-6.4,0-.58,0-1.18,0-1.78-.3-21.45-.3-42.65-.63-64,0,14,0,28.2.06,42.27v1.48c0,.49,0,1,0,1.46v1.47c0,1,0,2,0,2.91v5.71c0,.91,0,1.86,0,2.78v1.37c0,15.87,0,28.3-.08,28.41h0s-.07,0-.11-4.14c0-2.47-.06-6.11-.09-10.8,0-7.67-.09-18.26-.13-31.5,0-.43,0-.86,0-1.29v-2c0-.68,0-1.36,0-2C92.89,89.42,93,84.31,93,79c0,5.11,0,10.22,0,15.24v46.87c0,1.29,0,2.3,0,3s0,.86,0,1v.07h0c0,.05,0,.05,0,.05s0,0,0-.05c0-.53-.22-30.22-.45-56.21,0-.5,0-1,0-1.52,0-.85,0-2,0-3,0-.49,0-1,0-1.49-.12-13.53-.23-23.42-.16-17.5,0,.78,0-1.53,0-2.27s0-1.44,0-2.12,0-1.33,0-2c0-3.13-.07-5.54-.1-7,0,12.38,0,93.52,0,94.41a0,0,0,0,1,0,0,0,0,0,0,1,0,0v0h0a2.94,2.94,0,0,1,0-.4h0a0,0,0,0,1,0,0c0-9.69-.2-94.68,0-95a0,0,0,0,1,0,0s0,.21,0,.77v-1c0-.32,0-.32,0-.32,0,.37,0,.56.07,1s0,.69,0,1.2,0,1.14,0,1.91c0,1.23,0,2.75.06,4.54,0,.59,0,1.22,0,1.88,0,1.38,0,2.9,0,4.31,0,.49,0,1,0,1.51q.08,6.18.14,14.62c0,.71,0,1.42,0,2.15,0,1.5,0,3,0,4.48,0,.77,0,1.56,0,2.35q0,3.57.06,7.43c.14,16.64.27,33.43.33,41.83,0-8.75,0-26.61,0-44v-1.5c0-14.38,0-28.57,0-43,0,16.09.22,32.18.13,48.18,0,.54,0,1.08,0,1.62.07,21,.16,41.54.27,45.06,0-3.17,0-19.89,0-38.39v-6.39c0-16.57,0-33,0-49.7q.33,35.49.68,71c0,.45,0,.9,0,1.34.08,7.41.14,13.64.18,17.5V127.23c-.11-25.7.11-51.25-.11-77,.44,26.69.11,53.56.42,80.3,0,.72,0,1.42,0,2.1,0,6.11.06,10.74.09,12.85,0-1.7,0-5,0-9.49v-2c-.09-27.76,0-55.39-.09-83.21.66,30.47.33,60.75.88,91.23-.11-30.67-.11-61.52-.11-92.18,1,30.66.44,61.32,1.09,92q-.33-46.56-.11-93.13c.44,9.28.33,18.74.33,28,.11,19.68,0,39.18.11,58.86-.33-29,.33-57.92-.11-86.88,1.1,29.15.22,58.49.88,87.83-.44-29.15.43-58.3,0-87.45.76,26.31.32,52.43.65,78.74,0,4.73.22,9.46.44,14.2-.22-7.57-.55-15.15-.44-22.72q.66-35.2.22-70.41c.66,23.09.44,46.19.11,69.28-.11,7.19.44,14.38.44,21.57,0-3.59-.22-7.19-.22-10.78,0-26.69.55-53.57.33-80.26.44,25.93-.11,52.05-.11,78,0,5.3.33,10.6.44,15.9,0-4.73-.33-9.46-.33-14.19,0-26.31.65-52.81.22-79.12,0,4.92.43,10,.32,14.95.22-5.11-.43-10-.21-15.14.43,23.09.21,46-.22,69.09-.11,5.68-.11,11.54.33,17.22a52.35,52.35,0,0,1-.22-7.19c.22-26.12.43-52.24.32-78.36.66,18.93.22,38,.55,57,.22,8.71-.76,17.41,0,26.12-.11-27.82.55-55.65.22-83.47.55,26.69,0,53.19.22,79.87.11,5.49.22,10.79.55,16.28-.77-31.8,0-63.78-.11-95.58.11,24,.54,48.26,0,72.3,0,3.41,0,6.82.22,10.22-.22-5.3,0-10.79.11-16.09.21-22,0-43.91.1-65.86.33,24.22.33,48.64-.1,72.87-.11,6,.32,12.3.32,18.36,0-3.41-.22-6.63-.11-10,.22-26.87,0-53.94.22-80.81,0,11.92.44,23.84.11,35.77.33-12.3-.33-24.42.11-36.72q.33,38,.33,76.09c0-25,.22-50.16.22-75.14.11,9.27.44,18.73.33,28,.11-9.47-.33-18.74,0-28.2.43,30.85.43,61.51,1,92.36,0-15.71-.22-31.42-.17-47.09,0-.72,0-1.44,0-2.16,0-5,.12-10.07.27-15.1.27-6.31.09-12.62-.17-19,0-.64,0-1.28-.08-1.93-.19-1.18,0-2.31-.07-3.38,0-.49,0-1,0-1.49,0-1,.08-2,.19-2.93-.11,5.11.33,10,.44,15,.33,18.17,0,36.24.11,54.27,0,.75,0,1.51,0,2.24.1,5.19.1,10.3.32,15.42-.11-5.12-.11-10.41-.15-15.5,0-.75,0-1.5,0-2.25-.07-13.58,0-27.11.38-40.74.21-7.19.11-14.39-.22-21.58a26.24,26.24,0,0,1,.11-7.19" transform="translate(0 -0.82)"/></g><rect class="cls-3" x="102.72" y="52.8" width="4.95" height="45.24"/><polygon class="cls-4" points="102.72 98.04 101.56 96.51 101.56 52.49 102.72 52.61 102.72 98.04"/><g class="cls-9"><polygon class="cls-6" points="108.81 64.2 101.35 59.74 101.61 52.82 108.85 52.8 108.81 64.2"/></g><line class="cls-7" x1="102.77" y1="54.42" x2="102.72" y2="98.04"/><g class="cls-9"><path class="cls-8" d="M113.08,53.64c-.33,5.67.44,11.16.44,16.65-.3,17.54-.55,35-.54,52.48v2.28c0,7.51.1,15.27.21,22.84-.11-7.94-.22-16.08-.39-24.1l0-2.18c-.17-13.11-.24-26.22.09-39.39.22-9.47-.55-18.93-.77-28.39,0,4.54.22,9.08.22,13.62q0,18.18,0,36.26c0,.76,0,1.51,0,2.27-.28,14.47,0,28.67-.06,43.05-1-31,0-61.89-1.09-92.93.33,30.66-.22,61.13.11,91.79-.66-31.23.33-62.65-.33-93.88.22,31.23-.55,62.65,0,93.88-.22-6.62-.44-13.43-.33-20.06.11-24,.11-48.07-.44-72.11.77,30.47-.54,61.13.11,91.61-.11-4.36-.22-8.52-.22-12.87,0-26.5.55-53-.1-79.5.65,31.23-.33,62.65.21,93.88-.21-8.33-.54-16.65-.43-25,.43-22.53.43-45.24,0-67.76.87,30.47-.66,60.75.22,91.23-.33-8-.77-15.71-.55-23.66.65-23.28,0-46.37,0-69.66-.11,23.66.44,47.32-.33,71-.22,8.14.66,16.09.33,24-.22-6.25-.55-12.3-.55-18.55V63.67c-.22,20.63.11,41.26-.44,61.89-.21,7.76.44,15.33.44,23.09-.22-9.27-.76-18.36-.65-27.63.32-21.2.1-42.4-.22-63.6.54,24-.33,47.89-.33,71.93,0,6.24.33,12.49.44,18.73-.22-9.84-1.1-19.68-.44-29.52-.77,10,.55,20.25.22,30.28-.22-12.87-.77-25.55-.11-38.42-.66,12.68-.22,25.36.11,38-.77-13.44-.55-26.87-.44-40.31-.33,13.62-.22,27.25.11,40.88-1.2-29-.22-58.11-.55-87.25,0,21.57-.11,43-.33,64.54-.11,7,.33,14,.33,21-.33-6.44-.44-13.06-.65-19.5-.11-3.59.1-7.38.21-11,.11-5.3-.21-10.41-.21-15.71,0-15.71,0-31.23-.44-46.94.65,31.61-.44,63,.11,94.64,0-11-.44-21.77-.44-32.74-.11-21,.44-41.83-.55-62.84.11,3.4.33,6.62.22,10q-.17,42.59,0,85.17c-.44-28.77-.22-57.73-.33-86.5,0-3.4-.22-6.62-.33-10,.44,32.18,0,64.55.22,96.72-.54-31.8-.32-63.59-1.09-95.39q.17,46.84.14,93.62v1.29c0,.31,0,.51,0,.62v.05h0v0s-.05,0-.05,0v-.64c0-.38,0-.92,0-1.61-.27-30.5-.38-60.79-.82-91.26.11,28,0,55.84.15,83.77v2c0,5.72,0,8.43,0,8.48h0s0,0-.07-2c0-1.22,0-3,0-5.4,0-2.1,0-4.69,0-7.75,0-.62,0-1.25,0-1.89,0-21.4-.25-42.79-.15-64.18-.1,19.87-.1,39.56-.05,59.51v20.54s0,.05,0,.05,0,0,0-.05h0v-.06c0-.13,0-.4,0-1s0-1.7,0-3c0-2.43-.06-6-.11-10.62,0-1.94,0-4.08-.06-6.4,0-.58,0-1.18,0-1.78-.3-21.45-.3-42.65-.63-64,0,14,0,28.2.06,42.27,0,.5,0,1,0,1.48v2.93c0,1,0,2,0,2.91v5.71c0,.91,0,1.86,0,2.78V121c0,15.87,0,28.3-.07,28.41h0c-.05,0-.08,0-.12-4.14,0-2.47-.06-6.11-.09-10.8,0-7.67-.09-18.26-.13-31.5v-1.29c0-.68,0-1.36,0-2s0-1.36,0-2c-.17-5.39-.06-10.5-.06-15.8,0,5.11,0,10.22,0,15.24V101c0,13.63,0,24.5,0,32.29V144c0,1.29,0,2.3,0,3V148h0s0,0,0,0,0,0,0,0c0-.53-.22-30.22-.44-56.2,0-.51,0-1,0-1.53,0-.85,0-2,0-3,0-.49,0-1,0-1.48-.12-13.54-.22-23.43-.16-17.51,0,.78,0-1.53,0-2.27s0-1.44,0-2.12,0-1.33,0-2c0-3.13-.07-5.54-.1-7,0,12.38,0,93.52,0,94.41v0s0,0,0,0,0,0,0,0h0c0-.06,0-.2,0-.4h0a0,0,0,0,1,0,0c0-9.69-.2-94.68,0-95a0,0,0,0,1,0,0s0,.21,0,.77v-1c0-.32,0-.32,0-.32,0,.37,0,.56.06,1s0,.69,0,1.2,0,1.14,0,1.91c0,1.23,0,2.75,0,4.54,0,.6,0,1.22,0,1.88.06,1.38.06,2.9,0,4.31,0,.49,0,1,0,1.51,0,4.12.08,9,.13,14.63,0,.7,0,1.41,0,2.14,0,1.5,0,3,0,4.48,0,.77,0,1.56,0,2.35q0,3.57.07,7.43c.13,16.64.26,33.43.33,41.83V97c0-14.37,0-28.57,0-43,0,16.09.22,32.18.13,48.18,0,.54,0,1.08,0,1.62.07,21,.16,41.54.27,45.06,0-3.17.06-19.89,0-38.38v-6.4c0-16.57,0-33,0-49.7q.33,35.49.68,71c0,.44,0,.89,0,1.33.08,7.42.14,13.64.18,17.5V130.06c-.1-25.7.11-51.25-.1-77,.43,26.69.11,53.56.42,80.3v2.1c0,6.11.06,10.74.09,12.85,0-1.7,0-5,0-9.49v-2c-.09-27.77,0-55.4-.09-83.22.66,30.47.33,60.75.88,91.23-.11-30.67-.11-61.52-.11-92.18,1,30.66.44,61.32,1.09,92q-.33-46.56-.11-93.13c.44,9.28.33,18.74.33,28,.11,19.68,0,39.18.11,58.86-.33-29,.33-57.92-.11-86.88,1.1,29.15.22,58.49.88,87.83-.44-29.15.44-58.3,0-87.45.76,26.31.33,52.43.65,78.74,0,4.73.22,9.46.44,14.2-.22-7.57-.55-15.15-.44-22.72q.66-35.2.22-70.41c.66,23.1.44,46.19.11,69.28-.11,7.19.44,14.38.44,21.57,0-3.59-.22-7.19-.22-10.78,0-26.69.55-53.57.33-80.26.44,25.93-.11,52.05-.11,78,0,5.3.33,10.6.44,15.9,0-4.73-.33-9.46-.33-14.19,0-26.31.66-52.81.22-79.12,0,4.92.44,10,.33,14.95.22-5.11-.44-10-.22-15.14.44,23.09.22,46-.22,69.09-.11,5.68-.11,11.54.33,17.22a52.35,52.35,0,0,1-.22-7.19c.22-26.12.44-52.24.33-78.36.65,18.93.22,38,.54,57,.22,8.71-.76,17.41,0,26.12-.11-27.82.55-55.65.22-83.47.55,26.69,0,53.19.22,79.88.11,5.48.22,10.78.55,16.27-.77-31.8,0-63.78-.11-95.58.11,24,.55,48.26,0,72.3,0,3.41,0,6.82.22,10.22-.22-5.3,0-10.79.11-16.09.22-22,0-43.91.11-65.86.32,24.22.32,48.64-.11,72.87-.11,6.05.32,12.3.32,18.36,0-3.41-.21-6.63-.1-10,.21-26.88,0-53.95.21-80.82,0,11.92.44,23.84.11,35.77.33-12.3-.32-24.42.11-36.72q.33,38,.33,76.09c0-25,.22-50.16.22-75.14.11,9.27.44,18.73.33,28,.11-9.47-.33-18.74,0-28.2.44,30.85.44,61.51,1,92.36,0-15.71-.22-31.42-.17-47.09,0-.72,0-1.44,0-2.16,0-5,.12-10.07.27-15.1.28-6.31.09-12.62-.16-19,0-.64-.06-1.28-.08-1.93-.2-1.18,0-2.31-.08-3.38,0-.49,0-1,0-1.49,0-1,.08-2,.19-2.93-.11,5.11.33,10,.44,14.95.33,18.17,0,36.24.11,54.27,0,.75,0,1.51,0,2.24.1,5.19.1,10.31.32,15.42-.11-5.11-.11-10.41-.14-15.5,0-.75,0-1.5,0-2.25-.07-13.58,0-27.11.38-40.74.22-7.19.11-14.38-.22-21.58a26.24,26.24,0,0,1,.11-7.19" transform="translate(0 -0.82)"/></g><polygon class="cls-3" points="23.48 52.8 23.48 80.83 27.8 80.83 27.8 52.7 23.48 52.8"/><polygon class="cls-4" points="27.8 80.83 27.8 52.7 28.47 52.07 28.47 79.03 27.8 80.83"/><g class="cls-10"><polygon class="cls-6" points="23.32 57.42 29.29 55.03 28.77 52.7 23.15 52.75 23.32 57.42"/></g><line class="cls-7" x1="27.8" y1="80.83" x2="27.76" y2="54.38"/><g class="cls-10"><path class="cls-8" d="M32.64,49c-.33,5.68.44,11.17.44,16.65-.3,17.55-.54,35-.53,52.49v2.27c0,7.51.09,15.28.2,22.85-.11-8-.22-16.09-.38-24.1l0-2.18c-.18-13.12-.24-26.23.08-39.4.22-9.47-.54-18.93-.76-28.39,0,4.54.22,9.08.22,13.63q0,18.17-.05,36.26v2.26c-.28,14.47.05,28.67-.06,43.05-1-31,0-61.89-1.1-92.93.33,30.66-.22,61.13.11,91.8-.65-31.23.33-62.65-.33-93.88.22,31.23-.54,62.65,0,93.88-.21-6.63-.43-13.44-.32-20.07.11-24,.11-48.07-.44-72.11.76,30.47-.55,61.14.11,91.61-.11-4.35-.22-8.52-.22-12.87,0-26.5.55-53-.11-79.5.66,31.23-.33,62.65.22,93.88-.22-8.32-.55-16.65-.44-25,.44-22.52.44-45.24,0-67.76.88,30.47-.66,60.76.22,91.23-.33-7.95-.77-15.71-.55-23.66.66-23.28,0-46.37,0-69.65-.11,23.66.44,47.32-.33,71-.21,8.14.66,16.09.33,24-.22-6.24-.54-12.3-.54-18.55V59c-.22,20.63.1,41.26-.44,61.89-.22,7.76.44,15.33.44,23.09-.22-9.27-.77-18.36-.66-27.63.33-21.2.11-42.4-.22-63.6.55,24-.33,47.89-.33,71.93,0,6.24.33,12.49.44,18.74-.22-9.85-1.09-19.69-.44-29.53-.76,10,.55,20.25.22,30.28-.22-12.87-.76-25.55-.11-38.42-.65,12.68-.22,25.36.11,38-.76-13.43-.55-26.87-.44-40.31-.32,13.63-.22,27.25.11,40.88-1.2-29-.22-58.11-.54-87.25,0,21.57-.11,43-.33,64.54-.11,7,.33,14,.33,21-.33-6.44-.44-13.06-.66-19.5-.11-3.59.11-7.38.22-11,.11-5.3-.22-10.41-.22-15.71,0-15.71,0-31.23-.44-46.94.66,31.6-.44,63,.11,94.63,0-11-.44-21.76-.44-32.74-.11-21,.44-41.83-.54-62.84.11,3.41.32,6.62.22,10q-.16,42.59,0,85.17c-.44-28.77-.22-57.72-.33-86.49,0-3.41-.22-6.63-.33-10,.44,32.17,0,64.54.22,96.71-.55-31.79-.33-63.59-1.1-95.39q.16,46.84.15,93.62c0,.55,0,1,0,1.29s0,.52,0,.62v.06h0a0,0,0,0,1,0,0s0,0-.05,0v-.64c0-.38,0-.92,0-1.61-.28-30.5-.38-60.79-.82-91.26.11,28,0,55.84.14,83.77v2c0,5.72,0,8.43,0,8.48l0,0s-.05,0-.07-2c0-1.21,0-3,0-5.39,0-2.11,0-4.7,0-7.76,0-.61,0-1.24,0-1.89,0-21.4-.25-42.79-.14-64.18-.11,19.88-.11,39.56-.06,59.52v20.53s0,.05,0,.05,0,0,0-.05h0v-.06c0-.12,0-.4,0-1s0-1.69,0-3c0-2.43-.06-6-.11-10.62,0-1.94,0-4.08-.06-6.4,0-.58,0-1.17,0-1.78-.3-21.45-.3-42.64-.63-64,0,14,0,28.2.07,42.27v4.41c0,1,0,2,0,2.91V108c0,1,0,1.92,0,2.86v1.41c0,.91,0,1.86,0,2.78v1.37c0,15.87,0,28.31-.08,28.41a0,0,0,0,1,0,0s-.07,0-.12-4.15c0-2.47-.05-6.11-.08-10.8-.05-7.67-.09-18.26-.14-31.5V97.1c0-.68,0-1.36,0-2V93c-.17-5.39-.06-10.5-.06-15.8,0,5.11,0,10.22,0,15.24v36.23c0,4.63,0,8.21,0,10.64v3c0,.58,0,.85,0,1v.07h0s0,0,0,0,0,0,0,0c0-.53-.23-30.22-.45-56.2,0-.51,0-1,0-1.53,0-.85,0-2,0-3,0-.5,0-1,0-1.49-.12-13.54-.23-23.43-.17-17.51,0,.78,0-1.53,0-2.26s0-1.44,0-2.12,0-1.34,0-2c0-3.13-.07-5.54-.1-7,0,12.39,0,93.53,0,94.41v0a0,0,0,0,1,0,0,.08.08,0,0,0,0,0h0c0-.06,0-.19,0-.4l0,0h0s0,0,0,0c0-9.69-.2-94.68,0-95a0,0,0,0,1,0,0s0,.21,0,.76V49c0-.32,0-.32,0-.32,0,.37,0,.56.07,1s0,.69,0,1.2,0,1.14,0,1.92c0,1.22,0,2.74.06,4.53,0,.6,0,1.23,0,1.88.05,1.38.05,2.9,0,4.31,0,.49,0,1,0,1.51,0,4.12.09,9,.14,14.63,0,.7,0,1.41,0,2.14.05,1.51.05,3,0,4.49,0,.77,0,1.55,0,2.34q0,3.57.06,7.43c.14,16.64.27,33.43.33,41.83,0-8.75,0-26.61,0-44v-1.5c0-14.37,0-28.57,0-42.95,0,16.09.22,32.17.13,48.17v1.62c.07,21,.17,41.54.27,45.06.05-3.16.06-19.89.05-38.38v-4.79c0-.54,0-1.07,0-1.61,0-16.57,0-33,0-49.69q.33,35.48.68,71c0,.45,0,.89,0,1.33.07,7.42.13,13.64.18,17.5V125.44c-.11-25.71.11-51.26-.11-77,.44,26.69.11,53.57.42,80.31,0,.71,0,1.41,0,2.09,0,6.11.06,10.74.08,12.85,0-1.7,0-5,0-9.49v-2c-.09-27.76,0-55.4-.09-83.22.65,30.47.33,60.75.87,91.23-.11-30.66-.11-61.52-.11-92.18,1,30.66.44,61.33,1.1,92Q24,93.49,24.22,46.93c.44,9.27.33,18.73.33,28,.11,19.68,0,39.18.11,58.86-.33-29,.32-57.91-.11-86.87,1.09,29.14.22,58.48.87,87.82-.44-29.15.44-58.3,0-87.44.77,26.3.33,52.42.66,78.73,0,4.73.22,9.47.44,14.2-.22-7.57-.55-15.14-.44-22.71q.66-35.2.22-70.41c.65,23.09.43,46.18.11,69.27-.11,7.19.43,14.38.43,21.58,0-3.6-.21-7.2-.21-10.79,0-26.69.54-53.57.32-80.25.44,25.93-.11,52.05-.11,78,0,5.3.33,10.6.44,15.9,0-4.74-.33-9.47-.33-14.2,0-26.31.66-52.81.22-79.12,0,4.93.44,10,.33,15,.22-5.11-.44-10-.22-15.14.44,23.09.22,46-.22,69.08-.11,5.68-.11,11.54.33,17.22a52.35,52.35,0,0,1-.22-7.19c.22-26.12.44-52.24.33-78.36.66,18.93.22,38.05.55,57,.22,8.71-.77,17.42,0,26.12-.11-27.82.54-55.64.22-83.47.54,26.69,0,53.19.21,79.88.11,5.49.22,10.79.55,16.27-.76-31.79,0-63.78-.11-95.58.11,24,.55,48.27,0,72.3,0,3.41,0,6.82.22,10.22-.22-5.3,0-10.78.11-16.08.22-22,0-43.91.11-65.87.33,24.23.33,48.64-.11,72.87-.11,6.06.33,12.3.33,18.36,0-3.41-.22-6.63-.11-10,.22-26.88,0-54,.22-80.82,0,11.92.44,23.85.11,35.77.33-12.3-.33-24.42.11-36.72q.33,38,.33,76.09c0-25,.21-50.16.21-75.14.11,9.27.44,18.74.33,28,.11-9.46-.33-18.74,0-28.2.44,30.85.44,61.51,1,92.36,0-15.71-.22-31.42-.18-47.09,0-.72,0-1.44,0-2.16,0-5,.11-10.06.27-15.1.27-6.31.09-12.62-.17-19,0-.64-.05-1.28-.08-1.93-.19-1.17,0-2.31-.08-3.38,0-.49,0-1,0-1.49,0-1,.08-2,.19-2.93-.11,5.11.33,10,.43,15,.33,18.17,0,36.24.11,54.28,0,.75,0,1.5,0,2.23.09,5.2.09,10.31.31,15.42-.11-5.11-.11-10.41-.14-15.49,0-.75,0-1.51,0-2.26-.07-13.57,0-27.11.37-40.74.22-7.19.11-14.38-.22-21.58a26.24,26.24,0,0,1,.11-7.19" transform="translate(0 -0.82)"/></g><rect class="cls-3" x="16.63" y="52.8" width="4.95" height="45.24"/><polygon class="cls-4" points="21.58 98.04 22.73 96.17 22.66 52.52 21.58 52.61 21.58 98.04"/><g class="cls-11"><polygon class="cls-6" points="15.4 64.2 22.86 59.74 22.57 52.77 15.36 52.8 15.4 64.2"/></g><line class="cls-7" x1="21.61" y1="54.25" x2="21.6" y2="98.04"/><g class="cls-11"><path class="cls-8" d="M23.77,53.06c-.33,5.68.44,11.17.44,16.66-.3,17.54-.55,35-.54,52.48v2.27c0,7.52.1,15.28.21,22.85-.11-7.95-.22-16.09-.39-24.1l0-2.18c-.17-13.12-.24-26.22.09-39.4.22-9.46-.55-18.92-.77-28.39,0,4.54.22,9.09.22,13.63Q23,85,23,103.14c0,.76,0,1.51,0,2.26-.28,14.48.05,28.67-.06,43.06-1-31,0-61.9-1.09-92.94.33,30.67-.22,61.14.11,91.8-.66-31.23.33-62.65-.33-93.88.22,31.23-.55,62.65,0,93.88-.22-6.62-.44-13.44-.33-20.06.11-24,.11-48.08-.43-72.12.76,30.48-.55,61.14.1,91.61-.11-4.35-.21-8.51-.21-12.87,0-26.5.54-53-.11-79.49.65,31.23-.33,62.65.21,93.88-.21-8.33-.54-16.66-.43-25,.43-22.52.43-45.23,0-67.76.87,30.48-.66,60.76.22,91.23-.33-7.95-.77-15.71-.55-23.66.66-23.28,0-46.37,0-69.65-.11,23.66.44,47.32-.33,71-.22,8.14.66,16.09.33,24-.22-6.25-.55-12.31-.55-18.55V63.09c-.22,20.64.11,41.27-.44,61.9-.21,7.76.44,15.33.44,23.09-.22-9.28-.76-18.36-.65-27.64.32-21.19.1-42.39-.22-63.59.54,24-.33,47.88-.33,71.92,0,6.25.33,12.49.44,18.74-.22-9.84-1.1-19.68-.44-29.53-.77,10,.55,20.26.22,30.29-.22-12.87-.77-25.55-.11-38.43-.66,12.69-.22,25.37.11,38-.77-13.44-.55-26.88-.44-40.32-.33,13.63-.22,27.26.11,40.89-1.2-29-.22-58.11-.55-87.26,0,21.58-.11,43-.33,64.54-.11,7,.33,14,.33,21-.33-6.43-.44-13.06-.65-19.49-.11-3.6.1-7.38.21-11,.11-5.3-.21-10.41-.21-15.71,0-15.71,0-31.23-.44-46.94.65,31.61-.44,63,.11,94.64,0-11-.44-21.77-.44-32.75-.11-21,.44-41.83-.55-62.84.11,3.41.33,6.63.22,10q-.17,42.59,0,85.17c-.44-28.77-.22-57.73-.33-86.5,0-3.41-.22-6.62-.32-10,.43,32.18,0,64.54.21,96.72-.54-31.8-.32-63.6-1.09-95.4q.17,46.85.14,93.62v1.29c0,.32,0,.52,0,.63v.05h0v0s-.05,0-.05,0v-.64c0-.37,0-.91,0-1.6-.27-30.51-.38-60.79-.82-91.26.11,28,0,55.83.15,83.76v2c0,5.73,0,8.44,0,8.49h0s0,0-.07-2c0-1.22,0-3,0-5.4q0-3.17,0-7.76c0-.61,0-1.24,0-1.89,0-21.4-.25-42.79-.14-64.17-.11,19.87-.11,39.55-.06,59.51v20.54a0,0,0,0,1,0,0s0,0,0,0h0v-.06c0-.13,0-.4,0-1s0-1.69,0-3c0-2.43-.06-6-.11-10.62,0-1.95,0-4.08-.06-6.41,0-.58,0-1.17,0-1.77-.3-21.45-.3-42.65-.63-64,0,14,0,28.2.07,42.27v4.41c0,1,0,2,0,2.91v5.72c0,.91,0,1.85,0,2.78v1.37c0,15.87,0,28.3-.07,28.41h0s-.08,0-.12-4.14c0-2.48-.06-6.11-.09-10.81,0-7.66-.09-18.25-.13-31.49v-1.29c0-.68,0-1.37,0-2s0-1.36,0-2c-.17-5.4-.06-10.51-.06-15.81,0,5.11,0,10.22,0,15.24v3.94c0,13.64,0,24.5,0,32.3v10.64c0,1.28,0,2.29,0,3v1h0c0,.05,0,.05,0,.05s0,0,0,0c0-.53-.22-30.22-.44-56.21,0-.51,0-1,0-1.52,0-.85,0-2,0-3,0-.5,0-1,0-1.49-.12-13.53-.22-23.42-.16-17.5,0,.78,0-1.54,0-2.27s0-1.44,0-2.12,0-1.34,0-2c0-3.13-.07-5.55-.1-7,0,12.39,0,93.53,0,94.42v0a0,0,0,0,1,0,0s0,0,0,0h0c0-.06,0-.2,0-.4h0s0,0,0-.05c0-9.69-.2-94.68,0-95a0,0,0,0,1,0,0s0,.21,0,.76V53c0-.32,0-.32,0-.32,0,.36,0,.55.06,1s0,.7,0,1.21,0,1.14,0,1.91c0,1.23,0,2.74.05,4.53,0,.6,0,1.23,0,1.89.06,1.38.06,2.89,0,4.31,0,.49,0,1,0,1.5,0,4.12.08,9,.13,14.63,0,.7,0,1.42,0,2.14.06,1.51.06,3,0,4.49,0,.77,0,1.55,0,2.35q0,3.55.07,7.43c.13,16.63.26,33.42.33,41.82V96.4c0-14.38,0-28.57,0-43,0,16.09.22,32.18.13,48.18,0,.54,0,1.08,0,1.62.07,21,.16,41.53.27,45.05.05-3.16.06-19.88,0-38.38v-6.4c0-16.57,0-33,0-49.69q.33,35.49.68,71c0,.45,0,.89,0,1.33.08,7.42.14,13.65.18,17.51V129.49c-.1-25.7.12-51.25-.1-77,.43,26.68.11,53.56.42,80.3v2.09c0,6.12.06,10.75.09,12.85,0-1.7,0-5,0-9.49v-2c-.09-27.76,0-55.39-.09-83.22.66,30.48.33,60.76.88,91.23-.11-30.66-.11-61.51-.11-92.17,1,30.66.44,61.32,1.09,92Q15.14,97.54,15.34,51c.44,9.27.33,18.74.33,28,.11,19.69,0,39.18.11,58.87-.33-29,.33-57.92-.11-86.88,1.1,29.15.22,58.49.88,87.82-.44-29.14.44-58.29,0-87.44.76,26.31.33,52.43.65,78.74,0,4.73.22,9.46.44,14.19-.22-7.57-.55-15.14-.44-22.71q.66-35.2.22-70.41c.66,23.09.44,46.18.11,69.27-.11,7.2.44,14.39.44,21.58,0-3.6-.22-7.19-.22-10.79,0-26.68.55-53.56.33-80.25C18.52,76.91,18,103,18,129c0,5.3.33,10.6.44,15.9,0-4.73-.33-9.46-.33-14.2,0-26.3.66-52.8.22-79.11,0,4.92.44,10,.33,15,.22-5.11-.44-10-.22-15.14.44,23.09.22,46-.22,69.08-.11,5.68-.11,11.55.33,17.23a52.35,52.35,0,0,1-.22-7.19c.22-26.12.44-52.24.33-78.36.65,18.92.22,38,.54,57,.22,8.7-.76,17.41,0,26.12-.11-27.83.55-55.65.22-83.47.55,26.69,0,53.18.22,79.87.11,5.49.22,10.79.55,16.28-.77-31.8,0-63.79-.11-95.58.11,24,.55,48.26,0,72.3,0,3.41,0,6.81.22,10.22-.22-5.3,0-10.79.11-16.09.22-22,0-43.91.11-65.87.32,24.23.32,48.65-.11,72.87-.11,6.06.33,12.31.33,18.36,0-3.4-.22-6.62-.11-10,.21-26.88,0-53.94.22-80.82,0,11.93.43,23.85.1,35.77.33-12.3-.32-24.41.11-36.71q.33,38,.33,76.08c0-25,.22-50.15.22-75.14.11,9.28.44,18.74.33,28,.11-9.46-.33-18.73,0-28.2.44,30.85.44,61.52,1,92.37,0-15.71-.22-31.42-.17-47.1,0-.71,0-1.43,0-2.15,0-5,.12-10.07.27-15.11.28-6.3.09-12.61-.16-19,0-.64-.06-1.29-.08-1.93-.19-1.18,0-2.32-.08-3.39,0-.49,0-1,0-1.48,0-1,.08-2,.19-2.93-.11,5.11.33,10,.44,15,.33,18.17,0,36.23.11,54.27,0,.75,0,1.5,0,2.24.09,5.19.09,10.3.31,15.41-.11-5.11-.11-10.41-.14-15.49,0-.75,0-1.5,0-2.26-.07-13.57,0-27.11.38-40.73.22-7.2.11-14.39-.22-21.58a26.24,26.24,0,0,1,.11-7.19" transform="translate(0 -0.82)"/></g><polygon class="cls-12" points="102.3 35.11 62.15 35.11 22 35.11 15.36 47.6 62.15 47.6 108.94 47.6 102.3 35.11"/><polygon class="cls-13" points="62.36 47.6 62.3 47.6 16.05 47.6 16.05 54.39 62.3 54.39 62.36 54.39 108.25 54.39 108.25 47.6 62.36 47.6"/><g class="cls-14"><polygon class="cls-15" points="123.29 43.56 89.07 40.66 36.63 40.66 0 43.56 0 25.58 123.29 25.58 123.29 43.56"/></g><polygon class="cls-16" points="62.35 47.59 62.3 47.59 15.36 47.59 15.36 48.34 62.3 48.34 62.35 48.34 108.92 48.34 108.92 47.59 62.35 47.59"/><line class="cls-17" x1="108.92" y1="47.6" x2="15.36" y2="47.6"/><polygon class="cls-1" points="14.74 47.58 21.46 35.14 102.32 34.59 109.14 47.09 14.74 47.58"/><g class="cls-14"><g class="cls-18"><line class="cls-19" x1="8.91" y1="42.83" x2="116.69" y2="42.83"/><line class="cls-20" x1="8.91" y1="42.69" x2="116.69" y2="42.69"/><line class="cls-17" x1="8.91" y1="43" x2="116.69" y2="43"/></g><g class="cls-18"><line class="cls-19" x1="8.91" y1="38.75" x2="116.69" y2="38.75"/><line class="cls-20" x1="8.91" y1="38.62" x2="116.69" y2="38.62"/><line class="cls-17" x1="8.91" y1="38.92" x2="116.69" y2="38.92"/></g></g><polygon class="cls-6" points="62.36 48.28 62.3 48.28 16.05 48.28 16.05 49.79 62.3 49.79 62.36 49.79 108.25 49.79 108.25 48.28 62.36 48.28"/><g class="cls-21"><g class="cls-14"><path class="cls-8" d="M14.24,37.79s0,0,.06,0h0c.21,0,1.14-.05,5.33-.07l5.78,0h1.77c27.22,0,54.66-.56,81.91-.28-27.82-.56-55.45.19-83.35,0H23.79l-8.23,0h0l0,0s0,0,.05,0h1.69l4.68,0,3.28,0H27c26.79,0,53.66-.94,80.54-.56-26.88-.57-53.94.18-80.77,0H16l0,0s0,0,0,0h0l7.67,0h2.15C50.24,36.54,74.84,36,99.25,36c-24.6-.09-49,.19-73.63.16H14.46s0,0,0,0,0,0,0,0h.66l1.88,0L23.93,36l1.5,0c18.19-.19,36.45-.5,54.7-.65l2.18,0c9.37-.09,18.45-.09,27.73-.09-10-.09-19.87-.28-30-.16h-2.2c-17.54.07-35,.29-52.64.2h-1.5c-8,0-8.92,0-9,0v0s0,0,.06,0h0c.18,0,.94,0,4-.08l4.53,0,1.87,0c15.2-.09,30.4-.3,45.59-.43l2.16,0c8.65-.16,17.17-.07,25.87-.07-8.89,0-18-.19-26.91,0H69.7c-14.33.05-28.68.15-43,.07H14.54s0,0,0,0h0s0,0,0,0l10.32,0H27q8.88-.06,17.8-.09H55.92c3.78,0,7.37,0,11.17,0h4.45c12.57.1,24.87-.09,37.36-.09-12.49-.09-25-.28-37.37,0H67.08c-4.54,0-8.9,0-13.45,0H49.14c-1.55,0-2.88,0-4.48,0H42.42q-7.86,0-15.71,0h-2c-6.35,0-9.81,0-9.87-.05l0,0a19,19,0,0,1,3.22-.06l6.68,0h1.82q7.79,0,15.55,0l2.22,0c21-.13,41.86-.32,62.87-.32H14.7s0,0,0,0h0c.58,0,.95,0,1.54,0l1.63,0,7.89-.06h2l2.2,0,2.2,0c22.64-.22,45.16-.5,67.87-.5-28.58-.19-57,.19-85.54-.09,30.09-.28,60-.47,90.08-.47-29.9-.57-59.61.19-89.51-.1,26.87-.18,53.74-.75,80.61-.65-27.06-.19-53.93.28-81,0,19.3-.47,38.41-.29,57.72-.95,8.51-.28,16.84.1,25.36,0-28.2-.38-56.4.18-84.6,0,17.6-.28,35.39-.09,53-.37,4.36,0,8.9-.19,13.44-.1-4.54-.09-9.27.1-13.82.1-17.6.28-35-.1-52.61.19,17.6-.38,35.2-.1,52.8-.47,7.57-.19,15.33.09,23.09,0-7.76,0-15.52-.29-23.28-.1-17.41.38-35-.09-52.42.19,17.41-.56,34.82-.38,52.42-.75,4.55-.1,9.09-.38,13.63-.19,8,.19,15.71,0,23.66,0l-26.31-.28c-3.41-.1-6.62.09-10,.09-17.79.19-35.58-.19-53.37.19,30.66-.75,61.13-.28,91.79-.47-8.14-.19-16.09,0-24.23-.19-4.54-.19-9.08,0-13.62,0-18.36.19-36.53-.19-54.88.19,6.24.09,12.68-.28,18.92-.38,14.57-.18,29.33.29,43.91,0,9.65-.09,19.49.1,29.14.1-12.68.09-25.17-.28-37.85-.19-18,.19-36,0-53.93.28C43.8,27.79,75,28.07,106.25,28c-30.84-.28-61.88-.19-92.73,0,31.42-.75,62.64-.56,94.06-1Q60.45,27,13.33,27c29-.56,57.72-.56,86.7-.93l2,0,1.76,0c1.73,0,3.43-.16,5.13-.06H79.64c-2.72,0-5.18,0-7.74,0H69.26c-18.27.15-36.43,0-54.79.06,17.41-.38,34.63-.38,52.05-.55h1.41c17.92-.16,34.85-.32,39.77-.41H44.81c-10.09-.07-20.31.22-30.34-.07,9.65-.09,19.3-.28,29-.27l2.08,0L62,24.64l41.2-.33h-88c1.51-.19,2.83,0,4.32-.11h1.36c2.42,0,5.64,0,9.76-.05L64.08,24c18.16-.05,36.82-.1,42.92-.16-13.72,0-90.76,0-91.63,0h0s0,0,0,0h0s0,0,0,0l92.94-.4c-13.93-.1-91.71,0-92.61,0h0l0,0s0,0,0,0h0l86.41-.57h-86s0,0,0,0,0,0,0,0l74.69-.07c-26.84,0-74.2,0-74.86,0h0v0s0,0,.05,0h0c.22,0,1.25-.06,6-.12,3.55,0,8.58-.1,15.36-.16l42.11-.34,27.8-.23h-93s-.05,0-.05,0,0,0,.05,0h0c.24,0,1.09,0,4-.05l10.78-.07,32.71-.15,45.49-.18c-13.74-.11-91.33,0-92.22,0h0s-.05,0-.05,0l.05,0,91.24-.5c-13,0-54.7,0-76.55,0-11.92,0-13.74,0-14,0h-.06s0,0,0,0,0,0,.05,0h0c.26,0,1.32,0,5.65-.07l14.55-.07,40.67-.15,25-.09c-30.54,0-82.54,0-86.38,0h-.23s0,0,0,0L95,20.12H14.79s0,0,0,0,0,0,0,0h94.38s0,0,0,0h0l0,0-86.82.29c22.14,0,87.64,0,88.44,0h0s0,0,0,0,0,0,0,0h-.07c-.21,0-.83,0-2.65,0l-7.37,0-24,.09c-22.19.07-48.84.17-57.79.24H29.86c56.3,0,78.65,0,80.41,0h.11s0,0,0,0l-82.61.45c25.83,0,79.93-.11,81.73,0h0s0,.05,0,.05c-.83,0-73.21.27-91.16.41h92.45s0,0,0,0l0,0h0l-2.43,0-6.71.06-22.12.18c-23.85.18-55.62.43-62.24.57H108.9c.06,0,.06,0,.06,0s0,0-.06,0h-4l-10.5,0-25.19,0h40s0,0,0,0,0,0,0,0l-84,.56c24.38,0,83.27-.12,85.22,0h0s0,0,0,0l-83.84.36h82.45c.07,0,.07,0,.07,0l-.06,0h0c-.18,0-.89,0-3.82.06L95.13,24c-8.4,0-19.4.07-31,.1l-37.41.12H24.86c-2.63.1-5.28-.09-7.93.1,4.54,0,8.89,0,13.47,0h79.13l0,0h0s0,0,0,0h0c-.63,0-38.47.29-66.18.53H41.94c-8.36,0-16.68.21-25,.21q13,0,26.13,0h66.08s0,0,0,0,0,0,0,0h0c-.23,0-1.3.05-6.15.12l-15.66.16-16.38.15-2.16,0c-17.78.24-35.57.14-53.36.52,18-.09,36-.09,54-.1H72c2.46,0,4.73,0,7.21,0h29.53l1.89,0h0c-32,.56-64,.37-96,1,31.6-.09,63.39-.19,95,0-31.42.38-62.64.28-94.06.94,31-.38,62.27-.19,93.3,0-31.79.28-63.58-.28-95.38.75,31.42-.56,62.83-.28,94.25-.09-23.47-.1-46.94.19-70.4-.1,6.24.1,12.49.19,18.73.19,16.66,0,33.31-.09,50,.19-13.81.47-27.63-.19-41.44.09-16.47.29-33.12-.09-49.58.38,17-.47,34.25-.09,51.28-.19,1.52,0,3.22-.09,4.92-.09,11.17-.19,22.52.19,33.69.28-29.52.19-59,.19-88.57.94,7.19,0,14.19-.28,21.39-.38,11,0,22,.38,32.92.1,11.17-.19,22.52.19,33.69.28-9.08,0-18,0-27.06-.28-4.35-.1-8.52.28-12.68.37-14.38.1-28.58-.18-43,.19,27.63-.28,55.07-.19,82.7.1-30.09-.19-60-.1-90.08.18,17.22.1,34.63-.09,51.85-.09,1.9,0,4-.19,6.06-.19,10.79-.09,21.38.19,32.17.29-10.22.18-20.44-.1-30.66,0-2.27,0-4.73.29-7,.29-17,.28-33.87.28-50.91.66,30.47,0,60.94-.19,91.41,0-28.58,0-57.15.47-85.73.65,28.77.1,57.72-.28,86.49.1-31,0-61.89.37-92.92.47,31,.37,62.07-.28,93.11.09-24.61,0-49.4.38-74,.55l-2.15,0-4.33,0H26l-4.41,0H33.56c25.19-.06,50.36-.25,75.53,0-21.76.09-43.34.28-65,.4H41.81q-7.86,0-15.74,0H24.16l-8,.05,9.11,0H44.84c1.42,0,2.94,0,4.42,0h4.43c4.3,0,8.85,0,13.29,0h4.41c13.1,0,26-.14,39,.05-12.49.09-25,0-37.41.13l-2.15,0-2.22,0H66.41l-4.45,0-2.23,0H55.28l-2.22,0c-5.94,0-11.86,0-17.77,0q10.29,0,20.56,0h16c12.48-.16,24.78-.06,37.27,0-11.92.1-23.65.1-35.64.17l-2.18,0c-15.32.11-30.64.27-46,.38l-2,0-7,.07H26.5c17.58,0,35.21-.18,52.81-.21h2.27c9.72,0,19.56,0,29.21.22-8.7.19-17.22,0-26,.11H82.57c-19.18.16-38.36.52-57.57.69l-1.69,0-4.29,0h7.3c27.7.17,55.14-.59,82.77.07-28-.28-56,.28-84,.56,28,0,56-.65,84,0-27.44-.29-54.88.37-82.3.61H25.72c27.92,0,56.12-.62,84.17,0h.55a0,0,0,0,0,0,0s0,0-.39,0c-27.65-.33-55.28.33-82.86.27H25.3c-4.33,0-7.65,0-9.46.07H27.13c27.46.18,54.71-.57,82.08,0h1.12l.41,0,0,0s0,0-.52,0H109c-27.16-.27-54.6.77-81.81.76H25.52l-4.33,0h7.22c26.56.14,52.86-.23,79.34,0h2.53s0,0,0,0,0,0,0,0h-.65l-1.9,0c-26.08,0-52,.54-78.13.72l-2,0-7.31.07h9.32c26,.11,51.89-.17,77.8,0h2.52s0,0,0,0,0,0,0,0h-.64l-1.86,0c-25,0-50,.6-75,.75l-2.23,0-9.25.09H31.39c24.71-.06,49.5-.25,74.22,0h2.23l1.91,0h0s0,.06-3.74.1l-1.87,0c-12.67.25-25.35.06-38,.3l-2.31,0L50.2,41c-14.46.1-27.35.18-32.26.23,6.23,0,25.32,0,43.88,0l16.59,0h1.78c5.14,0,10.21,0,15.32,0h9c3,0,4.43,0,4.84,0h.11s0,0,0,0l-4.09,0H103.7l-4.46,0H97.73l-3,0H92c-1.42,0-2.94,0-4.37,0H86.08l-62.91.4,51.27,0h1.33q15.63,0,31.24,0h2.71s0,0,0,0H107.1c-12.2.09-24.31.19-36.59.21H68.8l-51.24.3,6.3,0H62.67c15.38,0,30.52-.15,45.86,0h.69v0s0,0-.06,0h-1c-26.28,0-52.59.21-78.89.3h80.59l.05,0s0,0-.05,0h0l-1,0c-16.55.12-33,.12-49.48.22,16.65.09,33.12-.19,49.77.09q-45.7.29-91.4.38c30.46.18,61.12,0,91.59,0-22.14.28-44.09.09-66.24.09q33.22.13,66.43.09c-29.9.47-60,.47-89.89.66,29.71-.09,59.61.28,89.32,0-18.54.28-36.9.38-55.45.19,18.74.28,37.66.09,56.4,0-20.25.47-40.31.28-60.56.28,20.44.19,40.69.1,61.13,0-32,.66-64,.57-95.95.85,3.22.09,6.62.09,9.84.09,14.19.1,28.58,0,42.77.19,14.57.19,29.14-.09,43.71-.19-21.38.28-42.58.57-64,.19q-9.09,0-18.17.28c-4.73.1-9.46-.19-14.19-.09,16.84.37,33.87-.1,50.72.19,15.14.28,30.09,0,45.23-.1-23.66.38-47.5.38-71.16.28-4.92,0-10,.1-14.95.1,14.19-.1,28.2,0,42.39.19,14.57.09,29.33-.19,43.91-.19-32,.85-63.78.75-95.76.85,17.22.47,34.25,0,51.47.28,14.57.19,29.15-.19,43.72-.19-24,.38-47.88.28-71.92.47-7.94.09-16.08.09-24,.09,3.22.1,6.24.1,9.46.19,4.17.1,8.52-.09,12.68-.09,10.6-.19,21.2,0,31.8.09,13.62.1,27.44-.28,41.06-.09-31.41.19-62.83.09-94.24,0,2.84.19,5.86.09,8.7.09,5.3.19,10.79-.09,16.09,0,23.65.19,47.31-.09,71,0l-2.25.05-2.24,0-2.25,0c-29.19.57-58.53.35-87.7.7,23.79.07,47.69,0,71.51,0h23.11c-7,.09-14.19.09-21.25.17H87.28c-16.59.06-33.2,0-49.72.1,16.39,0,32.69,0,49,0h2.22c6.86.14,13.87-.14,20.68,0-7.76.1-15.33.1-23.09.14H84.11c-20.44.07-40.88,0-61.31.23,20.16,0,40.24-.09,60.33-.1h2.23c8.21,0,16.54,0,24.68.19-11.92.19-24,.1-36,.26H71.78q-20.14.14-40.27.28H29.27c-3.07-.09-5.91.1-9,.08l-2.25,0H65.84c14.11,0,28.11,0,42.31.19-29.72.47-59.43.28-89.14.56,29.9-.09,59.8.19,89.7.19-30.84.57-61.69,0-92.54.28,30.47-.18,60.94.29,91.41.1-30.28.28-60.37-.19-90.65,0,30.66-.19,61.31.47,92,.09-9.65.19-19.11.29-28.76.19-21.58-.19-43-.09-64.54.38,30.66-.47,61.13.56,91.79,0-7.76.37-15.52.56-23.28.37-22.52-.28-45.23-.09-67.75.29,4,0,7.76-.1,11.73-.19,26.88-.38,53.75.75,80.62.28-5.67.19-11.35.38-17,.38-25.17.09-50.53-.57-75.7,0,25.36-.38,50.72.37,76.08.28,5.68,0,11.35-.1,17-.38-7.76.38-15.52.66-23.28.57C62.16,54,38.69,53.46,15,54.12c5.67.19,11.35-.28,17-.19,25.36,0,50.91.85,76.26.19-11.16.1-22.33.75-33.49.38-3.41-.1-6.63.09-10,0-14.38-.19-29-.57-43.34,0,2.65-.1,5.11-.19,7.76-.19,26.68-.09,53.18.85,79.86.19-14.38.66-28.76.37-43.15.47,14.57,0,29.34.09,43.91-.28-7.57.18-15.33.28-22.9.56-6.44.09-12.68-.19-19.11-.09-15.9.18-32-.85-47.88.18,2.84-.09,5.67-.28,8.51-.28,22.08-.08,44,.43,66.06.39h2.21c2.89,0,5.92,0,8.81-.07l2.22,0-2.22,0c-4.41.14-9,.14-13.24.17H90.1c-20.6.11-41.21-.27-61.82-.41,20.76.14,41.51.63,62.27.53h2.22c4.4-.15,8.94,0,13.33-.19l2.23-.05-2.28.05c-5.29.14-10.58.14-15.85.3l-2.26,0c-15.84.19-31.65.12-47.55-.28-8.51-.19-17,.47-25.54.57,5.67.28,11.16-.38,16.65-.38,17.54.25,35,.47,52.47.46h2.28c7.51,0,15.27-.08,22.84-.18-8,.1-16.08.19-24.1.33l-2.17,0c-13.12.15-26.23.21-39.4-.08C34,56.1,24.5,56.75,15,56.94c4.54,0,9.08-.19,13.62-.19q18.17,0,36.26,0h2.26c14.47.24,28.66,0,43.05.05-31,.85-61.89,0-92.92.94,30.65-.28,61.12.19,91.78-.09-31.22.56-62.64-.29-93.86.28,31.22-.19,62.64.47,93.86,0-6.62.19-13.44.37-20.06.28-24-.09-48.07-.09-72.1.37,30.47-.65,61.12.48,91.59-.09-4.35.1-8.51.19-12.87.19-26.49,0-53-.47-79.48.09,31.23-.56,62.64.29,93.87-.18-8.33.18-16.66.47-25,.37-22.52-.37-45.23-.37-67.75,0,30.47-.75,60.74.57,91.21-.19-7.94.29-15.7.66-23.65.47-23.28-.56-46.37,0-69.64,0,23.65.1,47.31-.37,71,.29,8.14.18,16.09-.57,24-.29-6.25.19-12.3.47-18.55.47H24.88c20.62.19,41.25-.09,61.88.38,7.76.19,15.33-.38,23.09-.38-9.27.19-18.36.66-27.63.57-21.2-.28-42.39-.1-63.59.19,24-.47,47.88.28,71.92.28,6.24,0,12.49-.28,18.73-.38-9.84.19-19.68.94-29.52.38,10,.66,20.25-.47,30.28-.19-12.87.19-25.55.66-38.42.09,12.68.57,25.36.19,38-.09-13.44.66-26.87.47-40.31.38,13.63.28,27.25.18,40.88-.1-29,1-58.1.19-87.25.47,21.58,0,43,.1,64.54.28,7,.1,14-.28,21-.28-6.43.28-13,.38-19.49.57-3.59.09-7.38-.1-11-.19-5.29-.1-10.4.19-15.7.19-15.71,0-31.23,0-46.94.37,31.61-.56,63,.38,94.63-.09-11,0-21.77.37-32.74.37-21,.1-41.83-.37-62.83.47,3.41-.09,6.62-.28,10-.18q42.59.14,85.16,0c-28.77.37-57.72.18-86.49.28-3.4,0-6.62.19-10,.28,32.18-.38,64.54,0,96.71-.19-31.8.47-63.59.29-95.38.94q46.83-.14,93.61-.12h2s0,0,0,0H107.8c-30.5.23-60.78.33-91.25.7,28-.09,55.83,0,83.76-.12h2c5.72,0,8.43,0,8.48,0v0s0,0-2,.06l-5.4,0-7.75,0h-1.9c-21.39,0-42.78.21-64.16.12,19.87.09,39.55.09,59.5,0h20.54s0,0,0,0,0,0,0,0h-1.06l-3,0L95,65.27l-6.4,0-1.78,0c-21.44.25-42.64.25-64,.54,14,0,28.19,0,42.26-.06h4.41c1,0,2,0,2.91,0h5.71c.91,0,1.86,0,2.78,0h1.37c15.87,0,28.3,0,28.41.07s0,0,0,0,0,.06-4.14.1c-2.48,0-6.11,0-10.81.07-7.66,0-18.25.08-31.49.12H58.85c-5.4.15-10.51,0-15.81,0h66.15l0,0s0,0,0,0c-.53,0-30.22.19-56.2.38H51.47c-.86,0-2,0-3,0l-1.49,0c-6.42,0-12.44.09-17.5.14l-2.27,0-2.12,0-2,0-7,.08h94.43s0,0,0,0h0l-.4,0s0,0,0,0h0s0,0,0,0c-9.68,0-94.66.17-95,0,0,0,0,0,0,0H14.8c-.32,0-.32,0-.32,0l1-.06,1.2,0,1.91,0,4.54-.05,1.88,0c1.38,0,2.89,0,4.31,0h1.51l14.62-.12,2.14,0c1.51,0,3,0,4.49,0l2.34,0,7.44-.05,41.81-.29H58.18c-14.38,0-28.57,0-42.95,0,16.08,0,32.17-.19,48.16-.11H65c21-.06,41.54-.14,45.05-.24-3.16,0-19.88-.05-38.37,0H15.6q35.49-.28,71-.59h1.33l17.5-.15H91.26c-25.7.09-51.24-.1-77,.09,26.68-.38,53.56-.1,80.29-.36h2.09c6.12,0,10.75,0,12.85-.07-1.7,0-5,0-9.48,0h-2c-27.75.07-55.38,0-83.2.07,30.47-.56,60.74-.28,91.21-.75-30.65.09-61.5.09-92.16.09,30.66-.84,61.32-.37,92-.94q-46.54.28-93.1.1c9.27-.38,18.73-.29,28-.29C60.46,63,80,63.05,99.63,63c-29,.28-57.91-.28-86.86.09,29.14-.94,58.47-.18,87.81-.75-29.15.38-58.29-.37-87.44,0,26.31-.66,52.42-.28,78.73-.56,4.73,0,9.46-.19,14.19-.38-7.57.19-15.14.47-22.71.38q-35.19-.57-70.4-.19C36,61,59.13,61.17,82.22,61.46c7.19.09,14.38-.38,21.57-.38-3.59,0-7.19.19-10.78.19-26.69,0-53.56-.47-80.24-.28,25.92-.38,52,.09,78,.09,5.3,0,10.6-.28,15.9-.38-4.73,0-9.46.29-14.19.29-26.31,0-52.8-.57-79.11-.19,4.92,0,10-.38,15-.28-5.11-.19-10,.37-15.14.18,23.09-.37,46-.18,69.08.19,5.68.1,11.54.1,17.22-.28a61.66,61.66,0,0,1-7.19.19c-26.12-.19-52.23-.38-78.35-.28,18.93-.57,38-.19,57-.47,8.71-.19,17.41.65,26.12,0-27.82.09-55.64-.47-83.46-.19,26.69-.47,53.18,0,79.86-.19,5.49-.09,10.79-.19,16.28-.47-31.79.66-63.78,0-95.57.09,24-.09,48.26-.47,72.29,0,3.41,0,6.81,0,10.22-.18-5.3.18-10.79,0-16.09-.1-22-.19-43.9,0-65.85-.09,24.22-.28,48.63-.28,72.86.09,6,.1,12.3-.28,18.35-.28-3.4,0-6.62.19-10,.09-26.87-.18-53.93,0-80.8-.19,11.92,0,23.84-.37,35.76-.09-12.3-.28-24.41.28-36.71-.09q38-.29,76.08-.28C65.19,58.17,40,58,15,58c9.27-.1,18.73-.38,28-.28-9.46-.1-18.73.28-28.19,0,30.84-.38,61.5-.38,92.35-.85-15.71,0-31.42.19-47.09.15H58c-5,0-10.07-.1-15.1-.24-6.31-.23-12.62-.07-19,.15L21.89,57c-1.18.16-2.31,0-3.38.06L17,57c-1,0-2-.07-2.93-.16,5.11.09,10-.28,15-.38,18.17-.28,36.23,0,54.26-.09h2.24c5.19-.09,10.3-.09,15.41-.27-5.11.09-10.4.09-15.49.12H83.21c-13.57.06-27.11,0-40.73-.32-7.19-.19-14.39-.1-21.58.19a30.89,30.89,0,0,1-7.19-.1c5.68.28,11.55-.37,17.22-.37,19.69,0,39.38.35,59.06.12l2.19,0c4.42,0,8.77-.19,13.13-.28-4.36.09-8.9.19-13.18.2l-2.19,0c-16.84.14-33.71-.07-50.68-.5-6.81-.1-13.44.18-20.25.47a33.56,33.56,0,0,1-5.3-.19c5.87.37,11.73-.38,17.6-.38,20.82.16,41.78.66,62.65.46l2.15,0c2.76-.16,5.79-.06,8.63-.16-2.27,0-4.54,0-6.81.06l-2.28,0c-18.17.15-36.36.19-54.69-.45-9.08-.28-18,.56-26.87.37,8,0,16.09-.65,24-.56,20.06.28,40.31.66,60.37.09-4,.1-7.76.19-11.73.19-22.71.1-45.23-1.13-68.13-.19a38.29,38.29,0,0,1-4.54-.18c4.92.18,9.65-.19,14.57-.19,26.31-.19,52.8,1,79.11,0-24.42.75-49-.1-73.43-.28-4.35,0-8.52.18-12.87.28a32.53,32.53,0,0,1-7.38-.1c25.55-.56,50.91.29,76.46.1,4.54,0,9.27-.28,13.81-.28-5.49,0-11.17.37-16.65.28-24.42-.28-48.83-.57-73.24-.47,24.41-.47,49-.19,73.43.19-24.42-.47-48.64-.66-73.05-.47,21.76-.47,43.33-.38,65.1-.1-22-.47-44.1-.19-66-.37,24.22-.38,48.45-.76,72.67-.19,3.41.09,6.62-.19,10-.19-27.25-.09-54.31-.38-81.56-.28,25.17-.47,50.15-.57,75.32-.28-25-.66-50,0-74.95-.38,1.52.09,3-.1,4.55-.1-1.9-.09-3.79.29-5.68-.09,30.85-.09,61.69.09,92.54-.19q-46,0-92-.19c31-.09,61.88-.37,92.92-.56-14.58-.09-29.15-.28-43.66-.16H61.85q-12.41,0-24.81,0H34.78c-5.36.12-10.47-.07-15.8,0H16.73l-2.26,0,6.68-.06,2.23,0,2.22,0h2.23q22.24-.18,44.44-.3l2.22,0c9.43,0,18.89,0,28.36-.23H81.1c-22.34,0-44.73,0-67-.09q35.69-.11,71.37-.3h2.23c6.64,0,13.26-.17,19.89-.08-6.63,0-13.25-.18-19.79-.09H85.57c-23.7,0-47.45.21-71.1,0,25,0,50.15-.09,75.13-.19-25.17,0-50.15.19-75.32-.19,31.6-.09,63.4-.09,95-.75-32.17.28-64.15-.09-96.33,0a16.19,16.19,0,0,1,3-.09,18.14,18.14,0,0,1-3.21-.1c30.27-.28,60.36-.09,90.64-.47-18.35-.09-36.71.29-55.07,0-11.92-.18-24,.19-35.95-.09,19.49-.19,38.79-.19,58.28-.38,13.06-.19,26.12-.09,39.18-.56-21.39.09-42.77.37-64.16,0-11-.19-21.95.19-32.92-.1,17.78.19,35.57-.37,53.55.1,8.33.28,16.84-.38,25.17-.19-26.11.09-52-.19-78.16-.19C33,45.94,52.51,46.13,72.19,46c10.79,0,21.57.1,32.36-.18-11.17.18-22.14.18-33.31.09-19.3-.09-38.79,0-58.1-.19C33,45.38,53.07,45.47,73,45.19c10.21-.1,20.62,0,30.84-.28-9.65.28-19.3,0-28.95,0-20.25.09-40.69.09-60.94-.1,31-.09,62.26.19,93.3-.19-30.85.19-61.51,0-92.35-.09,30.09,0,60.18.19,90.27-.09-30.47,0-60.75,0-91.22-.1,31.23-.19,62.64-.28,93.87-.66-30.66.1-61.51.1-92.17-.09H37.93c-7.38-.09-14.76.19-22.14-.09,30.66-.29,61.51,0,92.17-.47-30.85,0-61.51.09-92.36,0,30.09,0,60.37-.19,90.46-.19q-45.42-.15-90.83-.1c29.52-.09,58.85-.28,88.37-.28-15.51,0-30.84,0-46.3,0H51c-1,0-2.09,0-3,0H42.34c-5.73,0-11.22,0-16.87,0H23.8l-6.07,0-1.29,0a3,3,0,0,1-.63,0s0,0,0,0L70,42.07h1.61c11-.07,21.77-.16,32.75-.16-9.84,0-19.49,0-29.3,0H73.59l-58.52,0s-.05,0-.05,0h0s0,0,.05,0l70.69-.44h1.4c3.62,0,7.25,0,10.88-.06l1.82,0c1.09,0,2.42-.16,3.63,0l1.82,0H98.07c-4.85,0-9.72,0-14.49,0H61.82c-33.67,0-45.06,0-46,0h-.06s0,0,0,0l.06,0h0l2.74,0L26,41.14,50.2,41l14.27-.09h1.45c13.46,0,26.9-.29,40.28-.33h1.1l1.61,0H30.48l-14.84,0s-.05,0-.05,0h0s0,0,.05,0l14-.14h1.28c24.81-.21,49.42-.59,74.21-.77-25.36,0-50.53,0-75.89,0H15.17s-.05,0-.05,0h0s0,0,.05,0L28,39.41h1.24c25.17,0,50.53-.79,75.7-.7-25.93-.38-51.67.19-77.67,0H15.7s0,0,0,0h0s0,0,0,0l10.38-.09,2.14,0c26.56-.12,53.05-.87,79.54-.73l2,0-1.61,0c-27.23-.48-54.48.08-81.64,0H25.17c-8.86,0-10.88,0-10.92,0Z" transform="translate(0 -0.82)"/></g></g><g class="cls-22"><g class="cls-23"><path class="cls-8" d="M14.24,68.66s0,0,.06,0h0c.21,0,1.14,0,5.33-.09l5.78,0h1.77c27.22,0,54.66-.65,81.91-.32-27.82-.66-55.45.22-83.35,0H23.79l-8.23,0h0l0,0s0,0,.05,0h1.69l4.68,0,3.28,0H27c26.79,0,53.66-1.09,80.54-.66-26.88-.65-53.94.22-80.77,0H16s0,0,0,0,0,0,0,0h0l7.67-.06,2.15,0c24.47-.1,49.07-.76,73.48-.76-24.6-.11-49,.22-73.63.19H14.46a0,0,0,0,1,0,0s0,0,0,0h.66l1.88,0,6.93-.07,1.5,0c18.19-.22,36.45-.58,54.7-.76l2.18,0c9.37-.11,18.45-.11,27.73-.11-10-.1-19.87-.32-30-.19h-2.2c-17.54.07-35,.34-52.64.23h-1.5c-8,0-8.92,0-9,0a0,0,0,0,0,0,0s0,0,.06,0h0c.18,0,.94,0,4-.08l4.53-.06h1.87c15.2-.11,30.4-.36,45.59-.51L73,65c8.65-.19,17.17-.08,25.87-.08-8.89,0-18-.22-26.91,0H69.7c-14.33.07-28.68.18-43,.08H14.54s0,0,0,0h0s0,0,0,0l10.32,0H27l17.8-.1H55.92c3.78,0,7.37,0,11.17,0h4.45c12.57.11,24.87-.11,37.36-.11-12.49-.11-25-.33-37.37,0H67.08l-13.45.06H49.14c-1.55,0-2.88,0-4.48,0H42.42q-7.86,0-15.71,0h-2c-6.35,0-9.81,0-9.87-.06s0,0,0,0,0,0,3.22-.07l6.68,0h1.82q7.79,0,15.55,0h2.22c21-.16,41.86-.38,62.87-.38-24.6,0-49,0-73.7,0H14.7s0,0,0,0h0c.58,0,.95,0,1.54,0h1.63l7.89-.07h2l2.2,0,2.2,0c22.64-.25,45.16-.58,67.87-.58-28.58-.22-57,.22-85.54-.11,30.09-.33,60-.55,90.08-.55C74.65,62,44.94,62.83,15,62.5c26.87-.21,53.74-.87,80.61-.76-27.06-.22-53.93.33-81,0,19.3-.55,38.41-.33,57.72-1.09,8.51-.33,16.84.1,25.36,0-28.2-.44-56.4.21-84.6,0,17.6-.33,35.39-.11,53-.44,4.36,0,8.9-.22,13.44-.11-4.54-.11-9.27.11-13.82.11-17.6.33-35-.11-52.61.22,17.6-.44,35.2-.11,52.8-.55,7.57-.22,15.33.11,23.09,0-7.76,0-15.52-.33-23.28-.11-17.41.44-35-.11-52.42.22,17.41-.66,34.82-.44,52.42-.88,4.55-.1,9.09-.43,13.63-.21,8,.21,15.71,0,23.66,0l-26.31-.33c-3.41-.11-6.62.11-10,.11-17.79.22-35.58-.22-53.37.22,30.66-.88,61.13-.33,91.79-.55-8.14-.22-16.09,0-24.23-.22-4.54-.22-9.08,0-13.62,0-18.36.22-36.53-.22-54.88.22,6.24.11,12.68-.33,18.92-.44,14.57-.22,29.33.33,43.91,0,9.65-.11,19.49.11,29.14.11-12.68.11-25.17-.33-37.85-.22-18,.22-36,0-53.93.33C43.8,57,75,57.37,106.25,57.26c-30.84-.33-61.88-.22-92.73,0,31.42-.88,62.64-.66,94.06-1.21q-47.13,0-94.25.11c29-.65,57.72-.65,86.7-1.08l2,0,1.76,0c1.73,0,3.43-.19,5.13-.08H85.82c-1.14,0-2.47,0-3.67,0H79.64c-2.72,0-5.18,0-7.74,0H69.26c-18.27.18-36.43,0-54.79.07,17.41-.44,34.63-.44,52.05-.64l1.41,0c17.92-.18,34.85-.36,39.77-.47H44.81c-10.09-.07-20.31.25-30.34-.07,9.65-.11,19.3-.33,29-.32l2.08,0L62,53.37l41.2-.38h-88c1.51-.22,2.83,0,4.32-.13h1.36l9.76-.06c9.19,0,21.51-.09,33.41-.12,18.16-.06,36.82-.12,42.92-.2H15.37s0,0,0,0h0s0,0,0,0L108.31,52c-13.93-.12-91.71,0-92.61,0h0s0,0,0,0,0,0,0,0h0l86.41-.67h-86s0,0,0,0,0,0,0,0c.66,0,47.9,0,74.69-.08-26.84,0-74.2,0-74.86,0h0v0s0,0,.05,0h0c.22,0,1.25-.07,6-.14l15.36-.18c12.43-.13,28.2-.27,42.11-.4,11.83-.1,22.52-.2,27.8-.26h-93s-.05,0-.05,0,0,0,.05,0h0c.24,0,1.09,0,4-.05l10.78-.08,32.71-.17,45.49-.22c-13.74-.12-91.33.05-92.22.05h0s-.05,0-.05,0a.09.09,0,0,1,.05,0L106.41,49c-13,0-54.7,0-76.55,0-11.92,0-13.74,0-14,0h-.06v0s0,0,.05,0h0c.26,0,1.32,0,5.65-.08l14.55-.08,40.67-.18,25-.1c-30.54,0-82.54,0-86.38,0h-.23s0,0,0,0L95,48.12H14.79s0,0,0,0,0,0,0,0h94.38s0,0,0,0h0s0,0,0,0l-86.82.33c22.14,0,87.64,0,88.44,0h0a0,0,0,0,1,0,0s0,0,0,0h-.07c-.21,0-.83,0-2.65,0l-7.37,0-24,.1c-22.19.09-48.84.19-57.79.28H29.86c56.3-.05,78.65-.05,80.41,0h.11s0,.05,0,.05l-82.61.52c25.83,0,79.93-.13,81.73,0h0s0,.05,0,.05c-.83,0-73.21.32-91.16.47h92.45a0,0,0,0,1,0,0s0,0,0,0h0l-2.43,0-6.71.07-22.12.21c-23.85.21-55.62.5-62.24.66H108.9c.06,0,.06,0,.06,0s0,0-.06,0h-4l-10.5,0-25.19,0h40s0,0,0,0,0,0,0,0l-84,.65c24.38,0,83.27-.14,85.22,0h0s0,0,0,0l-83.84.42h82.45c.07,0,.07,0,.07,0s0,0-.06,0h0c-.18,0-.89,0-3.82.07l-10.12.06c-8.4,0-19.4.07-31,.11-13.84,0-27.95.09-37.41.14H24.86c-2.63.12-5.28-.1-7.93.12,4.54,0,8.89,0,13.47-.05h1.19c26.76,0,77.21,0,77.94,0h0l0,0h0s0,0,0,0h0c-.63,0-38.47.34-66.18.61l-1.41,0c-8.36,0-16.68.25-25,.25q13,0,26.13,0h66.08s0,0,0,0,0,0,0,0h0c-.23,0-1.3.07-6.15.14l-15.66.19-16.38.17-2.16,0c-17.78.28-35.57.17-53.36.61,18-.11,36-.11,54-.12H72c2.46,0,4.73,0,7.21,0h29.53c1.1,0,1.73,0,1.89,0h0c-32,.66-64,.44-96,1.2,31.6-.11,63.39-.22,95,0-31.42.44-62.64.33-94.06,1.1,31-.44,62.27-.22,93.3,0-31.79.32-63.58-.33-95.38.87,31.42-.66,62.83-.33,94.25-.11-23.47-.11-46.94.22-70.4-.11,6.24.11,12.49.22,18.73.22,16.66,0,33.31-.11,50,.22-13.81.55-27.63-.22-41.44.11-16.47.33-33.12-.11-49.58.44,17-.55,34.25-.11,51.28-.22,1.52,0,3.22-.11,4.92-.11,11.17-.22,22.52.22,33.69.33-29.52.21-59,.21-88.57,1.09,7.19,0,14.19-.33,21.39-.44,11,0,22,.44,32.92.11,11.17-.22,22.52.22,33.69.33-9.08,0-18,0-27.06-.33-4.35-.11-8.52.33-12.68.44-14.38.11-28.58-.22-43,.22,27.63-.33,55.07-.22,82.7.11-30.09-.22-60-.11-90.08.22,17.22.1,34.63-.11,51.85-.11,1.9,0,4-.22,6.06-.22,10.79-.11,21.38.22,32.17.33-10.22.21-20.44-.11-30.66,0-2.27,0-4.73.32-7,.32-17,.33-33.87.33-50.91.77,30.47,0,60.94-.22,91.41,0-28.58,0-57.15.55-85.73.76,28.77.11,57.72-.32,86.49.11-31,0-61.89.44-92.92.55,31,.44,62.07-.33,93.11.11-24.61,0-49.4.44-74,.64l-2.15,0-4.33,0H26l-4.41,0H33.56c25.19-.07,50.36-.29,75.53,0-21.76.11-43.34.33-65,.47H41.81q-7.86,0-15.74,0H24.16l-8,0c1.66,0,4.87,0,9.11,0h1.86q7.73,0,15.47,0h2.22c1.42,0,2.94,0,4.42,0h4.43c4.3,0,8.85,0,13.29,0h4.41c13.1,0,26-.16,39,.06-12.49.11-25,0-37.41.15l-2.15,0-2.22,0-2.23,0c-1.6,0-2.93,0-4.45,0l-2.23,0H57.51l-2.23,0H53.06c-5.94,0-11.86,0-17.77,0q10.29,0,20.56,0h16c12.48-.18,24.78-.07,37.27,0-11.92.11-23.65.11-35.64.19l-2.18,0c-15.32.14-30.64.33-46,.45l-2,0c-3.11,0-5.51.06-7,.09h8.25c.62,0,1.26,0,1.91,0,17.58,0,35.21-.22,52.81-.25h2.27c9.72,0,19.56,0,29.21.26-8.7.22-17.22,0-26,.13l-2.21,0c-19.18.18-38.36.6-57.57.8l-1.69,0-4.29,0h7.3c27.7.2,55.14-.68,82.77.09-28-.33-56,.33-84,.65,28,0,56-.76,84,0-27.44-.32-54.88.44-82.3.72H25.72c27.92,0,56.12-.73,84.17,0a3.67,3.67,0,0,1,.55,0,0,0,0,0,1,0,0s0,0-.39,0c-27.65-.38-55.28.39-82.86.32H25.3c-4.33,0-7.65.05-9.46.07,1.78,0,5,0,9.15,0h2.14c27.46.21,54.71-.67,82.08,0l1.12,0,.41,0,0,0s0,0-.52,0l-1.24,0c-27.16-.31-54.6.89-81.81.88l-1.67,0-4.33,0h7.22c26.56.17,52.86-.27,79.34,0h2.53s0,0,0,0,0,0,0,0h-.65l-1.9,0c-26.08,0-52,.64-78.13.84l-2,0-7.31.08h9.32c26,.12,51.89-.2,77.8,0h2.52s0,0,0,0,0,0,0,0h-.64l-1.86,0c-25,0-50,.7-75,.87l-2.23,0-9.25.11H31.39c24.71-.07,49.5-.29,74.22,0h2.23l1.91,0a0,0,0,0,1,0,0s0,.06-3.74.11l-1.87,0c-12.67.3-25.35.08-38,.35l-2.31,0-13.65.11c-14.46.11-27.35.21-32.26.27,6.23,0,25.32,0,43.88,0H80.19c5.14,0,10.21,0,15.32,0h9c3,0,4.43,0,4.84,0h.11s0,0,0,0l-4.09,0H103.7l-4.46,0H97.73l-3,0-1.34,0H92c-1.42,0-2.94,0-4.37,0H86.08l-62.91.46,51.27,0h1.33q15.63,0,31.24,0h2.71s0,0,0,0l0,0H109l-1.92,0c-12.2.11-24.31.22-36.59.25H68.8l-51.24.35,6.3,0h1.73c5.53,0,11.21,0,16.63,0H62.67c15.38,0,30.52-.17,45.86,0h.69a0,0,0,0,1,0,0s0,0-.06,0h-1c-26.28,0-52.59.24-78.89.35h80.59s.05,0,.05,0,0,0-.05,0h0l-1,0c-16.55.14-33,.14-49.48.25,16.65.11,33.12-.22,49.77.11q-45.7.33-91.4.44c30.46.22,61.12,0,91.59,0-22.14.32-44.09.11-66.24.11q33.22.16,66.43.11c-29.9.54-60,.54-89.89.76,29.71-.11,59.61.33,89.32,0-18.54.33-36.9.44-55.45.22,18.74.33,37.66.11,56.4,0-20.25.55-40.31.33-60.56.33,20.44.22,40.69.11,61.13,0-32,.76-64,.65-95.95,1,3.22.11,6.62.11,9.84.11,14.19.11,28.58,0,42.77.22,14.57.22,29.14-.11,43.71-.22-21.38.33-42.58.66-64,.22q-9.09,0-18.17.33c-4.73.11-9.46-.22-14.19-.11,16.84.44,33.87-.11,50.72.22,15.14.32,30.09,0,45.23-.11-23.66.43-47.5.43-71.16.33-4.92,0-10,.1-14.95.1,14.19-.1,28.2,0,42.39.22,14.57.11,29.33-.22,43.91-.22-32,1-63.78.88-95.76,1,17.22.55,34.25,0,51.47.33C80.89,80.44,95.47,80,110,80c-24,.44-47.88.33-71.92.54-7.94.11-16.08.11-24,.11,3.22.11,6.24.11,9.46.22,4.17.11,8.52-.11,12.68-.11,10.6-.22,21.2,0,31.8.11,13.62.11,27.44-.33,41.06-.11-31.41.22-62.83.11-94.24,0,2.84.22,5.86.11,8.7.11,5.3.22,10.79-.11,16.09,0,23.65.22,47.31-.11,71,0l-2.25.06-2.24.06-2.25.05c-29.19.66-58.53.41-87.7.82,23.79.08,47.69,0,71.51,0h23.11c-7,.11-14.19.11-21.25.2H87.28c-16.59.07-33.2,0-49.72.11,16.39,0,32.69.06,49,.06h2.22c6.86.16,13.87-.16,20.68.05-7.76.11-15.33.11-23.09.17H84.11c-20.44.07-40.88,0-61.31.26,20.16,0,40.24-.11,60.33-.11h2.23c8.21,0,16.54,0,24.68.22-11.92.22-24,.11-36,.3H71.78q-20.14.16-40.27.32l-2.24,0c-3.07-.1-5.91.12-9,.09l-2.25,0H65.84c14.11,0,28.11,0,42.31.21-29.72.55-59.43.33-89.14.66,29.9-.11,59.8.22,89.7.22-30.84.66-61.69,0-92.54.33,30.47-.22,60.94.33,91.41.11-30.28.32-60.37-.22-90.65,0,30.66-.22,61.31.54,92,.11-9.65.21-19.11.32-28.76.21-21.58-.21-43-.1-64.54.44,30.66-.54,61.13.66,91.79,0-7.76.44-15.52.66-23.28.44-22.52-.33-45.23-.11-67.75.33,4,0,7.76-.11,11.73-.22,26.88-.44,53.75.87,80.62.33-5.67.22-11.35.43-17,.43-25.17.11-50.53-.65-75.7,0,25.36-.43,50.72.44,76.08.33,5.68,0,11.35-.11,17-.44-7.76.44-15.52.77-23.28.66-23.65-.22-47.12-.87-70.77-.11,5.67.22,11.35-.33,17-.22,25.36,0,50.91,1,76.26.22-11.16.11-22.33.88-33.49.44-3.41-.11-6.63.11-10,0-14.38-.22-29-.66-43.34,0,2.65-.11,5.11-.22,7.76-.22,26.68-.11,53.18,1,79.86.22-14.38.76-28.76.44-43.15.55,14.57,0,29.34.1,43.91-.33-7.57.22-15.33.33-22.9.65-6.44.11-12.68-.22-19.11-.11-15.9.22-32-1-47.88.22,2.84-.11,5.67-.33,8.51-.33,22.08-.09,44,.51,66.06.45h2.21c2.89,0,5.92,0,8.81-.08l2.22,0-2.22.06c-4.41.16-9,.16-13.24.19l-2.21,0c-20.6.12-41.21-.32-61.82-.49,20.76.17,41.51.74,62.27.62h2.22c4.4-.17,8.94-.06,13.33-.22l2.23-.06-2.28.07c-5.29.15-10.58.15-15.85.34l-2.26,0c-15.84.21-31.65.13-47.55-.33-8.51-.22-17,.55-25.54.66,5.67.33,11.16-.44,16.65-.44,17.54.3,35,.54,52.47.53h2.28c7.51,0,15.27-.09,22.84-.2-8,.11-16.08.22-24.1.38l-2.17,0c-13.12.18-26.23.24-39.4-.08C34,90,24.5,90.71,15,90.93c4.54,0,9.08-.22,13.62-.22q18.17,0,36.26.05h2.26c14.47.28,28.66-.05,43.05.06-31,1-61.89,0-92.92,1.1,30.65-.33,61.12.21,91.78-.11-31.22.65-62.64-.33-93.86.32,31.22-.21,62.64.55,93.86,0-6.62.22-13.44.44-20.06.33-24-.11-48.07-.11-72.1.44,30.47-.77,61.12.55,91.59-.11-4.35.11-8.51.22-12.87.22-26.49,0-53-.55-79.48.11,31.23-.66,62.64.33,93.87-.22-8.33.22-16.66.55-25,.44-22.52-.44-45.23-.44-67.75,0,30.47-.88,60.74.65,91.21-.22-7.94.33-15.7.76-23.65.55-23.28-.66-46.37,0-69.64,0,23.65.11,47.31-.43,71,.33,8.14.22,16.09-.65,24-.32-6.25.21-12.3.54-18.55.54H24.88c20.62.22,41.25-.11,61.88.44,7.76.22,15.33-.44,23.09-.44-9.27.22-18.36.77-27.63.66-21.2-.33-42.39-.11-63.59.22,24-.55,47.88.32,71.92.32,6.24,0,12.49-.32,18.73-.43-9.84.22-19.68,1.09-29.52.43,10,.77,20.25-.54,30.28-.21-12.87.21-25.55.76-38.42.11,12.68.65,25.36.21,38-.11-13.44.76-26.87.54-40.31.43,13.63.33,27.25.22,40.88-.11-29,1.21-58.1.22-87.25.55,21.58,0,43,.11,64.54.33,7,.11,14-.33,21-.33-6.43.33-13,.44-19.49.66-3.59.11-7.38-.11-11-.22-5.29-.11-10.4.22-15.7.22-15.71,0-31.23,0-46.94.43,31.61-.65,63,.44,94.63-.11-11,0-21.77.44-32.74.44-21,.11-41.83-.44-62.83.55,3.41-.11,6.62-.33,10-.22q42.59.17,85.16,0c-28.77.44-57.72.22-86.49.33-3.4,0-6.62.22-10,.33,32.18-.44,64.54,0,96.71-.22-31.8.54-63.59.33-95.38,1.09q46.83-.16,93.61-.14h2s0,0,0,0h-.64l-1.6,0c-30.5.27-60.78.38-91.25.82,28-.11,55.83,0,83.76-.15h2c5.72,0,8.43,0,8.48,0a0,0,0,0,1,0,0s0,0-2,.07c-1.22,0-3,0-5.4,0l-7.75,0h-1.9c-21.39,0-42.78.25-64.16.14,19.87.11,39.55.11,59.5.06h20.54s0,0,0,0,0,0,0,0h-1.06l-3,0L95,100.61l-6.4.06-1.78,0c-21.44.3-42.64.3-64,.63,14,0,28.19,0,42.26-.07h4.41c1,0,2,0,2.91,0h5.71c.91,0,1.86,0,2.78,0h1.37c15.87,0,28.3,0,28.41.07a0,0,0,0,1,0,0s0,.07-4.14.12c-2.48,0-6.11.06-10.81.08-7.66,0-18.25.09-31.49.14H58.85c-5.4.17-10.51.06-15.81.06,5.11,0,10.22,0,15.24,0h50.91s0,0,0,0a0,0,0,0,1,0,0c-.53,0-30.22.22-56.2.44l-1.52,0c-.86,0-2,0-3,0l-1.49,0-17.5.16-2.27,0-2.12,0-2,0-7,.1h94.43a0,0,0,0,1,0,0h0l-.4,0s0,0,0,0h0s0,0,0,0c-9.68,0-94.66.2-95,0a0,0,0,0,1,0,0l.76,0h-1c-.32,0-.32,0-.32,0l1-.06,1.2,0,1.91,0,4.54-.05,1.88,0c1.38,0,2.89,0,4.31,0l1.51,0,14.62-.14,2.14,0c1.51,0,3,0,4.49,0l2.34,0,7.44-.07,41.81-.33H58.18c-14.38,0-28.57,0-42.95,0,16.08,0,32.17-.22,48.16-.13H65c21-.07,41.54-.16,45.05-.27-3.16,0-19.88-.06-38.37,0H15.6q35.49-.33,71-.68h1.33l17.5-.18H91.26c-25.7.1-51.24-.12-77,.1,26.68-.43,53.56-.11,80.29-.42h2.09c6.12,0,10.75-.05,12.85-.08H98.05c-27.75.09-55.38,0-83.2.09,30.47-.66,60.74-.33,91.21-.88-30.65.11-61.5.11-92.16.11,30.66-1,61.32-.44,92-1.09q-46.54.33-93.1.11C22,97.93,31.5,98,40.77,98c19.69-.11,39.18,0,58.86-.11-29,.33-57.91-.33-86.86.11,29.14-1.1,58.47-.22,87.81-.88-29.15.44-58.29-.43-87.44,0,26.31-.76,52.42-.32,78.73-.65,4.73,0,9.46-.22,14.19-.44-7.57.22-15.14.55-22.71.44q-35.19-.66-70.4-.22c23.09-.66,46.18-.44,69.27-.11,7.19.11,14.38-.44,21.57-.44-3.59,0-7.19.22-10.78.22-26.69,0-53.56-.55-80.24-.33,25.92-.43,52,.11,78,.11,5.3,0,10.6-.33,15.9-.43-4.73,0-9.46.32-14.19.32-26.31,0-52.8-.65-79.11-.22,4.92,0,10-.43,15-.32-5.11-.22-10,.43-15.14.22,23.09-.44,46-.22,69.08.21,5.68.11,11.54.11,17.22-.32a54,54,0,0,1-7.19.21C66.13,95.2,40,95,13.9,95.09c18.93-.66,38-.22,57-.55,8.71-.22,17.41.77,26.12,0-27.82.11-55.64-.55-83.46-.22,26.69-.55,53.18,0,79.86-.22,5.49-.11,10.79-.22,16.28-.54-31.79.76-63.78,0-95.57.1,24-.1,48.26-.54,72.29,0,3.41,0,6.81,0,10.22-.22-5.3.22-10.79,0-16.09-.11-22-.22-43.9,0-65.85-.11,24.22-.33,48.63-.33,72.86.11,6,.11,12.3-.33,18.35-.33-3.4,0-6.62.22-10,.11C69,92.9,41.91,93.12,15,92.9c11.92,0,23.84-.44,35.76-.11-12.3-.33-24.41.33-36.71-.11q38-.33,76.08-.33c-25,0-50.15-.22-75.13-.22,9.27-.11,18.73-.43,28-.32-9.46-.11-18.73.32-28.19,0,30.84-.44,61.5-.44,92.35-1-15.71,0-31.42.22-47.09.18L58,91c-5,0-10.07-.11-15.1-.27-6.31-.27-12.62-.09-19,.17L21.89,91c-1.18.19-2.31,0-3.38.08L17,91c-1,0-2-.08-2.93-.19,5.11.11,10-.33,15-.44,18.17-.32,36.23,0,54.26-.1l2.24,0c5.19-.09,10.3-.09,15.41-.31-5.11.11-10.4.11-15.49.14H83.21c-13.57.07-27.11,0-40.73-.37-7.19-.22-14.39-.11-21.58.22a26.24,26.24,0,0,1-7.19-.11c5.68.33,11.55-.44,17.22-.44,19.69,0,39.38.41,59.06.15l2.19,0c4.42,0,8.77-.22,13.13-.33-4.36.11-8.9.22-13.18.24l-2.19,0c-16.84.16-33.71-.08-50.68-.59-6.81-.11-13.44.22-20.25.55a28.51,28.51,0,0,1-5.3-.22c5.87.44,11.73-.44,17.6-.44,20.82.19,41.78.78,62.65.54l2.15,0c2.76-.18,5.79-.07,8.63-.18-2.27,0-4.54,0-6.81.07l-2.28,0c-18.17.17-36.36.23-54.69-.52-9.08-.33-18,.65-26.87.43,8,0,16.09-.76,24-.65,20.06.32,40.31.76,60.37.11-4,.11-7.76.21-11.73.21-22.71.11-45.23-1.31-68.13-.21a31.38,31.38,0,0,1-4.54-.22c4.92.22,9.65-.22,14.57-.22,26.31-.22,52.8,1.2,79.11,0-24.42.87-49-.11-73.43-.33-4.35,0-8.52.22-12.87.33-2.46.11-4.92.44-7.38-.11,25.55-.66,50.91.33,76.46.11,4.54,0,9.27-.33,13.81-.33-5.49,0-11.17.44-16.65.33-24.42-.33-48.83-.66-73.24-.55,24.41-.54,49-.22,73.43.22-24.42-.55-48.64-.76-73.05-.55,21.76-.54,43.33-.43,65.1-.11-22-.54-44.1-.21-66-.43,24.22-.44,48.45-.88,72.67-.22,3.41.11,6.62-.22,10-.22-27.25-.11-54.31-.44-81.56-.33,25.17-.54,50.15-.65,75.32-.33-25-.76-50,0-74.95-.43,1.52.11,3-.11,4.55-.11-1.9-.11-3.79.33-5.68-.11,30.85-.11,61.69.11,92.54-.22q-46,0-92-.22c31-.11,61.88-.44,92.92-.66-14.58-.1-29.15-.32-43.66-.18H61.85q-12.41,0-24.81,0H34.78c-5.36.14-10.47-.07-15.8-.05H14.47l6.68-.07,2.23,0,2.22,0,2.23,0q22.24-.19,44.44-.35h2.22c9.43,0,18.89,0,28.36-.27H81.1c-22.34,0-44.73,0-67-.11q35.69-.12,71.37-.34h2.23c6.64,0,13.26-.2,19.89-.09-6.63,0-13.25-.21-19.79-.1H85.57c-23.7,0-47.45.25-71.1,0,25,0,50.15-.1,75.13-.21-25.17,0-50.15.21-75.32-.22,31.6-.11,63.4-.11,95-.88-32.17.33-64.15-.11-96.33,0,1-.33,2.09,0,3-.11a15.68,15.68,0,0,1-3.21-.11c30.27-.32,60.36-.11,90.64-.54-18.35-.11-36.71.33-55.07,0-11.92-.22-24,.22-35.95-.11,19.49-.22,38.79-.22,58.28-.44,13.06-.22,26.12-.11,39.18-.66-21.39.11-42.77.44-64.16,0-11-.21-21.95.22-32.92-.11,17.78.22,35.57-.43,53.55.11,8.33.33,16.84-.43,25.17-.21-26.11.11-52-.22-78.16-.22,19.68-.33,39.18-.11,58.86-.22,10.79,0,21.57.11,32.36-.22-11.17.22-22.14.22-33.31.11-19.3-.11-38.79,0-58.1-.22C33,77.48,53.07,77.59,73,77.26c10.21-.1,20.62,0,30.84-.32-9.65.32-19.3,0-28.95,0-20.25.11-40.69.11-60.94-.11,31-.11,62.26.22,93.3-.22-30.85.22-61.51,0-92.35-.11,30.09,0,60.18.22,90.27-.11-30.47,0-60.75,0-91.22-.11,31.23-.22,62.64-.33,93.87-.76-30.66.1-61.51.1-92.17-.11H37.93c-7.38-.11-14.76.21-22.14-.11,30.66-.33,61.51,0,92.17-.55-30.85,0-61.51.11-92.36,0,30.09,0,60.37-.22,90.46-.22q-45.42-.16-90.83-.11c29.52-.11,58.85-.33,88.37-.33-15.51,0-30.84,0-46.3,0H51c-1,0-2.09,0-3,0H42.34c-5.73,0-11.22,0-16.87,0H23.8c-2.67,0-4.72,0-6.07,0l-1.29,0a2.4,2.4,0,0,1-.63,0s0,0,0,0L70,73.64h1.61c11-.08,21.77-.19,32.75-.19-9.84,0-19.49,0-29.3,0H73.59l-58.52,0s-.05,0-.05,0h0s0,0,.05,0l70.69-.52h1.4c3.62,0,7.25,0,10.88-.08h1.82c1.09,0,2.42-.19,3.63,0l1.82,0H98.07c-4.85,0-9.72,0-14.49,0H82.37l-20.55,0c-33.67,0-45.06,0-46,0h-.06s0,0,0,0,0,0,.06,0h0l2.74,0L26,72.56l24.17-.2,14.27-.11h1.45c13.46,0,26.9-.33,40.28-.38h1.1l1.61,0-1.78,0H15.64s-.05,0-.05,0h0s0,0,.05,0l14-.16,1.28,0c24.81-.24,49.42-.68,74.21-.9-25.36,0-50.53,0-75.89,0H15.17s-.05,0-.05,0h0s0,0,.05,0L28,70.55l1.24,0c25.17,0,50.53-.92,75.7-.81-25.93-.44-51.67.22-77.67,0H15.7s0,0,0,0h0s0,0,0,0l10.38-.1,2.14,0c26.56-.15,53.05-1,79.54-.86l2,0-1.61,0c-27.23-.56-54.48.1-81.64.06H25.17c-8.86,0-10.88,0-10.92,0S14.24,68.67,14.24,68.66Z" transform="translate(0 -0.82)"/></g></g><path class="cls-3" d="M62.24,50.08H42.75v4.16H81.54V50.08Zm18.94,3.79H43.11V50.45H81.18Z" transform="translate(0 -0.82)"/><circle class="cls-3" cx="61.76" cy="51.31" r="0.92"/><path class="cls-13" d="M62.58,52.13a.82.82,0,1,1-.82-.82A.82.82,0,0,1,62.58,52.13Z" transform="translate(0 -0.82)"/><g class="cls-24"><path class="cls-15" d="M60.93,52.34a1.69,1.69,0,0,0,1.68,0s-.1,1-1,1S60.84,52.62,60.93,52.34Z" transform="translate(0 -0.82)"/></g><rect class="cls-25" x="71.94" y="23.51" width="25.58" height="7.93"/><rect class="cls-26" x="76.34" y="21.87" width="16.78" height="12.84"/><rect class="cls-27" x="67.7" y="27.48" width="34.06" height="14.05" rx="1.17" ry="1.17"/><path class="cls-28" d="M70.9,30.17a.78.78,0,1,1-.78-.77A.77.77,0,0,1,70.9,30.17Z" transform="translate(0 -0.82)"/><path class="cls-29" d="M70.9,32.43a.78.78,0,0,1-1.55,0,.78.78,0,0,1,1.55,0Z" transform="translate(0 -0.82)"/><path class="cls-30" d="M67.7,35.32v5.86a1.17,1.17,0,0,0,1.16,1.17h31.73a1.18,1.18,0,0,0,1.17-1.17V35.32Z" transform="translate(0 -0.82)"/><rect class="cls-26" x="76.34" y="38.01" width="16.78" height="7.66"/><rect class="cls-31" x="79.04" y="42.74" width="5.81" height="0.3"/><rect class="cls-31" x="79.04" y="44.37" width="5.81" height="0.3"/><rect class="cls-31" x="79.04" y="41.13" width="5.81" height="0.3"/><rect class="cls-31" x="79.04" y="39.53" width="5.81" height="0.3"/><rect class="cls-31" x="79.04" y="37.92" width="11.37" height="0.3"/><path class="cls-32" d="M88.82,40.25l.67.47,0,2.56h.63V44h-.64v.77q0,.33.15.33a.69.69,0,0,0,.31-.19l.35.55c-.26.3-.49.46-.7.46-.62,0-.92-.42-.92-1.25a3.49,3.49,0,0,1,0-.67H88.1v-.68h.59V41.13c-.91.29-1.36.64-1.36,1.07,0,.18.07.27.22.27s.19-.09.39-.27l.41.54a.85.85,0,0,1-.86.54.84.84,0,0,1-.67-.31,1.12,1.12,0,0,1-.26-.73C86.56,41.33,87.31,40.67,88.82,40.25Z" transform="translate(0 -0.82)"/><rect class="cls-25" x="71.94" y="37.31" width="25.58" height="2.94"/><path class="cls-33" d="M65.26,21.39V42.61H28.52V21.39a3.83,3.83,0,0,1,3.91-3.75H61.34a4,4,0,0,1,2.91,1.23A3.66,3.66,0,0,1,65.26,21.39Z" transform="translate(0 -0.82)"/><circle class="cls-26" cx="46.89" cy="29.3" r="3.42"/><rect class="cls-34" x="133" y="77.41" width="39.52" height="18.11"/><path class="cls-35" d="M159.35,96.34H133V78.23h15.52a10.83,10.83,0,0,1,10.83,10.83Z" transform="translate(0 -0.82)"/><path class="cls-36" d="M152.75,87.29a4.12,4.12,0,1,1-4.11-4.12,4.11,4.11,0,0,1,4.11,4.12Z" transform="translate(0 -0.82)"/><path class="cls-37" d="M146,18.45a5.76,5.76,0,1,0-7.6-7.59Z" transform="translate(0 -0.82)"/><path class="cls-37" d="M154.25,26.68a5.76,5.76,0,1,0-7.59-7.59Z" transform="translate(0 -0.82)"/><path class="cls-37" d="M162.49,34.92a5.76,5.76,0,1,0-7.6-7.59Z" transform="translate(0 -0.82)"/><path class="cls-37" d="M170.72,43.15a5.76,5.76,0,1,0-7.59-7.59Z" transform="translate(0 -0.82)"/><path class="cls-37" d="M137.11,55.17H120.65a5.76,5.76,0,1,1,0-11.52h16.46a5.76,5.76,0,1,1,0,11.52Z" transform="translate(0 -0.82)"/><path class="cls-38" d="M171.1,52.8,152.79,71.12a3.8,3.8,0,0,1-5.35,0l-15.94-16H120.65c-1,.47-3.55-1.21-2.56-.35L135.9,72.55c.12.12.27.21.39.32v5.36h32.94V70.8a12.32,12.32,0,0,0,1.87-18Z" transform="translate(0 -0.82)"/><g class="cls-39"><path class="cls-40" d="M133.15,5.58,107.53,31.21,120,43.71a4.2,4.2,0,0,1,.62-.06h16.46a5.76,5.76,0,1,1,0,11.52h-5.62L142,65.64,167.58,40Z" transform="translate(0 -0.82)"/><path class="cls-35" d="M133.15,5.58,129.5,1.93a3.78,3.78,0,0,0-5.35,0L103.88,22.21a3.77,3.77,0,0,0,0,5.34l3.65,3.66Z" transform="translate(0 -0.82)"/><path class="cls-35" d="M173.06,45.49,167.58,40,142,65.64l5.48,5.48a3.8,3.8,0,0,0,5.35,0l20.27-20.28a3.78,3.78,0,0,0,0-5.35Z" transform="translate(0 -0.82)"/><path class="cls-26" d="M125.11,38.79l.2-.76.47-.47L128.25,40l-.47.47-2-2-.36.6Z" transform="translate(0 -0.82)"/><path class="cls-26" d="M127,36.31l.48-.48,2.58.62-1.6-1.6.47-.47,2.47,2.47-.47.47-2.56-.59L130,38.3l-.48.48Z" transform="translate(0 -0.82)"/><path class="cls-26" d="M130.69,34c.52-.52.82-.7,1.41-.11.32.32.28.63,0,1l-.57.57c.33.32.47.22.72,0a5,5,0,0,0,.62-.69l.32.32a4.13,4.13,0,0,1-.82,1c-.45.46-.85.33-1.51-.33S130.12,34.55,130.69,34Zm.9.62a.18.18,0,0,0,0-.28c-.23-.22-.3-.23-.53,0s-.33.36.06.74Z" transform="translate(0 -0.82)"/><path class="cls-26" d="M132.09,32.61l1.6.88-.92-1.56.47-.47.36.61,1.05.46-.89-1.6.51-.5,1.21,2.37-.53.52-.91-.38.44.85-.53.54-2.37-1.22Z" transform="translate(0 -0.82)"/><path class="cls-26" d="M135.27,29.3a.81.81,0,0,1,0-1.3,5.69,5.69,0,0,1,1-.86l.37.37c-.23.2-.73.67-.85.79s-.32.34-.09.57l.12.12c.2.2.31.16.51,0l.38-.39a.81.81,0,0,1,1.24.07l.17.17a.84.84,0,0,1,0,1.35,4.45,4.45,0,0,1-1.06.85l-.37-.37c.15-.13.59-.51.9-.83.14-.14.28-.32.09-.51l-.13-.14a.28.28,0,0,0-.46,0l-.37.37a.81.81,0,0,1-1.29,0Z" transform="translate(0 -0.82)"/><path class="cls-26" d="M136.84,26.51l.65-.66,2.1,1.28L138.31,25l.66-.65,2.7,2.23-.47.47-1.81-1.49,1.25,2.05-.53.53-2.06-1.24,1.5,1.8-.46.46Z" transform="translate(0 -0.82)"/><path class="cls-26" d="M140.12,24.45a.81.81,0,0,1,0-1.3,5.69,5.69,0,0,1,1-.86l.37.38c-.23.19-.73.66-.86.79s-.31.33-.08.56l.12.12c.2.2.31.16.5,0l.39-.39a.81.81,0,0,1,1.24.07l.17.17a.83.83,0,0,1,0,1.34,4.47,4.47,0,0,1-1.06.86l-.37-.37c.15-.13.59-.51.9-.83.14-.14.28-.32.09-.51l-.13-.14a.27.27,0,0,0-.45,0l-.38.38a.83.83,0,0,1-1.3,0Z" transform="translate(0 -0.82)"/></g><path class="cls-26" d="M161.82,56a3.3,3.3,0,1,1-3.3-3.3,3.29,3.29,0,0,1,3.3,3.3Z" transform="translate(0 -0.82)"/><path class="cls-40" d="M116.53,18.94a1.65,1.65,0,0,1-1.17-2.81l3.3-3.29A1.64,1.64,0,0,1,121,15.16l-3.29,3.3a1.64,1.64,0,0,1-1.16.48Z" transform="translate(0 -0.82)"/></g></g></g></svg>