<svg xmlns="http://www.w3.org/2000/svg" xmlns:xlink="http://www.w3.org/1999/xlink" viewBox="0 0 148.52 148.33"><defs><style>.cls-1{fill:url(#linear-gradient);}.cls-2{fill:#0080c4;}.cls-3{fill:#08acd8;}.cls-4{fill:url(#linear-gradient-2);}.cls-5{fill:#00a7a4;}.cls-6{fill:#81cec8;}.cls-7{fill:url(#linear-gradient-3);}.cls-8{fill:#4ca747;}.cls-9{fill:#8ac441;}.cls-10{fill:url(#linear-gradient-4);}.cls-11{fill:#f79620;}.cls-12{fill:#fcd278;}.cls-13{fill:url(#linear-gradient-5);}.cls-14{fill:#fcd009;}.cls-15{fill:#fde375;}.cls-16{fill:#e81e4a;}.cls-17{fill:#aa1d37;}.cls-18{fill:#d01f44;}.cls-19{fill:#1d439a;}.cls-20{fill:#d7dcef;}.cls-21{fill:#776baf;}.cls-22{fill:#f7aa2b;}.cls-23{fill:#2ec2e1;}.cls-24{fill:#f7deeb;}.cls-25{fill:#0376bc;}.cls-26{fill:url(#linear-gradient-6);}.cls-27{fill:url(#linear-gradient-7);}.cls-28{fill:url(#linear-gradient-8);}.cls-29{font-size:9.31px;}.cls-29,.cls-30,.cls-31{fill:#fff;font-family:Montserrat-SemiBold, Montserrat;font-weight:700;}.cls-30{font-size:7.41px;}.cls-31{font-size:6.16px;}</style><linearGradient id="linear-gradient" x1="80.34" y1="-311.24" x2="92.47" y2="-311.24" gradientTransform="matrix(1, -0.57, 0, 1, 0, 416.26)" gradientUnits="userSpaceOnUse"><stop offset="0" stop-color="#1ea1db"/><stop offset="1" stop-color="#0080c4"/></linearGradient><linearGradient id="linear-gradient-2" x1="64.37" y1="-299.53" x2="76.49" y2="-299.53" gradientTransform="matrix(1, -0.57, 0, 1, 0, 416.26)" gradientUnits="userSpaceOnUse"><stop offset="0" stop-color="#60c3b8"/><stop offset="1" stop-color="#23bbb7"/></linearGradient><linearGradient id="linear-gradient-3" x1="47.62" y1="-308.66" x2="59.75" y2="-308.66" gradientTransform="matrix(1, -0.57, 0, 1, 0, 416.26)" gradientUnits="userSpaceOnUse"><stop offset="0" stop-color="#78c044"/><stop offset="1" stop-color="#16af58"/></linearGradient><linearGradient id="linear-gradient-4" x1="30.55" y1="-319.92" x2="42.67" y2="-319.92" gradientTransform="matrix(1, -0.57, 0, 1, 0, 416.26)" gradientUnits="userSpaceOnUse"><stop offset="0" stop-color="#fab930"/><stop offset="1" stop-color="#f79620"/></linearGradient><linearGradient id="linear-gradient-5" x1="13.36" y1="-306.82" x2="25.48" y2="-306.82" gradientTransform="matrix(1, -0.57, 0, 1, 0, 416.26)" gradientUnits="userSpaceOnUse"><stop offset="0" stop-color="#fddf50"/><stop offset="1" stop-color="#fcd009"/></linearGradient><linearGradient id="linear-gradient-6" x1="36.84" y1="122.74" x2="102.81" y2="122.74" gradientTransform="matrix(1, 0, 0, 1, 0, 0)" xlink:href="#linear-gradient"/><linearGradient id="linear-gradient-7" x1="46.78" y1="114.54" x2="87.52" y2="114.54" gradientTransform="matrix(1, 0, 0, 1, 0, 0)" xlink:href="#linear-gradient-3"/><linearGradient id="linear-gradient-8" x1="36.84" y1="117.42" x2="69.83" y2="117.42" gradientTransform="matrix(1, 0, 0, 1, 0, 0)" xlink:href="#linear-gradient-5"/></defs><title>Asset 2</title><g id="Layer_2" data-name="Layer 2"><g id="Layer_1-2" data-name="Layer 1"><polygon class="cls-1" points="92.47 77.3 80.34 84.18 80.34 34.2 92.47 27.32 92.47 77.3"/><polygon class="cls-2" points="71.14 79.99 80.34 84.18 80.34 34.2 71.14 30.01 71.14 79.99"/><polygon class="cls-3" points="83.26 23.13 71.14 30.01 80.34 34.2 92.47 27.32 83.26 23.13"/><polygon class="cls-4" points="76.49 86.33 64.37 93.21 64.37 66.8 76.49 59.93 76.49 86.33"/><polygon class="cls-5" points="55.16 89.02 64.37 93.21 64.37 66.8 55.16 62.61 55.16 89.02"/><polygon class="cls-6" points="67.28 55.74 55.16 62.61 64.37 66.8 76.49 59.93 67.28 55.74"/><polygon class="cls-7" points="59.75 96.03 47.62 102.9 47.62 57.95 59.75 51.07 59.75 96.03"/><polygon class="cls-8" points="38.42 98.71 47.62 102.9 47.62 57.95 38.42 53.76 38.42 98.71"/><polygon class="cls-9" points="50.54 46.88 38.42 53.76 47.62 57.95 59.75 51.07 50.54 46.88"/><polygon class="cls-10" points="42.67 105.5 30.55 112.38 30.55 45.43 42.67 38.56 42.67 105.5"/><polygon class="cls-11" points="21.34 108.19 30.55 112.38 30.55 45.43 21.34 41.24 21.34 108.19"/><polygon class="cls-12" points="33.47 34.37 21.34 41.24 30.55 45.43 42.67 38.56 33.47 34.37"/><polygon class="cls-13" points="25.48 114.97 13.36 121.85 13.36 81.76 25.48 74.89 25.48 114.97"/><polygon class="cls-14" points="4.15 117.66 13.36 121.85 13.36 81.76 4.15 77.57 4.15 117.66"/><polygon class="cls-15" points="16.27 70.7 4.15 77.57 13.36 81.76 25.48 74.89 16.27 70.7"/><polygon class="cls-16" points="8.86 68.73 0.98 66.78 1.62 64.21 7.33 65.63 26.77 21.11 62.8 40.89 74.63 6.67 77.13 7.54 64.28 44.71 28.04 24.82 8.86 68.73"/><polygon class="cls-16" points="69.83 7.62 78.37 0 80.7 11.21 69.83 7.62"/><polygon class="cls-17" points="7.33 65.63 6.88 64.55 25.74 21.88 26.77 21.11 7.33 65.63"/><polygon class="cls-17" points="62.8 40.89 62.12 40.51 72.91 9.38 73.85 8.95 62.8 40.89"/><polygon class="cls-18" points="6.88 64.55 0.64 62.99 1.62 64.21 7.33 65.63 6.88 64.55"/><polygon class="cls-17" points="0.98 66.78 0 65.56 0.64 62.99 1.62 64.21 0.98 66.78"/><polygon class="cls-18" points="69.83 7.62 73.85 8.95 72.91 9.38 70.07 8.43 69.83 7.62"/><polygon class="cls-17" points="76.36 9.78 80.7 11.21 79.76 11.63 76.12 10.45 76.36 9.78"/><polygon class="cls-17" points="64.28 44.71 28.04 24.82 27.73 25.55 62.88 44.78 64.28 44.71"/><path class="cls-19" d="M141.27,118.3a7.27,7.27,0,0,0,7.25-7.25V48.5a7.28,7.28,0,0,0-7.25-7.26H99.56a7.28,7.28,0,0,0-7.25,7.26v62.55a7.27,7.27,0,0,0,7.25,7.25Z"/><rect class="cls-20" x="101.38" y="101.26" width="7.98" height="7.98"/><rect class="cls-20" x="116.43" y="101.26" width="7.98" height="7.98"/><rect class="cls-21" x="131.47" y="86.21" width="7.98" height="23.03"/><rect class="cls-20" x="101.38" y="86.21" width="7.98" height="7.98"/><rect class="cls-20" x="116.43" y="86.21" width="7.98" height="7.98"/><rect class="cls-20" x="101.38" y="71.16" width="7.98" height="7.98"/><rect class="cls-20" x="116.43" y="71.16" width="7.98" height="7.98"/><rect class="cls-22" x="131.47" y="71.16" width="7.98" height="7.98"/><polygon class="cls-23" points="101.38 50.31 101.38 63.91 107.2 63.91 120.8 57.11 120.8 50.31 101.38 50.31"/><polygon class="cls-23" points="139.45 50.31 133.62 50.31 120.03 57.11 120.03 63.91 139.45 63.91 139.45 50.31"/><polygon class="cls-24" points="120.8 50.31 107.2 63.91 120.03 63.91 133.62 50.31 120.8 50.31"/><path class="cls-25" d="M36.92,121.64v9.19a8.14,8.14,0,0,0-.08,1.1c0,9.06,14.77,16.4,33,16.4s32.79-7.25,33-16.22h0V121.64Z"/><path class="cls-26" d="M102.81,122.74c0,9.06-14.77,16.4-33,16.4s-33-7.34-33-16.4,14.77-16.4,33-16.4S102.81,113.68,102.81,122.74Z"/><path class="cls-27" d="M69.83,122.74,87.52,108.9a59.31,59.31,0,0,0-17.7-2.56c-9,0-17.1,1.78-23,4.67Z"/><path class="cls-28" d="M36.84,122.74a8.14,8.14,0,0,0,.08,1.1l32.91-1.1L46.78,111C40.65,114,36.84,118.14,36.84,122.74Z"/><text class="cls-29" transform="matrix(0.77, -0.29, 0.77, 0.64, 71.88, 132.55)">70%</text><text class="cls-30" transform="matrix(0.77, -0.29, 0.77, 0.64, 64.17, 116.68)">20%</text><text class="cls-31" transform="matrix(0.77, -0.29, 0.77, 0.64, 45.78, 121.74)">10%</text></g></g></svg>