<svg xmlns="http://www.w3.org/2000/svg" xmlns:xlink="http://www.w3.org/1999/xlink" viewBox="0 0 148.3 104.7"><defs><style>.cls-1{fill:none;clip-rule:evenodd;}.cls-2{isolation:isolate;}.cls-12,.cls-3{fill:#fff;}.cls-4{fill:#ffae00;}.cls-5{fill:#71b8b0;}.cls-16,.cls-6{fill:#ffebbf;}.cls-12,.cls-16,.cls-6{fill-rule:evenodd;}.cls-7{fill:url(#linear-gradient);}.cls-8{fill:#56806e;}.cls-9{fill:#f6faf5;}.cls-10{fill:#e42127;}.cls-11{fill:url(#linear-gradient-2);}.cls-13{fill:#335e59;}.cls-14{fill:#5896cc;}.cls-15{fill:#fc6e4b;}.cls-16{mix-blend-mode:darken;}.cls-17{clip-path:url(#clip-path);}.cls-18{fill:url(#linear-gradient-3);}.cls-19{fill:url(#linear-gradient-4);}</style><linearGradient id="linear-gradient" x1="85.02" y1="41.28" x2="151.16" y2="41.28" gradientTransform="translate(-17.91 -9.59)" gradientUnits="userSpaceOnUse"><stop offset="0" stop-color="#cdc1ab"/><stop offset="0.09" stop-color="#c5cdb0"/><stop offset="0.24" stop-color="#bdd9b4"/><stop offset="0.38" stop-color="#baddb6"/><stop offset="0.5" stop-color="#cedbbe"/><stop offset="0.64" stop-color="#ded9c4"/><stop offset="0.8" stop-color="#e8d8c8"/><stop offset="1" stop-color="#ebd8c9"/></linearGradient><linearGradient id="linear-gradient-2" x1="91.84" y1="48.99" x2="157.98" y2="48.99" gradientTransform="translate(-15.73 -12.3)" xlink:href="#linear-gradient"/><clipPath id="clip-path"><path class="cls-1" d="M80.24,70.47A25.77,25.77,0,1,0,54.47,44.7,25.82,25.82,0,0,0,80.24,70.47Z"/></clipPath><linearGradient id="linear-gradient-3" x1="80.1" y1="40.22" x2="151.85" y2="40.22" gradientTransform="translate(-18.14 -8.82)" xlink:href="#linear-gradient"/><linearGradient id="linear-gradient-4" x1="87.5" y1="48.59" x2="159.25" y2="48.59" gradientTransform="translate(-15.77 -11.77)" xlink:href="#linear-gradient"/></defs><title>Asset 7</title><g class="cls-2"><g id="Layer_2" data-name="Layer 2"><g id="Layer_1-2" data-name="Layer 1"><rect class="cls-3" x="13.6" y="15.09" width="1.32" height="89.61"/><rect class="cls-3" x="27.63" y="15.09" width="1.32" height="89.61"/><rect class="cls-3" x="41.67" y="15.09" width="1.32" height="89.61"/><rect class="cls-3" x="55.7" y="15.09" width="1.32" height="89.61"/><rect class="cls-3" x="69.73" y="15.09" width="1.32" height="89.61"/><rect class="cls-3" x="83.77" y="15.09" width="1.32" height="89.61"/><rect class="cls-3" x="97.8" y="15.09" width="1.32" height="89.61"/><rect class="cls-3" x="111.83" y="15.09" width="1.32" height="89.61"/><rect class="cls-3" x="125.87" y="15.09" width="1.32" height="89.61"/><rect class="cls-4" y="99.4" width="127.19" height="5.3"/><rect class="cls-4" y="15.09" width="1.27" height="89.61"/><polygon class="cls-5" points="0.51 99.15 14 57.57 14.48 56.08 15.42 57.34 28.46 75.12 41.87 53.48 42.44 52.55 43.16 53.37 55.87 67.95 69.42 32.21 70.31 29.87 70.95 32.28 84.94 84.72 97.47 46.05 98.1 44.13 98.97 45.95 111.62 72.47 125.63 20.88 127.19 21.3 112.61 74.99 112.04 77.09 111.11 75.13 98.38 48.47 85.64 87.81 84.79 90.41 84.09 87.77 70.04 35.11 56.9 69.78 56.42 71.04 55.53 70.03 42.66 55.25 29.2 76.98 28.57 77.99 27.87 77.03 15.05 59.56 2.04 99.65 0.51 99.15"/><path class="cls-6" d="M80.24,72.72a28,28,0,1,0-28-28A28.08,28.08,0,0,0,80.24,72.72Z"/><rect class="cls-7" x="67.11" y="12.68" width="66.14" height="38.02" transform="translate(-4.83 35.19) rotate(-19.46)"/><path class="cls-8" d="M65.71,26.18,76.83,57.64,134.65,37.2,123.54,5.74Zm64.74,6.33a3.56,3.56,0,0,0-2.24,4.5L81.72,53.44a3.54,3.54,0,0,0-4.56-2.09L69.92,30.86a3.53,3.53,0,0,0,2.23-4.49L118.64,9.94A3.56,3.56,0,0,0,123.21,12Z"/><ellipse class="cls-9" cx="85.46" cy="36.89" rx="9.66" ry="11.78" transform="translate(-7.41 30.59) rotate(-19.46)"/><path class="cls-8" d="M88,44.43a4.79,4.79,0,0,1-2.07.2A3.62,3.62,0,0,1,84,44a5.86,5.86,0,0,1-1.2-2.42l-.72-2a.77.77,0,0,0-1-.48l-1.17.42a.77.77,0,0,1-1-.48l-.18-.52a.77.77,0,0,1,.47-1l1.16-.41a.77.77,0,0,0,.48-1l-.19-.53a18.13,18.13,0,0,0-.77-1.85.86.86,0,0,0-.21-.29,2.2,2.2,0,0,0-1-.41.76.76,0,0,1-.59-.93l.08-.39a.79.79,0,0,1,.87-.6,4,4,0,0,1,1.84.64A4.3,4.3,0,0,1,82.34,34l.51,1.43a.77.77,0,0,0,1,.47l.54-.19a.78.78,0,0,1,1,.47l.19.52a.77.77,0,0,1-.48,1l-.54.2a.75.75,0,0,0-.47,1l1.08,3.07a.75.75,0,0,0,.5.48,2.54,2.54,0,0,0,1.45.07,3.31,3.31,0,0,0,2-1.87,3.56,3.56,0,0,0,.14-2.73,2,2,0,0,0-1.31-1.29.78.78,0,0,1-.41-1.15l.34-.53a.77.77,0,0,1,1-.27A4.46,4.46,0,0,1,91.2,37.2,5.71,5.71,0,0,1,91,41.48,5.11,5.11,0,0,1,88,44.43Z"/><circle class="cls-10" cx="113.75" cy="28.89" r="5.11"/><path class="cls-3" d="M116.38,25c.9,2.55,1.77,5,2.64,7.45,0,.07,0,.1-.06.12l-.61.22s-.07,0-.08,0a.14.14,0,0,0,0-.06q-1.77-5-3.56-10.06c-.15-.44-.26-.9-.39-1.35s-.24-.88-.37-1.32l-.4-1.45c0-.12,0-.12-.14-.08l-3,1.14c-.06,0-.07.05,0,.11.42.83.83,1.67,1.24,2.5l.63,1.25,0,.09q1.79,5,3.56,10.06c0,.08,0,.11-.06.13l-.65.23s-.07,0-.08,0a.14.14,0,0,0,0-.06q-1.69-4.79-3.38-9.57c-.16-.45-.36-.89-.54-1.32s-.37-.87-.56-1.3L109.77,20c0-.07-.06-.08-.13-.05l-2.67,1c-.06,0-.08,0,0,.1L108,23l.9,1.66a.5.5,0,0,1,0,.13l3.54,10c0,.08,0,.11-.06.13s-.39.13-.59.21-.07,0-.09-.05c-.21-.6-.43-1.2-.64-1.81-.92-2.61-1.85-5.22-2.77-7.84a9.13,9.13,0,0,0-.49-1.11c-.24-.47-.48-.95-.71-1.42s-.52-1-.77-1.54l-.34-.68c0-.05,0-.07,0-.09l3.65-1.37,3.91-1.46.27-.1s.08,0,.09,0l.48,1.53c.19.63.39,1.25.58,1.87C115.45,22.47,116,23.8,116.38,25Z"/><path class="cls-8" d="M112.47,35h0l-.58.21a.12.12,0,0,1-.1,0,.16.16,0,0,1-.06-.08l-.51-1.45-.82-2.32-2.08-5.88a7.44,7.44,0,0,0-.49-1.1L107.12,23l-.9-1.81c-.08-.15-.15-.31-.23-.45s0-.07,0-.11a.12.12,0,0,1,.08-.06l3.65-1.37,3.91-1.46.27-.1a.21.21,0,0,1,.11,0,.12.12,0,0,1,.05.08l.3,1,.33,1.07c.14.45.29.92.43,1.38.3,1,.65,2,1,3,.12.33.23.65.34,1,.9,2.55,1.77,5,2.64,7.45a.19.19,0,0,1,0,.13s-.06,0-.09.06l-.61.22a.12.12,0,0,1-.1,0,.1.1,0,0,1,0-.08v0l-.89-2.52-2.67-7.54c-.1-.3-.18-.6-.26-.9,0-.15-.09-.3-.13-.45-.09-.3-.17-.6-.25-.89l-.12-.43-.24-.88-.16-.58a.21.21,0,0,1,0-.06l0,0-.8.3-2.21.84,0,0v0l.83,1.67,1,2.08a.36.36,0,0,1,0,.09l.45,1.26c1,2.93,2.07,5.87,3.11,8.8a.15.15,0,0,1,0,.13.23.23,0,0,1-.11.08c-.21.06-.4.13-.64.22a.09.09,0,0,1-.1,0A.1.1,0,0,1,115,34s0,0,0,0v0l-.8-2.28-2.58-7.3c-.12-.33-.26-.66-.4-1,0-.11-.09-.22-.14-.33-.12-.29-.24-.57-.37-.85s-.12-.3-.19-.45l-.12-.29c-.21-.47-.41-.94-.61-1.42l0,0h0L107,21h0v0l.87,1.6.43.81c.23.41.45.83.67,1.24l.06.14L109.8,27q1.36,3.88,2.75,7.77a.19.19,0,0,1,0,.13S112.5,35,112.47,35Zm-.33,0,.28-.09,0,0h0v0L109.7,27l-.79-2.22a.5.5,0,0,0,0-.13l-.67-1.24-.44-.81-.87-1.6a.2.2,0,0,1,0-.11.13.13,0,0,1,.09-.06l2.68-1c.07,0,.14,0,.19.08l.61,1.42.13.29.19.45c.12.28.25.56.37.85,0,.11.09.22.14.33.14.32.28.65.4,1l2.58,7.3.81,2.29s0,0,0,0h0l.64-.23h0v0c-1-2.94-2.08-5.87-3.11-8.81l-.45-1.26,0-.08-1-2.08-.83-1.67s0-.07,0-.1a.11.11,0,0,1,.08-.07l2.21-.85.8-.3c.06,0,.1,0,.14,0s0,.06.07.13l.16.59L114,20l.12.43c.08.3.17.59.25.89s.09.3.13.45.16.6.26.89l2.67,7.55.9,2.53s0,0,0,.05h0l.62-.22h0v0c-.87-2.45-1.74-4.9-2.63-7.45h0c-.12-.32-.23-.65-.35-1-.34-1-.69-1.95-1-3-.14-.46-.29-.93-.43-1.38l-.33-1.07-.3-1h0l-.27.1-3.91,1.46-3.65,1.36h0v0c.08.15.16.3.23.45l.91,1.81.69,1.38a10.53,10.53,0,0,1,.49,1.11l2.08,5.89.82,2.32.51,1.44v0h0Z"/><path class="cls-3" d="M108,31.13l1.64,4.64c0,.07,0,.1-.06.12l-.39.14s-.07,0-.08,0a.14.14,0,0,0,0-.06L106,27.17c0-.08-.06-.09-.14-.06l-.93.33c-.07,0-.07,0,0,.11l3,8.41.15.42s0,.07,0,.08l-.48.17c-.06,0-.08,0-.09,0s0,0,0,0q-1.64-4.62-3.28-9.25c0-.08,0-.11.07-.14l2.07-.73c.07,0,.09,0,.11.06Q107.22,28.82,108,31.13Z"/><path class="cls-8" d="M109.64,35.94h0l-.39.14a.12.12,0,0,1-.1,0,.09.09,0,0,1,0-.08v0l-.56-1.59q-1.28-3.59-2.53-7.17l0-.05,0,0-.93.33h0v0l2.55,7.21.46,1.31c0,.11.08.21.11.31a.16.16,0,0,1,0,.1.15.15,0,0,1-.07,0l-.48.17a.14.14,0,0,1-.11,0,.09.09,0,0,1-.05-.08v0L107,35.41l-2.87-8.09a.19.19,0,0,1,0-.13.2.2,0,0,1,.1-.08h0l2.07-.73h0a.14.14,0,0,1,.11,0,.13.13,0,0,1,.07.09l1.32,3.72.65,1.85c.44,1.24.87,2.48,1.31,3.71a.13.13,0,0,1,0,.12S109.68,35.92,109.64,35.94Zm-.22,0,.18-.06,0,0v0c-.43-1.24-.87-2.48-1.31-3.71l-.65-1.86-1.32-3.71a.06.06,0,0,0,0,0h0c-.77.28-1.44.52-2.07.73l0,0a.13.13,0,0,0,0,.05l2.87,8.1.41,1.16s0,0,0,0h0l.48-.17h0l-.12-.31-.46-1.32-2.55-7.21a.2.2,0,0,1,0-.11.13.13,0,0,1,.09-.06l.93-.33a.15.15,0,0,1,.13,0,.2.2,0,0,1,.08.1q1.26,3.59,2.53,7.17l.57,1.61s0,0,0,0h0Z"/><path class="cls-3" d="M119.33,27.14c-.55-1.55-1.1-3.09-1.64-4.64,0-.07,0-.09,0-.12l2.08-.73c.07,0,.09,0,.11.05q1.65,4.65,3.29,9.29c0,.06,0,.09,0,.11l-.47.16s-.06,0-.08,0a.19.19,0,0,0,0-.07l-3.09-8.76c0-.08-.06-.09-.14-.06-.3.12-.61.22-.93.33-.06,0-.07,0,0,.11L119.53,26l2,5.58c0,.08,0,.11-.06.13l-.39.14s-.06,0-.07,0a.36.36,0,0,0,0-.09Z"/><path class="cls-8" d="M121.47,31.76h0l-.35.13h0a.1.1,0,0,1-.09,0,.09.09,0,0,1,0-.07.14.14,0,0,1,0-.06v0L119,26.49c-.47-1.32-.93-2.65-1.4-4a.13.13,0,0,1,0-.12.14.14,0,0,1,.1-.07h0l2.07-.73a.13.13,0,0,1,.12,0,.18.18,0,0,1,.06.09l3.29,9.3a.14.14,0,0,1,0,.11.16.16,0,0,1-.08.06l-.47.16a.12.12,0,0,1-.1,0s0-.06-.05-.07a.06.06,0,0,0,0,0v0l-.34-1c-.92-2.6-1.84-5.19-2.75-7.79a.11.11,0,0,0,0,0h0l-.93.33h0v0l.93,2.64.54,1.51q.81,2.32,1.64,4.65a.15.15,0,0,1,0,.13S121.51,31.74,121.47,31.76Zm-.23,0,.18-.06,0,0h0s0,0,0,0q-.83-2.33-1.64-4.65l-.54-1.52-.93-2.63a.14.14,0,0,1,0-.11s0-.05.09-.07l.93-.33s.08,0,.12,0a.15.15,0,0,1,.08.11c.91,2.59,1.83,5.19,2.75,7.78l.35,1s0,0,0,.06h0l.46-.16h0v0q-1.65-4.65-3.28-9.29s0,0,0,0h0l-2.08.73h0l0,0h0a.16.16,0,0,0,0,0c.47,1.32.93,2.64,1.4,4L121,31.73l0,.07h0Z"/><path class="cls-3" d="M105.35,33.49l1.17,3.3c0,.07,0,.1,0,.12l-.4.14s-.08,0-.09,0a.43.43,0,0,0,0,0l-2.16-6.11c0-.08,0-.09-.13-.07l-.87.31c-.07,0-.08.05,0,.12.72,2,1.44,4.09,2.17,6.13,0,.08,0,.11-.06.13l-.42.15c-.06,0-.08,0-.1,0-.16-.48-.34-1-.51-1.45L102,30.94c0-.07,0-.09.06-.12l2-.7c.06,0,.08,0,.11.05Z"/><path class="cls-8" d="M104.9,37.52h0c-.12,0-.25.08-.41.15a.12.12,0,0,1-.1,0s-.05-.05-.07-.08c-.13-.39-.27-.77-.4-1.16l-.37-1Q102.75,33.18,102,31a.17.17,0,0,1,0-.12s.05-.05.09-.07l2-.7h0a.11.11,0,0,1,.11,0s0,.06.07.09l.93,2.66.47,1.32c.31.88.62,1.77.94,2.65a.14.14,0,0,1,0,.11.15.15,0,0,1-.09.07l-.39.14s-.07,0-.11,0a.1.1,0,0,1,0-.08,0,0,0,0,0,0,0h0l-.27-.77-1.89-5.35a.11.11,0,0,0,0,0h0c-.28.11-.56.21-.87.31,0,0,0,0,0,0h0v0c.38,1.09.77,2.18,1.16,3.27s.67,1.91,1,2.87c0,0,0,.08,0,.12S104.94,37.5,104.9,37.52Zm-.25,0,.21-.07h0v0c-.34-1-.68-1.91-1-2.86s-.78-2.18-1.16-3.27a.13.13,0,0,1,0-.12.14.14,0,0,1,.1-.07l.86-.3a.13.13,0,0,1,.12,0,.2.2,0,0,1,.08.1l1.89,5.35L106,37a.09.09,0,0,1,0,0h0l.4-.14,0,0v0l-.94-2.64-.46-1.33c-.32-.88-.63-1.77-.94-2.65,0,0,0,0,0,0h0l-2,.7h0l0,0h0v0q.8,2.22,1.57,4.44l.37,1,.4,1.15v0h0Z"/><path class="cls-3" d="M122.89,27.28,121.72,24c0-.06,0-.09,0-.11l2-.71c.06,0,.09,0,.11.05l2.34,6.63c0,.06,0,.09,0,.11l-.45.16s-.06,0-.07,0l0,0-2.16-6.11c0-.08,0-.1-.13-.07l-.87.31c-.07,0-.08.05,0,.11.72,2.05,1.44,4.09,2.17,6.14,0,.08,0,.11-.07.13l-.36.13c-.07,0-.08,0-.11-.06C123.68,29.49,123.28,28.39,122.89,27.28Z"/><path class="cls-8" d="M124.57,30.57h0a2.28,2.28,0,0,0-.36.13.2.2,0,0,1-.11,0s0-.06-.07-.1c-.33-.95-.66-1.89-1-2.84l-.4-1.13c-.31-.89-.62-1.77-.94-2.65a.17.17,0,0,1,0-.12s0-.05.08-.06h0l2-.71h0a.22.22,0,0,1,.11,0,.14.14,0,0,1,.07.1l2.34,6.62s0,.08,0,.12a.18.18,0,0,1-.09.06c-.15,0-.29.1-.43.15h0a.12.12,0,0,1-.1,0,.1.1,0,0,1,0-.08,0,0,0,0,1,0,0h0l-.31-.88c-.62-1.74-1.23-3.49-1.85-5.24a.11.11,0,0,0,0,0h0l-.87.31h0a.16.16,0,0,0,0,0c.33,1,.67,1.91,1,2.86s.77,2.18,1.16,3.27a.19.19,0,0,1,0,.13S124.6,30.55,124.57,30.57Zm-.23,0,.18-.06s0,0,0,0v0c-.39-1.09-.77-2.18-1.16-3.28-.34-.95-.68-1.9-1-2.86a.11.11,0,0,1,0-.11.15.15,0,0,1,.09-.07c.34-.11.61-.21.87-.31a.19.19,0,0,1,.13,0,.14.14,0,0,1,.07.1l1.85,5.24.31.89a.05.05,0,0,1,0,0h0l.43-.15h0v0l-2.34-6.62v0h0l-2,.71h0v0c.32.88.63,1.77.94,2.65l.4,1.14c.34.94.67,1.89,1,2.84l0,0h0Z"/><rect class="cls-3" x="103.42" y="33.62" width="24.04" height="1.44" transform="translate(-4.84 40.43) rotate(-19.46)"/><path class="cls-8" d="M127.08,31l-22.77,8.05-.51-1.46,22.76-8ZM104.37,39l22.57-8-.44-1.26-22.57,8Z"/><rect class="cls-11" x="76.11" y="17.68" width="66.14" height="38.02" transform="translate(-5.99 38.48) rotate(-19.46)"/><path class="cls-8" d="M74.71,31.18,85.83,62.64,143.65,42.2,132.54,10.74Zm64.74,6.33a3.56,3.56,0,0,0-2.24,4.5L90.72,58.44a3.54,3.54,0,0,0-4.56-2.09L78.92,35.86a3.53,3.53,0,0,0,2.23-4.49l46.49-16.43A3.56,3.56,0,0,0,132.21,17Z"/><ellipse class="cls-9" cx="94.46" cy="41.89" rx="9.66" ry="11.78" transform="translate(-8.56 33.87) rotate(-19.46)"/><path class="cls-8" d="M97,49.43a4.79,4.79,0,0,1-2.07.2A3.62,3.62,0,0,1,93,49a5.86,5.86,0,0,1-1.2-2.42l-.72-2a.77.77,0,0,0-1-.48l-1.17.42a.77.77,0,0,1-1-.48l-.18-.52a.77.77,0,0,1,.47-1l1.16-.41a.77.77,0,0,0,.48-1l-.19-.53a18.13,18.13,0,0,0-.77-1.85.86.86,0,0,0-.21-.29,2.2,2.2,0,0,0-1-.41.76.76,0,0,1-.59-.93l.08-.39a.79.79,0,0,1,.87-.6,4,4,0,0,1,1.84.64A4.3,4.3,0,0,1,91.34,39l.51,1.43a.77.77,0,0,0,1,.47l.54-.19a.78.78,0,0,1,1,.47l.19.52a.77.77,0,0,1-.48,1l-.54.2a.75.75,0,0,0-.47,1l1.08,3.07a.75.75,0,0,0,.5.48,2.54,2.54,0,0,0,1.45.07,3.31,3.31,0,0,0,2-1.87,3.56,3.56,0,0,0,.14-2.73,2,2,0,0,0-1.31-1.29.78.78,0,0,1-.41-1.15l.34-.53a.77.77,0,0,1,1-.27,4.46,4.46,0,0,1,2.37,2.59,5.71,5.71,0,0,1-.24,4.28A5.11,5.11,0,0,1,97,49.43Z"/><circle class="cls-10" cx="122.75" cy="33.89" r="5.11"/><path class="cls-3" d="M125.38,30c.9,2.55,1.77,5,2.64,7.45,0,.07,0,.1-.06.12l-.61.22s-.07,0-.08,0a.14.14,0,0,0,0-.06q-1.77-5-3.56-10.06c-.15-.44-.26-.9-.39-1.35s-.24-.88-.37-1.32l-.4-1.45c0-.12,0-.12-.14-.08l-3,1.14c-.06,0-.07.05,0,.11.42.83.83,1.67,1.24,2.5l.63,1.25,0,.09q1.79,5,3.56,10.06c0,.08,0,.11-.06.13l-.65.23s-.07,0-.08,0a.14.14,0,0,0,0-.06q-1.69-4.79-3.38-9.57c-.16-.45-.36-.89-.54-1.32s-.37-.87-.56-1.3L118.77,25c0-.07-.06-.08-.13-.05l-2.67,1c-.06,0-.08,0,0,.1L117,28l.9,1.66a.5.5,0,0,1,0,.13l3.54,10c0,.08,0,.11-.06.13s-.39.13-.59.21-.07,0-.09-.05c-.21-.6-.43-1.2-.64-1.81-.92-2.61-1.85-5.22-2.77-7.84a9.13,9.13,0,0,0-.49-1.11c-.24-.47-.48-.95-.71-1.42s-.52-1-.77-1.54l-.34-.68c0-.05,0-.07,0-.09l3.65-1.37,3.91-1.46.27-.1s.08,0,.09,0l.48,1.53c.19.63.39,1.25.58,1.87C124.45,27.47,125,28.8,125.38,30Z"/><path class="cls-8" d="M121.47,40h0l-.58.21a.12.12,0,0,1-.1,0,.16.16,0,0,1-.06-.08l-.51-1.45-.82-2.32-2.08-5.88a7.44,7.44,0,0,0-.49-1.1L116.12,28l-.9-1.81c-.08-.15-.15-.31-.23-.45s0-.07,0-.11a.12.12,0,0,1,.08-.06l3.65-1.37,3.91-1.46.27-.1a.21.21,0,0,1,.11,0,.12.12,0,0,1,.05.08l.3,1,.33,1.07c.14.45.29.92.43,1.38.3,1,.65,2,1,3,.12.33.23.65.34,1,.9,2.55,1.77,5,2.64,7.45a.19.19,0,0,1,0,.13s-.06,0-.09.06l-.61.22a.12.12,0,0,1-.1,0,.1.1,0,0,1,0-.08v0l-.89-2.52-2.67-7.54c-.1-.3-.18-.6-.26-.9,0-.15-.09-.3-.13-.45-.09-.3-.17-.6-.25-.89l-.12-.43-.24-.88-.16-.58a.21.21,0,0,1,0-.06l0,0-.8.3-2.21.84,0,0v0l.83,1.67,1,2.08a.36.36,0,0,1,0,.09l.45,1.26c1,2.93,2.07,5.87,3.11,8.8a.15.15,0,0,1,0,.13.23.23,0,0,1-.11.08c-.21.06-.4.13-.64.22a.09.09,0,0,1-.1,0A.1.1,0,0,1,124,39s0,0,0,0v0l-.8-2.28-2.58-7.3c-.12-.33-.26-.66-.4-1,0-.11-.09-.22-.14-.33-.12-.29-.24-.57-.37-.85s-.12-.3-.19-.45l-.12-.29c-.21-.47-.41-.94-.61-1.42l0,0h0L116,26h0v0l.87,1.6.43.81c.23.41.45.83.67,1.24l.06.14L118.8,32q1.36,3.89,2.75,7.77a.19.19,0,0,1,0,.13S121.5,40,121.47,40Zm-.33,0,.28-.09,0,0h0v0L118.7,32l-.79-2.22a.5.5,0,0,0,0-.13l-.67-1.24-.44-.81-.87-1.6a.2.2,0,0,1,0-.11.13.13,0,0,1,.09-.06l2.68-1c.07,0,.14,0,.19.08l.61,1.42.13.29.19.45c.12.28.25.56.37.85,0,.11.09.22.14.33.14.32.28.65.4,1l2.58,7.3.81,2.29s0,0,0,0h0l.64-.23h0v0c-1-2.94-2.08-5.87-3.11-8.81l-.45-1.26,0-.08-1-2.08-.83-1.67s0-.07,0-.1a.11.11,0,0,1,.08-.07l2.21-.85.8-.3c.06,0,.1,0,.14,0s0,.06.07.13l.16.59L123,25l.12.43c.08.3.17.59.25.89s.09.3.13.45.16.6.26.89l2.67,7.55.9,2.53s0,0,0,.05h0l.62-.22h0v0c-.87-2.45-1.74-4.9-2.63-7.45h0c-.12-.32-.23-.65-.35-1-.34-1-.69-1.95-1-3-.14-.46-.29-.93-.43-1.38l-.33-1.07-.3-1h0l-.27.1-3.91,1.46-3.65,1.36h0v0c.08.15.16.3.23.45l.91,1.81.69,1.38a10.53,10.53,0,0,1,.49,1.11l2.08,5.89.82,2.32.51,1.44v0h0Z"/><path class="cls-3" d="M117,36.13l1.64,4.64c0,.07,0,.1-.06.12l-.39.14s-.07,0-.08,0a.14.14,0,0,0,0-.06L115,32.17c0-.08-.06-.09-.14-.06l-.93.33c-.07,0-.07,0,0,.11l3,8.41.15.42s0,.07,0,.08l-.48.17c-.06,0-.08,0-.09,0s0,0,0,0q-1.64-4.62-3.28-9.25c0-.08,0-.11.07-.14l2.07-.73c.07,0,.09,0,.11.06Q116.22,33.82,117,36.13Z"/><path class="cls-8" d="M118.64,40.94h0l-.39.14a.12.12,0,0,1-.1,0,.09.09,0,0,1,0-.08v0l-.56-1.59q-1.28-3.59-2.53-7.17l0,0,0,0-.93.33h0v0l2.55,7.21.46,1.31c0,.11.08.21.11.31a.16.16,0,0,1,0,.1.15.15,0,0,1-.07,0l-.48.17a.14.14,0,0,1-.11,0,.09.09,0,0,1-.05-.08v0L116,40.41l-2.87-8.09a.19.19,0,0,1,0-.13.2.2,0,0,1,.1-.08h0l2.07-.73h0a.14.14,0,0,1,.11,0,.13.13,0,0,1,.07.09l1.32,3.72.65,1.85c.44,1.24.87,2.48,1.31,3.71a.13.13,0,0,1,0,.12S118.68,40.92,118.64,40.94Zm-.22,0,.18-.06,0,0v0c-.43-1.24-.87-2.48-1.31-3.71l-.65-1.86-1.32-3.71a.06.06,0,0,0,0,0h0c-.77.28-1.44.52-2.07.73l0,0a.13.13,0,0,0,0,.05l2.87,8.1.41,1.16s0,0,0,0h0l.48-.17h0l-.12-.31-.46-1.32-2.55-7.21a.2.2,0,0,1,0-.11.13.13,0,0,1,.09-.06l.93-.33a.15.15,0,0,1,.13,0,.2.2,0,0,1,.08.1q1.26,3.59,2.53,7.17l.57,1.61s0,0,0,0h0Z"/><path class="cls-3" d="M128.33,32.14c-.55-1.55-1.1-3.09-1.64-4.64,0-.07,0-.09,0-.12l2.08-.73c.07,0,.09,0,.11.05q1.65,4.65,3.29,9.29c0,.06,0,.09-.05.11l-.47.16s-.06,0-.08,0a.19.19,0,0,0,0-.07l-3.09-8.76c0-.08-.06-.09-.14-.06-.3.12-.61.22-.93.33-.06,0-.07,0,0,.11L128.53,31l2,5.58c0,.08,0,.11-.06.13l-.39.14s-.06,0-.07,0a.36.36,0,0,0,0-.09Z"/><path class="cls-8" d="M130.47,36.76h0l-.35.13h0a.1.1,0,0,1-.09,0,.09.09,0,0,1,0-.07.14.14,0,0,1,0-.06v0L128,31.49c-.47-1.32-.93-2.65-1.4-4a.13.13,0,0,1,0-.12.14.14,0,0,1,.1-.07h0l2.07-.73a.13.13,0,0,1,.12,0,.18.18,0,0,1,.06.09l3.29,9.3a.14.14,0,0,1,0,.11.16.16,0,0,1-.08.06l-.47.16a.12.12,0,0,1-.1,0s0-.06-.05-.07a.06.06,0,0,0,0,0v0l-.34-1c-.92-2.6-1.84-5.19-2.75-7.79l0,0h-.05l-.93.33h0v0l.93,2.64.54,1.51q.81,2.32,1.64,4.65a.15.15,0,0,1,0,.13S130.51,36.74,130.47,36.76Zm-.23,0,.18-.06,0,0h0s0,0,0,0q-.82-2.33-1.64-4.65l-.54-1.52-.93-2.63a.14.14,0,0,1,0-.11s0-.05.09-.07l.93-.33s.08,0,.12,0a.15.15,0,0,1,.08.11c.91,2.59,1.83,5.19,2.75,7.78l.35,1s0,0,0,.06h0l.46-.16h0v0q-1.65-4.65-3.28-9.29s0,0,0,0h0l-2.08.73h0l0,0h0a.16.16,0,0,0,0,0c.47,1.32.93,2.64,1.4,4L130,36.73l0,.07h0Z"/><path class="cls-3" d="M114.35,38.49l1.17,3.3c0,.07,0,.1,0,.12l-.4.14s-.08,0-.09,0a.43.43,0,0,0,0,0l-2.16-6.11c0-.08,0-.09-.13-.07l-.87.31c-.07,0-.08,0,0,.12.72,2,1.44,4.09,2.17,6.13,0,.08,0,.11-.06.13l-.42.15c-.06,0-.08,0-.1,0-.16-.48-.34-1-.51-1.45L111,35.94c0-.07,0-.09.06-.12l2-.7c.06,0,.08,0,.11.05Z"/><path class="cls-8" d="M113.9,42.52h0c-.12,0-.25.08-.41.15a.12.12,0,0,1-.1,0s-.05-.05-.07-.08c-.13-.39-.27-.77-.4-1.16l-.37-1Q111.75,38.18,111,36a.17.17,0,0,1,0-.12s.05-.05.09-.07l2-.7h0a.11.11,0,0,1,.11,0s0,.06.07.09l.93,2.66.47,1.32c.31.88.62,1.77.94,2.65a.14.14,0,0,1,0,.11.15.15,0,0,1-.09.07l-.39.14s-.07,0-.11,0a.1.1,0,0,1,0-.08,0,0,0,0,0,0,0h0l-.27-.77-1.89-5.35a.11.11,0,0,0,0,0h0c-.28.11-.56.21-.87.31l0,0h0v0c.38,1.09.77,2.18,1.16,3.27s.67,1.91,1,2.87c0,0,0,.08,0,.12S113.94,42.5,113.9,42.52Zm-.25,0,.21-.07h0v0c-.34-1-.68-1.91-1-2.86s-.78-2.18-1.16-3.27a.13.13,0,0,1,0-.12.14.14,0,0,1,.1-.07l.86-.3a.13.13,0,0,1,.12,0,.2.2,0,0,1,.08.1l1.89,5.35L115,42a.09.09,0,0,1,0,0h0l.4-.14,0,0v0l-.94-2.64-.46-1.33c-.32-.88-.63-1.77-.94-2.65,0,0,0,0,0,0h0l-2,.7h0l0,0h0v0q.8,2.22,1.57,4.44l.37,1,.4,1.15v0h0Z"/><path class="cls-3" d="M131.89,32.28,130.72,29c0-.06,0-.09.05-.11l2-.71c.06,0,.09,0,.11.05l2.34,6.63c0,.06,0,.09,0,.11l-.45.16s-.06,0-.07,0l0-.05-2.16-6.11c0-.08,0-.1-.13-.07l-.87.31c-.07,0-.08.05,0,.11.72,2.05,1.44,4.09,2.17,6.14,0,.08,0,.11-.07.13l-.36.13c-.07,0-.08,0-.11-.06C132.68,34.49,132.28,33.39,131.89,32.28Z"/><path class="cls-8" d="M133.57,35.57h0a2.28,2.28,0,0,0-.36.13.2.2,0,0,1-.11,0s-.05-.06-.07-.1c-.33-1-.66-1.89-1-2.84l-.4-1.13c-.31-.89-.62-1.77-.94-2.65a.17.17,0,0,1,0-.12s.05-.05.08-.06h0l2-.71h0a.22.22,0,0,1,.11,0,.14.14,0,0,1,.07.1l2.34,6.62s0,.08,0,.12a.18.18,0,0,1-.09.06c-.15,0-.29.1-.43.15h0a.12.12,0,0,1-.1,0,.1.1,0,0,1,0-.08,0,0,0,0,1,0,0h0l-.31-.88c-.62-1.74-1.23-3.49-1.85-5.24l0,0h0l-.87.31h0a.16.16,0,0,0,0,0c.33,1,.67,1.91,1,2.86s.77,2.18,1.16,3.27a.19.19,0,0,1,0,.13S133.6,35.55,133.57,35.57Zm-.23,0,.18-.06,0,0a.16.16,0,0,0,0,0c-.39-1.09-.77-2.18-1.16-3.28s-.68-1.9-1-2.86a.11.11,0,0,1,0-.11.15.15,0,0,1,.09-.07c.34-.11.61-.21.87-.31a.19.19,0,0,1,.13,0,.14.14,0,0,1,.07.1l1.85,5.24.31.89a.05.05,0,0,1,0,0h0l.43-.15h0a.16.16,0,0,0,0,0l-2.34-6.62v0h0l-2,.71h0v0c.32.88.63,1.77.94,2.65l.4,1.14c.34.94.67,1.89,1,2.84l0,0h0Z"/><rect class="cls-3" x="112.42" y="38.62" width="24.04" height="1.44" transform="translate(-6 43.71) rotate(-19.46)"/><path class="cls-8" d="M136.08,36l-22.77,8.05-.51-1.46,22.76-8ZM113.37,44l22.57-8-.44-1.26-22.57,8Z"/><path class="cls-12" d="M80.26,71.77V16.68h0a27.15,27.15,0,0,0-3,.16V71.5C78.24,71.63,79.24,71.72,80.26,71.77Z"/><path class="cls-5" d="M61,65.09,76.52,24.24l2-5.34L80,24.41,92.2,70c-.68.32-1.38.62-2.08.88-.47.11-.94.21-1.42.29L77.94,30.88,64.16,67.22c-.79-.44-1.57-.91-2.33-1.4C61.56,65.58,61.29,65.34,61,65.09Z"/><path class="cls-13" d="M105.09,25.63A32.06,32.06,0,0,0,79.85,13.8v5.71a26.09,26.09,0,0,1,20.54,9.62,24.33,24.33,0,0,1-4.77,35,26.61,26.61,0,0,1-15.77,5.23V75a32.65,32.65,0,0,0,19.39-6.44C113.18,58.21,115.8,39,105.09,25.63ZM79.85,13.8a32.71,32.71,0,0,0-19.39,6.43c-13.94,10.37-16.56,29.6-5.86,43A32.09,32.09,0,0,0,79.85,75V69.31a26.1,26.1,0,0,1-20.54-9.63h0a24.31,24.31,0,0,1,4.77-34.94,26.61,26.61,0,0,1,15.77-5.23Z"/><polygon class="cls-13" points="35.39 82.69 30.15 76.16 54.71 57.89 59.95 64.42 35.39 82.69"/><polygon class="cls-14" points="36.35 82.27 30.77 75.31 47.41 62.94 53 69.89 36.35 82.27"/><path class="cls-15" d="M25.43,93.72a7.5,7.5,0,0,1-10.27-1.24,6.86,6.86,0,0,1,1.35-9.88l24.7-18.37a7.53,7.53,0,0,1,6.2-1.29l5.58,7a6.94,6.94,0,0,1-2.86,5.46Z"/><path class="cls-15" d="M25.13,93.45a7.05,7.05,0,0,1-9.65-1.17A6.45,6.45,0,0,1,16.75,83L40,65.74a7.06,7.06,0,0,1,9.65,1.17,6.45,6.45,0,0,1-1.27,9.28Z"/><path class="cls-16" d="M80.24,72.72a28,28,0,1,0-28-28A28.08,28.08,0,0,0,80.24,72.72Z"/><g class="cls-17"><rect class="cls-18" x="61.96" y="10.78" width="71.75" height="41.25" transform="translate(-4.87 34.4) rotate(-19.46)"/><path class="cls-8" d="M60.44,25.42,72.5,59.55l62.73-22.17L123.17,3.25Zm70.23,6.88a3.85,3.85,0,0,0-2.43,4.87L77.81,55a3.85,3.85,0,0,0-5-2.26L65,30.5a3.84,3.84,0,0,0,2.43-4.87L117.86,7.81a3.86,3.86,0,0,0,5,2.26Z"/><ellipse class="cls-9" cx="81.87" cy="37.04" rx="10.48" ry="12.78" transform="translate(-7.66 29.4) rotate(-19.46)"/><path class="cls-8" d="M84.58,45.22a5.06,5.06,0,0,1-2.24.22,4.07,4.07,0,0,1-2.06-.71A6.42,6.42,0,0,1,79,42.1l-.78-2.19a.84.84,0,0,0-1.07-.51l-1.26.45a.86.86,0,0,1-1.08-.51l-.2-.57a.84.84,0,0,1,.52-1.07l1.26-.45a.83.83,0,0,0,.51-1.07l-.2-.58a21.33,21.33,0,0,0-.83-2,.9.9,0,0,0-.24-.31,2.36,2.36,0,0,0-1.06-.45.82.82,0,0,1-.65-1L74,31.4a.86.86,0,0,1,.94-.65,4.38,4.38,0,0,1,2,.7,4.77,4.77,0,0,1,1.55,2.42L79,35.42a.86.86,0,0,0,1.08.51l.59-.21a.84.84,0,0,1,1.07.51l.2.57a.83.83,0,0,1-.51,1.07l-.59.21a.85.85,0,0,0-.52,1.07l1.18,3.33a.82.82,0,0,0,.55.52,2.65,2.65,0,0,0,1.56.07,3.53,3.53,0,0,0,2.13-2,3.82,3.82,0,0,0,.15-3,2.18,2.18,0,0,0-1.41-1.41.83.83,0,0,1-.45-1.24l.36-.57a.87.87,0,0,1,1.11-.3,4.85,4.85,0,0,1,2.56,2.8A6.17,6.17,0,0,1,87.83,42,5.49,5.49,0,0,1,84.58,45.22Z"/><circle class="cls-10" cx="112.56" cy="28.37" r="5.55"/><path class="cls-3" d="M115.42,24.19l2.85,8.08c0,.08,0,.11-.06.14l-.66.23s-.08,0-.09,0a.14.14,0,0,0,0-.06l-3.86-10.92c-.17-.47-.28-1-.43-1.46l-.39-1.43-.45-1.58c0-.12,0-.12-.15-.08L108.9,18.3c-.07,0-.08.05,0,.12l1.35,2.71c.22.45.45.9.67,1.36a.36.36,0,0,1,0,.09l3.86,10.92c0,.08,0,.11-.07.14l-.69.25c-.06,0-.08,0-.09,0l0-.06c-1.22-3.46-2.45-6.92-3.66-10.39-.18-.49-.39-.95-.59-1.43L109,20.55c-.27-.61-.53-1.23-.8-1.85,0-.08-.06-.09-.14-.06l-2.9,1.07c-.06,0-.08,0,0,.11L106.33,22l1,1.8a.47.47,0,0,1,.06.15l3.84,10.84c0,.08,0,.11-.07.14s-.42.14-.63.22-.08,0-.1-.05l-.69-2c-1-2.84-2-5.67-3-8.51a9.93,9.93,0,0,0-.53-1.2l-.78-1.54c-.27-.56-.55-1.12-.83-1.68l-.37-.73c0-.05,0-.08,0-.1l4-1.48,4.24-1.59.29-.11c.06,0,.08,0,.1,0,.17.56.35,1.11.52,1.67s.42,1.35.62,2C114.4,21.4,114.94,22.84,115.42,24.19Z"/><path class="cls-8" d="M111.17,35h0l-.63.22a.11.11,0,0,1-.11,0s0,0-.07-.09c-.18-.52-.36-1.05-.55-1.57L108.9,31l-2.25-6.38a11.11,11.11,0,0,0-.54-1.2l-.74-1.49-1-2-.24-.48a.17.17,0,0,1,0-.12.15.15,0,0,1,.09-.07l4-1.48,4.24-1.59.29-.1a.11.11,0,0,1,.11,0,.15.15,0,0,1,.07.09c.1.34.21.69.32,1l.36,1.15c.15.49.31,1,.46,1.5.32,1.1.71,2.17,1.07,3.21.13.36.26.71.38,1.06,1,2.76,1.91,5.42,2.86,8.08a.14.14,0,0,1-.1.21l-.66.23a.14.14,0,0,1-.11,0s0-.07-.06-.09v-.05l-1-2.73-2.89-8.19a8.92,8.92,0,0,1-.29-1c0-.16-.09-.33-.14-.49l-.27-1c0-.16-.09-.32-.13-.47l-.26-.95-.18-.63a.64.64,0,0,0,0-.07l-.06,0-.86.32-2.4.92h0v0l.9,1.81,1.12,2.26a.42.42,0,0,1,0,.1l.49,1.36q1.68,4.78,3.37,9.56a.17.17,0,0,1,0,.14.23.23,0,0,1-.11.08l-.7.24a.11.11,0,0,1-.11,0,.11.11,0,0,1,0-.09V33.8L113,31.33q-1.41-4-2.8-7.92c-.13-.36-.28-.72-.43-1.06L109.6,22c-.13-.31-.27-.61-.4-.92l-.21-.48-.14-.31-.66-1.55a.11.11,0,0,0,0,0l0,0-2.9,1.07h0l.94,1.74.47.88c.25.45.49.9.73,1.35a.52.52,0,0,1,.07.15l.85,2.41,3,8.43a.17.17,0,0,1,0,.14A.31.31,0,0,1,111.17,35Zm-.36,0,.31-.1s0,0,0,0h0l0,0q-1.48-4.21-3-8.43L107.31,24a1,1,0,0,0-.06-.14c-.24-.45-.48-.9-.73-1.35l-.47-.87-.94-1.74a.13.13,0,0,1,0-.12s.06-.06.09-.07l2.9-1.07a.15.15,0,0,1,.22.09l.66,1.54.13.31.21.49c.14.3.27.61.4.92,0,.12.1.24.16.36.15.35.3.71.43,1.07l2.79,7.92.88,2.49,0,0h0l.69-.24,0,0v0Q113,28.73,111.35,24l-.48-1.36,0-.09-1.12-2.26-.9-1.81a.12.12,0,0,1,0-.12s.06-.06.09-.07l2.4-.91.86-.33c.07,0,.11,0,.15,0s.06.06.08.14l.18.63.26.95.13.46.27,1c.05.16.09.33.14.49.08.32.17.65.28,1,1,2.73,1.93,5.46,2.9,8.18l1,2.75,0,0h0l.67-.23s0,0,0,0h0v0l-2.86-8.08h0c-.12-.35-.25-.7-.37-1.06-.37-1-.76-2.12-1.08-3.22-.15-.5-.31-1-.46-1.5l-.36-1.15c-.11-.34-.22-.69-.32-1h0l-.3.11-4.24,1.59-4,1.48h0v0c.08.17.16.33.25.49l1,2,.75,1.49c.18.37.38.78.54,1.21.74,2.13,1.5,4.26,2.25,6.39l.89,2.51c.18.53.37,1,.55,1.57v0h0Z"/><path class="cls-3" d="M106.36,30.8l1.77,5c0,.08,0,.11-.06.13s-.29.1-.43.15-.07,0-.08,0a.14.14,0,0,1,0-.06c-1.12-3.17-2.25-6.34-3.36-9.51,0-.09-.06-.1-.15-.07l-1,.36c-.07,0-.08.05,0,.12L106.19,36c.06.16.11.31.17.46s0,.07,0,.09l-.52.18c-.06,0-.09,0-.1,0v0q-1.78-5-3.55-10c0-.08,0-.12.06-.15l2.25-.79c.08,0,.1,0,.13.06Q105.47,28.28,106.36,30.8Z"/><path class="cls-8" d="M108.1,36h0l-.42.15s-.07,0-.1,0a.1.1,0,0,1-.06-.08s0,0,0,0v0l-.61-1.73c-.92-2.6-1.83-5.19-2.75-7.78a.12.12,0,0,0,0-.05h0l-1,.36,0,0a.08.08,0,0,0,0,0c.92,2.61,1.84,5.21,2.77,7.82l.5,1.43.12.33a.12.12,0,0,1,0,.1s0,0-.07.06l-.52.19a.17.17,0,0,1-.12,0s0-.07-.06-.1h0l-.45-1.27-3.11-8.78c0-.05,0-.1,0-.14a.17.17,0,0,1,.11-.08h0l2.24-.79h0a.19.19,0,0,1,.13,0,.14.14,0,0,1,.07.1c.47,1.35,1,2.69,1.42,4l.71,2,1.43,4s0,.09,0,.13A.13.13,0,0,1,108.1,36Zm-.25,0,.2-.06,0,0v0c-.48-1.34-1-2.69-1.42-4l-.71-2c-.48-1.34-1-2.69-1.43-4a.16.16,0,0,1,0,0h0l-2.25.8,0,0v.05c1,2.93,2.07,5.86,3.11,8.78l.44,1.26a.08.08,0,0,1,0,0v0h0l.53-.19h0l-.12-.34-.5-1.42q-1.38-3.91-2.77-7.82a.19.19,0,0,1,0-.13s.06-.05.09-.07l1-.35a.17.17,0,0,1,.14,0,.18.18,0,0,1,.08.11c.92,2.59,1.83,5.19,2.75,7.78L107.6,36s0,0,0,.06h0Z"/><path class="cls-3" d="M118.61,26.46c-.6-1.67-1.19-3.35-1.78-5,0-.08,0-.11.06-.14l2.25-.79c.08,0,.1,0,.13,0q1.77,5,3.56,10.09c0,.06,0,.09,0,.11l-.51.18s-.07,0-.09,0a.19.19,0,0,0,0-.07q-1.68-4.75-3.35-9.5c0-.09-.07-.1-.15-.07l-1,.36c-.07,0-.09,0-.06.12l1.23,3.49L121,31.28c0,.09,0,.12-.08.15l-.41.14s-.07,0-.08,0,0-.07,0-.11Z"/><path class="cls-8" d="M120.93,31.47h0l-.38.14h0a.12.12,0,0,1-.1,0s-.05-.07-.06-.08a.25.25,0,0,0,0-.07v0l-2-5.69-1.53-4.31a.19.19,0,0,1,0-.13.14.14,0,0,1,.1-.07h0l2.25-.8a.19.19,0,0,1,.13,0,.15.15,0,0,1,.07.09q1.79,5.06,3.56,10.09a.13.13,0,0,1,0,.12.14.14,0,0,1-.1.07l-.5.17a.11.11,0,0,1-.11,0,.09.09,0,0,1-.05-.08s0,0,0,0v0l-.38-1.06-3-8.44a.12.12,0,0,0,0-.05h0l-1,.36,0,0a0,0,0,0,1,0,0c.34,1,.68,1.9,1,2.85l.59,1.65q.89,2.52,1.78,5a.17.17,0,0,1,0,.14A.14.14,0,0,1,120.93,31.47Zm-.24,0,.19-.07.05,0h0s0,0,0-.05l-1.78-5-.58-1.65c-.34-.95-.68-1.9-1-2.85a.13.13,0,0,1,0-.12.2.2,0,0,1,.1-.08l1-.35a.17.17,0,0,1,.14,0,.23.23,0,0,1,.08.11c1,2.82,2,5.63,3,8.45l.38,1.07a.14.14,0,0,1,0,.06h0l.51-.18h0v0l-3.57-10.09v0h0l-2.25.8h0v.05l1.53,4.31,2,5.71a.24.24,0,0,1,0,.08h0Z"/><path class="cls-3" d="M103.44,33.35c.43,1.2.85,2.39,1.27,3.59,0,.07,0,.1,0,.12l-.44.15s-.08,0-.09,0a.08.08,0,0,0,0-.05l-2.34-6.63c0-.09-.06-.1-.14-.07-.31.12-.62.23-.94.33-.08,0-.09.05-.06.13.79,2.22,1.57,4.44,2.36,6.65,0,.09,0,.12-.07.14l-.45.16c-.07,0-.09,0-.11,0-.18-.52-.36-1.05-.55-1.57q-1-2.8-2-5.62c0-.07,0-.1.06-.13l2.17-.77c.07,0,.1,0,.12.06Z"/><path class="cls-8" d="M103,37.72h0l-.45.16a.14.14,0,0,1-.11,0,.11.11,0,0,1-.07-.09c-.15-.42-.29-.84-.44-1.25l-.4-1.12c-.56-1.61-1.13-3.21-1.7-4.82a.19.19,0,0,1,0-.13.14.14,0,0,1,.11-.07l2.16-.77h0a.17.17,0,0,1,.12,0s.06.05.08.09c.33,1,.67,1.93,1,2.89l.51,1.43,1,2.87a.19.19,0,0,1,0,.13s-.06.05-.1.07-.29.1-.43.15a.14.14,0,0,1-.11,0s0-.07-.06-.09v0h0l-.29-.83q-1-2.91-2-5.8a.12.12,0,0,0,0-.05h0c-.3.12-.61.22-.94.34h0l0,0c.41,1.18.83,2.37,1.25,3.55l1.1,3.11a.17.17,0,0,1,0,.14A.18.18,0,0,1,103,37.72Zm-.27,0,.22-.07,0,0,0-.05c-.36-1-.73-2.07-1.1-3.1-.41-1.18-.83-2.37-1.25-3.55a.15.15,0,0,1,0-.13.14.14,0,0,1,.1-.07l.94-.33a.17.17,0,0,1,.14,0,.19.19,0,0,1,.08.11l2,5.8.3.84,0,0h0c.14,0,.29-.11.44-.15l0,0v0l-1-2.87-.5-1.44-1-2.88s0,0,0,0h0l-2.17.76h0s0,0,0,0h0v0c.57,1.61,1.13,3.22,1.7,4.82l.4,1.12c.14.41.29.83.44,1.25,0,0,0,0,0,0h0Z"/><path class="cls-3" d="M122.48,26.62c-.43-1.2-.85-2.4-1.27-3.59,0-.07,0-.1.05-.12l2.18-.77c.07,0,.09,0,.12.05q1.26,3.6,2.54,7.19c0,.07,0,.1-.06.12l-.49.17s-.06,0-.07,0l0-.06L123.11,23c0-.08,0-.11-.14-.07l-.94.33c-.08,0-.09.06-.06.13.78,2.21,1.57,4.43,2.35,6.65,0,.09,0,.12-.06.15a2.67,2.67,0,0,0-.4.13c-.07,0-.09,0-.11-.06C123.32,29,122.9,27.82,122.48,26.62Z"/><path class="cls-8" d="M124.3,30.18h0a2.57,2.57,0,0,0-.38.14.25.25,0,0,1-.12,0s-.06-.07-.08-.11c-.36-1-.72-2.05-1.09-3.08l-.43-1.23-1-2.87a.19.19,0,0,1,0-.13s0-.05.09-.07h0l2.18-.77h0a.17.17,0,0,1,.12,0,.14.14,0,0,1,.07.1c.85,2.39,1.69,4.79,2.54,7.18a.2.2,0,0,1,0,.13.14.14,0,0,1-.1.07l-.46.16h0a.12.12,0,0,1-.1,0,.1.1,0,0,1,0-.08v0l-.33-1-2-5.68a.12.12,0,0,0,0,0H123l-.95.34h0v0c.37,1,.74,2.07,1.1,3.1L124.38,30a.14.14,0,0,1,0,.14A.11.11,0,0,1,124.3,30.18Zm-.26,0,.2-.06s0,0,0,0,0,0,0,0L123,26.46c-.36-1-.73-2.07-1.1-3.1a.19.19,0,0,1,0-.13.14.14,0,0,1,.1-.07c.36-.12.66-.23.94-.34a.22.22,0,0,1,.14,0,.23.23,0,0,1,.08.11c.66,1.89,1.33,3.79,2,5.68l.34,1a.08.08,0,0,1,0,0h0l.46-.16h0s0,0,0,0c-.85-2.39-1.69-4.79-2.54-7.19a0,0,0,0,0,0,0h0l-2.17.77h0v0l1,2.87.43,1.23c.36,1,.73,2.06,1.09,3.08,0,0,0,0,0,0h0Z"/><rect class="cls-3" x="101.35" y="33.49" width="26.08" height="1.56" transform="translate(-4.88 40.07) rotate(-19.46)"/><path class="cls-8" d="M127,30.7l-24.69,8.73-.56-1.58,24.7-8.73Zm-24.62,8.58,24.48-8.65-.48-1.36L101.9,37.92Z"/><rect class="cls-19" x="71.72" y="16.2" width="71.75" height="41.25" transform="translate(-6.12 37.96) rotate(-19.46)"/><path class="cls-8" d="M70.2,30.85,82.27,65,145,42.8,132.94,8.67Zm70.23,6.87A3.85,3.85,0,0,0,138,42.6L87.57,60.42a3.85,3.85,0,0,0-4.95-2.27L74.77,35.93a3.86,3.86,0,0,0,2.43-4.88l50.43-17.82a3.85,3.85,0,0,0,5,2.27Z"/><ellipse class="cls-9" cx="91.63" cy="42.47" rx="10.48" ry="12.78" transform="translate(-8.91 32.96) rotate(-19.46)"/><path class="cls-8" d="M94.35,50.64a5.27,5.27,0,0,1-2.25.23,3.92,3.92,0,0,1-2-.72,6.32,6.32,0,0,1-1.31-2.63L88,45.34a.85.85,0,0,0-1.07-.52l-1.27.45a.83.83,0,0,1-1.07-.51l-.2-.57a.84.84,0,0,1,.51-1.07l1.26-.45a.84.84,0,0,0,.52-1.07L86.44,41a19.72,19.72,0,0,0-.83-2,.79.79,0,0,0-.23-.31,2.19,2.19,0,0,0-1.07-.45.84.84,0,0,1-.65-1l.1-.42a.85.85,0,0,1,.94-.66,4.38,4.38,0,0,1,2,.7,4.75,4.75,0,0,1,1.55,2.42l.55,1.55a.83.83,0,0,0,1.07.51l.59-.21a.84.84,0,0,1,1.07.52l.2.56a.84.84,0,0,1-.51,1.08l-.59.2a.84.84,0,0,0-.51,1.08l1.17,3.32a.85.85,0,0,0,.55.53,2.77,2.77,0,0,0,1.57.07,3.57,3.57,0,0,0,2.12-2,3.89,3.89,0,0,0,.16-3,2.18,2.18,0,0,0-1.42-1.4.85.85,0,0,1-.45-1.25l.37-.57a.84.84,0,0,1,1.1-.29,4.82,4.82,0,0,1,2.56,2.8,6.14,6.14,0,0,1-.26,4.65A5.47,5.47,0,0,1,94.35,50.64Z"/><circle class="cls-10" cx="122.32" cy="33.79" r="5.55"/><path class="cls-3" d="M125.18,29.61c1,2.77,1.91,5.43,2.86,8.09,0,.07,0,.1-.06.13l-.67.23s-.08,0-.09,0a.14.14,0,0,0,0-.06Q125.28,32.5,123.34,27c-.17-.48-.28-1-.42-1.46s-.27-.95-.4-1.43-.29-1.06-.44-1.58c0-.13,0-.13-.15-.08l-3.26,1.24c-.07,0-.08.05,0,.11L120,26.56c.23.45.45.9.67,1.35a.36.36,0,0,1,0,.09q1.93,5.46,3.86,10.92c0,.09,0,.12-.06.15-.24.07-.47.16-.7.24,0,0-.08,0-.09,0a.14.14,0,0,0,0-.06Q121.82,34,120,28.82c-.17-.49-.39-1-.59-1.44l-.6-1.4c-.27-.62-.54-1.24-.8-1.86,0-.07-.07-.08-.14-.05L115,25.14c-.07,0-.09,0,0,.11l1.17,2.16,1,1.8.06.14q1.92,5.41,3.83,10.84c0,.08,0,.11-.06.14l-.64.22c-.06,0-.08,0-.1,0l-.69-2c-1-2.84-2-5.68-3-8.51a13.11,13.11,0,0,0-.54-1.21c-.26-.51-.52-1-.77-1.54l-.84-1.67c-.12-.25-.24-.49-.37-.74,0-.05,0-.08,0-.1l4-1.48,4.24-1.59.3-.11c.05,0,.08,0,.1,0l.51,1.66c.21.68.43,1.35.63,2C124.16,26.82,124.71,28.26,125.18,29.61Z"/><path class="cls-8" d="M120.93,40.38h0l-.63.22a.14.14,0,0,1-.11,0s0,0-.06-.09L119.55,39l-.89-2.52-2.25-6.39a10.92,10.92,0,0,0-.53-1.19l-.75-1.5-1-2c-.08-.17-.16-.33-.25-.49a.14.14,0,0,1,0-.11.11.11,0,0,1,.08-.07l4-1.48,4.24-1.59.3-.11a.2.2,0,0,1,.11,0,.18.18,0,0,1,.06.09c.11.35.21.7.32,1l.36,1.15c.16.5.31,1,.46,1.5.33,1.1.71,2.18,1.08,3.22.13.35.25.71.37,1.06l2.86,8.08a.2.2,0,0,1,0,.13.16.16,0,0,1-.11.07l-.66.24a.14.14,0,0,1-.11,0,.14.14,0,0,1,0-.09V38l-1-2.73q-1.44-4.09-2.89-8.19c-.11-.32-.2-.65-.29-1,0-.17-.09-.33-.14-.49l-.27-1c0-.16-.08-.31-.13-.47s-.17-.63-.26-.94l-.18-.64a.11.11,0,0,0,0-.06l0,0-.86.33-2.4.91h0v0l.9,1.82,1.13,2.25a1,1,0,0,0,0,.1l.48,1.37q1.69,4.77,3.38,9.55c0,.05,0,.1,0,.14s-.08.06-.12.08l-.69.25a.14.14,0,0,1-.11,0s0-.08-.06-.09a0,0,0,0,0,0,0v0l-.87-2.48c-.93-2.64-1.87-5.27-2.79-7.91-.13-.37-.29-.72-.44-1.07l-.15-.36c-.13-.31-.26-.62-.4-.92l-.21-.49-.13-.31c-.22-.52-.45-1-.67-1.55,0,0,0,0,0,0h0L115,25.19h0v0c.32.58.63,1.16.94,1.74l.48.87c.24.45.48.9.73,1.35l.06.15.85,2.41,3,8.43s0,.09,0,.14A.13.13,0,0,1,120.93,40.38Zm-.35,0,.3-.1s0,0,0,0h0v0q-1.5-4.22-3-8.43l-.86-2.41a.58.58,0,0,0,0-.14l-.73-1.34-.48-.88c-.31-.58-.62-1.16-.94-1.74a.11.11,0,0,1,0-.11c0-.05.06-.06.1-.08l2.9-1.07c.08,0,.16,0,.21.09l.66,1.54.14.32.21.48.39.92c.06.12.11.24.16.37.15.34.3.7.43,1.07q1.4,4,2.8,7.91l.88,2.5s0,0,0,0h0l.7-.25,0,0a.28.28,0,0,0,0-.05q-1.69-4.77-3.38-9.55L120.63,28a.2.2,0,0,0,0-.08l-1.12-2.26-.9-1.81a.17.17,0,0,1,0-.12.2.2,0,0,1,.1-.08l2.39-.91.87-.33c.07,0,.11,0,.15,0s0,.07.07.14l.18.64.27.94.12.47.27,1c0,.17.1.33.14.5.09.32.18.64.29,1l2.89,8.19,1,2.75a.08.08,0,0,1,0,0h0l.67-.24h0s0,0,0,0l-2.86-8.08h0c-.12-.34-.24-.7-.37-1.06-.37-1-.75-2.11-1.08-3.21-.15-.5-.3-1-.46-1.5l-.36-1.15c-.1-.35-.21-.7-.32-1.05h0l-.3.11L118,23.35l-4,1.48h0v0c.09.16.17.32.25.49l1,2,.75,1.5a9.75,9.75,0,0,1,.54,1.21l2.25,6.38.89,2.52c.19.52.37,1,.55,1.56v0h0Z"/><path class="cls-3" d="M116.12,36.22q.88,2.52,1.78,5c0,.08,0,.11-.07.13l-.42.15c-.06,0-.08,0-.09,0a.14.14,0,0,0,0-.06l-3.36-9.51c0-.09-.06-.1-.14-.07l-1,.36c-.08,0-.09,0-.06.12q1.62,4.56,3.23,9.13c.05.15.1.3.16.46s0,.07,0,.08l-.52.19c-.06,0-.09,0-.1,0v0q-1.77-5-3.55-10c0-.08,0-.11.07-.14l2.24-.8c.08,0,.1,0,.13.07C114.93,32.86,115.53,34.54,116.12,36.22Z"/><path class="cls-8" d="M117.87,41.43h0a4.29,4.29,0,0,0-.42.15.14.14,0,0,1-.11,0s0-.07-.06-.09a0,0,0,0,0,0,0v0l-.62-1.73-2.74-7.78s0-.05,0-.05l0,0-1,.36h0a0,0,0,0,1,0,0q1.39,3.91,2.77,7.82l.5,1.43.12.34a.16.16,0,0,1,0,.1.16.16,0,0,1-.08.06l-.52.18a.16.16,0,0,1-.12,0,.1.1,0,0,1,0-.09v0L115,40.87l-3.1-8.79a.17.17,0,0,1,0-.14.19.19,0,0,1,.11-.08h0l2.24-.79h0a.13.13,0,0,1,.12,0,.14.14,0,0,1,.07.11c.48,1.34,1,2.68,1.43,4l.71,2,1.42,4a.13.13,0,0,1-.08.2Zm-.25,0,.19-.06,0,0s0,0,0,0l-1.42-4-.71-2c-.48-1.34-.95-2.68-1.42-4l0,0h0L112,32l0,0a.28.28,0,0,0,0,.05q1.56,4.4,3.11,8.79l.44,1.25s0,0,0,.05h0l.52-.18h0c0-.11-.08-.23-.12-.34l-.51-1.43-2.76-7.82a.13.13,0,0,1,0-.12.14.14,0,0,1,.1-.07l1-.36a.15.15,0,0,1,.13,0,.15.15,0,0,1,.08.11q1.38,3.9,2.75,7.78l.62,1.75,0,0h0Z"/><path class="cls-3" d="M128.37,31.89c-.59-1.68-1.18-3.35-1.78-5,0-.08,0-.11.06-.13l2.26-.8c.07,0,.09,0,.12.06l3.56,10.08c0,.07,0,.09-.05.12l-.51.17s-.07,0-.08,0l0-.07q-1.68-4.74-3.35-9.5c0-.09-.06-.1-.15-.07-.33.13-.67.25-1,.36-.07,0-.08.05-.06.12.42,1.16.83,2.33,1.24,3.49q1.07,3,2.14,6.06c0,.09,0,.12-.07.14l-.42.15s-.07,0-.08,0l0-.1Z"/><path class="cls-8" d="M130.7,36.9h0a2.84,2.84,0,0,0-.38.13h0a.12.12,0,0,1-.1,0,.09.09,0,0,1,0-.08l0-.06v0l-2-5.68c-.51-1.44-1-2.88-1.52-4.31a.15.15,0,0,1,0-.13.2.2,0,0,1,.1-.08h0l2.25-.79a.13.13,0,0,1,.12,0,.14.14,0,0,1,.07.1l3.57,10.08a.17.17,0,0,1,0,.12.15.15,0,0,1-.09.07c-.17,0-.33.11-.51.18a.12.12,0,0,1-.1,0s0-.07-.06-.08,0,0,0,0v0l-.37-1.05c-1-2.82-2-5.63-3-8.45,0,0,0,0,0,0s0,0,0,0h0l-1,.36h0a.08.08,0,0,0,0,0c.34.95.67,1.91,1,2.86l.58,1.64,1.78,5a.17.17,0,0,1,0,.14A.13.13,0,0,1,130.7,36.9Zm-.25,0,.19-.06.05,0h0v-.06l-1.79-5L128.31,30c-.34-1-.67-1.91-1-2.86a.25.25,0,0,1,0-.12.17.17,0,0,1,.1-.07l1-.36a.17.17,0,0,1,.14,0,.15.15,0,0,1,.08.11q1.5,4.23,3,8.45l.39,1.08a.43.43,0,0,1,0,.05h0c.18-.07.34-.13.51-.18h0v0Q130.76,31,129,26a.11.11,0,0,0,0,0h0c-.79.29-1.53.55-2.26.8h0l0,0h0v0l1.53,4.31,2,5.72,0,.08h0Z"/><path class="cls-3" d="M113.21,38.78c.42,1.19.84,2.39,1.27,3.58,0,.07,0,.1-.06.13a3.12,3.12,0,0,0-.43.15c-.06,0-.08,0-.1,0a.43.43,0,0,1,0-.05c-.78-2.21-1.57-4.42-2.34-6.63,0-.08-.06-.1-.14-.07l-.94.34c-.08,0-.09,0-.06.12q1.17,3.33,2.35,6.66c0,.08,0,.11-.06.14a3.57,3.57,0,0,0-.46.16c-.06,0-.08,0-.1-.06l-.56-1.56-2-5.62c0-.08,0-.11.06-.14l2.16-.76c.08,0,.1,0,.13.06C112.36,36.38,112.78,37.58,113.21,38.78Z"/><path class="cls-8" d="M112.72,43.15h0l-.44.16s-.08,0-.12,0,0-.06-.07-.1c-.14-.42-.29-.83-.44-1.25l-.39-1.12L109.53,36a.19.19,0,0,1,0-.13s.06-.06.1-.08l2.17-.76h0a.17.17,0,0,1,.12,0,.14.14,0,0,1,.07.1L113,38l.5,1.44,1,2.86s0,.09,0,.13a.15.15,0,0,1-.09.07,4.31,4.31,0,0,0-.43.15.13.13,0,0,1-.12,0,.11.11,0,0,1,0-.09,0,0,0,0,1,0,0v0l-.29-.83-2-5.8s0,0,0,0h0s0,0,0,0l-.94.33,0,0h0v0l1.26,3.54c.36,1,.73,2.07,1.09,3.11a.14.14,0,0,1,0,.14S112.76,43.13,112.72,43.15Zm-.27,0,.22-.08h0V43c-.37-1-.74-2.07-1.1-3.11l-1.26-3.55a.17.17,0,0,1,0-.12c0-.05.06-.06.1-.08l.94-.33a.19.19,0,0,1,.13,0,.23.23,0,0,1,.08.11q1,2.91,2,5.8l.3.85v0h0l.44-.16h0v0c-.34-1-.68-1.91-1-2.87l-.51-1.43-1-2.88a.16.16,0,0,1,0,0h0l-2.16.77h0l0,0h0v0q.85,2.4,1.7,4.82l.4,1.11c.15.42.3.84.44,1.26v0h0Z"/><path class="cls-3" d="M132.24,32c-.42-1.19-.85-2.39-1.27-3.59,0-.07,0-.09.05-.12l2.18-.77c.07,0,.1,0,.12.06.85,2.39,1.69,4.79,2.54,7.18,0,.07,0,.1-.05.13l-.49.17s-.07,0-.08,0,0,0,0-.06l-2.34-6.63c0-.08-.06-.1-.14-.07l-1,.34c-.07,0-.08.05-.06.12.79,2.22,1.57,4.44,2.36,6.65,0,.09,0,.12-.07.15a3,3,0,0,0-.39.14c-.08,0-.1,0-.12-.06Z"/><path class="cls-8" d="M134.06,35.61h0l-.39.14a.16.16,0,0,1-.12,0,.2.2,0,0,1-.08-.1l-1.08-3.08-.44-1.24c-.34-.95-.67-1.91-1-2.87a.13.13,0,0,1,0-.12.15.15,0,0,1,.09-.07h0l2.17-.77h0a.13.13,0,0,1,.12,0,.14.14,0,0,1,.07.1c.85,2.4,1.7,4.79,2.54,7.19a.13.13,0,0,1,0,.12.14.14,0,0,1-.1.07l-.46.16h0a.11.11,0,0,1-.11,0,.18.18,0,0,1,0-.08,0,0,0,0,0,0,0v0l-.33-1-2-5.68a.12.12,0,0,0,0-.05h0l-.95.34s0,0,0,0v0c.36,1,.73,2.07,1.1,3.11s.83,2.36,1.25,3.54a.2.2,0,0,1,0,.15S134.09,35.59,134.06,35.61Zm-.25,0,.19-.07h.05a.15.15,0,0,0,0-.06c-.42-1.18-.83-2.36-1.25-3.55-.37-1-.73-2.07-1.1-3.1a.15.15,0,0,1,0-.13s.06,0,.1-.07l.95-.33a.18.18,0,0,1,.13,0,.15.15,0,0,1,.08.11l2,5.69.34,1s0,0,0,0h0l.47-.17h0v0c-.85-2.39-1.7-4.79-2.54-7.18l0,0h0l-2.18.76,0,0v0l1,2.88.44,1.23,1.08,3.08,0,0h0Z"/><rect class="cls-3" x="111.11" y="38.92" width="26.08" height="1.56" transform="translate(-6.13 43.64) rotate(-19.46)"/><path class="cls-8" d="M136.78,36.12l-24.7,8.73-.56-1.58,24.7-8.72ZM112.15,44.7l24.48-8.65-.48-1.36-24.48,8.65Z"/></g></g></g></g></svg>